%TF.GenerationSoftware,KiCad,Pcbnew,(6.0.5-0)*%
%TF.CreationDate,2022-06-29T01:01:46-07:00*%
%TF.ProjectId,jetson-nano-ppoe,6a657473-6f6e-42d6-9e61-6e6f2d70706f,rev?*%
%TF.SameCoordinates,PX8b3c880PY8583b00*%
%TF.FileFunction,Copper,L1,Top*%
%TF.FilePolarity,Positive*%
%FSLAX46Y46*%
G04 Gerber Fmt 4.6, Leading zero omitted, Abs format (unit mm)*
G04 Created by KiCad (PCBNEW (6.0.5-0)) date 2022-06-29 01:01:46*
%MOMM*%
%LPD*%
G01*
G04 APERTURE LIST*
G04 Aperture macros list*
%AMRoundRect*
0 Rectangle with rounded corners*
0 $1 Rounding radius*
0 $2 $3 $4 $5 $6 $7 $8 $9 X,Y pos of 4 corners*
0 Add a 4 corners polygon primitive as box body*
4,1,4,$2,$3,$4,$5,$6,$7,$8,$9,$2,$3,0*
0 Add four circle primitives for the rounded corners*
1,1,$1+$1,$2,$3*
1,1,$1+$1,$4,$5*
1,1,$1+$1,$6,$7*
1,1,$1+$1,$8,$9*
0 Add four rect primitives between the rounded corners*
20,1,$1+$1,$2,$3,$4,$5,0*
20,1,$1+$1,$4,$5,$6,$7,0*
20,1,$1+$1,$6,$7,$8,$9,0*
20,1,$1+$1,$8,$9,$2,$3,0*%
G04 Aperture macros list end*
%TA.AperFunction,ComponentPad*%
%ADD10R,1.700000X1.700000*%
%TD*%
%TA.AperFunction,ComponentPad*%
%ADD11O,1.700000X1.700000*%
%TD*%
%TA.AperFunction,ComponentPad*%
%ADD12C,1.650000*%
%TD*%
%TA.AperFunction,ComponentPad*%
%ADD13C,0.800000*%
%TD*%
%TA.AperFunction,ComponentPad*%
%ADD14C,6.400000*%
%TD*%
%TA.AperFunction,SMDPad,CuDef*%
%ADD15R,0.900000X0.800000*%
%TD*%
%TA.AperFunction,SMDPad,CuDef*%
%ADD16R,0.900000X0.900000*%
%TD*%
%TA.AperFunction,SMDPad,CuDef*%
%ADD17R,1.060000X0.650000*%
%TD*%
%TA.AperFunction,SMDPad,CuDef*%
%ADD18C,2.000000*%
%TD*%
%TA.AperFunction,SMDPad,CuDef*%
%ADD19RoundRect,0.218750X0.218750X0.256250X-0.218750X0.256250X-0.218750X-0.256250X0.218750X-0.256250X0*%
%TD*%
%TA.AperFunction,SMDPad,CuDef*%
%ADD20RoundRect,0.218750X-0.218750X-0.256250X0.218750X-0.256250X0.218750X0.256250X-0.218750X0.256250X0*%
%TD*%
%TA.AperFunction,ViaPad*%
%ADD21C,0.609600*%
%TD*%
%TA.AperFunction,Conductor*%
%ADD22C,0.914400*%
%TD*%
%TA.AperFunction,Conductor*%
%ADD23C,0.254000*%
%TD*%
%TA.AperFunction,Conductor*%
%ADD24C,2.000000*%
%TD*%
G04 APERTURE END LIST*
%TO.C,NT1*%
G36*
X7500000Y9500000D02*
G01*
X3500000Y9500000D01*
X3500000Y11500000D01*
X7500000Y11500000D01*
X7500000Y9500000D01*
G37*
%TO.C,NT2*%
G36*
X3750000Y44500000D02*
G01*
X1750000Y44500000D01*
X1750000Y48500000D01*
X3750000Y48500000D01*
X3750000Y44500000D01*
G37*
%TD*%
D10*
%TO.P,J2,1,Pin_1*%
%TO.N,+3V3*%
X5270000Y21870000D03*
D11*
%TO.P,J2,2,Pin_2*%
%TO.N,+5V*%
X2730000Y21870000D03*
%TO.P,J2,3,Pin_3*%
%TO.N,/I2C1_SDA*%
X5270000Y24410000D03*
%TO.P,J2,4,Pin_4*%
%TO.N,+5V*%
X2730000Y24410000D03*
%TO.P,J2,5,Pin_5*%
%TO.N,/I2C1_SCL*%
X5270000Y26950000D03*
%TO.P,J2,6,Pin_6*%
%TO.N,GND*%
X2730000Y26950000D03*
%TO.P,J2,7,Pin_7*%
%TO.N,unconnected-(J2-Pad7)*%
X5270000Y29490000D03*
%TO.P,J2,8,Pin_8*%
%TO.N,/UART1_TXD*%
X2730000Y29490000D03*
%TO.P,J2,9,Pin_9*%
%TO.N,GND*%
X5270000Y32030000D03*
%TO.P,J2,10,Pin_10*%
%TO.N,/UART1_RXD*%
X2730000Y32030000D03*
%TD*%
D12*
%TO.P,J1,1,Pin_1*%
%TO.N,GND*%
X7000000Y5500000D03*
%TO.P,J1,2,Pin_2*%
%TO.N,/12V_CONN*%
X3500000Y10500000D03*
%TD*%
D13*
%TO.P,H2,1*%
%TO.N,N/C*%
X4000000Y77400000D03*
X6400000Y75000000D03*
X1600000Y75000000D03*
X2302944Y76697056D03*
X2302944Y73302944D03*
X5697056Y76697056D03*
D14*
X4000000Y75000000D03*
D13*
X5697056Y73302944D03*
X4000000Y72600000D03*
%TD*%
D15*
%TO.P,Q2,1,G*%
%TO.N,/12V_2_G*%
X7000000Y68700000D03*
%TO.P,Q2,2,S*%
%TO.N,/REG_VRP*%
X7000000Y66800000D03*
%TO.P,Q2,3,D*%
%TO.N,/TR2_TAP*%
X9000000Y67750000D03*
%TD*%
D16*
%TO.P,RN1,1,R1.1*%
%TO.N,unconnected-(RN1-Pad1)*%
X9500000Y49250000D03*
%TO.P,RN1,2,R1.1*%
%TO.N,GND*%
X9500000Y47910000D03*
%TO.P,RN1,3,R1.1*%
%TO.N,/12V_G_R*%
X9500000Y46590000D03*
%TO.P,RN1,4,R1.1*%
%TO.N,/REG_PG*%
X9500000Y45250000D03*
%TO.P,RN1,5,R1.2*%
%TO.N,/REG_PG_R*%
X12500000Y45250000D03*
%TO.P,RN1,6,R1.2*%
%TO.N,/REG_VIN_K*%
X12500000Y46590000D03*
%TO.P,RN1,7,R1.2*%
%TO.N,+12V*%
X12500000Y47910000D03*
%TO.P,RN1,8,R1.2*%
%TO.N,unconnected-(RN1-Pad8)*%
X12500000Y49250000D03*
%TD*%
D17*
%TO.P,Q4,1,S*%
%TO.N,GND*%
X12100000Y52300000D03*
%TO.P,Q4,2,G*%
%TO.N,+12V*%
X12100000Y53250000D03*
%TO.P,Q4,3,D*%
X12100000Y54200000D03*
%TO.P,Q4,4,S*%
%TO.N,GND*%
X9900000Y54200000D03*
%TO.P,Q4,5,G*%
%TO.N,/TR2_TAP*%
X9900000Y53250000D03*
%TO.P,Q4,6,D*%
%TO.N,/12V_G_R*%
X9900000Y52300000D03*
%TD*%
D10*
%TO.P,J3,1,Pin_1*%
%TO.N,/TR1_TAP*%
X8870000Y73730000D03*
D11*
%TO.P,J3,2,Pin_2*%
%TO.N,/TR0_TAP*%
X8870000Y76270000D03*
%TO.P,J3,3,Pin_3*%
%TO.N,GND*%
X11410000Y73730000D03*
%TO.P,J3,4,Pin_4*%
%TO.N,/TR2_TAP*%
X11410000Y76270000D03*
%TD*%
D13*
%TO.P,H1,1*%
%TO.N,N/C*%
X4000000Y19400000D03*
X2302944Y15302944D03*
X6400000Y17000000D03*
X1600000Y17000000D03*
X5697056Y15302944D03*
X2302944Y18697056D03*
D14*
X4000000Y17000000D03*
D13*
X4000000Y14600000D03*
X5697056Y18697056D03*
%TD*%
D18*
%TO.P,NT1,1,1*%
%TO.N,/12V_CONN*%
X3500000Y10500000D03*
%TO.P,NT1,2,2*%
%TO.N,+12V*%
X7500000Y10500000D03*
%TD*%
D19*
%TO.P,D1,1,K*%
%TO.N,/REG_VIN_K*%
X12687500Y8800000D03*
%TO.P,D1,2,A*%
%TO.N,+12V*%
X11112500Y8800000D03*
%TD*%
D10*
%TO.P,J5,1,Pin_1*%
%TO.N,GND*%
X11620000Y19330000D03*
D11*
%TO.P,J5,2,Pin_2*%
%TO.N,unconnected-(J5-Pad2)*%
X11620000Y21870000D03*
%TO.P,J5,3,Pin_3*%
%TO.N,/UART_VCC*%
X11620000Y24410000D03*
%TO.P,J5,4,Pin_4*%
%TO.N,/UART1_RXD*%
X11620000Y26950000D03*
%TO.P,J5,5,Pin_5*%
%TO.N,/UART1_TXD*%
X11620000Y29490000D03*
%TO.P,J5,6,Pin_6*%
%TO.N,unconnected-(J5-Pad6)*%
X11620000Y32030000D03*
%TD*%
D18*
%TO.P,NT2,1,1*%
%TO.N,+5V*%
X2750000Y44500000D03*
%TO.P,NT2,2,2*%
%TO.N,/REG_VOUT*%
X2750000Y48500000D03*
%TD*%
D20*
%TO.P,D2,1,K*%
%TO.N,/REG_VRP_K*%
X10962500Y68600000D03*
%TO.P,D2,2,A*%
%TO.N,/REG_VRP*%
X12537500Y68600000D03*
%TD*%
D10*
%TO.P,J4,1,Pin_1*%
%TO.N,/REG_PG*%
X2730000Y61240000D03*
D11*
%TO.P,J4,2,Pin_2*%
%TO.N,/REG_EN*%
X5270000Y61240000D03*
%TO.P,J4,3,Pin_3*%
%TO.N,/REG_VRP*%
X2730000Y58700000D03*
%TO.P,J4,4,Pin_4*%
X5270000Y58700000D03*
%TO.P,J4,5,Pin_5*%
%TO.N,+12V*%
X2730000Y56160000D03*
%TO.P,J4,6,Pin_6*%
X5270000Y56160000D03*
%TO.P,J4,7,Pin_7*%
%TO.N,GND*%
X2730000Y53620000D03*
%TO.P,J4,8,Pin_8*%
X5270000Y53620000D03*
%TO.P,J4,9,Pin_9*%
X2730000Y51080000D03*
%TO.P,J4,10,Pin_10*%
X5270000Y51080000D03*
%TO.P,J4,11,Pin_11*%
%TO.N,/REG_VOUT*%
X2730000Y48540000D03*
%TO.P,J4,12,Pin_12*%
X5270000Y48540000D03*
%TD*%
D19*
%TO.P,D3,1,K*%
%TO.N,/REG_PG_R*%
X12537500Y40750000D03*
%TO.P,D3,2,A*%
%TO.N,+12V*%
X10962500Y40750000D03*
%TD*%
D16*
%TO.P,RN2,1,R1.1*%
%TO.N,/TR2_TAP*%
X9500000Y61000000D03*
%TO.P,RN2,2,R1.1*%
%TO.N,/12V_2_G*%
X9500000Y59660000D03*
%TO.P,RN2,3,R1.1*%
X9500000Y58340000D03*
%TO.P,RN2,4,R1.1*%
%TO.N,/REG_VRP_K*%
X9500000Y57000000D03*
%TO.P,RN2,5,R1.2*%
%TO.N,+12V*%
X12500000Y57000000D03*
%TO.P,RN2,6,R1.2*%
%TO.N,/REG_VRP*%
X12500000Y58340000D03*
%TO.P,RN2,7,R1.2*%
%TO.N,+12V*%
X12500000Y59660000D03*
%TO.P,RN2,8,R1.2*%
%TO.N,GND*%
X12500000Y61000000D03*
%TD*%
D21*
%TO.N,GND*%
X12500000Y51250000D03*
X9750000Y55000000D03*
X10500000Y50250000D03*
X11750000Y63500000D03*
%TO.N,/UART1_RXD*%
X6321604Y27808452D03*
%TO.N,/REG_VRP*%
X6750000Y70000000D03*
X10557146Y69692854D03*
%TO.N,/TR2_TAP*%
X12250000Y55500000D03*
X10500000Y62250000D03*
%TO.N,/REG_PG*%
X6250000Y49750000D03*
X9500000Y44250000D03*
%TD*%
D22*
%TO.N,+12V*%
X6840000Y56160000D02*
X7750000Y55250000D01*
D23*
X13500000Y59364000D02*
X13204000Y59660000D01*
X13204000Y59660000D02*
X12500000Y59660000D01*
X12884000Y53250000D02*
X12100000Y53250000D01*
X13500000Y57296000D02*
X13500000Y59364000D01*
X13000000Y53134000D02*
X13000000Y54250000D01*
X10384511Y55634511D02*
X9384511Y55634511D01*
X12500000Y57000000D02*
X13204000Y57000000D01*
X13000000Y55750000D02*
X12500000Y56250000D01*
D22*
X2730000Y56160000D02*
X5270000Y56160000D01*
D23*
X13279711Y48470289D02*
X13279711Y52854289D01*
X12719422Y47910000D02*
X13279711Y48470289D01*
X12500000Y57000000D02*
X12500000Y56250000D01*
X13279711Y52854289D02*
X13000000Y53134000D01*
X11000000Y56250000D02*
X10384511Y55634511D01*
X13279711Y52854289D02*
X12884000Y53250000D01*
X9384511Y55634511D02*
X9000000Y55250000D01*
X12950000Y54200000D02*
X13000000Y54250000D01*
X13204000Y57000000D02*
X13500000Y57296000D01*
X13000000Y54250000D02*
X13000000Y55750000D01*
D22*
X5270000Y56160000D02*
X6840000Y56160000D01*
D23*
X12500000Y47910000D02*
X12719422Y47910000D01*
X12500000Y56250000D02*
X11000000Y56250000D01*
X12100000Y54200000D02*
X12950000Y54200000D01*
%TO.N,GND*%
X9900000Y54200000D02*
X9900000Y54850000D01*
X12100000Y52300000D02*
X12100000Y51650000D01*
X12500000Y62750000D02*
X11750000Y63500000D01*
X12500000Y61000000D02*
X12500000Y62750000D01*
X9900000Y54850000D02*
X9750000Y55000000D01*
X9500000Y47910000D02*
X10204000Y47910000D01*
X10500000Y48206000D02*
X10500000Y50250000D01*
X12100000Y51650000D02*
X12500000Y51250000D01*
X10204000Y47910000D02*
X10500000Y48206000D01*
D24*
%TO.N,+5V*%
X2750000Y35250000D02*
X1250000Y33750000D01*
X2750000Y44500000D02*
X2750000Y35250000D01*
D23*
%TO.N,/UART1_RXD*%
X4000000Y30760000D02*
X2730000Y32030000D01*
X5955150Y28174906D02*
X4575094Y28174906D01*
X6321604Y27808452D02*
X5955150Y28174906D01*
X4575094Y28174906D02*
X4000000Y28750000D01*
X4000000Y28750000D02*
X4000000Y30760000D01*
%TO.N,/REG_VIN_K*%
X12719422Y46590000D02*
X12500000Y46590000D01*
X12800000Y8800000D02*
X13250000Y9250000D01*
X13250000Y11000000D02*
X13304720Y11054720D01*
X13250000Y9250000D02*
X13250000Y11000000D01*
X12687500Y8800000D02*
X12800000Y8800000D01*
X13304720Y46004702D02*
X12719422Y46590000D01*
X13304720Y11054720D02*
X13304720Y46004702D01*
D22*
%TO.N,/REG_VRP*%
X7500000Y59250000D02*
X7500000Y64000000D01*
D23*
X12537500Y68600000D02*
X11444646Y69692854D01*
X8779711Y56220289D02*
X6950000Y58050000D01*
X12500000Y58340000D02*
X12399422Y58340000D01*
X11444646Y69692854D02*
X10557146Y69692854D01*
D22*
X7000000Y64500000D02*
X7000000Y66800000D01*
D23*
X6950000Y58050000D02*
X6950000Y58700000D01*
X6750000Y70000000D02*
X6000000Y69250000D01*
X6000000Y69250000D02*
X6000000Y67750000D01*
X6950000Y66800000D02*
X7000000Y66800000D01*
D22*
X5270000Y58700000D02*
X6950000Y58700000D01*
D23*
X10279711Y56220289D02*
X8779711Y56220289D01*
X12399422Y58340000D02*
X10279711Y56220289D01*
D22*
X2730000Y58700000D02*
X5270000Y58700000D01*
X6950000Y58700000D02*
X7500000Y59250000D01*
D23*
X6000000Y67750000D02*
X6950000Y66800000D01*
D22*
X7500000Y64000000D02*
X7000000Y64500000D01*
D23*
%TO.N,/12V_2_G*%
X9500000Y58340000D02*
X8796000Y58340000D01*
X8000000Y65000000D02*
X8500000Y64500000D01*
X8840000Y59660000D02*
X8750000Y59750000D01*
X8500000Y64500000D02*
X8500000Y60000000D01*
X8500000Y58636000D02*
X8500000Y59750000D01*
X8796000Y58340000D02*
X8500000Y58636000D01*
X8500000Y59750000D02*
X8500000Y60000000D01*
X8840000Y59660000D02*
X8500000Y60000000D01*
X9500000Y59660000D02*
X8840000Y59660000D01*
X7050000Y68700000D02*
X8000000Y67750000D01*
X8750000Y59750000D02*
X8500000Y59750000D01*
X8000000Y67750000D02*
X8000000Y65000000D01*
X7000000Y68700000D02*
X7050000Y68700000D01*
D22*
%TO.N,/TR2_TAP*%
X13250000Y72750000D02*
X11750000Y71250000D01*
D23*
X9000000Y62750000D02*
X9500000Y62250000D01*
X9500000Y62250000D02*
X10500000Y62250000D01*
X9000000Y67750000D02*
X9000000Y62750000D01*
D22*
X13250000Y74430000D02*
X13250000Y72750000D01*
D23*
X11750000Y55000000D02*
X11500000Y55000000D01*
D22*
X9000000Y69500000D02*
X10750000Y71250000D01*
D23*
X9900000Y53250000D02*
X10684000Y53250000D01*
D22*
X11750000Y71250000D02*
X10750000Y71250000D01*
D23*
X9500000Y62250000D02*
X9500000Y61000000D01*
X12250000Y55500000D02*
X11750000Y55000000D01*
D22*
X9000000Y67750000D02*
X9000000Y69500000D01*
X11410000Y76270000D02*
X13250000Y74430000D01*
D23*
X11000000Y54500000D02*
X11500000Y55000000D01*
X11000000Y53566000D02*
X11000000Y54500000D01*
X10684000Y53250000D02*
X11000000Y53566000D01*
%TO.N,/REG_VRP_K*%
X11000000Y68562500D02*
X10962500Y68600000D01*
X9500000Y57000000D02*
X10204000Y57000000D01*
X11134501Y62512820D02*
X11000000Y62647321D01*
X10204000Y57000000D02*
X11134501Y57930501D01*
X11134501Y57930501D02*
X11134501Y62512820D01*
X11000000Y62647321D02*
X11000000Y68562500D01*
%TO.N,/12V_G_R*%
X11134511Y47634511D02*
X10090000Y46590000D01*
X10090000Y46590000D02*
X9500000Y46590000D01*
X9900000Y52300000D02*
X11134511Y51065489D01*
X11134511Y51065489D02*
X11134511Y47634511D01*
%TO.N,/REG_PG_R*%
X12500000Y40537500D02*
X12500000Y45250000D01*
X12537500Y40500000D02*
X12500000Y40537500D01*
%TO.N,/REG_PG*%
X1880280Y49869720D02*
X750000Y51000000D01*
X9500000Y45250000D02*
X9500000Y44250000D01*
X1260000Y61240000D02*
X2730000Y61240000D01*
X1250000Y61250000D02*
X1260000Y61240000D01*
X750000Y51000000D02*
X750000Y60750000D01*
X6130280Y49869720D02*
X1880280Y49869720D01*
X6250000Y49750000D02*
X6130280Y49869720D01*
X750000Y60750000D02*
X1250000Y61250000D01*
D24*
%TO.N,/REG_VOUT*%
X5270000Y48540000D02*
X3432711Y46702711D01*
X2730000Y48540000D02*
X5270000Y48540000D01*
X3432711Y46702711D02*
X2750000Y46702711D01*
%TD*%
%TA.AperFunction,Conductor*%
%TO.N,+5V*%
G36*
X1765931Y34479998D02*
G01*
X1786905Y34463095D01*
X2213095Y34036905D01*
X2247121Y33974593D01*
X2250000Y33947810D01*
X2250000Y33044426D01*
X2229998Y32976305D01*
X2182376Y32932765D01*
X2155705Y32918822D01*
X2155694Y32918815D01*
X2150241Y32915964D01*
X1989198Y32786482D01*
X1856371Y32628186D01*
X1853408Y32622797D01*
X1853405Y32622792D01*
X1849633Y32615930D01*
X1756821Y32447105D01*
X1694339Y32250136D01*
X1693653Y32244019D01*
X1693652Y32244015D01*
X1671992Y32050908D01*
X1671305Y32044783D01*
X1671821Y32038639D01*
X1688080Y31845006D01*
X1688081Y31845001D01*
X1688596Y31838867D01*
X1690294Y31832947D01*
X1745119Y31641750D01*
X1750000Y31607019D01*
X1750000Y29905108D01*
X1744102Y29867010D01*
X1694339Y29710136D01*
X1671305Y29504783D01*
X1671821Y29498639D01*
X1688080Y29305006D01*
X1688081Y29305001D01*
X1688596Y29298867D01*
X1690294Y29292947D01*
X1745119Y29101750D01*
X1750000Y29067019D01*
X1750000Y27365108D01*
X1744102Y27327010D01*
X1694339Y27170136D01*
X1671305Y26964783D01*
X1671821Y26958639D01*
X1688080Y26765006D01*
X1688081Y26765001D01*
X1688596Y26758867D01*
X1745555Y26560230D01*
X1840010Y26376440D01*
X1968364Y26214497D01*
X2125730Y26080569D01*
X2306111Y25979757D01*
X2502639Y25915901D01*
X2707826Y25891434D01*
X2713961Y25891906D01*
X2713963Y25891906D01*
X2907715Y25906815D01*
X2907718Y25906816D01*
X2913858Y25907288D01*
X3112887Y25962857D01*
X3146344Y25979757D01*
X3159625Y25986466D01*
X3216435Y26000000D01*
X3697810Y26000000D01*
X3765931Y25979998D01*
X3786905Y25963095D01*
X4213095Y25536905D01*
X4247121Y25474593D01*
X4250000Y25447810D01*
X4250000Y24699011D01*
X4244102Y24660913D01*
X4234339Y24630136D01*
X4233653Y24624019D01*
X4233652Y24624015D01*
X4223948Y24537500D01*
X4211305Y24424783D01*
X4211821Y24418639D01*
X4228080Y24225006D01*
X4228081Y24225001D01*
X4228596Y24218867D01*
X4230294Y24212947D01*
X4245119Y24161245D01*
X4250000Y24126514D01*
X4250000Y22870449D01*
X4235599Y22822987D01*
X4239762Y22821263D01*
X4235013Y22809798D01*
X4228119Y22799480D01*
X4216300Y22740064D01*
X4216300Y20999936D01*
X4228119Y20940520D01*
X4235013Y20930202D01*
X4239762Y20918737D01*
X4235599Y20917013D01*
X4250000Y20869551D01*
X4250000Y20802190D01*
X4229998Y20734069D01*
X4213095Y20713095D01*
X3940880Y20440880D01*
X3878568Y20406854D01*
X3851566Y20403975D01*
X3830873Y20404011D01*
X3821602Y20404027D01*
X3684454Y20389370D01*
X3458397Y20365212D01*
X3458391Y20365211D01*
X3455013Y20364850D01*
X3451690Y20364126D01*
X3451687Y20364125D01*
X3333475Y20338350D01*
X3094799Y20286311D01*
X3046057Y20270002D01*
X3005736Y20256511D01*
X2965756Y20250000D01*
X802190Y20250000D01*
X734069Y20270002D01*
X713095Y20286905D01*
X286905Y20713095D01*
X252879Y20775407D01*
X250000Y20802190D01*
X250000Y21726897D01*
X1632932Y21726897D01*
X1634542Y21702325D01*
X1636343Y21690953D01*
X1683443Y21505498D01*
X1687284Y21494652D01*
X1767394Y21320880D01*
X1773145Y21310919D01*
X1883579Y21154657D01*
X1891057Y21145902D01*
X2028114Y21012388D01*
X2037058Y21005145D01*
X2196156Y20898839D01*
X2206266Y20893349D01*
X2382077Y20817815D01*
X2393020Y20814260D01*
X2579644Y20772031D01*
X2586004Y20771193D01*
X2599802Y20774662D01*
X2600156Y20775040D01*
X2602500Y20784879D01*
X2602500Y20790977D01*
X2857500Y20790977D01*
X2861466Y20777471D01*
X2875465Y20775467D01*
X2983106Y20791074D01*
X2994302Y20793762D01*
X3175497Y20855270D01*
X3185994Y20859944D01*
X3352958Y20953448D01*
X3362430Y20959958D01*
X3509553Y21082318D01*
X3517682Y21090447D01*
X3640042Y21237570D01*
X3646552Y21247042D01*
X3740056Y21414006D01*
X3744730Y21424503D01*
X3806238Y21605698D01*
X3808926Y21616894D01*
X3824538Y21724571D01*
X3822552Y21738507D01*
X3808984Y21742500D01*
X2875615Y21742500D01*
X2860376Y21738025D01*
X2859171Y21736635D01*
X2857500Y21728952D01*
X2857500Y20790977D01*
X2602500Y20790977D01*
X2602500Y21724385D01*
X2598025Y21739624D01*
X2596635Y21740829D01*
X2588952Y21742500D01*
X1650024Y21742500D01*
X1634984Y21738084D01*
X1632932Y21726897D01*
X250000Y21726897D01*
X250000Y22015488D01*
X1635434Y22015488D01*
X1637876Y22001069D01*
X1650618Y21997500D01*
X2584385Y21997500D01*
X2599624Y22001975D01*
X2600829Y22003365D01*
X2602500Y22011048D01*
X2602500Y22015615D01*
X2857500Y22015615D01*
X2861975Y22000376D01*
X2863365Y21999171D01*
X2871048Y21997500D01*
X3808899Y21997500D01*
X3823444Y22001771D01*
X3825507Y22013905D01*
X3820693Y22066293D01*
X3818595Y22077614D01*
X3766658Y22261769D01*
X3762533Y22272516D01*
X3677903Y22444129D01*
X3671893Y22453937D01*
X3557400Y22607261D01*
X3549710Y22615801D01*
X3409192Y22745696D01*
X3400067Y22752697D01*
X3238236Y22854805D01*
X3227989Y22860026D01*
X3050260Y22930932D01*
X3039233Y22934199D01*
X2875270Y22966812D01*
X2862394Y22965660D01*
X2857500Y22950507D01*
X2857500Y22015615D01*
X2602500Y22015615D01*
X2602500Y22950236D01*
X2598694Y22963198D01*
X2583778Y22965134D01*
X2448737Y22941930D01*
X2437617Y22938950D01*
X2258095Y22872721D01*
X2247717Y22867771D01*
X2083273Y22769937D01*
X2073961Y22763171D01*
X1930097Y22637006D01*
X1922180Y22628663D01*
X1803718Y22478395D01*
X1797450Y22468744D01*
X1708360Y22299411D01*
X1703951Y22288768D01*
X1647210Y22106033D01*
X1644820Y22094789D01*
X1635434Y22015488D01*
X250000Y22015488D01*
X250000Y24266897D01*
X1632932Y24266897D01*
X1634542Y24242325D01*
X1636343Y24230953D01*
X1683443Y24045498D01*
X1687284Y24034652D01*
X1767394Y23860880D01*
X1773145Y23850919D01*
X1883579Y23694657D01*
X1891057Y23685902D01*
X2028114Y23552388D01*
X2037058Y23545145D01*
X2196156Y23438839D01*
X2206266Y23433349D01*
X2382077Y23357815D01*
X2393020Y23354260D01*
X2579644Y23312031D01*
X2586004Y23311193D01*
X2599802Y23314662D01*
X2600156Y23315040D01*
X2602500Y23324879D01*
X2602500Y23330977D01*
X2857500Y23330977D01*
X2861466Y23317471D01*
X2875465Y23315467D01*
X2983106Y23331074D01*
X2994302Y23333762D01*
X3175497Y23395270D01*
X3185994Y23399944D01*
X3352958Y23493448D01*
X3362430Y23499958D01*
X3509553Y23622318D01*
X3517682Y23630447D01*
X3640042Y23777570D01*
X3646552Y23787042D01*
X3740056Y23954006D01*
X3744730Y23964503D01*
X3806238Y24145698D01*
X3808926Y24156894D01*
X3824538Y24264571D01*
X3822552Y24278507D01*
X3808984Y24282500D01*
X2875615Y24282500D01*
X2860376Y24278025D01*
X2859171Y24276635D01*
X2857500Y24268952D01*
X2857500Y23330977D01*
X2602500Y23330977D01*
X2602500Y24264385D01*
X2598025Y24279624D01*
X2596635Y24280829D01*
X2588952Y24282500D01*
X1650024Y24282500D01*
X1634984Y24278084D01*
X1632932Y24266897D01*
X250000Y24266897D01*
X250000Y24555488D01*
X1635434Y24555488D01*
X1637876Y24541069D01*
X1650618Y24537500D01*
X2584385Y24537500D01*
X2599624Y24541975D01*
X2600829Y24543365D01*
X2602500Y24551048D01*
X2602500Y24555615D01*
X2857500Y24555615D01*
X2861975Y24540376D01*
X2863365Y24539171D01*
X2871048Y24537500D01*
X3808899Y24537500D01*
X3823444Y24541771D01*
X3825507Y24553905D01*
X3820693Y24606293D01*
X3818595Y24617614D01*
X3766658Y24801769D01*
X3762533Y24812516D01*
X3677903Y24984129D01*
X3671893Y24993937D01*
X3557400Y25147261D01*
X3549710Y25155801D01*
X3409192Y25285696D01*
X3400067Y25292697D01*
X3238236Y25394805D01*
X3227989Y25400026D01*
X3050260Y25470932D01*
X3039233Y25474199D01*
X2875270Y25506812D01*
X2862394Y25505660D01*
X2857500Y25490507D01*
X2857500Y24555615D01*
X2602500Y24555615D01*
X2602500Y25490236D01*
X2598694Y25503198D01*
X2583778Y25505134D01*
X2448737Y25481930D01*
X2437617Y25478950D01*
X2258095Y25412721D01*
X2247717Y25407771D01*
X2083273Y25309937D01*
X2073961Y25303171D01*
X1930097Y25177006D01*
X1922180Y25168663D01*
X1803718Y25018395D01*
X1797450Y25008744D01*
X1708360Y24839411D01*
X1703951Y24828768D01*
X1647210Y24646033D01*
X1644820Y24634789D01*
X1635434Y24555488D01*
X250000Y24555488D01*
X250000Y33947810D01*
X270002Y34015931D01*
X286905Y34036905D01*
X713095Y34463095D01*
X775407Y34497121D01*
X802190Y34500000D01*
X1697810Y34500000D01*
X1765931Y34479998D01*
G37*
%TD.AperFunction*%
%TD*%
%TA.AperFunction,Conductor*%
%TO.N,+12V*%
G36*
X9015931Y55479998D02*
G01*
X9036905Y55463095D01*
X9227530Y55272470D01*
X9261556Y55210158D01*
X9259115Y55151044D01*
X9258719Y55150200D01*
X9236309Y55006276D01*
X9255195Y54861848D01*
X9258810Y54853633D01*
X9258810Y54853632D01*
X9269934Y54828352D01*
X9279062Y54757945D01*
X9248676Y54693779D01*
X9241889Y54687876D01*
X9242234Y54687531D01*
X9233455Y54678752D01*
X9223140Y54671860D01*
X9216248Y54661545D01*
X9185049Y54614851D01*
X9178119Y54604480D01*
X9166300Y54545064D01*
X9166300Y53854936D01*
X9178119Y53795520D01*
X9185013Y53785202D01*
X9189762Y53773737D01*
X9185653Y53772035D01*
X9199679Y53727285D01*
X9185247Y53678133D01*
X9189762Y53676263D01*
X9185013Y53664798D01*
X9178119Y53654480D01*
X9166300Y53595064D01*
X9166300Y52904936D01*
X9178119Y52845520D01*
X9185013Y52835202D01*
X9189762Y52823737D01*
X9185653Y52822035D01*
X9199679Y52777285D01*
X9185247Y52728133D01*
X9189762Y52726263D01*
X9185013Y52714798D01*
X9178119Y52704480D01*
X9166300Y52645064D01*
X9166300Y51954936D01*
X9178119Y51895520D01*
X9223140Y51828140D01*
X9290520Y51783119D01*
X9349936Y51771300D01*
X9374000Y51771300D01*
X9442121Y51751298D01*
X9488614Y51697642D01*
X9500000Y51645300D01*
X9500000Y50029700D01*
X9479998Y49961579D01*
X9426342Y49915086D01*
X9374000Y49903700D01*
X9029936Y49903700D01*
X8970520Y49891881D01*
X8903140Y49846860D01*
X8858119Y49779480D01*
X8846300Y49720064D01*
X8846300Y48779936D01*
X8858119Y48720520D01*
X8865013Y48710203D01*
X8865013Y48710202D01*
X8903140Y48653140D01*
X8900341Y48651270D01*
X8924634Y48606783D01*
X8919569Y48535968D01*
X8901546Y48507925D01*
X8903140Y48506860D01*
X8858119Y48439480D01*
X8846300Y48380064D01*
X8846300Y47439936D01*
X8858119Y47380520D01*
X8865013Y47370203D01*
X8865013Y47370202D01*
X8898556Y47320001D01*
X8919770Y47252248D01*
X8898556Y47180000D01*
X8858119Y47119480D01*
X8846300Y47060064D01*
X8846300Y46119936D01*
X8858119Y46060520D01*
X8865013Y46050203D01*
X8865013Y46050202D01*
X8903140Y45993140D01*
X8900341Y45991270D01*
X8924634Y45946783D01*
X8919569Y45875968D01*
X8901546Y45847925D01*
X8903140Y45846860D01*
X8858119Y45779480D01*
X8846300Y45720064D01*
X8846300Y44779936D01*
X8858119Y44720520D01*
X8903140Y44653140D01*
X8969102Y44609067D01*
X8969105Y44609064D01*
X8970520Y44608119D01*
X8970435Y44607992D01*
X9018615Y44569167D01*
X9041035Y44501803D01*
X9029169Y44443757D01*
X9012534Y44408327D01*
X9012533Y44408323D01*
X9008719Y44400200D01*
X8986309Y44256276D01*
X9005195Y44111848D01*
X9008809Y44103635D01*
X9008810Y44103631D01*
X9013132Y44093809D01*
X9063859Y43978526D01*
X9157583Y43867027D01*
X9165060Y43862050D01*
X9271361Y43791290D01*
X9271363Y43791289D01*
X9278834Y43786316D01*
X9417864Y43742879D01*
X9563498Y43740210D01*
X9591090Y43747733D01*
X9647201Y43763030D01*
X9718184Y43761650D01*
X9769438Y43730562D01*
X11463095Y42036905D01*
X11497121Y41974593D01*
X11500000Y41947810D01*
X11500000Y41573471D01*
X11479998Y41505350D01*
X11426342Y41458857D01*
X11356068Y41448753D01*
X11329771Y41455489D01*
X11291206Y41469946D01*
X11275959Y41473572D01*
X11229391Y41478631D01*
X11222579Y41479000D01*
X11108115Y41479000D01*
X11092876Y41474525D01*
X11091671Y41473135D01*
X11090000Y41465452D01*
X11090000Y40039116D01*
X11094475Y40023877D01*
X11095865Y40022672D01*
X11103548Y40021001D01*
X11222576Y40021001D01*
X11229394Y40021370D01*
X11275952Y40026427D01*
X11291211Y40030056D01*
X11329771Y40044511D01*
X11400578Y40049694D01*
X11462947Y40015773D01*
X11497076Y39953518D01*
X11500000Y39926529D01*
X11500000Y33187378D01*
X11479998Y33119257D01*
X11426342Y33072764D01*
X11409576Y33066505D01*
X11359957Y33051901D01*
X11223367Y33011700D01*
X11040241Y32915964D01*
X10879198Y32786482D01*
X10746371Y32628186D01*
X10743408Y32622797D01*
X10743405Y32622792D01*
X10739633Y32615930D01*
X10646821Y32447105D01*
X10584339Y32250136D01*
X10583653Y32244019D01*
X10583652Y32244015D01*
X10561992Y32050908D01*
X10561305Y32044783D01*
X10561821Y32038639D01*
X10578080Y31845006D01*
X10578081Y31845001D01*
X10578596Y31838867D01*
X10635555Y31640230D01*
X10730010Y31456440D01*
X10858364Y31294497D01*
X11015730Y31160569D01*
X11196111Y31059757D01*
X11392639Y30995901D01*
X11398754Y30995172D01*
X11401059Y30994665D01*
X11463295Y30960501D01*
X11497180Y30898112D01*
X11500000Y30871605D01*
X11500000Y30647378D01*
X11479998Y30579257D01*
X11426342Y30532764D01*
X11409576Y30526505D01*
X11359957Y30511901D01*
X11223367Y30471700D01*
X11040241Y30375964D01*
X10879198Y30246482D01*
X10746371Y30088186D01*
X10743408Y30082797D01*
X10743405Y30082792D01*
X10739633Y30075930D01*
X10646821Y29907105D01*
X10584339Y29710136D01*
X10583653Y29704019D01*
X10583652Y29704015D01*
X10561992Y29510908D01*
X10561305Y29504783D01*
X10561821Y29498639D01*
X10578080Y29305006D01*
X10578081Y29305001D01*
X10578596Y29298867D01*
X10635555Y29100230D01*
X10730010Y28916440D01*
X10858364Y28754497D01*
X11015730Y28620569D01*
X11196111Y28519757D01*
X11392639Y28455901D01*
X11398754Y28455172D01*
X11401059Y28454665D01*
X11463295Y28420501D01*
X11497180Y28358112D01*
X11500000Y28331605D01*
X11500000Y28107378D01*
X11479998Y28039257D01*
X11426342Y27992764D01*
X11409576Y27986505D01*
X11359957Y27971901D01*
X11223367Y27931700D01*
X11040241Y27835964D01*
X10879198Y27706482D01*
X10875239Y27701764D01*
X10875238Y27701763D01*
X10833701Y27652261D01*
X10746371Y27548186D01*
X10743408Y27542797D01*
X10743405Y27542792D01*
X10649788Y27372502D01*
X10646821Y27367105D01*
X10584339Y27170136D01*
X10583653Y27164019D01*
X10583652Y27164015D01*
X10561992Y26970908D01*
X10561305Y26964783D01*
X10561821Y26958639D01*
X10578080Y26765006D01*
X10578081Y26765001D01*
X10578596Y26758867D01*
X10635555Y26560230D01*
X10730010Y26376440D01*
X10858364Y26214497D01*
X11015730Y26080569D01*
X11196111Y25979757D01*
X11392639Y25915901D01*
X11398754Y25915172D01*
X11401059Y25914665D01*
X11463295Y25880501D01*
X11497180Y25818112D01*
X11500000Y25791605D01*
X11500000Y25567378D01*
X11479998Y25499257D01*
X11426342Y25452764D01*
X11409576Y25446505D01*
X11359957Y25431901D01*
X11223367Y25391700D01*
X11040241Y25295964D01*
X10879198Y25166482D01*
X10746371Y25008186D01*
X10743408Y25002797D01*
X10743405Y25002792D01*
X10739633Y24995930D01*
X10646821Y24827105D01*
X10584339Y24630136D01*
X10583653Y24624019D01*
X10583652Y24624015D01*
X10561992Y24430908D01*
X10561305Y24424783D01*
X10561821Y24418639D01*
X10578080Y24225006D01*
X10578081Y24225001D01*
X10578596Y24218867D01*
X10635555Y24020230D01*
X10730010Y23836440D01*
X10858364Y23674497D01*
X11015730Y23540569D01*
X11196111Y23439757D01*
X11392639Y23375901D01*
X11398754Y23375172D01*
X11401059Y23374665D01*
X11463295Y23340501D01*
X11497180Y23278112D01*
X11500000Y23251605D01*
X11500000Y23027378D01*
X11479998Y22959257D01*
X11426342Y22912764D01*
X11409576Y22906505D01*
X11359957Y22891901D01*
X11223367Y22851700D01*
X11040241Y22755964D01*
X10879198Y22626482D01*
X10746371Y22468186D01*
X10743408Y22462797D01*
X10743405Y22462792D01*
X10739633Y22455930D01*
X10646821Y22287105D01*
X10584339Y22090136D01*
X10583653Y22084019D01*
X10583652Y22084015D01*
X10561992Y21890908D01*
X10561305Y21884783D01*
X10561821Y21878639D01*
X10578080Y21685006D01*
X10578081Y21685001D01*
X10578596Y21678867D01*
X10635555Y21480230D01*
X10730010Y21296440D01*
X10858364Y21134497D01*
X11015730Y21000569D01*
X11196111Y20899757D01*
X11392639Y20835901D01*
X11398754Y20835172D01*
X11401059Y20834665D01*
X11463295Y20800501D01*
X11497180Y20738112D01*
X11500000Y20711605D01*
X11500000Y20509700D01*
X11479998Y20441579D01*
X11426342Y20395086D01*
X11374000Y20383700D01*
X10749936Y20383700D01*
X10690520Y20371881D01*
X10680203Y20364987D01*
X10680202Y20364987D01*
X10656426Y20349101D01*
X10623140Y20326860D01*
X10578119Y20259480D01*
X10566300Y20200064D01*
X10566300Y18459936D01*
X10578119Y18400520D01*
X10623140Y18333140D01*
X10690520Y18288119D01*
X10749936Y18276300D01*
X11374000Y18276300D01*
X11442121Y18256298D01*
X11488614Y18202642D01*
X11500000Y18150300D01*
X11500000Y9655000D01*
X11479998Y9586879D01*
X11426342Y9540386D01*
X11374000Y9529000D01*
X11258115Y9529000D01*
X11242876Y9524525D01*
X11241671Y9523135D01*
X11240000Y9515452D01*
X11240000Y8089115D01*
X11241436Y8084224D01*
X11241434Y8013227D01*
X11209634Y7959634D01*
X11191252Y7941252D01*
X11146195Y7916648D01*
X11144647Y7905881D01*
X11119128Y7869128D01*
X11036905Y7786905D01*
X10974593Y7752879D01*
X10947810Y7750000D01*
X7052190Y7750000D01*
X6984069Y7770002D01*
X6963095Y7786905D01*
X6536905Y8213095D01*
X6502879Y8275407D01*
X6500000Y8302190D01*
X6500000Y8502424D01*
X10421001Y8502424D01*
X10421370Y8495606D01*
X10426427Y8449048D01*
X10430056Y8433789D01*
X10471665Y8322793D01*
X10480197Y8307208D01*
X10550647Y8213208D01*
X10563208Y8200647D01*
X10657208Y8130197D01*
X10672793Y8121665D01*
X10783794Y8080054D01*
X10799041Y8076428D01*
X10845609Y8071369D01*
X10852421Y8071000D01*
X10966883Y8071000D01*
X10983088Y8075758D01*
X10985000Y8084547D01*
X10985000Y8654385D01*
X10980525Y8669624D01*
X10979135Y8670829D01*
X10971452Y8672500D01*
X10439116Y8672500D01*
X10423877Y8668025D01*
X10422672Y8666635D01*
X10421001Y8658952D01*
X10421001Y8502424D01*
X6500000Y8502424D01*
X6500000Y8945615D01*
X10421000Y8945615D01*
X10425475Y8930376D01*
X10426865Y8929171D01*
X10434548Y8927500D01*
X10966885Y8927500D01*
X10982124Y8931975D01*
X10983329Y8933365D01*
X10985000Y8941048D01*
X10985000Y9510884D01*
X10980525Y9526123D01*
X10979135Y9527328D01*
X10971452Y9528999D01*
X10852424Y9528999D01*
X10845606Y9528630D01*
X10799048Y9523573D01*
X10783789Y9519944D01*
X10672793Y9478335D01*
X10657208Y9469803D01*
X10563208Y9399353D01*
X10550647Y9386792D01*
X10480197Y9292792D01*
X10471665Y9277207D01*
X10430054Y9166206D01*
X10426428Y9150959D01*
X10421369Y9104391D01*
X10421000Y9097579D01*
X10421000Y8945615D01*
X6500000Y8945615D01*
X6500000Y9427312D01*
X6520002Y9495433D01*
X6573658Y9541926D01*
X6643932Y9552030D01*
X6698270Y9530525D01*
X6866091Y9413016D01*
X6875592Y9407530D01*
X7064486Y9319447D01*
X7074778Y9315701D01*
X7276098Y9261758D01*
X7286893Y9259855D01*
X7494525Y9241689D01*
X7505475Y9241689D01*
X7713107Y9259855D01*
X7723902Y9261758D01*
X7925222Y9315701D01*
X7935514Y9319447D01*
X8124414Y9407533D01*
X8133900Y9413011D01*
X8279497Y9514958D01*
X8287872Y9525436D01*
X8280804Y9538884D01*
X7408783Y10410905D01*
X7374757Y10473217D01*
X7376592Y10498868D01*
X7685510Y10498868D01*
X7685641Y10497035D01*
X7689892Y10490420D01*
X8461838Y9718474D01*
X8473612Y9712044D01*
X8485628Y9721341D01*
X8586989Y9866100D01*
X8592467Y9875586D01*
X8680553Y10064486D01*
X8684299Y10074778D01*
X8738242Y10276098D01*
X8740145Y10286893D01*
X8758311Y10494525D01*
X8758311Y10505475D01*
X8740145Y10713107D01*
X8738242Y10723902D01*
X8684299Y10925222D01*
X8680553Y10935514D01*
X8592467Y11124414D01*
X8586989Y11133900D01*
X8485042Y11279497D01*
X8474564Y11287872D01*
X8461116Y11280804D01*
X7693124Y10512812D01*
X7685510Y10498868D01*
X7376592Y10498868D01*
X7379822Y10544032D01*
X7408783Y10589095D01*
X8281526Y11461838D01*
X8287956Y11473612D01*
X8278659Y11485628D01*
X8133900Y11586989D01*
X8124414Y11592467D01*
X7935514Y11680553D01*
X7925222Y11684299D01*
X7723902Y11738242D01*
X7713107Y11740145D01*
X7505475Y11758311D01*
X7494525Y11758311D01*
X7286893Y11740145D01*
X7276098Y11738242D01*
X7074778Y11684299D01*
X7064486Y11680553D01*
X6875592Y11592470D01*
X6866091Y11586984D01*
X6698270Y11469475D01*
X6630996Y11446787D01*
X6562136Y11464072D01*
X6513552Y11515842D01*
X6500000Y11572688D01*
X6500000Y14640156D01*
X6520002Y14708277D01*
X6530475Y14722320D01*
X6698450Y14917609D01*
X6698456Y14917617D01*
X6700677Y14920199D01*
X6702607Y14923007D01*
X6907568Y15221226D01*
X6907573Y15221233D01*
X6909498Y15224035D01*
X6911110Y15227029D01*
X6911115Y15227037D01*
X7082661Y15545635D01*
X7084283Y15548647D01*
X7222988Y15890236D01*
X7232620Y15924047D01*
X7254656Y16001408D01*
X7323991Y16244808D01*
X7386109Y16608214D01*
X7408616Y16976203D01*
X7408699Y17000000D01*
X7388761Y17368137D01*
X7329182Y17731968D01*
X7230657Y18087236D01*
X7184732Y18202642D01*
X7095599Y18426622D01*
X7094340Y18429786D01*
X7063335Y18488344D01*
X6923424Y18752591D01*
X6923420Y18752598D01*
X6921825Y18755610D01*
X6919918Y18758426D01*
X6919913Y18758435D01*
X6717043Y19058072D01*
X6715131Y19060896D01*
X6529903Y19279310D01*
X6501099Y19344198D01*
X6500000Y19360803D01*
X6500000Y27250747D01*
X6520002Y27318868D01*
X6560072Y27358122D01*
X6642106Y27408490D01*
X6642109Y27408493D01*
X6649758Y27413189D01*
X6660883Y27425479D01*
X6741477Y27514518D01*
X6741478Y27514519D01*
X6747505Y27521178D01*
X6754653Y27535930D01*
X6807099Y27644180D01*
X6807099Y27644181D01*
X6811014Y27652261D01*
X6835180Y27795900D01*
X6835333Y27808452D01*
X6829510Y27849110D01*
X6815958Y27943746D01*
X6815957Y27943749D01*
X6814684Y27952639D01*
X6810966Y27960817D01*
X6758112Y28077062D01*
X6758111Y28077064D01*
X6754396Y28085234D01*
X6659317Y28195579D01*
X6651782Y28200463D01*
X6557467Y28261596D01*
X6511183Y28315433D01*
X6500000Y28367328D01*
X6500000Y40452424D01*
X10271001Y40452424D01*
X10271370Y40445606D01*
X10276427Y40399048D01*
X10280056Y40383789D01*
X10321665Y40272793D01*
X10330197Y40257208D01*
X10400647Y40163208D01*
X10413208Y40150647D01*
X10507208Y40080197D01*
X10522793Y40071665D01*
X10633794Y40030054D01*
X10649041Y40026428D01*
X10695609Y40021369D01*
X10702421Y40021000D01*
X10816885Y40021000D01*
X10832124Y40025475D01*
X10833329Y40026865D01*
X10835000Y40034548D01*
X10835000Y40604385D01*
X10830525Y40619624D01*
X10829135Y40620829D01*
X10821452Y40622500D01*
X10289116Y40622500D01*
X10273877Y40618025D01*
X10272672Y40616635D01*
X10271001Y40608952D01*
X10271001Y40452424D01*
X6500000Y40452424D01*
X6500000Y40895615D01*
X10271000Y40895615D01*
X10275475Y40880376D01*
X10276865Y40879171D01*
X10284548Y40877500D01*
X10816885Y40877500D01*
X10832124Y40881975D01*
X10833329Y40883365D01*
X10835000Y40891048D01*
X10835000Y41460884D01*
X10830525Y41476123D01*
X10829135Y41477328D01*
X10821452Y41478999D01*
X10702424Y41478999D01*
X10695606Y41478630D01*
X10649048Y41473573D01*
X10633789Y41469944D01*
X10522793Y41428335D01*
X10507208Y41419803D01*
X10413208Y41349353D01*
X10400647Y41336792D01*
X10330197Y41242792D01*
X10321665Y41227207D01*
X10280054Y41116206D01*
X10276428Y41100959D01*
X10271369Y41054391D01*
X10271000Y41047579D01*
X10271000Y40895615D01*
X6500000Y40895615D01*
X6500000Y49236259D01*
X6520002Y49304380D01*
X6560073Y49343635D01*
X6570501Y49350037D01*
X6570506Y49350041D01*
X6578154Y49354737D01*
X6653843Y49438356D01*
X6669873Y49456066D01*
X6669874Y49456067D01*
X6675901Y49462726D01*
X6739410Y49593809D01*
X6757582Y49701819D01*
X6762770Y49732656D01*
X6762770Y49732659D01*
X6763576Y49737448D01*
X6763729Y49750000D01*
X6748871Y49853752D01*
X6744354Y49885294D01*
X6744353Y49885297D01*
X6743080Y49894187D01*
X6739362Y49902365D01*
X6686508Y50018610D01*
X6686507Y50018612D01*
X6682792Y50026782D01*
X6587713Y50137127D01*
X6557465Y50156733D01*
X6511183Y50210569D01*
X6500000Y50262464D01*
X6500000Y54947810D01*
X6520002Y55015931D01*
X6536905Y55036905D01*
X6963095Y55463095D01*
X7025407Y55497121D01*
X7052190Y55500000D01*
X8947810Y55500000D01*
X9015931Y55479998D01*
G37*
%TD.AperFunction*%
%TD*%
M02*
