M48
; DRILL file {KiCad (6.0.5-0)} date Thursday, July 07, 2022 at 02:48:40 PM
; FORMAT={-:-/ absolute / metric / decimal}
; #@! TF.CreationDate,2022-07-07T14:48:40-07:00
; #@! TF.GenerationSoftware,Kicad,Pcbnew,(6.0.5-0)
; #@! TF.FileFunction,Plated,1,2,PTH
FMAT,2
METRIC
; #@! TA.AperFunction,Plated,PTH,ViaDrill
T1C0.305
; #@! TA.AperFunction,Plated,PTH,ComponentDrill
T2C0.500
; #@! TA.AperFunction,Plated,PTH,ComponentDrill
T3C1.000
; #@! TA.AperFunction,Plated,PTH,ComponentDrill
T4C1.100
; #@! TA.AperFunction,Plated,PTH,ComponentDrill
T5C3.200
%
G90
G05
T1
X1.1Y69.6
X4.7Y9.8
X6.4Y28.7
X6.75Y70.0
X9.5Y61.9
X10.557Y69.693
X11.0Y55.0
X11.3Y58.5
X12.5Y56.1
T2
X1.6Y75.0
X1.6Y17.0
X2.303Y76.697
X2.303Y73.303
X2.303Y18.697
X2.303Y15.303
X4.0Y77.4
X4.0Y72.6
X4.0Y19.4
X4.0Y14.6
X5.697Y76.697
X5.697Y73.303
X5.697Y18.697
X5.697Y15.303
X6.4Y75.0
X6.4Y17.0
T3
X2.73Y61.24
X2.73Y58.7
X2.73Y56.16
X2.73Y53.62
X2.73Y51.08
X2.73Y48.54
X2.73Y32.03
X2.73Y29.49
X2.73Y26.95
X2.73Y24.41
X2.73Y21.87
X5.27Y61.24
X5.27Y58.7
X5.27Y56.16
X5.27Y53.62
X5.27Y51.08
X5.27Y48.54
X5.27Y32.03
X5.27Y29.49
X5.27Y26.95
X5.27Y24.41
X5.27Y21.87
X8.87Y76.27
X8.87Y73.73
X11.41Y76.27
X11.41Y73.73
X11.62Y15.52
X11.62Y12.98
X11.62Y10.44
X11.62Y7.9
X11.62Y5.36
X11.62Y2.82
T4
X3.5Y11.2
X7.0Y6.2
T5
X4.0Y75.0
X4.0Y17.0
T0
M30
