%TF.GenerationSoftware,KiCad,Pcbnew,(6.0.5-0)*%
%TF.CreationDate,2022-07-07T14:48:36-07:00*%
%TF.ProjectId,jetson-nano-ppoe,6a657473-6f6e-42d6-9e61-6e6f2d70706f,rev?*%
%TF.SameCoordinates,PX8b3c880PY8583b00*%
%TF.FileFunction,Copper,L2,Bot*%
%TF.FilePolarity,Positive*%
%FSLAX46Y46*%
G04 Gerber Fmt 4.6, Leading zero omitted, Abs format (unit mm)*
G04 Created by KiCad (PCBNEW (6.0.5-0)) date 2022-07-07 14:48:36*
%MOMM*%
%LPD*%
G01*
G04 APERTURE LIST*
G04 Aperture macros list*
%AMFreePoly0*
4,1,6,1.000000,0.000000,0.500000,-0.750000,-0.500000,-0.750000,-0.500000,0.750000,0.500000,0.750000,1.000000,0.000000,1.000000,0.000000,$1*%
%AMFreePoly1*
4,1,6,0.500000,-0.750000,-0.650000,-0.750000,-0.150000,0.000000,-0.650000,0.750000,0.500000,0.750000,0.500000,-0.750000,0.500000,-0.750000,$1*%
G04 Aperture macros list end*
%ADD10C,0.125000*%
%TA.AperFunction,NonConductor*%
%ADD11C,0.125000*%
%TD*%
%TA.AperFunction,EtchedComponent*%
%ADD12C,0.010000*%
%TD*%
%TA.AperFunction,ComponentPad*%
%ADD13R,1.700000X1.700000*%
%TD*%
%TA.AperFunction,ComponentPad*%
%ADD14O,1.700000X1.700000*%
%TD*%
%TA.AperFunction,ComponentPad*%
%ADD15C,1.650000*%
%TD*%
%TA.AperFunction,ComponentPad*%
%ADD16C,0.800000*%
%TD*%
%TA.AperFunction,ComponentPad*%
%ADD17C,6.400000*%
%TD*%
%TA.AperFunction,SMDPad,CuDef*%
%ADD18FreePoly0,270.000000*%
%TD*%
%TA.AperFunction,SMDPad,CuDef*%
%ADD19FreePoly1,270.000000*%
%TD*%
%TA.AperFunction,ViaPad*%
%ADD20C,0.609600*%
%TD*%
%TA.AperFunction,Conductor*%
%ADD21C,0.914400*%
%TD*%
%TA.AperFunction,Conductor*%
%ADD22C,0.254000*%
%TD*%
G04 APERTURE END LIST*
D10*
D11*
X747619Y752084D02*
X1414285Y752084D01*
X1747619Y752084D02*
X1700000Y718750D01*
X1652380Y752084D01*
X1700000Y785417D01*
X1747619Y752084D01*
X1652380Y752084D01*
X747619Y1085417D02*
X1747619Y1085417D01*
X747619Y1385417D02*
X1271428Y1385417D01*
X1366666Y1352084D01*
X1414285Y1285417D01*
X1414285Y1185417D01*
X1366666Y1118750D01*
X1319047Y1085417D01*
X747619Y2018750D02*
X1271428Y2018750D01*
X1366666Y1985417D01*
X1414285Y1918750D01*
X1414285Y1785417D01*
X1366666Y1718750D01*
X795238Y2018750D02*
X747619Y1952084D01*
X747619Y1785417D01*
X795238Y1718750D01*
X890476Y1685417D01*
X985714Y1685417D01*
X1080952Y1718750D01*
X1128571Y1785417D01*
X1128571Y1952084D01*
X1176190Y2018750D01*
X747619Y2352084D02*
X1414285Y2352084D01*
X1223809Y2352084D02*
X1319047Y2385417D01*
X1366666Y2418750D01*
X1414285Y2485417D01*
X1414285Y2552084D01*
X1414285Y2685417D02*
X1414285Y2952084D01*
X1747619Y2785417D02*
X890476Y2785417D01*
X795238Y2818750D01*
X747619Y2885417D01*
X747619Y2952084D01*
X1414285Y3118750D02*
X747619Y3252084D01*
X1223809Y3385417D01*
X747619Y3518750D01*
X1414285Y3652084D01*
X747619Y3918750D02*
X1414285Y3918750D01*
X1747619Y3918750D02*
X1700000Y3885417D01*
X1652380Y3918750D01*
X1700000Y3952084D01*
X1747619Y3918750D01*
X1652380Y3918750D01*
X1414285Y4552084D02*
X604761Y4552084D01*
X509523Y4518750D01*
X461904Y4485417D01*
X414285Y4418750D01*
X414285Y4318750D01*
X461904Y4252084D01*
X795238Y4552084D02*
X747619Y4485417D01*
X747619Y4352084D01*
X795238Y4285417D01*
X842857Y4252084D01*
X938095Y4218750D01*
X1223809Y4218750D01*
X1319047Y4252084D01*
X1366666Y4285417D01*
X1414285Y4352084D01*
X1414285Y4485417D01*
X1366666Y4552084D01*
X1223809Y5318750D02*
X1271428Y5285417D01*
X1319047Y5218750D01*
X1319047Y5152084D01*
X1271428Y5085417D01*
X1223809Y5052084D01*
X1128571Y5018750D01*
X1033333Y5018750D01*
X938095Y5052084D01*
X890476Y5085417D01*
X842857Y5152084D01*
X842857Y5218750D01*
X890476Y5285417D01*
X938095Y5318750D01*
X1319047Y5318750D02*
X938095Y5318750D01*
X890476Y5352084D01*
X890476Y5385417D01*
X938095Y5452084D01*
X1033333Y5485417D01*
X1271428Y5485417D01*
X1414285Y5418750D01*
X1509523Y5318750D01*
X1557142Y5185417D01*
X1509523Y5052084D01*
X1414285Y4952084D01*
X1271428Y4885417D01*
X1080952Y4852084D01*
X890476Y4885417D01*
X747619Y4952084D01*
X652380Y5052084D01*
X604761Y5185417D01*
X652380Y5318750D01*
X747619Y5418750D01*
D10*
D11*
X747619Y6018750D02*
X1747619Y6018750D01*
X747619Y6352084D02*
X1414285Y6352084D01*
X1223809Y6352084D02*
X1319047Y6385417D01*
X1366666Y6418750D01*
X1414285Y6485417D01*
X1414285Y6552084D01*
X747619Y6885417D02*
X795238Y6818750D01*
X842857Y6785417D01*
X938095Y6752084D01*
X1223809Y6752084D01*
X1319047Y6785417D01*
X1366666Y6818750D01*
X1414285Y6885417D01*
X1414285Y6985417D01*
X1366666Y7052084D01*
X1319047Y7085417D01*
X1223809Y7118750D01*
X938095Y7118750D01*
X842857Y7085417D01*
X795238Y7052084D01*
X747619Y6985417D01*
X747619Y6885417D01*
X1414285Y7418750D02*
X747619Y7418750D01*
X1319047Y7418750D02*
X1366666Y7452084D01*
X1414285Y7518750D01*
X1414285Y7618750D01*
X1366666Y7685417D01*
X1271428Y7718750D01*
X747619Y7718750D01*
X747619Y8585417D02*
X1747619Y8585417D01*
X1747619Y8852084D01*
X1700000Y8918750D01*
X1652380Y8952084D01*
X1557142Y8985417D01*
X1414285Y8985417D01*
X1319047Y8952084D01*
X1271428Y8918750D01*
X1223809Y8852084D01*
X1223809Y8585417D01*
X747619Y9585417D02*
X1271428Y9585417D01*
X1366666Y9552084D01*
X1414285Y9485417D01*
X1414285Y9352084D01*
X1366666Y9285417D01*
X795238Y9585417D02*
X747619Y9518750D01*
X747619Y9352084D01*
X795238Y9285417D01*
X890476Y9252084D01*
X985714Y9252084D01*
X1080952Y9285417D01*
X1128571Y9352084D01*
X1128571Y9518750D01*
X1176190Y9585417D01*
X1414285Y9918750D02*
X747619Y9918750D01*
X1319047Y9918750D02*
X1366666Y9952084D01*
X1414285Y10018750D01*
X1414285Y10118750D01*
X1366666Y10185417D01*
X1271428Y10218750D01*
X747619Y10218750D01*
X1414285Y10452084D02*
X1414285Y10718750D01*
X1747619Y10552084D02*
X890476Y10552084D01*
X795238Y10585417D01*
X747619Y10652084D01*
X747619Y10718750D01*
X747619Y10952084D02*
X1747619Y10952084D01*
X747619Y11252084D02*
X1271428Y11252084D01*
X1366666Y11218750D01*
X1414285Y11152084D01*
X1414285Y11052084D01*
X1366666Y10985417D01*
X1319047Y10952084D01*
X795238Y11852084D02*
X747619Y11785417D01*
X747619Y11652084D01*
X795238Y11585417D01*
X890476Y11552084D01*
X1271428Y11552084D01*
X1366666Y11585417D01*
X1414285Y11652084D01*
X1414285Y11785417D01*
X1366666Y11852084D01*
X1271428Y11885417D01*
X1176190Y11885417D01*
X1080952Y11552084D01*
X747619Y12185417D02*
X1414285Y12185417D01*
X1223809Y12185417D02*
X1319047Y12218750D01*
X1366666Y12252084D01*
X1414285Y12318750D01*
X1414285Y12385417D01*
X795238Y12585417D02*
X747619Y12652084D01*
X747619Y12785417D01*
X795238Y12852084D01*
X890476Y12885417D01*
X938095Y12885417D01*
X1033333Y12852084D01*
X1080952Y12785417D01*
X1080952Y12685417D01*
X1128571Y12618750D01*
X1223809Y12585417D01*
X1271428Y12585417D01*
X1366666Y12618750D01*
X1414285Y12685417D01*
X1414285Y12785417D01*
X1366666Y12852084D01*
D10*
D11*
X12552380Y50132143D02*
X13266666Y50132143D01*
X13409523Y50163096D01*
X13504761Y50225000D01*
X13552380Y50317858D01*
X13552380Y50379762D01*
X13504761Y49575000D02*
X13552380Y49636905D01*
X13552380Y49760715D01*
X13504761Y49822620D01*
X13409523Y49853572D01*
X13028571Y49853572D01*
X12933333Y49822620D01*
X12885714Y49760715D01*
X12885714Y49636905D01*
X12933333Y49575000D01*
X13028571Y49544048D01*
X13123809Y49544048D01*
X13219047Y49853572D01*
X12885714Y49358334D02*
X12885714Y49110715D01*
X12552380Y49265477D02*
X13409523Y49265477D01*
X13504761Y49234524D01*
X13552380Y49172620D01*
X13552380Y49110715D01*
X13504761Y48925000D02*
X13552380Y48863096D01*
X13552380Y48739286D01*
X13504761Y48677381D01*
X13409523Y48646429D01*
X13361904Y48646429D01*
X13266666Y48677381D01*
X13219047Y48739286D01*
X13219047Y48832143D01*
X13171428Y48894048D01*
X13076190Y48925000D01*
X13028571Y48925000D01*
X12933333Y48894048D01*
X12885714Y48832143D01*
X12885714Y48739286D01*
X12933333Y48677381D01*
X13552380Y48275000D02*
X13504761Y48336905D01*
X13457142Y48367858D01*
X13361904Y48398810D01*
X13076190Y48398810D01*
X12980952Y48367858D01*
X12933333Y48336905D01*
X12885714Y48275000D01*
X12885714Y48182143D01*
X12933333Y48120239D01*
X12980952Y48089286D01*
X13076190Y48058334D01*
X13361904Y48058334D01*
X13457142Y48089286D01*
X13504761Y48120239D01*
X13552380Y48182143D01*
X13552380Y48275000D01*
X12885714Y47779762D02*
X13552380Y47779762D01*
X12980952Y47779762D02*
X12933333Y47748810D01*
X12885714Y47686905D01*
X12885714Y47594048D01*
X12933333Y47532143D01*
X13028571Y47501191D01*
X13552380Y47501191D01*
X13552380Y46696429D02*
X12552380Y46696429D01*
X13552380Y46325000D01*
X12552380Y46325000D01*
X13552380Y45736905D02*
X13028571Y45736905D01*
X12933333Y45767858D01*
X12885714Y45829762D01*
X12885714Y45953572D01*
X12933333Y46015477D01*
X13504761Y45736905D02*
X13552380Y45798810D01*
X13552380Y45953572D01*
X13504761Y46015477D01*
X13409523Y46046429D01*
X13314285Y46046429D01*
X13219047Y46015477D01*
X13171428Y45953572D01*
X13171428Y45798810D01*
X13123809Y45736905D01*
X12885714Y45427381D02*
X13552380Y45427381D01*
X12980952Y45427381D02*
X12933333Y45396429D01*
X12885714Y45334524D01*
X12885714Y45241667D01*
X12933333Y45179762D01*
X13028571Y45148810D01*
X13552380Y45148810D01*
X13552380Y44746429D02*
X13504761Y44808334D01*
X13457142Y44839286D01*
X13361904Y44870239D01*
X13076190Y44870239D01*
X12980952Y44839286D01*
X12933333Y44808334D01*
X12885714Y44746429D01*
X12885714Y44653572D01*
X12933333Y44591667D01*
X12980952Y44560715D01*
X13076190Y44529762D01*
X13361904Y44529762D01*
X13457142Y44560715D01*
X13504761Y44591667D01*
X13552380Y44653572D01*
X13552380Y44746429D01*
X13552380Y43755953D02*
X12552380Y43755953D01*
X12552380Y43508334D01*
X12600000Y43446429D01*
X12647619Y43415477D01*
X12742857Y43384524D01*
X12885714Y43384524D01*
X12980952Y43415477D01*
X13028571Y43446429D01*
X13076190Y43508334D01*
X13076190Y43755953D01*
X13552380Y43105953D02*
X12552380Y43105953D01*
X12552380Y42858334D01*
X12600000Y42796429D01*
X12647619Y42765477D01*
X12742857Y42734524D01*
X12885714Y42734524D01*
X12980952Y42765477D01*
X13028571Y42796429D01*
X13076190Y42858334D01*
X13076190Y43105953D01*
X13552380Y42363096D02*
X13504761Y42425000D01*
X13457142Y42455953D01*
X13361904Y42486905D01*
X13076190Y42486905D01*
X12980952Y42455953D01*
X12933333Y42425000D01*
X12885714Y42363096D01*
X12885714Y42270239D01*
X12933333Y42208334D01*
X12980952Y42177381D01*
X13076190Y42146429D01*
X13361904Y42146429D01*
X13457142Y42177381D01*
X13504761Y42208334D01*
X13552380Y42270239D01*
X13552380Y42363096D01*
X13028571Y41867858D02*
X13028571Y41651191D01*
X13552380Y41558334D02*
X13552380Y41867858D01*
X12552380Y41867858D01*
X12552380Y41558334D01*
X13552380Y37441667D02*
X13076190Y37658334D01*
X13552380Y37813096D02*
X12552380Y37813096D01*
X12552380Y37565477D01*
X12600000Y37503572D01*
X12647619Y37472620D01*
X12742857Y37441667D01*
X12885714Y37441667D01*
X12980952Y37472620D01*
X13028571Y37503572D01*
X13076190Y37565477D01*
X13076190Y37813096D01*
X13552380Y36822620D02*
X13552380Y37194048D01*
X13552380Y37008334D02*
X12552380Y37008334D01*
X12695238Y37070239D01*
X12790476Y37132143D01*
X12838095Y37194048D01*
X12647619Y36079762D02*
X12600000Y36048810D01*
X12552380Y35986905D01*
X12552380Y35832143D01*
X12600000Y35770239D01*
X12647619Y35739286D01*
X12742857Y35708334D01*
X12838095Y35708334D01*
X12980952Y35739286D01*
X13552380Y36110715D01*
X13552380Y35708334D01*
X12552380Y35305953D02*
X12552380Y35244048D01*
X12600000Y35182143D01*
X12647619Y35151191D01*
X12742857Y35120239D01*
X12933333Y35089286D01*
X13171428Y35089286D01*
X13361904Y35120239D01*
X13457142Y35151191D01*
X13504761Y35182143D01*
X13552380Y35244048D01*
X13552380Y35305953D01*
X13504761Y35367858D01*
X13457142Y35398810D01*
X13361904Y35429762D01*
X13171428Y35460715D01*
X12933333Y35460715D01*
X12742857Y35429762D01*
X12647619Y35398810D01*
X12600000Y35367858D01*
X12552380Y35305953D01*
X12647619Y34841667D02*
X12600000Y34810715D01*
X12552380Y34748810D01*
X12552380Y34594048D01*
X12600000Y34532143D01*
X12647619Y34501191D01*
X12742857Y34470239D01*
X12838095Y34470239D01*
X12980952Y34501191D01*
X13552380Y34872620D01*
X13552380Y34470239D01*
X12647619Y34222620D02*
X12600000Y34191667D01*
X12552380Y34129762D01*
X12552380Y33975000D01*
X12600000Y33913096D01*
X12647619Y33882143D01*
X12742857Y33851191D01*
X12838095Y33851191D01*
X12980952Y33882143D01*
X13552380Y34253572D01*
X13552380Y33851191D01*
%TO.C,G\u002A\u002A\u002A*%
G36*
X9869473Y40606872D02*
G01*
X9874666Y40595879D01*
X9879609Y40578300D01*
X9883330Y40562699D01*
X9888627Y40551800D01*
X9898384Y40546621D01*
X9916520Y40543463D01*
X9918146Y40543224D01*
X9949184Y40535189D01*
X9975350Y40519976D01*
X10000966Y40495110D01*
X10021058Y40472217D01*
X10045758Y40489334D01*
X10053679Y40494663D01*
X10067545Y40503116D01*
X10075102Y40506450D01*
X10076689Y40504286D01*
X10073796Y40495338D01*
X10069173Y40487747D01*
X10057768Y40470514D01*
X10041697Y40446986D01*
X10022542Y40419405D01*
X10001880Y40390015D01*
X9981291Y40361058D01*
X9962354Y40334779D01*
X9946647Y40313419D01*
X9935749Y40299223D01*
X9923022Y40285218D01*
X9891048Y40258245D01*
X9853928Y40234752D01*
X9816596Y40218098D01*
X9804352Y40214380D01*
X9780763Y40211045D01*
X9766588Y40215950D01*
X9761979Y40229066D01*
X9762045Y40230210D01*
X9764280Y40242896D01*
X9769319Y40264935D01*
X9776661Y40294523D01*
X9785808Y40329856D01*
X9796261Y40369131D01*
X9807521Y40410543D01*
X9819088Y40452288D01*
X9830464Y40492563D01*
X9841150Y40529563D01*
X9850647Y40561485D01*
X9858455Y40586525D01*
X9864076Y40602879D01*
X9867011Y40608742D01*
X9869473Y40606872D01*
G37*
D12*
X9869473Y40606872D02*
X9874666Y40595879D01*
X9879609Y40578300D01*
X9883330Y40562699D01*
X9888627Y40551800D01*
X9898384Y40546621D01*
X9916520Y40543463D01*
X9918146Y40543224D01*
X9949184Y40535189D01*
X9975350Y40519976D01*
X10000966Y40495110D01*
X10021058Y40472217D01*
X10045758Y40489334D01*
X10053679Y40494663D01*
X10067545Y40503116D01*
X10075102Y40506450D01*
X10076689Y40504286D01*
X10073796Y40495338D01*
X10069173Y40487747D01*
X10057768Y40470514D01*
X10041697Y40446986D01*
X10022542Y40419405D01*
X10001880Y40390015D01*
X9981291Y40361058D01*
X9962354Y40334779D01*
X9946647Y40313419D01*
X9935749Y40299223D01*
X9923022Y40285218D01*
X9891048Y40258245D01*
X9853928Y40234752D01*
X9816596Y40218098D01*
X9804352Y40214380D01*
X9780763Y40211045D01*
X9766588Y40215950D01*
X9761979Y40229066D01*
X9762045Y40230210D01*
X9764280Y40242896D01*
X9769319Y40264935D01*
X9776661Y40294523D01*
X9785808Y40329856D01*
X9796261Y40369131D01*
X9807521Y40410543D01*
X9819088Y40452288D01*
X9830464Y40492563D01*
X9841150Y40529563D01*
X9850647Y40561485D01*
X9858455Y40586525D01*
X9864076Y40602879D01*
X9867011Y40608742D01*
X9869473Y40606872D01*
G36*
X11854806Y41904646D02*
G01*
X11865860Y41899003D01*
X11890081Y41883313D01*
X11909849Y41866546D01*
X11913441Y41861385D01*
X11923305Y41845584D01*
X11938813Y41819979D01*
X11959582Y41785229D01*
X11985229Y41741997D01*
X12015369Y41690944D01*
X12049617Y41632732D01*
X12087592Y41568021D01*
X12128908Y41497474D01*
X12173182Y41421751D01*
X12220029Y41341515D01*
X12269067Y41257426D01*
X12319910Y41170145D01*
X12372176Y41080336D01*
X12425480Y40988658D01*
X12479439Y40895774D01*
X12533668Y40802344D01*
X12587783Y40709030D01*
X12641402Y40616494D01*
X12694139Y40525396D01*
X12745612Y40436400D01*
X12795436Y40350165D01*
X12843227Y40267353D01*
X12888601Y40188625D01*
X12931175Y40114644D01*
X12970565Y40046071D01*
X13006386Y39983566D01*
X13038255Y39927792D01*
X13065789Y39879409D01*
X13088602Y39839080D01*
X13106312Y39807465D01*
X13118534Y39785227D01*
X13124885Y39773025D01*
X13131407Y39756183D01*
X13139083Y39717042D01*
X13139077Y39676036D01*
X13131122Y39638886D01*
X13128043Y39632743D01*
X13118805Y39615827D01*
X13103793Y39588949D01*
X13083326Y39552665D01*
X13057721Y39507529D01*
X13027295Y39454097D01*
X12992368Y39392924D01*
X12953256Y39324563D01*
X12910277Y39249572D01*
X12863751Y39168504D01*
X12813993Y39081915D01*
X12761323Y38990360D01*
X12706058Y38894393D01*
X12648515Y38794570D01*
X12589014Y38691446D01*
X12527871Y38585575D01*
X12479856Y38502501D01*
X12401680Y38367376D01*
X12329633Y38243024D01*
X12263616Y38129276D01*
X12203529Y38025965D01*
X12149275Y37932923D01*
X12100754Y37849983D01*
X12057869Y37776976D01*
X12020521Y37713736D01*
X11988610Y37660095D01*
X11962039Y37615884D01*
X11940709Y37580937D01*
X11924522Y37555086D01*
X11913378Y37538163D01*
X11907180Y37530000D01*
X11907078Y37529897D01*
X11878631Y37506919D01*
X11846617Y37490313D01*
X11843807Y37489281D01*
X11839386Y37487825D01*
X11834288Y37486494D01*
X11827969Y37485282D01*
X11819880Y37484185D01*
X11809476Y37483195D01*
X11796210Y37482309D01*
X11779535Y37481520D01*
X11758905Y37480822D01*
X11733773Y37480210D01*
X11703593Y37479678D01*
X11667817Y37479221D01*
X11625901Y37478832D01*
X11577297Y37478507D01*
X11521458Y37478240D01*
X11457838Y37478025D01*
X11385890Y37477856D01*
X11305069Y37477728D01*
X11214826Y37477635D01*
X11114617Y37477571D01*
X11003893Y37477532D01*
X10882109Y37477511D01*
X10748719Y37477502D01*
X10603175Y37477500D01*
X10484327Y37477501D01*
X10348691Y37477507D01*
X10224765Y37477524D01*
X10112003Y37477557D01*
X10009857Y37477613D01*
X9917782Y37477697D01*
X9835229Y37477815D01*
X9761653Y37477972D01*
X9696507Y37478175D01*
X9639244Y37478428D01*
X9589317Y37478739D01*
X9546179Y37479112D01*
X9509284Y37479553D01*
X9478085Y37480069D01*
X9452035Y37480664D01*
X9430587Y37481345D01*
X9413195Y37482117D01*
X9399312Y37482986D01*
X9388391Y37483957D01*
X9379885Y37485037D01*
X9373247Y37486232D01*
X9367932Y37487546D01*
X9363391Y37488986D01*
X9359079Y37490557D01*
X9348467Y37494928D01*
X9320941Y37511513D01*
X9294682Y37536595D01*
X9291198Y37541126D01*
X9280361Y37557431D01*
X9263473Y37584419D01*
X9240516Y37622122D01*
X9211472Y37670569D01*
X9176325Y37729791D01*
X9135056Y37799819D01*
X9087647Y37880681D01*
X9034080Y37972410D01*
X8974338Y38075035D01*
X8908403Y38188586D01*
X8836257Y38313094D01*
X8757883Y38448588D01*
X8673262Y38595100D01*
X8622386Y38683275D01*
X8562775Y38786673D01*
X8505082Y38886833D01*
X8449622Y38983202D01*
X8396715Y39075225D01*
X8346676Y39162349D01*
X8299823Y39244018D01*
X8256473Y39319680D01*
X8216943Y39388780D01*
X8181551Y39450764D01*
X8150614Y39505079D01*
X8124448Y39551169D01*
X8103371Y39588482D01*
X8087700Y39616462D01*
X8077753Y39634556D01*
X8073846Y39642211D01*
X8068751Y39665727D01*
X8067519Y39687300D01*
X8711421Y39687300D01*
X8711590Y39660891D01*
X8713228Y39585446D01*
X8716834Y39518223D01*
X8722777Y39455897D01*
X8731426Y39395140D01*
X8743152Y39332625D01*
X8758322Y39265025D01*
X8782194Y39174891D01*
X8830760Y39030065D01*
X8890265Y38890763D01*
X8960201Y38757502D01*
X9040064Y38630799D01*
X9129346Y38511172D01*
X9227543Y38399137D01*
X9334148Y38295212D01*
X9448654Y38199914D01*
X9570557Y38113760D01*
X9699351Y38037268D01*
X9834528Y37970955D01*
X9975583Y37915339D01*
X10122011Y37870935D01*
X10180780Y37856613D01*
X10282025Y37836643D01*
X10383659Y37822976D01*
X10489451Y37815157D01*
X10603175Y37812728D01*
X10603510Y37812728D01*
X10692673Y37814772D01*
X10781920Y37820492D01*
X10868730Y37829571D01*
X10950579Y37841693D01*
X11024945Y37856540D01*
X11089308Y37873795D01*
X11097829Y37876627D01*
X11102708Y37879050D01*
X11101232Y37880757D01*
X11092132Y37881897D01*
X11074140Y37882615D01*
X11045985Y37883058D01*
X11006400Y37883373D01*
X10929460Y37884898D01*
X10790574Y37892940D01*
X10656170Y37907554D01*
X10527001Y37928488D01*
X10403825Y37955491D01*
X10287395Y37988313D01*
X10178468Y38026701D01*
X10077797Y38070407D01*
X9986139Y38119177D01*
X9904248Y38172762D01*
X9832881Y38230910D01*
X9772791Y38293370D01*
X9748212Y38324081D01*
X9726399Y38354911D01*
X9711372Y38380672D01*
X9703634Y38400339D01*
X9703687Y38412890D01*
X9712031Y38417300D01*
X9715921Y38415622D01*
X9728317Y38407327D01*
X9746378Y38393664D01*
X9767703Y38376398D01*
X9800199Y38350629D01*
X9886569Y38292887D01*
X9983763Y38241782D01*
X10091782Y38197313D01*
X10210627Y38159480D01*
X10340298Y38128282D01*
X10480796Y38103719D01*
X10632122Y38085791D01*
X10794276Y38074498D01*
X10838079Y38072839D01*
X10910525Y38071711D01*
X10984126Y38072345D01*
X11056123Y38074639D01*
X11123759Y38078495D01*
X11184274Y38083811D01*
X11234911Y38090487D01*
X11266421Y38096040D01*
X11350804Y38114356D01*
X11438526Y38137863D01*
X11527300Y38165710D01*
X11614836Y38197048D01*
X11698847Y38231025D01*
X11777046Y38266791D01*
X11847143Y38303495D01*
X11906851Y38340287D01*
X11931341Y38359180D01*
X11966646Y38392074D01*
X12005575Y38433490D01*
X12046939Y38481863D01*
X12089545Y38535626D01*
X12132205Y38593215D01*
X12173728Y38653063D01*
X12212922Y38713604D01*
X12248598Y38773274D01*
X12279566Y38830505D01*
X12282496Y38836285D01*
X12300720Y38872974D01*
X12317943Y38908826D01*
X12333383Y38942089D01*
X12346256Y38971010D01*
X12355781Y38993836D01*
X12361173Y39008817D01*
X12361651Y39014200D01*
X12361411Y39014099D01*
X12356121Y39007768D01*
X12345576Y38993030D01*
X12331179Y38971896D01*
X12314333Y38946375D01*
X12311110Y38941449D01*
X12257536Y38866316D01*
X12201453Y38799653D01*
X12144615Y38743556D01*
X12045509Y38661812D01*
X11929965Y38580737D01*
X11809777Y38511133D01*
X11684311Y38452707D01*
X11552936Y38405170D01*
X11415018Y38368231D01*
X11269925Y38341599D01*
X11194069Y38331988D01*
X11046378Y38320835D01*
X10897578Y38319154D01*
X10749231Y38326744D01*
X10602897Y38343402D01*
X10460135Y38368927D01*
X10322506Y38403119D01*
X10191570Y38445775D01*
X10068887Y38496694D01*
X10062967Y38499475D01*
X10017072Y38522691D01*
X9975575Y38546530D01*
X9939499Y38570151D01*
X9909865Y38592710D01*
X9887697Y38613366D01*
X9874017Y38631277D01*
X9869845Y38645599D01*
X9876205Y38655491D01*
X9883153Y38655131D01*
X9899679Y38650826D01*
X9922961Y38643186D01*
X9950381Y38633004D01*
X9969772Y38625649D01*
X10061992Y38595902D01*
X10164465Y38570588D01*
X10275748Y38549983D01*
X10394401Y38534364D01*
X10518981Y38524007D01*
X10578524Y38521349D01*
X10696221Y38521039D01*
X10816566Y38526776D01*
X10937700Y38538234D01*
X11057765Y38555088D01*
X11174900Y38577014D01*
X11287248Y38603687D01*
X11392949Y38634782D01*
X11490144Y38669973D01*
X11576976Y38708936D01*
X11584074Y38712530D01*
X11689028Y38771408D01*
X11791109Y38839187D01*
X11889450Y38914818D01*
X11983182Y38997256D01*
X12071435Y39085455D01*
X12153341Y39178366D01*
X12228032Y39274944D01*
X12294638Y39374142D01*
X12352291Y39474913D01*
X12400121Y39576211D01*
X12437262Y39676989D01*
X12462842Y39776200D01*
X12469889Y39814811D01*
X12474624Y39852991D01*
X12475662Y39888260D01*
X12473112Y39925571D01*
X12467081Y39969875D01*
X12457088Y40028352D01*
X12422361Y40182272D01*
X12376375Y40330853D01*
X12319332Y40473710D01*
X12251437Y40610457D01*
X12172893Y40740709D01*
X12083905Y40864079D01*
X11984677Y40980183D01*
X11875413Y41088634D01*
X11844196Y41116593D01*
X11723050Y41214509D01*
X11595550Y41301458D01*
X11461899Y41377344D01*
X11322302Y41442070D01*
X11176964Y41495537D01*
X11026086Y41537650D01*
X10869875Y41568310D01*
X10854111Y41570715D01*
X10826570Y41574455D01*
X10799661Y41577309D01*
X10771160Y41579390D01*
X10738848Y41580811D01*
X10700503Y41581686D01*
X10653902Y41582127D01*
X10596825Y41582249D01*
X10532586Y41581906D01*
X10468320Y41580489D01*
X10411619Y41577689D01*
X10359751Y41573203D01*
X10309984Y41566729D01*
X10259586Y41557966D01*
X10205827Y41546611D01*
X10145975Y41532361D01*
X10111015Y41523354D01*
X9964918Y41477874D01*
X9824298Y41421391D01*
X9689653Y41354424D01*
X9561484Y41277494D01*
X9440291Y41191122D01*
X9326572Y41095826D01*
X9220827Y40992128D01*
X9123556Y40880547D01*
X9035258Y40761603D01*
X8956433Y40635817D01*
X8887580Y40503709D01*
X8829200Y40365798D01*
X8781791Y40222605D01*
X8745853Y40074650D01*
X8742517Y40057805D01*
X8732448Y40003708D01*
X8724702Y39955026D01*
X8719010Y39908745D01*
X8715104Y39861848D01*
X8712715Y39811318D01*
X8711577Y39754141D01*
X8711421Y39687300D01*
X8067519Y39687300D01*
X8066910Y39697958D01*
X8069045Y39730683D01*
X8075093Y39757829D01*
X8075404Y39758606D01*
X8080896Y39769472D01*
X8092315Y39790483D01*
X8109278Y39820978D01*
X8131402Y39860295D01*
X8158303Y39907773D01*
X8189600Y39962752D01*
X8224909Y40024570D01*
X8263847Y40092567D01*
X8306031Y40166080D01*
X8351078Y40244449D01*
X8398606Y40327012D01*
X8448231Y40413109D01*
X8499570Y40502079D01*
X8552240Y40593260D01*
X8605859Y40685991D01*
X8660043Y40779611D01*
X8714410Y40873459D01*
X8768576Y40966874D01*
X8822159Y41059194D01*
X8874775Y41149759D01*
X8926042Y41237908D01*
X8975576Y41322978D01*
X9022995Y41404310D01*
X9067916Y41481242D01*
X9109955Y41553113D01*
X9148730Y41619262D01*
X9183858Y41679027D01*
X9214956Y41731748D01*
X9241641Y41776763D01*
X9263530Y41813412D01*
X9280239Y41841032D01*
X9291387Y41858964D01*
X9296589Y41866546D01*
X9305089Y41874459D01*
X9327902Y41891353D01*
X9351543Y41904646D01*
X9383975Y41919325D01*
X11822375Y41919325D01*
X11854806Y41904646D01*
G37*
X11854806Y41904646D02*
X11865860Y41899003D01*
X11890081Y41883313D01*
X11909849Y41866546D01*
X11913441Y41861385D01*
X11923305Y41845584D01*
X11938813Y41819979D01*
X11959582Y41785229D01*
X11985229Y41741997D01*
X12015369Y41690944D01*
X12049617Y41632732D01*
X12087592Y41568021D01*
X12128908Y41497474D01*
X12173182Y41421751D01*
X12220029Y41341515D01*
X12269067Y41257426D01*
X12319910Y41170145D01*
X12372176Y41080336D01*
X12425480Y40988658D01*
X12479439Y40895774D01*
X12533668Y40802344D01*
X12587783Y40709030D01*
X12641402Y40616494D01*
X12694139Y40525396D01*
X12745612Y40436400D01*
X12795436Y40350165D01*
X12843227Y40267353D01*
X12888601Y40188625D01*
X12931175Y40114644D01*
X12970565Y40046071D01*
X13006386Y39983566D01*
X13038255Y39927792D01*
X13065789Y39879409D01*
X13088602Y39839080D01*
X13106312Y39807465D01*
X13118534Y39785227D01*
X13124885Y39773025D01*
X13131407Y39756183D01*
X13139083Y39717042D01*
X13139077Y39676036D01*
X13131122Y39638886D01*
X13128043Y39632743D01*
X13118805Y39615827D01*
X13103793Y39588949D01*
X13083326Y39552665D01*
X13057721Y39507529D01*
X13027295Y39454097D01*
X12992368Y39392924D01*
X12953256Y39324563D01*
X12910277Y39249572D01*
X12863751Y39168504D01*
X12813993Y39081915D01*
X12761323Y38990360D01*
X12706058Y38894393D01*
X12648515Y38794570D01*
X12589014Y38691446D01*
X12527871Y38585575D01*
X12479856Y38502501D01*
X12401680Y38367376D01*
X12329633Y38243024D01*
X12263616Y38129276D01*
X12203529Y38025965D01*
X12149275Y37932923D01*
X12100754Y37849983D01*
X12057869Y37776976D01*
X12020521Y37713736D01*
X11988610Y37660095D01*
X11962039Y37615884D01*
X11940709Y37580937D01*
X11924522Y37555086D01*
X11913378Y37538163D01*
X11907180Y37530000D01*
X11907078Y37529897D01*
X11878631Y37506919D01*
X11846617Y37490313D01*
X11843807Y37489281D01*
X11839386Y37487825D01*
X11834288Y37486494D01*
X11827969Y37485282D01*
X11819880Y37484185D01*
X11809476Y37483195D01*
X11796210Y37482309D01*
X11779535Y37481520D01*
X11758905Y37480822D01*
X11733773Y37480210D01*
X11703593Y37479678D01*
X11667817Y37479221D01*
X11625901Y37478832D01*
X11577297Y37478507D01*
X11521458Y37478240D01*
X11457838Y37478025D01*
X11385890Y37477856D01*
X11305069Y37477728D01*
X11214826Y37477635D01*
X11114617Y37477571D01*
X11003893Y37477532D01*
X10882109Y37477511D01*
X10748719Y37477502D01*
X10603175Y37477500D01*
X10484327Y37477501D01*
X10348691Y37477507D01*
X10224765Y37477524D01*
X10112003Y37477557D01*
X10009857Y37477613D01*
X9917782Y37477697D01*
X9835229Y37477815D01*
X9761653Y37477972D01*
X9696507Y37478175D01*
X9639244Y37478428D01*
X9589317Y37478739D01*
X9546179Y37479112D01*
X9509284Y37479553D01*
X9478085Y37480069D01*
X9452035Y37480664D01*
X9430587Y37481345D01*
X9413195Y37482117D01*
X9399312Y37482986D01*
X9388391Y37483957D01*
X9379885Y37485037D01*
X9373247Y37486232D01*
X9367932Y37487546D01*
X9363391Y37488986D01*
X9359079Y37490557D01*
X9348467Y37494928D01*
X9320941Y37511513D01*
X9294682Y37536595D01*
X9291198Y37541126D01*
X9280361Y37557431D01*
X9263473Y37584419D01*
X9240516Y37622122D01*
X9211472Y37670569D01*
X9176325Y37729791D01*
X9135056Y37799819D01*
X9087647Y37880681D01*
X9034080Y37972410D01*
X8974338Y38075035D01*
X8908403Y38188586D01*
X8836257Y38313094D01*
X8757883Y38448588D01*
X8673262Y38595100D01*
X8622386Y38683275D01*
X8562775Y38786673D01*
X8505082Y38886833D01*
X8449622Y38983202D01*
X8396715Y39075225D01*
X8346676Y39162349D01*
X8299823Y39244018D01*
X8256473Y39319680D01*
X8216943Y39388780D01*
X8181551Y39450764D01*
X8150614Y39505079D01*
X8124448Y39551169D01*
X8103371Y39588482D01*
X8087700Y39616462D01*
X8077753Y39634556D01*
X8073846Y39642211D01*
X8068751Y39665727D01*
X8067519Y39687300D01*
X8711421Y39687300D01*
X8711590Y39660891D01*
X8713228Y39585446D01*
X8716834Y39518223D01*
X8722777Y39455897D01*
X8731426Y39395140D01*
X8743152Y39332625D01*
X8758322Y39265025D01*
X8782194Y39174891D01*
X8830760Y39030065D01*
X8890265Y38890763D01*
X8960201Y38757502D01*
X9040064Y38630799D01*
X9129346Y38511172D01*
X9227543Y38399137D01*
X9334148Y38295212D01*
X9448654Y38199914D01*
X9570557Y38113760D01*
X9699351Y38037268D01*
X9834528Y37970955D01*
X9975583Y37915339D01*
X10122011Y37870935D01*
X10180780Y37856613D01*
X10282025Y37836643D01*
X10383659Y37822976D01*
X10489451Y37815157D01*
X10603175Y37812728D01*
X10603510Y37812728D01*
X10692673Y37814772D01*
X10781920Y37820492D01*
X10868730Y37829571D01*
X10950579Y37841693D01*
X11024945Y37856540D01*
X11089308Y37873795D01*
X11097829Y37876627D01*
X11102708Y37879050D01*
X11101232Y37880757D01*
X11092132Y37881897D01*
X11074140Y37882615D01*
X11045985Y37883058D01*
X11006400Y37883373D01*
X10929460Y37884898D01*
X10790574Y37892940D01*
X10656170Y37907554D01*
X10527001Y37928488D01*
X10403825Y37955491D01*
X10287395Y37988313D01*
X10178468Y38026701D01*
X10077797Y38070407D01*
X9986139Y38119177D01*
X9904248Y38172762D01*
X9832881Y38230910D01*
X9772791Y38293370D01*
X9748212Y38324081D01*
X9726399Y38354911D01*
X9711372Y38380672D01*
X9703634Y38400339D01*
X9703687Y38412890D01*
X9712031Y38417300D01*
X9715921Y38415622D01*
X9728317Y38407327D01*
X9746378Y38393664D01*
X9767703Y38376398D01*
X9800199Y38350629D01*
X9886569Y38292887D01*
X9983763Y38241782D01*
X10091782Y38197313D01*
X10210627Y38159480D01*
X10340298Y38128282D01*
X10480796Y38103719D01*
X10632122Y38085791D01*
X10794276Y38074498D01*
X10838079Y38072839D01*
X10910525Y38071711D01*
X10984126Y38072345D01*
X11056123Y38074639D01*
X11123759Y38078495D01*
X11184274Y38083811D01*
X11234911Y38090487D01*
X11266421Y38096040D01*
X11350804Y38114356D01*
X11438526Y38137863D01*
X11527300Y38165710D01*
X11614836Y38197048D01*
X11698847Y38231025D01*
X11777046Y38266791D01*
X11847143Y38303495D01*
X11906851Y38340287D01*
X11931341Y38359180D01*
X11966646Y38392074D01*
X12005575Y38433490D01*
X12046939Y38481863D01*
X12089545Y38535626D01*
X12132205Y38593215D01*
X12173728Y38653063D01*
X12212922Y38713604D01*
X12248598Y38773274D01*
X12279566Y38830505D01*
X12282496Y38836285D01*
X12300720Y38872974D01*
X12317943Y38908826D01*
X12333383Y38942089D01*
X12346256Y38971010D01*
X12355781Y38993836D01*
X12361173Y39008817D01*
X12361651Y39014200D01*
X12361411Y39014099D01*
X12356121Y39007768D01*
X12345576Y38993030D01*
X12331179Y38971896D01*
X12314333Y38946375D01*
X12311110Y38941449D01*
X12257536Y38866316D01*
X12201453Y38799653D01*
X12144615Y38743556D01*
X12045509Y38661812D01*
X11929965Y38580737D01*
X11809777Y38511133D01*
X11684311Y38452707D01*
X11552936Y38405170D01*
X11415018Y38368231D01*
X11269925Y38341599D01*
X11194069Y38331988D01*
X11046378Y38320835D01*
X10897578Y38319154D01*
X10749231Y38326744D01*
X10602897Y38343402D01*
X10460135Y38368927D01*
X10322506Y38403119D01*
X10191570Y38445775D01*
X10068887Y38496694D01*
X10062967Y38499475D01*
X10017072Y38522691D01*
X9975575Y38546530D01*
X9939499Y38570151D01*
X9909865Y38592710D01*
X9887697Y38613366D01*
X9874017Y38631277D01*
X9869845Y38645599D01*
X9876205Y38655491D01*
X9883153Y38655131D01*
X9899679Y38650826D01*
X9922961Y38643186D01*
X9950381Y38633004D01*
X9969772Y38625649D01*
X10061992Y38595902D01*
X10164465Y38570588D01*
X10275748Y38549983D01*
X10394401Y38534364D01*
X10518981Y38524007D01*
X10578524Y38521349D01*
X10696221Y38521039D01*
X10816566Y38526776D01*
X10937700Y38538234D01*
X11057765Y38555088D01*
X11174900Y38577014D01*
X11287248Y38603687D01*
X11392949Y38634782D01*
X11490144Y38669973D01*
X11576976Y38708936D01*
X11584074Y38712530D01*
X11689028Y38771408D01*
X11791109Y38839187D01*
X11889450Y38914818D01*
X11983182Y38997256D01*
X12071435Y39085455D01*
X12153341Y39178366D01*
X12228032Y39274944D01*
X12294638Y39374142D01*
X12352291Y39474913D01*
X12400121Y39576211D01*
X12437262Y39676989D01*
X12462842Y39776200D01*
X12469889Y39814811D01*
X12474624Y39852991D01*
X12475662Y39888260D01*
X12473112Y39925571D01*
X12467081Y39969875D01*
X12457088Y40028352D01*
X12422361Y40182272D01*
X12376375Y40330853D01*
X12319332Y40473710D01*
X12251437Y40610457D01*
X12172893Y40740709D01*
X12083905Y40864079D01*
X11984677Y40980183D01*
X11875413Y41088634D01*
X11844196Y41116593D01*
X11723050Y41214509D01*
X11595550Y41301458D01*
X11461899Y41377344D01*
X11322302Y41442070D01*
X11176964Y41495537D01*
X11026086Y41537650D01*
X10869875Y41568310D01*
X10854111Y41570715D01*
X10826570Y41574455D01*
X10799661Y41577309D01*
X10771160Y41579390D01*
X10738848Y41580811D01*
X10700503Y41581686D01*
X10653902Y41582127D01*
X10596825Y41582249D01*
X10532586Y41581906D01*
X10468320Y41580489D01*
X10411619Y41577689D01*
X10359751Y41573203D01*
X10309984Y41566729D01*
X10259586Y41557966D01*
X10205827Y41546611D01*
X10145975Y41532361D01*
X10111015Y41523354D01*
X9964918Y41477874D01*
X9824298Y41421391D01*
X9689653Y41354424D01*
X9561484Y41277494D01*
X9440291Y41191122D01*
X9326572Y41095826D01*
X9220827Y40992128D01*
X9123556Y40880547D01*
X9035258Y40761603D01*
X8956433Y40635817D01*
X8887580Y40503709D01*
X8829200Y40365798D01*
X8781791Y40222605D01*
X8745853Y40074650D01*
X8742517Y40057805D01*
X8732448Y40003708D01*
X8724702Y39955026D01*
X8719010Y39908745D01*
X8715104Y39861848D01*
X8712715Y39811318D01*
X8711577Y39754141D01*
X8711421Y39687300D01*
X8067519Y39687300D01*
X8066910Y39697958D01*
X8069045Y39730683D01*
X8075093Y39757829D01*
X8075404Y39758606D01*
X8080896Y39769472D01*
X8092315Y39790483D01*
X8109278Y39820978D01*
X8131402Y39860295D01*
X8158303Y39907773D01*
X8189600Y39962752D01*
X8224909Y40024570D01*
X8263847Y40092567D01*
X8306031Y40166080D01*
X8351078Y40244449D01*
X8398606Y40327012D01*
X8448231Y40413109D01*
X8499570Y40502079D01*
X8552240Y40593260D01*
X8605859Y40685991D01*
X8660043Y40779611D01*
X8714410Y40873459D01*
X8768576Y40966874D01*
X8822159Y41059194D01*
X8874775Y41149759D01*
X8926042Y41237908D01*
X8975576Y41322978D01*
X9022995Y41404310D01*
X9067916Y41481242D01*
X9109955Y41553113D01*
X9148730Y41619262D01*
X9183858Y41679027D01*
X9214956Y41731748D01*
X9241641Y41776763D01*
X9263530Y41813412D01*
X9280239Y41841032D01*
X9291387Y41858964D01*
X9296589Y41866546D01*
X9305089Y41874459D01*
X9327902Y41891353D01*
X9351543Y41904646D01*
X9383975Y41919325D01*
X11822375Y41919325D01*
X11854806Y41904646D01*
G36*
X10240262Y40778941D02*
G01*
X10244480Y40771563D01*
X10245402Y40766575D01*
X10251643Y40750532D01*
X10262263Y40728939D01*
X10275479Y40705102D01*
X10289506Y40682328D01*
X10302560Y40663924D01*
X10325882Y40640052D01*
X10359020Y40615203D01*
X10395435Y40594680D01*
X10430264Y40581617D01*
X10463475Y40573125D01*
X10429772Y40571193D01*
X10418498Y40571058D01*
X10389311Y40573585D01*
X10362266Y40579089D01*
X10353263Y40582117D01*
X10322185Y40597048D01*
X10289502Y40618028D01*
X10259725Y40641933D01*
X10237363Y40665638D01*
X10232294Y40672790D01*
X10221094Y40690573D01*
X10209109Y40711369D01*
X10198219Y40731733D01*
X10190305Y40748221D01*
X10187250Y40757388D01*
X10188698Y40759303D01*
X10198254Y40765054D01*
X10212768Y40771709D01*
X10227534Y40777210D01*
X10237846Y40779500D01*
X10240262Y40778941D01*
G37*
X10240262Y40778941D02*
X10244480Y40771563D01*
X10245402Y40766575D01*
X10251643Y40750532D01*
X10262263Y40728939D01*
X10275479Y40705102D01*
X10289506Y40682328D01*
X10302560Y40663924D01*
X10325882Y40640052D01*
X10359020Y40615203D01*
X10395435Y40594680D01*
X10430264Y40581617D01*
X10463475Y40573125D01*
X10429772Y40571193D01*
X10418498Y40571058D01*
X10389311Y40573585D01*
X10362266Y40579089D01*
X10353263Y40582117D01*
X10322185Y40597048D01*
X10289502Y40618028D01*
X10259725Y40641933D01*
X10237363Y40665638D01*
X10232294Y40672790D01*
X10221094Y40690573D01*
X10209109Y40711369D01*
X10198219Y40731733D01*
X10190305Y40748221D01*
X10187250Y40757388D01*
X10188698Y40759303D01*
X10198254Y40765054D01*
X10212768Y40771709D01*
X10227534Y40777210D01*
X10237846Y40779500D01*
X10240262Y40778941D01*
G36*
X10350008Y40103225D02*
G01*
X10339105Y40065244D01*
X10326616Y40019226D01*
X10313938Y39970275D01*
X10301514Y39920290D01*
X10289788Y39871167D01*
X10279200Y39824804D01*
X10270195Y39783100D01*
X10263215Y39747952D01*
X10258702Y39721258D01*
X10257100Y39704916D01*
X10256317Y39699711D01*
X10252116Y39692467D01*
X10242921Y39683697D01*
X10227224Y39672208D01*
X10203515Y39656807D01*
X10170287Y39636302D01*
X10165247Y39633224D01*
X10125909Y39608824D01*
X10082854Y39581593D01*
X10040960Y39554638D01*
X10005103Y39531066D01*
X9982730Y39516214D01*
X9959620Y39501291D01*
X9945000Y39492661D01*
X9937742Y39489757D01*
X9936721Y39492017D01*
X9940810Y39498877D01*
X9951310Y39512409D01*
X9976133Y39539319D01*
X10008306Y39570124D01*
X10045724Y39603005D01*
X10086282Y39636139D01*
X10127878Y39667704D01*
X10168406Y39695880D01*
X10181744Y39704798D01*
X10194707Y39715117D01*
X10202388Y39725936D01*
X10207304Y39741254D01*
X10211974Y39765070D01*
X10214748Y39778982D01*
X10226975Y39827573D01*
X10243663Y39881697D01*
X10263378Y39937231D01*
X10284687Y39990052D01*
X10306159Y40036040D01*
X10319562Y40061753D01*
X10332119Y40084890D01*
X10341781Y40101663D01*
X10347153Y40109575D01*
X10351163Y40111465D01*
X10350008Y40103225D01*
G37*
X10350008Y40103225D02*
X10339105Y40065244D01*
X10326616Y40019226D01*
X10313938Y39970275D01*
X10301514Y39920290D01*
X10289788Y39871167D01*
X10279200Y39824804D01*
X10270195Y39783100D01*
X10263215Y39747952D01*
X10258702Y39721258D01*
X10257100Y39704916D01*
X10256317Y39699711D01*
X10252116Y39692467D01*
X10242921Y39683697D01*
X10227224Y39672208D01*
X10203515Y39656807D01*
X10170287Y39636302D01*
X10165247Y39633224D01*
X10125909Y39608824D01*
X10082854Y39581593D01*
X10040960Y39554638D01*
X10005103Y39531066D01*
X9982730Y39516214D01*
X9959620Y39501291D01*
X9945000Y39492661D01*
X9937742Y39489757D01*
X9936721Y39492017D01*
X9940810Y39498877D01*
X9951310Y39512409D01*
X9976133Y39539319D01*
X10008306Y39570124D01*
X10045724Y39603005D01*
X10086282Y39636139D01*
X10127878Y39667704D01*
X10168406Y39695880D01*
X10181744Y39704798D01*
X10194707Y39715117D01*
X10202388Y39725936D01*
X10207304Y39741254D01*
X10211974Y39765070D01*
X10214748Y39778982D01*
X10226975Y39827573D01*
X10243663Y39881697D01*
X10263378Y39937231D01*
X10284687Y39990052D01*
X10306159Y40036040D01*
X10319562Y40061753D01*
X10332119Y40084890D01*
X10341781Y40101663D01*
X10347153Y40109575D01*
X10351163Y40111465D01*
X10350008Y40103225D01*
G36*
X10556564Y41470312D02*
G01*
X10582589Y41463687D01*
X10629194Y41444067D01*
X10678895Y41414591D01*
X10730325Y41376318D01*
X10782118Y41330303D01*
X10832907Y41277603D01*
X10881326Y41219273D01*
X10891538Y41205684D01*
X10910661Y41176757D01*
X10922497Y41151141D01*
X10928519Y41125087D01*
X10930200Y41094848D01*
X10930205Y41089949D01*
X10930747Y41072025D01*
X10933248Y41058327D01*
X10939215Y41045330D01*
X10950152Y41029507D01*
X10967565Y41007332D01*
X10977301Y40994950D01*
X11002818Y40960541D01*
X11023029Y40930221D01*
X11037145Y40905336D01*
X11044377Y40887229D01*
X11043936Y40877246D01*
X11040505Y40875022D01*
X11030880Y40875386D01*
X11014264Y40880905D01*
X10988623Y40892128D01*
X10978628Y40896557D01*
X10952032Y40906724D01*
X10926881Y40914333D01*
X10905740Y40918794D01*
X10891175Y40919513D01*
X10885750Y40915898D01*
X10886467Y40913717D01*
X10892376Y40902494D01*
X10902960Y40884585D01*
X10916654Y40862685D01*
X10945792Y40814637D01*
X10976976Y40754229D01*
X11001568Y40693775D01*
X11010482Y40667717D01*
X11019033Y40638134D01*
X11022519Y40616940D01*
X11021184Y40602314D01*
X11015276Y40592435D01*
X11011098Y40588495D01*
X11005748Y40585518D01*
X10998859Y40585718D01*
X10988631Y40589878D01*
X10973267Y40598781D01*
X10950966Y40613210D01*
X10919930Y40633950D01*
X10908553Y40641495D01*
X10863261Y40669752D01*
X10821758Y40692829D01*
X10785995Y40709697D01*
X10757924Y40719328D01*
X10757620Y40719400D01*
X10748132Y40720381D01*
X10740216Y40716628D01*
X10731334Y40705995D01*
X10718953Y40686335D01*
X10699790Y40653304D01*
X10675308Y40605062D01*
X10659003Y40562493D01*
X10650326Y40523595D01*
X10648726Y40486366D01*
X10653652Y40448804D01*
X10668165Y40398111D01*
X10694298Y40340431D01*
X10728832Y40286216D01*
X10770327Y40236771D01*
X10817343Y40193397D01*
X10868438Y40157399D01*
X10922173Y40130080D01*
X10977107Y40112742D01*
X11031800Y40106690D01*
X11091194Y40111176D01*
X11146309Y40125762D01*
X11194901Y40150916D01*
X11237843Y40187094D01*
X11276007Y40234757D01*
X11298021Y40267445D01*
X11277623Y40305750D01*
X11269487Y40320103D01*
X11253336Y40346360D01*
X11234110Y40375891D01*
X11214416Y40404615D01*
X11204314Y40419000D01*
X11187511Y40443845D01*
X11177276Y40461094D01*
X11172829Y40472464D01*
X11173391Y40479672D01*
X11178184Y40484432D01*
X11181017Y40485224D01*
X11194679Y40482398D01*
X11215632Y40473216D01*
X11241894Y40458736D01*
X11271484Y40440015D01*
X11302420Y40418113D01*
X11316509Y40407743D01*
X11335580Y40394317D01*
X11349131Y40385562D01*
X11354882Y40383004D01*
X11354483Y40385904D01*
X11349946Y40398193D01*
X11341575Y40417689D01*
X11330434Y40441832D01*
X11323553Y40456888D01*
X11313773Y40480814D01*
X11307504Y40499672D01*
X11305867Y40510333D01*
X11312701Y40521140D01*
X11327763Y40523296D01*
X11351330Y40516660D01*
X11383700Y40501198D01*
X11430472Y40475970D01*
X11467673Y40494889D01*
X11481788Y40501772D01*
X11501752Y40509208D01*
X11521369Y40512015D01*
X11547091Y40511546D01*
X11551026Y40511314D01*
X11573300Y40508795D01*
X11594339Y40503532D01*
X11618183Y40494258D01*
X11648875Y40479712D01*
X11663748Y40472091D01*
X11734987Y40429460D01*
X11806072Y40377508D01*
X11874148Y40318661D01*
X11936359Y40255346D01*
X11989851Y40189988D01*
X12001425Y40173865D01*
X12015526Y40152995D01*
X12025174Y40137143D01*
X12028750Y40128853D01*
X12028249Y40124739D01*
X12023481Y40117486D01*
X12012069Y40110794D01*
X11992067Y40103691D01*
X11961532Y40095202D01*
X11913902Y40080994D01*
X11837689Y40050391D01*
X11767282Y40012171D01*
X11704290Y39967389D01*
X11650321Y39917100D01*
X11606982Y39862360D01*
X11602658Y39855567D01*
X11585718Y39825278D01*
X11566820Y39786971D01*
X11547365Y39743842D01*
X11528752Y39699083D01*
X11512381Y39655888D01*
X11499652Y39617450D01*
X11490947Y39587530D01*
X11480653Y39547866D01*
X11473774Y39512799D01*
X11469696Y39478013D01*
X11467803Y39439194D01*
X11467478Y39392025D01*
X11467550Y39380674D01*
X11468236Y39342664D01*
X11469855Y39312836D01*
X11472792Y39287591D01*
X11477433Y39263329D01*
X11484165Y39236450D01*
X11500394Y39176125D01*
X11483584Y39158019D01*
X11479009Y39153211D01*
X11448637Y39124951D01*
X11409263Y39092817D01*
X11362931Y39058197D01*
X11311687Y39022482D01*
X11257574Y38987058D01*
X11202638Y38953316D01*
X11148923Y38922645D01*
X11098475Y38896432D01*
X11091512Y38893045D01*
X11015190Y38858121D01*
X10944140Y38830171D01*
X10874512Y38807805D01*
X10802458Y38789635D01*
X10790549Y38787062D01*
X10689544Y38770457D01*
X10586980Y38762421D01*
X10484584Y38762744D01*
X10384080Y38771219D01*
X10287197Y38787636D01*
X10195661Y38811787D01*
X10111197Y38843461D01*
X10035533Y38882451D01*
X10034299Y38883196D01*
X10009258Y38899876D01*
X9995267Y38913290D01*
X9991509Y38924555D01*
X9997165Y38934788D01*
X10000438Y38937771D01*
X10007939Y38941167D01*
X10019207Y38940225D01*
X10038333Y38934963D01*
X10041029Y38934150D01*
X10107506Y38916962D01*
X10180170Y38902950D01*
X10255467Y38892519D01*
X10329843Y38886074D01*
X10399742Y38884019D01*
X10461609Y38886760D01*
X10471986Y38887772D01*
X10543052Y38897690D01*
X10607834Y38912837D01*
X10668983Y38934287D01*
X10729155Y38963118D01*
X10791001Y39000406D01*
X10857175Y39047227D01*
X10868508Y39055765D01*
X10936614Y39108832D01*
X10994729Y39157672D01*
X11044045Y39203532D01*
X11085753Y39247661D01*
X11121048Y39291307D01*
X11151121Y39335719D01*
X11177165Y39382144D01*
X11178778Y39385338D01*
X11191370Y39411785D01*
X11207071Y39446697D01*
X11224609Y39487151D01*
X11242715Y39530227D01*
X11260118Y39573000D01*
X11281913Y39626749D01*
X11313634Y39701210D01*
X11343579Y39766053D01*
X11372702Y39822883D01*
X11401955Y39873303D01*
X11432291Y39918917D01*
X11464663Y39961328D01*
X11500024Y40002140D01*
X11539326Y40042956D01*
X11542813Y40046406D01*
X11575789Y40077566D01*
X11610524Y40108176D01*
X11643576Y40135294D01*
X11671504Y40155978D01*
X11691487Y40170019D01*
X11713050Y40186291D01*
X11728907Y40199572D01*
X11736592Y40207892D01*
X11740870Y40218840D01*
X11743319Y40245965D01*
X11737725Y40275887D01*
X11724617Y40304350D01*
X11699810Y40335338D01*
X11663327Y40362743D01*
X11618332Y40381013D01*
X11564493Y40390325D01*
X11549787Y40391094D01*
X11517497Y40388221D01*
X11488424Y40377555D01*
X11459796Y40357818D01*
X11428840Y40327728D01*
X11417626Y40315412D01*
X11403850Y40299046D01*
X11392221Y40282754D01*
X11381395Y40264152D01*
X11370028Y40240854D01*
X11356776Y40210477D01*
X11340295Y40170637D01*
X11316429Y40116749D01*
X11291608Y40071698D01*
X11265512Y40036855D01*
X11236759Y40010990D01*
X11203969Y39992871D01*
X11165759Y39981267D01*
X11120750Y39974946D01*
X11096753Y39974149D01*
X11051800Y39979237D01*
X11003800Y39993299D01*
X10950436Y40016904D01*
X10920256Y40033174D01*
X10879863Y40057430D01*
X10836205Y40085813D01*
X10790847Y40117125D01*
X10745353Y40150168D01*
X10701289Y40183745D01*
X10660221Y40216659D01*
X10623712Y40247713D01*
X10593328Y40275709D01*
X10570635Y40299450D01*
X10557196Y40317739D01*
X10554222Y40324463D01*
X10548505Y40348976D01*
X10545578Y40380973D01*
X10545380Y40416932D01*
X10547852Y40453329D01*
X10552932Y40486642D01*
X10560560Y40513348D01*
X10576513Y40548326D01*
X10600538Y40590518D01*
X10632077Y40637466D01*
X10672218Y40690897D01*
X10672246Y40690932D01*
X10725573Y40764122D01*
X10767449Y40832914D01*
X10798127Y40897841D01*
X10817859Y40959438D01*
X10826897Y41018238D01*
X10826774Y41061884D01*
X10818038Y41106386D01*
X10799543Y41143395D01*
X10770854Y41173733D01*
X10731536Y41198221D01*
X10709083Y41207851D01*
X10658113Y41220274D01*
X10606503Y41220106D01*
X10554692Y41207379D01*
X10503120Y41182122D01*
X10492913Y41176056D01*
X10471047Y41165826D01*
X10454464Y41164412D01*
X10440103Y41172088D01*
X10424906Y41189126D01*
X10408570Y41210543D01*
X10421442Y41237909D01*
X10427037Y41248802D01*
X10439569Y41270948D01*
X10455502Y41297541D01*
X10472707Y41324966D01*
X10485726Y41345500D01*
X10500599Y41370589D01*
X10508548Y41387311D01*
X10509913Y41396834D01*
X10505033Y41400324D01*
X10494250Y41398948D01*
X10481841Y41394363D01*
X10462959Y41384072D01*
X10437961Y41367667D01*
X10405705Y41344392D01*
X10365050Y41313492D01*
X10319191Y41277273D01*
X10279513Y41243849D01*
X10244614Y41211525D01*
X10212660Y41178272D01*
X10181819Y41142063D01*
X10150258Y41100867D01*
X10116143Y41052655D01*
X10077641Y40995400D01*
X10071177Y40985687D01*
X10043355Y40945597D01*
X10015914Y40909429D01*
X9986786Y40874823D01*
X9953903Y40839419D01*
X9915196Y40800855D01*
X9868598Y40756772D01*
X9823508Y40713802D01*
X9757136Y40645408D01*
X9700706Y40579512D01*
X9653168Y40514475D01*
X9613471Y40448660D01*
X9580567Y40380429D01*
X9553403Y40308145D01*
X9530931Y40230169D01*
X9528918Y40221941D01*
X9519485Y40178214D01*
X9509546Y40124695D01*
X9499426Y40063732D01*
X9489454Y39997672D01*
X9479957Y39928864D01*
X9471263Y39859656D01*
X9463698Y39792396D01*
X9457590Y39729432D01*
X9453266Y39673112D01*
X9452333Y39656845D01*
X9451747Y39623674D01*
X9454541Y39601539D01*
X9461720Y39589357D01*
X9474293Y39586043D01*
X9493266Y39590514D01*
X9519647Y39601686D01*
X9532843Y39608319D01*
X9557800Y39622838D01*
X9578315Y39637028D01*
X9578976Y39637549D01*
X9599706Y39651133D01*
X9614196Y39653930D01*
X9623123Y39645796D01*
X9627166Y39626586D01*
X9626772Y39615681D01*
X9620154Y39589432D01*
X9605762Y39554941D01*
X9583438Y39511889D01*
X9553023Y39459956D01*
X9514360Y39398823D01*
X9493043Y39364961D01*
X9469251Y39322816D01*
X9450384Y39282326D01*
X9435980Y39241458D01*
X9425578Y39198177D01*
X9418715Y39150448D01*
X9414929Y39096236D01*
X9413758Y39033507D01*
X9414739Y38960225D01*
X9416694Y38900088D01*
X9419794Y38845941D01*
X9424128Y38801252D01*
X9429906Y38764352D01*
X9437339Y38733574D01*
X9446638Y38707248D01*
X9447471Y38705319D01*
X9457972Y38689670D01*
X9471153Y38684559D01*
X9487430Y38690236D01*
X9507214Y38706948D01*
X9530921Y38734943D01*
X9558965Y38774468D01*
X9572793Y38795458D01*
X9597651Y38835521D01*
X9614696Y38866876D01*
X9623770Y38889218D01*
X9624716Y38902241D01*
X9620160Y38909763D01*
X9607730Y38915100D01*
X9592554Y38909191D01*
X9579407Y38902076D01*
X9565200Y38901075D01*
X9556601Y38908649D01*
X9555921Y38913025D01*
X9556116Y38928724D01*
X9557840Y38951361D01*
X9560724Y38977335D01*
X9564399Y39003046D01*
X9568497Y39024889D01*
X9575234Y39052619D01*
X9593379Y39112406D01*
X9615148Y39168205D01*
X9639526Y39217838D01*
X9665499Y39259131D01*
X9692053Y39289908D01*
X9708469Y39304207D01*
X9723042Y39314909D01*
X9731846Y39319000D01*
X9740284Y39316543D01*
X9754117Y39303667D01*
X9767383Y39281577D01*
X9778640Y39252325D01*
X9778646Y39252306D01*
X9783900Y39226714D01*
X9787667Y39191261D01*
X9789944Y39148692D01*
X9790730Y39101757D01*
X9790021Y39053203D01*
X9787817Y39005777D01*
X9784114Y38962227D01*
X9778910Y38925300D01*
X9769650Y38880301D01*
X9752398Y38817078D01*
X9732096Y38763163D01*
X9709295Y38720176D01*
X9690396Y38693607D01*
X9651644Y38648606D01*
X9604599Y38602499D01*
X9551538Y38557184D01*
X9494743Y38514561D01*
X9436493Y38476531D01*
X9379068Y38444992D01*
X9361908Y38436784D01*
X9338613Y38427700D01*
X9322925Y38426587D01*
X9312714Y38434411D01*
X9305849Y38452138D01*
X9300200Y38480732D01*
X9293203Y38525390D01*
X9277401Y38657574D01*
X9267138Y38798466D01*
X9262291Y38946123D01*
X9262740Y39098599D01*
X9268361Y39253950D01*
X9279034Y39410231D01*
X9294636Y39565498D01*
X9315047Y39717805D01*
X9340144Y39865208D01*
X9369805Y40005762D01*
X9403909Y40137522D01*
X9407601Y40150265D01*
X9425879Y40209925D01*
X9446136Y40271306D01*
X9467358Y40331600D01*
X9488533Y40387998D01*
X9508648Y40437692D01*
X9526690Y40477875D01*
X9560887Y40541044D01*
X9610077Y40613819D01*
X9669484Y40685366D01*
X9739902Y40756626D01*
X9822125Y40828542D01*
X9826103Y40831825D01*
X9854504Y40856156D01*
X9881612Y40880764D01*
X9904525Y40902947D01*
X9920340Y40920003D01*
X9920503Y40920201D01*
X9939724Y40942587D01*
X9962801Y40968449D01*
X9984775Y40992225D01*
X9995375Y41004031D01*
X10017009Y41030475D01*
X10039816Y41060663D01*
X10060330Y41090106D01*
X10066397Y41099122D01*
X10111601Y41158293D01*
X10167680Y41219646D01*
X10234968Y41283502D01*
X10313803Y41350184D01*
X10404520Y41420012D01*
X10415157Y41427774D01*
X10448497Y41450117D01*
X10476501Y41464614D01*
X10501976Y41472192D01*
X10527728Y41473782D01*
X10556564Y41470312D01*
G37*
X10556564Y41470312D02*
X10582589Y41463687D01*
X10629194Y41444067D01*
X10678895Y41414591D01*
X10730325Y41376318D01*
X10782118Y41330303D01*
X10832907Y41277603D01*
X10881326Y41219273D01*
X10891538Y41205684D01*
X10910661Y41176757D01*
X10922497Y41151141D01*
X10928519Y41125087D01*
X10930200Y41094848D01*
X10930205Y41089949D01*
X10930747Y41072025D01*
X10933248Y41058327D01*
X10939215Y41045330D01*
X10950152Y41029507D01*
X10967565Y41007332D01*
X10977301Y40994950D01*
X11002818Y40960541D01*
X11023029Y40930221D01*
X11037145Y40905336D01*
X11044377Y40887229D01*
X11043936Y40877246D01*
X11040505Y40875022D01*
X11030880Y40875386D01*
X11014264Y40880905D01*
X10988623Y40892128D01*
X10978628Y40896557D01*
X10952032Y40906724D01*
X10926881Y40914333D01*
X10905740Y40918794D01*
X10891175Y40919513D01*
X10885750Y40915898D01*
X10886467Y40913717D01*
X10892376Y40902494D01*
X10902960Y40884585D01*
X10916654Y40862685D01*
X10945792Y40814637D01*
X10976976Y40754229D01*
X11001568Y40693775D01*
X11010482Y40667717D01*
X11019033Y40638134D01*
X11022519Y40616940D01*
X11021184Y40602314D01*
X11015276Y40592435D01*
X11011098Y40588495D01*
X11005748Y40585518D01*
X10998859Y40585718D01*
X10988631Y40589878D01*
X10973267Y40598781D01*
X10950966Y40613210D01*
X10919930Y40633950D01*
X10908553Y40641495D01*
X10863261Y40669752D01*
X10821758Y40692829D01*
X10785995Y40709697D01*
X10757924Y40719328D01*
X10757620Y40719400D01*
X10748132Y40720381D01*
X10740216Y40716628D01*
X10731334Y40705995D01*
X10718953Y40686335D01*
X10699790Y40653304D01*
X10675308Y40605062D01*
X10659003Y40562493D01*
X10650326Y40523595D01*
X10648726Y40486366D01*
X10653652Y40448804D01*
X10668165Y40398111D01*
X10694298Y40340431D01*
X10728832Y40286216D01*
X10770327Y40236771D01*
X10817343Y40193397D01*
X10868438Y40157399D01*
X10922173Y40130080D01*
X10977107Y40112742D01*
X11031800Y40106690D01*
X11091194Y40111176D01*
X11146309Y40125762D01*
X11194901Y40150916D01*
X11237843Y40187094D01*
X11276007Y40234757D01*
X11298021Y40267445D01*
X11277623Y40305750D01*
X11269487Y40320103D01*
X11253336Y40346360D01*
X11234110Y40375891D01*
X11214416Y40404615D01*
X11204314Y40419000D01*
X11187511Y40443845D01*
X11177276Y40461094D01*
X11172829Y40472464D01*
X11173391Y40479672D01*
X11178184Y40484432D01*
X11181017Y40485224D01*
X11194679Y40482398D01*
X11215632Y40473216D01*
X11241894Y40458736D01*
X11271484Y40440015D01*
X11302420Y40418113D01*
X11316509Y40407743D01*
X11335580Y40394317D01*
X11349131Y40385562D01*
X11354882Y40383004D01*
X11354483Y40385904D01*
X11349946Y40398193D01*
X11341575Y40417689D01*
X11330434Y40441832D01*
X11323553Y40456888D01*
X11313773Y40480814D01*
X11307504Y40499672D01*
X11305867Y40510333D01*
X11312701Y40521140D01*
X11327763Y40523296D01*
X11351330Y40516660D01*
X11383700Y40501198D01*
X11430472Y40475970D01*
X11467673Y40494889D01*
X11481788Y40501772D01*
X11501752Y40509208D01*
X11521369Y40512015D01*
X11547091Y40511546D01*
X11551026Y40511314D01*
X11573300Y40508795D01*
X11594339Y40503532D01*
X11618183Y40494258D01*
X11648875Y40479712D01*
X11663748Y40472091D01*
X11734987Y40429460D01*
X11806072Y40377508D01*
X11874148Y40318661D01*
X11936359Y40255346D01*
X11989851Y40189988D01*
X12001425Y40173865D01*
X12015526Y40152995D01*
X12025174Y40137143D01*
X12028750Y40128853D01*
X12028249Y40124739D01*
X12023481Y40117486D01*
X12012069Y40110794D01*
X11992067Y40103691D01*
X11961532Y40095202D01*
X11913902Y40080994D01*
X11837689Y40050391D01*
X11767282Y40012171D01*
X11704290Y39967389D01*
X11650321Y39917100D01*
X11606982Y39862360D01*
X11602658Y39855567D01*
X11585718Y39825278D01*
X11566820Y39786971D01*
X11547365Y39743842D01*
X11528752Y39699083D01*
X11512381Y39655888D01*
X11499652Y39617450D01*
X11490947Y39587530D01*
X11480653Y39547866D01*
X11473774Y39512799D01*
X11469696Y39478013D01*
X11467803Y39439194D01*
X11467478Y39392025D01*
X11467550Y39380674D01*
X11468236Y39342664D01*
X11469855Y39312836D01*
X11472792Y39287591D01*
X11477433Y39263329D01*
X11484165Y39236450D01*
X11500394Y39176125D01*
X11483584Y39158019D01*
X11479009Y39153211D01*
X11448637Y39124951D01*
X11409263Y39092817D01*
X11362931Y39058197D01*
X11311687Y39022482D01*
X11257574Y38987058D01*
X11202638Y38953316D01*
X11148923Y38922645D01*
X11098475Y38896432D01*
X11091512Y38893045D01*
X11015190Y38858121D01*
X10944140Y38830171D01*
X10874512Y38807805D01*
X10802458Y38789635D01*
X10790549Y38787062D01*
X10689544Y38770457D01*
X10586980Y38762421D01*
X10484584Y38762744D01*
X10384080Y38771219D01*
X10287197Y38787636D01*
X10195661Y38811787D01*
X10111197Y38843461D01*
X10035533Y38882451D01*
X10034299Y38883196D01*
X10009258Y38899876D01*
X9995267Y38913290D01*
X9991509Y38924555D01*
X9997165Y38934788D01*
X10000438Y38937771D01*
X10007939Y38941167D01*
X10019207Y38940225D01*
X10038333Y38934963D01*
X10041029Y38934150D01*
X10107506Y38916962D01*
X10180170Y38902950D01*
X10255467Y38892519D01*
X10329843Y38886074D01*
X10399742Y38884019D01*
X10461609Y38886760D01*
X10471986Y38887772D01*
X10543052Y38897690D01*
X10607834Y38912837D01*
X10668983Y38934287D01*
X10729155Y38963118D01*
X10791001Y39000406D01*
X10857175Y39047227D01*
X10868508Y39055765D01*
X10936614Y39108832D01*
X10994729Y39157672D01*
X11044045Y39203532D01*
X11085753Y39247661D01*
X11121048Y39291307D01*
X11151121Y39335719D01*
X11177165Y39382144D01*
X11178778Y39385338D01*
X11191370Y39411785D01*
X11207071Y39446697D01*
X11224609Y39487151D01*
X11242715Y39530227D01*
X11260118Y39573000D01*
X11281913Y39626749D01*
X11313634Y39701210D01*
X11343579Y39766053D01*
X11372702Y39822883D01*
X11401955Y39873303D01*
X11432291Y39918917D01*
X11464663Y39961328D01*
X11500024Y40002140D01*
X11539326Y40042956D01*
X11542813Y40046406D01*
X11575789Y40077566D01*
X11610524Y40108176D01*
X11643576Y40135294D01*
X11671504Y40155978D01*
X11691487Y40170019D01*
X11713050Y40186291D01*
X11728907Y40199572D01*
X11736592Y40207892D01*
X11740870Y40218840D01*
X11743319Y40245965D01*
X11737725Y40275887D01*
X11724617Y40304350D01*
X11699810Y40335338D01*
X11663327Y40362743D01*
X11618332Y40381013D01*
X11564493Y40390325D01*
X11549787Y40391094D01*
X11517497Y40388221D01*
X11488424Y40377555D01*
X11459796Y40357818D01*
X11428840Y40327728D01*
X11417626Y40315412D01*
X11403850Y40299046D01*
X11392221Y40282754D01*
X11381395Y40264152D01*
X11370028Y40240854D01*
X11356776Y40210477D01*
X11340295Y40170637D01*
X11316429Y40116749D01*
X11291608Y40071698D01*
X11265512Y40036855D01*
X11236759Y40010990D01*
X11203969Y39992871D01*
X11165759Y39981267D01*
X11120750Y39974946D01*
X11096753Y39974149D01*
X11051800Y39979237D01*
X11003800Y39993299D01*
X10950436Y40016904D01*
X10920256Y40033174D01*
X10879863Y40057430D01*
X10836205Y40085813D01*
X10790847Y40117125D01*
X10745353Y40150168D01*
X10701289Y40183745D01*
X10660221Y40216659D01*
X10623712Y40247713D01*
X10593328Y40275709D01*
X10570635Y40299450D01*
X10557196Y40317739D01*
X10554222Y40324463D01*
X10548505Y40348976D01*
X10545578Y40380973D01*
X10545380Y40416932D01*
X10547852Y40453329D01*
X10552932Y40486642D01*
X10560560Y40513348D01*
X10576513Y40548326D01*
X10600538Y40590518D01*
X10632077Y40637466D01*
X10672218Y40690897D01*
X10672246Y40690932D01*
X10725573Y40764122D01*
X10767449Y40832914D01*
X10798127Y40897841D01*
X10817859Y40959438D01*
X10826897Y41018238D01*
X10826774Y41061884D01*
X10818038Y41106386D01*
X10799543Y41143395D01*
X10770854Y41173733D01*
X10731536Y41198221D01*
X10709083Y41207851D01*
X10658113Y41220274D01*
X10606503Y41220106D01*
X10554692Y41207379D01*
X10503120Y41182122D01*
X10492913Y41176056D01*
X10471047Y41165826D01*
X10454464Y41164412D01*
X10440103Y41172088D01*
X10424906Y41189126D01*
X10408570Y41210543D01*
X10421442Y41237909D01*
X10427037Y41248802D01*
X10439569Y41270948D01*
X10455502Y41297541D01*
X10472707Y41324966D01*
X10485726Y41345500D01*
X10500599Y41370589D01*
X10508548Y41387311D01*
X10509913Y41396834D01*
X10505033Y41400324D01*
X10494250Y41398948D01*
X10481841Y41394363D01*
X10462959Y41384072D01*
X10437961Y41367667D01*
X10405705Y41344392D01*
X10365050Y41313492D01*
X10319191Y41277273D01*
X10279513Y41243849D01*
X10244614Y41211525D01*
X10212660Y41178272D01*
X10181819Y41142063D01*
X10150258Y41100867D01*
X10116143Y41052655D01*
X10077641Y40995400D01*
X10071177Y40985687D01*
X10043355Y40945597D01*
X10015914Y40909429D01*
X9986786Y40874823D01*
X9953903Y40839419D01*
X9915196Y40800855D01*
X9868598Y40756772D01*
X9823508Y40713802D01*
X9757136Y40645408D01*
X9700706Y40579512D01*
X9653168Y40514475D01*
X9613471Y40448660D01*
X9580567Y40380429D01*
X9553403Y40308145D01*
X9530931Y40230169D01*
X9528918Y40221941D01*
X9519485Y40178214D01*
X9509546Y40124695D01*
X9499426Y40063732D01*
X9489454Y39997672D01*
X9479957Y39928864D01*
X9471263Y39859656D01*
X9463698Y39792396D01*
X9457590Y39729432D01*
X9453266Y39673112D01*
X9452333Y39656845D01*
X9451747Y39623674D01*
X9454541Y39601539D01*
X9461720Y39589357D01*
X9474293Y39586043D01*
X9493266Y39590514D01*
X9519647Y39601686D01*
X9532843Y39608319D01*
X9557800Y39622838D01*
X9578315Y39637028D01*
X9578976Y39637549D01*
X9599706Y39651133D01*
X9614196Y39653930D01*
X9623123Y39645796D01*
X9627166Y39626586D01*
X9626772Y39615681D01*
X9620154Y39589432D01*
X9605762Y39554941D01*
X9583438Y39511889D01*
X9553023Y39459956D01*
X9514360Y39398823D01*
X9493043Y39364961D01*
X9469251Y39322816D01*
X9450384Y39282326D01*
X9435980Y39241458D01*
X9425578Y39198177D01*
X9418715Y39150448D01*
X9414929Y39096236D01*
X9413758Y39033507D01*
X9414739Y38960225D01*
X9416694Y38900088D01*
X9419794Y38845941D01*
X9424128Y38801252D01*
X9429906Y38764352D01*
X9437339Y38733574D01*
X9446638Y38707248D01*
X9447471Y38705319D01*
X9457972Y38689670D01*
X9471153Y38684559D01*
X9487430Y38690236D01*
X9507214Y38706948D01*
X9530921Y38734943D01*
X9558965Y38774468D01*
X9572793Y38795458D01*
X9597651Y38835521D01*
X9614696Y38866876D01*
X9623770Y38889218D01*
X9624716Y38902241D01*
X9620160Y38909763D01*
X9607730Y38915100D01*
X9592554Y38909191D01*
X9579407Y38902076D01*
X9565200Y38901075D01*
X9556601Y38908649D01*
X9555921Y38913025D01*
X9556116Y38928724D01*
X9557840Y38951361D01*
X9560724Y38977335D01*
X9564399Y39003046D01*
X9568497Y39024889D01*
X9575234Y39052619D01*
X9593379Y39112406D01*
X9615148Y39168205D01*
X9639526Y39217838D01*
X9665499Y39259131D01*
X9692053Y39289908D01*
X9708469Y39304207D01*
X9723042Y39314909D01*
X9731846Y39319000D01*
X9740284Y39316543D01*
X9754117Y39303667D01*
X9767383Y39281577D01*
X9778640Y39252325D01*
X9778646Y39252306D01*
X9783900Y39226714D01*
X9787667Y39191261D01*
X9789944Y39148692D01*
X9790730Y39101757D01*
X9790021Y39053203D01*
X9787817Y39005777D01*
X9784114Y38962227D01*
X9778910Y38925300D01*
X9769650Y38880301D01*
X9752398Y38817078D01*
X9732096Y38763163D01*
X9709295Y38720176D01*
X9690396Y38693607D01*
X9651644Y38648606D01*
X9604599Y38602499D01*
X9551538Y38557184D01*
X9494743Y38514561D01*
X9436493Y38476531D01*
X9379068Y38444992D01*
X9361908Y38436784D01*
X9338613Y38427700D01*
X9322925Y38426587D01*
X9312714Y38434411D01*
X9305849Y38452138D01*
X9300200Y38480732D01*
X9293203Y38525390D01*
X9277401Y38657574D01*
X9267138Y38798466D01*
X9262291Y38946123D01*
X9262740Y39098599D01*
X9268361Y39253950D01*
X9279034Y39410231D01*
X9294636Y39565498D01*
X9315047Y39717805D01*
X9340144Y39865208D01*
X9369805Y40005762D01*
X9403909Y40137522D01*
X9407601Y40150265D01*
X9425879Y40209925D01*
X9446136Y40271306D01*
X9467358Y40331600D01*
X9488533Y40387998D01*
X9508648Y40437692D01*
X9526690Y40477875D01*
X9560887Y40541044D01*
X9610077Y40613819D01*
X9669484Y40685366D01*
X9739902Y40756626D01*
X9822125Y40828542D01*
X9826103Y40831825D01*
X9854504Y40856156D01*
X9881612Y40880764D01*
X9904525Y40902947D01*
X9920340Y40920003D01*
X9920503Y40920201D01*
X9939724Y40942587D01*
X9962801Y40968449D01*
X9984775Y40992225D01*
X9995375Y41004031D01*
X10017009Y41030475D01*
X10039816Y41060663D01*
X10060330Y41090106D01*
X10066397Y41099122D01*
X10111601Y41158293D01*
X10167680Y41219646D01*
X10234968Y41283502D01*
X10313803Y41350184D01*
X10404520Y41420012D01*
X10415157Y41427774D01*
X10448497Y41450117D01*
X10476501Y41464614D01*
X10501976Y41472192D01*
X10527728Y41473782D01*
X10556564Y41470312D01*
%TD*%
D13*
%TO.P,J2,1,Pin_1*%
%TO.N,+3V3*%
X5270000Y21870000D03*
D14*
%TO.P,J2,2,Pin_2*%
%TO.N,+5V*%
X2730000Y21870000D03*
%TO.P,J2,3,Pin_3*%
%TO.N,/I2C1_SDA*%
X5270000Y24410000D03*
%TO.P,J2,4,Pin_4*%
%TO.N,+5V*%
X2730000Y24410000D03*
%TO.P,J2,5,Pin_5*%
%TO.N,/I2C1_SCL*%
X5270000Y26950000D03*
%TO.P,J2,6,Pin_6*%
%TO.N,GND*%
X2730000Y26950000D03*
%TO.P,J2,7,Pin_7*%
%TO.N,unconnected-(J2-Pad7)*%
X5270000Y29490000D03*
%TO.P,J2,8,Pin_8*%
%TO.N,/UART1_TXD*%
X2730000Y29490000D03*
%TO.P,J2,9,Pin_9*%
%TO.N,GND*%
X5270000Y32030000D03*
%TO.P,J2,10,Pin_10*%
%TO.N,/UART1_RXD*%
X2730000Y32030000D03*
%TD*%
D15*
%TO.P,J1,1,Pin_1*%
%TO.N,GND*%
X7000000Y6200000D03*
%TO.P,J1,2,Pin_2*%
%TO.N,/12V_CONN*%
X3500000Y11200000D03*
%TD*%
D16*
%TO.P,H2,1*%
%TO.N,N/C*%
X4000000Y77400000D03*
X6400000Y75000000D03*
X1600000Y75000000D03*
X2302944Y76697056D03*
X2302944Y73302944D03*
X5697056Y76697056D03*
D17*
X4000000Y75000000D03*
D16*
X5697056Y73302944D03*
X4000000Y72600000D03*
%TD*%
D13*
%TO.P,J3,1,Pin_1*%
%TO.N,/TR1_TAP*%
X8870000Y73730000D03*
D14*
%TO.P,J3,2,Pin_2*%
%TO.N,/TR0_TAP*%
X8870000Y76270000D03*
%TO.P,J3,3,Pin_3*%
%TO.N,GND*%
X11410000Y73730000D03*
%TO.P,J3,4,Pin_4*%
%TO.N,/TR2_TAP*%
X11410000Y76270000D03*
%TD*%
D16*
%TO.P,H1,1*%
%TO.N,N/C*%
X4000000Y19400000D03*
X2302944Y15302944D03*
X6400000Y17000000D03*
X1600000Y17000000D03*
X5697056Y15302944D03*
X2302944Y18697056D03*
D17*
X4000000Y17000000D03*
D16*
X4000000Y14600000D03*
X5697056Y18697056D03*
%TD*%
D13*
%TO.P,J5,1,Pin_1*%
%TO.N,GND*%
X11620005Y15520010D03*
D14*
%TO.P,J5,2,Pin_2*%
%TO.N,unconnected-(J5-Pad2)*%
X11620005Y12980010D03*
%TO.P,J5,3,Pin_3*%
%TO.N,/UART_VCC*%
X11620005Y10440010D03*
%TO.P,J5,4,Pin_4*%
%TO.N,/UART1_RXD*%
X11620005Y7900010D03*
%TO.P,J5,5,Pin_5*%
%TO.N,/UART1_TXD*%
X11620005Y5360010D03*
%TO.P,J5,6,Pin_6*%
%TO.N,unconnected-(J5-Pad6)*%
X11620005Y2820010D03*
%TD*%
D13*
%TO.P,J4,1,Pin_1*%
%TO.N,/REG_PG*%
X2730000Y61240000D03*
D14*
%TO.P,J4,2,Pin_2*%
%TO.N,/REG_EN*%
X5270000Y61240000D03*
%TO.P,J4,3,Pin_3*%
%TO.N,+12V*%
X2730000Y58700000D03*
%TO.P,J4,4,Pin_4*%
X5270000Y58700000D03*
%TO.P,J4,5,Pin_5*%
%TO.N,/REG_VIN*%
X2730000Y56160000D03*
%TO.P,J4,6,Pin_6*%
X5270000Y56160000D03*
%TO.P,J4,7,Pin_7*%
%TO.N,GND*%
X2730000Y53620000D03*
%TO.P,J4,8,Pin_8*%
X5270000Y53620000D03*
%TO.P,J4,9,Pin_9*%
X2730000Y51080000D03*
%TO.P,J4,10,Pin_10*%
X5270000Y51080000D03*
%TO.P,J4,11,Pin_11*%
%TO.N,/REG_VOUT*%
X2730000Y48540000D03*
%TO.P,J4,12,Pin_12*%
X5270000Y48540000D03*
%TD*%
D18*
%TO.P,JP1,1,A*%
%TO.N,+3V3*%
X7600000Y22225000D03*
D19*
%TO.P,JP1,2,B*%
%TO.N,/UART_VCC*%
X7600000Y20775000D03*
%TD*%
D20*
%TO.N,+12V*%
X6750000Y70000000D03*
X10557146Y69692854D03*
%TO.N,GND*%
X12500000Y56100000D03*
X9500000Y61900000D03*
%TO.N,/UART1_RXD*%
X6400000Y28700000D03*
%TO.N,/REG_PG*%
X1100000Y69600000D03*
%TO.N,/UART_VCC*%
X4700000Y9800000D03*
%TO.N,/REG_VIN*%
X11000000Y55000000D03*
X11300000Y58500000D03*
%TD*%
D21*
%TO.N,GND*%
X11410000Y72490000D02*
X11390000Y72490000D01*
X11390000Y72490000D02*
X10900000Y72000000D01*
X11410000Y73730000D02*
X11410000Y72490000D01*
X11410000Y72490000D02*
X11800000Y72100000D01*
D22*
%TO.N,+12V*%
X10250000Y70000000D02*
X6750000Y70000000D01*
X10557146Y69692854D02*
X10250000Y70000000D01*
%TO.N,/UART1_RXD*%
X10259997Y6540003D02*
X11620005Y7900010D01*
X8443133Y19043133D02*
X9200000Y19800000D01*
X8443133Y11543133D02*
X8443133Y19043133D01*
X5400000Y8500000D02*
X8443133Y11543133D01*
X9200000Y25900000D02*
X6400000Y28700000D01*
X3200000Y4100000D02*
X4500000Y2800000D01*
X5400000Y8500000D02*
X6500000Y9600000D01*
X4500000Y2800000D02*
X8200000Y2800000D01*
X9200000Y19800000D02*
X9200000Y25900000D01*
X10259997Y4859997D02*
X10259997Y6540003D01*
X5400000Y8500000D02*
X3200000Y6300000D01*
X8200000Y2800000D02*
X10259997Y4859997D01*
X6500000Y9600000D02*
X8100000Y11200000D01*
X3200000Y6300000D02*
X3200000Y4100000D01*
%TO.N,/UART1_TXD*%
X6070289Y28129711D02*
X4090289Y28129711D01*
X11620005Y5360010D02*
X8429998Y2170002D01*
X4090289Y28129711D02*
X2730000Y29490000D01*
X8700000Y25500000D02*
X6070289Y28129711D01*
X2500000Y3900000D02*
X2500000Y6600000D01*
X4229998Y2170002D02*
X2500000Y3900000D01*
X8429998Y2170002D02*
X4229998Y2170002D01*
X7986422Y12086422D02*
X7986422Y19286422D01*
X8700000Y20000000D02*
X8700000Y25500000D01*
X2500000Y6600000D02*
X7986422Y12086422D01*
X7986422Y19286422D02*
X8700000Y20000000D01*
%TO.N,+3V3*%
X5625000Y22225000D02*
X5270000Y21870000D01*
X7600000Y22225000D02*
X5625000Y22225000D01*
%TO.N,/REG_PG*%
X1560000Y61240000D02*
X800000Y62000000D01*
X800000Y62000000D02*
X800000Y69300000D01*
X2730000Y61240000D02*
X1560000Y61240000D01*
X800000Y69300000D02*
X1100000Y69600000D01*
%TO.N,/UART_VCC*%
X7600000Y19545886D02*
X7600000Y20775000D01*
X7529711Y19475597D02*
X7600000Y19545886D01*
X4700000Y9800000D02*
X7529711Y12629711D01*
X7529711Y12629711D02*
X7529711Y19475597D01*
%TO.N,/REG_VIN*%
X11300000Y55300000D02*
X11000000Y55000000D01*
X11300000Y58500000D02*
X11300000Y55300000D01*
%TD*%
%TA.AperFunction,Conductor*%
%TO.N,GND*%
G36*
X13517343Y72495996D02*
G01*
X13529620Y72485496D01*
X13624806Y72389826D01*
X13665415Y72349010D01*
X13693501Y72293541D01*
X13694700Y72278056D01*
X13694700Y50941019D01*
X13675487Y50881888D01*
X13625187Y50845343D01*
X13594100Y50840419D01*
X11895950Y50840419D01*
X11895950Y42330225D01*
X11876737Y42271094D01*
X11826437Y42234549D01*
X11795350Y42229625D01*
X10654572Y42229625D01*
X10644755Y42230105D01*
X10636550Y42230910D01*
X10627629Y42233493D01*
X10618378Y42232692D01*
X10618376Y42232692D01*
X10587297Y42230000D01*
X10578617Y42229625D01*
X9439095Y42229625D01*
X9433458Y42230016D01*
X9427625Y42231968D01*
X9382331Y42229910D01*
X9378358Y42229729D01*
X9373791Y42229625D01*
X9355115Y42229625D01*
X9350560Y42228776D01*
X9346255Y42228379D01*
X9341572Y42228057D01*
X9319249Y42227043D01*
X9319247Y42227043D01*
X9312148Y42226720D01*
X9305967Y42224621D01*
X9303743Y42223614D01*
X9303737Y42223612D01*
X9301482Y42222591D01*
X9281341Y42216260D01*
X9279463Y42215535D01*
X9270333Y42213835D01*
X9262426Y42208961D01*
X9253760Y42205617D01*
X9253692Y42205793D01*
X9252860Y42205429D01*
X9253217Y42204617D01*
X9247241Y42201988D01*
X9245097Y42200783D01*
X9245082Y42200775D01*
X9221756Y42187659D01*
X9206248Y42181374D01*
X9206294Y42181264D01*
X9199750Y42178507D01*
X9192888Y42176698D01*
X9187288Y42173344D01*
X9185318Y42171885D01*
X9164947Y42156800D01*
X9151522Y42149400D01*
X9151785Y42148931D01*
X9145590Y42145458D01*
X9138968Y42142889D01*
X9133779Y42138928D01*
X9131983Y42137256D01*
X9131977Y42137251D01*
X9110549Y42117302D01*
X9101869Y42110087D01*
X9097711Y42107008D01*
X9093801Y42104254D01*
X9081838Y42096247D01*
X9081834Y42096244D01*
X9075935Y42092295D01*
X9071734Y42087298D01*
X9070342Y42085269D01*
X9070106Y42084925D01*
X9069831Y42084597D01*
X9068852Y42083310D01*
X9068790Y42083357D01*
X9062371Y42075706D01*
X9060775Y42074530D01*
X9056803Y42069348D01*
X9055505Y42067261D01*
X9055500Y42067253D01*
X9050407Y42059060D01*
X9049753Y42058205D01*
X9049806Y42058172D01*
X9049079Y42057025D01*
X9044703Y42050674D01*
X9043116Y42048550D01*
X9042990Y42048341D01*
X9038492Y42043506D01*
X9035411Y42035813D01*
X9034411Y42034160D01*
X9032579Y42031489D01*
X9012737Y42004673D01*
X9010269Y41995712D01*
X9009821Y41994791D01*
X9004800Y41985699D01*
X9002006Y41981204D01*
X9001472Y41980345D01*
X9000091Y41981204D01*
X8999585Y41980691D01*
X9001228Y41979717D01*
X8989413Y41959787D01*
X8988981Y41959066D01*
X8983095Y41949335D01*
X8981346Y41950393D01*
X8980904Y41949933D01*
X8982878Y41948763D01*
X8976827Y41938556D01*
X8976063Y41937333D01*
X8975538Y41936614D01*
X8964182Y41917362D01*
X8963986Y41917033D01*
X8960438Y41911093D01*
X8958506Y41912247D01*
X8958347Y41912080D01*
X8960364Y41910890D01*
X8947941Y41889830D01*
X8947837Y41889654D01*
X8944766Y41884472D01*
X8944474Y41884004D01*
X8944123Y41883522D01*
X8943292Y41882109D01*
X8943285Y41882097D01*
X8934808Y41867675D01*
X8934666Y41867434D01*
X8933315Y41865155D01*
X8933314Y41865153D01*
X8931190Y41866412D01*
X8931144Y41866363D01*
X8933295Y41865099D01*
X8916502Y41836529D01*
X8916423Y41836396D01*
X8909100Y41823981D01*
X8908971Y41823773D01*
X8908753Y41823473D01*
X8908235Y41822589D01*
X8908228Y41822578D01*
X8881434Y41776867D01*
X8881373Y41776764D01*
X8869961Y41757348D01*
X8869928Y41757295D01*
X8869787Y41757100D01*
X8842192Y41709922D01*
X8827684Y41685171D01*
X8827594Y41685047D01*
X8799876Y41637577D01*
X8799869Y41637581D01*
X8799838Y41637512D01*
X8785500Y41612999D01*
X8785465Y41612902D01*
X8785443Y41612860D01*
X8782917Y41608533D01*
X8782690Y41608165D01*
X8782540Y41607957D01*
X8755625Y41561793D01*
X8755620Y41561796D01*
X8755596Y41561743D01*
X8740479Y41535853D01*
X8740448Y41535768D01*
X8740430Y41535733D01*
X8735333Y41526989D01*
X8735139Y41526674D01*
X8735005Y41526489D01*
X8707606Y41479434D01*
X8692974Y41454337D01*
X8692946Y41454257D01*
X8692937Y41454240D01*
X8685631Y41441694D01*
X8685497Y41441476D01*
X8685368Y41441297D01*
X8657922Y41394106D01*
X8643366Y41369107D01*
X8643344Y41369046D01*
X8643326Y41369011D01*
X8638930Y41361451D01*
X8634257Y41353416D01*
X8634122Y41353196D01*
X8634007Y41353037D01*
X8607209Y41306911D01*
X8592032Y41280815D01*
X8592011Y41280756D01*
X8591992Y41280719D01*
X8581553Y41262750D01*
X8581405Y41262509D01*
X8581304Y41262369D01*
X8554003Y41215331D01*
X8539356Y41190119D01*
X8539336Y41190063D01*
X8539324Y41190041D01*
X8527875Y41170313D01*
X8527739Y41170090D01*
X8527636Y41169948D01*
X8500318Y41122835D01*
X8485717Y41097678D01*
X8485697Y41097623D01*
X8485684Y41097597D01*
X8473610Y41076773D01*
X8473487Y41076573D01*
X8473389Y41076436D01*
X8446516Y41030047D01*
X8446485Y41030019D01*
X8446496Y41030013D01*
X8431496Y41004144D01*
X8431476Y41004087D01*
X8431470Y41004076D01*
X8419156Y40982819D01*
X8419044Y40982635D01*
X8418939Y40982490D01*
X8391590Y40935235D01*
X8377077Y40910183D01*
X8377058Y40910129D01*
X8377042Y40910098D01*
X8364897Y40889116D01*
X8364770Y40888908D01*
X8364673Y40888772D01*
X8337310Y40841449D01*
X8322840Y40816448D01*
X8322822Y40816395D01*
X8322812Y40816377D01*
X8311209Y40796309D01*
X8311070Y40796082D01*
X8310966Y40795937D01*
X8310705Y40795485D01*
X8283775Y40748865D01*
X8283753Y40748826D01*
X8269167Y40723601D01*
X8269146Y40723542D01*
X8269135Y40723520D01*
X8258444Y40705014D01*
X8258316Y40704802D01*
X8258204Y40704646D01*
X8231824Y40658929D01*
X8216441Y40632298D01*
X8216419Y40632235D01*
X8216407Y40632211D01*
X8207044Y40615986D01*
X8206882Y40615721D01*
X8206766Y40615558D01*
X8206474Y40615052D01*
X8206464Y40615035D01*
X8179689Y40568581D01*
X8179664Y40568537D01*
X8165043Y40543199D01*
X8165019Y40543132D01*
X8165008Y40543110D01*
X8157323Y40529779D01*
X8157166Y40529520D01*
X8157030Y40529329D01*
X8130014Y40482398D01*
X8115354Y40456963D01*
X8115328Y40456890D01*
X8115316Y40456865D01*
X8109725Y40447152D01*
X8109525Y40446824D01*
X8109373Y40446611D01*
X8082790Y40400364D01*
X8067755Y40374246D01*
X8067724Y40374158D01*
X8067708Y40374128D01*
X8064598Y40368716D01*
X8064352Y40368311D01*
X8064177Y40368065D01*
X8036785Y40320329D01*
X8022625Y40295695D01*
X8022590Y40295597D01*
X8022572Y40295561D01*
X8022319Y40295120D01*
X8022024Y40294632D01*
X8021813Y40294336D01*
X8021286Y40293415D01*
X7994881Y40247304D01*
X7994835Y40247224D01*
X7982997Y40226595D01*
X7982843Y40226340D01*
X7982652Y40226071D01*
X7982187Y40225256D01*
X7982178Y40225242D01*
X7955497Y40178530D01*
X7955442Y40178434D01*
X7947627Y40164787D01*
X7947338Y40164309D01*
X7947051Y40163902D01*
X7946364Y40162695D01*
X7946347Y40162667D01*
X7920099Y40116557D01*
X7920033Y40116441D01*
X7916302Y40109907D01*
X7915803Y40109077D01*
X7915351Y40108435D01*
X7897379Y40076716D01*
X7889570Y40062934D01*
X7888555Y40061235D01*
X7887859Y40060239D01*
X7886661Y40058110D01*
X7886656Y40058102D01*
X7867692Y40024400D01*
X7865914Y40021397D01*
X7864755Y40019723D01*
X7851340Y39995606D01*
X7848490Y39990976D01*
X7848515Y39990961D01*
X7847238Y39988863D01*
X7845854Y39986820D01*
X7838223Y39972779D01*
X7832130Y39963915D01*
X7832186Y39963879D01*
X7828687Y39958368D01*
X7827588Y39956193D01*
X7827582Y39956183D01*
X7824734Y39950548D01*
X7816864Y39937530D01*
X7815588Y39935741D01*
X7810699Y39930600D01*
X7807693Y39924805D01*
X7806776Y39922514D01*
X7803792Y39915061D01*
X7793494Y39895744D01*
X7790179Y39890887D01*
X7790175Y39890879D01*
X7786175Y39885017D01*
X7784140Y39878814D01*
X7781372Y39866391D01*
X7778185Y39852087D01*
X7777443Y39849229D01*
X7776288Y39846342D01*
X7775385Y39841807D01*
X7774064Y39837358D01*
X7773669Y39837475D01*
X7767947Y39820245D01*
X7767087Y39818441D01*
X7767086Y39818438D01*
X7764031Y39812028D01*
X7762972Y39805586D01*
X7762147Y39792947D01*
X7761297Y39790032D01*
X7761670Y39785627D01*
X7761032Y39775854D01*
X7760843Y39774680D01*
X7760770Y39773921D01*
X7759895Y39769993D01*
X7759732Y39765360D01*
X7759439Y39763065D01*
X7757654Y39755260D01*
X7757788Y39755235D01*
X7756506Y39748252D01*
X7754254Y39741514D01*
X7753989Y39734992D01*
X7755384Y39710561D01*
X7755681Y39705369D01*
X7755643Y39695743D01*
X7755690Y39693982D01*
X7755389Y39689360D01*
X7755760Y39686254D01*
X7754511Y39668335D01*
X7753126Y39660081D01*
X7753880Y39653597D01*
X7759686Y39626800D01*
X7760388Y39622967D01*
X7760602Y39619218D01*
X7761711Y39614710D01*
X7764754Y39602339D01*
X7767239Y39587579D01*
X7770157Y39556052D01*
X7772543Y39549975D01*
X7773666Y39547775D01*
X7774671Y39545543D01*
X7774385Y39545414D01*
X7776821Y39539095D01*
X7776853Y39539109D01*
X7779425Y39533109D01*
X7780604Y39530964D01*
X7780611Y39530950D01*
X7786111Y39520946D01*
X7788023Y39517063D01*
X7788105Y39517104D01*
X7789200Y39514903D01*
X7790183Y39512660D01*
X7792591Y39508361D01*
X7793285Y39507122D01*
X7798274Y39496899D01*
X7810078Y39468784D01*
X7816517Y39462088D01*
X7821618Y39454329D01*
X7821286Y39454111D01*
X7824711Y39449455D01*
X7824870Y39449562D01*
X7825928Y39447997D01*
X7826021Y39447674D01*
X7827489Y39445679D01*
X7828130Y39444513D01*
X7829690Y39441675D01*
X7828013Y39440753D01*
X7828162Y39440236D01*
X7830011Y39441286D01*
X7840711Y39422438D01*
X7840983Y39421957D01*
X7843594Y39417296D01*
X7846745Y39411670D01*
X7844828Y39410597D01*
X7844946Y39410200D01*
X7846997Y39411365D01*
X7853196Y39400446D01*
X7853623Y39399651D01*
X7853853Y39399135D01*
X7864885Y39379767D01*
X7865006Y39379553D01*
X7868469Y39373421D01*
X7866413Y39372260D01*
X7866456Y39372119D01*
X7868558Y39373317D01*
X7880817Y39351796D01*
X7880891Y39351666D01*
X7884570Y39345185D01*
X7884735Y39344877D01*
X7884902Y39344506D01*
X7885458Y39343533D01*
X7885478Y39343495D01*
X7894025Y39328528D01*
X7894139Y39328329D01*
X7895016Y39326785D01*
X7892740Y39325492D01*
X7892748Y39325467D01*
X7895029Y39326769D01*
X7911829Y39297347D01*
X7911881Y39297257D01*
X7920218Y39282621D01*
X7920280Y39282506D01*
X7920381Y39282280D01*
X7946553Y39236531D01*
X7947198Y39235403D01*
X7947238Y39235332D01*
X7959905Y39213148D01*
X7959922Y39213117D01*
X7959981Y39212985D01*
X7969724Y39195980D01*
X7987058Y39165726D01*
X7987046Y39165719D01*
X7987090Y39165671D01*
X8001462Y39140547D01*
X8001529Y39140468D01*
X8003142Y39137654D01*
X8003299Y39137363D01*
X8003392Y39137156D01*
X8030025Y39090732D01*
X8044930Y39064717D01*
X8044981Y39064657D01*
X8045005Y39064620D01*
X8050077Y39055779D01*
X8050215Y39055524D01*
X8050297Y39055342D01*
X8077223Y39008461D01*
X8091884Y38982905D01*
X8091932Y38982848D01*
X8091942Y38982833D01*
X8100193Y38968468D01*
X8100303Y38968264D01*
X8100383Y38968087D01*
X8100663Y38967600D01*
X8127645Y38920669D01*
X8127668Y38920630D01*
X8142011Y38895657D01*
X8142055Y38895605D01*
X8153158Y38876295D01*
X8153261Y38876106D01*
X8153336Y38875938D01*
X8180203Y38829252D01*
X8180212Y38829212D01*
X8180223Y38829218D01*
X8194998Y38803520D01*
X8195033Y38803478D01*
X8195057Y38803441D01*
X8208654Y38779814D01*
X8208776Y38779590D01*
X8208837Y38779455D01*
X8236144Y38732048D01*
X8250534Y38707044D01*
X8250566Y38707006D01*
X8250584Y38706979D01*
X8266401Y38679519D01*
X8266504Y38679329D01*
X8266571Y38679181D01*
X8293631Y38632245D01*
X8308296Y38606785D01*
X8308333Y38606742D01*
X8308343Y38606727D01*
X8326055Y38576005D01*
X8326161Y38575811D01*
X8326220Y38575679D01*
X8353118Y38529061D01*
X8367976Y38503290D01*
X8368007Y38503253D01*
X8368021Y38503231D01*
X8376935Y38487783D01*
X8377073Y38487530D01*
X8377143Y38487375D01*
X8377391Y38486946D01*
X8377412Y38486907D01*
X8404137Y38440637D01*
X8404159Y38440600D01*
X8418916Y38415025D01*
X8418952Y38414983D01*
X8418968Y38414957D01*
X8461542Y38341247D01*
X8461727Y38340908D01*
X8461834Y38340672D01*
X8488505Y38294563D01*
X8503615Y38268402D01*
X8503672Y38268334D01*
X8503706Y38268282D01*
X8539928Y38205662D01*
X8540160Y38205238D01*
X8540290Y38204952D01*
X8567397Y38158172D01*
X8582105Y38132745D01*
X8582171Y38132668D01*
X8582203Y38132618D01*
X8612095Y38081033D01*
X8612378Y38080516D01*
X8612534Y38080175D01*
X8613078Y38079239D01*
X8640005Y38032866D01*
X8639988Y38032856D01*
X8640050Y38032788D01*
X8654389Y38008043D01*
X8654470Y38007949D01*
X8654509Y38007888D01*
X8678062Y37967325D01*
X8678401Y37966707D01*
X8678589Y37966298D01*
X8705808Y37919543D01*
X8705832Y37919431D01*
X8705862Y37919449D01*
X8720488Y37894261D01*
X8720584Y37894150D01*
X8720636Y37894069D01*
X8737825Y37864542D01*
X8738248Y37863773D01*
X8738480Y37863269D01*
X8766099Y37815974D01*
X8780430Y37791356D01*
X8780550Y37791217D01*
X8780607Y37791129D01*
X8791394Y37772656D01*
X8791942Y37771666D01*
X8792236Y37771028D01*
X8819827Y37723969D01*
X8834244Y37699281D01*
X8834403Y37699097D01*
X8834466Y37699000D01*
X8838794Y37691619D01*
X8839503Y37690342D01*
X8839893Y37689502D01*
X8867508Y37642642D01*
X8867509Y37642641D01*
X8880661Y37620209D01*
X8881114Y37619397D01*
X8881503Y37618565D01*
X8909330Y37571676D01*
X8909331Y37571675D01*
X8915375Y37561420D01*
X8916454Y37559500D01*
X8917147Y37558035D01*
X8918406Y37555935D01*
X8943156Y37514651D01*
X8945254Y37510977D01*
X8945906Y37509778D01*
X8946972Y37507566D01*
X8948251Y37505466D01*
X8965743Y37476738D01*
X8969908Y37469186D01*
X8971350Y37466286D01*
X8972648Y37464212D01*
X8983883Y37446258D01*
X8988389Y37437014D01*
X8988525Y37437087D01*
X8991591Y37431324D01*
X9000041Y37418611D01*
X9006874Y37406155D01*
X9008340Y37400975D01*
X9011796Y37395436D01*
X9013294Y37393488D01*
X9020066Y37384681D01*
X9031810Y37365183D01*
X9036455Y37355020D01*
X9040713Y37350072D01*
X9042494Y37348371D01*
X9060450Y37331220D01*
X9063748Y37327872D01*
X9066287Y37324570D01*
X9069740Y37321473D01*
X9080830Y37311525D01*
X9093809Y37297433D01*
X9108611Y37277918D01*
X9113847Y37274020D01*
X9115947Y37272755D01*
X9115948Y37272754D01*
X9147875Y37253517D01*
X9166013Y37239547D01*
X9173838Y37231954D01*
X9179602Y37228891D01*
X9181865Y37227959D01*
X9181869Y37227957D01*
X9184042Y37227062D01*
X9194396Y37221547D01*
X9195465Y37220592D01*
X9201351Y37217770D01*
X9203553Y37216968D01*
X9209241Y37214064D01*
X9211340Y37212343D01*
X9217341Y37209772D01*
X9219682Y37209030D01*
X9221986Y37208173D01*
X9221885Y37207902D01*
X9230188Y37204446D01*
X9234090Y37201649D01*
X9240244Y37199471D01*
X9242629Y37198881D01*
X9244983Y37198176D01*
X9244915Y37197951D01*
X9254024Y37194835D01*
X9258037Y37192332D01*
X9264319Y37190554D01*
X9266739Y37190118D01*
X9269127Y37189567D01*
X9269074Y37189337D01*
X9277456Y37187002D01*
X9280054Y37185563D01*
X9286419Y37184113D01*
X9288863Y37183803D01*
X9291279Y37183375D01*
X9291240Y37183154D01*
X9299107Y37181339D01*
X9299893Y37180941D01*
X9306308Y37179731D01*
X9308886Y37179502D01*
X9308990Y37179481D01*
X9311195Y37179176D01*
X9311177Y37179049D01*
X9318738Y37177557D01*
X9318771Y37177758D01*
X9322787Y37177109D01*
X9322794Y37177108D01*
X9325216Y37176717D01*
X9329788Y37176431D01*
X9338136Y37174978D01*
X9338208Y37175478D01*
X9344671Y37174553D01*
X9347112Y37174445D01*
X9347118Y37174444D01*
X9353898Y37174143D01*
X9362413Y37173401D01*
X9363505Y37173259D01*
X9363511Y37173259D01*
X9365949Y37172941D01*
X9377229Y37172583D01*
X9377194Y37171465D01*
X9378681Y37171586D01*
X9378711Y37172535D01*
X9380375Y37172482D01*
X9385206Y37172114D01*
X9385248Y37172118D01*
X9385252Y37172169D01*
X9385587Y37172145D01*
X9386104Y37172187D01*
X9387575Y37172009D01*
X9387592Y37172001D01*
X9387704Y37171993D01*
X9390146Y37171697D01*
X9392598Y37171641D01*
X9392599Y37171641D01*
X9395090Y37171584D01*
X9395092Y37171584D01*
X9398918Y37171497D01*
X9400017Y37171399D01*
X9401488Y37170927D01*
X9401500Y37171438D01*
X9401502Y37171438D01*
X9403819Y37171385D01*
X9410874Y37171224D01*
X9415133Y37171036D01*
X9415686Y37171000D01*
X9418143Y37170718D01*
X9420613Y37170677D01*
X9420618Y37170677D01*
X9422091Y37170653D01*
X9422090Y37170581D01*
X9422785Y37170536D01*
X9422787Y37170641D01*
X9424055Y37170620D01*
X9437341Y37170400D01*
X9440129Y37170315D01*
X9444010Y37170143D01*
X9444012Y37170143D01*
X9445658Y37170070D01*
X9446080Y37170130D01*
X9449128Y37170110D01*
X9450761Y37169930D01*
X9459694Y37169823D01*
X9465852Y37169749D01*
X9467808Y37169706D01*
X9471019Y37169604D01*
X9470964Y37167878D01*
X9471515Y37167736D01*
X9471538Y37169682D01*
X9471539Y37169682D01*
X9472344Y37169672D01*
X9485144Y37169519D01*
X9487330Y37169442D01*
X9488680Y37169298D01*
X9499071Y37169208D01*
X9499071Y37169199D01*
X9499913Y37169181D01*
X9499913Y37169201D01*
X9500143Y37169199D01*
X9520398Y37169023D01*
X9521179Y37169013D01*
X9532117Y37168833D01*
X9532107Y37168205D01*
X9532564Y37168264D01*
X9532567Y37168786D01*
X9561289Y37168607D01*
X9561863Y37168602D01*
X9571329Y37168489D01*
X9571302Y37166248D01*
X9571618Y37166173D01*
X9571633Y37168542D01*
X9571638Y37168543D01*
X9572232Y37168539D01*
X9581167Y37168483D01*
X9582311Y37168449D01*
X9583056Y37168373D01*
X9608620Y37168260D01*
X9608779Y37168259D01*
X9615493Y37168201D01*
X9615497Y37168201D01*
X9615477Y37165875D01*
X9615641Y37165836D01*
X9615652Y37168229D01*
X9637391Y37168133D01*
X9637540Y37168132D01*
X9638370Y37168127D01*
X9639584Y37168120D01*
X9640176Y37168102D01*
X9640722Y37168047D01*
X9642240Y37168042D01*
X9642250Y37168042D01*
X9661720Y37167982D01*
X9662043Y37167980D01*
X9666170Y37167954D01*
X9666155Y37165512D01*
X9666239Y37165493D01*
X9666247Y37167968D01*
X9695636Y37167876D01*
X9695763Y37167875D01*
X9704036Y37167839D01*
X9705555Y37167832D01*
X9705825Y37167825D01*
X9706173Y37167790D01*
X9710563Y37167781D01*
X9723448Y37167753D01*
X9723614Y37167752D01*
X9723878Y37167751D01*
X9723868Y37165148D01*
X9723996Y37165120D01*
X9724002Y37167752D01*
X9724367Y37167751D01*
X9760854Y37167673D01*
X9760954Y37167673D01*
X9779731Y37167614D01*
X9779774Y37167613D01*
X9779968Y37167594D01*
X9780520Y37167593D01*
X9780528Y37167593D01*
X9834266Y37167516D01*
X9834335Y37167516D01*
X9862592Y37167456D01*
X9862590Y37166660D01*
X9862680Y37166672D01*
X9862681Y37167447D01*
X9917436Y37167397D01*
X9917488Y37167397D01*
X9945990Y37167356D01*
X9946198Y37167356D01*
X9946267Y37167369D01*
X9946315Y37167371D01*
X9947830Y37167370D01*
X9954501Y37167363D01*
X9954718Y37167358D01*
X9954869Y37167343D01*
X10005996Y37167315D01*
X10010368Y37167313D01*
X10010407Y37167313D01*
X10038286Y37167287D01*
X10038434Y37167287D01*
X10038483Y37167296D01*
X10038507Y37167297D01*
X10040933Y37167296D01*
X10056834Y37167287D01*
X10056991Y37167283D01*
X10057094Y37167273D01*
X10106889Y37167258D01*
X10110745Y37167257D01*
X10110769Y37167257D01*
X10140585Y37167241D01*
X10140693Y37167241D01*
X10140728Y37167248D01*
X10140755Y37167249D01*
X10147271Y37167247D01*
X10169750Y37167240D01*
X10169842Y37167238D01*
X10169904Y37167232D01*
X10221251Y37167225D01*
X10224827Y37167224D01*
X10224840Y37167224D01*
X10253473Y37167216D01*
X10253534Y37167216D01*
X10253554Y37167220D01*
X10253565Y37167220D01*
X10259306Y37167219D01*
X10293753Y37167215D01*
X10293817Y37167213D01*
X10293859Y37167209D01*
X10346473Y37167207D01*
X10351484Y37167207D01*
X10377471Y37167203D01*
X10377508Y37167203D01*
X10377520Y37167206D01*
X10377527Y37167206D01*
X10388347Y37167205D01*
X10429462Y37167203D01*
X10429487Y37167202D01*
X10429506Y37167201D01*
X10496916Y37167201D01*
X10513164Y37167200D01*
X10513173Y37167200D01*
X10513176Y37167201D01*
X10548337Y37167200D01*
X10548350Y37167200D01*
X10548361Y37167199D01*
X10548393Y37167199D01*
X10626758Y37167200D01*
X10632033Y37167200D01*
X10693868Y37167201D01*
X10693900Y37167200D01*
X10693922Y37167198D01*
X10693987Y37167198D01*
X10745784Y37167202D01*
X10777583Y37167202D01*
X10777592Y37167204D01*
X10782011Y37167204D01*
X10827251Y37167207D01*
X10827306Y37167206D01*
X10827345Y37167202D01*
X10827462Y37167202D01*
X10878902Y37167211D01*
X10885428Y37167211D01*
X10910990Y37167213D01*
X10911006Y37167216D01*
X10912718Y37167216D01*
X10949000Y37167223D01*
X10949112Y37167220D01*
X10949184Y37167213D01*
X10949401Y37167213D01*
X11003547Y37167232D01*
X11003565Y37167232D01*
X11009150Y37167233D01*
X11032807Y37167237D01*
X11032832Y37167242D01*
X11032843Y37167242D01*
X11034335Y37167243D01*
X11059702Y37167252D01*
X11059881Y37167248D01*
X11059997Y37167236D01*
X11060346Y37167236D01*
X11115016Y37167271D01*
X11115045Y37167271D01*
X11120503Y37167273D01*
X11143586Y37167281D01*
X11143626Y37167288D01*
X11143642Y37167289D01*
X11144655Y37167290D01*
X11159938Y37167300D01*
X11160174Y37167294D01*
X11160328Y37167279D01*
X11160789Y37167279D01*
X11213355Y37167334D01*
X11213396Y37167334D01*
X11218968Y37167337D01*
X11243884Y37167353D01*
X11243944Y37167364D01*
X11243964Y37167365D01*
X11244292Y37167365D01*
X11250177Y37167372D01*
X11250520Y37167364D01*
X11250743Y37167342D01*
X11251400Y37167343D01*
X11251402Y37167343D01*
X11305254Y37167428D01*
X11305309Y37167428D01*
X11311880Y37167435D01*
X11331361Y37167455D01*
X11331567Y37167450D01*
X11331801Y37167428D01*
X11386412Y37167556D01*
X11386481Y37167556D01*
X11389906Y37167562D01*
X11403376Y37167584D01*
X11403713Y37167576D01*
X11404069Y37167542D01*
X11405066Y37167545D01*
X11405082Y37167545D01*
X11434011Y37167643D01*
X11458699Y37167727D01*
X11458804Y37167693D01*
X11458804Y37167727D01*
X11458805Y37167727D01*
X11466933Y37167746D01*
X11467575Y37167732D01*
X11468124Y37167681D01*
X11469647Y37167688D01*
X11469660Y37167688D01*
X11522542Y37167941D01*
X11523779Y37167918D01*
X11524555Y37167847D01*
X11535473Y37167920D01*
X11571194Y37168159D01*
X11572911Y37168131D01*
X11573965Y37168037D01*
X11591615Y37168201D01*
X11607482Y37168348D01*
X11607662Y37168349D01*
X11613158Y37168400D01*
X11615529Y37168368D01*
X11616967Y37168246D01*
X11619414Y37168277D01*
X11619421Y37168277D01*
X11630923Y37168424D01*
X11648829Y37168653D01*
X11652240Y37168621D01*
X11654252Y37168460D01*
X11656704Y37168503D01*
X11656712Y37168503D01*
X11678662Y37168890D01*
X11682895Y37168876D01*
X11684078Y37168847D01*
X11686525Y37168667D01*
X11704458Y37169104D01*
X11709708Y37169000D01*
X11709709Y37169040D01*
X11712159Y37169003D01*
X11714611Y37168846D01*
X11726793Y37169258D01*
X11735262Y37169187D01*
X11739444Y37168976D01*
X11741897Y37169092D01*
X11741900Y37169092D01*
X11746956Y37169331D01*
X11755653Y37168789D01*
X11755667Y37169248D01*
X11759734Y37169122D01*
X11759736Y37169122D01*
X11762192Y37169046D01*
X11767357Y37169391D01*
X11777770Y37168989D01*
X11777770Y37169116D01*
X11784299Y37169098D01*
X11786752Y37169332D01*
X11789190Y37169444D01*
X11789235Y37168474D01*
X11789363Y37168446D01*
X11791898Y37168079D01*
X11791870Y37167888D01*
X11846480Y37155734D01*
X11887639Y37109134D01*
X11895950Y37069096D01*
X11895950Y33359581D01*
X13594100Y33359581D01*
X13653231Y33340368D01*
X13689776Y33290068D01*
X13694700Y33258981D01*
X13694700Y10236370D01*
X13675487Y10177239D01*
X13665235Y10165235D01*
X12379587Y8879587D01*
X12324189Y8851361D01*
X12262781Y8861087D01*
X12254771Y8865641D01*
X12232668Y8879587D01*
X12146747Y8933799D01*
X11949534Y9012480D01*
X11741284Y9053903D01*
X11635129Y9055292D01*
X11533587Y9056622D01*
X11533583Y9056622D01*
X11528973Y9056682D01*
X11524428Y9055901D01*
X11324258Y9021506D01*
X11324253Y9021505D01*
X11319710Y9020724D01*
X11220108Y8983979D01*
X11124836Y8948832D01*
X11124834Y8948831D01*
X11120505Y8947234D01*
X11116537Y8944873D01*
X10941992Y8841030D01*
X10941987Y8841026D01*
X10938028Y8838671D01*
X10934562Y8835632D01*
X10934560Y8835630D01*
X10781857Y8701714D01*
X10781854Y8701711D01*
X10778390Y8698673D01*
X10646938Y8531927D01*
X10548075Y8344018D01*
X10485110Y8141239D01*
X10460154Y7930382D01*
X10474041Y7718507D01*
X10526306Y7512711D01*
X10528239Y7508519D01*
X10529776Y7504178D01*
X10527866Y7503502D01*
X10534247Y7449597D01*
X10506715Y7398086D01*
X9976682Y6868053D01*
X9967828Y6860185D01*
X9941304Y6839275D01*
X9937026Y6833085D01*
X9909101Y6792681D01*
X9907302Y6790163D01*
X9873630Y6744574D01*
X9871334Y6738037D01*
X9867395Y6732337D01*
X9865128Y6725168D01*
X9850315Y6678333D01*
X9849315Y6675337D01*
X9830558Y6621924D01*
X9830321Y6615893D01*
X9829925Y6613859D01*
X9828196Y6608393D01*
X9827697Y6602052D01*
X9827697Y6551078D01*
X9827619Y6547128D01*
X9826423Y6516682D01*
X9825454Y6492029D01*
X9827197Y6485454D01*
X9827697Y6476367D01*
X9827697Y5080732D01*
X9808484Y5021601D01*
X9798232Y5009597D01*
X8050400Y3261765D01*
X7995002Y3233539D01*
X7979265Y3232300D01*
X4720735Y3232300D01*
X4661604Y3251513D01*
X4649600Y3261765D01*
X3661765Y4249600D01*
X3633539Y4304998D01*
X3632300Y4320735D01*
X3632300Y5348996D01*
X6335233Y5348996D01*
X6335241Y5348949D01*
X6340853Y5342634D01*
X6479106Y5250256D01*
X6487177Y5245874D01*
X6660908Y5171232D01*
X6669633Y5168397D01*
X6854064Y5126665D01*
X6863169Y5125467D01*
X7052103Y5118043D01*
X7061274Y5118523D01*
X7248405Y5145656D01*
X7257334Y5147800D01*
X7436386Y5208580D01*
X7444770Y5212313D01*
X7609748Y5304705D01*
X7617315Y5309906D01*
X7655545Y5341701D01*
X7662778Y5353165D01*
X7662589Y5356044D01*
X7660554Y5359133D01*
X7011268Y6008420D01*
X6999189Y6014575D01*
X6994077Y6013765D01*
X6341387Y5361074D01*
X6335233Y5348996D01*
X3632300Y5348996D01*
X3632300Y6079265D01*
X3651513Y6138396D01*
X3661765Y6150400D01*
X3735127Y6223762D01*
X5917050Y6223762D01*
X5929417Y6035078D01*
X5930851Y6026021D01*
X5977396Y5842751D01*
X5980465Y5834086D01*
X6059622Y5662382D01*
X6064219Y5654420D01*
X6141935Y5544454D01*
X6152794Y5536345D01*
X6153553Y5536335D01*
X6159786Y5540099D01*
X6808420Y6188732D01*
X6813748Y6199189D01*
X7185425Y6199189D01*
X7186235Y6194077D01*
X7836841Y5543472D01*
X7848919Y5537318D01*
X7851769Y5537770D01*
X7854657Y5540077D01*
X7890094Y5582685D01*
X7895295Y5590252D01*
X7987687Y5755230D01*
X7991420Y5763614D01*
X8052200Y5942666D01*
X8054344Y5951595D01*
X8081713Y6140356D01*
X8082215Y6146247D01*
X8083546Y6197044D01*
X8083352Y6202949D01*
X8065900Y6392887D01*
X8064227Y6401909D01*
X8012900Y6583899D01*
X8009609Y6592472D01*
X7925983Y6762049D01*
X7921177Y6769891D01*
X7857619Y6855007D01*
X7846551Y6862829D01*
X7845080Y6862810D01*
X7839904Y6859591D01*
X7191580Y6211268D01*
X7185425Y6199189D01*
X6813748Y6199189D01*
X6814575Y6200811D01*
X6813765Y6205923D01*
X6163434Y6856253D01*
X6151356Y6862407D01*
X6149203Y6862066D01*
X6145414Y6858956D01*
X6094051Y6793803D01*
X6089051Y6786104D01*
X6001009Y6618764D01*
X5997496Y6610282D01*
X5941424Y6429700D01*
X5939516Y6420723D01*
X5917290Y6232948D01*
X5917050Y6223762D01*
X3735127Y6223762D01*
X4559130Y7047765D01*
X6336455Y7047765D01*
X6336784Y7044192D01*
X6338177Y7042136D01*
X6988732Y6391580D01*
X7000811Y6385425D01*
X7005923Y6386235D01*
X7658645Y7038958D01*
X7664799Y7051036D01*
X7664128Y7055271D01*
X7663367Y7056277D01*
X7663051Y7056569D01*
X7655773Y7062154D01*
X7495856Y7163053D01*
X7487669Y7167225D01*
X7312052Y7237289D01*
X7303241Y7239899D01*
X7117793Y7276787D01*
X7108655Y7277747D01*
X6919593Y7280223D01*
X6910436Y7279502D01*
X6724086Y7247481D01*
X6715207Y7245101D01*
X6537819Y7179660D01*
X6529520Y7175701D01*
X6367024Y7079026D01*
X6359599Y7073632D01*
X6343385Y7059412D01*
X6336455Y7047765D01*
X4559130Y7047765D01*
X7981747Y10470382D01*
X10460154Y10470382D01*
X10474041Y10258507D01*
X10475173Y10254049D01*
X10475174Y10254044D01*
X10516729Y10090421D01*
X10526306Y10052711D01*
X10615200Y9859886D01*
X10737745Y9686489D01*
X10889837Y9538327D01*
X10893670Y9535766D01*
X10893671Y9535765D01*
X11062547Y9422925D01*
X11062551Y9422923D01*
X11066382Y9420363D01*
X11261468Y9336548D01*
X11468562Y9289687D01*
X11574645Y9285519D01*
X11676119Y9281532D01*
X11676120Y9281532D01*
X11680728Y9281351D01*
X11685285Y9282012D01*
X11685290Y9282012D01*
X11886298Y9311157D01*
X11886304Y9311158D01*
X11890860Y9311819D01*
X11895223Y9313300D01*
X11895227Y9313301D01*
X12087558Y9378589D01*
X12091921Y9380070D01*
X12277177Y9483818D01*
X12339637Y9535765D01*
X12436878Y9616640D01*
X12440425Y9619590D01*
X12478770Y9665695D01*
X12573249Y9779293D01*
X12573251Y9779295D01*
X12576197Y9782838D01*
X12679945Y9968094D01*
X12710187Y10057183D01*
X12746714Y10164788D01*
X12746715Y10164792D01*
X12748196Y10169155D01*
X12748857Y10173711D01*
X12748858Y10173717D01*
X12778239Y10376355D01*
X12778239Y10376357D01*
X12778664Y10379287D01*
X12780254Y10440010D01*
X12771559Y10534641D01*
X12761248Y10646861D01*
X12761247Y10646866D01*
X12760826Y10651449D01*
X12703191Y10855806D01*
X12691450Y10879615D01*
X12611323Y11042096D01*
X12611321Y11042099D01*
X12609280Y11046238D01*
X12541015Y11137656D01*
X12485001Y11212669D01*
X12484996Y11212674D01*
X12482238Y11216368D01*
X12326320Y11360497D01*
X12322424Y11362955D01*
X12322419Y11362959D01*
X12236534Y11417148D01*
X12146747Y11473799D01*
X11949534Y11552480D01*
X11741284Y11593903D01*
X11635128Y11595293D01*
X11533587Y11596622D01*
X11533583Y11596622D01*
X11528973Y11596682D01*
X11524428Y11595901D01*
X11324258Y11561506D01*
X11324253Y11561505D01*
X11319710Y11560724D01*
X11220107Y11523979D01*
X11124836Y11488832D01*
X11124834Y11488831D01*
X11120505Y11487234D01*
X11112279Y11482340D01*
X10941992Y11381030D01*
X10941987Y11381026D01*
X10938028Y11378671D01*
X10934562Y11375632D01*
X10934560Y11375630D01*
X10781857Y11241714D01*
X10781854Y11241711D01*
X10778390Y11238673D01*
X10646938Y11071927D01*
X10548075Y10884018D01*
X10539315Y10855806D01*
X10504182Y10742659D01*
X10485110Y10681239D01*
X10460154Y10470382D01*
X7981747Y10470382D01*
X8726448Y11215083D01*
X8735302Y11222951D01*
X8755920Y11239205D01*
X8761826Y11243861D01*
X8794029Y11290455D01*
X8795828Y11292973D01*
X8829500Y11338562D01*
X8831796Y11345099D01*
X8835735Y11350799D01*
X8852831Y11404855D01*
X8853793Y11407738D01*
X8872572Y11461213D01*
X8872809Y11467245D01*
X8873204Y11469273D01*
X8874934Y11474743D01*
X8875433Y11481084D01*
X8875433Y11532059D01*
X8875511Y11536009D01*
X8877381Y11583588D01*
X8877381Y11583591D01*
X8877676Y11591107D01*
X8875933Y11597682D01*
X8875433Y11606769D01*
X8875433Y13010382D01*
X10460154Y13010382D01*
X10474041Y12798507D01*
X10475173Y12794049D01*
X10475174Y12794044D01*
X10496733Y12709155D01*
X10526306Y12592711D01*
X10615200Y12399886D01*
X10737745Y12226489D01*
X10889837Y12078327D01*
X10893670Y12075766D01*
X10893671Y12075765D01*
X11062547Y11962925D01*
X11062551Y11962923D01*
X11066382Y11960363D01*
X11261468Y11876548D01*
X11468562Y11829687D01*
X11574645Y11825519D01*
X11676119Y11821532D01*
X11676120Y11821532D01*
X11680728Y11821351D01*
X11685285Y11822012D01*
X11685290Y11822012D01*
X11886298Y11851157D01*
X11886304Y11851158D01*
X11890860Y11851819D01*
X11895223Y11853300D01*
X11895227Y11853301D01*
X12087558Y11918589D01*
X12091921Y11920070D01*
X12277177Y12023818D01*
X12339637Y12075765D01*
X12436878Y12156640D01*
X12440425Y12159590D01*
X12492499Y12222202D01*
X12573249Y12319293D01*
X12573251Y12319295D01*
X12576197Y12322838D01*
X12679945Y12508094D01*
X12748196Y12709155D01*
X12748857Y12713711D01*
X12748858Y12713717D01*
X12778239Y12916355D01*
X12778239Y12916357D01*
X12778664Y12919287D01*
X12780254Y12980010D01*
X12760826Y13191449D01*
X12703191Y13395806D01*
X12691450Y13419615D01*
X12611323Y13582096D01*
X12611321Y13582099D01*
X12609280Y13586238D01*
X12587394Y13615547D01*
X12485001Y13752669D01*
X12484996Y13752674D01*
X12482238Y13756368D01*
X12326320Y13900497D01*
X12322424Y13902955D01*
X12322419Y13902959D01*
X12229489Y13961593D01*
X12146747Y14013799D01*
X11949534Y14092480D01*
X11741284Y14133903D01*
X11635128Y14135293D01*
X11533587Y14136622D01*
X11533583Y14136622D01*
X11528973Y14136682D01*
X11524428Y14135901D01*
X11324258Y14101506D01*
X11324253Y14101505D01*
X11319710Y14100724D01*
X11220108Y14063979D01*
X11124836Y14028832D01*
X11124834Y14028831D01*
X11120505Y14027234D01*
X11116537Y14024873D01*
X10941992Y13921030D01*
X10941987Y13921026D01*
X10938028Y13918671D01*
X10934562Y13915632D01*
X10934560Y13915630D01*
X10781857Y13781714D01*
X10781854Y13781711D01*
X10778390Y13778673D01*
X10646938Y13611927D01*
X10548075Y13424018D01*
X10485110Y13221239D01*
X10460154Y13010382D01*
X8875433Y13010382D01*
X8875433Y14649932D01*
X10516006Y14649932D01*
X10516970Y14640149D01*
X10528809Y14580624D01*
X10536247Y14562665D01*
X10581376Y14495125D01*
X10595120Y14481381D01*
X10662662Y14436251D01*
X10680616Y14428814D01*
X10740136Y14416975D01*
X10749935Y14416010D01*
X11476572Y14416010D01*
X11489462Y14420198D01*
X11492505Y14424387D01*
X11492505Y14431944D01*
X11747505Y14431944D01*
X11751693Y14419054D01*
X11755882Y14416011D01*
X12490083Y14416011D01*
X12499866Y14416975D01*
X12559391Y14428814D01*
X12577350Y14436252D01*
X12644890Y14481381D01*
X12658634Y14495125D01*
X12703764Y14562667D01*
X12711201Y14580621D01*
X12723040Y14640141D01*
X12724005Y14649940D01*
X12724005Y15376577D01*
X12719817Y15389467D01*
X12715628Y15392510D01*
X11763438Y15392510D01*
X11750548Y15388322D01*
X11747505Y15384133D01*
X11747505Y14431944D01*
X11492505Y14431944D01*
X11492505Y15376577D01*
X11488317Y15389467D01*
X11484128Y15392510D01*
X10531939Y15392510D01*
X10519049Y15388322D01*
X10516006Y15384133D01*
X10516006Y14649932D01*
X8875433Y14649932D01*
X8875433Y15663443D01*
X10516005Y15663443D01*
X10520193Y15650553D01*
X10524382Y15647510D01*
X11476572Y15647510D01*
X11489462Y15651698D01*
X11492505Y15655887D01*
X11492505Y15663443D01*
X11747505Y15663443D01*
X11751693Y15650553D01*
X11755882Y15647510D01*
X12708071Y15647510D01*
X12720961Y15651698D01*
X12724004Y15655887D01*
X12724004Y16390088D01*
X12723040Y16399871D01*
X12711201Y16459396D01*
X12703763Y16477355D01*
X12658634Y16544895D01*
X12644890Y16558639D01*
X12577348Y16603769D01*
X12559394Y16611206D01*
X12499874Y16623045D01*
X12490075Y16624010D01*
X11763438Y16624010D01*
X11750548Y16619822D01*
X11747505Y16615633D01*
X11747505Y15663443D01*
X11492505Y15663443D01*
X11492505Y16608076D01*
X11488317Y16620966D01*
X11484128Y16624009D01*
X10749927Y16624009D01*
X10740144Y16623045D01*
X10680619Y16611206D01*
X10662660Y16603768D01*
X10595120Y16558639D01*
X10581376Y16544895D01*
X10536246Y16477353D01*
X10528809Y16459399D01*
X10516970Y16399879D01*
X10516005Y16390080D01*
X10516005Y15663443D01*
X8875433Y15663443D01*
X8875433Y18822398D01*
X8894646Y18881529D01*
X8904898Y18893533D01*
X9483315Y19471950D01*
X9492169Y19479818D01*
X9512787Y19496072D01*
X9518693Y19500728D01*
X9550896Y19547322D01*
X9552695Y19549840D01*
X9586367Y19595429D01*
X9588663Y19601967D01*
X9592602Y19607666D01*
X9609687Y19661687D01*
X9610668Y19664628D01*
X9626949Y19710986D01*
X9626949Y19710988D01*
X9629440Y19718080D01*
X9629677Y19724119D01*
X9630071Y19726141D01*
X9631801Y19731610D01*
X9632300Y19737951D01*
X9632300Y19788916D01*
X9632378Y19792865D01*
X9634248Y19840457D01*
X9634248Y19840459D01*
X9634543Y19847975D01*
X9632800Y19854548D01*
X9632300Y19863640D01*
X9632300Y25868366D01*
X9632997Y25880190D01*
X9636084Y25906269D01*
X9636084Y25906272D01*
X9636967Y25913733D01*
X9626795Y25969432D01*
X9626276Y25972547D01*
X9618974Y26021112D01*
X9617856Y26028549D01*
X9614857Y26034795D01*
X9613612Y26041611D01*
X9587493Y26091893D01*
X9586119Y26094644D01*
X9561586Y26145733D01*
X9557489Y26150164D01*
X9556326Y26151891D01*
X9553688Y26156970D01*
X9549558Y26161807D01*
X9513521Y26197844D01*
X9510783Y26200691D01*
X9478450Y26235669D01*
X9478448Y26235671D01*
X9473345Y26241191D01*
X9467467Y26244605D01*
X9460687Y26250678D01*
X7039587Y28671778D01*
X7010851Y28730827D01*
X6997570Y28840576D01*
X6997569Y28840578D01*
X6996841Y28846598D01*
X6974355Y28906107D01*
X6946789Y28979057D01*
X6946788Y28979058D01*
X6944644Y28984733D01*
X6861004Y29106430D01*
X6750750Y29204663D01*
X6745394Y29207499D01*
X6745391Y29207501D01*
X6625608Y29270922D01*
X6620246Y29273761D01*
X6501718Y29303533D01*
X6449049Y29336572D01*
X6425859Y29394260D01*
X6426667Y29415536D01*
X6428233Y29426339D01*
X6428234Y29426345D01*
X6428659Y29429277D01*
X6428736Y29432230D01*
X6428737Y29432238D01*
X6430172Y29487044D01*
X6430172Y29487051D01*
X6430249Y29490000D01*
X6410821Y29701439D01*
X6353186Y29905796D01*
X6341445Y29929605D01*
X6261318Y30092086D01*
X6261316Y30092089D01*
X6259275Y30096228D01*
X6237389Y30125537D01*
X6134996Y30262659D01*
X6134991Y30262664D01*
X6132233Y30266358D01*
X5976315Y30410487D01*
X5972419Y30412945D01*
X5972414Y30412949D01*
X5886529Y30467138D01*
X5796742Y30523789D01*
X5599529Y30602470D01*
X5391279Y30643893D01*
X5285124Y30645282D01*
X5183582Y30646612D01*
X5183578Y30646612D01*
X5178968Y30646672D01*
X5174423Y30645891D01*
X4974253Y30611496D01*
X4974248Y30611495D01*
X4969705Y30610714D01*
X4870102Y30573969D01*
X4774831Y30538822D01*
X4774829Y30538821D01*
X4770500Y30537224D01*
X4766532Y30534863D01*
X4591987Y30431020D01*
X4591982Y30431016D01*
X4588023Y30428661D01*
X4584557Y30425622D01*
X4584555Y30425620D01*
X4431852Y30291704D01*
X4431849Y30291701D01*
X4428385Y30288663D01*
X4296933Y30121917D01*
X4198070Y29934008D01*
X4135105Y29731229D01*
X4110149Y29520372D01*
X4124036Y29308497D01*
X4125168Y29304039D01*
X4125169Y29304034D01*
X4146728Y29219145D01*
X4176301Y29102701D01*
X4265195Y28909876D01*
X4387740Y28736479D01*
X4391047Y28733257D01*
X4394040Y28729753D01*
X4392759Y28728659D01*
X4418545Y28679649D01*
X4409624Y28618118D01*
X4366240Y28573582D01*
X4319398Y28562011D01*
X4311023Y28562011D01*
X4251892Y28581224D01*
X4239888Y28591476D01*
X3840089Y28991275D01*
X3811863Y29046673D01*
X3815963Y29094745D01*
X3840242Y29166270D01*
X3856709Y29214778D01*
X3856710Y29214782D01*
X3858191Y29219145D01*
X3858852Y29223701D01*
X3858853Y29223707D01*
X3888234Y29426345D01*
X3888234Y29426347D01*
X3888659Y29429277D01*
X3890249Y29490000D01*
X3870821Y29701439D01*
X3813186Y29905796D01*
X3801445Y29929605D01*
X3721318Y30092086D01*
X3721316Y30092089D01*
X3719275Y30096228D01*
X3697389Y30125537D01*
X3594996Y30262659D01*
X3594991Y30262664D01*
X3592233Y30266358D01*
X3436315Y30410487D01*
X3432419Y30412945D01*
X3432414Y30412949D01*
X3346529Y30467138D01*
X3256742Y30523789D01*
X3059529Y30602470D01*
X2851279Y30643893D01*
X2745124Y30645282D01*
X2643582Y30646612D01*
X2643578Y30646612D01*
X2638968Y30646672D01*
X2634423Y30645891D01*
X2434253Y30611496D01*
X2434248Y30611495D01*
X2429705Y30610714D01*
X2330102Y30573969D01*
X2234831Y30538822D01*
X2234829Y30538821D01*
X2230500Y30537224D01*
X2226532Y30534863D01*
X2051987Y30431020D01*
X2051982Y30431016D01*
X2048023Y30428661D01*
X2044557Y30425622D01*
X2044555Y30425620D01*
X1891852Y30291704D01*
X1891849Y30291701D01*
X1888385Y30288663D01*
X1756933Y30121917D01*
X1658070Y29934008D01*
X1595105Y29731229D01*
X1570149Y29520372D01*
X1584036Y29308497D01*
X1585168Y29304039D01*
X1585169Y29304034D01*
X1606728Y29219145D01*
X1636301Y29102701D01*
X1725195Y28909876D01*
X1847740Y28736479D01*
X1999832Y28588317D01*
X2003665Y28585756D01*
X2003666Y28585755D01*
X2172542Y28472915D01*
X2172546Y28472913D01*
X2176377Y28470353D01*
X2371463Y28386538D01*
X2578557Y28339677D01*
X2684640Y28335509D01*
X2786114Y28331522D01*
X2786115Y28331522D01*
X2790723Y28331341D01*
X2795280Y28332002D01*
X2795285Y28332002D01*
X2996293Y28361147D01*
X2996299Y28361148D01*
X3000855Y28361809D01*
X3005218Y28363290D01*
X3005222Y28363291D01*
X3125253Y28404036D01*
X3187422Y28404850D01*
X3228725Y28379910D01*
X3762239Y27846396D01*
X3770107Y27837542D01*
X3791017Y27811018D01*
X3797207Y27806740D01*
X3837611Y27778815D01*
X3840129Y27777016D01*
X3885718Y27743344D01*
X3892255Y27741048D01*
X3897955Y27737109D01*
X3935000Y27725393D01*
X3951959Y27720029D01*
X3954955Y27719029D01*
X4001274Y27702763D01*
X4001275Y27702763D01*
X4008368Y27700272D01*
X4014401Y27700035D01*
X4016429Y27699640D01*
X4021899Y27697910D01*
X4028240Y27697411D01*
X4079230Y27697411D01*
X4083179Y27697333D01*
X4130744Y27695464D01*
X4130747Y27695464D01*
X4138263Y27695169D01*
X4144835Y27696912D01*
X4153917Y27697411D01*
X4191095Y27697411D01*
X4250226Y27678198D01*
X4286771Y27627898D01*
X4286771Y27565724D01*
X4280125Y27549970D01*
X4198070Y27394008D01*
X4135105Y27191229D01*
X4110149Y26980372D01*
X4124036Y26768497D01*
X4125168Y26764039D01*
X4125169Y26764034D01*
X4142515Y26695734D01*
X4176301Y26562701D01*
X4178234Y26558508D01*
X4190759Y26531339D01*
X4200000Y26489222D01*
X4200000Y26141670D01*
X4180787Y26082539D01*
X4170535Y26070535D01*
X3629465Y25529465D01*
X3574067Y25501239D01*
X3558330Y25500000D01*
X3135176Y25500000D01*
X3097900Y25507161D01*
X3059529Y25522470D01*
X2851279Y25563893D01*
X2745124Y25565282D01*
X2643582Y25566612D01*
X2643578Y25566612D01*
X2638968Y25566672D01*
X2634423Y25565891D01*
X2434253Y25531496D01*
X2434248Y25531495D01*
X2429705Y25530714D01*
X2402726Y25520761D01*
X2363305Y25506218D01*
X2328486Y25500000D01*
X941670Y25500000D01*
X882539Y25519213D01*
X870535Y25529465D01*
X334765Y26065235D01*
X306539Y26120633D01*
X305300Y26136370D01*
X305300Y26812945D01*
X1632535Y26812945D01*
X1634619Y26781149D01*
X1636053Y26772095D01*
X1683729Y26584370D01*
X1686798Y26575705D01*
X1767879Y26399828D01*
X1772476Y26391866D01*
X1884251Y26233707D01*
X1890224Y26226714D01*
X2028946Y26091577D01*
X2036092Y26085790D01*
X2197125Y25978191D01*
X2205200Y25973808D01*
X2383145Y25897356D01*
X2391884Y25894517D01*
X2580780Y25851774D01*
X2587318Y25850913D01*
X2599624Y25854383D01*
X2602278Y25857750D01*
X2602500Y25858991D01*
X2602500Y25868795D01*
X2857500Y25868795D01*
X2861688Y25855905D01*
X2862878Y25855041D01*
X2868953Y25854523D01*
X2984266Y25871242D01*
X2993195Y25873386D01*
X3176597Y25935644D01*
X3184982Y25939377D01*
X3353967Y26034013D01*
X3361537Y26039216D01*
X3510444Y26163059D01*
X3516941Y26169556D01*
X3640784Y26318463D01*
X3645987Y26326033D01*
X3740623Y26495018D01*
X3744356Y26503403D01*
X3806614Y26686805D01*
X3808758Y26695734D01*
X3824852Y26806732D01*
X3822557Y26820089D01*
X3821503Y26821115D01*
X3815563Y26822500D01*
X2873433Y26822500D01*
X2860543Y26818312D01*
X2857500Y26814123D01*
X2857500Y25868795D01*
X2602500Y25868795D01*
X2602500Y26806567D01*
X2598312Y26819457D01*
X2594123Y26822500D01*
X1647842Y26822500D01*
X1634952Y26818312D01*
X1632843Y26815409D01*
X1632535Y26812945D01*
X305300Y26812945D01*
X305300Y27093323D01*
X1635178Y27093323D01*
X1637822Y27080030D01*
X1639421Y27078552D01*
X1644214Y27077500D01*
X2586567Y27077500D01*
X2599457Y27081688D01*
X2602500Y27085877D01*
X2602500Y27093433D01*
X2857500Y27093433D01*
X2861688Y27080543D01*
X2865877Y27077500D01*
X3811081Y27077500D01*
X3823971Y27081688D01*
X3825666Y27084021D01*
X3826077Y27087699D01*
X3820586Y27147462D01*
X3818913Y27156485D01*
X3766340Y27342897D01*
X3763049Y27351470D01*
X3677387Y27525176D01*
X3672592Y27533000D01*
X3556705Y27688191D01*
X3550560Y27695016D01*
X3408340Y27826483D01*
X3401051Y27832077D01*
X3237254Y27935424D01*
X3229067Y27939596D01*
X3049182Y28011362D01*
X3040371Y28013972D01*
X2873129Y28047238D01*
X2859667Y28045645D01*
X2859633Y28045614D01*
X2857500Y28037439D01*
X2857500Y27093433D01*
X2602500Y27093433D01*
X2602500Y28032418D01*
X2598312Y28045308D01*
X2597697Y28045755D01*
X2590437Y28046278D01*
X2447585Y28021732D01*
X2438713Y28019355D01*
X2257010Y27952321D01*
X2248711Y27948362D01*
X2082269Y27849340D01*
X2074837Y27843940D01*
X1929223Y27716240D01*
X1922902Y27709579D01*
X1802995Y27557478D01*
X1797995Y27549779D01*
X1707813Y27378372D01*
X1704300Y27369890D01*
X1646864Y27184918D01*
X1644957Y27175944D01*
X1635178Y27093323D01*
X305300Y27093323D01*
X305300Y32060372D01*
X1570149Y32060372D01*
X1584036Y31848497D01*
X1585168Y31844039D01*
X1585169Y31844034D01*
X1606728Y31759145D01*
X1636301Y31642701D01*
X1725195Y31449876D01*
X1847740Y31276479D01*
X1999832Y31128317D01*
X2003665Y31125756D01*
X2003666Y31125755D01*
X2172542Y31012915D01*
X2172546Y31012913D01*
X2176377Y31010353D01*
X2180616Y31008532D01*
X2361280Y30930913D01*
X2371463Y30926538D01*
X2578557Y30879677D01*
X2684640Y30875509D01*
X2786114Y30871522D01*
X2786115Y30871522D01*
X2790723Y30871341D01*
X2795280Y30872002D01*
X2795285Y30872002D01*
X2996293Y30901147D01*
X2996299Y30901148D01*
X3000855Y30901809D01*
X3005218Y30903290D01*
X3005222Y30903291D01*
X3197553Y30968579D01*
X3201916Y30970060D01*
X3387172Y31073808D01*
X3435514Y31114013D01*
X3546873Y31206630D01*
X3550420Y31209580D01*
X3583668Y31249556D01*
X3683244Y31369283D01*
X3683246Y31369285D01*
X3686192Y31372828D01*
X3789940Y31558084D01*
X3858191Y31759145D01*
X3858852Y31763701D01*
X3858853Y31763707D01*
X3877592Y31892945D01*
X4172535Y31892945D01*
X4174619Y31861149D01*
X4176053Y31852095D01*
X4223729Y31664370D01*
X4226798Y31655705D01*
X4307879Y31479828D01*
X4312476Y31471866D01*
X4424251Y31313707D01*
X4430224Y31306714D01*
X4568946Y31171577D01*
X4576092Y31165790D01*
X4737125Y31058191D01*
X4745200Y31053808D01*
X4923145Y30977356D01*
X4931884Y30974517D01*
X5120780Y30931774D01*
X5127318Y30930913D01*
X5139624Y30934383D01*
X5142278Y30937750D01*
X5142500Y30938991D01*
X5142500Y30948795D01*
X5397500Y30948795D01*
X5401688Y30935905D01*
X5402878Y30935041D01*
X5408953Y30934523D01*
X5524266Y30951242D01*
X5533195Y30953386D01*
X5716597Y31015644D01*
X5724982Y31019377D01*
X5893967Y31114013D01*
X5901537Y31119216D01*
X6050444Y31243059D01*
X6056941Y31249556D01*
X6180784Y31398463D01*
X6185987Y31406033D01*
X6280623Y31575018D01*
X6284356Y31583403D01*
X6346614Y31766805D01*
X6348758Y31775734D01*
X6364852Y31886732D01*
X6362557Y31900089D01*
X6361503Y31901115D01*
X6355563Y31902500D01*
X5413433Y31902500D01*
X5400543Y31898312D01*
X5397500Y31894123D01*
X5397500Y30948795D01*
X5142500Y30948795D01*
X5142500Y31886567D01*
X5138312Y31899457D01*
X5134123Y31902500D01*
X4187842Y31902500D01*
X4174952Y31898312D01*
X4172843Y31895409D01*
X4172535Y31892945D01*
X3877592Y31892945D01*
X3888234Y31966345D01*
X3888234Y31966347D01*
X3888659Y31969277D01*
X3890249Y32030000D01*
X3877080Y32173323D01*
X4175178Y32173323D01*
X4177822Y32160030D01*
X4179421Y32158552D01*
X4184214Y32157500D01*
X5126567Y32157500D01*
X5139457Y32161688D01*
X5142500Y32165877D01*
X5142500Y32173433D01*
X5397500Y32173433D01*
X5401688Y32160543D01*
X5405877Y32157500D01*
X6351081Y32157500D01*
X6363971Y32161688D01*
X6365666Y32164021D01*
X6366077Y32167699D01*
X6360586Y32227462D01*
X6358913Y32236485D01*
X6306340Y32422897D01*
X6303049Y32431470D01*
X6217387Y32605176D01*
X6212592Y32613000D01*
X6096705Y32768191D01*
X6090560Y32775016D01*
X5948340Y32906483D01*
X5941051Y32912077D01*
X5777254Y33015424D01*
X5769067Y33019596D01*
X5589182Y33091362D01*
X5580371Y33093972D01*
X5413129Y33127238D01*
X5399667Y33125645D01*
X5399633Y33125614D01*
X5397500Y33117439D01*
X5397500Y32173433D01*
X5142500Y32173433D01*
X5142500Y33112418D01*
X5138312Y33125308D01*
X5137697Y33125755D01*
X5130437Y33126278D01*
X4987585Y33101732D01*
X4978713Y33099355D01*
X4797010Y33032321D01*
X4788711Y33028362D01*
X4622269Y32929340D01*
X4614837Y32923940D01*
X4469223Y32796240D01*
X4462902Y32789579D01*
X4342995Y32637478D01*
X4337995Y32629779D01*
X4247813Y32458372D01*
X4244300Y32449890D01*
X4186864Y32264918D01*
X4184957Y32255944D01*
X4175178Y32173323D01*
X3877080Y32173323D01*
X3877070Y32173433D01*
X3871243Y32236851D01*
X3871242Y32236856D01*
X3870821Y32241439D01*
X3813186Y32445796D01*
X3801445Y32469605D01*
X3721318Y32632086D01*
X3721316Y32632089D01*
X3719275Y32636228D01*
X3620734Y32768191D01*
X3594996Y32802659D01*
X3594991Y32802664D01*
X3592233Y32806358D01*
X3436315Y32950487D01*
X3432419Y32952945D01*
X3432414Y32952949D01*
X3312890Y33028362D01*
X3256742Y33063789D01*
X3059529Y33142470D01*
X2851279Y33183893D01*
X2745123Y33185283D01*
X2643582Y33186612D01*
X2643578Y33186612D01*
X2638968Y33186672D01*
X2634423Y33185891D01*
X2434253Y33151496D01*
X2434248Y33151495D01*
X2429705Y33150714D01*
X2339508Y33117439D01*
X2234831Y33078822D01*
X2234829Y33078821D01*
X2230500Y33077224D01*
X2226532Y33074863D01*
X2051987Y32971020D01*
X2051982Y32971016D01*
X2048023Y32968661D01*
X2044557Y32965622D01*
X2044555Y32965620D01*
X1891852Y32831704D01*
X1891849Y32831701D01*
X1888385Y32828663D01*
X1756933Y32661917D01*
X1658070Y32474008D01*
X1595105Y32271229D01*
X1570149Y32060372D01*
X305300Y32060372D01*
X305300Y48570372D01*
X1570149Y48570372D01*
X1584036Y48358497D01*
X1585168Y48354039D01*
X1585169Y48354034D01*
X1606728Y48269145D01*
X1636301Y48152701D01*
X1725195Y47959876D01*
X1847740Y47786479D01*
X1999832Y47638317D01*
X2003665Y47635756D01*
X2003666Y47635755D01*
X2172542Y47522915D01*
X2172546Y47522913D01*
X2176377Y47520353D01*
X2371463Y47436538D01*
X2578557Y47389677D01*
X2684640Y47385509D01*
X2786114Y47381522D01*
X2786115Y47381522D01*
X2790723Y47381341D01*
X2795280Y47382002D01*
X2795285Y47382002D01*
X2996293Y47411147D01*
X2996299Y47411148D01*
X3000855Y47411809D01*
X3005218Y47413290D01*
X3005222Y47413291D01*
X3197553Y47478579D01*
X3201916Y47480060D01*
X3387172Y47583808D01*
X3449632Y47635755D01*
X3546873Y47716630D01*
X3550420Y47719580D01*
X3557120Y47727636D01*
X3683244Y47879283D01*
X3683246Y47879285D01*
X3686192Y47882828D01*
X3789940Y48068084D01*
X3858191Y48269145D01*
X3858852Y48273701D01*
X3858853Y48273707D01*
X3888234Y48476345D01*
X3888234Y48476347D01*
X3888659Y48479277D01*
X3890249Y48540000D01*
X3887458Y48570372D01*
X4110149Y48570372D01*
X4124036Y48358497D01*
X4125168Y48354039D01*
X4125169Y48354034D01*
X4146728Y48269145D01*
X4176301Y48152701D01*
X4265195Y47959876D01*
X4387740Y47786479D01*
X4539832Y47638317D01*
X4543665Y47635756D01*
X4543666Y47635755D01*
X4712542Y47522915D01*
X4712546Y47522913D01*
X4716377Y47520353D01*
X4911463Y47436538D01*
X5118557Y47389677D01*
X5224640Y47385509D01*
X5326114Y47381522D01*
X5326115Y47381522D01*
X5330723Y47381341D01*
X5335280Y47382002D01*
X5335285Y47382002D01*
X5536293Y47411147D01*
X5536299Y47411148D01*
X5540855Y47411809D01*
X5545218Y47413290D01*
X5545222Y47413291D01*
X5737553Y47478579D01*
X5741916Y47480060D01*
X5927172Y47583808D01*
X5989632Y47635755D01*
X6086873Y47716630D01*
X6090420Y47719580D01*
X6097120Y47727636D01*
X6223244Y47879283D01*
X6223246Y47879285D01*
X6226192Y47882828D01*
X6329940Y48068084D01*
X6398191Y48269145D01*
X6398852Y48273701D01*
X6398853Y48273707D01*
X6428234Y48476345D01*
X6428234Y48476347D01*
X6428659Y48479277D01*
X6430249Y48540000D01*
X6410821Y48751439D01*
X6353186Y48955796D01*
X6341445Y48979605D01*
X6261318Y49142086D01*
X6261316Y49142089D01*
X6259275Y49146228D01*
X6237389Y49175537D01*
X6134996Y49312659D01*
X6134991Y49312664D01*
X6132233Y49316358D01*
X5976315Y49460487D01*
X5972419Y49462945D01*
X5972414Y49462949D01*
X5886529Y49517138D01*
X5796742Y49573789D01*
X5599529Y49652470D01*
X5391279Y49693893D01*
X5285123Y49695283D01*
X5183582Y49696612D01*
X5183578Y49696612D01*
X5178968Y49696672D01*
X5174423Y49695891D01*
X4974253Y49661496D01*
X4974248Y49661495D01*
X4969705Y49660714D01*
X4870102Y49623969D01*
X4774831Y49588822D01*
X4774829Y49588821D01*
X4770500Y49587224D01*
X4766532Y49584863D01*
X4591987Y49481020D01*
X4591982Y49481016D01*
X4588023Y49478661D01*
X4584557Y49475622D01*
X4584555Y49475620D01*
X4431852Y49341704D01*
X4431849Y49341701D01*
X4428385Y49338663D01*
X4296933Y49171917D01*
X4198070Y48984008D01*
X4135105Y48781229D01*
X4110149Y48570372D01*
X3887458Y48570372D01*
X3870821Y48751439D01*
X3813186Y48955796D01*
X3801445Y48979605D01*
X3721318Y49142086D01*
X3721316Y49142089D01*
X3719275Y49146228D01*
X3697389Y49175537D01*
X3594996Y49312659D01*
X3594991Y49312664D01*
X3592233Y49316358D01*
X3436315Y49460487D01*
X3432419Y49462945D01*
X3432414Y49462949D01*
X3346529Y49517138D01*
X3256742Y49573789D01*
X3059529Y49652470D01*
X2851279Y49693893D01*
X2745123Y49695283D01*
X2643582Y49696612D01*
X2643578Y49696612D01*
X2638968Y49696672D01*
X2634423Y49695891D01*
X2434253Y49661496D01*
X2434248Y49661495D01*
X2429705Y49660714D01*
X2330102Y49623969D01*
X2234831Y49588822D01*
X2234829Y49588821D01*
X2230500Y49587224D01*
X2226532Y49584863D01*
X2051987Y49481020D01*
X2051982Y49481016D01*
X2048023Y49478661D01*
X2044557Y49475622D01*
X2044555Y49475620D01*
X1891852Y49341704D01*
X1891849Y49341701D01*
X1888385Y49338663D01*
X1756933Y49171917D01*
X1658070Y48984008D01*
X1595105Y48781229D01*
X1570149Y48570372D01*
X305300Y48570372D01*
X305300Y50942945D01*
X1632535Y50942945D01*
X1634619Y50911149D01*
X1636053Y50902095D01*
X1683729Y50714370D01*
X1686798Y50705705D01*
X1767879Y50529828D01*
X1772476Y50521866D01*
X1884251Y50363707D01*
X1890224Y50356714D01*
X2028946Y50221577D01*
X2036092Y50215790D01*
X2197125Y50108191D01*
X2205200Y50103808D01*
X2383145Y50027356D01*
X2391884Y50024517D01*
X2580780Y49981774D01*
X2587318Y49980913D01*
X2599624Y49984383D01*
X2602278Y49987750D01*
X2602500Y49988991D01*
X2602500Y49998795D01*
X2857500Y49998795D01*
X2861688Y49985905D01*
X2862878Y49985041D01*
X2868953Y49984523D01*
X2984266Y50001242D01*
X2993195Y50003386D01*
X3176597Y50065644D01*
X3184982Y50069377D01*
X3353967Y50164013D01*
X3361537Y50169216D01*
X3510444Y50293059D01*
X3516941Y50299556D01*
X3640784Y50448463D01*
X3645987Y50456033D01*
X3740623Y50625018D01*
X3744356Y50633403D01*
X3806614Y50816805D01*
X3808758Y50825734D01*
X3824852Y50936732D01*
X3823784Y50942945D01*
X4172535Y50942945D01*
X4174619Y50911149D01*
X4176053Y50902095D01*
X4223729Y50714370D01*
X4226798Y50705705D01*
X4307879Y50529828D01*
X4312476Y50521866D01*
X4424251Y50363707D01*
X4430224Y50356714D01*
X4568946Y50221577D01*
X4576092Y50215790D01*
X4737125Y50108191D01*
X4745200Y50103808D01*
X4923145Y50027356D01*
X4931884Y50024517D01*
X5120780Y49981774D01*
X5127318Y49980913D01*
X5139624Y49984383D01*
X5142278Y49987750D01*
X5142500Y49988991D01*
X5142500Y49998795D01*
X5397500Y49998795D01*
X5401688Y49985905D01*
X5402878Y49985041D01*
X5408953Y49984523D01*
X5524266Y50001242D01*
X5533195Y50003386D01*
X5716597Y50065644D01*
X5724982Y50069377D01*
X5893967Y50164013D01*
X5901537Y50169216D01*
X6050444Y50293059D01*
X6056941Y50299556D01*
X6180784Y50448463D01*
X6185987Y50456033D01*
X6280623Y50625018D01*
X6284356Y50633403D01*
X6346614Y50816805D01*
X6348758Y50825734D01*
X6364852Y50936732D01*
X6362557Y50950089D01*
X6361503Y50951115D01*
X6355563Y50952500D01*
X5413433Y50952500D01*
X5400543Y50948312D01*
X5397500Y50944123D01*
X5397500Y49998795D01*
X5142500Y49998795D01*
X5142500Y50936567D01*
X5138312Y50949457D01*
X5134123Y50952500D01*
X4187842Y50952500D01*
X4174952Y50948312D01*
X4172843Y50945409D01*
X4172535Y50942945D01*
X3823784Y50942945D01*
X3822557Y50950089D01*
X3821503Y50951115D01*
X3815563Y50952500D01*
X2873433Y50952500D01*
X2860543Y50948312D01*
X2857500Y50944123D01*
X2857500Y49998795D01*
X2602500Y49998795D01*
X2602500Y50936567D01*
X2598312Y50949457D01*
X2594123Y50952500D01*
X1647842Y50952500D01*
X1634952Y50948312D01*
X1632843Y50945409D01*
X1632535Y50942945D01*
X305300Y50942945D01*
X305300Y51223323D01*
X1635178Y51223323D01*
X1637822Y51210030D01*
X1639421Y51208552D01*
X1644214Y51207500D01*
X2586567Y51207500D01*
X2599457Y51211688D01*
X2602500Y51215877D01*
X2602500Y51223433D01*
X2857500Y51223433D01*
X2861688Y51210543D01*
X2865877Y51207500D01*
X3811081Y51207500D01*
X3823971Y51211688D01*
X3825666Y51214021D01*
X3826077Y51217699D01*
X3825560Y51223323D01*
X4175178Y51223323D01*
X4177822Y51210030D01*
X4179421Y51208552D01*
X4184214Y51207500D01*
X5126567Y51207500D01*
X5139457Y51211688D01*
X5142500Y51215877D01*
X5142500Y51223433D01*
X5397500Y51223433D01*
X5401688Y51210543D01*
X5405877Y51207500D01*
X6351081Y51207500D01*
X6363971Y51211688D01*
X6365666Y51214021D01*
X6366077Y51217699D01*
X6360586Y51277462D01*
X6358913Y51286485D01*
X6306340Y51472897D01*
X6303049Y51481470D01*
X6217387Y51655176D01*
X6212592Y51663000D01*
X6096705Y51818191D01*
X6090560Y51825016D01*
X5948340Y51956483D01*
X5941051Y51962077D01*
X5777254Y52065424D01*
X5769067Y52069596D01*
X5589182Y52141362D01*
X5580371Y52143972D01*
X5413129Y52177238D01*
X5399667Y52175645D01*
X5399633Y52175614D01*
X5397500Y52167439D01*
X5397500Y51223433D01*
X5142500Y51223433D01*
X5142500Y52162418D01*
X5138312Y52175308D01*
X5137697Y52175755D01*
X5130437Y52176278D01*
X4987585Y52151732D01*
X4978713Y52149355D01*
X4797010Y52082321D01*
X4788711Y52078362D01*
X4622269Y51979340D01*
X4614837Y51973940D01*
X4469223Y51846240D01*
X4462902Y51839579D01*
X4342995Y51687478D01*
X4337995Y51679779D01*
X4247813Y51508372D01*
X4244300Y51499890D01*
X4186864Y51314918D01*
X4184957Y51305944D01*
X4175178Y51223323D01*
X3825560Y51223323D01*
X3820586Y51277462D01*
X3818913Y51286485D01*
X3766340Y51472897D01*
X3763049Y51481470D01*
X3677387Y51655176D01*
X3672592Y51663000D01*
X3556705Y51818191D01*
X3550560Y51825016D01*
X3408340Y51956483D01*
X3401051Y51962077D01*
X3237254Y52065424D01*
X3229067Y52069596D01*
X3049182Y52141362D01*
X3040371Y52143972D01*
X2873129Y52177238D01*
X2859667Y52175645D01*
X2859633Y52175614D01*
X2857500Y52167439D01*
X2857500Y51223433D01*
X2602500Y51223433D01*
X2602500Y52162418D01*
X2598312Y52175308D01*
X2597697Y52175755D01*
X2590437Y52176278D01*
X2447585Y52151732D01*
X2438713Y52149355D01*
X2257010Y52082321D01*
X2248711Y52078362D01*
X2082269Y51979340D01*
X2074837Y51973940D01*
X1929223Y51846240D01*
X1922902Y51839579D01*
X1802995Y51687478D01*
X1797995Y51679779D01*
X1707813Y51508372D01*
X1704300Y51499890D01*
X1646864Y51314918D01*
X1644957Y51305944D01*
X1635178Y51223323D01*
X305300Y51223323D01*
X305300Y53482945D01*
X1632535Y53482945D01*
X1634619Y53451149D01*
X1636053Y53442095D01*
X1683729Y53254370D01*
X1686798Y53245705D01*
X1767879Y53069828D01*
X1772476Y53061866D01*
X1884251Y52903707D01*
X1890224Y52896714D01*
X2028946Y52761577D01*
X2036092Y52755790D01*
X2197125Y52648191D01*
X2205200Y52643808D01*
X2383145Y52567356D01*
X2391884Y52564517D01*
X2580780Y52521774D01*
X2587318Y52520913D01*
X2599624Y52524383D01*
X2602278Y52527750D01*
X2602500Y52528991D01*
X2602500Y52538795D01*
X2857500Y52538795D01*
X2861688Y52525905D01*
X2862878Y52525041D01*
X2868953Y52524523D01*
X2984266Y52541242D01*
X2993195Y52543386D01*
X3176597Y52605644D01*
X3184982Y52609377D01*
X3353967Y52704013D01*
X3361537Y52709216D01*
X3510444Y52833059D01*
X3516941Y52839556D01*
X3640784Y52988463D01*
X3645987Y52996033D01*
X3740623Y53165018D01*
X3744356Y53173403D01*
X3806614Y53356805D01*
X3808758Y53365734D01*
X3824852Y53476732D01*
X3823784Y53482945D01*
X4172535Y53482945D01*
X4174619Y53451149D01*
X4176053Y53442095D01*
X4223729Y53254370D01*
X4226798Y53245705D01*
X4307879Y53069828D01*
X4312476Y53061866D01*
X4424251Y52903707D01*
X4430224Y52896714D01*
X4568946Y52761577D01*
X4576092Y52755790D01*
X4737125Y52648191D01*
X4745200Y52643808D01*
X4923145Y52567356D01*
X4931884Y52564517D01*
X5120780Y52521774D01*
X5127318Y52520913D01*
X5139624Y52524383D01*
X5142278Y52527750D01*
X5142500Y52528991D01*
X5142500Y52538795D01*
X5397500Y52538795D01*
X5401688Y52525905D01*
X5402878Y52525041D01*
X5408953Y52524523D01*
X5524266Y52541242D01*
X5533195Y52543386D01*
X5716597Y52605644D01*
X5724982Y52609377D01*
X5893967Y52704013D01*
X5901537Y52709216D01*
X6050444Y52833059D01*
X6056941Y52839556D01*
X6180784Y52988463D01*
X6185987Y52996033D01*
X6280623Y53165018D01*
X6284356Y53173403D01*
X6346614Y53356805D01*
X6348758Y53365734D01*
X6364852Y53476732D01*
X6362557Y53490089D01*
X6361503Y53491115D01*
X6355563Y53492500D01*
X5413433Y53492500D01*
X5400543Y53488312D01*
X5397500Y53484123D01*
X5397500Y52538795D01*
X5142500Y52538795D01*
X5142500Y53476567D01*
X5138312Y53489457D01*
X5134123Y53492500D01*
X4187842Y53492500D01*
X4174952Y53488312D01*
X4172843Y53485409D01*
X4172535Y53482945D01*
X3823784Y53482945D01*
X3822557Y53490089D01*
X3821503Y53491115D01*
X3815563Y53492500D01*
X2873433Y53492500D01*
X2860543Y53488312D01*
X2857500Y53484123D01*
X2857500Y52538795D01*
X2602500Y52538795D01*
X2602500Y53476567D01*
X2598312Y53489457D01*
X2594123Y53492500D01*
X1647842Y53492500D01*
X1634952Y53488312D01*
X1632843Y53485409D01*
X1632535Y53482945D01*
X305300Y53482945D01*
X305300Y53763323D01*
X1635178Y53763323D01*
X1637822Y53750030D01*
X1639421Y53748552D01*
X1644214Y53747500D01*
X2586567Y53747500D01*
X2599457Y53751688D01*
X2602500Y53755877D01*
X2602500Y53763433D01*
X2857500Y53763433D01*
X2861688Y53750543D01*
X2865877Y53747500D01*
X3811081Y53747500D01*
X3823971Y53751688D01*
X3825666Y53754021D01*
X3826077Y53757699D01*
X3825560Y53763323D01*
X4175178Y53763323D01*
X4177822Y53750030D01*
X4179421Y53748552D01*
X4184214Y53747500D01*
X5126567Y53747500D01*
X5139457Y53751688D01*
X5142500Y53755877D01*
X5142500Y53763433D01*
X5397500Y53763433D01*
X5401688Y53750543D01*
X5405877Y53747500D01*
X6351081Y53747500D01*
X6363971Y53751688D01*
X6365666Y53754021D01*
X6366077Y53757699D01*
X6360586Y53817462D01*
X6358913Y53826485D01*
X6306340Y54012897D01*
X6303049Y54021470D01*
X6217387Y54195176D01*
X6212592Y54203000D01*
X6096705Y54358191D01*
X6090560Y54365016D01*
X5948340Y54496483D01*
X5941051Y54502077D01*
X5777254Y54605424D01*
X5769067Y54609596D01*
X5589182Y54681362D01*
X5580371Y54683972D01*
X5413129Y54717238D01*
X5399667Y54715645D01*
X5399633Y54715614D01*
X5397500Y54707439D01*
X5397500Y53763433D01*
X5142500Y53763433D01*
X5142500Y54702418D01*
X5138312Y54715308D01*
X5137697Y54715755D01*
X5130437Y54716278D01*
X4987585Y54691732D01*
X4978713Y54689355D01*
X4797010Y54622321D01*
X4788711Y54618362D01*
X4622269Y54519340D01*
X4614837Y54513940D01*
X4469223Y54386240D01*
X4462902Y54379579D01*
X4342995Y54227478D01*
X4337995Y54219779D01*
X4247813Y54048372D01*
X4244300Y54039890D01*
X4186864Y53854918D01*
X4184957Y53845944D01*
X4175178Y53763323D01*
X3825560Y53763323D01*
X3820586Y53817462D01*
X3818913Y53826485D01*
X3766340Y54012897D01*
X3763049Y54021470D01*
X3677387Y54195176D01*
X3672592Y54203000D01*
X3556705Y54358191D01*
X3550560Y54365016D01*
X3408340Y54496483D01*
X3401051Y54502077D01*
X3237254Y54605424D01*
X3229067Y54609596D01*
X3049182Y54681362D01*
X3040371Y54683972D01*
X2873129Y54717238D01*
X2859667Y54715645D01*
X2859633Y54715614D01*
X2857500Y54707439D01*
X2857500Y53763433D01*
X2602500Y53763433D01*
X2602500Y54702418D01*
X2598312Y54715308D01*
X2597697Y54715755D01*
X2590437Y54716278D01*
X2447585Y54691732D01*
X2438713Y54689355D01*
X2257010Y54622321D01*
X2248711Y54618362D01*
X2082269Y54519340D01*
X2074837Y54513940D01*
X1929223Y54386240D01*
X1922902Y54379579D01*
X1802995Y54227478D01*
X1797995Y54219779D01*
X1707813Y54048372D01*
X1704300Y54039890D01*
X1646864Y53854918D01*
X1644957Y53845944D01*
X1635178Y53763323D01*
X305300Y53763323D01*
X305300Y56190372D01*
X1570149Y56190372D01*
X1584036Y55978497D01*
X1585168Y55974039D01*
X1585169Y55974034D01*
X1606728Y55889145D01*
X1636301Y55772701D01*
X1725195Y55579876D01*
X1847740Y55406479D01*
X1999832Y55258317D01*
X2003665Y55255756D01*
X2003666Y55255755D01*
X2172542Y55142915D01*
X2172546Y55142913D01*
X2176377Y55140353D01*
X2371463Y55056538D01*
X2578557Y55009677D01*
X2684640Y55005509D01*
X2786114Y55001522D01*
X2786115Y55001522D01*
X2790723Y55001341D01*
X2795280Y55002002D01*
X2795285Y55002002D01*
X2996293Y55031147D01*
X2996299Y55031148D01*
X3000855Y55031809D01*
X3005218Y55033290D01*
X3005222Y55033291D01*
X3180467Y55092779D01*
X3201916Y55100060D01*
X3387172Y55203808D01*
X3395808Y55210990D01*
X3546873Y55336630D01*
X3550420Y55339580D01*
X3561249Y55352601D01*
X3683244Y55499283D01*
X3683246Y55499285D01*
X3686192Y55502828D01*
X3789940Y55688084D01*
X3858191Y55889145D01*
X3858852Y55893701D01*
X3858853Y55893707D01*
X3888234Y56096345D01*
X3888234Y56096347D01*
X3888659Y56099277D01*
X3890249Y56160000D01*
X3887458Y56190372D01*
X4110149Y56190372D01*
X4124036Y55978497D01*
X4125168Y55974039D01*
X4125169Y55974034D01*
X4146728Y55889145D01*
X4176301Y55772701D01*
X4265195Y55579876D01*
X4387740Y55406479D01*
X4539832Y55258317D01*
X4543665Y55255756D01*
X4543666Y55255755D01*
X4712542Y55142915D01*
X4712546Y55142913D01*
X4716377Y55140353D01*
X4911463Y55056538D01*
X5118557Y55009677D01*
X5224640Y55005509D01*
X5326114Y55001522D01*
X5326115Y55001522D01*
X5330723Y55001341D01*
X5335280Y55002002D01*
X5335285Y55002002D01*
X5365866Y55006436D01*
X10385453Y55006436D01*
X10401657Y54859660D01*
X10452404Y54720986D01*
X10455790Y54715947D01*
X10530059Y54605424D01*
X10534765Y54598420D01*
X10643985Y54499038D01*
X10649312Y54496146D01*
X10649313Y54496145D01*
X10669147Y54485376D01*
X10773758Y54428577D01*
X10779628Y54427037D01*
X10910725Y54392644D01*
X10910726Y54392644D01*
X10916592Y54391105D01*
X10985717Y54390019D01*
X11058177Y54388881D01*
X11058179Y54388881D01*
X11064241Y54388786D01*
X11070152Y54390140D01*
X11070154Y54390140D01*
X11202272Y54420399D01*
X11202275Y54420400D01*
X11208182Y54421753D01*
X11227508Y54431473D01*
X11334685Y54485376D01*
X11334688Y54485378D01*
X11340104Y54488102D01*
X11402725Y54541585D01*
X11447782Y54580068D01*
X11447784Y54580070D01*
X11452391Y54584005D01*
X11481594Y54624645D01*
X11535024Y54699000D01*
X11535026Y54699003D01*
X11538561Y54703923D01*
X11543274Y54715645D01*
X11591378Y54835309D01*
X11593640Y54840935D01*
X11612438Y54973018D01*
X11629275Y55016039D01*
X11650922Y55047360D01*
X11652694Y55049840D01*
X11686367Y55095429D01*
X11688663Y55101966D01*
X11692602Y55107666D01*
X11709698Y55161722D01*
X11710660Y55164605D01*
X11729439Y55218080D01*
X11729676Y55224112D01*
X11730071Y55226140D01*
X11731801Y55231610D01*
X11732300Y55237951D01*
X11732300Y55288926D01*
X11732378Y55292876D01*
X11734248Y55340456D01*
X11734248Y55340459D01*
X11734543Y55347974D01*
X11732800Y55354548D01*
X11732300Y55363638D01*
X11732300Y58024010D01*
X11751513Y58083141D01*
X11751823Y58083520D01*
X11752391Y58084005D01*
X11781180Y58124069D01*
X11835024Y58199000D01*
X11835026Y58199003D01*
X11838561Y58203923D01*
X11845421Y58220986D01*
X11882290Y58312701D01*
X11893640Y58340935D01*
X11894494Y58346935D01*
X11894495Y58346939D01*
X11913981Y58483865D01*
X11914446Y58487129D01*
X11914581Y58500000D01*
X11896841Y58646598D01*
X11894483Y58652840D01*
X11846789Y58779057D01*
X11846788Y58779058D01*
X11844644Y58784733D01*
X11761004Y58906430D01*
X11650750Y59004663D01*
X11645394Y59007499D01*
X11645391Y59007501D01*
X11525608Y59070922D01*
X11520246Y59073761D01*
X11377027Y59109735D01*
X11370970Y59109767D01*
X11370968Y59109767D01*
X11299901Y59110139D01*
X11229362Y59110508D01*
X11142989Y59089772D01*
X11091679Y59077454D01*
X11091676Y59077453D01*
X11085774Y59076036D01*
X10954554Y59008308D01*
X10949989Y59004326D01*
X10949988Y59004325D01*
X10848594Y58915873D01*
X10843277Y58911235D01*
X10758368Y58790421D01*
X10756165Y58784771D01*
X10756164Y58784769D01*
X10706932Y58658496D01*
X10704727Y58652840D01*
X10685453Y58506436D01*
X10686118Y58500412D01*
X10686118Y58500408D01*
X10693482Y58433707D01*
X10701657Y58359660D01*
X10703743Y58353960D01*
X10749807Y58228084D01*
X10752404Y58220986D01*
X10834765Y58098420D01*
X10839249Y58094340D01*
X10843215Y58089745D01*
X10840784Y58087646D01*
X10865467Y58045054D01*
X10867700Y58023977D01*
X10867700Y55675012D01*
X10848487Y55615881D01*
X10798187Y55579336D01*
X10792181Y55577642D01*
X10791666Y55577451D01*
X10785774Y55576036D01*
X10654554Y55508308D01*
X10543277Y55411235D01*
X10539789Y55406272D01*
X10539788Y55406271D01*
X10498817Y55347974D01*
X10458368Y55290421D01*
X10456165Y55284771D01*
X10456164Y55284769D01*
X10423720Y55201555D01*
X10404727Y55152840D01*
X10385453Y55006436D01*
X5365866Y55006436D01*
X5536293Y55031147D01*
X5536299Y55031148D01*
X5540855Y55031809D01*
X5545218Y55033290D01*
X5545222Y55033291D01*
X5720467Y55092779D01*
X5741916Y55100060D01*
X5927172Y55203808D01*
X5935808Y55210990D01*
X6086873Y55336630D01*
X6090420Y55339580D01*
X6101249Y55352601D01*
X6223244Y55499283D01*
X6223246Y55499285D01*
X6226192Y55502828D01*
X6329940Y55688084D01*
X6398191Y55889145D01*
X6398852Y55893701D01*
X6398853Y55893707D01*
X6428234Y56096345D01*
X6428234Y56096347D01*
X6428659Y56099277D01*
X6430249Y56160000D01*
X6410821Y56371439D01*
X6353186Y56575796D01*
X6341445Y56599605D01*
X6261318Y56762086D01*
X6261316Y56762089D01*
X6259275Y56766228D01*
X6237389Y56795537D01*
X6134996Y56932659D01*
X6134991Y56932664D01*
X6132233Y56936358D01*
X5976315Y57080487D01*
X5972419Y57082945D01*
X5972414Y57082949D01*
X5886528Y57137138D01*
X5796742Y57193789D01*
X5599529Y57272470D01*
X5391279Y57313893D01*
X5285123Y57315283D01*
X5183582Y57316612D01*
X5183578Y57316612D01*
X5178968Y57316672D01*
X5174423Y57315891D01*
X4974253Y57281496D01*
X4974248Y57281495D01*
X4969705Y57280714D01*
X4870102Y57243969D01*
X4774831Y57208822D01*
X4774829Y57208821D01*
X4770500Y57207224D01*
X4766532Y57204863D01*
X4591987Y57101020D01*
X4591982Y57101016D01*
X4588023Y57098661D01*
X4584557Y57095622D01*
X4584555Y57095620D01*
X4431852Y56961704D01*
X4431849Y56961701D01*
X4428385Y56958663D01*
X4296933Y56791917D01*
X4198070Y56604008D01*
X4135105Y56401229D01*
X4110149Y56190372D01*
X3887458Y56190372D01*
X3870821Y56371439D01*
X3813186Y56575796D01*
X3801445Y56599605D01*
X3721318Y56762086D01*
X3721316Y56762089D01*
X3719275Y56766228D01*
X3697389Y56795537D01*
X3594996Y56932659D01*
X3594991Y56932664D01*
X3592233Y56936358D01*
X3436315Y57080487D01*
X3432419Y57082945D01*
X3432414Y57082949D01*
X3346528Y57137138D01*
X3256742Y57193789D01*
X3059529Y57272470D01*
X2851279Y57313893D01*
X2745123Y57315283D01*
X2643582Y57316612D01*
X2643578Y57316612D01*
X2638968Y57316672D01*
X2634423Y57315891D01*
X2434253Y57281496D01*
X2434248Y57281495D01*
X2429705Y57280714D01*
X2330102Y57243969D01*
X2234831Y57208822D01*
X2234829Y57208821D01*
X2230500Y57207224D01*
X2226532Y57204863D01*
X2051987Y57101020D01*
X2051982Y57101016D01*
X2048023Y57098661D01*
X2044557Y57095622D01*
X2044555Y57095620D01*
X1891852Y56961704D01*
X1891849Y56961701D01*
X1888385Y56958663D01*
X1756933Y56791917D01*
X1658070Y56604008D01*
X1595105Y56401229D01*
X1570149Y56190372D01*
X305300Y56190372D01*
X305300Y58730372D01*
X1570149Y58730372D01*
X1584036Y58518497D01*
X1585168Y58514039D01*
X1585169Y58514034D01*
X1630559Y58335309D01*
X1636301Y58312701D01*
X1725195Y58119876D01*
X1847740Y57946479D01*
X1999832Y57798317D01*
X2003665Y57795756D01*
X2003666Y57795755D01*
X2172542Y57682915D01*
X2172546Y57682913D01*
X2176377Y57680353D01*
X2371463Y57596538D01*
X2578557Y57549677D01*
X2684640Y57545509D01*
X2786114Y57541522D01*
X2786115Y57541522D01*
X2790723Y57541341D01*
X2795280Y57542002D01*
X2795285Y57542002D01*
X2996293Y57571147D01*
X2996299Y57571148D01*
X3000855Y57571809D01*
X3005218Y57573290D01*
X3005222Y57573291D01*
X3197553Y57638579D01*
X3201916Y57640060D01*
X3387172Y57743808D01*
X3449632Y57795755D01*
X3546873Y57876630D01*
X3550420Y57879580D01*
X3557120Y57887636D01*
X3683244Y58039283D01*
X3683246Y58039285D01*
X3686192Y58042828D01*
X3789940Y58228084D01*
X3858191Y58429145D01*
X3858852Y58433701D01*
X3858853Y58433707D01*
X3888234Y58636345D01*
X3888234Y58636347D01*
X3888659Y58639277D01*
X3890249Y58700000D01*
X3887458Y58730372D01*
X4110149Y58730372D01*
X4124036Y58518497D01*
X4125168Y58514039D01*
X4125169Y58514034D01*
X4170559Y58335309D01*
X4176301Y58312701D01*
X4265195Y58119876D01*
X4387740Y57946479D01*
X4539832Y57798317D01*
X4543665Y57795756D01*
X4543666Y57795755D01*
X4712542Y57682915D01*
X4712546Y57682913D01*
X4716377Y57680353D01*
X4911463Y57596538D01*
X5118557Y57549677D01*
X5224640Y57545509D01*
X5326114Y57541522D01*
X5326115Y57541522D01*
X5330723Y57541341D01*
X5335280Y57542002D01*
X5335285Y57542002D01*
X5536293Y57571147D01*
X5536299Y57571148D01*
X5540855Y57571809D01*
X5545218Y57573290D01*
X5545222Y57573291D01*
X5737553Y57638579D01*
X5741916Y57640060D01*
X5927172Y57743808D01*
X5989632Y57795755D01*
X6086873Y57876630D01*
X6090420Y57879580D01*
X6097120Y57887636D01*
X6223244Y58039283D01*
X6223246Y58039285D01*
X6226192Y58042828D01*
X6329940Y58228084D01*
X6398191Y58429145D01*
X6398852Y58433701D01*
X6398853Y58433707D01*
X6428234Y58636345D01*
X6428234Y58636347D01*
X6428659Y58639277D01*
X6430249Y58700000D01*
X6411296Y58906271D01*
X6411243Y58906851D01*
X6411242Y58906856D01*
X6410821Y58911439D01*
X6353186Y59115796D01*
X6341445Y59139605D01*
X6261318Y59302086D01*
X6261316Y59302089D01*
X6259275Y59306228D01*
X6237389Y59335537D01*
X6134996Y59472659D01*
X6134991Y59472664D01*
X6132233Y59476358D01*
X5976315Y59620487D01*
X5972419Y59622945D01*
X5972414Y59622949D01*
X5886529Y59677138D01*
X5796742Y59733789D01*
X5599529Y59812470D01*
X5391279Y59853893D01*
X5285124Y59855282D01*
X5183582Y59856612D01*
X5183578Y59856612D01*
X5178968Y59856672D01*
X5174423Y59855891D01*
X4974253Y59821496D01*
X4974248Y59821495D01*
X4969705Y59820714D01*
X4870102Y59783969D01*
X4774831Y59748822D01*
X4774829Y59748821D01*
X4770500Y59747224D01*
X4766532Y59744863D01*
X4591987Y59641020D01*
X4591982Y59641016D01*
X4588023Y59638661D01*
X4584557Y59635622D01*
X4584555Y59635620D01*
X4431852Y59501704D01*
X4431849Y59501701D01*
X4428385Y59498663D01*
X4296933Y59331917D01*
X4198070Y59144008D01*
X4135105Y58941229D01*
X4130968Y58906271D01*
X4117844Y58795384D01*
X4110149Y58730372D01*
X3887458Y58730372D01*
X3871296Y58906271D01*
X3871243Y58906851D01*
X3871242Y58906856D01*
X3870821Y58911439D01*
X3813186Y59115796D01*
X3801445Y59139605D01*
X3721318Y59302086D01*
X3721316Y59302089D01*
X3719275Y59306228D01*
X3697389Y59335537D01*
X3594996Y59472659D01*
X3594991Y59472664D01*
X3592233Y59476358D01*
X3436315Y59620487D01*
X3432419Y59622945D01*
X3432414Y59622949D01*
X3346529Y59677138D01*
X3256742Y59733789D01*
X3059529Y59812470D01*
X2851279Y59853893D01*
X2745124Y59855282D01*
X2643582Y59856612D01*
X2643578Y59856612D01*
X2638968Y59856672D01*
X2634423Y59855891D01*
X2434253Y59821496D01*
X2434248Y59821495D01*
X2429705Y59820714D01*
X2330102Y59783969D01*
X2234831Y59748822D01*
X2234829Y59748821D01*
X2230500Y59747224D01*
X2226532Y59744863D01*
X2051987Y59641020D01*
X2051982Y59641016D01*
X2048023Y59638661D01*
X2044557Y59635622D01*
X2044555Y59635620D01*
X1891852Y59501704D01*
X1891849Y59501701D01*
X1888385Y59498663D01*
X1756933Y59331917D01*
X1658070Y59144008D01*
X1595105Y58941229D01*
X1590968Y58906271D01*
X1577844Y58795384D01*
X1570149Y58730372D01*
X305300Y58730372D01*
X305300Y61640465D01*
X324513Y61699596D01*
X374813Y61736141D01*
X436987Y61736141D01*
X477035Y61711600D01*
X486478Y61702157D01*
X489216Y61699311D01*
X526655Y61658809D01*
X532533Y61655395D01*
X539313Y61649322D01*
X1231947Y60956689D01*
X1239815Y60947835D01*
X1260728Y60921307D01*
X1266914Y60917032D01*
X1307313Y60889111D01*
X1309879Y60887278D01*
X1355429Y60853634D01*
X1361964Y60851339D01*
X1367666Y60847398D01*
X1421672Y60830318D01*
X1424632Y60829331D01*
X1478079Y60810561D01*
X1484113Y60810324D01*
X1486138Y60809929D01*
X1491610Y60808199D01*
X1494310Y60807987D01*
X1547702Y60778362D01*
X1573955Y60722002D01*
X1574700Y60709783D01*
X1574700Y60344642D01*
X1577867Y60318022D01*
X1594065Y60281555D01*
X1620065Y60223022D01*
X1624036Y60214081D01*
X1704528Y60133730D01*
X1747344Y60114801D01*
X1801629Y60090801D01*
X1801631Y60090800D01*
X1808549Y60087742D01*
X1821185Y60086269D01*
X1831730Y60085039D01*
X1831738Y60085039D01*
X1834642Y60084700D01*
X3625358Y60084700D01*
X3628306Y60085051D01*
X3628311Y60085051D01*
X3644482Y60086975D01*
X3644483Y60086975D01*
X3651978Y60087867D01*
X3726985Y60121184D01*
X3747432Y60130266D01*
X3747433Y60130267D01*
X3755919Y60134036D01*
X3836270Y60214528D01*
X3882258Y60318549D01*
X3885300Y60344642D01*
X3885300Y61270372D01*
X4110149Y61270372D01*
X4124036Y61058497D01*
X4125168Y61054039D01*
X4125169Y61054034D01*
X4150957Y60952493D01*
X4176301Y60852701D01*
X4265195Y60659876D01*
X4387740Y60486479D01*
X4539832Y60338317D01*
X4543665Y60335756D01*
X4543666Y60335755D01*
X4712542Y60222915D01*
X4712546Y60222913D01*
X4716377Y60220353D01*
X4804920Y60182312D01*
X4902728Y60140291D01*
X4911463Y60136538D01*
X5118557Y60089677D01*
X5224640Y60085509D01*
X5326114Y60081522D01*
X5326115Y60081522D01*
X5330723Y60081341D01*
X5335280Y60082002D01*
X5335285Y60082002D01*
X5536293Y60111147D01*
X5536299Y60111148D01*
X5540855Y60111809D01*
X5545218Y60113290D01*
X5545222Y60113291D01*
X5737553Y60178579D01*
X5741916Y60180060D01*
X5927172Y60283808D01*
X5960013Y60311121D01*
X6086873Y60416630D01*
X6090420Y60419580D01*
X6097120Y60427636D01*
X6223244Y60579283D01*
X6223246Y60579285D01*
X6226192Y60582828D01*
X6329940Y60768084D01*
X6344359Y60810561D01*
X6396709Y60964778D01*
X6396710Y60964782D01*
X6398191Y60969145D01*
X6398852Y60973701D01*
X6398853Y60973707D01*
X6428234Y61176345D01*
X6428234Y61176347D01*
X6428659Y61179277D01*
X6430249Y61240000D01*
X6410821Y61451439D01*
X6353186Y61655796D01*
X6341445Y61679605D01*
X6261318Y61842086D01*
X6261316Y61842089D01*
X6259275Y61846228D01*
X6197460Y61929009D01*
X6134996Y62012659D01*
X6134991Y62012664D01*
X6132233Y62016358D01*
X6063889Y62079535D01*
X5979703Y62157355D01*
X5976315Y62160487D01*
X5972419Y62162945D01*
X5972414Y62162949D01*
X5880828Y62220735D01*
X5796742Y62273789D01*
X5599529Y62352470D01*
X5391279Y62393893D01*
X5283787Y62395300D01*
X5183582Y62396612D01*
X5183578Y62396612D01*
X5178968Y62396672D01*
X5169011Y62394961D01*
X4974253Y62361496D01*
X4974248Y62361495D01*
X4969705Y62360714D01*
X4930553Y62346270D01*
X4774831Y62288822D01*
X4774829Y62288821D01*
X4770500Y62287224D01*
X4720424Y62257432D01*
X4591987Y62181020D01*
X4591982Y62181016D01*
X4588023Y62178661D01*
X4584557Y62175622D01*
X4584555Y62175620D01*
X4431852Y62041704D01*
X4431849Y62041701D01*
X4428385Y62038663D01*
X4425532Y62035044D01*
X4425531Y62035043D01*
X4387079Y61986267D01*
X4296933Y61871917D01*
X4198070Y61684008D01*
X4135105Y61481229D01*
X4110149Y61270372D01*
X3885300Y61270372D01*
X3885300Y62135358D01*
X3882133Y62161978D01*
X3848816Y62236985D01*
X3839734Y62257432D01*
X3839733Y62257433D01*
X3835964Y62265919D01*
X3755472Y62346270D01*
X3712656Y62365199D01*
X3658371Y62389199D01*
X3658369Y62389200D01*
X3651451Y62392258D01*
X3637427Y62393893D01*
X3628270Y62394961D01*
X3628262Y62394961D01*
X3625358Y62395300D01*
X1834642Y62395300D01*
X1831694Y62394949D01*
X1831689Y62394949D01*
X1815518Y62393025D01*
X1815517Y62393025D01*
X1808022Y62392133D01*
X1737288Y62360714D01*
X1713224Y62350025D01*
X1704081Y62345964D01*
X1623730Y62265472D01*
X1619975Y62256978D01*
X1585351Y62178661D01*
X1577742Y62161451D01*
X1574700Y62135358D01*
X1574700Y62079535D01*
X1555487Y62020404D01*
X1505187Y61983859D01*
X1443013Y61983859D01*
X1402965Y62008400D01*
X1261765Y62149600D01*
X1233539Y62204998D01*
X1232300Y62220735D01*
X1232300Y68924505D01*
X1251513Y68983636D01*
X1298820Y69019157D01*
X1302269Y69020399D01*
X1308182Y69021753D01*
X1313602Y69024479D01*
X1313605Y69024480D01*
X1434685Y69085376D01*
X1434688Y69085378D01*
X1440104Y69088102D01*
X1502725Y69141585D01*
X1547782Y69180068D01*
X1547784Y69180070D01*
X1552391Y69184005D01*
X1601269Y69252026D01*
X1635024Y69299000D01*
X1635026Y69299003D01*
X1638561Y69303923D01*
X1693640Y69440935D01*
X1694494Y69446935D01*
X1694495Y69446939D01*
X1708250Y69543596D01*
X1714446Y69587129D01*
X1714581Y69600000D01*
X1706217Y69669122D01*
X1697570Y69740576D01*
X1697569Y69740578D01*
X1696841Y69746598D01*
X1694483Y69752840D01*
X1646789Y69879057D01*
X1646788Y69879058D01*
X1644644Y69884733D01*
X1561004Y70006430D01*
X1560997Y70006436D01*
X6135453Y70006436D01*
X6136118Y70000412D01*
X6136118Y70000408D01*
X6145809Y69912631D01*
X6151657Y69859660D01*
X6153743Y69853960D01*
X6198195Y69732489D01*
X6202404Y69720986D01*
X6284765Y69598420D01*
X6393985Y69499038D01*
X6399312Y69496146D01*
X6399313Y69496145D01*
X6419147Y69485376D01*
X6523758Y69428577D01*
X6529628Y69427037D01*
X6660725Y69392644D01*
X6660726Y69392644D01*
X6666592Y69391105D01*
X6735717Y69390019D01*
X6808177Y69388881D01*
X6808179Y69388881D01*
X6814241Y69388786D01*
X6820152Y69390140D01*
X6820154Y69390140D01*
X6952272Y69420399D01*
X6952275Y69420400D01*
X6958182Y69421753D01*
X7090104Y69488102D01*
X7155078Y69543596D01*
X7212519Y69567390D01*
X7220413Y69567700D01*
X9882935Y69567700D01*
X9942066Y69548487D01*
X9977408Y69501672D01*
X10005657Y69424478D01*
X10009550Y69413840D01*
X10012936Y69408801D01*
X10079631Y69309549D01*
X10091911Y69291274D01*
X10201131Y69191892D01*
X10206458Y69189000D01*
X10206459Y69188999D01*
X10222908Y69180068D01*
X10330904Y69121431D01*
X10336774Y69119891D01*
X10467871Y69085498D01*
X10467872Y69085498D01*
X10473738Y69083959D01*
X10542863Y69082873D01*
X10615323Y69081735D01*
X10615325Y69081735D01*
X10621387Y69081640D01*
X10627298Y69082994D01*
X10627300Y69082994D01*
X10759418Y69113253D01*
X10759421Y69113254D01*
X10765328Y69114607D01*
X10784654Y69124327D01*
X10891831Y69178230D01*
X10891834Y69178232D01*
X10897250Y69180956D01*
X10980462Y69252026D01*
X11004928Y69272922D01*
X11004930Y69272924D01*
X11009537Y69276859D01*
X11038740Y69317499D01*
X11092170Y69391854D01*
X11092172Y69391857D01*
X11095707Y69396777D01*
X11102567Y69413840D01*
X11148524Y69528163D01*
X11150786Y69533789D01*
X11151640Y69539789D01*
X11151641Y69539793D01*
X11171127Y69676719D01*
X11171592Y69679983D01*
X11171727Y69692854D01*
X11168933Y69715947D01*
X11154716Y69833430D01*
X11154715Y69833432D01*
X11153987Y69839452D01*
X11139022Y69879057D01*
X11103935Y69971911D01*
X11103934Y69971912D01*
X11101790Y69977587D01*
X11018150Y70099284D01*
X10951692Y70158496D01*
X10912425Y70193482D01*
X10912424Y70193483D01*
X10907896Y70197517D01*
X10902540Y70200353D01*
X10902537Y70200355D01*
X10782754Y70263776D01*
X10777392Y70266615D01*
X10634173Y70302589D01*
X10628116Y70302621D01*
X10628114Y70302621D01*
X10617968Y70302674D01*
X10603194Y70302751D01*
X10546524Y70320592D01*
X10502652Y70350914D01*
X10500160Y70352695D01*
X10454571Y70386367D01*
X10448034Y70388663D01*
X10442334Y70392602D01*
X10388278Y70409698D01*
X10385395Y70410660D01*
X10331920Y70429439D01*
X10325888Y70429676D01*
X10323860Y70430071D01*
X10318390Y70431801D01*
X10312049Y70432300D01*
X10261074Y70432300D01*
X10257124Y70432378D01*
X10209545Y70434248D01*
X10209542Y70434248D01*
X10202026Y70434543D01*
X10195451Y70432800D01*
X10186364Y70432300D01*
X7220283Y70432300D01*
X7161152Y70451513D01*
X7153361Y70457788D01*
X7105279Y70500628D01*
X7105278Y70500629D01*
X7100750Y70504663D01*
X7095394Y70507499D01*
X7095391Y70507501D01*
X6975608Y70570922D01*
X6970246Y70573761D01*
X6827027Y70609735D01*
X6820970Y70609767D01*
X6820968Y70609767D01*
X6749901Y70610139D01*
X6679362Y70610508D01*
X6592989Y70589772D01*
X6541679Y70577454D01*
X6541676Y70577453D01*
X6535774Y70576036D01*
X6404554Y70508308D01*
X6399989Y70504326D01*
X6399988Y70504325D01*
X6312924Y70428374D01*
X6293277Y70411235D01*
X6289789Y70406272D01*
X6289788Y70406271D01*
X6272659Y70381899D01*
X6208368Y70290421D01*
X6206165Y70284771D01*
X6206164Y70284769D01*
X6163771Y70176036D01*
X6154727Y70152840D01*
X6135453Y70006436D01*
X1560997Y70006436D01*
X1450750Y70104663D01*
X1445394Y70107499D01*
X1445391Y70107501D01*
X1325608Y70170922D01*
X1320246Y70173761D01*
X1177027Y70209735D01*
X1170970Y70209767D01*
X1170968Y70209767D01*
X1099901Y70210139D01*
X1029362Y70210508D01*
X958443Y70193482D01*
X891679Y70177454D01*
X891676Y70177453D01*
X885774Y70176036D01*
X754554Y70108308D01*
X749989Y70104326D01*
X749988Y70104325D01*
X744210Y70099284D01*
X643277Y70011235D01*
X639789Y70006272D01*
X639788Y70006271D01*
X623145Y69982590D01*
X558368Y69890421D01*
X556165Y69884771D01*
X556164Y69884769D01*
X538496Y69839452D01*
X504727Y69752840D01*
X503935Y69746823D01*
X503340Y69744506D01*
X470026Y69692010D01*
X412218Y69669122D01*
X351997Y69684583D01*
X312365Y69732489D01*
X305300Y69769523D01*
X305300Y72263630D01*
X324513Y72322761D01*
X334765Y72334765D01*
X470584Y72470584D01*
X525982Y72498810D01*
X541597Y72500049D01*
X1238356Y72500863D01*
X1499803Y72501168D01*
X1558956Y72482024D01*
X1571055Y72471703D01*
X1651278Y72391480D01*
X1936809Y72160261D01*
X1939014Y72158829D01*
X1939021Y72158824D01*
X2242731Y71961593D01*
X2242742Y71961587D01*
X2244945Y71960156D01*
X2572310Y71793355D01*
X2915316Y71661687D01*
X2917844Y71661010D01*
X2917852Y71661007D01*
X3123589Y71605880D01*
X3270207Y71566594D01*
X3272804Y71566183D01*
X3272812Y71566181D01*
X3465386Y71535681D01*
X3633094Y71509119D01*
X3635730Y71508981D01*
X3635738Y71508980D01*
X3997367Y71490028D01*
X4000000Y71489890D01*
X4002633Y71490028D01*
X4364262Y71508980D01*
X4364270Y71508981D01*
X4366906Y71509119D01*
X4534614Y71535681D01*
X4727188Y71566181D01*
X4727196Y71566183D01*
X4729793Y71566594D01*
X4876411Y71605880D01*
X5082148Y71661007D01*
X5082156Y71661010D01*
X5084684Y71661687D01*
X5427690Y71793355D01*
X5755055Y71960156D01*
X5757258Y71961587D01*
X5757269Y71961593D01*
X6060979Y72158824D01*
X6060986Y72158829D01*
X6063191Y72160261D01*
X6348722Y72391480D01*
X6434794Y72477552D01*
X6490192Y72505778D01*
X6505811Y72507017D01*
X13458189Y72515140D01*
X13517343Y72495996D01*
G37*
%TD.AperFunction*%
%TD*%
M02*
