%TF.GenerationSoftware,KiCad,Pcbnew,(5.1.6-0)*%
%TF.CreationDate,2022-04-30T15:33:10-07:00*%
%TF.ProjectId,jetson-nano-ppoe,6a657473-6f6e-42d6-9e61-6e6f2d70706f,rev?*%
%TF.SameCoordinates,PX8b3c880PY8583b00*%
%TF.FileFunction,Copper,L1,Top*%
%TF.FilePolarity,Positive*%
%FSLAX46Y46*%
G04 Gerber Fmt 4.6, Leading zero omitted, Abs format (unit mm)*
G04 Created by KiCad (PCBNEW (5.1.6-0)) date 2022-04-30 15:33:10*
%MOMM*%
%LPD*%
G01*
G04 APERTURE LIST*
%TA.AperFunction,SMDPad,CuDef*%
%ADD10R,0.550000X0.250000*%
%TD*%
%TA.AperFunction,SMDPad,CuDef*%
%ADD11R,0.250000X1.000000*%
%TD*%
%TA.AperFunction,SMDPad,CuDef*%
%ADD12R,0.250000X1.300000*%
%TD*%
%TA.AperFunction,SMDPad,CuDef*%
%ADD13R,0.250000X0.550000*%
%TD*%
%TA.AperFunction,SMDPad,CuDef*%
%ADD14R,1.000000X1.250000*%
%TD*%
%TA.AperFunction,SMDPad,CuDef*%
%ADD15R,0.750000X0.800000*%
%TD*%
%TA.AperFunction,SMDPad,CuDef*%
%ADD16R,0.800000X0.750000*%
%TD*%
%TA.AperFunction,ComponentPad*%
%ADD17C,1.650000*%
%TD*%
%TA.AperFunction,ComponentPad*%
%ADD18O,1.700000X1.700000*%
%TD*%
%TA.AperFunction,ComponentPad*%
%ADD19R,1.700000X1.700000*%
%TD*%
%TA.AperFunction,SMDPad,CuDef*%
%ADD20R,1.200000X4.700000*%
%TD*%
%TA.AperFunction,SMDPad,CuDef*%
%ADD21R,0.500000X0.900000*%
%TD*%
%TA.AperFunction,SMDPad,CuDef*%
%ADD22R,1.000000X1.000000*%
%TD*%
%TA.AperFunction,ComponentPad*%
%ADD23C,6.400000*%
%TD*%
%TA.AperFunction,ComponentPad*%
%ADD24C,0.800000*%
%TD*%
%TA.AperFunction,SMDPad,CuDef*%
%ADD25R,1.060000X0.650000*%
%TD*%
%TA.AperFunction,SMDPad,CuDef*%
%ADD26R,0.900000X0.900000*%
%TD*%
%TA.AperFunction,SMDPad,CuDef*%
%ADD27R,0.900000X0.800000*%
%TD*%
%TA.AperFunction,ViaPad*%
%ADD28C,0.609600*%
%TD*%
%TA.AperFunction,Conductor*%
%ADD29C,0.254000*%
%TD*%
%TA.AperFunction,Conductor*%
%ADD30C,0.457200*%
%TD*%
%TA.AperFunction,Conductor*%
%ADD31C,0.203200*%
%TD*%
%TA.AperFunction,Conductor*%
%ADD32C,0.914400*%
%TD*%
G04 APERTURE END LIST*
D10*
%TO.P,IC1,1*%
%TO.N,/IC1_VCC*%
X8575000Y47750000D03*
%TO.P,IC1,2*%
%TO.N,/IC1_FB*%
X8575000Y47250000D03*
%TO.P,IC1,3*%
%TO.N,Net-(IC1-Pad3)*%
X8575000Y46750000D03*
D11*
%TO.P,IC1,4*%
%TO.N,GND*%
X9250000Y46800000D03*
D10*
%TO.P,IC1,5*%
%TO.N,+12V*%
X10425000Y46750000D03*
%TO.P,IC1,6*%
X10425000Y47250000D03*
%TO.P,IC1,7*%
%TO.N,/IC1_BST*%
X10425000Y47750000D03*
D12*
%TO.P,IC1,8*%
%TO.N,/IC1_SW*%
X9750000Y47550000D03*
D13*
%TO.P,IC1,9*%
%TO.N,/IC1_SS*%
X9250000Y47925000D03*
%TD*%
D14*
%TO.P,C1,1*%
%TO.N,+12V*%
X8230000Y36000000D03*
%TO.P,C1,2*%
%TO.N,GND*%
X6230000Y36000000D03*
%TD*%
%TO.P,C2,2*%
%TO.N,GND*%
X6230000Y38920000D03*
%TO.P,C2,1*%
%TO.N,+12V*%
X8230000Y38920000D03*
%TD*%
D15*
%TO.P,C3,2*%
%TO.N,GND*%
X8000000Y32500000D03*
%TO.P,C3,1*%
%TO.N,+12V*%
X8000000Y34000000D03*
%TD*%
D16*
%TO.P,C4,2*%
%TO.N,GND*%
X6000000Y51000000D03*
%TO.P,C4,1*%
%TO.N,/IC1_VCC*%
X7500000Y51000000D03*
%TD*%
%TO.P,C5,1*%
%TO.N,/IC1_SS*%
X7500000Y53500000D03*
%TO.P,C5,2*%
%TO.N,GND*%
X6000000Y53500000D03*
%TD*%
%TO.P,C6,2*%
%TO.N,/IC1_SW*%
X10750000Y53500000D03*
%TO.P,C6,1*%
%TO.N,/IC1_BST_R*%
X9250000Y53500000D03*
%TD*%
D15*
%TO.P,C7,1*%
%TO.N,+5V*%
X10250000Y42000000D03*
%TO.P,C7,2*%
%TO.N,/IC1_FB*%
X10250000Y43500000D03*
%TD*%
D14*
%TO.P,C8,2*%
%TO.N,GND*%
X3750000Y53750000D03*
%TO.P,C8,1*%
%TO.N,+5V*%
X1750000Y53750000D03*
%TD*%
%TO.P,C9,2*%
%TO.N,GND*%
X3750000Y50750000D03*
%TO.P,C9,1*%
%TO.N,+5V*%
X1750000Y50750000D03*
%TD*%
%TO.P,C10,1*%
%TO.N,+5V*%
X1500000Y39000000D03*
%TO.P,C10,2*%
%TO.N,GND*%
X3500000Y39000000D03*
%TD*%
%TO.P,C11,1*%
%TO.N,+5V*%
X1500000Y36000000D03*
%TO.P,C11,2*%
%TO.N,GND*%
X3500000Y36000000D03*
%TD*%
D15*
%TO.P,C12,1*%
%TO.N,+5V*%
X8000000Y21000000D03*
%TO.P,C12,2*%
%TO.N,GND*%
X8000000Y22500000D03*
%TD*%
D17*
%TO.P,J1,1*%
%TO.N,GND*%
X7000000Y5500000D03*
%TO.P,J1,2*%
%TO.N,/12V_CONN*%
X3500000Y10500000D03*
%TD*%
D18*
%TO.P,J2,10*%
%TO.N,/UART1_RXD*%
X2730000Y32030000D03*
%TO.P,J2,9*%
%TO.N,GND*%
X5270000Y32030000D03*
%TO.P,J2,8*%
%TO.N,/UART1_TXD*%
X2730000Y29490000D03*
%TO.P,J2,7*%
%TO.N,Net-(J2-Pad7)*%
X5270000Y29490000D03*
%TO.P,J2,6*%
%TO.N,GND*%
X2730000Y26950000D03*
%TO.P,J2,5*%
%TO.N,/I2C1_SCL*%
X5270000Y26950000D03*
%TO.P,J2,4*%
%TO.N,+5V*%
X2730000Y24410000D03*
%TO.P,J2,3*%
%TO.N,/I2C1_SDA*%
X5270000Y24410000D03*
%TO.P,J2,2*%
%TO.N,+5V*%
X2730000Y21870000D03*
D19*
%TO.P,J2,1*%
%TO.N,+3V3*%
X5270000Y21870000D03*
%TD*%
D20*
%TO.P,L1,2*%
%TO.N,+5V*%
X1595000Y45000000D03*
%TO.P,L1,1*%
%TO.N,/IC1_SW*%
X4905000Y45000000D03*
%TD*%
D21*
%TO.P,R3,1*%
%TO.N,/IC1_BST_R*%
X9250000Y51000000D03*
%TO.P,R3,2*%
%TO.N,/IC1_BST*%
X10750000Y51000000D03*
%TD*%
%TO.P,R4,2*%
%TO.N,/IC1_FB*%
X8500000Y44250000D03*
%TO.P,R4,1*%
%TO.N,+5V*%
X7000000Y44250000D03*
%TD*%
%TO.P,R5,2*%
%TO.N,GND*%
X7000000Y41750000D03*
%TO.P,R5,1*%
%TO.N,/IC1_FB*%
X8500000Y41750000D03*
%TD*%
%TO.P,D1,1*%
%TO.N,/12V_CONN_K*%
%TA.AperFunction,SMDPad,CuDef*%
G36*
G01*
X12006250Y8025000D02*
X11493750Y8025000D01*
G75*
G02*
X11275000Y8243750I0J218750D01*
G01*
X11275000Y8681250D01*
G75*
G02*
X11493750Y8900000I218750J0D01*
G01*
X12006250Y8900000D01*
G75*
G02*
X12225000Y8681250I0J-218750D01*
G01*
X12225000Y8243750D01*
G75*
G02*
X12006250Y8025000I-218750J0D01*
G01*
G37*
%TD.AperFunction*%
%TO.P,D1,2*%
%TO.N,+12V*%
%TA.AperFunction,SMDPad,CuDef*%
G36*
G01*
X12006250Y9600000D02*
X11493750Y9600000D01*
G75*
G02*
X11275000Y9818750I0J218750D01*
G01*
X11275000Y10256250D01*
G75*
G02*
X11493750Y10475000I218750J0D01*
G01*
X12006250Y10475000D01*
G75*
G02*
X12225000Y10256250I0J-218750D01*
G01*
X12225000Y9818750D01*
G75*
G02*
X12006250Y9600000I-218750J0D01*
G01*
G37*
%TD.AperFunction*%
%TD*%
%TO.P,D2,2*%
%TO.N,+12V*%
%TA.AperFunction,SMDPad,CuDef*%
G36*
G01*
X11243750Y68650000D02*
X11756250Y68650000D01*
G75*
G02*
X11975000Y68431250I0J-218750D01*
G01*
X11975000Y67993750D01*
G75*
G02*
X11756250Y67775000I-218750J0D01*
G01*
X11243750Y67775000D01*
G75*
G02*
X11025000Y67993750I0J218750D01*
G01*
X11025000Y68431250D01*
G75*
G02*
X11243750Y68650000I218750J0D01*
G01*
G37*
%TD.AperFunction*%
%TO.P,D2,1*%
%TO.N,/TR2_TAP_K*%
%TA.AperFunction,SMDPad,CuDef*%
G36*
G01*
X11243750Y70225000D02*
X11756250Y70225000D01*
G75*
G02*
X11975000Y70006250I0J-218750D01*
G01*
X11975000Y69568750D01*
G75*
G02*
X11756250Y69350000I-218750J0D01*
G01*
X11243750Y69350000D01*
G75*
G02*
X11025000Y69568750I0J218750D01*
G01*
X11025000Y70006250D01*
G75*
G02*
X11243750Y70225000I218750J0D01*
G01*
G37*
%TD.AperFunction*%
%TD*%
D22*
%TO.P,D3,1*%
%TO.N,+12V*%
X8000000Y28250000D03*
%TO.P,D3,2*%
%TO.N,/12V_G*%
X8000000Y25750000D03*
%TD*%
%TO.P,D4,2*%
%TO.N,/12V_2_G*%
X1750000Y65500000D03*
%TO.P,D4,1*%
%TO.N,+12V*%
X4250000Y65500000D03*
%TD*%
D23*
%TO.P,H1,1*%
%TO.N,N/C*%
X4000000Y17000000D03*
D24*
X6400000Y17000000D03*
X5697056Y15302944D03*
X4000000Y14600000D03*
X2302944Y15302944D03*
X1600000Y17000000D03*
X2302944Y18697056D03*
X4000000Y19400000D03*
X5697056Y18697056D03*
%TD*%
%TO.P,H2,1*%
%TO.N,N/C*%
X5697056Y76697056D03*
X4000000Y77400000D03*
X2302944Y76697056D03*
X1600000Y75000000D03*
X2302944Y73302944D03*
X4000000Y72600000D03*
X5697056Y73302944D03*
X6400000Y75000000D03*
D23*
X4000000Y75000000D03*
%TD*%
D19*
%TO.P,J3,1*%
%TO.N,/TR1_TAP*%
X8870000Y73730000D03*
D18*
%TO.P,J3,2*%
%TO.N,/TR0_TAP*%
X8870000Y76270000D03*
%TO.P,J3,3*%
%TO.N,GND*%
X11410000Y73730000D03*
%TO.P,J3,4*%
%TO.N,/TR2_TAP*%
X11410000Y76270000D03*
%TD*%
D25*
%TO.P,Q4,1*%
%TO.N,GND*%
X8600000Y61050000D03*
%TO.P,Q4,2*%
%TO.N,/12V_CONN_R*%
X8600000Y62000000D03*
%TO.P,Q4,3*%
%TO.N,/12V_2_G_R*%
X8600000Y62950000D03*
%TO.P,Q4,4*%
%TO.N,GND*%
X6400000Y62950000D03*
%TO.P,Q4,6*%
%TO.N,/12V_G_R*%
X6400000Y61050000D03*
%TO.P,Q4,5*%
%TO.N,/TR2_TAP_R*%
X6400000Y62000000D03*
%TD*%
D26*
%TO.P,RN1,6*%
%TO.N,/12V_CONN_K*%
X11750000Y15590000D03*
%TO.P,RN1,5*%
%TO.N,/12V_G*%
X11750000Y14250000D03*
%TO.P,RN1,8*%
%TO.N,/12V_CONN_R*%
X11750000Y18250000D03*
%TO.P,RN1,7*%
X11750000Y16910000D03*
%TO.P,RN1,3*%
%TO.N,/12V_G_R*%
X8750000Y15590000D03*
%TO.P,RN1,2*%
%TO.N,GND*%
X8750000Y16910000D03*
%TO.P,RN1,4*%
%TO.N,/12V_G_R*%
X8750000Y14250000D03*
%TO.P,RN1,1*%
%TO.N,/12V_CONN*%
X8750000Y18250000D03*
%TD*%
%TO.P,RN2,1*%
%TO.N,/TR2_TAP*%
X6000000Y69750000D03*
%TO.P,RN2,4*%
%TO.N,/12V_2_G_R*%
X6000000Y65750000D03*
%TO.P,RN2,2*%
%TO.N,GND*%
X6000000Y68410000D03*
%TO.P,RN2,3*%
%TO.N,/12V_2_G_R*%
X6000000Y67090000D03*
%TO.P,RN2,7*%
%TO.N,/TR2_TAP_R*%
X9000000Y68410000D03*
%TO.P,RN2,8*%
X9000000Y69750000D03*
%TO.P,RN2,5*%
%TO.N,/12V_2_G*%
X9000000Y65750000D03*
%TO.P,RN2,6*%
%TO.N,/TR2_TAP_K*%
X9000000Y67090000D03*
%TD*%
D27*
%TO.P,Q1,1*%
%TO.N,/12V_G*%
X11750000Y21050000D03*
%TO.P,Q1,2*%
%TO.N,+12V*%
X11750000Y22950000D03*
%TO.P,Q1,3*%
%TO.N,/12V_CONN*%
X9750000Y22000000D03*
%TD*%
%TO.P,Q2,3*%
%TO.N,/TR2_TAP*%
X3750000Y68750000D03*
%TO.P,Q2,2*%
%TO.N,+12V*%
X1750000Y67800000D03*
%TO.P,Q2,1*%
%TO.N,/12V_2_G*%
X1750000Y69700000D03*
%TD*%
D28*
%TO.N,GND*%
X8000000Y23350000D03*
X8850000Y32500000D03*
X9000000Y60000000D03*
X5000000Y68000000D03*
X4750000Y36500000D03*
X5000000Y35500000D03*
X4750000Y39500000D03*
X5000000Y38500000D03*
X6250000Y34750000D03*
X6250000Y37750000D03*
X6750000Y40750000D03*
X4000000Y37750000D03*
X4000000Y34750000D03*
X8750000Y46000000D03*
X5000000Y51250000D03*
X5000000Y50250000D03*
X5000000Y53250000D03*
X5000000Y54250000D03*
X6000000Y50250000D03*
X6000000Y54250000D03*
X4000000Y52000000D03*
X4000000Y55000000D03*
X5962779Y63814739D03*
X8000000Y19250000D03*
%TO.N,/IC1_FB*%
X7500000Y47000000D03*
X8750000Y43250000D03*
%TO.N,/12V_2_G*%
X7750000Y65250000D03*
X750000Y65500000D03*
%TO.N,/12V_CONN_R*%
X10250000Y59000000D03*
X11750000Y19500000D03*
%TO.N,/12V_G_R*%
X9000000Y59000000D03*
X13467000Y8250000D03*
%TO.N,/TR2_TAP_R*%
X5250000Y62250000D03*
X7750000Y66750000D03*
%TD*%
D29*
%TO.N,+12V*%
X11500000Y68212500D02*
X11500000Y59000000D01*
X11500000Y59000000D02*
X11000000Y58500000D01*
X11500000Y59000000D02*
X11500000Y58500000D01*
X11500000Y59000000D02*
X11750000Y58750000D01*
X10425000Y47250000D02*
X11000000Y47250000D01*
X10425000Y46750000D02*
X11000000Y46750000D01*
D30*
%TO.N,GND*%
X8000000Y22500000D02*
X8000000Y23350000D01*
D29*
X8000000Y32500000D02*
X8850000Y32500000D01*
X8600000Y60400000D02*
X9000000Y60000000D01*
X8600000Y61050000D02*
X8600000Y60400000D01*
X5410000Y68410000D02*
X5000000Y68000000D01*
X6000000Y68410000D02*
X5410000Y68410000D01*
X4250000Y36000000D02*
X4750000Y36500000D01*
X3500000Y36000000D02*
X4250000Y36000000D01*
X5500000Y36000000D02*
X5000000Y35500000D01*
X6230000Y36000000D02*
X5500000Y36000000D01*
X4250000Y39000000D02*
X4750000Y39500000D01*
X3500000Y39000000D02*
X4250000Y39000000D01*
X5420000Y38920000D02*
X5000000Y38500000D01*
X6230000Y38920000D02*
X5420000Y38920000D01*
X6230000Y34770000D02*
X6250000Y34750000D01*
X6230000Y36000000D02*
X6230000Y34770000D01*
X6230000Y37770000D02*
X6250000Y37750000D01*
X6230000Y38920000D02*
X6230000Y37770000D01*
X7000000Y41000000D02*
X6750000Y40750000D01*
X7000000Y41750000D02*
X7000000Y41000000D01*
X3500000Y38250000D02*
X4000000Y37750000D01*
X3500000Y39000000D02*
X3500000Y38250000D01*
X3500000Y35250000D02*
X4000000Y34750000D01*
X3500000Y36000000D02*
X3500000Y35250000D01*
X9250000Y46500000D02*
X8750000Y46000000D01*
X9250000Y46800000D02*
X9250000Y46500000D01*
X5250000Y51000000D02*
X5000000Y51250000D01*
X6000000Y51000000D02*
X5250000Y51000000D01*
X4500000Y50750000D02*
X5000000Y50250000D01*
X3750000Y50750000D02*
X4500000Y50750000D01*
X5250000Y53500000D02*
X5000000Y53250000D01*
X6000000Y53500000D02*
X5250000Y53500000D01*
X4500000Y53750000D02*
X5000000Y54250000D01*
X3750000Y53750000D02*
X4500000Y53750000D01*
X6000000Y51000000D02*
X6000000Y50250000D01*
X6000000Y53500000D02*
X6000000Y54250000D01*
X3750000Y51750000D02*
X4000000Y52000000D01*
X3750000Y50750000D02*
X3750000Y51750000D01*
X3750000Y54750000D02*
X4000000Y55000000D01*
X3750000Y53750000D02*
X3750000Y54750000D01*
X6400000Y63377518D02*
X5962779Y63814739D01*
X6400000Y62950000D02*
X6400000Y63377518D01*
D31*
X7995199Y17664801D02*
X7995199Y19245199D01*
X7995199Y19245199D02*
X8000000Y19250000D01*
X8750000Y16910000D02*
X7995199Y17664801D01*
D29*
%TO.N,/IC1_VCC*%
X8575000Y47750000D02*
X7750000Y47750000D01*
X7500000Y48000000D02*
X7500000Y51000000D01*
X7750000Y47750000D02*
X7500000Y48000000D01*
%TO.N,/IC1_SS*%
X9250000Y47925000D02*
X9250000Y49750000D01*
X9250000Y49750000D02*
X8500000Y50500000D01*
X8500000Y50500000D02*
X8500000Y52500000D01*
X8500000Y52500000D02*
X7500000Y53500000D01*
%TO.N,/IC1_SW*%
X9750000Y47550000D02*
X9750000Y49750000D01*
X9750000Y49750000D02*
X10000000Y50000000D01*
X10000000Y52750000D02*
X10750000Y53500000D01*
X10000000Y50000000D02*
X10000000Y52750000D01*
X9750000Y47550000D02*
X9750000Y46250000D01*
%TO.N,/IC1_BST_R*%
X9250000Y51000000D02*
X9250000Y53500000D01*
%TO.N,+5V*%
X10250000Y42000000D02*
X10250000Y41500000D01*
X10250000Y41500000D02*
X10250000Y41250000D01*
X10250000Y41250000D02*
X10250000Y40750000D01*
X10250000Y40750000D02*
X9500000Y40000000D01*
X5250000Y40000000D02*
X5000000Y40250000D01*
X5000000Y40250000D02*
X1000000Y40250000D01*
X7750000Y43500000D02*
X7000000Y44250000D01*
X7750000Y40250000D02*
X8000000Y40000000D01*
X7750000Y40500000D02*
X7750000Y40250000D01*
X9500000Y40000000D02*
X8000000Y40000000D01*
X7750000Y40000000D02*
X7750000Y40500000D01*
X8000000Y40000000D02*
X7750000Y40000000D01*
X7750000Y40500000D02*
X7750000Y43500000D01*
X7750000Y40250000D02*
X7500000Y40000000D01*
X7500000Y40000000D02*
X5250000Y40000000D01*
X7750000Y40000000D02*
X7500000Y40000000D01*
X7294799Y21705201D02*
X7294799Y22205201D01*
X8000000Y21000000D02*
X7294799Y21705201D01*
X6270201Y23229799D02*
X3979799Y23229799D01*
X7294799Y22205201D02*
X6500000Y23000000D01*
X6500000Y23000000D02*
X6270201Y23229799D01*
X4155839Y23050201D02*
X4000000Y22894362D01*
X6449799Y23050201D02*
X4155839Y23050201D01*
X6500000Y23000000D02*
X6449799Y23050201D01*
%TO.N,/IC1_FB*%
X7750000Y47250000D02*
X7500000Y47000000D01*
X8575000Y47250000D02*
X7750000Y47250000D01*
X8750000Y44000000D02*
X8500000Y44250000D01*
X8750000Y43250000D02*
X8750000Y44000000D01*
X9000000Y43250000D02*
X9250000Y43500000D01*
X8750000Y43250000D02*
X9000000Y43250000D01*
X8750000Y43250000D02*
X9125000Y43625000D01*
X9250000Y43500000D02*
X9125000Y43625000D01*
X8750000Y43250000D02*
X8750000Y43500000D01*
X9000000Y43750000D02*
X8500000Y44250000D01*
X8750000Y43500000D02*
X9000000Y43750000D01*
X9125000Y43625000D02*
X9000000Y43750000D01*
X8500000Y41750000D02*
X8500000Y42500000D01*
X8750000Y42750000D02*
X8750000Y43250000D01*
X8500000Y42500000D02*
X8750000Y42750000D01*
X8750000Y42750000D02*
X9500000Y43500000D01*
X9500000Y43500000D02*
X9250000Y43500000D01*
X10250000Y43500000D02*
X9500000Y43500000D01*
%TO.N,/IC1_BST*%
X10425000Y47750000D02*
X11250000Y47750000D01*
X11250000Y47750000D02*
X11500000Y48000000D01*
X11500000Y48000000D02*
X11500000Y50750000D01*
X11250000Y51000000D02*
X10750000Y51000000D01*
X11500000Y50750000D02*
X11250000Y51000000D01*
D30*
%TO.N,/12V_CONN*%
X9750000Y22000000D02*
X9750000Y20450000D01*
D32*
X7088722Y10500000D02*
X3500000Y10500000D01*
X9860401Y13271679D02*
X7088722Y10500000D01*
X9750000Y19650000D02*
X9860401Y19539599D01*
X9750000Y20950000D02*
X9750000Y19650000D01*
X9860401Y16839599D02*
X9860401Y13271679D01*
D29*
X9750000Y18250000D02*
X9860401Y18139599D01*
D32*
X9860401Y18139599D02*
X9860401Y16839599D01*
D29*
X8750000Y18250000D02*
X9750000Y18250000D01*
D32*
X9860401Y19539599D02*
X9860401Y18139599D01*
D29*
%TO.N,/12V_G*%
X12530201Y20269799D02*
X11750000Y21050000D01*
X11750000Y14250000D02*
X11810402Y14250000D01*
X11810402Y14250000D02*
X12530201Y14969799D01*
X12530201Y14969799D02*
X12530201Y20269799D01*
D31*
X8000000Y25750000D02*
X10995199Y22754801D01*
X11750000Y21551358D02*
X11750000Y21050000D01*
X10995199Y22306159D02*
X11750000Y21551358D01*
X10995199Y22754801D02*
X10995199Y22306159D01*
%TO.N,/12V_CONN_K*%
X10970190Y9242310D02*
X11750000Y8462500D01*
D29*
X11750000Y15590000D02*
X11090000Y15590000D01*
X10944790Y15444790D02*
X10944790Y9267710D01*
X10944790Y9267710D02*
X10970190Y9242310D01*
X11090000Y15590000D02*
X10944790Y15444790D01*
X10944790Y9267710D02*
X11750000Y8462500D01*
%TO.N,/TR2_TAP_K*%
X9704000Y67090000D02*
X10000000Y67386000D01*
X9000000Y67090000D02*
X9704000Y67090000D01*
X10000000Y68287500D02*
X11500000Y69787500D01*
X10000000Y67386000D02*
X10000000Y68287500D01*
%TO.N,/12V_2_G*%
X1750000Y65500000D02*
X1750000Y66250000D01*
X969799Y68919799D02*
X1750000Y69700000D01*
X969799Y67030201D02*
X969799Y68919799D01*
X1750000Y66250000D02*
X969799Y67030201D01*
X8250000Y65750000D02*
X7750000Y65250000D01*
X9000000Y65750000D02*
X8250000Y65750000D01*
X750000Y65500000D02*
X1750000Y65500000D01*
D32*
%TO.N,/TR2_TAP*%
X11410000Y76270000D02*
X13250000Y74430000D01*
X13250000Y74430000D02*
X13250000Y72750000D01*
X13250000Y72750000D02*
X11750000Y71250000D01*
X7500000Y71250000D02*
X6000000Y69750000D01*
X11750000Y71250000D02*
X7500000Y71250000D01*
X4750000Y69750000D02*
X3750000Y68750000D01*
X6000000Y69750000D02*
X4750000Y69750000D01*
D29*
%TO.N,/12V_CONN_R*%
X11750000Y18250000D02*
X11750000Y16910000D01*
X9384000Y62000000D02*
X9750000Y61634000D01*
X8600000Y62000000D02*
X9384000Y62000000D01*
X9750000Y59500000D02*
X10250000Y59000000D01*
X9750000Y61634000D02*
X9750000Y59500000D01*
X11750000Y19500000D02*
X11750000Y18250000D01*
%TO.N,/12V_2_G_R*%
X6000000Y67090000D02*
X6000000Y65750000D01*
X6000000Y65550000D02*
X8600000Y62950000D01*
X6000000Y65750000D02*
X6000000Y65550000D01*
%TO.N,/12V_G_R*%
X8750000Y14250000D02*
X8750000Y15590000D01*
X6400000Y61050000D02*
X6400000Y60100000D01*
X7500000Y59000000D02*
X9000000Y59000000D01*
X6400000Y60100000D02*
X7500000Y59000000D01*
X8750000Y14250000D02*
X8750000Y13500000D01*
X8750000Y13500000D02*
X8250000Y13000000D01*
X8250000Y13000000D02*
X2500000Y13000000D01*
X2500000Y13000000D02*
X1000000Y11500000D01*
X1000000Y11500000D02*
X1000000Y11290302D01*
X1000000Y11290302D02*
X1000000Y8500000D01*
X1000000Y8500000D02*
X2500000Y7000000D01*
X12217000Y7000000D02*
X13467000Y8250000D01*
X2500000Y7000000D02*
X12217000Y7000000D01*
%TO.N,/TR2_TAP_R*%
X9000000Y69750000D02*
X9000000Y68410000D01*
X7750000Y67864000D02*
X8296000Y68410000D01*
X8296000Y68410000D02*
X9000000Y68410000D01*
X5500000Y62000000D02*
X5250000Y62250000D01*
X6400000Y62000000D02*
X5500000Y62000000D01*
X7750000Y66750000D02*
X7750000Y67864000D01*
%TD*%
%TO.N,+5V*%
G36*
X2873000Y55697394D02*
G01*
X2873000Y39931526D01*
X2815663Y39900879D01*
X2765384Y39859616D01*
X2724121Y39809337D01*
X2693460Y39751973D01*
X2674578Y39689730D01*
X2668203Y39625000D01*
X2668203Y38375000D01*
X2674578Y38310270D01*
X2693460Y38248027D01*
X2724121Y38190663D01*
X2765384Y38140384D01*
X2815663Y38099121D01*
X2873000Y38068474D01*
X2873000Y36931526D01*
X2815663Y36900879D01*
X2765384Y36859616D01*
X2724121Y36809337D01*
X2693460Y36751973D01*
X2674578Y36689730D01*
X2668203Y36625000D01*
X2668203Y35375000D01*
X2674578Y35310270D01*
X2693460Y35248027D01*
X2724121Y35190663D01*
X2765384Y35140384D01*
X2815663Y35099121D01*
X2873000Y35068474D01*
X2873000Y33302606D01*
X2780594Y33210200D01*
X2613760Y33210200D01*
X2385748Y33164845D01*
X2170966Y33075879D01*
X1977667Y32946721D01*
X1813279Y32782333D01*
X1684121Y32589034D01*
X1595155Y32374252D01*
X1549800Y32146240D01*
X1549800Y31913760D01*
X1595155Y31685748D01*
X1623000Y31618525D01*
X1623000Y29901475D01*
X1595155Y29834252D01*
X1549800Y29606240D01*
X1549800Y29373760D01*
X1595155Y29145748D01*
X1623000Y29078525D01*
X1623000Y27361475D01*
X1595155Y27294252D01*
X1549800Y27066240D01*
X1549800Y26833760D01*
X1595155Y26605748D01*
X1684121Y26390966D01*
X1813279Y26197667D01*
X1977667Y26033279D01*
X2170966Y25904121D01*
X2385748Y25815155D01*
X2613760Y25769800D01*
X2846240Y25769800D01*
X3074252Y25815155D01*
X3213902Y25873000D01*
X3697394Y25873000D01*
X4123000Y25447394D01*
X4123000Y24693145D01*
X4089800Y24526240D01*
X4089800Y24293760D01*
X4123000Y24126855D01*
X4123000Y22864821D01*
X4113460Y22846973D01*
X4094578Y22784730D01*
X4088203Y22720000D01*
X4088203Y21020000D01*
X4094578Y20955270D01*
X4113460Y20893027D01*
X4123000Y20875179D01*
X4123000Y20802606D01*
X3850594Y20530200D01*
X3652306Y20530200D01*
X2970279Y20394536D01*
X2927943Y20377000D01*
X802606Y20377000D01*
X377000Y20802606D01*
X377000Y21676935D01*
X1514234Y21676935D01*
X1532896Y21583115D01*
X1611866Y21355084D01*
X1733806Y21146841D01*
X1894029Y20966389D01*
X2086378Y20820662D01*
X2303461Y20715260D01*
X2536935Y20654234D01*
X2729500Y20734250D01*
X2729500Y21869500D01*
X2730500Y21869500D01*
X2730500Y20734250D01*
X2923065Y20654234D01*
X3156539Y20715260D01*
X3373622Y20820662D01*
X3565971Y20966389D01*
X3726194Y21146841D01*
X3848134Y21355084D01*
X3927104Y21583115D01*
X3945766Y21676935D01*
X3865750Y21869500D01*
X2730500Y21869500D01*
X2729500Y21869500D01*
X1594250Y21869500D01*
X1514234Y21676935D01*
X377000Y21676935D01*
X377000Y22063065D01*
X1514234Y22063065D01*
X1594250Y21870500D01*
X2729500Y21870500D01*
X2729500Y23005750D01*
X2730500Y23005750D01*
X2730500Y21870500D01*
X3865750Y21870500D01*
X3945766Y22063065D01*
X3927104Y22156885D01*
X3848134Y22384916D01*
X3726194Y22593159D01*
X3565971Y22773611D01*
X3373622Y22919338D01*
X3156539Y23024740D01*
X2923065Y23085766D01*
X2730500Y23005750D01*
X2729500Y23005750D01*
X2536935Y23085766D01*
X2303461Y23024740D01*
X2086378Y22919338D01*
X1894029Y22773611D01*
X1733806Y22593159D01*
X1611866Y22384916D01*
X1532896Y22156885D01*
X1514234Y22063065D01*
X377000Y22063065D01*
X377000Y24216935D01*
X1514234Y24216935D01*
X1532896Y24123115D01*
X1611866Y23895084D01*
X1733806Y23686841D01*
X1894029Y23506389D01*
X2086378Y23360662D01*
X2303461Y23255260D01*
X2536935Y23194234D01*
X2729500Y23274250D01*
X2729500Y24409500D01*
X2730500Y24409500D01*
X2730500Y23274250D01*
X2923065Y23194234D01*
X3156539Y23255260D01*
X3373622Y23360662D01*
X3565971Y23506389D01*
X3726194Y23686841D01*
X3848134Y23895084D01*
X3927104Y24123115D01*
X3945766Y24216935D01*
X3865750Y24409500D01*
X2730500Y24409500D01*
X2729500Y24409500D01*
X1594250Y24409500D01*
X1514234Y24216935D01*
X377000Y24216935D01*
X377000Y24603065D01*
X1514234Y24603065D01*
X1594250Y24410500D01*
X2729500Y24410500D01*
X2729500Y25545750D01*
X2730500Y25545750D01*
X2730500Y24410500D01*
X3865750Y24410500D01*
X3945766Y24603065D01*
X3927104Y24696885D01*
X3848134Y24924916D01*
X3726194Y25133159D01*
X3565971Y25313611D01*
X3373622Y25459338D01*
X3156539Y25564740D01*
X2923065Y25625766D01*
X2730500Y25545750D01*
X2729500Y25545750D01*
X2536935Y25625766D01*
X2303461Y25564740D01*
X2086378Y25459338D01*
X1894029Y25313611D01*
X1733806Y25133159D01*
X1611866Y24924916D01*
X1532896Y24696885D01*
X1514234Y24603065D01*
X377000Y24603065D01*
X377000Y35375000D01*
X617157Y35375000D01*
X624513Y35300311D01*
X646299Y35228492D01*
X681678Y35162304D01*
X729289Y35104289D01*
X787304Y35056678D01*
X853492Y35021299D01*
X925311Y34999513D01*
X1000000Y34992157D01*
X1404250Y34994000D01*
X1499500Y35089250D01*
X1499500Y35999500D01*
X1500500Y35999500D01*
X1500500Y35089250D01*
X1595750Y34994000D01*
X2000000Y34992157D01*
X2074689Y34999513D01*
X2146508Y35021299D01*
X2212696Y35056678D01*
X2270711Y35104289D01*
X2318322Y35162304D01*
X2353701Y35228492D01*
X2375487Y35300311D01*
X2382843Y35375000D01*
X2381000Y35904250D01*
X2285750Y35999500D01*
X1500500Y35999500D01*
X1499500Y35999500D01*
X714250Y35999500D01*
X619000Y35904250D01*
X617157Y35375000D01*
X377000Y35375000D01*
X377000Y36625000D01*
X617157Y36625000D01*
X619000Y36095750D01*
X714250Y36000500D01*
X1499500Y36000500D01*
X1499500Y36910750D01*
X1500500Y36910750D01*
X1500500Y36000500D01*
X2285750Y36000500D01*
X2381000Y36095750D01*
X2382843Y36625000D01*
X2375487Y36699689D01*
X2353701Y36771508D01*
X2318322Y36837696D01*
X2270711Y36895711D01*
X2212696Y36943322D01*
X2146508Y36978701D01*
X2074689Y37000487D01*
X2000000Y37007843D01*
X1595750Y37006000D01*
X1500500Y36910750D01*
X1499500Y36910750D01*
X1404250Y37006000D01*
X1000000Y37007843D01*
X925311Y37000487D01*
X853492Y36978701D01*
X787304Y36943322D01*
X729289Y36895711D01*
X681678Y36837696D01*
X646299Y36771508D01*
X624513Y36699689D01*
X617157Y36625000D01*
X377000Y36625000D01*
X377000Y38375000D01*
X617157Y38375000D01*
X624513Y38300311D01*
X646299Y38228492D01*
X681678Y38162304D01*
X729289Y38104289D01*
X787304Y38056678D01*
X853492Y38021299D01*
X925311Y37999513D01*
X1000000Y37992157D01*
X1404250Y37994000D01*
X1499500Y38089250D01*
X1499500Y38999500D01*
X1500500Y38999500D01*
X1500500Y38089250D01*
X1595750Y37994000D01*
X2000000Y37992157D01*
X2074689Y37999513D01*
X2146508Y38021299D01*
X2212696Y38056678D01*
X2270711Y38104289D01*
X2318322Y38162304D01*
X2353701Y38228492D01*
X2375487Y38300311D01*
X2382843Y38375000D01*
X2381000Y38904250D01*
X2285750Y38999500D01*
X1500500Y38999500D01*
X1499500Y38999500D01*
X714250Y38999500D01*
X619000Y38904250D01*
X617157Y38375000D01*
X377000Y38375000D01*
X377000Y39625000D01*
X617157Y39625000D01*
X619000Y39095750D01*
X714250Y39000500D01*
X1499500Y39000500D01*
X1499500Y39910750D01*
X1500500Y39910750D01*
X1500500Y39000500D01*
X2285750Y39000500D01*
X2381000Y39095750D01*
X2382843Y39625000D01*
X2375487Y39699689D01*
X2353701Y39771508D01*
X2318322Y39837696D01*
X2270711Y39895711D01*
X2212696Y39943322D01*
X2146508Y39978701D01*
X2074689Y40000487D01*
X2000000Y40007843D01*
X1595750Y40006000D01*
X1500500Y39910750D01*
X1499500Y39910750D01*
X1404250Y40006000D01*
X1000000Y40007843D01*
X925311Y40000487D01*
X853492Y39978701D01*
X787304Y39943322D01*
X729289Y39895711D01*
X681678Y39837696D01*
X646299Y39771508D01*
X624513Y39699689D01*
X617157Y39625000D01*
X377000Y39625000D01*
X377000Y42650000D01*
X612157Y42650000D01*
X619513Y42575311D01*
X641299Y42503492D01*
X676678Y42437304D01*
X724289Y42379289D01*
X782304Y42331678D01*
X848492Y42296299D01*
X920311Y42274513D01*
X995000Y42267157D01*
X1499250Y42269000D01*
X1594500Y42364250D01*
X1594500Y44999500D01*
X1595500Y44999500D01*
X1595500Y42364250D01*
X1690750Y42269000D01*
X2195000Y42267157D01*
X2269689Y42274513D01*
X2341508Y42296299D01*
X2407696Y42331678D01*
X2465711Y42379289D01*
X2513322Y42437304D01*
X2548701Y42503492D01*
X2570487Y42575311D01*
X2577843Y42650000D01*
X2576000Y44904250D01*
X2480750Y44999500D01*
X1595500Y44999500D01*
X1594500Y44999500D01*
X709250Y44999500D01*
X614000Y44904250D01*
X612157Y42650000D01*
X377000Y42650000D01*
X377000Y47350000D01*
X612157Y47350000D01*
X614000Y45095750D01*
X709250Y45000500D01*
X1594500Y45000500D01*
X1594500Y47635750D01*
X1595500Y47635750D01*
X1595500Y45000500D01*
X2480750Y45000500D01*
X2576000Y45095750D01*
X2577843Y47350000D01*
X2570487Y47424689D01*
X2548701Y47496508D01*
X2513322Y47562696D01*
X2465711Y47620711D01*
X2407696Y47668322D01*
X2341508Y47703701D01*
X2269689Y47725487D01*
X2195000Y47732843D01*
X1690750Y47731000D01*
X1595500Y47635750D01*
X1594500Y47635750D01*
X1499250Y47731000D01*
X995000Y47732843D01*
X920311Y47725487D01*
X848492Y47703701D01*
X782304Y47668322D01*
X724289Y47620711D01*
X676678Y47562696D01*
X641299Y47496508D01*
X619513Y47424689D01*
X612157Y47350000D01*
X377000Y47350000D01*
X377000Y50125000D01*
X867157Y50125000D01*
X874513Y50050311D01*
X896299Y49978492D01*
X931678Y49912304D01*
X979289Y49854289D01*
X1037304Y49806678D01*
X1103492Y49771299D01*
X1175311Y49749513D01*
X1250000Y49742157D01*
X1654250Y49744000D01*
X1749500Y49839250D01*
X1749500Y50749500D01*
X1750500Y50749500D01*
X1750500Y49839250D01*
X1845750Y49744000D01*
X2250000Y49742157D01*
X2324689Y49749513D01*
X2396508Y49771299D01*
X2462696Y49806678D01*
X2520711Y49854289D01*
X2568322Y49912304D01*
X2603701Y49978492D01*
X2625487Y50050311D01*
X2632843Y50125000D01*
X2631000Y50654250D01*
X2535750Y50749500D01*
X1750500Y50749500D01*
X1749500Y50749500D01*
X964250Y50749500D01*
X869000Y50654250D01*
X867157Y50125000D01*
X377000Y50125000D01*
X377000Y51375000D01*
X867157Y51375000D01*
X869000Y50845750D01*
X964250Y50750500D01*
X1749500Y50750500D01*
X1749500Y51660750D01*
X1750500Y51660750D01*
X1750500Y50750500D01*
X2535750Y50750500D01*
X2631000Y50845750D01*
X2632843Y51375000D01*
X2625487Y51449689D01*
X2603701Y51521508D01*
X2568322Y51587696D01*
X2520711Y51645711D01*
X2462696Y51693322D01*
X2396508Y51728701D01*
X2324689Y51750487D01*
X2250000Y51757843D01*
X1845750Y51756000D01*
X1750500Y51660750D01*
X1749500Y51660750D01*
X1654250Y51756000D01*
X1250000Y51757843D01*
X1175311Y51750487D01*
X1103492Y51728701D01*
X1037304Y51693322D01*
X979289Y51645711D01*
X931678Y51587696D01*
X896299Y51521508D01*
X874513Y51449689D01*
X867157Y51375000D01*
X377000Y51375000D01*
X377000Y53125000D01*
X867157Y53125000D01*
X874513Y53050311D01*
X896299Y52978492D01*
X931678Y52912304D01*
X979289Y52854289D01*
X1037304Y52806678D01*
X1103492Y52771299D01*
X1175311Y52749513D01*
X1250000Y52742157D01*
X1654250Y52744000D01*
X1749500Y52839250D01*
X1749500Y53749500D01*
X1750500Y53749500D01*
X1750500Y52839250D01*
X1845750Y52744000D01*
X2250000Y52742157D01*
X2324689Y52749513D01*
X2396508Y52771299D01*
X2462696Y52806678D01*
X2520711Y52854289D01*
X2568322Y52912304D01*
X2603701Y52978492D01*
X2625487Y53050311D01*
X2632843Y53125000D01*
X2631000Y53654250D01*
X2535750Y53749500D01*
X1750500Y53749500D01*
X1749500Y53749500D01*
X964250Y53749500D01*
X869000Y53654250D01*
X867157Y53125000D01*
X377000Y53125000D01*
X377000Y54375000D01*
X867157Y54375000D01*
X869000Y53845750D01*
X964250Y53750500D01*
X1749500Y53750500D01*
X1749500Y54660750D01*
X1750500Y54660750D01*
X1750500Y53750500D01*
X2535750Y53750500D01*
X2631000Y53845750D01*
X2632843Y54375000D01*
X2625487Y54449689D01*
X2603701Y54521508D01*
X2568322Y54587696D01*
X2520711Y54645711D01*
X2462696Y54693322D01*
X2396508Y54728701D01*
X2324689Y54750487D01*
X2250000Y54757843D01*
X1845750Y54756000D01*
X1750500Y54660750D01*
X1749500Y54660750D01*
X1654250Y54756000D01*
X1250000Y54757843D01*
X1175311Y54750487D01*
X1103492Y54728701D01*
X1037304Y54693322D01*
X979289Y54645711D01*
X931678Y54587696D01*
X896299Y54521508D01*
X874513Y54449689D01*
X867157Y54375000D01*
X377000Y54375000D01*
X377000Y55697394D01*
X802606Y56123000D01*
X2447394Y56123000D01*
X2873000Y55697394D01*
G37*
X2873000Y55697394D02*
X2873000Y39931526D01*
X2815663Y39900879D01*
X2765384Y39859616D01*
X2724121Y39809337D01*
X2693460Y39751973D01*
X2674578Y39689730D01*
X2668203Y39625000D01*
X2668203Y38375000D01*
X2674578Y38310270D01*
X2693460Y38248027D01*
X2724121Y38190663D01*
X2765384Y38140384D01*
X2815663Y38099121D01*
X2873000Y38068474D01*
X2873000Y36931526D01*
X2815663Y36900879D01*
X2765384Y36859616D01*
X2724121Y36809337D01*
X2693460Y36751973D01*
X2674578Y36689730D01*
X2668203Y36625000D01*
X2668203Y35375000D01*
X2674578Y35310270D01*
X2693460Y35248027D01*
X2724121Y35190663D01*
X2765384Y35140384D01*
X2815663Y35099121D01*
X2873000Y35068474D01*
X2873000Y33302606D01*
X2780594Y33210200D01*
X2613760Y33210200D01*
X2385748Y33164845D01*
X2170966Y33075879D01*
X1977667Y32946721D01*
X1813279Y32782333D01*
X1684121Y32589034D01*
X1595155Y32374252D01*
X1549800Y32146240D01*
X1549800Y31913760D01*
X1595155Y31685748D01*
X1623000Y31618525D01*
X1623000Y29901475D01*
X1595155Y29834252D01*
X1549800Y29606240D01*
X1549800Y29373760D01*
X1595155Y29145748D01*
X1623000Y29078525D01*
X1623000Y27361475D01*
X1595155Y27294252D01*
X1549800Y27066240D01*
X1549800Y26833760D01*
X1595155Y26605748D01*
X1684121Y26390966D01*
X1813279Y26197667D01*
X1977667Y26033279D01*
X2170966Y25904121D01*
X2385748Y25815155D01*
X2613760Y25769800D01*
X2846240Y25769800D01*
X3074252Y25815155D01*
X3213902Y25873000D01*
X3697394Y25873000D01*
X4123000Y25447394D01*
X4123000Y24693145D01*
X4089800Y24526240D01*
X4089800Y24293760D01*
X4123000Y24126855D01*
X4123000Y22864821D01*
X4113460Y22846973D01*
X4094578Y22784730D01*
X4088203Y22720000D01*
X4088203Y21020000D01*
X4094578Y20955270D01*
X4113460Y20893027D01*
X4123000Y20875179D01*
X4123000Y20802606D01*
X3850594Y20530200D01*
X3652306Y20530200D01*
X2970279Y20394536D01*
X2927943Y20377000D01*
X802606Y20377000D01*
X377000Y20802606D01*
X377000Y21676935D01*
X1514234Y21676935D01*
X1532896Y21583115D01*
X1611866Y21355084D01*
X1733806Y21146841D01*
X1894029Y20966389D01*
X2086378Y20820662D01*
X2303461Y20715260D01*
X2536935Y20654234D01*
X2729500Y20734250D01*
X2729500Y21869500D01*
X2730500Y21869500D01*
X2730500Y20734250D01*
X2923065Y20654234D01*
X3156539Y20715260D01*
X3373622Y20820662D01*
X3565971Y20966389D01*
X3726194Y21146841D01*
X3848134Y21355084D01*
X3927104Y21583115D01*
X3945766Y21676935D01*
X3865750Y21869500D01*
X2730500Y21869500D01*
X2729500Y21869500D01*
X1594250Y21869500D01*
X1514234Y21676935D01*
X377000Y21676935D01*
X377000Y22063065D01*
X1514234Y22063065D01*
X1594250Y21870500D01*
X2729500Y21870500D01*
X2729500Y23005750D01*
X2730500Y23005750D01*
X2730500Y21870500D01*
X3865750Y21870500D01*
X3945766Y22063065D01*
X3927104Y22156885D01*
X3848134Y22384916D01*
X3726194Y22593159D01*
X3565971Y22773611D01*
X3373622Y22919338D01*
X3156539Y23024740D01*
X2923065Y23085766D01*
X2730500Y23005750D01*
X2729500Y23005750D01*
X2536935Y23085766D01*
X2303461Y23024740D01*
X2086378Y22919338D01*
X1894029Y22773611D01*
X1733806Y22593159D01*
X1611866Y22384916D01*
X1532896Y22156885D01*
X1514234Y22063065D01*
X377000Y22063065D01*
X377000Y24216935D01*
X1514234Y24216935D01*
X1532896Y24123115D01*
X1611866Y23895084D01*
X1733806Y23686841D01*
X1894029Y23506389D01*
X2086378Y23360662D01*
X2303461Y23255260D01*
X2536935Y23194234D01*
X2729500Y23274250D01*
X2729500Y24409500D01*
X2730500Y24409500D01*
X2730500Y23274250D01*
X2923065Y23194234D01*
X3156539Y23255260D01*
X3373622Y23360662D01*
X3565971Y23506389D01*
X3726194Y23686841D01*
X3848134Y23895084D01*
X3927104Y24123115D01*
X3945766Y24216935D01*
X3865750Y24409500D01*
X2730500Y24409500D01*
X2729500Y24409500D01*
X1594250Y24409500D01*
X1514234Y24216935D01*
X377000Y24216935D01*
X377000Y24603065D01*
X1514234Y24603065D01*
X1594250Y24410500D01*
X2729500Y24410500D01*
X2729500Y25545750D01*
X2730500Y25545750D01*
X2730500Y24410500D01*
X3865750Y24410500D01*
X3945766Y24603065D01*
X3927104Y24696885D01*
X3848134Y24924916D01*
X3726194Y25133159D01*
X3565971Y25313611D01*
X3373622Y25459338D01*
X3156539Y25564740D01*
X2923065Y25625766D01*
X2730500Y25545750D01*
X2729500Y25545750D01*
X2536935Y25625766D01*
X2303461Y25564740D01*
X2086378Y25459338D01*
X1894029Y25313611D01*
X1733806Y25133159D01*
X1611866Y24924916D01*
X1532896Y24696885D01*
X1514234Y24603065D01*
X377000Y24603065D01*
X377000Y35375000D01*
X617157Y35375000D01*
X624513Y35300311D01*
X646299Y35228492D01*
X681678Y35162304D01*
X729289Y35104289D01*
X787304Y35056678D01*
X853492Y35021299D01*
X925311Y34999513D01*
X1000000Y34992157D01*
X1404250Y34994000D01*
X1499500Y35089250D01*
X1499500Y35999500D01*
X1500500Y35999500D01*
X1500500Y35089250D01*
X1595750Y34994000D01*
X2000000Y34992157D01*
X2074689Y34999513D01*
X2146508Y35021299D01*
X2212696Y35056678D01*
X2270711Y35104289D01*
X2318322Y35162304D01*
X2353701Y35228492D01*
X2375487Y35300311D01*
X2382843Y35375000D01*
X2381000Y35904250D01*
X2285750Y35999500D01*
X1500500Y35999500D01*
X1499500Y35999500D01*
X714250Y35999500D01*
X619000Y35904250D01*
X617157Y35375000D01*
X377000Y35375000D01*
X377000Y36625000D01*
X617157Y36625000D01*
X619000Y36095750D01*
X714250Y36000500D01*
X1499500Y36000500D01*
X1499500Y36910750D01*
X1500500Y36910750D01*
X1500500Y36000500D01*
X2285750Y36000500D01*
X2381000Y36095750D01*
X2382843Y36625000D01*
X2375487Y36699689D01*
X2353701Y36771508D01*
X2318322Y36837696D01*
X2270711Y36895711D01*
X2212696Y36943322D01*
X2146508Y36978701D01*
X2074689Y37000487D01*
X2000000Y37007843D01*
X1595750Y37006000D01*
X1500500Y36910750D01*
X1499500Y36910750D01*
X1404250Y37006000D01*
X1000000Y37007843D01*
X925311Y37000487D01*
X853492Y36978701D01*
X787304Y36943322D01*
X729289Y36895711D01*
X681678Y36837696D01*
X646299Y36771508D01*
X624513Y36699689D01*
X617157Y36625000D01*
X377000Y36625000D01*
X377000Y38375000D01*
X617157Y38375000D01*
X624513Y38300311D01*
X646299Y38228492D01*
X681678Y38162304D01*
X729289Y38104289D01*
X787304Y38056678D01*
X853492Y38021299D01*
X925311Y37999513D01*
X1000000Y37992157D01*
X1404250Y37994000D01*
X1499500Y38089250D01*
X1499500Y38999500D01*
X1500500Y38999500D01*
X1500500Y38089250D01*
X1595750Y37994000D01*
X2000000Y37992157D01*
X2074689Y37999513D01*
X2146508Y38021299D01*
X2212696Y38056678D01*
X2270711Y38104289D01*
X2318322Y38162304D01*
X2353701Y38228492D01*
X2375487Y38300311D01*
X2382843Y38375000D01*
X2381000Y38904250D01*
X2285750Y38999500D01*
X1500500Y38999500D01*
X1499500Y38999500D01*
X714250Y38999500D01*
X619000Y38904250D01*
X617157Y38375000D01*
X377000Y38375000D01*
X377000Y39625000D01*
X617157Y39625000D01*
X619000Y39095750D01*
X714250Y39000500D01*
X1499500Y39000500D01*
X1499500Y39910750D01*
X1500500Y39910750D01*
X1500500Y39000500D01*
X2285750Y39000500D01*
X2381000Y39095750D01*
X2382843Y39625000D01*
X2375487Y39699689D01*
X2353701Y39771508D01*
X2318322Y39837696D01*
X2270711Y39895711D01*
X2212696Y39943322D01*
X2146508Y39978701D01*
X2074689Y40000487D01*
X2000000Y40007843D01*
X1595750Y40006000D01*
X1500500Y39910750D01*
X1499500Y39910750D01*
X1404250Y40006000D01*
X1000000Y40007843D01*
X925311Y40000487D01*
X853492Y39978701D01*
X787304Y39943322D01*
X729289Y39895711D01*
X681678Y39837696D01*
X646299Y39771508D01*
X624513Y39699689D01*
X617157Y39625000D01*
X377000Y39625000D01*
X377000Y42650000D01*
X612157Y42650000D01*
X619513Y42575311D01*
X641299Y42503492D01*
X676678Y42437304D01*
X724289Y42379289D01*
X782304Y42331678D01*
X848492Y42296299D01*
X920311Y42274513D01*
X995000Y42267157D01*
X1499250Y42269000D01*
X1594500Y42364250D01*
X1594500Y44999500D01*
X1595500Y44999500D01*
X1595500Y42364250D01*
X1690750Y42269000D01*
X2195000Y42267157D01*
X2269689Y42274513D01*
X2341508Y42296299D01*
X2407696Y42331678D01*
X2465711Y42379289D01*
X2513322Y42437304D01*
X2548701Y42503492D01*
X2570487Y42575311D01*
X2577843Y42650000D01*
X2576000Y44904250D01*
X2480750Y44999500D01*
X1595500Y44999500D01*
X1594500Y44999500D01*
X709250Y44999500D01*
X614000Y44904250D01*
X612157Y42650000D01*
X377000Y42650000D01*
X377000Y47350000D01*
X612157Y47350000D01*
X614000Y45095750D01*
X709250Y45000500D01*
X1594500Y45000500D01*
X1594500Y47635750D01*
X1595500Y47635750D01*
X1595500Y45000500D01*
X2480750Y45000500D01*
X2576000Y45095750D01*
X2577843Y47350000D01*
X2570487Y47424689D01*
X2548701Y47496508D01*
X2513322Y47562696D01*
X2465711Y47620711D01*
X2407696Y47668322D01*
X2341508Y47703701D01*
X2269689Y47725487D01*
X2195000Y47732843D01*
X1690750Y47731000D01*
X1595500Y47635750D01*
X1594500Y47635750D01*
X1499250Y47731000D01*
X995000Y47732843D01*
X920311Y47725487D01*
X848492Y47703701D01*
X782304Y47668322D01*
X724289Y47620711D01*
X676678Y47562696D01*
X641299Y47496508D01*
X619513Y47424689D01*
X612157Y47350000D01*
X377000Y47350000D01*
X377000Y50125000D01*
X867157Y50125000D01*
X874513Y50050311D01*
X896299Y49978492D01*
X931678Y49912304D01*
X979289Y49854289D01*
X1037304Y49806678D01*
X1103492Y49771299D01*
X1175311Y49749513D01*
X1250000Y49742157D01*
X1654250Y49744000D01*
X1749500Y49839250D01*
X1749500Y50749500D01*
X1750500Y50749500D01*
X1750500Y49839250D01*
X1845750Y49744000D01*
X2250000Y49742157D01*
X2324689Y49749513D01*
X2396508Y49771299D01*
X2462696Y49806678D01*
X2520711Y49854289D01*
X2568322Y49912304D01*
X2603701Y49978492D01*
X2625487Y50050311D01*
X2632843Y50125000D01*
X2631000Y50654250D01*
X2535750Y50749500D01*
X1750500Y50749500D01*
X1749500Y50749500D01*
X964250Y50749500D01*
X869000Y50654250D01*
X867157Y50125000D01*
X377000Y50125000D01*
X377000Y51375000D01*
X867157Y51375000D01*
X869000Y50845750D01*
X964250Y50750500D01*
X1749500Y50750500D01*
X1749500Y51660750D01*
X1750500Y51660750D01*
X1750500Y50750500D01*
X2535750Y50750500D01*
X2631000Y50845750D01*
X2632843Y51375000D01*
X2625487Y51449689D01*
X2603701Y51521508D01*
X2568322Y51587696D01*
X2520711Y51645711D01*
X2462696Y51693322D01*
X2396508Y51728701D01*
X2324689Y51750487D01*
X2250000Y51757843D01*
X1845750Y51756000D01*
X1750500Y51660750D01*
X1749500Y51660750D01*
X1654250Y51756000D01*
X1250000Y51757843D01*
X1175311Y51750487D01*
X1103492Y51728701D01*
X1037304Y51693322D01*
X979289Y51645711D01*
X931678Y51587696D01*
X896299Y51521508D01*
X874513Y51449689D01*
X867157Y51375000D01*
X377000Y51375000D01*
X377000Y53125000D01*
X867157Y53125000D01*
X874513Y53050311D01*
X896299Y52978492D01*
X931678Y52912304D01*
X979289Y52854289D01*
X1037304Y52806678D01*
X1103492Y52771299D01*
X1175311Y52749513D01*
X1250000Y52742157D01*
X1654250Y52744000D01*
X1749500Y52839250D01*
X1749500Y53749500D01*
X1750500Y53749500D01*
X1750500Y52839250D01*
X1845750Y52744000D01*
X2250000Y52742157D01*
X2324689Y52749513D01*
X2396508Y52771299D01*
X2462696Y52806678D01*
X2520711Y52854289D01*
X2568322Y52912304D01*
X2603701Y52978492D01*
X2625487Y53050311D01*
X2632843Y53125000D01*
X2631000Y53654250D01*
X2535750Y53749500D01*
X1750500Y53749500D01*
X1749500Y53749500D01*
X964250Y53749500D01*
X869000Y53654250D01*
X867157Y53125000D01*
X377000Y53125000D01*
X377000Y54375000D01*
X867157Y54375000D01*
X869000Y53845750D01*
X964250Y53750500D01*
X1749500Y53750500D01*
X1749500Y54660750D01*
X1750500Y54660750D01*
X1750500Y53750500D01*
X2535750Y53750500D01*
X2631000Y53845750D01*
X2632843Y54375000D01*
X2625487Y54449689D01*
X2603701Y54521508D01*
X2568322Y54587696D01*
X2520711Y54645711D01*
X2462696Y54693322D01*
X2396508Y54728701D01*
X2324689Y54750487D01*
X2250000Y54757843D01*
X1845750Y54756000D01*
X1750500Y54660750D01*
X1749500Y54660750D01*
X1654250Y54756000D01*
X1250000Y54757843D01*
X1175311Y54750487D01*
X1103492Y54728701D01*
X1037304Y54693322D01*
X979289Y54645711D01*
X931678Y54587696D01*
X896299Y54521508D01*
X874513Y54449689D01*
X867157Y54375000D01*
X377000Y54375000D01*
X377000Y55697394D01*
X802606Y56123000D01*
X2447394Y56123000D01*
X2873000Y55697394D01*
%TO.N,/IC1_SW*%
G36*
X6915663Y50349121D02*
G01*
X6973027Y50318460D01*
X7035270Y50299578D01*
X7042801Y50298836D01*
X7042800Y48022450D01*
X7040589Y48000000D01*
X7042800Y47977550D01*
X7042800Y47977541D01*
X7049415Y47910374D01*
X7075559Y47824192D01*
X7118013Y47744765D01*
X7175147Y47675147D01*
X7192597Y47660826D01*
X7263900Y47589523D01*
X7199215Y47562729D01*
X7095211Y47493236D01*
X7006764Y47404789D01*
X6937271Y47300785D01*
X6889403Y47185223D01*
X6865000Y47062542D01*
X6865000Y46937458D01*
X6889403Y46814777D01*
X6937271Y46699215D01*
X7006764Y46595211D01*
X7095211Y46506764D01*
X7199215Y46437271D01*
X7314777Y46389403D01*
X7437458Y46365000D01*
X7562542Y46365000D01*
X7685223Y46389403D01*
X7800785Y46437271D01*
X7904789Y46506764D01*
X7973118Y46575093D01*
X7974578Y46560270D01*
X7993460Y46498027D01*
X8024121Y46440663D01*
X8065384Y46390384D01*
X8115663Y46349121D01*
X8173027Y46318460D01*
X8194690Y46311888D01*
X8187271Y46300785D01*
X8139403Y46185223D01*
X8115000Y46062542D01*
X8115000Y45937458D01*
X8139403Y45814777D01*
X8187271Y45699215D01*
X8256764Y45595211D01*
X8345211Y45506764D01*
X8449215Y45437271D01*
X8564777Y45389403D01*
X8687458Y45365000D01*
X8812542Y45365000D01*
X8935223Y45389403D01*
X9050785Y45437271D01*
X9154789Y45506764D01*
X9243236Y45595211D01*
X9312729Y45699215D01*
X9360597Y45814777D01*
X9385000Y45937458D01*
X9385000Y45969188D01*
X9439730Y45974578D01*
X9501973Y45993460D01*
X9559337Y46024121D01*
X9609616Y46065384D01*
X9650879Y46115663D01*
X9681540Y46173027D01*
X9700422Y46235270D01*
X9706797Y46300000D01*
X9706797Y46473448D01*
X9707200Y46477540D01*
X9707200Y46477550D01*
X9709411Y46500000D01*
X9707200Y46522450D01*
X9707200Y46571450D01*
X9750000Y46614250D01*
X9833548Y46530702D01*
X9843460Y46498027D01*
X9874121Y46440663D01*
X9915384Y46390384D01*
X9965663Y46349121D01*
X10023027Y46318460D01*
X10085270Y46299578D01*
X10123000Y46295862D01*
X10123000Y45302606D01*
X9697394Y44877000D01*
X9029801Y44877000D01*
X9025879Y44884337D01*
X8984616Y44934616D01*
X8934337Y44975879D01*
X8876973Y45006540D01*
X8814730Y45025422D01*
X8750000Y45031797D01*
X8250000Y45031797D01*
X8185270Y45025422D01*
X8123027Y45006540D01*
X8065663Y44975879D01*
X8015384Y44934616D01*
X7974121Y44884337D01*
X7970199Y44877000D01*
X7529801Y44877000D01*
X7525879Y44884337D01*
X7484616Y44934616D01*
X7434337Y44975879D01*
X7376973Y45006540D01*
X7314730Y45025422D01*
X7250000Y45031797D01*
X6750000Y45031797D01*
X6685270Y45025422D01*
X6623027Y45006540D01*
X6565663Y44975879D01*
X6515384Y44934616D01*
X6474121Y44884337D01*
X6443460Y44826973D01*
X6424578Y44764730D01*
X6418203Y44700000D01*
X6418203Y43800000D01*
X6424578Y43735270D01*
X6443460Y43673027D01*
X6474121Y43615663D01*
X6515384Y43565384D01*
X6565663Y43524121D01*
X6623027Y43493460D01*
X6685270Y43474578D01*
X6750000Y43468203D01*
X7123000Y43468203D01*
X7123000Y42531797D01*
X6750000Y42531797D01*
X6685270Y42525422D01*
X6623027Y42506540D01*
X6565663Y42475879D01*
X6515384Y42434616D01*
X6474121Y42384337D01*
X6443460Y42326973D01*
X6424578Y42264730D01*
X6418203Y42200000D01*
X6418203Y41300000D01*
X6418942Y41292501D01*
X6345211Y41243236D01*
X6256764Y41154789D01*
X6187271Y41050785D01*
X6139403Y40935223D01*
X6115000Y40812542D01*
X6115000Y40687458D01*
X6139403Y40564777D01*
X6183963Y40457200D01*
X5439377Y40457200D01*
X5339174Y40557403D01*
X5324853Y40574853D01*
X5255236Y40631987D01*
X5175809Y40674441D01*
X5089627Y40700585D01*
X5022460Y40707200D01*
X5022450Y40707200D01*
X5000000Y40709411D01*
X4977550Y40707200D01*
X3627000Y40707200D01*
X3627000Y42650000D01*
X3922157Y42650000D01*
X3929513Y42575311D01*
X3951299Y42503492D01*
X3986678Y42437304D01*
X4034289Y42379289D01*
X4092304Y42331678D01*
X4158492Y42296299D01*
X4230311Y42274513D01*
X4305000Y42267157D01*
X4809250Y42269000D01*
X4904500Y42364250D01*
X4904500Y44999500D01*
X4905500Y44999500D01*
X4905500Y42364250D01*
X5000750Y42269000D01*
X5505000Y42267157D01*
X5579689Y42274513D01*
X5651508Y42296299D01*
X5717696Y42331678D01*
X5775711Y42379289D01*
X5823322Y42437304D01*
X5858701Y42503492D01*
X5880487Y42575311D01*
X5887843Y42650000D01*
X5886000Y44904250D01*
X5790750Y44999500D01*
X4905500Y44999500D01*
X4904500Y44999500D01*
X4019250Y44999500D01*
X3924000Y44904250D01*
X3922157Y42650000D01*
X3627000Y42650000D01*
X3627000Y47350000D01*
X3922157Y47350000D01*
X3924000Y45095750D01*
X4019250Y45000500D01*
X4904500Y45000500D01*
X4904500Y47635750D01*
X4905500Y47635750D01*
X4905500Y45000500D01*
X5790750Y45000500D01*
X5886000Y45095750D01*
X5887843Y47350000D01*
X5880487Y47424689D01*
X5858701Y47496508D01*
X5823322Y47562696D01*
X5775711Y47620711D01*
X5717696Y47668322D01*
X5651508Y47703701D01*
X5579689Y47725487D01*
X5505000Y47732843D01*
X5000750Y47731000D01*
X4905500Y47635750D01*
X4904500Y47635750D01*
X4809250Y47731000D01*
X4305000Y47732843D01*
X4230311Y47725487D01*
X4158492Y47703701D01*
X4092304Y47668322D01*
X4034289Y47620711D01*
X3986678Y47562696D01*
X3951299Y47496508D01*
X3929513Y47424689D01*
X3922157Y47350000D01*
X3627000Y47350000D01*
X3627000Y49793203D01*
X4250000Y49793203D01*
X4314730Y49799578D01*
X4376973Y49818460D01*
X4434337Y49849121D01*
X4479426Y49886125D01*
X4506764Y49845211D01*
X4595211Y49756764D01*
X4699215Y49687271D01*
X4814777Y49639403D01*
X4937458Y49615000D01*
X5062542Y49615000D01*
X5185223Y49639403D01*
X5300785Y49687271D01*
X5404789Y49756764D01*
X5493236Y49845211D01*
X5500000Y49855334D01*
X5506764Y49845211D01*
X5595211Y49756764D01*
X5699215Y49687271D01*
X5814777Y49639403D01*
X5937458Y49615000D01*
X6062542Y49615000D01*
X6185223Y49639403D01*
X6300785Y49687271D01*
X6404789Y49756764D01*
X6493236Y49845211D01*
X6562729Y49949215D01*
X6610597Y50064777D01*
X6635000Y50187458D01*
X6635000Y50312542D01*
X6622974Y50373000D01*
X6886566Y50373000D01*
X6915663Y50349121D01*
G37*
X6915663Y50349121D02*
X6973027Y50318460D01*
X7035270Y50299578D01*
X7042801Y50298836D01*
X7042800Y48022450D01*
X7040589Y48000000D01*
X7042800Y47977550D01*
X7042800Y47977541D01*
X7049415Y47910374D01*
X7075559Y47824192D01*
X7118013Y47744765D01*
X7175147Y47675147D01*
X7192597Y47660826D01*
X7263900Y47589523D01*
X7199215Y47562729D01*
X7095211Y47493236D01*
X7006764Y47404789D01*
X6937271Y47300785D01*
X6889403Y47185223D01*
X6865000Y47062542D01*
X6865000Y46937458D01*
X6889403Y46814777D01*
X6937271Y46699215D01*
X7006764Y46595211D01*
X7095211Y46506764D01*
X7199215Y46437271D01*
X7314777Y46389403D01*
X7437458Y46365000D01*
X7562542Y46365000D01*
X7685223Y46389403D01*
X7800785Y46437271D01*
X7904789Y46506764D01*
X7973118Y46575093D01*
X7974578Y46560270D01*
X7993460Y46498027D01*
X8024121Y46440663D01*
X8065384Y46390384D01*
X8115663Y46349121D01*
X8173027Y46318460D01*
X8194690Y46311888D01*
X8187271Y46300785D01*
X8139403Y46185223D01*
X8115000Y46062542D01*
X8115000Y45937458D01*
X8139403Y45814777D01*
X8187271Y45699215D01*
X8256764Y45595211D01*
X8345211Y45506764D01*
X8449215Y45437271D01*
X8564777Y45389403D01*
X8687458Y45365000D01*
X8812542Y45365000D01*
X8935223Y45389403D01*
X9050785Y45437271D01*
X9154789Y45506764D01*
X9243236Y45595211D01*
X9312729Y45699215D01*
X9360597Y45814777D01*
X9385000Y45937458D01*
X9385000Y45969188D01*
X9439730Y45974578D01*
X9501973Y45993460D01*
X9559337Y46024121D01*
X9609616Y46065384D01*
X9650879Y46115663D01*
X9681540Y46173027D01*
X9700422Y46235270D01*
X9706797Y46300000D01*
X9706797Y46473448D01*
X9707200Y46477540D01*
X9707200Y46477550D01*
X9709411Y46500000D01*
X9707200Y46522450D01*
X9707200Y46571450D01*
X9750000Y46614250D01*
X9833548Y46530702D01*
X9843460Y46498027D01*
X9874121Y46440663D01*
X9915384Y46390384D01*
X9965663Y46349121D01*
X10023027Y46318460D01*
X10085270Y46299578D01*
X10123000Y46295862D01*
X10123000Y45302606D01*
X9697394Y44877000D01*
X9029801Y44877000D01*
X9025879Y44884337D01*
X8984616Y44934616D01*
X8934337Y44975879D01*
X8876973Y45006540D01*
X8814730Y45025422D01*
X8750000Y45031797D01*
X8250000Y45031797D01*
X8185270Y45025422D01*
X8123027Y45006540D01*
X8065663Y44975879D01*
X8015384Y44934616D01*
X7974121Y44884337D01*
X7970199Y44877000D01*
X7529801Y44877000D01*
X7525879Y44884337D01*
X7484616Y44934616D01*
X7434337Y44975879D01*
X7376973Y45006540D01*
X7314730Y45025422D01*
X7250000Y45031797D01*
X6750000Y45031797D01*
X6685270Y45025422D01*
X6623027Y45006540D01*
X6565663Y44975879D01*
X6515384Y44934616D01*
X6474121Y44884337D01*
X6443460Y44826973D01*
X6424578Y44764730D01*
X6418203Y44700000D01*
X6418203Y43800000D01*
X6424578Y43735270D01*
X6443460Y43673027D01*
X6474121Y43615663D01*
X6515384Y43565384D01*
X6565663Y43524121D01*
X6623027Y43493460D01*
X6685270Y43474578D01*
X6750000Y43468203D01*
X7123000Y43468203D01*
X7123000Y42531797D01*
X6750000Y42531797D01*
X6685270Y42525422D01*
X6623027Y42506540D01*
X6565663Y42475879D01*
X6515384Y42434616D01*
X6474121Y42384337D01*
X6443460Y42326973D01*
X6424578Y42264730D01*
X6418203Y42200000D01*
X6418203Y41300000D01*
X6418942Y41292501D01*
X6345211Y41243236D01*
X6256764Y41154789D01*
X6187271Y41050785D01*
X6139403Y40935223D01*
X6115000Y40812542D01*
X6115000Y40687458D01*
X6139403Y40564777D01*
X6183963Y40457200D01*
X5439377Y40457200D01*
X5339174Y40557403D01*
X5324853Y40574853D01*
X5255236Y40631987D01*
X5175809Y40674441D01*
X5089627Y40700585D01*
X5022460Y40707200D01*
X5022450Y40707200D01*
X5000000Y40709411D01*
X4977550Y40707200D01*
X3627000Y40707200D01*
X3627000Y42650000D01*
X3922157Y42650000D01*
X3929513Y42575311D01*
X3951299Y42503492D01*
X3986678Y42437304D01*
X4034289Y42379289D01*
X4092304Y42331678D01*
X4158492Y42296299D01*
X4230311Y42274513D01*
X4305000Y42267157D01*
X4809250Y42269000D01*
X4904500Y42364250D01*
X4904500Y44999500D01*
X4905500Y44999500D01*
X4905500Y42364250D01*
X5000750Y42269000D01*
X5505000Y42267157D01*
X5579689Y42274513D01*
X5651508Y42296299D01*
X5717696Y42331678D01*
X5775711Y42379289D01*
X5823322Y42437304D01*
X5858701Y42503492D01*
X5880487Y42575311D01*
X5887843Y42650000D01*
X5886000Y44904250D01*
X5790750Y44999500D01*
X4905500Y44999500D01*
X4904500Y44999500D01*
X4019250Y44999500D01*
X3924000Y44904250D01*
X3922157Y42650000D01*
X3627000Y42650000D01*
X3627000Y47350000D01*
X3922157Y47350000D01*
X3924000Y45095750D01*
X4019250Y45000500D01*
X4904500Y45000500D01*
X4904500Y47635750D01*
X4905500Y47635750D01*
X4905500Y45000500D01*
X5790750Y45000500D01*
X5886000Y45095750D01*
X5887843Y47350000D01*
X5880487Y47424689D01*
X5858701Y47496508D01*
X5823322Y47562696D01*
X5775711Y47620711D01*
X5717696Y47668322D01*
X5651508Y47703701D01*
X5579689Y47725487D01*
X5505000Y47732843D01*
X5000750Y47731000D01*
X4905500Y47635750D01*
X4904500Y47635750D01*
X4809250Y47731000D01*
X4305000Y47732843D01*
X4230311Y47725487D01*
X4158492Y47703701D01*
X4092304Y47668322D01*
X4034289Y47620711D01*
X3986678Y47562696D01*
X3951299Y47496508D01*
X3929513Y47424689D01*
X3922157Y47350000D01*
X3627000Y47350000D01*
X3627000Y49793203D01*
X4250000Y49793203D01*
X4314730Y49799578D01*
X4376973Y49818460D01*
X4434337Y49849121D01*
X4479426Y49886125D01*
X4506764Y49845211D01*
X4595211Y49756764D01*
X4699215Y49687271D01*
X4814777Y49639403D01*
X4937458Y49615000D01*
X5062542Y49615000D01*
X5185223Y49639403D01*
X5300785Y49687271D01*
X5404789Y49756764D01*
X5493236Y49845211D01*
X5500000Y49855334D01*
X5506764Y49845211D01*
X5595211Y49756764D01*
X5699215Y49687271D01*
X5814777Y49639403D01*
X5937458Y49615000D01*
X6062542Y49615000D01*
X6185223Y49639403D01*
X6300785Y49687271D01*
X6404789Y49756764D01*
X6493236Y49845211D01*
X6562729Y49949215D01*
X6610597Y50064777D01*
X6635000Y50187458D01*
X6635000Y50312542D01*
X6622974Y50373000D01*
X6886566Y50373000D01*
X6915663Y50349121D01*
G36*
X9770500Y47549500D02*
G01*
X9729500Y47549500D01*
X9729500Y47550500D01*
X9770500Y47550500D01*
X9770500Y47549500D01*
G37*
X9770500Y47549500D02*
X9729500Y47549500D01*
X9729500Y47550500D01*
X9770500Y47550500D01*
X9770500Y47549500D01*
G36*
X10123000Y48489349D02*
G01*
X10087696Y48518322D01*
X10021508Y48553701D01*
X9949689Y48575487D01*
X9875000Y48582843D01*
X9845250Y48581000D01*
X9750000Y48485750D01*
X9707200Y48528550D01*
X9707200Y49727551D01*
X9709411Y49750001D01*
X9707200Y49772451D01*
X9707200Y49772460D01*
X9700585Y49839627D01*
X9674441Y49925809D01*
X9631987Y50005236D01*
X9574853Y50074853D01*
X9557408Y50089170D01*
X9428375Y50218203D01*
X9500000Y50218203D01*
X9564730Y50224578D01*
X9626973Y50243460D01*
X9684337Y50274121D01*
X9734616Y50315384D01*
X9775879Y50365663D01*
X9779801Y50373000D01*
X10123000Y50373000D01*
X10123000Y48489349D01*
G37*
X10123000Y48489349D02*
X10087696Y48518322D01*
X10021508Y48553701D01*
X9949689Y48575487D01*
X9875000Y48582843D01*
X9845250Y48581000D01*
X9750000Y48485750D01*
X9707200Y48528550D01*
X9707200Y49727551D01*
X9709411Y49750001D01*
X9707200Y49772451D01*
X9707200Y49772460D01*
X9700585Y49839627D01*
X9674441Y49925809D01*
X9631987Y50005236D01*
X9574853Y50074853D01*
X9557408Y50089170D01*
X9428375Y50218203D01*
X9500000Y50218203D01*
X9564730Y50224578D01*
X9626973Y50243460D01*
X9684337Y50274121D01*
X9734616Y50315384D01*
X9775879Y50365663D01*
X9779801Y50373000D01*
X10123000Y50373000D01*
X10123000Y48489349D01*
%TO.N,+12V*%
G36*
X3065384Y68115384D02*
G01*
X3115663Y68074121D01*
X3173027Y68043460D01*
X3235270Y68024578D01*
X3300000Y68018203D01*
X3449905Y68018203D01*
X3595643Y67973995D01*
X3750000Y67958792D01*
X3904357Y67973995D01*
X4050095Y68018203D01*
X4200000Y68018203D01*
X4264730Y68024578D01*
X4326973Y68043460D01*
X4365277Y68063933D01*
X4365000Y68062542D01*
X4365000Y67937458D01*
X4389403Y67814777D01*
X4437271Y67699215D01*
X4506764Y67595211D01*
X4595211Y67506764D01*
X4699215Y67437271D01*
X4814777Y67389403D01*
X4873000Y67377822D01*
X4873000Y66360832D01*
X4824689Y66375487D01*
X4750000Y66382843D01*
X4345750Y66381000D01*
X4250500Y66285750D01*
X4250500Y65500500D01*
X4270500Y65500500D01*
X4270500Y65499500D01*
X4250500Y65499500D01*
X4250500Y64714250D01*
X4345750Y64619000D01*
X4750000Y64617157D01*
X4824689Y64624513D01*
X4873000Y64639168D01*
X4873000Y62761804D01*
X4845211Y62743236D01*
X4756764Y62654789D01*
X4687271Y62550785D01*
X4639403Y62435223D01*
X4615000Y62312542D01*
X4615000Y62187458D01*
X4639403Y62064777D01*
X4687271Y61949215D01*
X4756764Y61845211D01*
X4845211Y61756764D01*
X4873000Y61738196D01*
X4873000Y61250000D01*
X4875440Y61225224D01*
X4882667Y61201399D01*
X4894403Y61179443D01*
X4910197Y61160197D01*
X5942801Y60127593D01*
X5942801Y60122459D01*
X5940589Y60100000D01*
X5942801Y60077540D01*
X5949416Y60010373D01*
X5975560Y59924191D01*
X6018014Y59844764D01*
X6075148Y59775147D01*
X6092593Y59760830D01*
X7160830Y58692592D01*
X7175147Y58675147D01*
X7244764Y58618013D01*
X7324191Y58575559D01*
X7410373Y58549415D01*
X7477540Y58542800D01*
X7477550Y58542800D01*
X7500000Y58540589D01*
X7522450Y58542800D01*
X8559175Y58542800D01*
X8595211Y58506764D01*
X8699215Y58437271D01*
X8814777Y58389403D01*
X8937458Y58365000D01*
X9062542Y58365000D01*
X9185223Y58389403D01*
X9300785Y58437271D01*
X9404789Y58506764D01*
X9493236Y58595211D01*
X9511804Y58623000D01*
X9738196Y58623000D01*
X9756764Y58595211D01*
X9845211Y58506764D01*
X9949215Y58437271D01*
X10064777Y58389403D01*
X10187458Y58365000D01*
X10312542Y58365000D01*
X10435223Y58389403D01*
X10550785Y58437271D01*
X10654789Y58506764D01*
X10743236Y58595211D01*
X10761804Y58623000D01*
X13197394Y58623000D01*
X13623000Y58197394D01*
X13623000Y10052606D01*
X13197394Y9627000D01*
X12607697Y9627000D01*
X12606000Y9941750D01*
X12510750Y10037000D01*
X11750500Y10037000D01*
X11750500Y10017000D01*
X11749500Y10017000D01*
X11749500Y10037000D01*
X11729500Y10037000D01*
X11729500Y10038000D01*
X11749500Y10038000D01*
X11749500Y10760750D01*
X11750500Y10760750D01*
X11750500Y10038000D01*
X12510750Y10038000D01*
X12606000Y10133250D01*
X12607843Y10475000D01*
X12600487Y10549689D01*
X12578701Y10621508D01*
X12543322Y10687696D01*
X12495711Y10745711D01*
X12437696Y10793322D01*
X12371508Y10828701D01*
X12299689Y10850487D01*
X12225000Y10857843D01*
X11845750Y10856000D01*
X11750500Y10760750D01*
X11749500Y10760750D01*
X11654250Y10856000D01*
X11401990Y10857226D01*
X11401990Y13468203D01*
X12200000Y13468203D01*
X12264730Y13474578D01*
X12326973Y13493460D01*
X12384337Y13524121D01*
X12434616Y13565384D01*
X12475879Y13615663D01*
X12506540Y13673027D01*
X12525422Y13735270D01*
X12531797Y13800000D01*
X12531797Y14324817D01*
X12837616Y14630635D01*
X12855054Y14644946D01*
X12869366Y14662385D01*
X12869372Y14662391D01*
X12912188Y14714563D01*
X12954642Y14793989D01*
X12980786Y14880172D01*
X12983269Y14905384D01*
X12987401Y14947339D01*
X12987401Y14947347D01*
X12989612Y14969799D01*
X12987401Y14992251D01*
X12987401Y20247349D01*
X12989612Y20269799D01*
X12987401Y20292249D01*
X12987401Y20292259D01*
X12980786Y20359426D01*
X12954642Y20445608D01*
X12912188Y20525035D01*
X12855054Y20594652D01*
X12837609Y20608969D01*
X12531797Y20914781D01*
X12531797Y21450000D01*
X12525422Y21514730D01*
X12506540Y21576973D01*
X12475879Y21634337D01*
X12434616Y21684616D01*
X12384337Y21725879D01*
X12326973Y21756540D01*
X12264730Y21775422D01*
X12200000Y21781797D01*
X12116441Y21781797D01*
X12110766Y21792414D01*
X12108786Y21794827D01*
X12056806Y21858164D01*
X12040328Y21871687D01*
X11698632Y22213382D01*
X11749500Y22264250D01*
X11749500Y22949500D01*
X11750500Y22949500D01*
X11750500Y22264250D01*
X11845750Y22169000D01*
X12200000Y22167157D01*
X12274689Y22174513D01*
X12346508Y22196299D01*
X12412696Y22231678D01*
X12470711Y22279289D01*
X12518322Y22337304D01*
X12553701Y22403492D01*
X12575487Y22475311D01*
X12582843Y22550000D01*
X12581000Y22854250D01*
X12485750Y22949500D01*
X11750500Y22949500D01*
X11749500Y22949500D01*
X11729500Y22949500D01*
X11729500Y22950500D01*
X11749500Y22950500D01*
X11749500Y23635750D01*
X11750500Y23635750D01*
X11750500Y22950500D01*
X12485750Y22950500D01*
X12581000Y23045750D01*
X12582843Y23350000D01*
X12575487Y23424689D01*
X12553701Y23496508D01*
X12518322Y23562696D01*
X12470711Y23620711D01*
X12412696Y23668322D01*
X12346508Y23703701D01*
X12274689Y23725487D01*
X12200000Y23732843D01*
X11845750Y23731000D01*
X11750500Y23635750D01*
X11749500Y23635750D01*
X11654250Y23731000D01*
X11300000Y23732843D01*
X11225311Y23725487D01*
X11153492Y23703701D01*
X11087304Y23668322D01*
X11029289Y23620711D01*
X10981678Y23562696D01*
X10946299Y23496508D01*
X10927179Y23433478D01*
X8831797Y25528859D01*
X8831797Y26250000D01*
X8825422Y26314730D01*
X8806540Y26376973D01*
X8775879Y26434337D01*
X8734616Y26484616D01*
X8684337Y26525879D01*
X8626973Y26556540D01*
X8564730Y26575422D01*
X8500000Y26581797D01*
X7627000Y26581797D01*
X7627000Y27367736D01*
X7904250Y27369000D01*
X7999500Y27464250D01*
X7999500Y28249500D01*
X8000500Y28249500D01*
X8000500Y27464250D01*
X8095750Y27369000D01*
X8500000Y27367157D01*
X8574689Y27374513D01*
X8646508Y27396299D01*
X8712696Y27431678D01*
X8770711Y27479289D01*
X8818322Y27537304D01*
X8853701Y27603492D01*
X8875487Y27675311D01*
X8882843Y27750000D01*
X8881000Y28154250D01*
X8785750Y28249500D01*
X8000500Y28249500D01*
X7999500Y28249500D01*
X7979500Y28249500D01*
X7979500Y28250500D01*
X7999500Y28250500D01*
X7999500Y29035750D01*
X8000500Y29035750D01*
X8000500Y28250500D01*
X8785750Y28250500D01*
X8881000Y28345750D01*
X8882843Y28750000D01*
X8875487Y28824689D01*
X8853701Y28896508D01*
X8818322Y28962696D01*
X8770711Y29020711D01*
X8712696Y29068322D01*
X8646508Y29103701D01*
X8574689Y29125487D01*
X8500000Y29132843D01*
X8095750Y29131000D01*
X8000500Y29035750D01*
X7999500Y29035750D01*
X7904250Y29131000D01*
X7627000Y29132264D01*
X7627000Y31768203D01*
X8375000Y31768203D01*
X8439730Y31774578D01*
X8501973Y31793460D01*
X8559337Y31824121D01*
X8609616Y31865384D01*
X8638321Y31900361D01*
X8664777Y31889403D01*
X8787458Y31865000D01*
X8912542Y31865000D01*
X9035223Y31889403D01*
X9150785Y31937271D01*
X9254789Y32006764D01*
X9343236Y32095211D01*
X9412729Y32199215D01*
X9460597Y32314777D01*
X9485000Y32437458D01*
X9485000Y32562542D01*
X9460597Y32685223D01*
X9412729Y32800785D01*
X9343236Y32904789D01*
X9254789Y32993236D01*
X9150785Y33062729D01*
X9035223Y33110597D01*
X8912542Y33135000D01*
X8787458Y33135000D01*
X8664777Y33110597D01*
X8638321Y33099639D01*
X8609616Y33134616D01*
X8559337Y33175879D01*
X8501973Y33206540D01*
X8444433Y33223995D01*
X8449689Y33224513D01*
X8521508Y33246299D01*
X8587696Y33281678D01*
X8645711Y33329289D01*
X8693322Y33387304D01*
X8728701Y33453492D01*
X8750487Y33525311D01*
X8757843Y33600000D01*
X8756000Y33904250D01*
X8660750Y33999500D01*
X8000500Y33999500D01*
X8000500Y33979500D01*
X7999500Y33979500D01*
X7999500Y33999500D01*
X7979500Y33999500D01*
X7979500Y34000500D01*
X7999500Y34000500D01*
X7999500Y34685750D01*
X8000500Y34685750D01*
X8000500Y34000500D01*
X8660750Y34000500D01*
X8756000Y34095750D01*
X8757843Y34400000D01*
X8750487Y34474689D01*
X8728701Y34546508D01*
X8693322Y34612696D01*
X8645711Y34670711D01*
X8587696Y34718322D01*
X8521508Y34753701D01*
X8449689Y34775487D01*
X8375000Y34782843D01*
X8095750Y34781000D01*
X8000500Y34685750D01*
X7999500Y34685750D01*
X7904250Y34781000D01*
X7627000Y34782830D01*
X7627000Y35008101D01*
X7655311Y34999513D01*
X7730000Y34992157D01*
X8134250Y34994000D01*
X8229500Y35089250D01*
X8229500Y35999500D01*
X8230500Y35999500D01*
X8230500Y35089250D01*
X8325750Y34994000D01*
X8730000Y34992157D01*
X8804689Y34999513D01*
X8876508Y35021299D01*
X8942696Y35056678D01*
X9000711Y35104289D01*
X9048322Y35162304D01*
X9083701Y35228492D01*
X9105487Y35300311D01*
X9112843Y35375000D01*
X9111000Y35904250D01*
X9015750Y35999500D01*
X8230500Y35999500D01*
X8229500Y35999500D01*
X8209500Y35999500D01*
X8209500Y36000500D01*
X8229500Y36000500D01*
X8229500Y36910750D01*
X8230500Y36910750D01*
X8230500Y36000500D01*
X9015750Y36000500D01*
X9111000Y36095750D01*
X9112843Y36625000D01*
X9105487Y36699689D01*
X9083701Y36771508D01*
X9048322Y36837696D01*
X9000711Y36895711D01*
X8942696Y36943322D01*
X8876508Y36978701D01*
X8804689Y37000487D01*
X8730000Y37007843D01*
X8325750Y37006000D01*
X8230500Y36910750D01*
X8229500Y36910750D01*
X8134250Y37006000D01*
X7730000Y37007843D01*
X7655311Y37000487D01*
X7627000Y36991899D01*
X7627000Y37928101D01*
X7655311Y37919513D01*
X7730000Y37912157D01*
X8134250Y37914000D01*
X8229500Y38009250D01*
X8229500Y38919500D01*
X8230500Y38919500D01*
X8230500Y38009250D01*
X8325750Y37914000D01*
X8730000Y37912157D01*
X8804689Y37919513D01*
X8876508Y37941299D01*
X8942696Y37976678D01*
X9000711Y38024289D01*
X9048322Y38082304D01*
X9083701Y38148492D01*
X9105487Y38220311D01*
X9112843Y38295000D01*
X9111000Y38824250D01*
X9015750Y38919500D01*
X8230500Y38919500D01*
X8229500Y38919500D01*
X8209500Y38919500D01*
X8209500Y38920500D01*
X8229500Y38920500D01*
X8229500Y38940500D01*
X8230500Y38940500D01*
X8230500Y38920500D01*
X9015750Y38920500D01*
X9111000Y39015750D01*
X9112835Y39542800D01*
X9477550Y39542800D01*
X9500000Y39540589D01*
X9522450Y39542800D01*
X9522460Y39542800D01*
X9589627Y39549415D01*
X9675809Y39575559D01*
X9755236Y39618013D01*
X9824853Y39675147D01*
X9839174Y39692597D01*
X10557408Y40410830D01*
X10574853Y40425147D01*
X10631987Y40494764D01*
X10674441Y40574191D01*
X10700585Y40660373D01*
X10707200Y40727540D01*
X10707200Y40727549D01*
X10709411Y40749999D01*
X10707200Y40772449D01*
X10707200Y41279878D01*
X10751973Y41293460D01*
X10809337Y41324121D01*
X10859616Y41365384D01*
X10900879Y41415663D01*
X10931540Y41473027D01*
X10950422Y41535270D01*
X10956797Y41600000D01*
X10956797Y42400000D01*
X10950422Y42464730D01*
X10931540Y42526973D01*
X10900879Y42584337D01*
X10859616Y42634616D01*
X10809337Y42675879D01*
X10751973Y42706540D01*
X10689730Y42725422D01*
X10625000Y42731797D01*
X9875000Y42731797D01*
X9810270Y42725422D01*
X9748027Y42706540D01*
X9690663Y42675879D01*
X9640384Y42634616D01*
X9599121Y42584337D01*
X9568460Y42526973D01*
X9549578Y42464730D01*
X9543203Y42400000D01*
X9543203Y41600000D01*
X9549578Y41535270D01*
X9568460Y41473027D01*
X9599121Y41415663D01*
X9640384Y41365384D01*
X9690663Y41324121D01*
X9748027Y41293460D01*
X9792800Y41279878D01*
X9792800Y41272459D01*
X9792801Y40939378D01*
X9310623Y40457200D01*
X8207200Y40457200D01*
X8207200Y40972418D01*
X8250000Y40968203D01*
X8750000Y40968203D01*
X8814730Y40974578D01*
X8876973Y40993460D01*
X8934337Y41024121D01*
X8984616Y41065384D01*
X9025879Y41115663D01*
X9056540Y41173027D01*
X9075422Y41235270D01*
X9081797Y41300000D01*
X9081797Y42200000D01*
X9075422Y42264730D01*
X9056540Y42326973D01*
X9027633Y42381056D01*
X9057404Y42410827D01*
X9074853Y42425147D01*
X9089174Y42442597D01*
X9586275Y42939697D01*
X9599121Y42915663D01*
X9640384Y42865384D01*
X9690663Y42824121D01*
X9748027Y42793460D01*
X9810270Y42774578D01*
X9875000Y42768203D01*
X10625000Y42768203D01*
X10689730Y42774578D01*
X10751973Y42793460D01*
X10809337Y42824121D01*
X10859616Y42865384D01*
X10900879Y42915663D01*
X10931540Y42973027D01*
X10950422Y43035270D01*
X10956797Y43100000D01*
X10956797Y43900000D01*
X10950422Y43964730D01*
X10931540Y44026973D01*
X10900879Y44084337D01*
X10859616Y44134616D01*
X10809337Y44175879D01*
X10751973Y44206540D01*
X10689730Y44225422D01*
X10625000Y44231797D01*
X9875000Y44231797D01*
X9810270Y44225422D01*
X9748027Y44206540D01*
X9690663Y44175879D01*
X9640384Y44134616D01*
X9599121Y44084337D01*
X9568460Y44026973D01*
X9549578Y43964730D01*
X9548836Y43957200D01*
X9522449Y43957200D01*
X9499999Y43959411D01*
X9477549Y43957200D01*
X9440901Y43957200D01*
X9432408Y43964170D01*
X9339169Y44057409D01*
X9324853Y44074853D01*
X9307408Y44089170D01*
X9089171Y44307407D01*
X9081797Y44316392D01*
X9081797Y44419800D01*
X9750000Y44419800D01*
X9814419Y44426145D01*
X9876362Y44444935D01*
X9933449Y44475449D01*
X9983487Y44516513D01*
X10483487Y45016513D01*
X10524551Y45066551D01*
X10555065Y45123638D01*
X10573855Y45185581D01*
X10580200Y45250000D01*
X10580200Y46243389D01*
X10700000Y46242157D01*
X10774689Y46249513D01*
X10846508Y46271299D01*
X10912696Y46306678D01*
X10970711Y46354289D01*
X11018322Y46412304D01*
X11053701Y46478492D01*
X11075487Y46550311D01*
X11082843Y46625000D01*
X11081000Y46654750D01*
X10985750Y46750000D01*
X11081000Y46845250D01*
X11082843Y46875000D01*
X11075487Y46949689D01*
X11060225Y47000000D01*
X11075487Y47050311D01*
X11082843Y47125000D01*
X11081000Y47154750D01*
X10985750Y47250000D01*
X11028550Y47292800D01*
X11227550Y47292800D01*
X11250000Y47290589D01*
X11272450Y47292800D01*
X11272460Y47292800D01*
X11339627Y47299415D01*
X11425809Y47325559D01*
X11505236Y47368013D01*
X11574853Y47425147D01*
X11589174Y47442597D01*
X11807404Y47660827D01*
X11824853Y47675147D01*
X11881987Y47744764D01*
X11924441Y47824191D01*
X11950585Y47910373D01*
X11957200Y47977540D01*
X11957200Y47977549D01*
X11959411Y47999999D01*
X11957200Y48022449D01*
X11957200Y50727551D01*
X11959411Y50750001D01*
X11957200Y50772451D01*
X11957200Y50772460D01*
X11950585Y50839627D01*
X11924441Y50925809D01*
X11881987Y51005236D01*
X11824853Y51074853D01*
X11807403Y51089174D01*
X11589174Y51307403D01*
X11574853Y51324853D01*
X11505236Y51381987D01*
X11425809Y51424441D01*
X11339627Y51450585D01*
X11331662Y51451369D01*
X11325422Y51514730D01*
X11306540Y51576973D01*
X11275879Y51634337D01*
X11234616Y51684616D01*
X11184337Y51725879D01*
X11126973Y51756540D01*
X11064730Y51775422D01*
X11000000Y51781797D01*
X10500000Y51781797D01*
X10457200Y51777582D01*
X10457200Y52560623D01*
X10689780Y52793203D01*
X11150000Y52793203D01*
X11214730Y52799578D01*
X11276973Y52818460D01*
X11334337Y52849121D01*
X11384616Y52890384D01*
X11425879Y52940663D01*
X11456540Y52998027D01*
X11475422Y53060270D01*
X11481797Y53125000D01*
X11481797Y53875000D01*
X11475422Y53939730D01*
X11456540Y54001973D01*
X11425879Y54059337D01*
X11384616Y54109616D01*
X11334337Y54150879D01*
X11276973Y54181540D01*
X11214730Y54200422D01*
X11150000Y54206797D01*
X10350000Y54206797D01*
X10285270Y54200422D01*
X10223027Y54181540D01*
X10165663Y54150879D01*
X10115384Y54109616D01*
X10074121Y54059337D01*
X10043460Y54001973D01*
X10024578Y53939730D01*
X10018203Y53875000D01*
X10018203Y53414780D01*
X9981797Y53378374D01*
X9981797Y53875000D01*
X9975422Y53939730D01*
X9956540Y54001973D01*
X9925879Y54059337D01*
X9884616Y54109616D01*
X9834337Y54150879D01*
X9776973Y54181540D01*
X9714730Y54200422D01*
X9650000Y54206797D01*
X8850000Y54206797D01*
X8785270Y54200422D01*
X8723027Y54181540D01*
X8665663Y54150879D01*
X8615384Y54109616D01*
X8574121Y54059337D01*
X8543460Y54001973D01*
X8524578Y53939730D01*
X8518203Y53875000D01*
X8518203Y53128375D01*
X8231797Y53414781D01*
X8231797Y53875000D01*
X8225422Y53939730D01*
X8206540Y54001973D01*
X8175879Y54059337D01*
X8134616Y54109616D01*
X8084337Y54150879D01*
X8026973Y54181540D01*
X7964730Y54200422D01*
X7900000Y54206797D01*
X7472809Y54206797D01*
X4839803Y56839803D01*
X4820557Y56855597D01*
X4798601Y56867333D01*
X4774776Y56874560D01*
X4750000Y56877000D01*
X802606Y56877000D01*
X377000Y57302606D01*
X377000Y63947394D01*
X1123057Y64693451D01*
X1185270Y64674578D01*
X1250000Y64668203D01*
X2250000Y64668203D01*
X2314730Y64674578D01*
X2376973Y64693460D01*
X2434337Y64724121D01*
X2484616Y64765384D01*
X2525879Y64815663D01*
X2556540Y64873027D01*
X2575422Y64935270D01*
X2581797Y65000000D01*
X3367157Y65000000D01*
X3374513Y64925311D01*
X3396299Y64853492D01*
X3431678Y64787304D01*
X3479289Y64729289D01*
X3537304Y64681678D01*
X3603492Y64646299D01*
X3675311Y64624513D01*
X3750000Y64617157D01*
X4154250Y64619000D01*
X4249500Y64714250D01*
X4249500Y65499500D01*
X3464250Y65499500D01*
X3369000Y65404250D01*
X3367157Y65000000D01*
X2581797Y65000000D01*
X2581797Y66000000D01*
X3367157Y66000000D01*
X3369000Y65595750D01*
X3464250Y65500500D01*
X4249500Y65500500D01*
X4249500Y66285750D01*
X4154250Y66381000D01*
X3750000Y66382843D01*
X3675311Y66375487D01*
X3603492Y66353701D01*
X3537304Y66318322D01*
X3479289Y66270711D01*
X3431678Y66212696D01*
X3396299Y66146508D01*
X3374513Y66074689D01*
X3367157Y66000000D01*
X2581797Y66000000D01*
X2575422Y66064730D01*
X2556540Y66126973D01*
X2525879Y66184337D01*
X2484616Y66234616D01*
X2434337Y66275879D01*
X2376973Y66306540D01*
X2314730Y66325422D01*
X2250000Y66331797D01*
X2201356Y66331797D01*
X2200585Y66339627D01*
X2174441Y66425809D01*
X2131987Y66505236D01*
X2074853Y66574853D01*
X2057408Y66589170D01*
X1627715Y67018862D01*
X1654250Y67019000D01*
X1749500Y67114250D01*
X1749500Y67799500D01*
X1750500Y67799500D01*
X1750500Y67114250D01*
X1845750Y67019000D01*
X2200000Y67017157D01*
X2274689Y67024513D01*
X2346508Y67046299D01*
X2412696Y67081678D01*
X2470711Y67129289D01*
X2518322Y67187304D01*
X2553701Y67253492D01*
X2575487Y67325311D01*
X2582843Y67400000D01*
X2581000Y67704250D01*
X2485750Y67799500D01*
X1750500Y67799500D01*
X1749500Y67799500D01*
X1729500Y67799500D01*
X1729500Y67800500D01*
X1749500Y67800500D01*
X1749500Y67820500D01*
X1750500Y67820500D01*
X1750500Y67800500D01*
X2485750Y67800500D01*
X2581000Y67895750D01*
X2582377Y68123000D01*
X3059134Y68123000D01*
X3065384Y68115384D01*
G37*
X3065384Y68115384D02*
X3115663Y68074121D01*
X3173027Y68043460D01*
X3235270Y68024578D01*
X3300000Y68018203D01*
X3449905Y68018203D01*
X3595643Y67973995D01*
X3750000Y67958792D01*
X3904357Y67973995D01*
X4050095Y68018203D01*
X4200000Y68018203D01*
X4264730Y68024578D01*
X4326973Y68043460D01*
X4365277Y68063933D01*
X4365000Y68062542D01*
X4365000Y67937458D01*
X4389403Y67814777D01*
X4437271Y67699215D01*
X4506764Y67595211D01*
X4595211Y67506764D01*
X4699215Y67437271D01*
X4814777Y67389403D01*
X4873000Y67377822D01*
X4873000Y66360832D01*
X4824689Y66375487D01*
X4750000Y66382843D01*
X4345750Y66381000D01*
X4250500Y66285750D01*
X4250500Y65500500D01*
X4270500Y65500500D01*
X4270500Y65499500D01*
X4250500Y65499500D01*
X4250500Y64714250D01*
X4345750Y64619000D01*
X4750000Y64617157D01*
X4824689Y64624513D01*
X4873000Y64639168D01*
X4873000Y62761804D01*
X4845211Y62743236D01*
X4756764Y62654789D01*
X4687271Y62550785D01*
X4639403Y62435223D01*
X4615000Y62312542D01*
X4615000Y62187458D01*
X4639403Y62064777D01*
X4687271Y61949215D01*
X4756764Y61845211D01*
X4845211Y61756764D01*
X4873000Y61738196D01*
X4873000Y61250000D01*
X4875440Y61225224D01*
X4882667Y61201399D01*
X4894403Y61179443D01*
X4910197Y61160197D01*
X5942801Y60127593D01*
X5942801Y60122459D01*
X5940589Y60100000D01*
X5942801Y60077540D01*
X5949416Y60010373D01*
X5975560Y59924191D01*
X6018014Y59844764D01*
X6075148Y59775147D01*
X6092593Y59760830D01*
X7160830Y58692592D01*
X7175147Y58675147D01*
X7244764Y58618013D01*
X7324191Y58575559D01*
X7410373Y58549415D01*
X7477540Y58542800D01*
X7477550Y58542800D01*
X7500000Y58540589D01*
X7522450Y58542800D01*
X8559175Y58542800D01*
X8595211Y58506764D01*
X8699215Y58437271D01*
X8814777Y58389403D01*
X8937458Y58365000D01*
X9062542Y58365000D01*
X9185223Y58389403D01*
X9300785Y58437271D01*
X9404789Y58506764D01*
X9493236Y58595211D01*
X9511804Y58623000D01*
X9738196Y58623000D01*
X9756764Y58595211D01*
X9845211Y58506764D01*
X9949215Y58437271D01*
X10064777Y58389403D01*
X10187458Y58365000D01*
X10312542Y58365000D01*
X10435223Y58389403D01*
X10550785Y58437271D01*
X10654789Y58506764D01*
X10743236Y58595211D01*
X10761804Y58623000D01*
X13197394Y58623000D01*
X13623000Y58197394D01*
X13623000Y10052606D01*
X13197394Y9627000D01*
X12607697Y9627000D01*
X12606000Y9941750D01*
X12510750Y10037000D01*
X11750500Y10037000D01*
X11750500Y10017000D01*
X11749500Y10017000D01*
X11749500Y10037000D01*
X11729500Y10037000D01*
X11729500Y10038000D01*
X11749500Y10038000D01*
X11749500Y10760750D01*
X11750500Y10760750D01*
X11750500Y10038000D01*
X12510750Y10038000D01*
X12606000Y10133250D01*
X12607843Y10475000D01*
X12600487Y10549689D01*
X12578701Y10621508D01*
X12543322Y10687696D01*
X12495711Y10745711D01*
X12437696Y10793322D01*
X12371508Y10828701D01*
X12299689Y10850487D01*
X12225000Y10857843D01*
X11845750Y10856000D01*
X11750500Y10760750D01*
X11749500Y10760750D01*
X11654250Y10856000D01*
X11401990Y10857226D01*
X11401990Y13468203D01*
X12200000Y13468203D01*
X12264730Y13474578D01*
X12326973Y13493460D01*
X12384337Y13524121D01*
X12434616Y13565384D01*
X12475879Y13615663D01*
X12506540Y13673027D01*
X12525422Y13735270D01*
X12531797Y13800000D01*
X12531797Y14324817D01*
X12837616Y14630635D01*
X12855054Y14644946D01*
X12869366Y14662385D01*
X12869372Y14662391D01*
X12912188Y14714563D01*
X12954642Y14793989D01*
X12980786Y14880172D01*
X12983269Y14905384D01*
X12987401Y14947339D01*
X12987401Y14947347D01*
X12989612Y14969799D01*
X12987401Y14992251D01*
X12987401Y20247349D01*
X12989612Y20269799D01*
X12987401Y20292249D01*
X12987401Y20292259D01*
X12980786Y20359426D01*
X12954642Y20445608D01*
X12912188Y20525035D01*
X12855054Y20594652D01*
X12837609Y20608969D01*
X12531797Y20914781D01*
X12531797Y21450000D01*
X12525422Y21514730D01*
X12506540Y21576973D01*
X12475879Y21634337D01*
X12434616Y21684616D01*
X12384337Y21725879D01*
X12326973Y21756540D01*
X12264730Y21775422D01*
X12200000Y21781797D01*
X12116441Y21781797D01*
X12110766Y21792414D01*
X12108786Y21794827D01*
X12056806Y21858164D01*
X12040328Y21871687D01*
X11698632Y22213382D01*
X11749500Y22264250D01*
X11749500Y22949500D01*
X11750500Y22949500D01*
X11750500Y22264250D01*
X11845750Y22169000D01*
X12200000Y22167157D01*
X12274689Y22174513D01*
X12346508Y22196299D01*
X12412696Y22231678D01*
X12470711Y22279289D01*
X12518322Y22337304D01*
X12553701Y22403492D01*
X12575487Y22475311D01*
X12582843Y22550000D01*
X12581000Y22854250D01*
X12485750Y22949500D01*
X11750500Y22949500D01*
X11749500Y22949500D01*
X11729500Y22949500D01*
X11729500Y22950500D01*
X11749500Y22950500D01*
X11749500Y23635750D01*
X11750500Y23635750D01*
X11750500Y22950500D01*
X12485750Y22950500D01*
X12581000Y23045750D01*
X12582843Y23350000D01*
X12575487Y23424689D01*
X12553701Y23496508D01*
X12518322Y23562696D01*
X12470711Y23620711D01*
X12412696Y23668322D01*
X12346508Y23703701D01*
X12274689Y23725487D01*
X12200000Y23732843D01*
X11845750Y23731000D01*
X11750500Y23635750D01*
X11749500Y23635750D01*
X11654250Y23731000D01*
X11300000Y23732843D01*
X11225311Y23725487D01*
X11153492Y23703701D01*
X11087304Y23668322D01*
X11029289Y23620711D01*
X10981678Y23562696D01*
X10946299Y23496508D01*
X10927179Y23433478D01*
X8831797Y25528859D01*
X8831797Y26250000D01*
X8825422Y26314730D01*
X8806540Y26376973D01*
X8775879Y26434337D01*
X8734616Y26484616D01*
X8684337Y26525879D01*
X8626973Y26556540D01*
X8564730Y26575422D01*
X8500000Y26581797D01*
X7627000Y26581797D01*
X7627000Y27367736D01*
X7904250Y27369000D01*
X7999500Y27464250D01*
X7999500Y28249500D01*
X8000500Y28249500D01*
X8000500Y27464250D01*
X8095750Y27369000D01*
X8500000Y27367157D01*
X8574689Y27374513D01*
X8646508Y27396299D01*
X8712696Y27431678D01*
X8770711Y27479289D01*
X8818322Y27537304D01*
X8853701Y27603492D01*
X8875487Y27675311D01*
X8882843Y27750000D01*
X8881000Y28154250D01*
X8785750Y28249500D01*
X8000500Y28249500D01*
X7999500Y28249500D01*
X7979500Y28249500D01*
X7979500Y28250500D01*
X7999500Y28250500D01*
X7999500Y29035750D01*
X8000500Y29035750D01*
X8000500Y28250500D01*
X8785750Y28250500D01*
X8881000Y28345750D01*
X8882843Y28750000D01*
X8875487Y28824689D01*
X8853701Y28896508D01*
X8818322Y28962696D01*
X8770711Y29020711D01*
X8712696Y29068322D01*
X8646508Y29103701D01*
X8574689Y29125487D01*
X8500000Y29132843D01*
X8095750Y29131000D01*
X8000500Y29035750D01*
X7999500Y29035750D01*
X7904250Y29131000D01*
X7627000Y29132264D01*
X7627000Y31768203D01*
X8375000Y31768203D01*
X8439730Y31774578D01*
X8501973Y31793460D01*
X8559337Y31824121D01*
X8609616Y31865384D01*
X8638321Y31900361D01*
X8664777Y31889403D01*
X8787458Y31865000D01*
X8912542Y31865000D01*
X9035223Y31889403D01*
X9150785Y31937271D01*
X9254789Y32006764D01*
X9343236Y32095211D01*
X9412729Y32199215D01*
X9460597Y32314777D01*
X9485000Y32437458D01*
X9485000Y32562542D01*
X9460597Y32685223D01*
X9412729Y32800785D01*
X9343236Y32904789D01*
X9254789Y32993236D01*
X9150785Y33062729D01*
X9035223Y33110597D01*
X8912542Y33135000D01*
X8787458Y33135000D01*
X8664777Y33110597D01*
X8638321Y33099639D01*
X8609616Y33134616D01*
X8559337Y33175879D01*
X8501973Y33206540D01*
X8444433Y33223995D01*
X8449689Y33224513D01*
X8521508Y33246299D01*
X8587696Y33281678D01*
X8645711Y33329289D01*
X8693322Y33387304D01*
X8728701Y33453492D01*
X8750487Y33525311D01*
X8757843Y33600000D01*
X8756000Y33904250D01*
X8660750Y33999500D01*
X8000500Y33999500D01*
X8000500Y33979500D01*
X7999500Y33979500D01*
X7999500Y33999500D01*
X7979500Y33999500D01*
X7979500Y34000500D01*
X7999500Y34000500D01*
X7999500Y34685750D01*
X8000500Y34685750D01*
X8000500Y34000500D01*
X8660750Y34000500D01*
X8756000Y34095750D01*
X8757843Y34400000D01*
X8750487Y34474689D01*
X8728701Y34546508D01*
X8693322Y34612696D01*
X8645711Y34670711D01*
X8587696Y34718322D01*
X8521508Y34753701D01*
X8449689Y34775487D01*
X8375000Y34782843D01*
X8095750Y34781000D01*
X8000500Y34685750D01*
X7999500Y34685750D01*
X7904250Y34781000D01*
X7627000Y34782830D01*
X7627000Y35008101D01*
X7655311Y34999513D01*
X7730000Y34992157D01*
X8134250Y34994000D01*
X8229500Y35089250D01*
X8229500Y35999500D01*
X8230500Y35999500D01*
X8230500Y35089250D01*
X8325750Y34994000D01*
X8730000Y34992157D01*
X8804689Y34999513D01*
X8876508Y35021299D01*
X8942696Y35056678D01*
X9000711Y35104289D01*
X9048322Y35162304D01*
X9083701Y35228492D01*
X9105487Y35300311D01*
X9112843Y35375000D01*
X9111000Y35904250D01*
X9015750Y35999500D01*
X8230500Y35999500D01*
X8229500Y35999500D01*
X8209500Y35999500D01*
X8209500Y36000500D01*
X8229500Y36000500D01*
X8229500Y36910750D01*
X8230500Y36910750D01*
X8230500Y36000500D01*
X9015750Y36000500D01*
X9111000Y36095750D01*
X9112843Y36625000D01*
X9105487Y36699689D01*
X9083701Y36771508D01*
X9048322Y36837696D01*
X9000711Y36895711D01*
X8942696Y36943322D01*
X8876508Y36978701D01*
X8804689Y37000487D01*
X8730000Y37007843D01*
X8325750Y37006000D01*
X8230500Y36910750D01*
X8229500Y36910750D01*
X8134250Y37006000D01*
X7730000Y37007843D01*
X7655311Y37000487D01*
X7627000Y36991899D01*
X7627000Y37928101D01*
X7655311Y37919513D01*
X7730000Y37912157D01*
X8134250Y37914000D01*
X8229500Y38009250D01*
X8229500Y38919500D01*
X8230500Y38919500D01*
X8230500Y38009250D01*
X8325750Y37914000D01*
X8730000Y37912157D01*
X8804689Y37919513D01*
X8876508Y37941299D01*
X8942696Y37976678D01*
X9000711Y38024289D01*
X9048322Y38082304D01*
X9083701Y38148492D01*
X9105487Y38220311D01*
X9112843Y38295000D01*
X9111000Y38824250D01*
X9015750Y38919500D01*
X8230500Y38919500D01*
X8229500Y38919500D01*
X8209500Y38919500D01*
X8209500Y38920500D01*
X8229500Y38920500D01*
X8229500Y38940500D01*
X8230500Y38940500D01*
X8230500Y38920500D01*
X9015750Y38920500D01*
X9111000Y39015750D01*
X9112835Y39542800D01*
X9477550Y39542800D01*
X9500000Y39540589D01*
X9522450Y39542800D01*
X9522460Y39542800D01*
X9589627Y39549415D01*
X9675809Y39575559D01*
X9755236Y39618013D01*
X9824853Y39675147D01*
X9839174Y39692597D01*
X10557408Y40410830D01*
X10574853Y40425147D01*
X10631987Y40494764D01*
X10674441Y40574191D01*
X10700585Y40660373D01*
X10707200Y40727540D01*
X10707200Y40727549D01*
X10709411Y40749999D01*
X10707200Y40772449D01*
X10707200Y41279878D01*
X10751973Y41293460D01*
X10809337Y41324121D01*
X10859616Y41365384D01*
X10900879Y41415663D01*
X10931540Y41473027D01*
X10950422Y41535270D01*
X10956797Y41600000D01*
X10956797Y42400000D01*
X10950422Y42464730D01*
X10931540Y42526973D01*
X10900879Y42584337D01*
X10859616Y42634616D01*
X10809337Y42675879D01*
X10751973Y42706540D01*
X10689730Y42725422D01*
X10625000Y42731797D01*
X9875000Y42731797D01*
X9810270Y42725422D01*
X9748027Y42706540D01*
X9690663Y42675879D01*
X9640384Y42634616D01*
X9599121Y42584337D01*
X9568460Y42526973D01*
X9549578Y42464730D01*
X9543203Y42400000D01*
X9543203Y41600000D01*
X9549578Y41535270D01*
X9568460Y41473027D01*
X9599121Y41415663D01*
X9640384Y41365384D01*
X9690663Y41324121D01*
X9748027Y41293460D01*
X9792800Y41279878D01*
X9792800Y41272459D01*
X9792801Y40939378D01*
X9310623Y40457200D01*
X8207200Y40457200D01*
X8207200Y40972418D01*
X8250000Y40968203D01*
X8750000Y40968203D01*
X8814730Y40974578D01*
X8876973Y40993460D01*
X8934337Y41024121D01*
X8984616Y41065384D01*
X9025879Y41115663D01*
X9056540Y41173027D01*
X9075422Y41235270D01*
X9081797Y41300000D01*
X9081797Y42200000D01*
X9075422Y42264730D01*
X9056540Y42326973D01*
X9027633Y42381056D01*
X9057404Y42410827D01*
X9074853Y42425147D01*
X9089174Y42442597D01*
X9586275Y42939697D01*
X9599121Y42915663D01*
X9640384Y42865384D01*
X9690663Y42824121D01*
X9748027Y42793460D01*
X9810270Y42774578D01*
X9875000Y42768203D01*
X10625000Y42768203D01*
X10689730Y42774578D01*
X10751973Y42793460D01*
X10809337Y42824121D01*
X10859616Y42865384D01*
X10900879Y42915663D01*
X10931540Y42973027D01*
X10950422Y43035270D01*
X10956797Y43100000D01*
X10956797Y43900000D01*
X10950422Y43964730D01*
X10931540Y44026973D01*
X10900879Y44084337D01*
X10859616Y44134616D01*
X10809337Y44175879D01*
X10751973Y44206540D01*
X10689730Y44225422D01*
X10625000Y44231797D01*
X9875000Y44231797D01*
X9810270Y44225422D01*
X9748027Y44206540D01*
X9690663Y44175879D01*
X9640384Y44134616D01*
X9599121Y44084337D01*
X9568460Y44026973D01*
X9549578Y43964730D01*
X9548836Y43957200D01*
X9522449Y43957200D01*
X9499999Y43959411D01*
X9477549Y43957200D01*
X9440901Y43957200D01*
X9432408Y43964170D01*
X9339169Y44057409D01*
X9324853Y44074853D01*
X9307408Y44089170D01*
X9089171Y44307407D01*
X9081797Y44316392D01*
X9081797Y44419800D01*
X9750000Y44419800D01*
X9814419Y44426145D01*
X9876362Y44444935D01*
X9933449Y44475449D01*
X9983487Y44516513D01*
X10483487Y45016513D01*
X10524551Y45066551D01*
X10555065Y45123638D01*
X10573855Y45185581D01*
X10580200Y45250000D01*
X10580200Y46243389D01*
X10700000Y46242157D01*
X10774689Y46249513D01*
X10846508Y46271299D01*
X10912696Y46306678D01*
X10970711Y46354289D01*
X11018322Y46412304D01*
X11053701Y46478492D01*
X11075487Y46550311D01*
X11082843Y46625000D01*
X11081000Y46654750D01*
X10985750Y46750000D01*
X11081000Y46845250D01*
X11082843Y46875000D01*
X11075487Y46949689D01*
X11060225Y47000000D01*
X11075487Y47050311D01*
X11082843Y47125000D01*
X11081000Y47154750D01*
X10985750Y47250000D01*
X11028550Y47292800D01*
X11227550Y47292800D01*
X11250000Y47290589D01*
X11272450Y47292800D01*
X11272460Y47292800D01*
X11339627Y47299415D01*
X11425809Y47325559D01*
X11505236Y47368013D01*
X11574853Y47425147D01*
X11589174Y47442597D01*
X11807404Y47660827D01*
X11824853Y47675147D01*
X11881987Y47744764D01*
X11924441Y47824191D01*
X11950585Y47910373D01*
X11957200Y47977540D01*
X11957200Y47977549D01*
X11959411Y47999999D01*
X11957200Y48022449D01*
X11957200Y50727551D01*
X11959411Y50750001D01*
X11957200Y50772451D01*
X11957200Y50772460D01*
X11950585Y50839627D01*
X11924441Y50925809D01*
X11881987Y51005236D01*
X11824853Y51074853D01*
X11807403Y51089174D01*
X11589174Y51307403D01*
X11574853Y51324853D01*
X11505236Y51381987D01*
X11425809Y51424441D01*
X11339627Y51450585D01*
X11331662Y51451369D01*
X11325422Y51514730D01*
X11306540Y51576973D01*
X11275879Y51634337D01*
X11234616Y51684616D01*
X11184337Y51725879D01*
X11126973Y51756540D01*
X11064730Y51775422D01*
X11000000Y51781797D01*
X10500000Y51781797D01*
X10457200Y51777582D01*
X10457200Y52560623D01*
X10689780Y52793203D01*
X11150000Y52793203D01*
X11214730Y52799578D01*
X11276973Y52818460D01*
X11334337Y52849121D01*
X11384616Y52890384D01*
X11425879Y52940663D01*
X11456540Y52998027D01*
X11475422Y53060270D01*
X11481797Y53125000D01*
X11481797Y53875000D01*
X11475422Y53939730D01*
X11456540Y54001973D01*
X11425879Y54059337D01*
X11384616Y54109616D01*
X11334337Y54150879D01*
X11276973Y54181540D01*
X11214730Y54200422D01*
X11150000Y54206797D01*
X10350000Y54206797D01*
X10285270Y54200422D01*
X10223027Y54181540D01*
X10165663Y54150879D01*
X10115384Y54109616D01*
X10074121Y54059337D01*
X10043460Y54001973D01*
X10024578Y53939730D01*
X10018203Y53875000D01*
X10018203Y53414780D01*
X9981797Y53378374D01*
X9981797Y53875000D01*
X9975422Y53939730D01*
X9956540Y54001973D01*
X9925879Y54059337D01*
X9884616Y54109616D01*
X9834337Y54150879D01*
X9776973Y54181540D01*
X9714730Y54200422D01*
X9650000Y54206797D01*
X8850000Y54206797D01*
X8785270Y54200422D01*
X8723027Y54181540D01*
X8665663Y54150879D01*
X8615384Y54109616D01*
X8574121Y54059337D01*
X8543460Y54001973D01*
X8524578Y53939730D01*
X8518203Y53875000D01*
X8518203Y53128375D01*
X8231797Y53414781D01*
X8231797Y53875000D01*
X8225422Y53939730D01*
X8206540Y54001973D01*
X8175879Y54059337D01*
X8134616Y54109616D01*
X8084337Y54150879D01*
X8026973Y54181540D01*
X7964730Y54200422D01*
X7900000Y54206797D01*
X7472809Y54206797D01*
X4839803Y56839803D01*
X4820557Y56855597D01*
X4798601Y56867333D01*
X4774776Y56874560D01*
X4750000Y56877000D01*
X802606Y56877000D01*
X377000Y57302606D01*
X377000Y63947394D01*
X1123057Y64693451D01*
X1185270Y64674578D01*
X1250000Y64668203D01*
X2250000Y64668203D01*
X2314730Y64674578D01*
X2376973Y64693460D01*
X2434337Y64724121D01*
X2484616Y64765384D01*
X2525879Y64815663D01*
X2556540Y64873027D01*
X2575422Y64935270D01*
X2581797Y65000000D01*
X3367157Y65000000D01*
X3374513Y64925311D01*
X3396299Y64853492D01*
X3431678Y64787304D01*
X3479289Y64729289D01*
X3537304Y64681678D01*
X3603492Y64646299D01*
X3675311Y64624513D01*
X3750000Y64617157D01*
X4154250Y64619000D01*
X4249500Y64714250D01*
X4249500Y65499500D01*
X3464250Y65499500D01*
X3369000Y65404250D01*
X3367157Y65000000D01*
X2581797Y65000000D01*
X2581797Y66000000D01*
X3367157Y66000000D01*
X3369000Y65595750D01*
X3464250Y65500500D01*
X4249500Y65500500D01*
X4249500Y66285750D01*
X4154250Y66381000D01*
X3750000Y66382843D01*
X3675311Y66375487D01*
X3603492Y66353701D01*
X3537304Y66318322D01*
X3479289Y66270711D01*
X3431678Y66212696D01*
X3396299Y66146508D01*
X3374513Y66074689D01*
X3367157Y66000000D01*
X2581797Y66000000D01*
X2575422Y66064730D01*
X2556540Y66126973D01*
X2525879Y66184337D01*
X2484616Y66234616D01*
X2434337Y66275879D01*
X2376973Y66306540D01*
X2314730Y66325422D01*
X2250000Y66331797D01*
X2201356Y66331797D01*
X2200585Y66339627D01*
X2174441Y66425809D01*
X2131987Y66505236D01*
X2074853Y66574853D01*
X2057408Y66589170D01*
X1627715Y67018862D01*
X1654250Y67019000D01*
X1749500Y67114250D01*
X1749500Y67799500D01*
X1750500Y67799500D01*
X1750500Y67114250D01*
X1845750Y67019000D01*
X2200000Y67017157D01*
X2274689Y67024513D01*
X2346508Y67046299D01*
X2412696Y67081678D01*
X2470711Y67129289D01*
X2518322Y67187304D01*
X2553701Y67253492D01*
X2575487Y67325311D01*
X2582843Y67400000D01*
X2581000Y67704250D01*
X2485750Y67799500D01*
X1750500Y67799500D01*
X1749500Y67799500D01*
X1729500Y67799500D01*
X1729500Y67800500D01*
X1749500Y67800500D01*
X1749500Y67820500D01*
X1750500Y67820500D01*
X1750500Y67800500D01*
X2485750Y67800500D01*
X2581000Y67895750D01*
X2582377Y68123000D01*
X3059134Y68123000D01*
X3065384Y68115384D01*
%TD*%
M02*
