M48
; DRILL file {KiCad (6.0.5-0)} date Wednesday, June 29, 2022 at 01:02:25 AM
; FORMAT={-:-/ absolute / metric / decimal}
; #@! TF.CreationDate,2022-06-29T01:02:25-07:00
; #@! TF.GenerationSoftware,Kicad,Pcbnew,(6.0.5-0)
; #@! TF.FileFunction,Plated,1,2,PTH
FMAT,2
METRIC
; #@! TA.AperFunction,Plated,PTH,ViaDrill
T1C0.305
; #@! TA.AperFunction,Plated,PTH,ComponentDrill
T2C0.500
; #@! TA.AperFunction,Plated,PTH,ComponentDrill
T3C1.000
; #@! TA.AperFunction,Plated,PTH,ComponentDrill
T4C1.100
; #@! TA.AperFunction,Plated,PTH,ComponentDrill
T5C3.200
%
G90
G05
T1
X6.25Y49.75
X6.322Y27.808
X6.75Y70.0
X9.5Y44.25
X9.75Y55.0
X10.5Y62.25
X10.5Y50.25
X10.557Y69.693
X11.75Y63.5
X12.25Y55.5
X12.5Y51.25
T2
X1.6Y75.0
X1.6Y17.0
X2.303Y76.697
X2.303Y73.303
X2.303Y18.697
X2.303Y15.303
X4.0Y77.4
X4.0Y72.6
X4.0Y19.4
X4.0Y14.6
X5.697Y76.697
X5.697Y73.303
X5.697Y18.697
X5.697Y15.303
X6.4Y75.0
X6.4Y17.0
T3
X2.73Y61.24
X2.73Y58.7
X2.73Y56.16
X2.73Y53.62
X2.73Y51.08
X2.73Y48.54
X2.73Y32.03
X2.73Y29.49
X2.73Y26.95
X2.73Y24.41
X2.73Y21.87
X5.27Y61.24
X5.27Y58.7
X5.27Y56.16
X5.27Y53.62
X5.27Y51.08
X5.27Y48.54
X5.27Y32.03
X5.27Y29.49
X5.27Y26.95
X5.27Y24.41
X5.27Y21.87
X8.87Y76.27
X8.87Y73.73
X11.41Y76.27
X11.41Y73.73
X11.62Y32.03
X11.62Y29.49
X11.62Y26.95
X11.62Y24.41
X11.62Y21.87
X11.62Y19.33
T4
X3.5Y10.5
X7.0Y5.5
T5
X4.0Y75.0
X4.0Y17.0
T0
M30
