%TF.GenerationSoftware,KiCad,Pcbnew,(5.1.6-0)*%
%TF.CreationDate,2022-04-30T15:33:10-07:00*%
%TF.ProjectId,jetson-nano-ppoe,6a657473-6f6e-42d6-9e61-6e6f2d70706f,rev?*%
%TF.SameCoordinates,PX8b3c880PY8583b00*%
%TF.FileFunction,Legend,Top*%
%TF.FilePolarity,Positive*%
%FSLAX46Y46*%
G04 Gerber Fmt 4.6, Leading zero omitted, Abs format (unit mm)*
G04 Created by KiCad (PCBNEW (5.1.6-0)) date 2022-04-30 15:33:10*
%MOMM*%
%LPD*%
G01*
G04 APERTURE LIST*
%ADD10C,0.150000*%
%ADD11C,0.200000*%
%ADD12C,0.010000*%
%ADD13C,0.100000*%
%ADD14C,0.120000*%
G04 APERTURE END LIST*
D10*
X12702380Y32821429D02*
X13416666Y32821429D01*
X13559523Y32773810D01*
X13654761Y32678572D01*
X13702380Y32535715D01*
X13702380Y32440477D01*
X13654761Y33678572D02*
X13702380Y33583334D01*
X13702380Y33392858D01*
X13654761Y33297620D01*
X13559523Y33250000D01*
X13178571Y33250000D01*
X13083333Y33297620D01*
X13035714Y33392858D01*
X13035714Y33583334D01*
X13083333Y33678572D01*
X13178571Y33726191D01*
X13273809Y33726191D01*
X13369047Y33250000D01*
X13035714Y34011905D02*
X13035714Y34392858D01*
X12702380Y34154762D02*
X13559523Y34154762D01*
X13654761Y34202381D01*
X13702380Y34297620D01*
X13702380Y34392858D01*
X13654761Y34678572D02*
X13702380Y34773810D01*
X13702380Y34964286D01*
X13654761Y35059524D01*
X13559523Y35107143D01*
X13511904Y35107143D01*
X13416666Y35059524D01*
X13369047Y34964286D01*
X13369047Y34821429D01*
X13321428Y34726191D01*
X13226190Y34678572D01*
X13178571Y34678572D01*
X13083333Y34726191D01*
X13035714Y34821429D01*
X13035714Y34964286D01*
X13083333Y35059524D01*
X13702380Y35678572D02*
X13654761Y35583334D01*
X13607142Y35535715D01*
X13511904Y35488096D01*
X13226190Y35488096D01*
X13130952Y35535715D01*
X13083333Y35583334D01*
X13035714Y35678572D01*
X13035714Y35821429D01*
X13083333Y35916667D01*
X13130952Y35964286D01*
X13226190Y36011905D01*
X13511904Y36011905D01*
X13607142Y35964286D01*
X13654761Y35916667D01*
X13702380Y35821429D01*
X13702380Y35678572D01*
X13035714Y36440477D02*
X13702380Y36440477D01*
X13130952Y36440477D02*
X13083333Y36488096D01*
X13035714Y36583334D01*
X13035714Y36726191D01*
X13083333Y36821429D01*
X13178571Y36869048D01*
X13702380Y36869048D01*
X13702380Y38107143D02*
X12702380Y38107143D01*
X13702380Y38678572D01*
X12702380Y38678572D01*
X13702380Y39583334D02*
X13178571Y39583334D01*
X13083333Y39535715D01*
X13035714Y39440477D01*
X13035714Y39250000D01*
X13083333Y39154762D01*
X13654761Y39583334D02*
X13702380Y39488096D01*
X13702380Y39250000D01*
X13654761Y39154762D01*
X13559523Y39107143D01*
X13464285Y39107143D01*
X13369047Y39154762D01*
X13321428Y39250000D01*
X13321428Y39488096D01*
X13273809Y39583334D01*
X13035714Y40059524D02*
X13702380Y40059524D01*
X13130952Y40059524D02*
X13083333Y40107143D01*
X13035714Y40202381D01*
X13035714Y40345239D01*
X13083333Y40440477D01*
X13178571Y40488096D01*
X13702380Y40488096D01*
X13702380Y41107143D02*
X13654761Y41011905D01*
X13607142Y40964286D01*
X13511904Y40916667D01*
X13226190Y40916667D01*
X13130952Y40964286D01*
X13083333Y41011905D01*
X13035714Y41107143D01*
X13035714Y41250000D01*
X13083333Y41345239D01*
X13130952Y41392858D01*
X13226190Y41440477D01*
X13511904Y41440477D01*
X13607142Y41392858D01*
X13654761Y41345239D01*
X13702380Y41250000D01*
X13702380Y41107143D01*
X13702380Y42630953D02*
X12702380Y42630953D01*
X12702380Y43011905D01*
X12750000Y43107143D01*
X12797619Y43154762D01*
X12892857Y43202381D01*
X13035714Y43202381D01*
X13130952Y43154762D01*
X13178571Y43107143D01*
X13226190Y43011905D01*
X13226190Y42630953D01*
X13702380Y43630953D02*
X12702380Y43630953D01*
X12702380Y44011905D01*
X12750000Y44107143D01*
X12797619Y44154762D01*
X12892857Y44202381D01*
X13035714Y44202381D01*
X13130952Y44154762D01*
X13178571Y44107143D01*
X13226190Y44011905D01*
X13226190Y43630953D01*
X13702380Y44773810D02*
X13654761Y44678572D01*
X13607142Y44630953D01*
X13511904Y44583334D01*
X13226190Y44583334D01*
X13130952Y44630953D01*
X13083333Y44678572D01*
X13035714Y44773810D01*
X13035714Y44916667D01*
X13083333Y45011905D01*
X13130952Y45059524D01*
X13226190Y45107143D01*
X13511904Y45107143D01*
X13607142Y45059524D01*
X13654761Y45011905D01*
X13702380Y44916667D01*
X13702380Y44773810D01*
X13178571Y45535715D02*
X13178571Y45869048D01*
X13702380Y46011905D02*
X13702380Y45535715D01*
X12702380Y45535715D01*
X12702380Y46011905D01*
D11*
X10011904Y65957143D02*
X10011904Y67157143D01*
X10392857Y67157143D01*
X10488095Y67100000D01*
X10535714Y67042858D01*
X10583333Y66928572D01*
X10583333Y66757143D01*
X10535714Y66642858D01*
X10488095Y66585715D01*
X10392857Y66528572D01*
X10011904Y66528572D01*
X11011904Y65957143D02*
X11011904Y67157143D01*
X11392857Y67157143D01*
X11488095Y67100000D01*
X11535714Y67042858D01*
X11583333Y66928572D01*
X11583333Y66757143D01*
X11535714Y66642858D01*
X11488095Y66585715D01*
X11392857Y66528572D01*
X11011904Y66528572D01*
X12202380Y67157143D02*
X12392857Y67157143D01*
X12488095Y67100000D01*
X12583333Y66985715D01*
X12630952Y66757143D01*
X12630952Y66357143D01*
X12583333Y66128572D01*
X12488095Y66014286D01*
X12392857Y65957143D01*
X12202380Y65957143D01*
X12107142Y66014286D01*
X12011904Y66128572D01*
X11964285Y66357143D01*
X11964285Y66757143D01*
X12011904Y66985715D01*
X12107142Y67100000D01*
X12202380Y67157143D01*
X13059523Y66585715D02*
X13392857Y66585715D01*
X13535714Y65957143D02*
X13059523Y65957143D01*
X13059523Y67157143D01*
X13535714Y67157143D01*
X10416666Y63957143D02*
X10416666Y65157143D01*
X10797619Y65157143D01*
X10892857Y65100000D01*
X10940476Y65042858D01*
X10988095Y64928572D01*
X10988095Y64757143D01*
X10940476Y64642858D01*
X10892857Y64585715D01*
X10797619Y64528572D01*
X10416666Y64528572D01*
X11321428Y65157143D02*
X11559523Y63957143D01*
X11750000Y64814286D01*
X11940476Y63957143D01*
X12178571Y65157143D01*
X13130952Y63957143D02*
X12797619Y64528572D01*
X12559523Y63957143D02*
X12559523Y65157143D01*
X12940476Y65157143D01*
X13035714Y65100000D01*
X13083333Y65042858D01*
X13130952Y64928572D01*
X13130952Y64757143D01*
X13083333Y64642858D01*
X13035714Y64585715D01*
X12940476Y64528572D01*
X12559523Y64528572D01*
X10488095Y6071429D02*
X10440476Y6014286D01*
X10297619Y5957143D01*
X10202380Y5957143D01*
X10059523Y6014286D01*
X9964285Y6128572D01*
X9916666Y6242858D01*
X9869047Y6471429D01*
X9869047Y6642858D01*
X9916666Y6871429D01*
X9964285Y6985715D01*
X10059523Y7100000D01*
X10202380Y7157143D01*
X10297619Y7157143D01*
X10440476Y7100000D01*
X10488095Y7042858D01*
X11107142Y7157143D02*
X11297619Y7157143D01*
X11392857Y7100000D01*
X11488095Y6985715D01*
X11535714Y6757143D01*
X11535714Y6357143D01*
X11488095Y6128572D01*
X11392857Y6014286D01*
X11297619Y5957143D01*
X11107142Y5957143D01*
X11011904Y6014286D01*
X10916666Y6128572D01*
X10869047Y6357143D01*
X10869047Y6757143D01*
X10916666Y6985715D01*
X11011904Y7100000D01*
X11107142Y7157143D01*
X11964285Y5957143D02*
X11964285Y7157143D01*
X12535714Y5957143D01*
X12535714Y7157143D01*
X13011904Y5957143D02*
X13011904Y7157143D01*
X13583333Y5957143D01*
X13583333Y7157143D01*
X10416666Y3957143D02*
X10416666Y5157143D01*
X10797619Y5157143D01*
X10892857Y5100000D01*
X10940476Y5042858D01*
X10988095Y4928572D01*
X10988095Y4757143D01*
X10940476Y4642858D01*
X10892857Y4585715D01*
X10797619Y4528572D01*
X10416666Y4528572D01*
X11321428Y5157143D02*
X11559523Y3957143D01*
X11750000Y4814286D01*
X11940476Y3957143D01*
X12178571Y5157143D01*
X13130952Y3957143D02*
X12797619Y4528572D01*
X12559523Y3957143D02*
X12559523Y5157143D01*
X12940476Y5157143D01*
X13035714Y5100000D01*
X13083333Y5042858D01*
X13130952Y4928572D01*
X13130952Y4757143D01*
X13083333Y4642858D01*
X13035714Y4585715D01*
X12940476Y4528572D01*
X12559523Y4528572D01*
D12*
%TO.C,G\u002A\u002A\u002A*%
G36*
X8975101Y30034023D02*
G01*
X8980196Y30057539D01*
X8984103Y30065194D01*
X8994050Y30083288D01*
X9009721Y30111268D01*
X9030798Y30148581D01*
X9056964Y30194671D01*
X9087901Y30248986D01*
X9123293Y30310970D01*
X9162823Y30380070D01*
X9206173Y30455732D01*
X9253026Y30537401D01*
X9303065Y30624525D01*
X9355972Y30716548D01*
X9411432Y30812917D01*
X9469125Y30913077D01*
X9528736Y31016475D01*
X9579612Y31104650D01*
X9664233Y31251162D01*
X9742607Y31386656D01*
X9814753Y31511164D01*
X9880688Y31624715D01*
X9940430Y31727340D01*
X9993997Y31819069D01*
X10041406Y31899931D01*
X10082675Y31969959D01*
X10117822Y32029181D01*
X10146866Y32077628D01*
X10169823Y32115331D01*
X10186711Y32142319D01*
X10197548Y32158624D01*
X10201032Y32163155D01*
X10227291Y32188237D01*
X10254817Y32204822D01*
X10265429Y32209193D01*
X10269741Y32210764D01*
X10274282Y32212204D01*
X10279597Y32213518D01*
X10286235Y32214713D01*
X10294741Y32215793D01*
X10305662Y32216764D01*
X10319545Y32217633D01*
X10336937Y32218405D01*
X10358385Y32219086D01*
X10384435Y32219681D01*
X10415634Y32220197D01*
X10452529Y32220638D01*
X10495667Y32221011D01*
X10545594Y32221322D01*
X10602857Y32221575D01*
X10668003Y32221778D01*
X10741579Y32221935D01*
X10824132Y32222053D01*
X10916207Y32222137D01*
X11018353Y32222193D01*
X11131115Y32222226D01*
X11255041Y32222243D01*
X11390677Y32222249D01*
X11509525Y32222250D01*
X11655069Y32222248D01*
X11788459Y32222239D01*
X11910243Y32222218D01*
X12020967Y32222179D01*
X12121176Y32222115D01*
X12211419Y32222022D01*
X12292240Y32221894D01*
X12364188Y32221725D01*
X12427808Y32221510D01*
X12483647Y32221243D01*
X12532251Y32220918D01*
X12574167Y32220529D01*
X12609943Y32220072D01*
X12640123Y32219540D01*
X12665255Y32218928D01*
X12685885Y32218230D01*
X12702560Y32217441D01*
X12715826Y32216555D01*
X12726230Y32215565D01*
X12734319Y32214468D01*
X12740638Y32213256D01*
X12745736Y32211925D01*
X12750157Y32210469D01*
X12752967Y32209437D01*
X12784981Y32192831D01*
X12813428Y32169853D01*
X12813530Y32169750D01*
X12819728Y32161587D01*
X12830872Y32144664D01*
X12847059Y32118813D01*
X12868389Y32083866D01*
X12894960Y32039655D01*
X12926871Y31986014D01*
X12964219Y31922774D01*
X13007104Y31849767D01*
X13055625Y31766827D01*
X13109879Y31673785D01*
X13169966Y31570474D01*
X13235983Y31456726D01*
X13308030Y31332374D01*
X13386206Y31197249D01*
X13434221Y31114175D01*
X13495364Y31008304D01*
X13554865Y30905180D01*
X13612408Y30805357D01*
X13667673Y30709390D01*
X13720343Y30617835D01*
X13770101Y30531246D01*
X13816627Y30450178D01*
X13859606Y30375187D01*
X13898718Y30306826D01*
X13933645Y30245653D01*
X13964071Y30192221D01*
X13989676Y30147085D01*
X14010143Y30110801D01*
X14025155Y30083923D01*
X14034393Y30067007D01*
X14037472Y30060864D01*
X14045427Y30023714D01*
X14045433Y29982708D01*
X14037757Y29943567D01*
X14031235Y29926725D01*
X14024884Y29914523D01*
X14012662Y29892285D01*
X13994952Y29860670D01*
X13972139Y29820341D01*
X13944605Y29771958D01*
X13912736Y29716184D01*
X13876915Y29653679D01*
X13837525Y29585106D01*
X13794951Y29511125D01*
X13749577Y29432397D01*
X13701786Y29349585D01*
X13651962Y29263350D01*
X13600489Y29174354D01*
X13547752Y29083256D01*
X13494133Y28990720D01*
X13440018Y28897406D01*
X13385789Y28803976D01*
X13331830Y28711092D01*
X13278526Y28619414D01*
X13226260Y28529605D01*
X13175417Y28442324D01*
X13126379Y28358235D01*
X13079532Y28277999D01*
X13035258Y28202276D01*
X12993942Y28131729D01*
X12955967Y28067018D01*
X12921719Y28008806D01*
X12891579Y27957753D01*
X12865932Y27914521D01*
X12845163Y27879771D01*
X12829655Y27854166D01*
X12819791Y27838365D01*
X12816199Y27833204D01*
X12796431Y27816437D01*
X12772210Y27800747D01*
X12761156Y27795104D01*
X12728725Y27780425D01*
X11503175Y27780425D01*
X11503175Y28117501D01*
X11560252Y28117623D01*
X11606853Y28118064D01*
X11645198Y28118939D01*
X11677510Y28120360D01*
X11706011Y28122441D01*
X11732920Y28125295D01*
X11760461Y28129035D01*
X11776225Y28131440D01*
X11932436Y28162100D01*
X12083314Y28204213D01*
X12228652Y28257680D01*
X12368249Y28322406D01*
X12501900Y28398292D01*
X12629400Y28485241D01*
X12750546Y28583157D01*
X12781763Y28611116D01*
X12891027Y28719567D01*
X12990255Y28835671D01*
X13079243Y28959041D01*
X13157787Y29089293D01*
X13225682Y29226040D01*
X13282725Y29368897D01*
X13328711Y29517478D01*
X13363438Y29671398D01*
X13373431Y29729875D01*
X13379462Y29774179D01*
X13382012Y29811490D01*
X13380974Y29846759D01*
X13376239Y29884939D01*
X13369192Y29923550D01*
X13343612Y30022761D01*
X13306471Y30123539D01*
X13258641Y30224837D01*
X13200988Y30325608D01*
X13134382Y30424806D01*
X13059691Y30521384D01*
X12977785Y30614295D01*
X12889532Y30702494D01*
X12795800Y30784932D01*
X12697459Y30860563D01*
X12595378Y30928342D01*
X12490424Y30987220D01*
X12483326Y30990814D01*
X12396494Y31029777D01*
X12299299Y31064968D01*
X12193598Y31096063D01*
X12081250Y31122736D01*
X11964115Y31144662D01*
X11844050Y31161516D01*
X11722916Y31172974D01*
X11602571Y31178711D01*
X11484874Y31178401D01*
X11425331Y31175743D01*
X11300751Y31165386D01*
X11182098Y31149767D01*
X11070815Y31129162D01*
X10968342Y31103848D01*
X10876122Y31074101D01*
X10856731Y31066746D01*
X10829311Y31056564D01*
X10806029Y31048924D01*
X10789503Y31044619D01*
X10782555Y31044259D01*
X10776195Y31054151D01*
X10780367Y31068473D01*
X10794047Y31086384D01*
X10816215Y31107040D01*
X10845849Y31129599D01*
X10881925Y31153220D01*
X10923422Y31177059D01*
X10969317Y31200275D01*
X10975237Y31203056D01*
X11097920Y31253975D01*
X11228856Y31296631D01*
X11366485Y31330823D01*
X11509247Y31356348D01*
X11655581Y31373006D01*
X11803928Y31380596D01*
X11952728Y31378915D01*
X12100419Y31367762D01*
X12176275Y31358151D01*
X12321368Y31331519D01*
X12459286Y31294580D01*
X12590661Y31247043D01*
X12716127Y31188617D01*
X12836315Y31119013D01*
X12951859Y31037938D01*
X13050965Y30956194D01*
X13107803Y30900097D01*
X13163886Y30833434D01*
X13217460Y30758301D01*
X13220683Y30753375D01*
X13237529Y30727854D01*
X13251926Y30706720D01*
X13262471Y30691982D01*
X13267761Y30685651D01*
X13268001Y30685550D01*
X13267523Y30690933D01*
X13262131Y30705914D01*
X13252606Y30728740D01*
X13239733Y30757661D01*
X13224293Y30790924D01*
X13207070Y30826776D01*
X13188846Y30863465D01*
X13185916Y30869245D01*
X13154948Y30926476D01*
X13119272Y30986146D01*
X13080078Y31046687D01*
X13038555Y31106535D01*
X12995895Y31164124D01*
X12953289Y31217887D01*
X12911925Y31266260D01*
X12872996Y31307676D01*
X12837691Y31340570D01*
X12813201Y31359463D01*
X12753493Y31396255D01*
X12683396Y31432959D01*
X12605197Y31468725D01*
X12521186Y31502702D01*
X12433650Y31534040D01*
X12344876Y31561887D01*
X12257154Y31585394D01*
X12172771Y31603710D01*
X12141261Y31609263D01*
X12090624Y31615939D01*
X12030109Y31621255D01*
X11962473Y31625111D01*
X11890476Y31627405D01*
X11816875Y31628039D01*
X11744429Y31626911D01*
X11700626Y31625252D01*
X11538472Y31613959D01*
X11387146Y31596031D01*
X11246648Y31571468D01*
X11116977Y31540270D01*
X10998132Y31502437D01*
X10890113Y31457968D01*
X10792919Y31406863D01*
X10706549Y31349121D01*
X10674053Y31323352D01*
X10652728Y31306086D01*
X10634667Y31292423D01*
X10622271Y31284128D01*
X10618381Y31282450D01*
X10610037Y31286860D01*
X10609984Y31299411D01*
X10617722Y31319078D01*
X10632749Y31344839D01*
X10654562Y31375669D01*
X10679141Y31406380D01*
X10739231Y31468840D01*
X10810598Y31526988D01*
X10892489Y31580573D01*
X10984147Y31629343D01*
X11084818Y31673049D01*
X11193745Y31711437D01*
X11310175Y31744259D01*
X11433351Y31771262D01*
X11562520Y31792196D01*
X11696924Y31806810D01*
X11835810Y31814852D01*
X11912750Y31816377D01*
X11952335Y31816692D01*
X11980490Y31817135D01*
X11998482Y31817853D01*
X12007582Y31818993D01*
X12009058Y31820700D01*
X12004179Y31823123D01*
X11995658Y31825955D01*
X11931295Y31843210D01*
X11856929Y31858057D01*
X11775080Y31870179D01*
X11688270Y31879258D01*
X11599023Y31884978D01*
X11509860Y31887022D01*
X11509525Y31887022D01*
X11395801Y31884593D01*
X11290009Y31876774D01*
X11188375Y31863107D01*
X11087130Y31843137D01*
X11028361Y31828815D01*
X10881933Y31784411D01*
X10740878Y31728795D01*
X10605701Y31662482D01*
X10476907Y31585990D01*
X10355004Y31499836D01*
X10240498Y31404538D01*
X10133893Y31300613D01*
X10035696Y31188578D01*
X9946414Y31068951D01*
X9866551Y30942248D01*
X9796615Y30808987D01*
X9737110Y30669685D01*
X9688544Y30524859D01*
X9664672Y30434725D01*
X9649502Y30367125D01*
X9637776Y30304610D01*
X9629127Y30243853D01*
X9623184Y30181527D01*
X9619578Y30114304D01*
X9617940Y30038859D01*
X9617771Y30012450D01*
X9617927Y29945609D01*
X9619065Y29888432D01*
X9621454Y29837902D01*
X9625360Y29791005D01*
X9631052Y29744724D01*
X9638798Y29696042D01*
X9648867Y29641945D01*
X9652203Y29625100D01*
X9688141Y29477145D01*
X9735550Y29333952D01*
X9793930Y29196041D01*
X9862783Y29063933D01*
X9941608Y28938147D01*
X10029906Y28819203D01*
X10127177Y28707622D01*
X10232922Y28603924D01*
X10346641Y28508628D01*
X10467834Y28422256D01*
X10596003Y28345326D01*
X10730648Y28278359D01*
X10871268Y28221876D01*
X11017365Y28176396D01*
X11052325Y28167389D01*
X11112177Y28153139D01*
X11165936Y28141784D01*
X11216334Y28133021D01*
X11266101Y28126547D01*
X11317969Y28122061D01*
X11374670Y28119261D01*
X11438936Y28117844D01*
X11503175Y28117501D01*
X11503175Y27780425D01*
X10290325Y27780425D01*
X10257893Y27795104D01*
X10234252Y27808397D01*
X10211439Y27825291D01*
X10202939Y27833204D01*
X10197737Y27840786D01*
X10186589Y27858718D01*
X10169880Y27886338D01*
X10147991Y27922987D01*
X10121306Y27968002D01*
X10090208Y28020723D01*
X10055080Y28080488D01*
X10016305Y28146637D01*
X9974266Y28218508D01*
X9929345Y28295440D01*
X9881926Y28376772D01*
X9832392Y28461842D01*
X9781125Y28549991D01*
X9728509Y28640556D01*
X9674926Y28732876D01*
X9620760Y28826291D01*
X9566393Y28920139D01*
X9512209Y29013759D01*
X9458590Y29106490D01*
X9405920Y29197671D01*
X9354581Y29286641D01*
X9304956Y29372738D01*
X9257428Y29455301D01*
X9212381Y29533670D01*
X9170197Y29607183D01*
X9131259Y29675180D01*
X9095950Y29736998D01*
X9064653Y29791977D01*
X9037752Y29839455D01*
X9015628Y29878772D01*
X8998665Y29909267D01*
X8987246Y29930278D01*
X8981754Y29941144D01*
X8981443Y29941921D01*
X8975395Y29969067D01*
X8973260Y30001792D01*
X8975101Y30034023D01*
G37*
X8975101Y30034023D02*
X8980196Y30057539D01*
X8984103Y30065194D01*
X8994050Y30083288D01*
X9009721Y30111268D01*
X9030798Y30148581D01*
X9056964Y30194671D01*
X9087901Y30248986D01*
X9123293Y30310970D01*
X9162823Y30380070D01*
X9206173Y30455732D01*
X9253026Y30537401D01*
X9303065Y30624525D01*
X9355972Y30716548D01*
X9411432Y30812917D01*
X9469125Y30913077D01*
X9528736Y31016475D01*
X9579612Y31104650D01*
X9664233Y31251162D01*
X9742607Y31386656D01*
X9814753Y31511164D01*
X9880688Y31624715D01*
X9940430Y31727340D01*
X9993997Y31819069D01*
X10041406Y31899931D01*
X10082675Y31969959D01*
X10117822Y32029181D01*
X10146866Y32077628D01*
X10169823Y32115331D01*
X10186711Y32142319D01*
X10197548Y32158624D01*
X10201032Y32163155D01*
X10227291Y32188237D01*
X10254817Y32204822D01*
X10265429Y32209193D01*
X10269741Y32210764D01*
X10274282Y32212204D01*
X10279597Y32213518D01*
X10286235Y32214713D01*
X10294741Y32215793D01*
X10305662Y32216764D01*
X10319545Y32217633D01*
X10336937Y32218405D01*
X10358385Y32219086D01*
X10384435Y32219681D01*
X10415634Y32220197D01*
X10452529Y32220638D01*
X10495667Y32221011D01*
X10545594Y32221322D01*
X10602857Y32221575D01*
X10668003Y32221778D01*
X10741579Y32221935D01*
X10824132Y32222053D01*
X10916207Y32222137D01*
X11018353Y32222193D01*
X11131115Y32222226D01*
X11255041Y32222243D01*
X11390677Y32222249D01*
X11509525Y32222250D01*
X11655069Y32222248D01*
X11788459Y32222239D01*
X11910243Y32222218D01*
X12020967Y32222179D01*
X12121176Y32222115D01*
X12211419Y32222022D01*
X12292240Y32221894D01*
X12364188Y32221725D01*
X12427808Y32221510D01*
X12483647Y32221243D01*
X12532251Y32220918D01*
X12574167Y32220529D01*
X12609943Y32220072D01*
X12640123Y32219540D01*
X12665255Y32218928D01*
X12685885Y32218230D01*
X12702560Y32217441D01*
X12715826Y32216555D01*
X12726230Y32215565D01*
X12734319Y32214468D01*
X12740638Y32213256D01*
X12745736Y32211925D01*
X12750157Y32210469D01*
X12752967Y32209437D01*
X12784981Y32192831D01*
X12813428Y32169853D01*
X12813530Y32169750D01*
X12819728Y32161587D01*
X12830872Y32144664D01*
X12847059Y32118813D01*
X12868389Y32083866D01*
X12894960Y32039655D01*
X12926871Y31986014D01*
X12964219Y31922774D01*
X13007104Y31849767D01*
X13055625Y31766827D01*
X13109879Y31673785D01*
X13169966Y31570474D01*
X13235983Y31456726D01*
X13308030Y31332374D01*
X13386206Y31197249D01*
X13434221Y31114175D01*
X13495364Y31008304D01*
X13554865Y30905180D01*
X13612408Y30805357D01*
X13667673Y30709390D01*
X13720343Y30617835D01*
X13770101Y30531246D01*
X13816627Y30450178D01*
X13859606Y30375187D01*
X13898718Y30306826D01*
X13933645Y30245653D01*
X13964071Y30192221D01*
X13989676Y30147085D01*
X14010143Y30110801D01*
X14025155Y30083923D01*
X14034393Y30067007D01*
X14037472Y30060864D01*
X14045427Y30023714D01*
X14045433Y29982708D01*
X14037757Y29943567D01*
X14031235Y29926725D01*
X14024884Y29914523D01*
X14012662Y29892285D01*
X13994952Y29860670D01*
X13972139Y29820341D01*
X13944605Y29771958D01*
X13912736Y29716184D01*
X13876915Y29653679D01*
X13837525Y29585106D01*
X13794951Y29511125D01*
X13749577Y29432397D01*
X13701786Y29349585D01*
X13651962Y29263350D01*
X13600489Y29174354D01*
X13547752Y29083256D01*
X13494133Y28990720D01*
X13440018Y28897406D01*
X13385789Y28803976D01*
X13331830Y28711092D01*
X13278526Y28619414D01*
X13226260Y28529605D01*
X13175417Y28442324D01*
X13126379Y28358235D01*
X13079532Y28277999D01*
X13035258Y28202276D01*
X12993942Y28131729D01*
X12955967Y28067018D01*
X12921719Y28008806D01*
X12891579Y27957753D01*
X12865932Y27914521D01*
X12845163Y27879771D01*
X12829655Y27854166D01*
X12819791Y27838365D01*
X12816199Y27833204D01*
X12796431Y27816437D01*
X12772210Y27800747D01*
X12761156Y27795104D01*
X12728725Y27780425D01*
X11503175Y27780425D01*
X11503175Y28117501D01*
X11560252Y28117623D01*
X11606853Y28118064D01*
X11645198Y28118939D01*
X11677510Y28120360D01*
X11706011Y28122441D01*
X11732920Y28125295D01*
X11760461Y28129035D01*
X11776225Y28131440D01*
X11932436Y28162100D01*
X12083314Y28204213D01*
X12228652Y28257680D01*
X12368249Y28322406D01*
X12501900Y28398292D01*
X12629400Y28485241D01*
X12750546Y28583157D01*
X12781763Y28611116D01*
X12891027Y28719567D01*
X12990255Y28835671D01*
X13079243Y28959041D01*
X13157787Y29089293D01*
X13225682Y29226040D01*
X13282725Y29368897D01*
X13328711Y29517478D01*
X13363438Y29671398D01*
X13373431Y29729875D01*
X13379462Y29774179D01*
X13382012Y29811490D01*
X13380974Y29846759D01*
X13376239Y29884939D01*
X13369192Y29923550D01*
X13343612Y30022761D01*
X13306471Y30123539D01*
X13258641Y30224837D01*
X13200988Y30325608D01*
X13134382Y30424806D01*
X13059691Y30521384D01*
X12977785Y30614295D01*
X12889532Y30702494D01*
X12795800Y30784932D01*
X12697459Y30860563D01*
X12595378Y30928342D01*
X12490424Y30987220D01*
X12483326Y30990814D01*
X12396494Y31029777D01*
X12299299Y31064968D01*
X12193598Y31096063D01*
X12081250Y31122736D01*
X11964115Y31144662D01*
X11844050Y31161516D01*
X11722916Y31172974D01*
X11602571Y31178711D01*
X11484874Y31178401D01*
X11425331Y31175743D01*
X11300751Y31165386D01*
X11182098Y31149767D01*
X11070815Y31129162D01*
X10968342Y31103848D01*
X10876122Y31074101D01*
X10856731Y31066746D01*
X10829311Y31056564D01*
X10806029Y31048924D01*
X10789503Y31044619D01*
X10782555Y31044259D01*
X10776195Y31054151D01*
X10780367Y31068473D01*
X10794047Y31086384D01*
X10816215Y31107040D01*
X10845849Y31129599D01*
X10881925Y31153220D01*
X10923422Y31177059D01*
X10969317Y31200275D01*
X10975237Y31203056D01*
X11097920Y31253975D01*
X11228856Y31296631D01*
X11366485Y31330823D01*
X11509247Y31356348D01*
X11655581Y31373006D01*
X11803928Y31380596D01*
X11952728Y31378915D01*
X12100419Y31367762D01*
X12176275Y31358151D01*
X12321368Y31331519D01*
X12459286Y31294580D01*
X12590661Y31247043D01*
X12716127Y31188617D01*
X12836315Y31119013D01*
X12951859Y31037938D01*
X13050965Y30956194D01*
X13107803Y30900097D01*
X13163886Y30833434D01*
X13217460Y30758301D01*
X13220683Y30753375D01*
X13237529Y30727854D01*
X13251926Y30706720D01*
X13262471Y30691982D01*
X13267761Y30685651D01*
X13268001Y30685550D01*
X13267523Y30690933D01*
X13262131Y30705914D01*
X13252606Y30728740D01*
X13239733Y30757661D01*
X13224293Y30790924D01*
X13207070Y30826776D01*
X13188846Y30863465D01*
X13185916Y30869245D01*
X13154948Y30926476D01*
X13119272Y30986146D01*
X13080078Y31046687D01*
X13038555Y31106535D01*
X12995895Y31164124D01*
X12953289Y31217887D01*
X12911925Y31266260D01*
X12872996Y31307676D01*
X12837691Y31340570D01*
X12813201Y31359463D01*
X12753493Y31396255D01*
X12683396Y31432959D01*
X12605197Y31468725D01*
X12521186Y31502702D01*
X12433650Y31534040D01*
X12344876Y31561887D01*
X12257154Y31585394D01*
X12172771Y31603710D01*
X12141261Y31609263D01*
X12090624Y31615939D01*
X12030109Y31621255D01*
X11962473Y31625111D01*
X11890476Y31627405D01*
X11816875Y31628039D01*
X11744429Y31626911D01*
X11700626Y31625252D01*
X11538472Y31613959D01*
X11387146Y31596031D01*
X11246648Y31571468D01*
X11116977Y31540270D01*
X10998132Y31502437D01*
X10890113Y31457968D01*
X10792919Y31406863D01*
X10706549Y31349121D01*
X10674053Y31323352D01*
X10652728Y31306086D01*
X10634667Y31292423D01*
X10622271Y31284128D01*
X10618381Y31282450D01*
X10610037Y31286860D01*
X10609984Y31299411D01*
X10617722Y31319078D01*
X10632749Y31344839D01*
X10654562Y31375669D01*
X10679141Y31406380D01*
X10739231Y31468840D01*
X10810598Y31526988D01*
X10892489Y31580573D01*
X10984147Y31629343D01*
X11084818Y31673049D01*
X11193745Y31711437D01*
X11310175Y31744259D01*
X11433351Y31771262D01*
X11562520Y31792196D01*
X11696924Y31806810D01*
X11835810Y31814852D01*
X11912750Y31816377D01*
X11952335Y31816692D01*
X11980490Y31817135D01*
X11998482Y31817853D01*
X12007582Y31818993D01*
X12009058Y31820700D01*
X12004179Y31823123D01*
X11995658Y31825955D01*
X11931295Y31843210D01*
X11856929Y31858057D01*
X11775080Y31870179D01*
X11688270Y31879258D01*
X11599023Y31884978D01*
X11509860Y31887022D01*
X11509525Y31887022D01*
X11395801Y31884593D01*
X11290009Y31876774D01*
X11188375Y31863107D01*
X11087130Y31843137D01*
X11028361Y31828815D01*
X10881933Y31784411D01*
X10740878Y31728795D01*
X10605701Y31662482D01*
X10476907Y31585990D01*
X10355004Y31499836D01*
X10240498Y31404538D01*
X10133893Y31300613D01*
X10035696Y31188578D01*
X9946414Y31068951D01*
X9866551Y30942248D01*
X9796615Y30808987D01*
X9737110Y30669685D01*
X9688544Y30524859D01*
X9664672Y30434725D01*
X9649502Y30367125D01*
X9637776Y30304610D01*
X9629127Y30243853D01*
X9623184Y30181527D01*
X9619578Y30114304D01*
X9617940Y30038859D01*
X9617771Y30012450D01*
X9617927Y29945609D01*
X9619065Y29888432D01*
X9621454Y29837902D01*
X9625360Y29791005D01*
X9631052Y29744724D01*
X9638798Y29696042D01*
X9648867Y29641945D01*
X9652203Y29625100D01*
X9688141Y29477145D01*
X9735550Y29333952D01*
X9793930Y29196041D01*
X9862783Y29063933D01*
X9941608Y28938147D01*
X10029906Y28819203D01*
X10127177Y28707622D01*
X10232922Y28603924D01*
X10346641Y28508628D01*
X10467834Y28422256D01*
X10596003Y28345326D01*
X10730648Y28278359D01*
X10871268Y28221876D01*
X11017365Y28176396D01*
X11052325Y28167389D01*
X11112177Y28153139D01*
X11165936Y28141784D01*
X11216334Y28133021D01*
X11266101Y28126547D01*
X11317969Y28122061D01*
X11374670Y28119261D01*
X11438936Y28117844D01*
X11503175Y28117501D01*
X11503175Y27780425D01*
X10290325Y27780425D01*
X10257893Y27795104D01*
X10234252Y27808397D01*
X10211439Y27825291D01*
X10202939Y27833204D01*
X10197737Y27840786D01*
X10186589Y27858718D01*
X10169880Y27886338D01*
X10147991Y27922987D01*
X10121306Y27968002D01*
X10090208Y28020723D01*
X10055080Y28080488D01*
X10016305Y28146637D01*
X9974266Y28218508D01*
X9929345Y28295440D01*
X9881926Y28376772D01*
X9832392Y28461842D01*
X9781125Y28549991D01*
X9728509Y28640556D01*
X9674926Y28732876D01*
X9620760Y28826291D01*
X9566393Y28920139D01*
X9512209Y29013759D01*
X9458590Y29106490D01*
X9405920Y29197671D01*
X9354581Y29286641D01*
X9304956Y29372738D01*
X9257428Y29455301D01*
X9212381Y29533670D01*
X9170197Y29607183D01*
X9131259Y29675180D01*
X9095950Y29736998D01*
X9064653Y29791977D01*
X9037752Y29839455D01*
X9015628Y29878772D01*
X8998665Y29909267D01*
X8987246Y29930278D01*
X8981754Y29941144D01*
X8981443Y29941921D01*
X8975395Y29969067D01*
X8973260Y30001792D01*
X8975101Y30034023D01*
G36*
X12284225Y24338725D02*
G01*
X12285962Y24229162D01*
X12287700Y24119599D01*
X11511262Y24121212D01*
X10734825Y24122825D01*
X10734825Y24338725D01*
X12284225Y24338725D01*
G37*
X12284225Y24338725D02*
X12285962Y24229162D01*
X12287700Y24119599D01*
X11511262Y24121212D01*
X10734825Y24122825D01*
X10734825Y24338725D01*
X12284225Y24338725D01*
G36*
X10731762Y24864187D02*
G01*
X10731942Y24921156D01*
X10732405Y24976373D01*
X10733114Y25028014D01*
X10734034Y25074255D01*
X10735127Y25113272D01*
X10736358Y25143241D01*
X10737691Y25162337D01*
X10737693Y25162361D01*
X10747564Y25217813D01*
X10764719Y25263140D01*
X10789643Y25298948D01*
X10822821Y25325837D01*
X10864736Y25344410D01*
X10889125Y25350767D01*
X10905363Y25352773D01*
X10932500Y25354460D01*
X10968844Y25355831D01*
X11012704Y25356890D01*
X11062389Y25357642D01*
X11116209Y25358091D01*
X11172474Y25358241D01*
X11229492Y25358095D01*
X11285572Y25357659D01*
X11339025Y25356935D01*
X11388158Y25355930D01*
X11431282Y25354645D01*
X11466707Y25353086D01*
X11492740Y25351257D01*
X11507286Y25349260D01*
X11554393Y25333158D01*
X11591980Y25308927D01*
X11620824Y25275875D01*
X11641699Y25233310D01*
X11643717Y25227494D01*
X11649892Y25209425D01*
X11654347Y25197179D01*
X11655664Y25194159D01*
X11661677Y25196039D01*
X11678424Y25202113D01*
X11704809Y25211962D01*
X11739732Y25225169D01*
X11782095Y25241316D01*
X11830800Y25259985D01*
X11884749Y25280758D01*
X11942844Y25303218D01*
X11968649Y25313222D01*
X12028276Y25336329D01*
X12084299Y25357987D01*
X12135608Y25377772D01*
X12181093Y25395258D01*
X12219646Y25410019D01*
X12250156Y25421630D01*
X12271514Y25429665D01*
X12282611Y25433700D01*
X12283944Y25434100D01*
X12285030Y25428079D01*
X12285807Y25411329D01*
X12286245Y25385816D01*
X12286308Y25353509D01*
X12285963Y25316374D01*
X12285952Y25315611D01*
X12284225Y25197123D01*
X11661925Y24966051D01*
X11658291Y24843669D01*
X12284225Y24840375D01*
X12285962Y24730837D01*
X12287699Y24621300D01*
X10915800Y24621300D01*
X10915800Y24843550D01*
X11481662Y24843550D01*
X11479718Y24976687D01*
X11478957Y25021747D01*
X11478061Y25055824D01*
X11476873Y25080635D01*
X11475234Y25097895D01*
X11472988Y25109321D01*
X11469975Y25116630D01*
X11466435Y25121149D01*
X11462869Y25123973D01*
X11457572Y25126287D01*
X11449347Y25128141D01*
X11436999Y25129585D01*
X11419332Y25130670D01*
X11395149Y25131447D01*
X11363253Y25131965D01*
X11322449Y25132275D01*
X11271541Y25132428D01*
X11209331Y25132474D01*
X11197587Y25132475D01*
X10940077Y25132475D01*
X10927938Y25117484D01*
X10923808Y25111420D01*
X10920731Y25103647D01*
X10918554Y25092349D01*
X10917125Y25075708D01*
X10916292Y25051910D01*
X10915901Y25019137D01*
X10915800Y24975574D01*
X10915800Y24843550D01*
X10915800Y24621300D01*
X10731650Y24621300D01*
X10731762Y24864187D01*
G37*
X10731762Y24864187D02*
X10731942Y24921156D01*
X10732405Y24976373D01*
X10733114Y25028014D01*
X10734034Y25074255D01*
X10735127Y25113272D01*
X10736358Y25143241D01*
X10737691Y25162337D01*
X10737693Y25162361D01*
X10747564Y25217813D01*
X10764719Y25263140D01*
X10789643Y25298948D01*
X10822821Y25325837D01*
X10864736Y25344410D01*
X10889125Y25350767D01*
X10905363Y25352773D01*
X10932500Y25354460D01*
X10968844Y25355831D01*
X11012704Y25356890D01*
X11062389Y25357642D01*
X11116209Y25358091D01*
X11172474Y25358241D01*
X11229492Y25358095D01*
X11285572Y25357659D01*
X11339025Y25356935D01*
X11388158Y25355930D01*
X11431282Y25354645D01*
X11466707Y25353086D01*
X11492740Y25351257D01*
X11507286Y25349260D01*
X11554393Y25333158D01*
X11591980Y25308927D01*
X11620824Y25275875D01*
X11641699Y25233310D01*
X11643717Y25227494D01*
X11649892Y25209425D01*
X11654347Y25197179D01*
X11655664Y25194159D01*
X11661677Y25196039D01*
X11678424Y25202113D01*
X11704809Y25211962D01*
X11739732Y25225169D01*
X11782095Y25241316D01*
X11830800Y25259985D01*
X11884749Y25280758D01*
X11942844Y25303218D01*
X11968649Y25313222D01*
X12028276Y25336329D01*
X12084299Y25357987D01*
X12135608Y25377772D01*
X12181093Y25395258D01*
X12219646Y25410019D01*
X12250156Y25421630D01*
X12271514Y25429665D01*
X12282611Y25433700D01*
X12283944Y25434100D01*
X12285030Y25428079D01*
X12285807Y25411329D01*
X12286245Y25385816D01*
X12286308Y25353509D01*
X12285963Y25316374D01*
X12285952Y25315611D01*
X12284225Y25197123D01*
X11661925Y24966051D01*
X11658291Y24843669D01*
X12284225Y24840375D01*
X12285962Y24730837D01*
X12287699Y24621300D01*
X10915800Y24621300D01*
X10915800Y24843550D01*
X11481662Y24843550D01*
X11479718Y24976687D01*
X11478957Y25021747D01*
X11478061Y25055824D01*
X11476873Y25080635D01*
X11475234Y25097895D01*
X11472988Y25109321D01*
X11469975Y25116630D01*
X11466435Y25121149D01*
X11462869Y25123973D01*
X11457572Y25126287D01*
X11449347Y25128141D01*
X11436999Y25129585D01*
X11419332Y25130670D01*
X11395149Y25131447D01*
X11363253Y25131965D01*
X11322449Y25132275D01*
X11271541Y25132428D01*
X11209331Y25132474D01*
X11197587Y25132475D01*
X10940077Y25132475D01*
X10927938Y25117484D01*
X10923808Y25111420D01*
X10920731Y25103647D01*
X10918554Y25092349D01*
X10917125Y25075708D01*
X10916292Y25051910D01*
X10915901Y25019137D01*
X10915800Y24975574D01*
X10915800Y24843550D01*
X10915800Y24621300D01*
X10731650Y24621300D01*
X10731762Y24864187D01*
G36*
X10734907Y26015003D02*
G01*
X10735205Y26060896D01*
X10735794Y26097219D01*
X10736748Y26125536D01*
X10738143Y26147411D01*
X10740053Y26164408D01*
X10742553Y26178091D01*
X10745719Y26190026D01*
X10745992Y26190915D01*
X10765666Y26235652D01*
X10794346Y26271491D01*
X10832267Y26298716D01*
X10836248Y26300809D01*
X10873627Y26319925D01*
X12145422Y26319925D01*
X12182801Y26300809D01*
X12221875Y26274066D01*
X12251704Y26238663D01*
X12272001Y26194942D01*
X12272229Y26194232D01*
X12275520Y26181762D01*
X12278147Y26166180D01*
X12280205Y26145900D01*
X12281787Y26119335D01*
X12282985Y26084899D01*
X12283893Y26041006D01*
X12284605Y25986070D01*
X12284633Y25983375D01*
X12284927Y25934797D01*
X12284814Y25888343D01*
X12284329Y25846129D01*
X12283508Y25810273D01*
X12282385Y25782891D01*
X12281005Y25766150D01*
X12268838Y25713963D01*
X12248038Y25671069D01*
X12218442Y25637298D01*
X12179886Y25612479D01*
X12132207Y25596443D01*
X12115073Y25593151D01*
X12101400Y25591987D01*
X12076170Y25590934D01*
X12040527Y25589992D01*
X11995615Y25589161D01*
X11942575Y25588440D01*
X11882551Y25587830D01*
X11816687Y25587331D01*
X11746125Y25586941D01*
X11672009Y25586662D01*
X11595482Y25586493D01*
X11517686Y25586434D01*
X11478900Y25586458D01*
X11478900Y25815100D01*
X11509525Y25815100D01*
X11607387Y25815105D01*
X11693342Y25815131D01*
X11768183Y25815197D01*
X11832701Y25815319D01*
X11887688Y25815515D01*
X11933939Y25815802D01*
X11972244Y25816197D01*
X12003397Y25816717D01*
X12028190Y25817381D01*
X12047415Y25818205D01*
X12061865Y25819206D01*
X12072333Y25820402D01*
X12079611Y25821811D01*
X12084492Y25823449D01*
X12087768Y25825334D01*
X12090231Y25827483D01*
X12090550Y25827800D01*
X12095061Y25833144D01*
X12098361Y25840089D01*
X12100636Y25850542D01*
X12102074Y25866410D01*
X12102864Y25889600D01*
X12103192Y25922022D01*
X12103250Y25956761D01*
X12102950Y26003003D01*
X12102000Y26037746D01*
X12100325Y26062180D01*
X12097848Y26077492D01*
X12095142Y26084110D01*
X12083928Y26092648D01*
X12066345Y26099852D01*
X12061804Y26101047D01*
X12051149Y26102043D01*
X12028960Y26102946D01*
X11996402Y26103753D01*
X11954640Y26104467D01*
X11904840Y26105086D01*
X11848166Y26105610D01*
X11785783Y26106039D01*
X11718857Y26106373D01*
X11648553Y26106612D01*
X11576034Y26106755D01*
X11502468Y26106803D01*
X11429018Y26106755D01*
X11356850Y26106612D01*
X11287128Y26106372D01*
X11221018Y26106036D01*
X11159686Y26105604D01*
X11104294Y26105076D01*
X11056010Y26104451D01*
X11015998Y26103729D01*
X10985423Y26102910D01*
X10965450Y26101995D01*
X10957886Y26101192D01*
X10940224Y26095777D01*
X10927663Y26089604D01*
X10926136Y26088341D01*
X10923150Y26078851D01*
X10920667Y26057115D01*
X10918719Y26023579D01*
X10917336Y25978690D01*
X10917006Y25961228D01*
X10916387Y25919256D01*
X10916211Y25888103D01*
X10916635Y25865888D01*
X10917815Y25850733D01*
X10919908Y25840760D01*
X10923072Y25834089D01*
X10927463Y25828842D01*
X10928118Y25828181D01*
X10930533Y25825929D01*
X10933514Y25823951D01*
X10937856Y25822231D01*
X10944351Y25820749D01*
X10953793Y25819488D01*
X10966973Y25818430D01*
X10984686Y25817557D01*
X11007725Y25816852D01*
X11036881Y25816297D01*
X11072949Y25815873D01*
X11116721Y25815564D01*
X11168990Y25815350D01*
X11230549Y25815215D01*
X11302192Y25815140D01*
X11384711Y25815107D01*
X11478900Y25815100D01*
X11478900Y25586458D01*
X11439766Y25586484D01*
X11362863Y25586644D01*
X11288122Y25586914D01*
X11216686Y25587294D01*
X11149697Y25587783D01*
X11088298Y25588381D01*
X11033634Y25589088D01*
X10986846Y25589904D01*
X10949079Y25590829D01*
X10921475Y25591863D01*
X10905177Y25593006D01*
X10903239Y25593269D01*
X10853109Y25606857D01*
X10811335Y25629863D01*
X10778214Y25662040D01*
X10754043Y25703139D01*
X10745992Y25725034D01*
X10742772Y25736899D01*
X10740223Y25750393D01*
X10738270Y25767080D01*
X10736839Y25788524D01*
X10735853Y25816290D01*
X10735239Y25851943D01*
X10734922Y25897045D01*
X10734825Y25953163D01*
X10734825Y25957975D01*
X10734907Y26015003D01*
G37*
X10734907Y26015003D02*
X10735205Y26060896D01*
X10735794Y26097219D01*
X10736748Y26125536D01*
X10738143Y26147411D01*
X10740053Y26164408D01*
X10742553Y26178091D01*
X10745719Y26190026D01*
X10745992Y26190915D01*
X10765666Y26235652D01*
X10794346Y26271491D01*
X10832267Y26298716D01*
X10836248Y26300809D01*
X10873627Y26319925D01*
X12145422Y26319925D01*
X12182801Y26300809D01*
X12221875Y26274066D01*
X12251704Y26238663D01*
X12272001Y26194942D01*
X12272229Y26194232D01*
X12275520Y26181762D01*
X12278147Y26166180D01*
X12280205Y26145900D01*
X12281787Y26119335D01*
X12282985Y26084899D01*
X12283893Y26041006D01*
X12284605Y25986070D01*
X12284633Y25983375D01*
X12284927Y25934797D01*
X12284814Y25888343D01*
X12284329Y25846129D01*
X12283508Y25810273D01*
X12282385Y25782891D01*
X12281005Y25766150D01*
X12268838Y25713963D01*
X12248038Y25671069D01*
X12218442Y25637298D01*
X12179886Y25612479D01*
X12132207Y25596443D01*
X12115073Y25593151D01*
X12101400Y25591987D01*
X12076170Y25590934D01*
X12040527Y25589992D01*
X11995615Y25589161D01*
X11942575Y25588440D01*
X11882551Y25587830D01*
X11816687Y25587331D01*
X11746125Y25586941D01*
X11672009Y25586662D01*
X11595482Y25586493D01*
X11517686Y25586434D01*
X11478900Y25586458D01*
X11478900Y25815100D01*
X11509525Y25815100D01*
X11607387Y25815105D01*
X11693342Y25815131D01*
X11768183Y25815197D01*
X11832701Y25815319D01*
X11887688Y25815515D01*
X11933939Y25815802D01*
X11972244Y25816197D01*
X12003397Y25816717D01*
X12028190Y25817381D01*
X12047415Y25818205D01*
X12061865Y25819206D01*
X12072333Y25820402D01*
X12079611Y25821811D01*
X12084492Y25823449D01*
X12087768Y25825334D01*
X12090231Y25827483D01*
X12090550Y25827800D01*
X12095061Y25833144D01*
X12098361Y25840089D01*
X12100636Y25850542D01*
X12102074Y25866410D01*
X12102864Y25889600D01*
X12103192Y25922022D01*
X12103250Y25956761D01*
X12102950Y26003003D01*
X12102000Y26037746D01*
X12100325Y26062180D01*
X12097848Y26077492D01*
X12095142Y26084110D01*
X12083928Y26092648D01*
X12066345Y26099852D01*
X12061804Y26101047D01*
X12051149Y26102043D01*
X12028960Y26102946D01*
X11996402Y26103753D01*
X11954640Y26104467D01*
X11904840Y26105086D01*
X11848166Y26105610D01*
X11785783Y26106039D01*
X11718857Y26106373D01*
X11648553Y26106612D01*
X11576034Y26106755D01*
X11502468Y26106803D01*
X11429018Y26106755D01*
X11356850Y26106612D01*
X11287128Y26106372D01*
X11221018Y26106036D01*
X11159686Y26105604D01*
X11104294Y26105076D01*
X11056010Y26104451D01*
X11015998Y26103729D01*
X10985423Y26102910D01*
X10965450Y26101995D01*
X10957886Y26101192D01*
X10940224Y26095777D01*
X10927663Y26089604D01*
X10926136Y26088341D01*
X10923150Y26078851D01*
X10920667Y26057115D01*
X10918719Y26023579D01*
X10917336Y25978690D01*
X10917006Y25961228D01*
X10916387Y25919256D01*
X10916211Y25888103D01*
X10916635Y25865888D01*
X10917815Y25850733D01*
X10919908Y25840760D01*
X10923072Y25834089D01*
X10927463Y25828842D01*
X10928118Y25828181D01*
X10930533Y25825929D01*
X10933514Y25823951D01*
X10937856Y25822231D01*
X10944351Y25820749D01*
X10953793Y25819488D01*
X10966973Y25818430D01*
X10984686Y25817557D01*
X11007725Y25816852D01*
X11036881Y25816297D01*
X11072949Y25815873D01*
X11116721Y25815564D01*
X11168990Y25815350D01*
X11230549Y25815215D01*
X11302192Y25815140D01*
X11384711Y25815107D01*
X11478900Y25815100D01*
X11478900Y25586458D01*
X11439766Y25586484D01*
X11362863Y25586644D01*
X11288122Y25586914D01*
X11216686Y25587294D01*
X11149697Y25587783D01*
X11088298Y25588381D01*
X11033634Y25589088D01*
X10986846Y25589904D01*
X10949079Y25590829D01*
X10921475Y25591863D01*
X10905177Y25593006D01*
X10903239Y25593269D01*
X10853109Y25606857D01*
X10811335Y25629863D01*
X10778214Y25662040D01*
X10754043Y25703139D01*
X10745992Y25725034D01*
X10742772Y25736899D01*
X10740223Y25750393D01*
X10738270Y25767080D01*
X10736839Y25788524D01*
X10735853Y25816290D01*
X10735239Y25851943D01*
X10734922Y25897045D01*
X10734825Y25953163D01*
X10734825Y25957975D01*
X10734907Y26015003D01*
G36*
X10733076Y27229562D02*
G01*
X10734825Y27329575D01*
X12284225Y27329575D01*
X12284225Y27107354D01*
X11729330Y26945414D01*
X11174435Y26783475D01*
X12284225Y26777125D01*
X12285973Y26677112D01*
X12287722Y26577100D01*
X10731363Y26577100D01*
X10733094Y26692987D01*
X10734825Y26808875D01*
X11269577Y26964744D01*
X11349296Y26988016D01*
X11425519Y27010336D01*
X11497366Y27031442D01*
X11563955Y27051072D01*
X11624403Y27068965D01*
X11677830Y27084857D01*
X11723354Y27098487D01*
X11760093Y27109592D01*
X11787165Y27117911D01*
X11803689Y27123181D01*
X11808798Y27125081D01*
X11803287Y27125755D01*
X11785986Y27126398D01*
X11757808Y27127003D01*
X11719662Y27127562D01*
X11672461Y27128067D01*
X11617114Y27128510D01*
X11554532Y27128885D01*
X11485628Y27129184D01*
X11411311Y27129399D01*
X11332493Y27129522D01*
X11272297Y27129550D01*
X10731327Y27129550D01*
X10733076Y27229562D01*
G37*
X10733076Y27229562D02*
X10734825Y27329575D01*
X12284225Y27329575D01*
X12284225Y27107354D01*
X11729330Y26945414D01*
X11174435Y26783475D01*
X12284225Y26777125D01*
X12285973Y26677112D01*
X12287722Y26577100D01*
X10731363Y26577100D01*
X10733094Y26692987D01*
X10734825Y26808875D01*
X11269577Y26964744D01*
X11349296Y26988016D01*
X11425519Y27010336D01*
X11497366Y27031442D01*
X11563955Y27051072D01*
X11624403Y27068965D01*
X11677830Y27084857D01*
X11723354Y27098487D01*
X11760093Y27109592D01*
X11787165Y27117911D01*
X11803689Y27123181D01*
X11808798Y27125081D01*
X11803287Y27125755D01*
X11785986Y27126398D01*
X11757808Y27127003D01*
X11719662Y27127562D01*
X11672461Y27128067D01*
X11617114Y27128510D01*
X11554532Y27128885D01*
X11485628Y27129184D01*
X11411311Y27129399D01*
X11332493Y27129522D01*
X11272297Y27129550D01*
X10731327Y27129550D01*
X10733076Y27229562D01*
G36*
X10731698Y32919162D02*
G01*
X10731868Y32995207D01*
X10732401Y33059753D01*
X10733377Y33113996D01*
X10734878Y33159133D01*
X10736985Y33196363D01*
X10739779Y33226881D01*
X10743341Y33251886D01*
X10747752Y33272574D01*
X10753094Y33290143D01*
X10757620Y33301668D01*
X10778553Y33335850D01*
X10808754Y33365820D01*
X10844845Y33388514D01*
X10860742Y33395069D01*
X10869118Y33397691D01*
X10878682Y33399883D01*
X10890585Y33401682D01*
X10905979Y33403128D01*
X10926016Y33404257D01*
X10951846Y33405108D01*
X10984623Y33405720D01*
X11025497Y33406129D01*
X11075621Y33406374D01*
X11136147Y33406493D01*
X11207900Y33406525D01*
X11282608Y33406505D01*
X11345774Y33406377D01*
X11398553Y33406033D01*
X11442103Y33405366D01*
X11477581Y33404271D01*
X11506144Y33402641D01*
X11528948Y33400369D01*
X11547151Y33397350D01*
X11561909Y33393476D01*
X11574380Y33388641D01*
X11585720Y33382739D01*
X11597086Y33375664D01*
X11605722Y33369926D01*
X11625775Y33354096D01*
X11641879Y33334824D01*
X11657542Y33307847D01*
X11658698Y33305588D01*
X11680975Y33261802D01*
X11682997Y33078638D01*
X11685020Y32895473D01*
X11984622Y32893824D01*
X12284225Y32892175D01*
X12285962Y32782637D01*
X12287699Y32673100D01*
X10915800Y32673100D01*
X10915800Y32895350D01*
X11506350Y32895350D01*
X11506350Y33025525D01*
X11506271Y33069639D01*
X11505931Y33102830D01*
X11505178Y33126873D01*
X11503857Y33143544D01*
X11501814Y33154617D01*
X11498895Y33161869D01*
X11494947Y33167076D01*
X11494004Y33168045D01*
X11478855Y33178020D01*
X11460666Y33184232D01*
X11449771Y33185037D01*
X11427688Y33185688D01*
X11395928Y33186175D01*
X11356003Y33186487D01*
X11309424Y33186613D01*
X11257703Y33186542D01*
X11202350Y33186264D01*
X11189871Y33186174D01*
X10940067Y33184275D01*
X10927933Y33169284D01*
X10923805Y33163219D01*
X10920729Y33155441D01*
X10918553Y33144135D01*
X10917124Y33127484D01*
X10916291Y33103672D01*
X10915900Y33070883D01*
X10915800Y33027301D01*
X10915800Y32895350D01*
X10915800Y32673100D01*
X10731650Y32673100D01*
X10731698Y32919162D01*
G37*
X10731698Y32919162D02*
X10731868Y32995207D01*
X10732401Y33059753D01*
X10733377Y33113996D01*
X10734878Y33159133D01*
X10736985Y33196363D01*
X10739779Y33226881D01*
X10743341Y33251886D01*
X10747752Y33272574D01*
X10753094Y33290143D01*
X10757620Y33301668D01*
X10778553Y33335850D01*
X10808754Y33365820D01*
X10844845Y33388514D01*
X10860742Y33395069D01*
X10869118Y33397691D01*
X10878682Y33399883D01*
X10890585Y33401682D01*
X10905979Y33403128D01*
X10926016Y33404257D01*
X10951846Y33405108D01*
X10984623Y33405720D01*
X11025497Y33406129D01*
X11075621Y33406374D01*
X11136147Y33406493D01*
X11207900Y33406525D01*
X11282608Y33406505D01*
X11345774Y33406377D01*
X11398553Y33406033D01*
X11442103Y33405366D01*
X11477581Y33404271D01*
X11506144Y33402641D01*
X11528948Y33400369D01*
X11547151Y33397350D01*
X11561909Y33393476D01*
X11574380Y33388641D01*
X11585720Y33382739D01*
X11597086Y33375664D01*
X11605722Y33369926D01*
X11625775Y33354096D01*
X11641879Y33334824D01*
X11657542Y33307847D01*
X11658698Y33305588D01*
X11680975Y33261802D01*
X11682997Y33078638D01*
X11685020Y32895473D01*
X11984622Y32893824D01*
X12284225Y32892175D01*
X12285962Y32782637D01*
X12287699Y32673100D01*
X10915800Y32673100D01*
X10915800Y32895350D01*
X11506350Y32895350D01*
X11506350Y33025525D01*
X11506271Y33069639D01*
X11505931Y33102830D01*
X11505178Y33126873D01*
X11503857Y33143544D01*
X11501814Y33154617D01*
X11498895Y33161869D01*
X11494947Y33167076D01*
X11494004Y33168045D01*
X11478855Y33178020D01*
X11460666Y33184232D01*
X11449771Y33185037D01*
X11427688Y33185688D01*
X11395928Y33186175D01*
X11356003Y33186487D01*
X11309424Y33186613D01*
X11257703Y33186542D01*
X11202350Y33186264D01*
X11189871Y33186174D01*
X10940067Y33184275D01*
X10927933Y33169284D01*
X10923805Y33163219D01*
X10920729Y33155441D01*
X10918553Y33144135D01*
X10917124Y33127484D01*
X10916291Y33103672D01*
X10915900Y33070883D01*
X10915800Y33027301D01*
X10915800Y32895350D01*
X10915800Y32673100D01*
X10731650Y32673100D01*
X10731698Y32919162D01*
G36*
X10731892Y33992282D02*
G01*
X10732587Y34034048D01*
X10733691Y34067262D01*
X10735156Y34090715D01*
X10736937Y34103200D01*
X10737787Y34104893D01*
X10744429Y34106393D01*
X10762647Y34110090D01*
X10791539Y34115814D01*
X10830204Y34123391D01*
X10877740Y34132647D01*
X10933246Y34143412D01*
X10995820Y34155511D01*
X11064562Y34168772D01*
X11138570Y34183023D01*
X11216942Y34198090D01*
X11298778Y34213801D01*
X11383175Y34229983D01*
X11469233Y34246464D01*
X11556050Y34263070D01*
X11642726Y34279629D01*
X11728357Y34295969D01*
X11812044Y34311916D01*
X11892885Y34327298D01*
X11969978Y34341942D01*
X12042423Y34355675D01*
X12109317Y34368325D01*
X12169760Y34379719D01*
X12222850Y34389684D01*
X12263587Y34397286D01*
X12287400Y34401713D01*
X12287400Y34179059D01*
X12269937Y34175488D01*
X12258863Y34173430D01*
X12237262Y34169593D01*
X12207131Y34164324D01*
X12170464Y34157972D01*
X12129256Y34150883D01*
X12103250Y34146433D01*
X12060507Y34139097D01*
X12021325Y34132304D01*
X11987648Y34126397D01*
X11961417Y34121718D01*
X11944577Y34118609D01*
X11939737Y34117628D01*
X11925450Y34114308D01*
X11925450Y33786983D01*
X12104837Y33758679D01*
X12284225Y33730375D01*
X12285962Y33620837D01*
X12286392Y33578366D01*
X12286098Y33547377D01*
X12285017Y33526670D01*
X12283083Y33515046D01*
X12280233Y33511303D01*
X12280132Y33511300D01*
X12273151Y33512381D01*
X12254599Y33515516D01*
X12225411Y33520539D01*
X12186522Y33527286D01*
X12138865Y33535591D01*
X12083374Y33545291D01*
X12020984Y33556219D01*
X11952630Y33568212D01*
X11879245Y33581104D01*
X11801764Y33594730D01*
X11742887Y33605094D01*
X11742887Y33815956D01*
X11744302Y33822041D01*
X11745549Y33838967D01*
X11746563Y33864878D01*
X11747278Y33897915D01*
X11747626Y33936220D01*
X11747650Y33949450D01*
X11747582Y33993918D01*
X11747288Y34027271D01*
X11746635Y34051091D01*
X11745486Y34066963D01*
X11743709Y34076470D01*
X11741169Y34081197D01*
X11737730Y34082726D01*
X11736325Y34082800D01*
X11728405Y34081747D01*
X11709293Y34078740D01*
X11680305Y34074003D01*
X11642751Y34067763D01*
X11597946Y34060244D01*
X11547202Y34051671D01*
X11491832Y34042271D01*
X11433149Y34032268D01*
X11372467Y34021888D01*
X11311097Y34011355D01*
X11250354Y34000897D01*
X11191549Y33990737D01*
X11135997Y33981101D01*
X11085010Y33972215D01*
X11039900Y33964304D01*
X11001982Y33957593D01*
X10972567Y33952307D01*
X10952969Y33948673D01*
X10944501Y33946915D01*
X10944375Y33946873D01*
X10943456Y33943317D01*
X10947550Y33941116D01*
X10955026Y33939662D01*
X10973743Y33936470D01*
X11002391Y33931746D01*
X11039659Y33925695D01*
X11084239Y33918525D01*
X11134819Y33910441D01*
X11190091Y33901649D01*
X11248745Y33892355D01*
X11309470Y33882766D01*
X11370957Y33873088D01*
X11431896Y33863526D01*
X11490977Y33854287D01*
X11546891Y33845578D01*
X11598328Y33837603D01*
X11643977Y33830570D01*
X11682529Y33824684D01*
X11712674Y33820152D01*
X11733103Y33817179D01*
X11742505Y33815972D01*
X11742887Y33815956D01*
X11742887Y33605094D01*
X11721122Y33608926D01*
X11638251Y33623528D01*
X11554088Y33638369D01*
X11469565Y33653285D01*
X11385618Y33668112D01*
X11303180Y33682684D01*
X11223187Y33696837D01*
X11146572Y33710406D01*
X11074269Y33723226D01*
X11007213Y33735132D01*
X10946338Y33745959D01*
X10892578Y33755543D01*
X10846869Y33763719D01*
X10810143Y33770321D01*
X10783336Y33775185D01*
X10767381Y33778147D01*
X10764987Y33778613D01*
X10731650Y33785250D01*
X10731650Y33943175D01*
X10731892Y33992282D01*
G37*
X10731892Y33992282D02*
X10732587Y34034048D01*
X10733691Y34067262D01*
X10735156Y34090715D01*
X10736937Y34103200D01*
X10737787Y34104893D01*
X10744429Y34106393D01*
X10762647Y34110090D01*
X10791539Y34115814D01*
X10830204Y34123391D01*
X10877740Y34132647D01*
X10933246Y34143412D01*
X10995820Y34155511D01*
X11064562Y34168772D01*
X11138570Y34183023D01*
X11216942Y34198090D01*
X11298778Y34213801D01*
X11383175Y34229983D01*
X11469233Y34246464D01*
X11556050Y34263070D01*
X11642726Y34279629D01*
X11728357Y34295969D01*
X11812044Y34311916D01*
X11892885Y34327298D01*
X11969978Y34341942D01*
X12042423Y34355675D01*
X12109317Y34368325D01*
X12169760Y34379719D01*
X12222850Y34389684D01*
X12263587Y34397286D01*
X12287400Y34401713D01*
X12287400Y34179059D01*
X12269937Y34175488D01*
X12258863Y34173430D01*
X12237262Y34169593D01*
X12207131Y34164324D01*
X12170464Y34157972D01*
X12129256Y34150883D01*
X12103250Y34146433D01*
X12060507Y34139097D01*
X12021325Y34132304D01*
X11987648Y34126397D01*
X11961417Y34121718D01*
X11944577Y34118609D01*
X11939737Y34117628D01*
X11925450Y34114308D01*
X11925450Y33786983D01*
X12104837Y33758679D01*
X12284225Y33730375D01*
X12285962Y33620837D01*
X12286392Y33578366D01*
X12286098Y33547377D01*
X12285017Y33526670D01*
X12283083Y33515046D01*
X12280233Y33511303D01*
X12280132Y33511300D01*
X12273151Y33512381D01*
X12254599Y33515516D01*
X12225411Y33520539D01*
X12186522Y33527286D01*
X12138865Y33535591D01*
X12083374Y33545291D01*
X12020984Y33556219D01*
X11952630Y33568212D01*
X11879245Y33581104D01*
X11801764Y33594730D01*
X11742887Y33605094D01*
X11742887Y33815956D01*
X11744302Y33822041D01*
X11745549Y33838967D01*
X11746563Y33864878D01*
X11747278Y33897915D01*
X11747626Y33936220D01*
X11747650Y33949450D01*
X11747582Y33993918D01*
X11747288Y34027271D01*
X11746635Y34051091D01*
X11745486Y34066963D01*
X11743709Y34076470D01*
X11741169Y34081197D01*
X11737730Y34082726D01*
X11736325Y34082800D01*
X11728405Y34081747D01*
X11709293Y34078740D01*
X11680305Y34074003D01*
X11642751Y34067763D01*
X11597946Y34060244D01*
X11547202Y34051671D01*
X11491832Y34042271D01*
X11433149Y34032268D01*
X11372467Y34021888D01*
X11311097Y34011355D01*
X11250354Y34000897D01*
X11191549Y33990737D01*
X11135997Y33981101D01*
X11085010Y33972215D01*
X11039900Y33964304D01*
X11001982Y33957593D01*
X10972567Y33952307D01*
X10952969Y33948673D01*
X10944501Y33946915D01*
X10944375Y33946873D01*
X10943456Y33943317D01*
X10947550Y33941116D01*
X10955026Y33939662D01*
X10973743Y33936470D01*
X11002391Y33931746D01*
X11039659Y33925695D01*
X11084239Y33918525D01*
X11134819Y33910441D01*
X11190091Y33901649D01*
X11248745Y33892355D01*
X11309470Y33882766D01*
X11370957Y33873088D01*
X11431896Y33863526D01*
X11490977Y33854287D01*
X11546891Y33845578D01*
X11598328Y33837603D01*
X11643977Y33830570D01*
X11682529Y33824684D01*
X11712674Y33820152D01*
X11733103Y33817179D01*
X11742505Y33815972D01*
X11742887Y33815956D01*
X11742887Y33605094D01*
X11721122Y33608926D01*
X11638251Y33623528D01*
X11554088Y33638369D01*
X11469565Y33653285D01*
X11385618Y33668112D01*
X11303180Y33682684D01*
X11223187Y33696837D01*
X11146572Y33710406D01*
X11074269Y33723226D01*
X11007213Y33735132D01*
X10946338Y33745959D01*
X10892578Y33755543D01*
X10846869Y33763719D01*
X10810143Y33770321D01*
X10783336Y33775185D01*
X10767381Y33778147D01*
X10764987Y33778613D01*
X10731650Y33785250D01*
X10731650Y33943175D01*
X10731892Y33992282D01*
G36*
X11271043Y34952064D02*
G01*
X11807262Y35108325D01*
X11271043Y35111500D01*
X10734825Y35114675D01*
X10734825Y35317875D01*
X12284225Y35317875D01*
X12285961Y35208640D01*
X12286491Y35168705D01*
X12286518Y35139624D01*
X12285889Y35119553D01*
X12284452Y35106652D01*
X12282054Y35099077D01*
X12278541Y35094988D01*
X12276436Y35093732D01*
X12268787Y35091149D01*
X12249831Y35085287D01*
X12220459Y35076410D01*
X12181558Y35064779D01*
X12134020Y35050659D01*
X12078733Y35034312D01*
X12016587Y35016002D01*
X11948472Y34995991D01*
X11875276Y34974543D01*
X11797890Y34951920D01*
X11722459Y34929917D01*
X11179743Y34771775D01*
X12284225Y34765425D01*
X12285974Y34665275D01*
X12286423Y34625193D01*
X12286096Y34596310D01*
X12284901Y34577141D01*
X12282748Y34566203D01*
X12279624Y34562041D01*
X12272358Y34561662D01*
X12253175Y34561322D01*
X12222861Y34561025D01*
X12182197Y34560769D01*
X12131969Y34560559D01*
X12072959Y34560393D01*
X12005952Y34560276D01*
X11931731Y34560206D01*
X11851080Y34560187D01*
X11764784Y34560220D01*
X11673624Y34560305D01*
X11578386Y34560445D01*
X11503175Y34560591D01*
X10734825Y34562225D01*
X10734825Y34795804D01*
X11271043Y34952064D01*
G37*
X11271043Y34952064D02*
X11807262Y35108325D01*
X11271043Y35111500D01*
X10734825Y35114675D01*
X10734825Y35317875D01*
X12284225Y35317875D01*
X12285961Y35208640D01*
X12286491Y35168705D01*
X12286518Y35139624D01*
X12285889Y35119553D01*
X12284452Y35106652D01*
X12282054Y35099077D01*
X12278541Y35094988D01*
X12276436Y35093732D01*
X12268787Y35091149D01*
X12249831Y35085287D01*
X12220459Y35076410D01*
X12181558Y35064779D01*
X12134020Y35050659D01*
X12078733Y35034312D01*
X12016587Y35016002D01*
X11948472Y34995991D01*
X11875276Y34974543D01*
X11797890Y34951920D01*
X11722459Y34929917D01*
X11179743Y34771775D01*
X12284225Y34765425D01*
X12285974Y34665275D01*
X12286423Y34625193D01*
X12286096Y34596310D01*
X12284901Y34577141D01*
X12282748Y34566203D01*
X12279624Y34562041D01*
X12272358Y34561662D01*
X12253175Y34561322D01*
X12222861Y34561025D01*
X12182197Y34560769D01*
X12131969Y34560559D01*
X12072959Y34560393D01*
X12005952Y34560276D01*
X11931731Y34560206D01*
X11851080Y34560187D01*
X11764784Y34560220D01*
X11673624Y34560305D01*
X11578386Y34560445D01*
X11503175Y34560591D01*
X10734825Y34562225D01*
X10734825Y34795804D01*
X11271043Y34952064D01*
G36*
X10825312Y36202286D02*
G01*
X10915800Y36204048D01*
X10915800Y35943406D01*
X11600012Y35941790D01*
X12284225Y35940175D01*
X12285962Y35830637D01*
X12287699Y35721100D01*
X10915800Y35721100D01*
X10915800Y35460401D01*
X10825312Y35462163D01*
X10734825Y35463925D01*
X10734825Y36200525D01*
X10825312Y36202286D01*
G37*
X10825312Y36202286D02*
X10915800Y36204048D01*
X10915800Y35943406D01*
X11600012Y35941790D01*
X12284225Y35940175D01*
X12285962Y35830637D01*
X12287699Y35721100D01*
X10915800Y35721100D01*
X10915800Y35460401D01*
X10825312Y35462163D01*
X10734825Y35463925D01*
X10734825Y36200525D01*
X10825312Y36202286D01*
G36*
X12287699Y37118100D02*
G01*
X12285962Y37008562D01*
X12284225Y36899025D01*
X11942912Y36897382D01*
X11601600Y36895739D01*
X11601600Y36565650D01*
X12287400Y36565650D01*
X12287400Y36457500D01*
X12287140Y36415021D01*
X12286301Y36383947D01*
X12284790Y36362993D01*
X12282516Y36350873D01*
X12279462Y36346329D01*
X12272217Y36345958D01*
X12253055Y36345626D01*
X12222760Y36345335D01*
X12182117Y36345087D01*
X12131907Y36344882D01*
X12072915Y36344723D01*
X12005924Y36344610D01*
X11931718Y36344546D01*
X11851080Y36344531D01*
X11764795Y36344566D01*
X11673644Y36344654D01*
X11578413Y36344795D01*
X11503175Y36344941D01*
X10734825Y36346575D01*
X10733087Y36456112D01*
X10731350Y36565650D01*
X11423800Y36565650D01*
X11423800Y36895740D01*
X11079312Y36897382D01*
X10734825Y36899025D01*
X10733087Y37008562D01*
X10731350Y37118100D01*
X12287699Y37118100D01*
G37*
X12287699Y37118100D02*
X12285962Y37008562D01*
X12284225Y36899025D01*
X11942912Y36897382D01*
X11601600Y36895739D01*
X11601600Y36565650D01*
X12287400Y36565650D01*
X12287400Y36457500D01*
X12287140Y36415021D01*
X12286301Y36383947D01*
X12284790Y36362993D01*
X12282516Y36350873D01*
X12279462Y36346329D01*
X12272217Y36345958D01*
X12253055Y36345626D01*
X12222760Y36345335D01*
X12182117Y36345087D01*
X12131907Y36344882D01*
X12072915Y36344723D01*
X12005924Y36344610D01*
X11931718Y36344546D01*
X11851080Y36344531D01*
X11764795Y36344566D01*
X11673644Y36344654D01*
X11578413Y36344795D01*
X11503175Y36344941D01*
X10734825Y36346575D01*
X10733087Y36456112D01*
X10731350Y36565650D01*
X11423800Y36565650D01*
X11423800Y36895740D01*
X11079312Y36897382D01*
X10734825Y36899025D01*
X10733087Y37008562D01*
X10731350Y37118100D01*
X12287699Y37118100D01*
G36*
X10915800Y38032500D02*
G01*
X10915800Y37600700D01*
X11392050Y37600700D01*
X11392050Y37956300D01*
X11576200Y37956300D01*
X11576200Y37600700D01*
X12103250Y37600700D01*
X12103250Y38051898D01*
X12193737Y38050136D01*
X12284225Y38048375D01*
X12285868Y37713387D01*
X12287512Y37378399D01*
X11511168Y37380012D01*
X10734825Y37381625D01*
X10733179Y37707062D01*
X10731534Y38032500D01*
X10915800Y38032500D01*
G37*
X10915800Y38032500D02*
X10915800Y37600700D01*
X11392050Y37600700D01*
X11392050Y37956300D01*
X11576200Y37956300D01*
X11576200Y37600700D01*
X12103250Y37600700D01*
X12103250Y38051898D01*
X12193737Y38050136D01*
X12284225Y38048375D01*
X12285868Y37713387D01*
X12287512Y37378399D01*
X11511168Y37380012D01*
X10734825Y37381625D01*
X10733179Y37707062D01*
X10731534Y38032500D01*
X10915800Y38032500D01*
G36*
X10731698Y38475412D02*
G01*
X10731866Y38532567D01*
X10732324Y38587818D01*
X10733036Y38639385D01*
X10733965Y38685486D01*
X10735075Y38724338D01*
X10736329Y38754160D01*
X10737693Y38773169D01*
X10737776Y38773920D01*
X10748222Y38828872D01*
X10766033Y38873735D01*
X10791683Y38909087D01*
X10825644Y38935506D01*
X10868392Y38953572D01*
X10889125Y38958817D01*
X10905363Y38960823D01*
X10932500Y38962510D01*
X10968844Y38963881D01*
X11012704Y38964940D01*
X11062389Y38965692D01*
X11116209Y38966141D01*
X11172474Y38966291D01*
X11229492Y38966145D01*
X11285572Y38965709D01*
X11339025Y38964985D01*
X11388158Y38963980D01*
X11431282Y38962695D01*
X11466707Y38961136D01*
X11492740Y38959307D01*
X11507286Y38957310D01*
X11554393Y38941208D01*
X11591980Y38916977D01*
X11620824Y38883925D01*
X11641699Y38841360D01*
X11643717Y38835544D01*
X11649886Y38817483D01*
X11654326Y38805251D01*
X11655632Y38802241D01*
X11661639Y38804121D01*
X11678362Y38810189D01*
X11704683Y38820019D01*
X11739483Y38833186D01*
X11781646Y38849265D01*
X11830054Y38867831D01*
X11883590Y38888458D01*
X11941136Y38910723D01*
X11957924Y38917235D01*
X12016934Y38940115D01*
X12072675Y38961689D01*
X12123965Y38981502D01*
X12169619Y38999097D01*
X12208455Y39014020D01*
X12239289Y39025816D01*
X12260939Y39034028D01*
X12272219Y39038202D01*
X12273254Y39038553D01*
X12287683Y39043095D01*
X12284225Y38805165D01*
X11661925Y38574367D01*
X11658291Y38451719D01*
X12284225Y38448425D01*
X12285962Y38338887D01*
X12287699Y38229350D01*
X10915800Y38229350D01*
X10915800Y38451600D01*
X11481662Y38451600D01*
X11479718Y38584737D01*
X11478957Y38629797D01*
X11478061Y38663874D01*
X11476873Y38688685D01*
X11475234Y38705945D01*
X11472988Y38717371D01*
X11469975Y38724680D01*
X11466435Y38729199D01*
X11462869Y38732023D01*
X11457572Y38734337D01*
X11449347Y38736191D01*
X11436999Y38737635D01*
X11419332Y38738720D01*
X11395149Y38739497D01*
X11363253Y38740015D01*
X11322449Y38740325D01*
X11271541Y38740478D01*
X11209331Y38740524D01*
X11197587Y38740525D01*
X10940077Y38740525D01*
X10927938Y38725534D01*
X10923808Y38719470D01*
X10920731Y38711697D01*
X10918554Y38700399D01*
X10917125Y38683758D01*
X10916292Y38659960D01*
X10915901Y38627187D01*
X10915800Y38583624D01*
X10915800Y38451600D01*
X10915800Y38229350D01*
X10731650Y38229350D01*
X10731698Y38475412D01*
G37*
X10731698Y38475412D02*
X10731866Y38532567D01*
X10732324Y38587818D01*
X10733036Y38639385D01*
X10733965Y38685486D01*
X10735075Y38724338D01*
X10736329Y38754160D01*
X10737693Y38773169D01*
X10737776Y38773920D01*
X10748222Y38828872D01*
X10766033Y38873735D01*
X10791683Y38909087D01*
X10825644Y38935506D01*
X10868392Y38953572D01*
X10889125Y38958817D01*
X10905363Y38960823D01*
X10932500Y38962510D01*
X10968844Y38963881D01*
X11012704Y38964940D01*
X11062389Y38965692D01*
X11116209Y38966141D01*
X11172474Y38966291D01*
X11229492Y38966145D01*
X11285572Y38965709D01*
X11339025Y38964985D01*
X11388158Y38963980D01*
X11431282Y38962695D01*
X11466707Y38961136D01*
X11492740Y38959307D01*
X11507286Y38957310D01*
X11554393Y38941208D01*
X11591980Y38916977D01*
X11620824Y38883925D01*
X11641699Y38841360D01*
X11643717Y38835544D01*
X11649886Y38817483D01*
X11654326Y38805251D01*
X11655632Y38802241D01*
X11661639Y38804121D01*
X11678362Y38810189D01*
X11704683Y38820019D01*
X11739483Y38833186D01*
X11781646Y38849265D01*
X11830054Y38867831D01*
X11883590Y38888458D01*
X11941136Y38910723D01*
X11957924Y38917235D01*
X12016934Y38940115D01*
X12072675Y38961689D01*
X12123965Y38981502D01*
X12169619Y38999097D01*
X12208455Y39014020D01*
X12239289Y39025816D01*
X12260939Y39034028D01*
X12272219Y39038202D01*
X12273254Y39038553D01*
X12287683Y39043095D01*
X12284225Y38805165D01*
X11661925Y38574367D01*
X11658291Y38451719D01*
X12284225Y38448425D01*
X12285962Y38338887D01*
X12287699Y38229350D01*
X10915800Y38229350D01*
X10915800Y38451600D01*
X11481662Y38451600D01*
X11479718Y38584737D01*
X11478957Y38629797D01*
X11478061Y38663874D01*
X11476873Y38688685D01*
X11475234Y38705945D01*
X11472988Y38717371D01*
X11469975Y38724680D01*
X11466435Y38729199D01*
X11462869Y38732023D01*
X11457572Y38734337D01*
X11449347Y38736191D01*
X11436999Y38737635D01*
X11419332Y38738720D01*
X11395149Y38739497D01*
X11363253Y38740015D01*
X11322449Y38740325D01*
X11271541Y38740478D01*
X11209331Y38740524D01*
X11197587Y38740525D01*
X10940077Y38740525D01*
X10927938Y38725534D01*
X10923808Y38719470D01*
X10920731Y38711697D01*
X10918554Y38700399D01*
X10917125Y38683758D01*
X10916292Y38659960D01*
X10915901Y38627187D01*
X10915800Y38583624D01*
X10915800Y38451600D01*
X10915800Y38229350D01*
X10731650Y38229350D01*
X10731698Y38475412D01*
G36*
X10735026Y39582319D02*
G01*
X10735412Y39625688D01*
X10736146Y39659703D01*
X10737314Y39686038D01*
X10739004Y39706366D01*
X10741304Y39722359D01*
X10744300Y39735690D01*
X10746067Y39741815D01*
X10765656Y39786512D01*
X10794316Y39822365D01*
X10832248Y39849620D01*
X10836219Y39851709D01*
X10873569Y39870825D01*
X11024859Y39872827D01*
X11176150Y39874830D01*
X11176150Y39651750D01*
X11061561Y39651750D01*
X11020818Y39651699D01*
X10990811Y39651393D01*
X10969572Y39650594D01*
X10955137Y39649067D01*
X10945541Y39646577D01*
X10938818Y39642890D01*
X10933002Y39637768D01*
X10931386Y39636163D01*
X10925377Y39629650D01*
X10921152Y39622640D01*
X10918396Y39612911D01*
X10916797Y39598239D01*
X10916041Y39576404D01*
X10915813Y39545182D01*
X10915800Y39525742D01*
X10915965Y39488339D01*
X10916624Y39461426D01*
X10918020Y39442798D01*
X10920397Y39430246D01*
X10923999Y39421565D01*
X10927932Y39415915D01*
X10940064Y39400925D01*
X11142244Y39398947D01*
X11204561Y39398437D01*
X11255417Y39398349D01*
X11296048Y39398835D01*
X11327691Y39400049D01*
X11351582Y39402143D01*
X11368957Y39405269D01*
X11381053Y39409581D01*
X11389105Y39415231D01*
X11394350Y39422372D01*
X11397805Y39430524D01*
X11400238Y39444066D01*
X11402237Y39468408D01*
X11403711Y39501651D01*
X11404567Y39541899D01*
X11404750Y39573010D01*
X11405251Y39628935D01*
X11406906Y39674048D01*
X11409937Y39710200D01*
X11414568Y39739244D01*
X11421024Y39763033D01*
X11429528Y39783420D01*
X11430375Y39785100D01*
X11453194Y39817254D01*
X11485516Y39845219D01*
X11515875Y39862562D01*
X11523736Y39866063D01*
X11531533Y39868963D01*
X11540500Y39871329D01*
X11551872Y39873226D01*
X11566883Y39874719D01*
X11586770Y39875873D01*
X11612765Y39876754D01*
X11646105Y39877428D01*
X11688025Y39877960D01*
X11739758Y39878414D01*
X11802541Y39878858D01*
X11826380Y39879017D01*
X11907945Y39879373D01*
X11977646Y39879287D01*
X12035326Y39878762D01*
X12080829Y39877801D01*
X12114000Y39876406D01*
X12134682Y39874579D01*
X12138521Y39873927D01*
X12176435Y39860986D01*
X12211331Y39839757D01*
X12239032Y39812952D01*
X12244808Y39805001D01*
X12255715Y39787289D01*
X12264363Y39769635D01*
X12271031Y39750268D01*
X12276000Y39727417D01*
X12279549Y39699310D01*
X12281961Y39664176D01*
X12283514Y39620244D01*
X12284489Y39565742D01*
X12284640Y39553325D01*
X12284925Y39507019D01*
X12284740Y39462548D01*
X12284128Y39422255D01*
X12283136Y39388478D01*
X12281807Y39363560D01*
X12280801Y39353343D01*
X12270019Y39308239D01*
X12251475Y39267700D01*
X12226735Y39234740D01*
X12212441Y39221973D01*
X12195134Y39209826D01*
X12177627Y39200363D01*
X12158062Y39193260D01*
X12134582Y39188196D01*
X12105330Y39184847D01*
X12068450Y39182891D01*
X12022084Y39182005D01*
X11981447Y39181850D01*
X11842900Y39181850D01*
X11842900Y39404100D01*
X11957488Y39404100D01*
X11998231Y39404150D01*
X12028238Y39404456D01*
X12049477Y39405255D01*
X12063912Y39406782D01*
X12073508Y39409272D01*
X12080231Y39412959D01*
X12086047Y39418081D01*
X12087663Y39419686D01*
X12093729Y39426274D01*
X12097975Y39433373D01*
X12100725Y39443238D01*
X12102303Y39458124D01*
X12103033Y39480285D01*
X12103240Y39511978D01*
X12103250Y39528053D01*
X12102824Y39561983D01*
X12101653Y39592075D01*
X12099899Y39615706D01*
X12097723Y39630252D01*
X12096825Y39632839D01*
X12091849Y39639414D01*
X12083848Y39644765D01*
X12071610Y39649011D01*
X12053922Y39652273D01*
X12029572Y39654670D01*
X11997347Y39656325D01*
X11956034Y39657356D01*
X11904421Y39657883D01*
X11842900Y39658029D01*
X11779843Y39657869D01*
X11728289Y39657314D01*
X11687041Y39656252D01*
X11654905Y39654567D01*
X11630685Y39652148D01*
X11613186Y39648880D01*
X11601214Y39644651D01*
X11593573Y39639347D01*
X11589644Y39634009D01*
X11587879Y39624750D01*
X11586090Y39604743D01*
X11584383Y39575942D01*
X11582864Y39540297D01*
X11581639Y39499761D01*
X11581148Y39477125D01*
X11579721Y39420555D01*
X11577514Y39374910D01*
X11574106Y39338420D01*
X11569080Y39309314D01*
X11562016Y39285824D01*
X11552496Y39266178D01*
X11540101Y39248607D01*
X11524413Y39231340D01*
X11522555Y39229470D01*
X11510713Y39217892D01*
X11499567Y39208240D01*
X11487871Y39200330D01*
X11474381Y39193974D01*
X11457853Y39188988D01*
X11437040Y39185186D01*
X11410700Y39182381D01*
X11377586Y39180387D01*
X11336455Y39179019D01*
X11286061Y39178091D01*
X11225161Y39177417D01*
X11170962Y39176959D01*
X11104613Y39176481D01*
X11049680Y39176236D01*
X11004884Y39176262D01*
X10968943Y39176591D01*
X10940575Y39177260D01*
X10918500Y39178302D01*
X10901436Y39179754D01*
X10888102Y39181651D01*
X10877217Y39184026D01*
X10873379Y39185084D01*
X10829764Y39202272D01*
X10795660Y39226421D01*
X10769580Y39259029D01*
X10750034Y39301593D01*
X10746324Y39312891D01*
X10742850Y39325595D01*
X10740142Y39339669D01*
X10738108Y39356809D01*
X10736660Y39378713D01*
X10735707Y39407075D01*
X10735158Y39443592D01*
X10734925Y39489960D01*
X10734899Y39527925D01*
X10735026Y39582319D01*
G37*
X10735026Y39582319D02*
X10735412Y39625688D01*
X10736146Y39659703D01*
X10737314Y39686038D01*
X10739004Y39706366D01*
X10741304Y39722359D01*
X10744300Y39735690D01*
X10746067Y39741815D01*
X10765656Y39786512D01*
X10794316Y39822365D01*
X10832248Y39849620D01*
X10836219Y39851709D01*
X10873569Y39870825D01*
X11024859Y39872827D01*
X11176150Y39874830D01*
X11176150Y39651750D01*
X11061561Y39651750D01*
X11020818Y39651699D01*
X10990811Y39651393D01*
X10969572Y39650594D01*
X10955137Y39649067D01*
X10945541Y39646577D01*
X10938818Y39642890D01*
X10933002Y39637768D01*
X10931386Y39636163D01*
X10925377Y39629650D01*
X10921152Y39622640D01*
X10918396Y39612911D01*
X10916797Y39598239D01*
X10916041Y39576404D01*
X10915813Y39545182D01*
X10915800Y39525742D01*
X10915965Y39488339D01*
X10916624Y39461426D01*
X10918020Y39442798D01*
X10920397Y39430246D01*
X10923999Y39421565D01*
X10927932Y39415915D01*
X10940064Y39400925D01*
X11142244Y39398947D01*
X11204561Y39398437D01*
X11255417Y39398349D01*
X11296048Y39398835D01*
X11327691Y39400049D01*
X11351582Y39402143D01*
X11368957Y39405269D01*
X11381053Y39409581D01*
X11389105Y39415231D01*
X11394350Y39422372D01*
X11397805Y39430524D01*
X11400238Y39444066D01*
X11402237Y39468408D01*
X11403711Y39501651D01*
X11404567Y39541899D01*
X11404750Y39573010D01*
X11405251Y39628935D01*
X11406906Y39674048D01*
X11409937Y39710200D01*
X11414568Y39739244D01*
X11421024Y39763033D01*
X11429528Y39783420D01*
X11430375Y39785100D01*
X11453194Y39817254D01*
X11485516Y39845219D01*
X11515875Y39862562D01*
X11523736Y39866063D01*
X11531533Y39868963D01*
X11540500Y39871329D01*
X11551872Y39873226D01*
X11566883Y39874719D01*
X11586770Y39875873D01*
X11612765Y39876754D01*
X11646105Y39877428D01*
X11688025Y39877960D01*
X11739758Y39878414D01*
X11802541Y39878858D01*
X11826380Y39879017D01*
X11907945Y39879373D01*
X11977646Y39879287D01*
X12035326Y39878762D01*
X12080829Y39877801D01*
X12114000Y39876406D01*
X12134682Y39874579D01*
X12138521Y39873927D01*
X12176435Y39860986D01*
X12211331Y39839757D01*
X12239032Y39812952D01*
X12244808Y39805001D01*
X12255715Y39787289D01*
X12264363Y39769635D01*
X12271031Y39750268D01*
X12276000Y39727417D01*
X12279549Y39699310D01*
X12281961Y39664176D01*
X12283514Y39620244D01*
X12284489Y39565742D01*
X12284640Y39553325D01*
X12284925Y39507019D01*
X12284740Y39462548D01*
X12284128Y39422255D01*
X12283136Y39388478D01*
X12281807Y39363560D01*
X12280801Y39353343D01*
X12270019Y39308239D01*
X12251475Y39267700D01*
X12226735Y39234740D01*
X12212441Y39221973D01*
X12195134Y39209826D01*
X12177627Y39200363D01*
X12158062Y39193260D01*
X12134582Y39188196D01*
X12105330Y39184847D01*
X12068450Y39182891D01*
X12022084Y39182005D01*
X11981447Y39181850D01*
X11842900Y39181850D01*
X11842900Y39404100D01*
X11957488Y39404100D01*
X11998231Y39404150D01*
X12028238Y39404456D01*
X12049477Y39405255D01*
X12063912Y39406782D01*
X12073508Y39409272D01*
X12080231Y39412959D01*
X12086047Y39418081D01*
X12087663Y39419686D01*
X12093729Y39426274D01*
X12097975Y39433373D01*
X12100725Y39443238D01*
X12102303Y39458124D01*
X12103033Y39480285D01*
X12103240Y39511978D01*
X12103250Y39528053D01*
X12102824Y39561983D01*
X12101653Y39592075D01*
X12099899Y39615706D01*
X12097723Y39630252D01*
X12096825Y39632839D01*
X12091849Y39639414D01*
X12083848Y39644765D01*
X12071610Y39649011D01*
X12053922Y39652273D01*
X12029572Y39654670D01*
X11997347Y39656325D01*
X11956034Y39657356D01*
X11904421Y39657883D01*
X11842900Y39658029D01*
X11779843Y39657869D01*
X11728289Y39657314D01*
X11687041Y39656252D01*
X11654905Y39654567D01*
X11630685Y39652148D01*
X11613186Y39648880D01*
X11601214Y39644651D01*
X11593573Y39639347D01*
X11589644Y39634009D01*
X11587879Y39624750D01*
X11586090Y39604743D01*
X11584383Y39575942D01*
X11582864Y39540297D01*
X11581639Y39499761D01*
X11581148Y39477125D01*
X11579721Y39420555D01*
X11577514Y39374910D01*
X11574106Y39338420D01*
X11569080Y39309314D01*
X11562016Y39285824D01*
X11552496Y39266178D01*
X11540101Y39248607D01*
X11524413Y39231340D01*
X11522555Y39229470D01*
X11510713Y39217892D01*
X11499567Y39208240D01*
X11487871Y39200330D01*
X11474381Y39193974D01*
X11457853Y39188988D01*
X11437040Y39185186D01*
X11410700Y39182381D01*
X11377586Y39180387D01*
X11336455Y39179019D01*
X11286061Y39178091D01*
X11225161Y39177417D01*
X11170962Y39176959D01*
X11104613Y39176481D01*
X11049680Y39176236D01*
X11004884Y39176262D01*
X10968943Y39176591D01*
X10940575Y39177260D01*
X10918500Y39178302D01*
X10901436Y39179754D01*
X10888102Y39181651D01*
X10877217Y39184026D01*
X10873379Y39185084D01*
X10829764Y39202272D01*
X10795660Y39226421D01*
X10769580Y39259029D01*
X10750034Y39301593D01*
X10746324Y39312891D01*
X10742850Y39325595D01*
X10740142Y39339669D01*
X10738108Y39356809D01*
X10736660Y39378713D01*
X10735707Y39407075D01*
X10735158Y39443592D01*
X10734925Y39489960D01*
X10734899Y39527925D01*
X10735026Y39582319D01*
G36*
X10173488Y30901284D02*
G01*
X10183751Y31042176D01*
X10199553Y31174360D01*
X10206550Y31219018D01*
X10212199Y31247612D01*
X10219064Y31265339D01*
X10229275Y31273163D01*
X10244963Y31272050D01*
X10268258Y31262966D01*
X10285418Y31254758D01*
X10342843Y31223219D01*
X10401093Y31185189D01*
X10457888Y31142566D01*
X10510949Y31097251D01*
X10557994Y31051144D01*
X10596746Y31006143D01*
X10615645Y30979574D01*
X10638446Y30936587D01*
X10658748Y30882672D01*
X10676000Y30819449D01*
X10685260Y30774450D01*
X10690464Y30737523D01*
X10694167Y30693973D01*
X10696371Y30646547D01*
X10697080Y30597993D01*
X10696294Y30551058D01*
X10694017Y30508489D01*
X10690250Y30473036D01*
X10684996Y30447444D01*
X10684990Y30447425D01*
X10673733Y30418173D01*
X10660467Y30396083D01*
X10646634Y30383207D01*
X10638196Y30380750D01*
X10629392Y30384841D01*
X10614819Y30395543D01*
X10598403Y30409842D01*
X10571849Y30440619D01*
X10545876Y30481912D01*
X10521498Y30531545D01*
X10499729Y30587344D01*
X10481584Y30647131D01*
X10474847Y30674861D01*
X10470749Y30696704D01*
X10467074Y30722415D01*
X10464190Y30748389D01*
X10462466Y30771026D01*
X10462271Y30786725D01*
X10462951Y30791101D01*
X10471550Y30798675D01*
X10485757Y30797674D01*
X10498904Y30790559D01*
X10514080Y30784650D01*
X10526510Y30789987D01*
X10531066Y30797509D01*
X10530120Y30810532D01*
X10521046Y30832874D01*
X10504001Y30864229D01*
X10479143Y30904292D01*
X10465315Y30925282D01*
X10437271Y30964807D01*
X10413564Y30992802D01*
X10393780Y31009514D01*
X10377503Y31015191D01*
X10364322Y31010080D01*
X10353821Y30994431D01*
X10352988Y30992502D01*
X10343689Y30966176D01*
X10336256Y30935398D01*
X10330478Y30898498D01*
X10326144Y30853809D01*
X10323044Y30799662D01*
X10321089Y30739525D01*
X10320108Y30666243D01*
X10321279Y30603514D01*
X10325065Y30549302D01*
X10331928Y30501573D01*
X10342330Y30458292D01*
X10356734Y30417424D01*
X10375601Y30376934D01*
X10399393Y30334789D01*
X10420710Y30300927D01*
X10459373Y30239794D01*
X10489788Y30187861D01*
X10512112Y30144809D01*
X10526504Y30110318D01*
X10533122Y30084069D01*
X10533516Y30073164D01*
X10529473Y30053954D01*
X10520546Y30045820D01*
X10506056Y30048617D01*
X10485326Y30062201D01*
X10484665Y30062722D01*
X10464150Y30076912D01*
X10439193Y30091431D01*
X10425997Y30098064D01*
X10399616Y30109236D01*
X10380643Y30113707D01*
X10368070Y30110393D01*
X10360891Y30098211D01*
X10358097Y30076076D01*
X10358683Y30042905D01*
X10359616Y30026638D01*
X10363940Y29970318D01*
X10370048Y29907354D01*
X10377613Y29840094D01*
X10386307Y29770886D01*
X10395804Y29702078D01*
X10405776Y29636018D01*
X10415896Y29575055D01*
X10425835Y29521536D01*
X10435268Y29477809D01*
X10437281Y29469581D01*
X10459753Y29391605D01*
X10486917Y29319321D01*
X10519821Y29251090D01*
X10559518Y29185275D01*
X10607056Y29120238D01*
X10663486Y29054342D01*
X10729858Y28985948D01*
X10774948Y28942978D01*
X10821546Y28898895D01*
X10860253Y28860331D01*
X10893136Y28824927D01*
X10922264Y28790321D01*
X10949705Y28754153D01*
X10977527Y28714063D01*
X10983991Y28704350D01*
X11022493Y28647095D01*
X11056608Y28598883D01*
X11088169Y28557687D01*
X11119010Y28521478D01*
X11150964Y28488225D01*
X11185863Y28455901D01*
X11225541Y28422477D01*
X11271400Y28386258D01*
X11312055Y28355358D01*
X11344311Y28332083D01*
X11369309Y28315678D01*
X11388191Y28305387D01*
X11400600Y28300802D01*
X11411383Y28299426D01*
X11416263Y28302916D01*
X11414898Y28312439D01*
X11406949Y28329161D01*
X11392076Y28354250D01*
X11379057Y28374784D01*
X11361852Y28402209D01*
X11345919Y28428802D01*
X11333387Y28450948D01*
X11327792Y28461841D01*
X11314920Y28489207D01*
X11331256Y28510624D01*
X11346453Y28527662D01*
X11360814Y28535338D01*
X11377397Y28533924D01*
X11399263Y28523694D01*
X11409470Y28517628D01*
X11461042Y28492371D01*
X11512853Y28479644D01*
X11564463Y28479476D01*
X11615433Y28491899D01*
X11637886Y28501529D01*
X11677204Y28526017D01*
X11705893Y28556355D01*
X11724388Y28593364D01*
X11733124Y28637866D01*
X11733247Y28681512D01*
X11724209Y28740312D01*
X11704477Y28801909D01*
X11673799Y28866836D01*
X11631923Y28935628D01*
X11578596Y29008818D01*
X11578568Y29008853D01*
X11538427Y29062284D01*
X11506888Y29109232D01*
X11482863Y29151424D01*
X11466910Y29186402D01*
X11459282Y29213108D01*
X11454202Y29246421D01*
X11451730Y29282818D01*
X11451928Y29318777D01*
X11454855Y29350774D01*
X11460572Y29375287D01*
X11463546Y29382011D01*
X11476985Y29400300D01*
X11499678Y29424041D01*
X11530062Y29452037D01*
X11566571Y29483091D01*
X11607639Y29516005D01*
X11651703Y29549582D01*
X11697197Y29582625D01*
X11742555Y29613937D01*
X11786213Y29642320D01*
X11826606Y29666576D01*
X11856786Y29682846D01*
X11910150Y29706451D01*
X11958150Y29720513D01*
X12003103Y29725601D01*
X12027100Y29724804D01*
X12072109Y29718483D01*
X12110319Y29706879D01*
X12143109Y29688760D01*
X12171862Y29662895D01*
X12197958Y29628052D01*
X12222779Y29583001D01*
X12246645Y29529113D01*
X12263126Y29489273D01*
X12276378Y29458896D01*
X12287745Y29435598D01*
X12298571Y29416996D01*
X12310200Y29400704D01*
X12323976Y29384338D01*
X12335190Y29372022D01*
X12366146Y29341932D01*
X12394774Y29322195D01*
X12423847Y29311529D01*
X12456137Y29308656D01*
X12470843Y29309425D01*
X12524682Y29318737D01*
X12569677Y29337007D01*
X12606160Y29364412D01*
X12630967Y29395400D01*
X12644075Y29423863D01*
X12649669Y29453785D01*
X12647220Y29480910D01*
X12642942Y29491858D01*
X12635257Y29500178D01*
X12619400Y29513459D01*
X12597837Y29529731D01*
X12577854Y29543772D01*
X12549926Y29564456D01*
X12516874Y29591574D01*
X12482139Y29622184D01*
X12449163Y29653344D01*
X12445676Y29656794D01*
X12406374Y29697610D01*
X12371013Y29738422D01*
X12338641Y29780833D01*
X12308305Y29826447D01*
X12279052Y29876867D01*
X12249929Y29933697D01*
X12219984Y29998540D01*
X12188263Y30073001D01*
X12166468Y30126750D01*
X12149065Y30169523D01*
X12130959Y30212599D01*
X12113421Y30253053D01*
X12097720Y30287965D01*
X12085128Y30314412D01*
X12083515Y30317606D01*
X12057471Y30364031D01*
X12027398Y30408443D01*
X11992103Y30452089D01*
X11950395Y30496218D01*
X11901079Y30542078D01*
X11842964Y30590918D01*
X11774858Y30643985D01*
X11763525Y30652523D01*
X11697351Y30699344D01*
X11635505Y30736632D01*
X11575333Y30765463D01*
X11514184Y30786913D01*
X11449402Y30802060D01*
X11378336Y30811978D01*
X11367959Y30812990D01*
X11306092Y30815731D01*
X11236193Y30813676D01*
X11161817Y30807231D01*
X11086520Y30796800D01*
X11013856Y30782788D01*
X10947379Y30765600D01*
X10944683Y30764787D01*
X10925557Y30759525D01*
X10914289Y30758583D01*
X10906788Y30761979D01*
X10903515Y30764962D01*
X10897859Y30775195D01*
X10901617Y30786460D01*
X10915608Y30799874D01*
X10940649Y30816554D01*
X10941883Y30817299D01*
X11017547Y30856289D01*
X11102011Y30887963D01*
X11193547Y30912114D01*
X11290430Y30928531D01*
X11390934Y30937006D01*
X11493330Y30937329D01*
X11595894Y30929293D01*
X11696899Y30912688D01*
X11708808Y30910115D01*
X11780862Y30891945D01*
X11850490Y30869579D01*
X11921540Y30841629D01*
X11997862Y30806705D01*
X12004825Y30803318D01*
X12055273Y30777105D01*
X12108988Y30746434D01*
X12163924Y30712692D01*
X12218037Y30677268D01*
X12269281Y30641553D01*
X12315613Y30606933D01*
X12354987Y30574799D01*
X12385359Y30546539D01*
X12389934Y30541731D01*
X12406744Y30523625D01*
X12390515Y30463300D01*
X12383783Y30436421D01*
X12379142Y30412159D01*
X12376205Y30386914D01*
X12374586Y30357086D01*
X12373900Y30319076D01*
X12373828Y30307725D01*
X12374153Y30260556D01*
X12376046Y30221737D01*
X12380124Y30186951D01*
X12387003Y30151884D01*
X12397297Y30112220D01*
X12406002Y30082300D01*
X12418731Y30043862D01*
X12435102Y30000667D01*
X12453715Y29955908D01*
X12473170Y29912779D01*
X12492068Y29874472D01*
X12509008Y29844183D01*
X12513332Y29837390D01*
X12556671Y29782650D01*
X12610640Y29732361D01*
X12673632Y29687579D01*
X12744039Y29649359D01*
X12820252Y29618756D01*
X12867882Y29604548D01*
X12898417Y29596059D01*
X12918419Y29588956D01*
X12929831Y29582264D01*
X12934599Y29575011D01*
X12935100Y29570897D01*
X12931524Y29562607D01*
X12921876Y29546755D01*
X12907775Y29525885D01*
X12896201Y29509762D01*
X12842709Y29444404D01*
X12780498Y29381089D01*
X12712422Y29322242D01*
X12641337Y29270290D01*
X12570098Y29227659D01*
X12555225Y29220038D01*
X12524533Y29205492D01*
X12500689Y29196218D01*
X12479650Y29190955D01*
X12457376Y29188436D01*
X12453441Y29188204D01*
X12427719Y29187735D01*
X12408102Y29190542D01*
X12388138Y29197978D01*
X12374023Y29204861D01*
X12336822Y29223780D01*
X12290050Y29198552D01*
X12257680Y29183090D01*
X12234113Y29176454D01*
X12219051Y29178610D01*
X12212217Y29189417D01*
X12213854Y29200078D01*
X12220123Y29218936D01*
X12229903Y29242862D01*
X12236784Y29257918D01*
X12247925Y29282061D01*
X12256296Y29301557D01*
X12260833Y29313846D01*
X12261232Y29316746D01*
X12255481Y29314188D01*
X12241930Y29305433D01*
X12222859Y29292007D01*
X12208770Y29281637D01*
X12177834Y29259735D01*
X12148244Y29241014D01*
X12121982Y29226534D01*
X12101029Y29217352D01*
X12087367Y29214526D01*
X12084534Y29215318D01*
X12079741Y29220078D01*
X12079179Y29227286D01*
X12083626Y29238656D01*
X12093861Y29255905D01*
X12110664Y29280750D01*
X12120766Y29295135D01*
X12140460Y29323859D01*
X12159686Y29353390D01*
X12175837Y29379647D01*
X12183973Y29394000D01*
X12204371Y29432305D01*
X12182357Y29464993D01*
X12144193Y29512656D01*
X12101251Y29548834D01*
X12052659Y29573988D01*
X11997544Y29588574D01*
X11938150Y29593060D01*
X11883457Y29587008D01*
X11828523Y29569670D01*
X11774788Y29542351D01*
X11723693Y29506353D01*
X11676677Y29462979D01*
X11635182Y29413534D01*
X11600648Y29359319D01*
X11574515Y29301639D01*
X11560002Y29250946D01*
X11555076Y29213384D01*
X11556676Y29176155D01*
X11565353Y29137257D01*
X11581658Y29094688D01*
X11606140Y29046446D01*
X11625303Y29013415D01*
X11637684Y28993755D01*
X11646566Y28983122D01*
X11654482Y28979369D01*
X11663970Y28980350D01*
X11664274Y28980422D01*
X11692345Y28990053D01*
X11728108Y29006921D01*
X11769611Y29029998D01*
X11814903Y29058255D01*
X11826280Y29065800D01*
X11857316Y29086540D01*
X11879617Y29100969D01*
X11894981Y29109872D01*
X11905209Y29114032D01*
X11912098Y29114232D01*
X11917448Y29111255D01*
X11921626Y29107315D01*
X11927534Y29097436D01*
X11928869Y29082810D01*
X11925383Y29061616D01*
X11916832Y29032033D01*
X11907918Y29005975D01*
X11883326Y28945521D01*
X11852142Y28885113D01*
X11823004Y28837065D01*
X11809310Y28815165D01*
X11798726Y28797256D01*
X11792817Y28786033D01*
X11792100Y28783852D01*
X11797525Y28780237D01*
X11812090Y28780956D01*
X11833231Y28785417D01*
X11858382Y28793026D01*
X11884978Y28803193D01*
X11894973Y28807622D01*
X11920614Y28818845D01*
X11937230Y28824364D01*
X11946855Y28824728D01*
X11950286Y28822504D01*
X11950727Y28812521D01*
X11943495Y28794414D01*
X11929379Y28769529D01*
X11909168Y28739209D01*
X11883651Y28704800D01*
X11873915Y28692418D01*
X11856502Y28670243D01*
X11845565Y28654420D01*
X11839598Y28641423D01*
X11837097Y28627725D01*
X11836555Y28609801D01*
X11836550Y28604902D01*
X11834869Y28574663D01*
X11828847Y28548609D01*
X11817011Y28522993D01*
X11797888Y28494066D01*
X11787676Y28480477D01*
X11739257Y28422147D01*
X11688468Y28369447D01*
X11636675Y28323432D01*
X11585245Y28285159D01*
X11535544Y28255683D01*
X11488939Y28236063D01*
X11462914Y28229438D01*
X11434078Y28225968D01*
X11408326Y28227558D01*
X11382851Y28235136D01*
X11354847Y28249633D01*
X11321507Y28271976D01*
X11310870Y28279738D01*
X11220153Y28349566D01*
X11141318Y28416248D01*
X11074030Y28480104D01*
X11017951Y28541457D01*
X10972747Y28600628D01*
X10966680Y28609644D01*
X10946166Y28639087D01*
X10923359Y28669275D01*
X10901725Y28695719D01*
X10891125Y28707525D01*
X10869151Y28731301D01*
X10846074Y28757163D01*
X10826853Y28779549D01*
X10826690Y28779747D01*
X10810875Y28796803D01*
X10787962Y28818986D01*
X10760854Y28843594D01*
X10732453Y28867925D01*
X10728475Y28871208D01*
X10646252Y28943124D01*
X10575834Y29014384D01*
X10516427Y29085931D01*
X10467237Y29158706D01*
X10433040Y29221875D01*
X10414998Y29262058D01*
X10394883Y29311752D01*
X10373708Y29368150D01*
X10352486Y29428444D01*
X10332229Y29489825D01*
X10313951Y29549485D01*
X10310259Y29562228D01*
X10276155Y29693988D01*
X10246494Y29834542D01*
X10221397Y29981945D01*
X10200986Y30134252D01*
X10185384Y30289519D01*
X10174711Y30445800D01*
X10169090Y30601151D01*
X10168641Y30753627D01*
X10173488Y30901284D01*
G37*
X10173488Y30901284D02*
X10183751Y31042176D01*
X10199553Y31174360D01*
X10206550Y31219018D01*
X10212199Y31247612D01*
X10219064Y31265339D01*
X10229275Y31273163D01*
X10244963Y31272050D01*
X10268258Y31262966D01*
X10285418Y31254758D01*
X10342843Y31223219D01*
X10401093Y31185189D01*
X10457888Y31142566D01*
X10510949Y31097251D01*
X10557994Y31051144D01*
X10596746Y31006143D01*
X10615645Y30979574D01*
X10638446Y30936587D01*
X10658748Y30882672D01*
X10676000Y30819449D01*
X10685260Y30774450D01*
X10690464Y30737523D01*
X10694167Y30693973D01*
X10696371Y30646547D01*
X10697080Y30597993D01*
X10696294Y30551058D01*
X10694017Y30508489D01*
X10690250Y30473036D01*
X10684996Y30447444D01*
X10684990Y30447425D01*
X10673733Y30418173D01*
X10660467Y30396083D01*
X10646634Y30383207D01*
X10638196Y30380750D01*
X10629392Y30384841D01*
X10614819Y30395543D01*
X10598403Y30409842D01*
X10571849Y30440619D01*
X10545876Y30481912D01*
X10521498Y30531545D01*
X10499729Y30587344D01*
X10481584Y30647131D01*
X10474847Y30674861D01*
X10470749Y30696704D01*
X10467074Y30722415D01*
X10464190Y30748389D01*
X10462466Y30771026D01*
X10462271Y30786725D01*
X10462951Y30791101D01*
X10471550Y30798675D01*
X10485757Y30797674D01*
X10498904Y30790559D01*
X10514080Y30784650D01*
X10526510Y30789987D01*
X10531066Y30797509D01*
X10530120Y30810532D01*
X10521046Y30832874D01*
X10504001Y30864229D01*
X10479143Y30904292D01*
X10465315Y30925282D01*
X10437271Y30964807D01*
X10413564Y30992802D01*
X10393780Y31009514D01*
X10377503Y31015191D01*
X10364322Y31010080D01*
X10353821Y30994431D01*
X10352988Y30992502D01*
X10343689Y30966176D01*
X10336256Y30935398D01*
X10330478Y30898498D01*
X10326144Y30853809D01*
X10323044Y30799662D01*
X10321089Y30739525D01*
X10320108Y30666243D01*
X10321279Y30603514D01*
X10325065Y30549302D01*
X10331928Y30501573D01*
X10342330Y30458292D01*
X10356734Y30417424D01*
X10375601Y30376934D01*
X10399393Y30334789D01*
X10420710Y30300927D01*
X10459373Y30239794D01*
X10489788Y30187861D01*
X10512112Y30144809D01*
X10526504Y30110318D01*
X10533122Y30084069D01*
X10533516Y30073164D01*
X10529473Y30053954D01*
X10520546Y30045820D01*
X10506056Y30048617D01*
X10485326Y30062201D01*
X10484665Y30062722D01*
X10464150Y30076912D01*
X10439193Y30091431D01*
X10425997Y30098064D01*
X10399616Y30109236D01*
X10380643Y30113707D01*
X10368070Y30110393D01*
X10360891Y30098211D01*
X10358097Y30076076D01*
X10358683Y30042905D01*
X10359616Y30026638D01*
X10363940Y29970318D01*
X10370048Y29907354D01*
X10377613Y29840094D01*
X10386307Y29770886D01*
X10395804Y29702078D01*
X10405776Y29636018D01*
X10415896Y29575055D01*
X10425835Y29521536D01*
X10435268Y29477809D01*
X10437281Y29469581D01*
X10459753Y29391605D01*
X10486917Y29319321D01*
X10519821Y29251090D01*
X10559518Y29185275D01*
X10607056Y29120238D01*
X10663486Y29054342D01*
X10729858Y28985948D01*
X10774948Y28942978D01*
X10821546Y28898895D01*
X10860253Y28860331D01*
X10893136Y28824927D01*
X10922264Y28790321D01*
X10949705Y28754153D01*
X10977527Y28714063D01*
X10983991Y28704350D01*
X11022493Y28647095D01*
X11056608Y28598883D01*
X11088169Y28557687D01*
X11119010Y28521478D01*
X11150964Y28488225D01*
X11185863Y28455901D01*
X11225541Y28422477D01*
X11271400Y28386258D01*
X11312055Y28355358D01*
X11344311Y28332083D01*
X11369309Y28315678D01*
X11388191Y28305387D01*
X11400600Y28300802D01*
X11411383Y28299426D01*
X11416263Y28302916D01*
X11414898Y28312439D01*
X11406949Y28329161D01*
X11392076Y28354250D01*
X11379057Y28374784D01*
X11361852Y28402209D01*
X11345919Y28428802D01*
X11333387Y28450948D01*
X11327792Y28461841D01*
X11314920Y28489207D01*
X11331256Y28510624D01*
X11346453Y28527662D01*
X11360814Y28535338D01*
X11377397Y28533924D01*
X11399263Y28523694D01*
X11409470Y28517628D01*
X11461042Y28492371D01*
X11512853Y28479644D01*
X11564463Y28479476D01*
X11615433Y28491899D01*
X11637886Y28501529D01*
X11677204Y28526017D01*
X11705893Y28556355D01*
X11724388Y28593364D01*
X11733124Y28637866D01*
X11733247Y28681512D01*
X11724209Y28740312D01*
X11704477Y28801909D01*
X11673799Y28866836D01*
X11631923Y28935628D01*
X11578596Y29008818D01*
X11578568Y29008853D01*
X11538427Y29062284D01*
X11506888Y29109232D01*
X11482863Y29151424D01*
X11466910Y29186402D01*
X11459282Y29213108D01*
X11454202Y29246421D01*
X11451730Y29282818D01*
X11451928Y29318777D01*
X11454855Y29350774D01*
X11460572Y29375287D01*
X11463546Y29382011D01*
X11476985Y29400300D01*
X11499678Y29424041D01*
X11530062Y29452037D01*
X11566571Y29483091D01*
X11607639Y29516005D01*
X11651703Y29549582D01*
X11697197Y29582625D01*
X11742555Y29613937D01*
X11786213Y29642320D01*
X11826606Y29666576D01*
X11856786Y29682846D01*
X11910150Y29706451D01*
X11958150Y29720513D01*
X12003103Y29725601D01*
X12027100Y29724804D01*
X12072109Y29718483D01*
X12110319Y29706879D01*
X12143109Y29688760D01*
X12171862Y29662895D01*
X12197958Y29628052D01*
X12222779Y29583001D01*
X12246645Y29529113D01*
X12263126Y29489273D01*
X12276378Y29458896D01*
X12287745Y29435598D01*
X12298571Y29416996D01*
X12310200Y29400704D01*
X12323976Y29384338D01*
X12335190Y29372022D01*
X12366146Y29341932D01*
X12394774Y29322195D01*
X12423847Y29311529D01*
X12456137Y29308656D01*
X12470843Y29309425D01*
X12524682Y29318737D01*
X12569677Y29337007D01*
X12606160Y29364412D01*
X12630967Y29395400D01*
X12644075Y29423863D01*
X12649669Y29453785D01*
X12647220Y29480910D01*
X12642942Y29491858D01*
X12635257Y29500178D01*
X12619400Y29513459D01*
X12597837Y29529731D01*
X12577854Y29543772D01*
X12549926Y29564456D01*
X12516874Y29591574D01*
X12482139Y29622184D01*
X12449163Y29653344D01*
X12445676Y29656794D01*
X12406374Y29697610D01*
X12371013Y29738422D01*
X12338641Y29780833D01*
X12308305Y29826447D01*
X12279052Y29876867D01*
X12249929Y29933697D01*
X12219984Y29998540D01*
X12188263Y30073001D01*
X12166468Y30126750D01*
X12149065Y30169523D01*
X12130959Y30212599D01*
X12113421Y30253053D01*
X12097720Y30287965D01*
X12085128Y30314412D01*
X12083515Y30317606D01*
X12057471Y30364031D01*
X12027398Y30408443D01*
X11992103Y30452089D01*
X11950395Y30496218D01*
X11901079Y30542078D01*
X11842964Y30590918D01*
X11774858Y30643985D01*
X11763525Y30652523D01*
X11697351Y30699344D01*
X11635505Y30736632D01*
X11575333Y30765463D01*
X11514184Y30786913D01*
X11449402Y30802060D01*
X11378336Y30811978D01*
X11367959Y30812990D01*
X11306092Y30815731D01*
X11236193Y30813676D01*
X11161817Y30807231D01*
X11086520Y30796800D01*
X11013856Y30782788D01*
X10947379Y30765600D01*
X10944683Y30764787D01*
X10925557Y30759525D01*
X10914289Y30758583D01*
X10906788Y30761979D01*
X10903515Y30764962D01*
X10897859Y30775195D01*
X10901617Y30786460D01*
X10915608Y30799874D01*
X10940649Y30816554D01*
X10941883Y30817299D01*
X11017547Y30856289D01*
X11102011Y30887963D01*
X11193547Y30912114D01*
X11290430Y30928531D01*
X11390934Y30937006D01*
X11493330Y30937329D01*
X11595894Y30929293D01*
X11696899Y30912688D01*
X11708808Y30910115D01*
X11780862Y30891945D01*
X11850490Y30869579D01*
X11921540Y30841629D01*
X11997862Y30806705D01*
X12004825Y30803318D01*
X12055273Y30777105D01*
X12108988Y30746434D01*
X12163924Y30712692D01*
X12218037Y30677268D01*
X12269281Y30641553D01*
X12315613Y30606933D01*
X12354987Y30574799D01*
X12385359Y30546539D01*
X12389934Y30541731D01*
X12406744Y30523625D01*
X12390515Y30463300D01*
X12383783Y30436421D01*
X12379142Y30412159D01*
X12376205Y30386914D01*
X12374586Y30357086D01*
X12373900Y30319076D01*
X12373828Y30307725D01*
X12374153Y30260556D01*
X12376046Y30221737D01*
X12380124Y30186951D01*
X12387003Y30151884D01*
X12397297Y30112220D01*
X12406002Y30082300D01*
X12418731Y30043862D01*
X12435102Y30000667D01*
X12453715Y29955908D01*
X12473170Y29912779D01*
X12492068Y29874472D01*
X12509008Y29844183D01*
X12513332Y29837390D01*
X12556671Y29782650D01*
X12610640Y29732361D01*
X12673632Y29687579D01*
X12744039Y29649359D01*
X12820252Y29618756D01*
X12867882Y29604548D01*
X12898417Y29596059D01*
X12918419Y29588956D01*
X12929831Y29582264D01*
X12934599Y29575011D01*
X12935100Y29570897D01*
X12931524Y29562607D01*
X12921876Y29546755D01*
X12907775Y29525885D01*
X12896201Y29509762D01*
X12842709Y29444404D01*
X12780498Y29381089D01*
X12712422Y29322242D01*
X12641337Y29270290D01*
X12570098Y29227659D01*
X12555225Y29220038D01*
X12524533Y29205492D01*
X12500689Y29196218D01*
X12479650Y29190955D01*
X12457376Y29188436D01*
X12453441Y29188204D01*
X12427719Y29187735D01*
X12408102Y29190542D01*
X12388138Y29197978D01*
X12374023Y29204861D01*
X12336822Y29223780D01*
X12290050Y29198552D01*
X12257680Y29183090D01*
X12234113Y29176454D01*
X12219051Y29178610D01*
X12212217Y29189417D01*
X12213854Y29200078D01*
X12220123Y29218936D01*
X12229903Y29242862D01*
X12236784Y29257918D01*
X12247925Y29282061D01*
X12256296Y29301557D01*
X12260833Y29313846D01*
X12261232Y29316746D01*
X12255481Y29314188D01*
X12241930Y29305433D01*
X12222859Y29292007D01*
X12208770Y29281637D01*
X12177834Y29259735D01*
X12148244Y29241014D01*
X12121982Y29226534D01*
X12101029Y29217352D01*
X12087367Y29214526D01*
X12084534Y29215318D01*
X12079741Y29220078D01*
X12079179Y29227286D01*
X12083626Y29238656D01*
X12093861Y29255905D01*
X12110664Y29280750D01*
X12120766Y29295135D01*
X12140460Y29323859D01*
X12159686Y29353390D01*
X12175837Y29379647D01*
X12183973Y29394000D01*
X12204371Y29432305D01*
X12182357Y29464993D01*
X12144193Y29512656D01*
X12101251Y29548834D01*
X12052659Y29573988D01*
X11997544Y29588574D01*
X11938150Y29593060D01*
X11883457Y29587008D01*
X11828523Y29569670D01*
X11774788Y29542351D01*
X11723693Y29506353D01*
X11676677Y29462979D01*
X11635182Y29413534D01*
X11600648Y29359319D01*
X11574515Y29301639D01*
X11560002Y29250946D01*
X11555076Y29213384D01*
X11556676Y29176155D01*
X11565353Y29137257D01*
X11581658Y29094688D01*
X11606140Y29046446D01*
X11625303Y29013415D01*
X11637684Y28993755D01*
X11646566Y28983122D01*
X11654482Y28979369D01*
X11663970Y28980350D01*
X11664274Y28980422D01*
X11692345Y28990053D01*
X11728108Y29006921D01*
X11769611Y29029998D01*
X11814903Y29058255D01*
X11826280Y29065800D01*
X11857316Y29086540D01*
X11879617Y29100969D01*
X11894981Y29109872D01*
X11905209Y29114032D01*
X11912098Y29114232D01*
X11917448Y29111255D01*
X11921626Y29107315D01*
X11927534Y29097436D01*
X11928869Y29082810D01*
X11925383Y29061616D01*
X11916832Y29032033D01*
X11907918Y29005975D01*
X11883326Y28945521D01*
X11852142Y28885113D01*
X11823004Y28837065D01*
X11809310Y28815165D01*
X11798726Y28797256D01*
X11792817Y28786033D01*
X11792100Y28783852D01*
X11797525Y28780237D01*
X11812090Y28780956D01*
X11833231Y28785417D01*
X11858382Y28793026D01*
X11884978Y28803193D01*
X11894973Y28807622D01*
X11920614Y28818845D01*
X11937230Y28824364D01*
X11946855Y28824728D01*
X11950286Y28822504D01*
X11950727Y28812521D01*
X11943495Y28794414D01*
X11929379Y28769529D01*
X11909168Y28739209D01*
X11883651Y28704800D01*
X11873915Y28692418D01*
X11856502Y28670243D01*
X11845565Y28654420D01*
X11839598Y28641423D01*
X11837097Y28627725D01*
X11836555Y28609801D01*
X11836550Y28604902D01*
X11834869Y28574663D01*
X11828847Y28548609D01*
X11817011Y28522993D01*
X11797888Y28494066D01*
X11787676Y28480477D01*
X11739257Y28422147D01*
X11688468Y28369447D01*
X11636675Y28323432D01*
X11585245Y28285159D01*
X11535544Y28255683D01*
X11488939Y28236063D01*
X11462914Y28229438D01*
X11434078Y28225968D01*
X11408326Y28227558D01*
X11382851Y28235136D01*
X11354847Y28249633D01*
X11321507Y28271976D01*
X11310870Y28279738D01*
X11220153Y28349566D01*
X11141318Y28416248D01*
X11074030Y28480104D01*
X11017951Y28541457D01*
X10972747Y28600628D01*
X10966680Y28609644D01*
X10946166Y28639087D01*
X10923359Y28669275D01*
X10901725Y28695719D01*
X10891125Y28707525D01*
X10869151Y28731301D01*
X10846074Y28757163D01*
X10826853Y28779549D01*
X10826690Y28779747D01*
X10810875Y28796803D01*
X10787962Y28818986D01*
X10760854Y28843594D01*
X10732453Y28867925D01*
X10728475Y28871208D01*
X10646252Y28943124D01*
X10575834Y29014384D01*
X10516427Y29085931D01*
X10467237Y29158706D01*
X10433040Y29221875D01*
X10414998Y29262058D01*
X10394883Y29311752D01*
X10373708Y29368150D01*
X10352486Y29428444D01*
X10332229Y29489825D01*
X10313951Y29549485D01*
X10310259Y29562228D01*
X10276155Y29693988D01*
X10246494Y29834542D01*
X10221397Y29981945D01*
X10200986Y30134252D01*
X10185384Y30289519D01*
X10174711Y30445800D01*
X10169090Y30601151D01*
X10168641Y30753627D01*
X10173488Y30901284D01*
G36*
X11096655Y28951529D02*
G01*
X11104569Y28968017D01*
X11115459Y28988381D01*
X11127444Y29009177D01*
X11138644Y29026960D01*
X11143713Y29034112D01*
X11166075Y29057817D01*
X11195852Y29081722D01*
X11228535Y29102702D01*
X11259613Y29117633D01*
X11268616Y29120661D01*
X11295661Y29126165D01*
X11324848Y29128692D01*
X11336122Y29128557D01*
X11369825Y29126625D01*
X11336614Y29118133D01*
X11301785Y29105070D01*
X11265370Y29084547D01*
X11232232Y29059698D01*
X11208910Y29035826D01*
X11195856Y29017422D01*
X11181829Y28994648D01*
X11168613Y28970811D01*
X11157993Y28949218D01*
X11151752Y28933175D01*
X11150830Y28928187D01*
X11146612Y28920809D01*
X11144196Y28920250D01*
X11133884Y28922540D01*
X11119118Y28928041D01*
X11104604Y28934696D01*
X11095048Y28940447D01*
X11093600Y28942362D01*
X11096655Y28951529D01*
G37*
X11096655Y28951529D02*
X11104569Y28968017D01*
X11115459Y28988381D01*
X11127444Y29009177D01*
X11138644Y29026960D01*
X11143713Y29034112D01*
X11166075Y29057817D01*
X11195852Y29081722D01*
X11228535Y29102702D01*
X11259613Y29117633D01*
X11268616Y29120661D01*
X11295661Y29126165D01*
X11324848Y29128692D01*
X11336122Y29128557D01*
X11369825Y29126625D01*
X11336614Y29118133D01*
X11301785Y29105070D01*
X11265370Y29084547D01*
X11232232Y29059698D01*
X11208910Y29035826D01*
X11195856Y29017422D01*
X11181829Y28994648D01*
X11168613Y28970811D01*
X11157993Y28949218D01*
X11151752Y28933175D01*
X11150830Y28928187D01*
X11146612Y28920809D01*
X11144196Y28920250D01*
X11133884Y28922540D01*
X11119118Y28928041D01*
X11104604Y28934696D01*
X11095048Y28940447D01*
X11093600Y28942362D01*
X11096655Y28951529D01*
G36*
X10844092Y30209993D02*
G01*
X10851350Y30207089D01*
X10865970Y30198459D01*
X10889080Y30183536D01*
X10911453Y30168684D01*
X10947310Y30145112D01*
X10989204Y30118157D01*
X11032259Y30090926D01*
X11071597Y30066526D01*
X11076637Y30063448D01*
X11109865Y30042943D01*
X11133574Y30027542D01*
X11149271Y30016053D01*
X11158466Y30007283D01*
X11162667Y30000039D01*
X11163450Y29994834D01*
X11165052Y29978492D01*
X11169565Y29951798D01*
X11176545Y29916650D01*
X11185550Y29874946D01*
X11196138Y29828583D01*
X11207864Y29779460D01*
X11220288Y29729475D01*
X11232966Y29680524D01*
X11245455Y29634506D01*
X11256358Y29596525D01*
X11257513Y29588285D01*
X11253503Y29590175D01*
X11248131Y29598087D01*
X11238469Y29614860D01*
X11225912Y29637997D01*
X11212509Y29663710D01*
X11191037Y29709698D01*
X11169728Y29762519D01*
X11150013Y29818053D01*
X11133325Y29872177D01*
X11121098Y29920768D01*
X11118324Y29934680D01*
X11113654Y29958496D01*
X11108738Y29973814D01*
X11101057Y29984633D01*
X11088094Y29994952D01*
X11074756Y30003870D01*
X11034228Y30032046D01*
X10992632Y30063611D01*
X10952074Y30096745D01*
X10914656Y30129626D01*
X10882483Y30160431D01*
X10857660Y30187341D01*
X10847160Y30200873D01*
X10843071Y30207733D01*
X10844092Y30209993D01*
G37*
X10844092Y30209993D02*
X10851350Y30207089D01*
X10865970Y30198459D01*
X10889080Y30183536D01*
X10911453Y30168684D01*
X10947310Y30145112D01*
X10989204Y30118157D01*
X11032259Y30090926D01*
X11071597Y30066526D01*
X11076637Y30063448D01*
X11109865Y30042943D01*
X11133574Y30027542D01*
X11149271Y30016053D01*
X11158466Y30007283D01*
X11162667Y30000039D01*
X11163450Y29994834D01*
X11165052Y29978492D01*
X11169565Y29951798D01*
X11176545Y29916650D01*
X11185550Y29874946D01*
X11196138Y29828583D01*
X11207864Y29779460D01*
X11220288Y29729475D01*
X11232966Y29680524D01*
X11245455Y29634506D01*
X11256358Y29596525D01*
X11257513Y29588285D01*
X11253503Y29590175D01*
X11248131Y29598087D01*
X11238469Y29614860D01*
X11225912Y29637997D01*
X11212509Y29663710D01*
X11191037Y29709698D01*
X11169728Y29762519D01*
X11150013Y29818053D01*
X11133325Y29872177D01*
X11121098Y29920768D01*
X11118324Y29934680D01*
X11113654Y29958496D01*
X11108738Y29973814D01*
X11101057Y29984633D01*
X11088094Y29994952D01*
X11074756Y30003870D01*
X11034228Y30032046D01*
X10992632Y30063611D01*
X10952074Y30096745D01*
X10914656Y30129626D01*
X10882483Y30160431D01*
X10857660Y30187341D01*
X10847160Y30200873D01*
X10843071Y30207733D01*
X10844092Y30209993D01*
G36*
X10672938Y29483800D02*
G01*
X10687113Y29488705D01*
X10710702Y29485370D01*
X10722946Y29481652D01*
X10760278Y29464998D01*
X10797398Y29441505D01*
X10829372Y29414532D01*
X10842099Y29400527D01*
X10852997Y29386331D01*
X10868704Y29364971D01*
X10887641Y29338692D01*
X10908230Y29309735D01*
X10928892Y29280345D01*
X10948047Y29252764D01*
X10964118Y29229236D01*
X10975523Y29212003D01*
X10980146Y29204412D01*
X10983039Y29195464D01*
X10981452Y29193300D01*
X10973895Y29196634D01*
X10960029Y29205087D01*
X10952108Y29210416D01*
X10927408Y29227533D01*
X10907316Y29204640D01*
X10881700Y29179774D01*
X10855534Y29164561D01*
X10824496Y29156526D01*
X10822870Y29156287D01*
X10804734Y29153129D01*
X10794977Y29147950D01*
X10789680Y29137051D01*
X10785959Y29121450D01*
X10781016Y29103871D01*
X10775823Y29092878D01*
X10773361Y29091008D01*
X10770426Y29096871D01*
X10764805Y29113225D01*
X10756997Y29138265D01*
X10747500Y29170187D01*
X10736814Y29207187D01*
X10725438Y29247462D01*
X10713871Y29289207D01*
X10702611Y29330619D01*
X10692158Y29369894D01*
X10683011Y29405227D01*
X10675669Y29434815D01*
X10670630Y29456854D01*
X10668395Y29469540D01*
X10668329Y29470684D01*
X10672938Y29483800D01*
G37*
X10672938Y29483800D02*
X10687113Y29488705D01*
X10710702Y29485370D01*
X10722946Y29481652D01*
X10760278Y29464998D01*
X10797398Y29441505D01*
X10829372Y29414532D01*
X10842099Y29400527D01*
X10852997Y29386331D01*
X10868704Y29364971D01*
X10887641Y29338692D01*
X10908230Y29309735D01*
X10928892Y29280345D01*
X10948047Y29252764D01*
X10964118Y29229236D01*
X10975523Y29212003D01*
X10980146Y29204412D01*
X10983039Y29195464D01*
X10981452Y29193300D01*
X10973895Y29196634D01*
X10960029Y29205087D01*
X10952108Y29210416D01*
X10927408Y29227533D01*
X10907316Y29204640D01*
X10881700Y29179774D01*
X10855534Y29164561D01*
X10824496Y29156526D01*
X10822870Y29156287D01*
X10804734Y29153129D01*
X10794977Y29147950D01*
X10789680Y29137051D01*
X10785959Y29121450D01*
X10781016Y29103871D01*
X10775823Y29092878D01*
X10773361Y29091008D01*
X10770426Y29096871D01*
X10764805Y29113225D01*
X10756997Y29138265D01*
X10747500Y29170187D01*
X10736814Y29207187D01*
X10725438Y29247462D01*
X10713871Y29289207D01*
X10702611Y29330619D01*
X10692158Y29369894D01*
X10683011Y29405227D01*
X10675669Y29434815D01*
X10670630Y29456854D01*
X10668395Y29469540D01*
X10668329Y29470684D01*
X10672938Y29483800D01*
D13*
%TO.C,IC1*%
X7900000Y47750000D02*
X7900000Y47750000D01*
X7800000Y47750000D02*
X7800000Y47750000D01*
X7800000Y47750000D02*
G75*
G02*
X7900000Y47750000I50000J0D01*
G01*
X7900000Y47750000D02*
G75*
G02*
X7800000Y47750000I-50000J0D01*
G01*
D14*
%TO.C,C1*%
X7730000Y36850000D02*
X6730000Y36850000D01*
X6730000Y35150000D02*
X7730000Y35150000D01*
%TO.C,C2*%
X6730000Y38070000D02*
X7730000Y38070000D01*
X7730000Y39770000D02*
X6730000Y39770000D01*
%TO.C,C3*%
X8600000Y33600000D02*
X8600000Y32900000D01*
X7400000Y32900000D02*
X7400000Y33600000D01*
%TO.C,C4*%
X7100000Y50400000D02*
X6400000Y50400000D01*
X6400000Y51600000D02*
X7100000Y51600000D01*
%TO.C,C5*%
X6400000Y54100000D02*
X7100000Y54100000D01*
X7100000Y52900000D02*
X6400000Y52900000D01*
%TO.C,C6*%
X9650000Y54100000D02*
X10350000Y54100000D01*
X10350000Y52900000D02*
X9650000Y52900000D01*
%TO.C,C7*%
X10850000Y43100000D02*
X10850000Y42400000D01*
X9650000Y42400000D02*
X9650000Y43100000D01*
%TO.C,C8*%
X3250000Y54600000D02*
X2250000Y54600000D01*
X2250000Y52900000D02*
X3250000Y52900000D01*
%TO.C,C9*%
X3250000Y51600000D02*
X2250000Y51600000D01*
X2250000Y49900000D02*
X3250000Y49900000D01*
%TO.C,C10*%
X2000000Y38150000D02*
X3000000Y38150000D01*
X3000000Y39850000D02*
X2000000Y39850000D01*
%TO.C,C11*%
X2000000Y35150000D02*
X3000000Y35150000D01*
X3000000Y36850000D02*
X2000000Y36850000D01*
%TO.C,C12*%
X8600000Y22100000D02*
X8600000Y21400000D01*
X7400000Y21400000D02*
X7400000Y22100000D01*
D13*
%TO.C,J1*%
X9500000Y800000D02*
X9500000Y12800000D01*
X1000000Y800000D02*
X9500000Y800000D01*
X1000000Y12800000D02*
X1000000Y800000D01*
X9500000Y12800000D02*
X1000000Y12800000D01*
D14*
%TO.C,J2*%
X6600000Y33360000D02*
X1400000Y33360000D01*
X6600000Y23140000D02*
X6600000Y33360000D01*
X1400000Y20540000D02*
X1400000Y33360000D01*
X6600000Y23140000D02*
X4000000Y23140000D01*
X4000000Y23140000D02*
X4000000Y20540000D01*
X4000000Y20540000D02*
X1400000Y20540000D01*
X6600000Y21870000D02*
X6600000Y20540000D01*
X6600000Y20540000D02*
X5270000Y20540000D01*
%TO.C,L1*%
X456000Y47794000D02*
X6044000Y47794000D01*
X6044000Y42206000D02*
X456000Y42206000D01*
%TO.C,R3*%
X9500000Y51680000D02*
X10500000Y51680000D01*
X10500000Y50320000D02*
X9500000Y50320000D01*
%TO.C,R4*%
X8250000Y43570000D02*
X7250000Y43570000D01*
X7250000Y44930000D02*
X8250000Y44930000D01*
%TO.C,R5*%
X7250000Y42430000D02*
X8250000Y42430000D01*
X8250000Y41070000D02*
X7250000Y41070000D01*
%TO.C,D1*%
X12485000Y7765000D02*
X12485000Y10050000D01*
X11015000Y7765000D02*
X12485000Y7765000D01*
X11015000Y10050000D02*
X11015000Y7765000D01*
%TO.C,D2*%
X12235000Y68200000D02*
X12235000Y70485000D01*
X12235000Y70485000D02*
X10765000Y70485000D01*
X10765000Y70485000D02*
X10765000Y68200000D01*
%TO.C,D3*%
X8850000Y28900000D02*
X8850000Y25750000D01*
X7150000Y28900000D02*
X7150000Y25750000D01*
X8850000Y28900000D02*
X7150000Y28900000D01*
%TO.C,D4*%
X4900000Y64650000D02*
X4900000Y66350000D01*
X4900000Y66350000D02*
X1750000Y66350000D01*
X4900000Y64650000D02*
X1750000Y64650000D01*
%TO.C,J3*%
X7540000Y72400000D02*
X7540000Y73730000D01*
X8870000Y72400000D02*
X7540000Y72400000D01*
X7540000Y75000000D02*
X7540000Y77600000D01*
X10140000Y75000000D02*
X7540000Y75000000D01*
X10140000Y72400000D02*
X10140000Y75000000D01*
X7540000Y77600000D02*
X12740000Y77600000D01*
X10140000Y72400000D02*
X12740000Y72400000D01*
X12740000Y72400000D02*
X12740000Y77600000D01*
%TO.C,Q4*%
X6600000Y60390000D02*
X9050000Y60390000D01*
X8400000Y63610000D02*
X6600000Y63610000D01*
%TO.C,RN1*%
X11300000Y13580000D02*
X9200000Y13580000D01*
X11300000Y18920000D02*
X9200000Y18920000D01*
%TO.C,RN2*%
X8550000Y70420000D02*
X6450000Y70420000D01*
X8550000Y65080000D02*
X6450000Y65080000D01*
%TO.C,Q1*%
X9990000Y23580000D02*
X11450000Y23580000D01*
X9990000Y20420000D02*
X12150000Y20420000D01*
X9990000Y20420000D02*
X9990000Y21350000D01*
X9990000Y23580000D02*
X9990000Y22650000D01*
%TO.C,Q2*%
X3510000Y67170000D02*
X3510000Y68100000D01*
X3510000Y70330000D02*
X3510000Y69400000D01*
X3510000Y70330000D02*
X1350000Y70330000D01*
X3510000Y67170000D02*
X2050000Y67170000D01*
%TO.C,IC1*%
D10*
X8543809Y48867620D02*
X8543809Y49867620D01*
X9591428Y48962858D02*
X9543809Y48915239D01*
X9400952Y48867620D01*
X9305714Y48867620D01*
X9162857Y48915239D01*
X9067619Y49010477D01*
X9020000Y49105715D01*
X8972380Y49296191D01*
X8972380Y49439048D01*
X9020000Y49629524D01*
X9067619Y49724762D01*
X9162857Y49820000D01*
X9305714Y49867620D01*
X9400952Y49867620D01*
X9543809Y49820000D01*
X9591428Y49772381D01*
X10543809Y48867620D02*
X9972380Y48867620D01*
X10258095Y48867620D02*
X10258095Y49867620D01*
X10162857Y49724762D01*
X10067619Y49629524D01*
X9972380Y49581905D01*
%TO.C,C1*%
X7833333Y37142858D02*
X7785714Y37095239D01*
X7642857Y37047620D01*
X7547619Y37047620D01*
X7404761Y37095239D01*
X7309523Y37190477D01*
X7261904Y37285715D01*
X7214285Y37476191D01*
X7214285Y37619048D01*
X7261904Y37809524D01*
X7309523Y37904762D01*
X7404761Y38000000D01*
X7547619Y38047620D01*
X7642857Y38047620D01*
X7785714Y38000000D01*
X7833333Y37952381D01*
X8785714Y37047620D02*
X8214285Y37047620D01*
X8500000Y37047620D02*
X8500000Y38047620D01*
X8404761Y37904762D01*
X8309523Y37809524D01*
X8214285Y37761905D01*
%TO.C,C2*%
X7833333Y40142858D02*
X7785714Y40095239D01*
X7642857Y40047620D01*
X7547619Y40047620D01*
X7404761Y40095239D01*
X7309523Y40190477D01*
X7261904Y40285715D01*
X7214285Y40476191D01*
X7214285Y40619048D01*
X7261904Y40809524D01*
X7309523Y40904762D01*
X7404761Y41000000D01*
X7547619Y41047620D01*
X7642857Y41047620D01*
X7785714Y41000000D01*
X7833333Y40952381D01*
X8214285Y40952381D02*
X8261904Y41000000D01*
X8357142Y41047620D01*
X8595238Y41047620D01*
X8690476Y41000000D01*
X8738095Y40952381D01*
X8785714Y40857143D01*
X8785714Y40761905D01*
X8738095Y40619048D01*
X8166666Y40047620D01*
X8785714Y40047620D01*
%TO.C,C3*%
X7833333Y30642858D02*
X7785714Y30595239D01*
X7642857Y30547620D01*
X7547619Y30547620D01*
X7404761Y30595239D01*
X7309523Y30690477D01*
X7261904Y30785715D01*
X7214285Y30976191D01*
X7214285Y31119048D01*
X7261904Y31309524D01*
X7309523Y31404762D01*
X7404761Y31500000D01*
X7547619Y31547620D01*
X7642857Y31547620D01*
X7785714Y31500000D01*
X7833333Y31452381D01*
X8166666Y31547620D02*
X8785714Y31547620D01*
X8452380Y31166667D01*
X8595238Y31166667D01*
X8690476Y31119048D01*
X8738095Y31071429D01*
X8785714Y30976191D01*
X8785714Y30738096D01*
X8738095Y30642858D01*
X8690476Y30595239D01*
X8595238Y30547620D01*
X8309523Y30547620D01*
X8214285Y30595239D01*
X8166666Y30642858D01*
%TO.C,C4*%
X6583333Y51892858D02*
X6535714Y51845239D01*
X6392857Y51797620D01*
X6297619Y51797620D01*
X6154761Y51845239D01*
X6059523Y51940477D01*
X6011904Y52035715D01*
X5964285Y52226191D01*
X5964285Y52369048D01*
X6011904Y52559524D01*
X6059523Y52654762D01*
X6154761Y52750000D01*
X6297619Y52797620D01*
X6392857Y52797620D01*
X6535714Y52750000D01*
X6583333Y52702381D01*
X7440476Y52464286D02*
X7440476Y51797620D01*
X7202380Y52845239D02*
X6964285Y52130953D01*
X7583333Y52130953D01*
%TO.C,C5*%
X6583333Y54392858D02*
X6535714Y54345239D01*
X6392857Y54297620D01*
X6297619Y54297620D01*
X6154761Y54345239D01*
X6059523Y54440477D01*
X6011904Y54535715D01*
X5964285Y54726191D01*
X5964285Y54869048D01*
X6011904Y55059524D01*
X6059523Y55154762D01*
X6154761Y55250000D01*
X6297619Y55297620D01*
X6392857Y55297620D01*
X6535714Y55250000D01*
X6583333Y55202381D01*
X7488095Y55297620D02*
X7011904Y55297620D01*
X6964285Y54821429D01*
X7011904Y54869048D01*
X7107142Y54916667D01*
X7345238Y54916667D01*
X7440476Y54869048D01*
X7488095Y54821429D01*
X7535714Y54726191D01*
X7535714Y54488096D01*
X7488095Y54392858D01*
X7440476Y54345239D01*
X7345238Y54297620D01*
X7107142Y54297620D01*
X7011904Y54345239D01*
X6964285Y54392858D01*
%TO.C,C6*%
X9833333Y54392858D02*
X9785714Y54345239D01*
X9642857Y54297620D01*
X9547619Y54297620D01*
X9404761Y54345239D01*
X9309523Y54440477D01*
X9261904Y54535715D01*
X9214285Y54726191D01*
X9214285Y54869048D01*
X9261904Y55059524D01*
X9309523Y55154762D01*
X9404761Y55250000D01*
X9547619Y55297620D01*
X9642857Y55297620D01*
X9785714Y55250000D01*
X9833333Y55202381D01*
X10690476Y55297620D02*
X10500000Y55297620D01*
X10404761Y55250000D01*
X10357142Y55202381D01*
X10261904Y55059524D01*
X10214285Y54869048D01*
X10214285Y54488096D01*
X10261904Y54392858D01*
X10309523Y54345239D01*
X10404761Y54297620D01*
X10595238Y54297620D01*
X10690476Y54345239D01*
X10738095Y54392858D01*
X10785714Y54488096D01*
X10785714Y54726191D01*
X10738095Y54821429D01*
X10690476Y54869048D01*
X10595238Y54916667D01*
X10404761Y54916667D01*
X10309523Y54869048D01*
X10261904Y54821429D01*
X10214285Y54726191D01*
%TO.C,C7*%
X10083333Y40142858D02*
X10035714Y40095239D01*
X9892857Y40047620D01*
X9797619Y40047620D01*
X9654761Y40095239D01*
X9559523Y40190477D01*
X9511904Y40285715D01*
X9464285Y40476191D01*
X9464285Y40619048D01*
X9511904Y40809524D01*
X9559523Y40904762D01*
X9654761Y41000000D01*
X9797619Y41047620D01*
X9892857Y41047620D01*
X10035714Y41000000D01*
X10083333Y40952381D01*
X10416666Y41047620D02*
X11083333Y41047620D01*
X10654761Y40047620D01*
%TO.C,C8*%
X2583333Y54892858D02*
X2535714Y54845239D01*
X2392857Y54797620D01*
X2297619Y54797620D01*
X2154761Y54845239D01*
X2059523Y54940477D01*
X2011904Y55035715D01*
X1964285Y55226191D01*
X1964285Y55369048D01*
X2011904Y55559524D01*
X2059523Y55654762D01*
X2154761Y55750000D01*
X2297619Y55797620D01*
X2392857Y55797620D01*
X2535714Y55750000D01*
X2583333Y55702381D01*
X3154761Y55369048D02*
X3059523Y55416667D01*
X3011904Y55464286D01*
X2964285Y55559524D01*
X2964285Y55607143D01*
X3011904Y55702381D01*
X3059523Y55750000D01*
X3154761Y55797620D01*
X3345238Y55797620D01*
X3440476Y55750000D01*
X3488095Y55702381D01*
X3535714Y55607143D01*
X3535714Y55559524D01*
X3488095Y55464286D01*
X3440476Y55416667D01*
X3345238Y55369048D01*
X3154761Y55369048D01*
X3059523Y55321429D01*
X3011904Y55273810D01*
X2964285Y55178572D01*
X2964285Y54988096D01*
X3011904Y54892858D01*
X3059523Y54845239D01*
X3154761Y54797620D01*
X3345238Y54797620D01*
X3440476Y54845239D01*
X3488095Y54892858D01*
X3535714Y54988096D01*
X3535714Y55178572D01*
X3488095Y55273810D01*
X3440476Y55321429D01*
X3345238Y55369048D01*
%TO.C,C9*%
X2583333Y51892858D02*
X2535714Y51845239D01*
X2392857Y51797620D01*
X2297619Y51797620D01*
X2154761Y51845239D01*
X2059523Y51940477D01*
X2011904Y52035715D01*
X1964285Y52226191D01*
X1964285Y52369048D01*
X2011904Y52559524D01*
X2059523Y52654762D01*
X2154761Y52750000D01*
X2297619Y52797620D01*
X2392857Y52797620D01*
X2535714Y52750000D01*
X2583333Y52702381D01*
X3059523Y51797620D02*
X3250000Y51797620D01*
X3345238Y51845239D01*
X3392857Y51892858D01*
X3488095Y52035715D01*
X3535714Y52226191D01*
X3535714Y52607143D01*
X3488095Y52702381D01*
X3440476Y52750000D01*
X3345238Y52797620D01*
X3154761Y52797620D01*
X3059523Y52750000D01*
X3011904Y52702381D01*
X2964285Y52607143D01*
X2964285Y52369048D01*
X3011904Y52273810D01*
X3059523Y52226191D01*
X3154761Y52178572D01*
X3345238Y52178572D01*
X3440476Y52226191D01*
X3488095Y52273810D01*
X3535714Y52369048D01*
%TO.C,C10*%
X1857142Y40142858D02*
X1809523Y40095239D01*
X1666666Y40047620D01*
X1571428Y40047620D01*
X1428571Y40095239D01*
X1333333Y40190477D01*
X1285714Y40285715D01*
X1238095Y40476191D01*
X1238095Y40619048D01*
X1285714Y40809524D01*
X1333333Y40904762D01*
X1428571Y41000000D01*
X1571428Y41047620D01*
X1666666Y41047620D01*
X1809523Y41000000D01*
X1857142Y40952381D01*
X2809523Y40047620D02*
X2238095Y40047620D01*
X2523809Y40047620D02*
X2523809Y41047620D01*
X2428571Y40904762D01*
X2333333Y40809524D01*
X2238095Y40761905D01*
X3428571Y41047620D02*
X3523809Y41047620D01*
X3619047Y41000000D01*
X3666666Y40952381D01*
X3714285Y40857143D01*
X3761904Y40666667D01*
X3761904Y40428572D01*
X3714285Y40238096D01*
X3666666Y40142858D01*
X3619047Y40095239D01*
X3523809Y40047620D01*
X3428571Y40047620D01*
X3333333Y40095239D01*
X3285714Y40142858D01*
X3238095Y40238096D01*
X3190476Y40428572D01*
X3190476Y40666667D01*
X3238095Y40857143D01*
X3285714Y40952381D01*
X3333333Y41000000D01*
X3428571Y41047620D01*
%TO.C,C11*%
X1857142Y37142858D02*
X1809523Y37095239D01*
X1666666Y37047620D01*
X1571428Y37047620D01*
X1428571Y37095239D01*
X1333333Y37190477D01*
X1285714Y37285715D01*
X1238095Y37476191D01*
X1238095Y37619048D01*
X1285714Y37809524D01*
X1333333Y37904762D01*
X1428571Y38000000D01*
X1571428Y38047620D01*
X1666666Y38047620D01*
X1809523Y38000000D01*
X1857142Y37952381D01*
X2809523Y37047620D02*
X2238095Y37047620D01*
X2523809Y37047620D02*
X2523809Y38047620D01*
X2428571Y37904762D01*
X2333333Y37809524D01*
X2238095Y37761905D01*
X3761904Y37047620D02*
X3190476Y37047620D01*
X3476190Y37047620D02*
X3476190Y38047620D01*
X3380952Y37904762D01*
X3285714Y37809524D01*
X3190476Y37761905D01*
%TO.C,C12*%
X7607142Y23892858D02*
X7559523Y23845239D01*
X7416666Y23797620D01*
X7321428Y23797620D01*
X7178571Y23845239D01*
X7083333Y23940477D01*
X7035714Y24035715D01*
X6988095Y24226191D01*
X6988095Y24369048D01*
X7035714Y24559524D01*
X7083333Y24654762D01*
X7178571Y24750000D01*
X7321428Y24797620D01*
X7416666Y24797620D01*
X7559523Y24750000D01*
X7607142Y24702381D01*
X8559523Y23797620D02*
X7988095Y23797620D01*
X8273809Y23797620D02*
X8273809Y24797620D01*
X8178571Y24654762D01*
X8083333Y24559524D01*
X7988095Y24511905D01*
X8940476Y24702381D02*
X8988095Y24750000D01*
X9083333Y24797620D01*
X9321428Y24797620D01*
X9416666Y24750000D01*
X9464285Y24702381D01*
X9511904Y24607143D01*
X9511904Y24511905D01*
X9464285Y24369048D01*
X8892857Y23797620D01*
X9511904Y23797620D01*
%TO.C,J1*%
X10166666Y1797620D02*
X10166666Y1083334D01*
X10119047Y940477D01*
X10023809Y845239D01*
X9880952Y797620D01*
X9785714Y797620D01*
X11166666Y797620D02*
X10595238Y797620D01*
X10880952Y797620D02*
X10880952Y1797620D01*
X10785714Y1654762D01*
X10690476Y1559524D01*
X10595238Y1511905D01*
%TO.C,J2*%
X3666666Y20087620D02*
X3666666Y19373334D01*
X3619047Y19230477D01*
X3523809Y19135239D01*
X3380952Y19087620D01*
X3285714Y19087620D01*
X4095238Y19992381D02*
X4142857Y20040000D01*
X4238095Y20087620D01*
X4476190Y20087620D01*
X4571428Y20040000D01*
X4619047Y19992381D01*
X4666666Y19897143D01*
X4666666Y19801905D01*
X4619047Y19659048D01*
X4047619Y19087620D01*
X4666666Y19087620D01*
%TO.C,L1*%
X5333333Y41047620D02*
X4857142Y41047620D01*
X4857142Y42047620D01*
X6190476Y41047620D02*
X5619047Y41047620D01*
X5904761Y41047620D02*
X5904761Y42047620D01*
X5809523Y41904762D01*
X5714285Y41809524D01*
X5619047Y41761905D01*
%TO.C,R3*%
X9833333Y51797620D02*
X9500000Y52273810D01*
X9261904Y51797620D02*
X9261904Y52797620D01*
X9642857Y52797620D01*
X9738095Y52750000D01*
X9785714Y52702381D01*
X9833333Y52607143D01*
X9833333Y52464286D01*
X9785714Y52369048D01*
X9738095Y52321429D01*
X9642857Y52273810D01*
X9261904Y52273810D01*
X10166666Y52797620D02*
X10785714Y52797620D01*
X10452380Y52416667D01*
X10595238Y52416667D01*
X10690476Y52369048D01*
X10738095Y52321429D01*
X10785714Y52226191D01*
X10785714Y51988096D01*
X10738095Y51892858D01*
X10690476Y51845239D01*
X10595238Y51797620D01*
X10309523Y51797620D01*
X10214285Y51845239D01*
X10166666Y51892858D01*
%TO.C,R4*%
X10083333Y44047620D02*
X9750000Y44523810D01*
X9511904Y44047620D02*
X9511904Y45047620D01*
X9892857Y45047620D01*
X9988095Y45000000D01*
X10035714Y44952381D01*
X10083333Y44857143D01*
X10083333Y44714286D01*
X10035714Y44619048D01*
X9988095Y44571429D01*
X9892857Y44523810D01*
X9511904Y44523810D01*
X10940476Y44714286D02*
X10940476Y44047620D01*
X10702380Y45095239D02*
X10464285Y44380953D01*
X11083333Y44380953D01*
%TO.C,R5*%
X7583333Y42547620D02*
X7250000Y43023810D01*
X7011904Y42547620D02*
X7011904Y43547620D01*
X7392857Y43547620D01*
X7488095Y43500000D01*
X7535714Y43452381D01*
X7583333Y43357143D01*
X7583333Y43214286D01*
X7535714Y43119048D01*
X7488095Y43071429D01*
X7392857Y43023810D01*
X7011904Y43023810D01*
X8488095Y43547620D02*
X8011904Y43547620D01*
X7964285Y43071429D01*
X8011904Y43119048D01*
X8107142Y43166667D01*
X8345238Y43166667D01*
X8440476Y43119048D01*
X8488095Y43071429D01*
X8535714Y42976191D01*
X8535714Y42738096D01*
X8488095Y42642858D01*
X8440476Y42595239D01*
X8345238Y42547620D01*
X8107142Y42547620D01*
X8011904Y42595239D01*
X7964285Y42642858D01*
%TO.C,D1*%
X10702380Y7761905D02*
X9702380Y7761905D01*
X9702380Y8000000D01*
X9750000Y8142858D01*
X9845238Y8238096D01*
X9940476Y8285715D01*
X10130952Y8333334D01*
X10273809Y8333334D01*
X10464285Y8285715D01*
X10559523Y8238096D01*
X10654761Y8142858D01*
X10702380Y8000000D01*
X10702380Y7761905D01*
X10702380Y9285715D02*
X10702380Y8714286D01*
X10702380Y9000000D02*
X9702380Y9000000D01*
X9845238Y8904762D01*
X9940476Y8809524D01*
X9988095Y8714286D01*
%TO.C,D2*%
X13382380Y68261905D02*
X12382380Y68261905D01*
X12382380Y68500000D01*
X12430000Y68642858D01*
X12525238Y68738096D01*
X12620476Y68785715D01*
X12810952Y68833334D01*
X12953809Y68833334D01*
X13144285Y68785715D01*
X13239523Y68738096D01*
X13334761Y68642858D01*
X13382380Y68500000D01*
X13382380Y68261905D01*
X12477619Y69214286D02*
X12430000Y69261905D01*
X12382380Y69357143D01*
X12382380Y69595239D01*
X12430000Y69690477D01*
X12477619Y69738096D01*
X12572857Y69785715D01*
X12668095Y69785715D01*
X12810952Y69738096D01*
X13382380Y69166667D01*
X13382380Y69785715D01*
%TO.C,D3*%
X7261904Y29297620D02*
X7261904Y30297620D01*
X7500000Y30297620D01*
X7642857Y30250000D01*
X7738095Y30154762D01*
X7785714Y30059524D01*
X7833333Y29869048D01*
X7833333Y29726191D01*
X7785714Y29535715D01*
X7738095Y29440477D01*
X7642857Y29345239D01*
X7500000Y29297620D01*
X7261904Y29297620D01*
X8166666Y30297620D02*
X8785714Y30297620D01*
X8452380Y29916667D01*
X8595238Y29916667D01*
X8690476Y29869048D01*
X8738095Y29821429D01*
X8785714Y29726191D01*
X8785714Y29488096D01*
X8738095Y29392858D01*
X8690476Y29345239D01*
X8595238Y29297620D01*
X8309523Y29297620D01*
X8214285Y29345239D01*
X8166666Y29392858D01*
%TO.C,D4*%
X2261904Y63197620D02*
X2261904Y64197620D01*
X2500000Y64197620D01*
X2642857Y64150000D01*
X2738095Y64054762D01*
X2785714Y63959524D01*
X2833333Y63769048D01*
X2833333Y63626191D01*
X2785714Y63435715D01*
X2738095Y63340477D01*
X2642857Y63245239D01*
X2500000Y63197620D01*
X2261904Y63197620D01*
X3690476Y63864286D02*
X3690476Y63197620D01*
X3452380Y64245239D02*
X3214285Y63530953D01*
X3833333Y63530953D01*
%TO.C,J3*%
X5992380Y74666667D02*
X6706666Y74666667D01*
X6849523Y74619048D01*
X6944761Y74523810D01*
X6992380Y74380953D01*
X6992380Y74285715D01*
X5992380Y75047620D02*
X5992380Y75666667D01*
X6373333Y75333334D01*
X6373333Y75476191D01*
X6420952Y75571429D01*
X6468571Y75619048D01*
X6563809Y75666667D01*
X6801904Y75666667D01*
X6897142Y75619048D01*
X6944761Y75571429D01*
X6992380Y75476191D01*
X6992380Y75190477D01*
X6944761Y75095239D01*
X6897142Y75047620D01*
%TO.C,Q4*%
X7404761Y63702381D02*
X7309523Y63750000D01*
X7214285Y63845239D01*
X7071428Y63988096D01*
X6976190Y64035715D01*
X6880952Y64035715D01*
X6928571Y63797620D02*
X6833333Y63845239D01*
X6738095Y63940477D01*
X6690476Y64130953D01*
X6690476Y64464286D01*
X6738095Y64654762D01*
X6833333Y64750000D01*
X6928571Y64797620D01*
X7119047Y64797620D01*
X7214285Y64750000D01*
X7309523Y64654762D01*
X7357142Y64464286D01*
X7357142Y64130953D01*
X7309523Y63940477D01*
X7214285Y63845239D01*
X7119047Y63797620D01*
X6928571Y63797620D01*
X8214285Y64464286D02*
X8214285Y63797620D01*
X7976190Y64845239D02*
X7738095Y64130953D01*
X8357142Y64130953D01*
%TO.C,RN1*%
X10559523Y12047620D02*
X10226190Y12523810D01*
X9988095Y12047620D02*
X9988095Y13047620D01*
X10369047Y13047620D01*
X10464285Y13000000D01*
X10511904Y12952381D01*
X10559523Y12857143D01*
X10559523Y12714286D01*
X10511904Y12619048D01*
X10464285Y12571429D01*
X10369047Y12523810D01*
X9988095Y12523810D01*
X10988095Y12047620D02*
X10988095Y13047620D01*
X11559523Y12047620D01*
X11559523Y13047620D01*
X12559523Y12047620D02*
X11988095Y12047620D01*
X12273809Y12047620D02*
X12273809Y13047620D01*
X12178571Y12904762D01*
X12083333Y12809524D01*
X11988095Y12761905D01*
%TO.C,RN2*%
X6809523Y70797620D02*
X6476190Y71273810D01*
X6238095Y70797620D02*
X6238095Y71797620D01*
X6619047Y71797620D01*
X6714285Y71750000D01*
X6761904Y71702381D01*
X6809523Y71607143D01*
X6809523Y71464286D01*
X6761904Y71369048D01*
X6714285Y71321429D01*
X6619047Y71273810D01*
X6238095Y71273810D01*
X7238095Y70797620D02*
X7238095Y71797620D01*
X7809523Y70797620D01*
X7809523Y71797620D01*
X8238095Y71702381D02*
X8285714Y71750000D01*
X8380952Y71797620D01*
X8619047Y71797620D01*
X8714285Y71750000D01*
X8761904Y71702381D01*
X8809523Y71607143D01*
X8809523Y71511905D01*
X8761904Y71369048D01*
X8190476Y70797620D01*
X8809523Y70797620D01*
%TO.C,Q1*%
X12654761Y21452381D02*
X12559523Y21500000D01*
X12464285Y21595239D01*
X12321428Y21738096D01*
X12226190Y21785715D01*
X12130952Y21785715D01*
X12178571Y21547620D02*
X12083333Y21595239D01*
X11988095Y21690477D01*
X11940476Y21880953D01*
X11940476Y22214286D01*
X11988095Y22404762D01*
X12083333Y22500000D01*
X12178571Y22547620D01*
X12369047Y22547620D01*
X12464285Y22500000D01*
X12559523Y22404762D01*
X12607142Y22214286D01*
X12607142Y21880953D01*
X12559523Y21690477D01*
X12464285Y21595239D01*
X12369047Y21547620D01*
X12178571Y21547620D01*
X13559523Y21547620D02*
X12988095Y21547620D01*
X13273809Y21547620D02*
X13273809Y22547620D01*
X13178571Y22404762D01*
X13083333Y22309524D01*
X12988095Y22261905D01*
%TO.C,Q2*%
X2654761Y70702381D02*
X2559523Y70750000D01*
X2464285Y70845239D01*
X2321428Y70988096D01*
X2226190Y71035715D01*
X2130952Y71035715D01*
X2178571Y70797620D02*
X2083333Y70845239D01*
X1988095Y70940477D01*
X1940476Y71130953D01*
X1940476Y71464286D01*
X1988095Y71654762D01*
X2083333Y71750000D01*
X2178571Y71797620D01*
X2369047Y71797620D01*
X2464285Y71750000D01*
X2559523Y71654762D01*
X2607142Y71464286D01*
X2607142Y71130953D01*
X2559523Y70940477D01*
X2464285Y70845239D01*
X2369047Y70797620D01*
X2178571Y70797620D01*
X2988095Y71702381D02*
X3035714Y71750000D01*
X3130952Y71797620D01*
X3369047Y71797620D01*
X3464285Y71750000D01*
X3511904Y71702381D01*
X3559523Y71607143D01*
X3559523Y71511905D01*
X3511904Y71369048D01*
X2940476Y70797620D01*
X3559523Y70797620D01*
%TD*%
M02*
