M48
; DRILL file {KiCad (5.1.6-0)} date Saturday, April 30, 2022 at 03:33:17 PM
; FORMAT={-:-/ absolute / metric / decimal}
; #@! TF.CreationDate,2022-04-30T15:33:17-07:00
; #@! TF.GenerationSoftware,Kicad,Pcbnew,(5.1.6-0)
; #@! TF.FileFunction,Plated,1,2,PTH
FMAT,2
METRIC
T1C0.305
T2C0.500
T3C1.000
T4C1.100
T5C3.200
%
G90
G05
T1
X0.75Y65.5
X4.0Y55.0
X4.0Y52.0
X4.0Y37.75
X4.0Y34.75
X4.75Y39.5
X4.75Y36.5
X5.0Y68.0
X5.0Y54.25
X5.0Y53.25
X5.0Y51.25
X5.0Y50.25
X5.0Y38.5
X5.0Y35.5
X5.25Y62.25
X5.963Y63.815
X6.0Y54.25
X6.0Y50.25
X6.25Y37.75
X6.25Y34.75
X6.75Y40.75
X7.5Y47.0
X7.75Y66.75
X7.75Y65.25
X8.0Y23.35
X8.0Y19.25
X8.75Y46.0
X8.75Y43.25
X8.85Y32.5
X9.0Y60.0
X9.0Y59.0
X10.25Y59.0
X11.75Y19.5
X13.467Y8.25
T2
X1.6Y17.0
X2.303Y18.697
X2.303Y15.303
X4.0Y19.4
X4.0Y14.6
X5.697Y18.697
X5.697Y15.303
X6.4Y17.0
X1.6Y75.0
X2.303Y76.697
X2.303Y73.303
X4.0Y77.4
X4.0Y72.6
X5.697Y76.697
X5.697Y73.303
X6.4Y75.0
T3
X8.87Y76.27
X8.87Y73.73
X11.41Y76.27
X11.41Y73.73
X2.73Y32.03
X2.73Y29.49
X2.73Y26.95
X2.73Y24.41
X2.73Y21.87
X5.27Y32.03
X5.27Y29.49
X5.27Y26.95
X5.27Y24.41
X5.27Y21.87
T4
X3.5Y10.5
X7.0Y5.5
T5
X4.0Y17.0
X4.0Y75.0
T0
M30
