%TF.GenerationSoftware,KiCad,Pcbnew,(6.0.5-0)*%
%TF.CreationDate,2022-07-07T14:48:36-07:00*%
%TF.ProjectId,jetson-nano-ppoe,6a657473-6f6e-42d6-9e61-6e6f2d70706f,rev?*%
%TF.SameCoordinates,PX8b3c880PY8583b00*%
%TF.FileFunction,Legend,Bot*%
%TF.FilePolarity,Positive*%
%FSLAX46Y46*%
G04 Gerber Fmt 4.6, Leading zero omitted, Abs format (unit mm)*
G04 Created by KiCad (PCBNEW (6.0.5-0)) date 2022-07-07 14:48:36*
%MOMM*%
%LPD*%
G01*
G04 APERTURE LIST*
%ADD10C,0.150000*%
%ADD11C,0.120000*%
G04 APERTURE END LIST*
D10*
X7552380Y32738096D02*
X7552380Y32119048D01*
X7933333Y32452381D01*
X7933333Y32309524D01*
X7980952Y32214286D01*
X8028571Y32166667D01*
X8123809Y32119048D01*
X8361904Y32119048D01*
X8457142Y32166667D01*
X8504761Y32214286D01*
X8552380Y32309524D01*
X8552380Y32595239D01*
X8504761Y32690477D01*
X8457142Y32738096D01*
X7552380Y31833334D02*
X8552380Y31500000D01*
X7552380Y31166667D01*
X7552380Y30928572D02*
X7552380Y30309524D01*
X7933333Y30642858D01*
X7933333Y30500000D01*
X7980952Y30404762D01*
X8028571Y30357143D01*
X8123809Y30309524D01*
X8361904Y30309524D01*
X8457142Y30357143D01*
X8504761Y30404762D01*
X8552380Y30500000D01*
X8552380Y30785715D01*
X8504761Y30880953D01*
X8457142Y30928572D01*
X8552380Y28976191D02*
X8504761Y29071429D01*
X8457142Y29119048D01*
X8361904Y29166667D01*
X8076190Y29166667D01*
X7980952Y29119048D01*
X7933333Y29071429D01*
X7885714Y28976191D01*
X7885714Y28833334D01*
X7933333Y28738096D01*
X7980952Y28690477D01*
X8076190Y28642858D01*
X8361904Y28642858D01*
X8457142Y28690477D01*
X8504761Y28738096D01*
X8552380Y28833334D01*
X8552380Y28976191D01*
X7885714Y28214286D02*
X8552380Y28214286D01*
X7980952Y28214286D02*
X7933333Y28166667D01*
X7885714Y28071429D01*
X7885714Y27928572D01*
X7933333Y27833334D01*
X8028571Y27785715D01*
X8552380Y27785715D01*
X7552380Y26547620D02*
X8361904Y26547620D01*
X8457142Y26500000D01*
X8504761Y26452381D01*
X8552380Y26357143D01*
X8552380Y26166667D01*
X8504761Y26071429D01*
X8457142Y26023810D01*
X8361904Y25976191D01*
X7552380Y25976191D01*
X8266666Y25547620D02*
X8266666Y25071429D01*
X8552380Y25642858D02*
X7552380Y25309524D01*
X8552380Y24976191D01*
X8552380Y24071429D02*
X8076190Y24404762D01*
X8552380Y24642858D02*
X7552380Y24642858D01*
X7552380Y24261905D01*
X7600000Y24166667D01*
X7647619Y24119048D01*
X7742857Y24071429D01*
X7885714Y24071429D01*
X7980952Y24119048D01*
X8028571Y24166667D01*
X8076190Y24261905D01*
X8076190Y24642858D01*
X7552380Y23785715D02*
X7552380Y23214286D01*
X8552380Y23500000D02*
X7552380Y23500000D01*
%TO.C,JP1*%
X7552380Y19333334D02*
X8266666Y19333334D01*
X8409523Y19380953D01*
X8504761Y19476191D01*
X8552380Y19619048D01*
X8552380Y19714286D01*
X8552380Y18857143D02*
X7552380Y18857143D01*
X7552380Y18476191D01*
X7600000Y18380953D01*
X7647619Y18333334D01*
X7742857Y18285715D01*
X7885714Y18285715D01*
X7980952Y18333334D01*
X8028571Y18380953D01*
X8076190Y18476191D01*
X8076190Y18857143D01*
X8552380Y17333334D02*
X8552380Y17904762D01*
X8552380Y17619048D02*
X7552380Y17619048D01*
X7695238Y17714286D01*
X7790476Y17809524D01*
X7838095Y17904762D01*
D11*
X8600000Y20100000D02*
X8600000Y22900000D01*
X8600000Y22900000D02*
X6600000Y22900000D01*
X6600000Y22900000D02*
X6600000Y20100000D01*
X6600000Y20100000D02*
X8600000Y20100000D01*
%TD*%
M02*
