%TF.GenerationSoftware,KiCad,Pcbnew,(6.0.5-0)*%
%TF.CreationDate,2022-07-07T14:48:36-07:00*%
%TF.ProjectId,jetson-nano-ppoe,6a657473-6f6e-42d6-9e61-6e6f2d70706f,rev?*%
%TF.SameCoordinates,PX8b3c880PY8583b00*%
%TF.FileFunction,Copper,L1,Top*%
%TF.FilePolarity,Positive*%
%FSLAX46Y46*%
G04 Gerber Fmt 4.6, Leading zero omitted, Abs format (unit mm)*
G04 Created by KiCad (PCBNEW (6.0.5-0)) date 2022-07-07 14:48:36*
%MOMM*%
%LPD*%
G01*
G04 APERTURE LIST*
G04 Aperture macros list*
%AMRoundRect*
0 Rectangle with rounded corners*
0 $1 Rounding radius*
0 $2 $3 $4 $5 $6 $7 $8 $9 X,Y pos of 4 corners*
0 Add a 4 corners polygon primitive as box body*
4,1,4,$2,$3,$4,$5,$6,$7,$8,$9,$2,$3,0*
0 Add four circle primitives for the rounded corners*
1,1,$1+$1,$2,$3*
1,1,$1+$1,$4,$5*
1,1,$1+$1,$6,$7*
1,1,$1+$1,$8,$9*
0 Add four rect primitives between the rounded corners*
20,1,$1+$1,$2,$3,$4,$5,0*
20,1,$1+$1,$4,$5,$6,$7,0*
20,1,$1+$1,$6,$7,$8,$9,0*
20,1,$1+$1,$8,$9,$2,$3,0*%
G04 Aperture macros list end*
%TA.AperFunction,ComponentPad*%
%ADD10R,1.700000X1.700000*%
%TD*%
%TA.AperFunction,ComponentPad*%
%ADD11O,1.700000X1.700000*%
%TD*%
%TA.AperFunction,ComponentPad*%
%ADD12C,1.650000*%
%TD*%
%TA.AperFunction,ComponentPad*%
%ADD13C,0.800000*%
%TD*%
%TA.AperFunction,ComponentPad*%
%ADD14C,6.400000*%
%TD*%
%TA.AperFunction,SMDPad,CuDef*%
%ADD15R,0.900000X0.800000*%
%TD*%
%TA.AperFunction,SMDPad,CuDef*%
%ADD16C,2.000000*%
%TD*%
%TA.AperFunction,SMDPad,CuDef*%
%ADD17RoundRect,0.250000X0.262500X0.450000X-0.262500X0.450000X-0.262500X-0.450000X0.262500X-0.450000X0*%
%TD*%
%TA.AperFunction,SMDPad,CuDef*%
%ADD18RoundRect,0.218750X-0.218750X-0.256250X0.218750X-0.256250X0.218750X0.256250X-0.218750X0.256250X0*%
%TD*%
%TA.AperFunction,SMDPad,CuDef*%
%ADD19R,0.900000X0.900000*%
%TD*%
%TA.AperFunction,ViaPad*%
%ADD20C,0.609600*%
%TD*%
%TA.AperFunction,Conductor*%
%ADD21C,0.914400*%
%TD*%
%TA.AperFunction,Conductor*%
%ADD22C,0.254000*%
%TD*%
%TA.AperFunction,Conductor*%
%ADD23C,2.000000*%
%TD*%
G04 APERTURE END LIST*
%TO.C,NT1*%
G36*
X7500000Y10200000D02*
G01*
X3500000Y10200000D01*
X3500000Y12200000D01*
X7500000Y12200000D01*
X7500000Y10200000D01*
G37*
%TO.C,NT2*%
G36*
X3750000Y44500000D02*
G01*
X1750000Y44500000D01*
X1750000Y48500000D01*
X3750000Y48500000D01*
X3750000Y44500000D01*
G37*
%TD*%
D10*
%TO.P,J2,1,Pin_1*%
%TO.N,+3V3*%
X5270000Y21870000D03*
D11*
%TO.P,J2,2,Pin_2*%
%TO.N,+5V*%
X2730000Y21870000D03*
%TO.P,J2,3,Pin_3*%
%TO.N,/I2C1_SDA*%
X5270000Y24410000D03*
%TO.P,J2,4,Pin_4*%
%TO.N,+5V*%
X2730000Y24410000D03*
%TO.P,J2,5,Pin_5*%
%TO.N,/I2C1_SCL*%
X5270000Y26950000D03*
%TO.P,J2,6,Pin_6*%
%TO.N,GND*%
X2730000Y26950000D03*
%TO.P,J2,7,Pin_7*%
%TO.N,unconnected-(J2-Pad7)*%
X5270000Y29490000D03*
%TO.P,J2,8,Pin_8*%
%TO.N,/UART1_TXD*%
X2730000Y29490000D03*
%TO.P,J2,9,Pin_9*%
%TO.N,GND*%
X5270000Y32030000D03*
%TO.P,J2,10,Pin_10*%
%TO.N,/UART1_RXD*%
X2730000Y32030000D03*
%TD*%
D12*
%TO.P,J1,1,Pin_1*%
%TO.N,GND*%
X7000000Y6200000D03*
%TO.P,J1,2,Pin_2*%
%TO.N,/12V_CONN*%
X3500000Y11200000D03*
%TD*%
D13*
%TO.P,H2,1*%
%TO.N,N/C*%
X4000000Y77400000D03*
X6400000Y75000000D03*
X1600000Y75000000D03*
X2302944Y76697056D03*
X2302944Y73302944D03*
X5697056Y76697056D03*
D14*
X4000000Y75000000D03*
D13*
X5697056Y73302944D03*
X4000000Y72600000D03*
%TD*%
D15*
%TO.P,Q2,1,G*%
%TO.N,/TR2_EN*%
X7000000Y68700000D03*
%TO.P,Q2,2,S*%
%TO.N,+12V*%
X7000000Y66800000D03*
%TO.P,Q2,3,D*%
%TO.N,/TR2_TAP*%
X9000000Y67750000D03*
%TD*%
D10*
%TO.P,J3,1,Pin_1*%
%TO.N,/TR1_TAP*%
X8870000Y73730000D03*
D11*
%TO.P,J3,2,Pin_2*%
%TO.N,/TR0_TAP*%
X8870000Y76270000D03*
%TO.P,J3,3,Pin_3*%
%TO.N,GND*%
X11410000Y73730000D03*
%TO.P,J3,4,Pin_4*%
%TO.N,/TR2_TAP*%
X11410000Y76270000D03*
%TD*%
D13*
%TO.P,H1,1*%
%TO.N,N/C*%
X4000000Y19400000D03*
X2302944Y15302944D03*
X6400000Y17000000D03*
X1600000Y17000000D03*
X5697056Y15302944D03*
X2302944Y18697056D03*
D14*
X4000000Y17000000D03*
D13*
X4000000Y14600000D03*
X5697056Y18697056D03*
%TD*%
D16*
%TO.P,NT1,1,1*%
%TO.N,/12V_CONN*%
X3500000Y11200000D03*
%TO.P,NT1,2,2*%
%TO.N,/REG_VIN*%
X7500000Y11200000D03*
%TD*%
D10*
%TO.P,J5,1,Pin_1*%
%TO.N,GND*%
X11620005Y15520010D03*
D11*
%TO.P,J5,2,Pin_2*%
%TO.N,unconnected-(J5-Pad2)*%
X11620005Y12980010D03*
%TO.P,J5,3,Pin_3*%
%TO.N,/UART_VCC*%
X11620005Y10440010D03*
%TO.P,J5,4,Pin_4*%
%TO.N,/UART1_RXD*%
X11620005Y7900010D03*
%TO.P,J5,5,Pin_5*%
%TO.N,/UART1_TXD*%
X11620005Y5360010D03*
%TO.P,J5,6,Pin_6*%
%TO.N,unconnected-(J5-Pad6)*%
X11620005Y2820010D03*
%TD*%
D17*
%TO.P,R1,1*%
%TO.N,/REG_PG_R*%
X3912500Y70600000D03*
%TO.P,R1,2*%
%TO.N,/REG_PG*%
X2087500Y70600000D03*
%TD*%
D16*
%TO.P,NT2,1,1*%
%TO.N,+5V*%
X2750000Y44500000D03*
%TO.P,NT2,2,2*%
%TO.N,/REG_VOUT*%
X2750000Y48500000D03*
%TD*%
D18*
%TO.P,D2,1,K*%
%TO.N,/REG_VRP_K*%
X10962500Y68600000D03*
%TO.P,D2,2,A*%
%TO.N,+12V*%
X12537500Y68600000D03*
%TD*%
D10*
%TO.P,J4,1,Pin_1*%
%TO.N,/REG_PG*%
X2730000Y61240000D03*
D11*
%TO.P,J4,2,Pin_2*%
%TO.N,/REG_EN*%
X5270000Y61240000D03*
%TO.P,J4,3,Pin_3*%
%TO.N,+12V*%
X2730000Y58700000D03*
%TO.P,J4,4,Pin_4*%
X5270000Y58700000D03*
%TO.P,J4,5,Pin_5*%
%TO.N,/REG_VIN*%
X2730000Y56160000D03*
%TO.P,J4,6,Pin_6*%
X5270000Y56160000D03*
%TO.P,J4,7,Pin_7*%
%TO.N,GND*%
X2730000Y53620000D03*
%TO.P,J4,8,Pin_8*%
X5270000Y53620000D03*
%TO.P,J4,9,Pin_9*%
X2730000Y51080000D03*
%TO.P,J4,10,Pin_10*%
X5270000Y51080000D03*
%TO.P,J4,11,Pin_11*%
%TO.N,/REG_VOUT*%
X2730000Y48540000D03*
%TO.P,J4,12,Pin_12*%
X5270000Y48540000D03*
%TD*%
D18*
%TO.P,D3,1,K*%
%TO.N,/REG_PG_R*%
X2212500Y68600000D03*
%TO.P,D3,2,A*%
%TO.N,+12V*%
X3787500Y68600000D03*
%TD*%
D19*
%TO.P,RN2,1,R1.1*%
%TO.N,GND*%
X9500000Y61000000D03*
%TO.P,RN2,2,R1.1*%
%TO.N,/TR2_EN*%
X9500000Y59660000D03*
%TO.P,RN2,3,R1.1*%
X9500000Y58340000D03*
%TO.P,RN2,4,R1.1*%
%TO.N,/REG_VRP_K*%
X9500000Y57000000D03*
%TO.P,RN2,5,R1.2*%
%TO.N,GND*%
X12500000Y57000000D03*
%TO.P,RN2,6,R1.2*%
%TO.N,+12V*%
X12500000Y58340000D03*
%TO.P,RN2,7,R1.2*%
%TO.N,/REG_VIN*%
X12500000Y59660000D03*
%TO.P,RN2,8,R1.2*%
X12500000Y61000000D03*
%TD*%
D20*
%TO.N,+12V*%
X6750000Y70000000D03*
X10557146Y69692854D03*
%TO.N,GND*%
X12500000Y56100000D03*
X9500000Y61900000D03*
%TO.N,/UART1_RXD*%
X6400000Y28700000D03*
%TO.N,/REG_PG*%
X1100000Y69600000D03*
%TO.N,/UART_VCC*%
X4700000Y9800000D03*
%TO.N,/REG_VIN*%
X11000000Y55000000D03*
X11300000Y58500000D03*
%TD*%
D21*
%TO.N,/TR2_TAP*%
X12400000Y78000000D02*
X8600000Y78000000D01*
X13250000Y77150000D02*
X12400000Y78000000D01*
X13250000Y76650000D02*
X13250000Y77150000D01*
X13250000Y76650000D02*
X13250000Y75850000D01*
X11410000Y76270000D02*
X12870000Y76270000D01*
X12870000Y76270000D02*
X13250000Y76650000D01*
X12830000Y76270000D02*
X13250000Y75850000D01*
X13250000Y75850000D02*
X13250000Y72750000D01*
X11410000Y76270000D02*
X12830000Y76270000D01*
D22*
%TO.N,+12V*%
X10720289Y56220289D02*
X11020289Y56220289D01*
D21*
X7500000Y59250000D02*
X7500000Y64000000D01*
D22*
X11050000Y56250000D02*
X10900000Y56400000D01*
X12537500Y68600000D02*
X11444646Y69692854D01*
X10720289Y56220289D02*
X10900000Y56400000D01*
X8779711Y56220289D02*
X6950000Y58050000D01*
X11444646Y69692854D02*
X10557146Y69692854D01*
X6950000Y58050000D02*
X6950000Y58700000D01*
X11020289Y56220289D02*
X11050000Y56250000D01*
X11050000Y56250000D02*
X11050000Y56550000D01*
X12340000Y58340000D02*
X12500000Y58340000D01*
X10900000Y56400000D02*
X11050000Y56550000D01*
X11720289Y57720289D02*
X12340000Y58340000D01*
X6950000Y66800000D02*
X7000000Y66800000D01*
X8779711Y56220289D02*
X10720289Y56220289D01*
D21*
X6950000Y58700000D02*
X7500000Y59250000D01*
D22*
X11050000Y56550000D02*
X11720289Y57220289D01*
X11720289Y57220289D02*
X11720289Y57720289D01*
D21*
X7500000Y64000000D02*
X7000000Y64500000D01*
D22*
%TO.N,GND*%
X12500000Y57000000D02*
X12500000Y56100000D01*
X9500000Y61000000D02*
X9500000Y61900000D01*
D23*
%TO.N,+5V*%
X2750000Y35250000D02*
X1250000Y33750000D01*
X2750000Y44500000D02*
X2750000Y35250000D01*
D22*
%TO.N,/UART1_RXD*%
X6010289Y28310289D02*
X6400000Y28700000D01*
X2730000Y32030000D02*
X3909711Y30850289D01*
X3909711Y29181925D02*
X4781347Y28310289D01*
X3909711Y30850289D02*
X3909711Y29181925D01*
X4781347Y28310289D02*
X6010289Y28310289D01*
D21*
%TO.N,/TR2_TAP*%
X8400000Y70100000D02*
X9000000Y69500000D01*
X9800000Y70300000D02*
X9800000Y71200000D01*
X10750000Y71250000D02*
X9900000Y72100000D01*
X10750000Y71250000D02*
X9800000Y70300000D01*
X9000000Y69500000D02*
X9000000Y71200000D01*
X9000000Y69500000D02*
X9800000Y70300000D01*
X9900000Y72100000D02*
X8600000Y72100000D01*
X8400000Y71900000D02*
X8400000Y70100000D01*
X9000000Y69500000D02*
X9000000Y67750000D01*
X13250000Y72750000D02*
X11750000Y71250000D01*
X9000000Y71200000D02*
X9300000Y71500000D01*
X8600000Y72100000D02*
X8400000Y71900000D01*
X11750000Y71250000D02*
X10750000Y71250000D01*
D22*
%TO.N,/REG_VRP_K*%
X11000000Y67600000D02*
X11000000Y68562500D01*
X10500000Y67100000D02*
X11000000Y67600000D01*
X10500000Y57300000D02*
X10500000Y67100000D01*
X10200000Y57000000D02*
X10500000Y57300000D01*
X9500000Y57000000D02*
X10200000Y57000000D01*
X11000000Y68562500D02*
X10962500Y68600000D01*
%TO.N,/REG_PG_R*%
X2212500Y68900000D02*
X3912500Y70600000D01*
X2212500Y68600000D02*
X2212500Y68900000D01*
%TO.N,/REG_PG*%
X2087500Y70587500D02*
X1100000Y69600000D01*
X2087500Y70600000D02*
X2087500Y70587500D01*
D23*
%TO.N,/REG_VOUT*%
X5270000Y48540000D02*
X3432711Y46702711D01*
X2730000Y48540000D02*
X5270000Y48540000D01*
X3432711Y46702711D02*
X2750000Y46702711D01*
D22*
%TO.N,/UART_VCC*%
X4700000Y9800000D02*
X5800000Y8700000D01*
X9879995Y8700000D02*
X11620005Y10440010D01*
X5800000Y8700000D02*
X9879995Y8700000D01*
%TO.N,/REG_VIN*%
X12500000Y59660000D02*
X11796000Y59660000D01*
X11796000Y59660000D02*
X11568000Y59432000D01*
X11568000Y59432000D02*
X11300000Y59164000D01*
X11600000Y59464000D02*
X11568000Y59432000D01*
X11600000Y59800000D02*
X11600000Y60900000D01*
X11600000Y60900000D02*
X11700000Y61000000D01*
X11600000Y59800000D02*
X11600000Y59464000D01*
X11700000Y61000000D02*
X12500000Y61000000D01*
X11740000Y59660000D02*
X11600000Y59800000D01*
X11796000Y59660000D02*
X11740000Y59660000D01*
X11300000Y59164000D02*
X11300000Y58500000D01*
%TO.N,/TR2_EN*%
X9500000Y58340000D02*
X8796000Y58340000D01*
X8000000Y65000000D02*
X8500000Y64500000D01*
X8840000Y59660000D02*
X8750000Y59750000D01*
X8500000Y64500000D02*
X8500000Y60000000D01*
X8500000Y58636000D02*
X8500000Y59750000D01*
X8796000Y58340000D02*
X8500000Y58636000D01*
X8500000Y59750000D02*
X8500000Y60000000D01*
X8840000Y59660000D02*
X8500000Y60000000D01*
X9500000Y59660000D02*
X8840000Y59660000D01*
X7050000Y68700000D02*
X8000000Y67750000D01*
X8750000Y59750000D02*
X8500000Y59750000D01*
X8000000Y67750000D02*
X8000000Y65000000D01*
X7000000Y68700000D02*
X7050000Y68700000D01*
%TD*%
%TA.AperFunction,Conductor*%
%TO.N,+5V*%
G36*
X1767461Y34480787D02*
G01*
X1779465Y34470535D01*
X2220535Y34029465D01*
X2248761Y33974067D01*
X2250000Y33958330D01*
X2250000Y33146032D01*
X2230787Y33086901D01*
X2200836Y33059576D01*
X2051987Y32971020D01*
X2051982Y32971016D01*
X2048023Y32968661D01*
X2044557Y32965622D01*
X2044555Y32965620D01*
X1891852Y32831704D01*
X1891849Y32831701D01*
X1888385Y32828663D01*
X1756933Y32661917D01*
X1658070Y32474008D01*
X1595105Y32271229D01*
X1570149Y32060372D01*
X1584036Y31848497D01*
X1636301Y31642701D01*
X1725195Y31449876D01*
X1727858Y31446108D01*
X1731555Y31440877D01*
X1750000Y31382817D01*
X1750000Y30133589D01*
X1738430Y30086749D01*
X1658070Y29934008D01*
X1595105Y29731229D01*
X1570149Y29520372D01*
X1584036Y29308497D01*
X1636301Y29102701D01*
X1725195Y28909876D01*
X1727858Y28906108D01*
X1731555Y28900877D01*
X1750000Y28842817D01*
X1750000Y27593589D01*
X1738430Y27546749D01*
X1658070Y27394008D01*
X1595105Y27191229D01*
X1570149Y26980372D01*
X1584036Y26768497D01*
X1636301Y26562701D01*
X1725195Y26369876D01*
X1847740Y26196479D01*
X1999832Y26048317D01*
X2003665Y26045756D01*
X2003666Y26045755D01*
X2172542Y25932915D01*
X2172546Y25932913D01*
X2176377Y25930353D01*
X2371463Y25846538D01*
X2578557Y25799677D01*
X2684640Y25795509D01*
X2786114Y25791522D01*
X2786115Y25791522D01*
X2790723Y25791341D01*
X2795280Y25792002D01*
X2795285Y25792002D01*
X2996293Y25821147D01*
X2996299Y25821148D01*
X3000855Y25821809D01*
X3005218Y25823290D01*
X3005222Y25823291D01*
X3197553Y25888579D01*
X3201916Y25890060D01*
X3375325Y25987173D01*
X3424479Y26000000D01*
X3708330Y26000000D01*
X3767461Y25980787D01*
X3779465Y25970535D01*
X4220535Y25529465D01*
X4248761Y25474067D01*
X4250000Y25458330D01*
X4250000Y24977561D01*
X4238430Y24930721D01*
X4198070Y24854008D01*
X4135105Y24651229D01*
X4110149Y24440372D01*
X4124036Y24228497D01*
X4176301Y24022701D01*
X4178234Y24018508D01*
X4240759Y23882881D01*
X4250000Y23840764D01*
X4250000Y23023512D01*
X4230787Y22964381D01*
X4220597Y22952440D01*
X4170293Y22902048D01*
X4170290Y22902043D01*
X4163730Y22895472D01*
X4117742Y22791451D01*
X4114700Y22765358D01*
X4114700Y20974642D01*
X4117867Y20948022D01*
X4164036Y20844081D01*
X4170608Y20837521D01*
X4182878Y20825272D01*
X4211153Y20769899D01*
X4201480Y20708482D01*
X4182940Y20682940D01*
X4037975Y20537975D01*
X3982577Y20509749D01*
X3972106Y20508648D01*
X3928475Y20506361D01*
X3635738Y20491020D01*
X3635730Y20491019D01*
X3633094Y20490881D01*
X3465386Y20464319D01*
X3272812Y20433819D01*
X3272804Y20433817D01*
X3270207Y20433406D01*
X3123589Y20394120D01*
X2917852Y20338993D01*
X2917844Y20338990D01*
X2915316Y20338313D01*
X2912865Y20337372D01*
X2702660Y20256682D01*
X2666608Y20250000D01*
X791670Y20250000D01*
X732539Y20269213D01*
X720535Y20279465D01*
X334765Y20665235D01*
X306539Y20720633D01*
X305300Y20736370D01*
X305300Y21732945D01*
X1632535Y21732945D01*
X1634619Y21701149D01*
X1636053Y21692095D01*
X1683729Y21504370D01*
X1686798Y21495705D01*
X1767879Y21319828D01*
X1772476Y21311866D01*
X1884251Y21153707D01*
X1890224Y21146714D01*
X2028946Y21011577D01*
X2036092Y21005790D01*
X2197125Y20898191D01*
X2205200Y20893808D01*
X2383145Y20817356D01*
X2391884Y20814517D01*
X2580780Y20771774D01*
X2587318Y20770913D01*
X2599624Y20774383D01*
X2602278Y20777750D01*
X2602500Y20778991D01*
X2602500Y20788795D01*
X2857500Y20788795D01*
X2861688Y20775905D01*
X2862878Y20775041D01*
X2868953Y20774523D01*
X2984266Y20791242D01*
X2993195Y20793386D01*
X3176597Y20855644D01*
X3184982Y20859377D01*
X3353967Y20954013D01*
X3361537Y20959216D01*
X3510444Y21083059D01*
X3516941Y21089556D01*
X3640784Y21238463D01*
X3645987Y21246033D01*
X3740623Y21415018D01*
X3744356Y21423403D01*
X3806614Y21606805D01*
X3808758Y21615734D01*
X3824852Y21726732D01*
X3822557Y21740089D01*
X3821503Y21741115D01*
X3815563Y21742500D01*
X2873433Y21742500D01*
X2860543Y21738312D01*
X2857500Y21734123D01*
X2857500Y20788795D01*
X2602500Y20788795D01*
X2602500Y21726567D01*
X2598312Y21739457D01*
X2594123Y21742500D01*
X1647842Y21742500D01*
X1634952Y21738312D01*
X1632843Y21735409D01*
X1632535Y21732945D01*
X305300Y21732945D01*
X305300Y22013323D01*
X1635178Y22013323D01*
X1637822Y22000030D01*
X1639421Y21998552D01*
X1644214Y21997500D01*
X2586567Y21997500D01*
X2599457Y22001688D01*
X2602500Y22005877D01*
X2602500Y22013433D01*
X2857500Y22013433D01*
X2861688Y22000543D01*
X2865877Y21997500D01*
X3811081Y21997500D01*
X3823971Y22001688D01*
X3825666Y22004021D01*
X3826077Y22007699D01*
X3820586Y22067462D01*
X3818913Y22076485D01*
X3766340Y22262897D01*
X3763049Y22271470D01*
X3677387Y22445176D01*
X3672592Y22453000D01*
X3556705Y22608191D01*
X3550560Y22615016D01*
X3408340Y22746483D01*
X3401051Y22752077D01*
X3237254Y22855424D01*
X3229067Y22859596D01*
X3049182Y22931362D01*
X3040371Y22933972D01*
X2873129Y22967238D01*
X2859667Y22965645D01*
X2859633Y22965614D01*
X2857500Y22957439D01*
X2857500Y22013433D01*
X2602500Y22013433D01*
X2602500Y22952418D01*
X2598312Y22965308D01*
X2597697Y22965755D01*
X2590437Y22966278D01*
X2447585Y22941732D01*
X2438713Y22939355D01*
X2257010Y22872321D01*
X2248711Y22868362D01*
X2082269Y22769340D01*
X2074837Y22763940D01*
X1929223Y22636240D01*
X1922902Y22629579D01*
X1802995Y22477478D01*
X1797995Y22469779D01*
X1707813Y22298372D01*
X1704300Y22289890D01*
X1646864Y22104918D01*
X1644957Y22095944D01*
X1635178Y22013323D01*
X305300Y22013323D01*
X305300Y24272945D01*
X1632535Y24272945D01*
X1634619Y24241149D01*
X1636053Y24232095D01*
X1683729Y24044370D01*
X1686798Y24035705D01*
X1767879Y23859828D01*
X1772476Y23851866D01*
X1884251Y23693707D01*
X1890224Y23686714D01*
X2028946Y23551577D01*
X2036092Y23545790D01*
X2197125Y23438191D01*
X2205200Y23433808D01*
X2383145Y23357356D01*
X2391884Y23354517D01*
X2580780Y23311774D01*
X2587318Y23310913D01*
X2599624Y23314383D01*
X2602278Y23317750D01*
X2602500Y23318991D01*
X2602500Y23328795D01*
X2857500Y23328795D01*
X2861688Y23315905D01*
X2862878Y23315041D01*
X2868953Y23314523D01*
X2984266Y23331242D01*
X2993195Y23333386D01*
X3176597Y23395644D01*
X3184982Y23399377D01*
X3353967Y23494013D01*
X3361537Y23499216D01*
X3510444Y23623059D01*
X3516941Y23629556D01*
X3640784Y23778463D01*
X3645987Y23786033D01*
X3740623Y23955018D01*
X3744356Y23963403D01*
X3806614Y24146805D01*
X3808758Y24155734D01*
X3824852Y24266732D01*
X3822557Y24280089D01*
X3821503Y24281115D01*
X3815563Y24282500D01*
X2873433Y24282500D01*
X2860543Y24278312D01*
X2857500Y24274123D01*
X2857500Y23328795D01*
X2602500Y23328795D01*
X2602500Y24266567D01*
X2598312Y24279457D01*
X2594123Y24282500D01*
X1647842Y24282500D01*
X1634952Y24278312D01*
X1632843Y24275409D01*
X1632535Y24272945D01*
X305300Y24272945D01*
X305300Y24553323D01*
X1635178Y24553323D01*
X1637822Y24540030D01*
X1639421Y24538552D01*
X1644214Y24537500D01*
X2586567Y24537500D01*
X2599457Y24541688D01*
X2602500Y24545877D01*
X2602500Y24553433D01*
X2857500Y24553433D01*
X2861688Y24540543D01*
X2865877Y24537500D01*
X3811081Y24537500D01*
X3823971Y24541688D01*
X3825666Y24544021D01*
X3826077Y24547699D01*
X3820586Y24607462D01*
X3818913Y24616485D01*
X3766340Y24802897D01*
X3763049Y24811470D01*
X3677387Y24985176D01*
X3672592Y24993000D01*
X3556705Y25148191D01*
X3550560Y25155016D01*
X3408340Y25286483D01*
X3401051Y25292077D01*
X3237254Y25395424D01*
X3229067Y25399596D01*
X3049182Y25471362D01*
X3040371Y25473972D01*
X2873129Y25507238D01*
X2859667Y25505645D01*
X2859633Y25505614D01*
X2857500Y25497439D01*
X2857500Y24553433D01*
X2602500Y24553433D01*
X2602500Y25492418D01*
X2598312Y25505308D01*
X2597697Y25505755D01*
X2590437Y25506278D01*
X2447585Y25481732D01*
X2438713Y25479355D01*
X2257010Y25412321D01*
X2248711Y25408362D01*
X2082269Y25309340D01*
X2074837Y25303940D01*
X1929223Y25176240D01*
X1922902Y25169579D01*
X1802995Y25017478D01*
X1797995Y25009779D01*
X1707813Y24838372D01*
X1704300Y24829890D01*
X1646864Y24644918D01*
X1644957Y24635944D01*
X1635178Y24553323D01*
X305300Y24553323D01*
X305300Y34013630D01*
X324513Y34072761D01*
X334765Y34084765D01*
X720535Y34470535D01*
X775933Y34498761D01*
X791670Y34500000D01*
X1708330Y34500000D01*
X1767461Y34480787D01*
G37*
%TD.AperFunction*%
%TD*%
%TA.AperFunction,Conductor*%
%TO.N,+12V*%
G36*
X6617461Y71480787D02*
G01*
X6629465Y71470535D01*
X7070535Y71029465D01*
X7098761Y70974067D01*
X7100000Y70958330D01*
X7100000Y69505900D01*
X7080787Y69446769D01*
X7030487Y69410224D01*
X6999400Y69405300D01*
X6504642Y69405300D01*
X6501694Y69404949D01*
X6501689Y69404949D01*
X6485518Y69403025D01*
X6485517Y69403025D01*
X6478022Y69402133D01*
X6374081Y69355964D01*
X6293730Y69275472D01*
X6289975Y69266978D01*
X6253362Y69184162D01*
X6247742Y69171451D01*
X6244700Y69145358D01*
X6244700Y68254642D01*
X6245051Y68251694D01*
X6245051Y68251689D01*
X6246975Y68235518D01*
X6247867Y68228022D01*
X6294036Y68124081D01*
X6374528Y68043730D01*
X6417344Y68024801D01*
X6471629Y68000801D01*
X6471631Y68000800D01*
X6478549Y67997742D01*
X6491185Y67996269D01*
X6501730Y67995039D01*
X6501738Y67995039D01*
X6504642Y67994700D01*
X7102265Y67994700D01*
X7161396Y67975487D01*
X7173400Y67965235D01*
X7512900Y67625735D01*
X7541126Y67570337D01*
X7531400Y67508929D01*
X7487436Y67464965D01*
X7441765Y67454000D01*
X7143433Y67454000D01*
X7130543Y67449812D01*
X7127500Y67445623D01*
X7127500Y66161934D01*
X7131688Y66149044D01*
X7135877Y66146001D01*
X7467100Y66146001D01*
X7526231Y66126788D01*
X7562776Y66076488D01*
X7567700Y66045401D01*
X7567700Y65031634D01*
X7567003Y65019810D01*
X7563033Y64986267D01*
X7564384Y64978870D01*
X7573205Y64930568D01*
X7573723Y64927456D01*
X7582144Y64871451D01*
X7585143Y64865205D01*
X7586388Y64858389D01*
X7612507Y64808107D01*
X7613881Y64805356D01*
X7638414Y64754267D01*
X7642511Y64749836D01*
X7643674Y64748109D01*
X7646312Y64743030D01*
X7650442Y64738193D01*
X7686479Y64702156D01*
X7689216Y64699310D01*
X7726655Y64658809D01*
X7732533Y64655395D01*
X7739313Y64649322D01*
X8038235Y64350400D01*
X8066461Y64295002D01*
X8067700Y64279265D01*
X8067700Y60031634D01*
X8067003Y60019810D01*
X8063033Y59986267D01*
X8065728Y59971512D01*
X8066063Y59969676D01*
X8067700Y59951602D01*
X8067700Y59811059D01*
X8066336Y59799133D01*
X8066453Y59799124D01*
X8065863Y59791626D01*
X8064165Y59784301D01*
X8064696Y59776801D01*
X8064696Y59776800D01*
X8067449Y59737919D01*
X8067700Y59730814D01*
X8067700Y58909370D01*
X8048487Y58850239D01*
X8038235Y58838235D01*
X6929465Y57729465D01*
X6874067Y57701239D01*
X6858330Y57700000D01*
X6780500Y57700000D01*
X6721369Y57719213D01*
X6709365Y57729465D01*
X6548880Y57889950D01*
X6532104Y57905458D01*
X6531676Y57905854D01*
X6531657Y57905871D01*
X6530984Y57906493D01*
X6528987Y57908199D01*
X6522734Y57913539D01*
X6522733Y57913539D01*
X6518980Y57916745D01*
X6514675Y57919156D01*
X6514672Y57919158D01*
X6453111Y57953633D01*
X6413350Y57975900D01*
X6354219Y57995113D01*
X6300629Y58003601D01*
X6245235Y58031826D01*
X6217008Y58087223D01*
X6228596Y58152116D01*
X6280623Y58245018D01*
X6284356Y58253403D01*
X6346614Y58436805D01*
X6348758Y58445734D01*
X6364852Y58556732D01*
X6362557Y58570089D01*
X6361503Y58571115D01*
X6355563Y58572500D01*
X4187842Y58572500D01*
X4174952Y58568312D01*
X4172843Y58565409D01*
X4172535Y58562945D01*
X4174619Y58531149D01*
X4176053Y58522095D01*
X4223729Y58334370D01*
X4226798Y58325705D01*
X4306409Y58153017D01*
X4313717Y58091274D01*
X4283338Y58037027D01*
X4226875Y58010997D01*
X4215050Y58010300D01*
X3780815Y58010300D01*
X3721684Y58029513D01*
X3685139Y58079813D01*
X3685139Y58141987D01*
X3693042Y58160055D01*
X3740623Y58245018D01*
X3744356Y58253403D01*
X3806614Y58436805D01*
X3808758Y58445734D01*
X3824852Y58556732D01*
X3822557Y58570089D01*
X3821503Y58571115D01*
X3815563Y58572500D01*
X1647842Y58572500D01*
X1634952Y58568312D01*
X1632843Y58565409D01*
X1632535Y58562945D01*
X1634619Y58531149D01*
X1636053Y58522095D01*
X1683729Y58334370D01*
X1686798Y58325705D01*
X1766409Y58153017D01*
X1773717Y58091274D01*
X1743338Y58037027D01*
X1686875Y58010997D01*
X1675050Y58010300D01*
X405900Y58010300D01*
X346769Y58029513D01*
X310224Y58079813D01*
X305300Y58110900D01*
X305300Y58843323D01*
X1635178Y58843323D01*
X1637822Y58830030D01*
X1639421Y58828552D01*
X1644214Y58827500D01*
X2586567Y58827500D01*
X2599457Y58831688D01*
X2602500Y58835877D01*
X2602500Y58843433D01*
X2857500Y58843433D01*
X2861688Y58830543D01*
X2865877Y58827500D01*
X3811081Y58827500D01*
X3823971Y58831688D01*
X3825666Y58834021D01*
X3826077Y58837699D01*
X3825560Y58843323D01*
X4175178Y58843323D01*
X4177822Y58830030D01*
X4179421Y58828552D01*
X4184214Y58827500D01*
X5126567Y58827500D01*
X5139457Y58831688D01*
X5142500Y58835877D01*
X5142500Y58843433D01*
X5397500Y58843433D01*
X5401688Y58830543D01*
X5405877Y58827500D01*
X6351081Y58827500D01*
X6363971Y58831688D01*
X6365666Y58834021D01*
X6366077Y58837699D01*
X6360586Y58897462D01*
X6358913Y58906485D01*
X6306340Y59092897D01*
X6303049Y59101470D01*
X6217387Y59275176D01*
X6212592Y59283000D01*
X6096705Y59438191D01*
X6090560Y59445016D01*
X5948340Y59576483D01*
X5941051Y59582077D01*
X5777254Y59685424D01*
X5769067Y59689596D01*
X5589182Y59761362D01*
X5580371Y59763972D01*
X5413129Y59797238D01*
X5399667Y59795645D01*
X5399633Y59795614D01*
X5397500Y59787439D01*
X5397500Y58843433D01*
X5142500Y58843433D01*
X5142500Y59782418D01*
X5138312Y59795308D01*
X5137697Y59795755D01*
X5130437Y59796278D01*
X4987585Y59771732D01*
X4978713Y59769355D01*
X4797010Y59702321D01*
X4788711Y59698362D01*
X4622269Y59599340D01*
X4614837Y59593940D01*
X4469223Y59466240D01*
X4462902Y59459579D01*
X4342995Y59307478D01*
X4337995Y59299779D01*
X4247813Y59128372D01*
X4244300Y59119890D01*
X4186864Y58934918D01*
X4184957Y58925944D01*
X4175178Y58843323D01*
X3825560Y58843323D01*
X3820586Y58897462D01*
X3818913Y58906485D01*
X3766340Y59092897D01*
X3763049Y59101470D01*
X3677387Y59275176D01*
X3672592Y59283000D01*
X3556705Y59438191D01*
X3550560Y59445016D01*
X3408340Y59576483D01*
X3401051Y59582077D01*
X3237254Y59685424D01*
X3229067Y59689596D01*
X3049182Y59761362D01*
X3040371Y59763972D01*
X2873129Y59797238D01*
X2859667Y59795645D01*
X2859633Y59795614D01*
X2857500Y59787439D01*
X2857500Y58843433D01*
X2602500Y58843433D01*
X2602500Y59782418D01*
X2598312Y59795308D01*
X2597697Y59795755D01*
X2590437Y59796278D01*
X2447585Y59771732D01*
X2438713Y59769355D01*
X2257010Y59702321D01*
X2248711Y59698362D01*
X2082269Y59599340D01*
X2074837Y59593940D01*
X1929223Y59466240D01*
X1922902Y59459579D01*
X1802995Y59307478D01*
X1797995Y59299779D01*
X1707813Y59128372D01*
X1704300Y59119890D01*
X1646864Y58934918D01*
X1644957Y58925944D01*
X1635178Y58843323D01*
X305300Y58843323D01*
X305300Y60344642D01*
X1574700Y60344642D01*
X1577867Y60318022D01*
X1594065Y60281555D01*
X1620065Y60223022D01*
X1624036Y60214081D01*
X1704528Y60133730D01*
X1747344Y60114801D01*
X1801629Y60090801D01*
X1801631Y60090800D01*
X1808549Y60087742D01*
X1821185Y60086269D01*
X1831730Y60085039D01*
X1831738Y60085039D01*
X1834642Y60084700D01*
X3625358Y60084700D01*
X3628306Y60085051D01*
X3628311Y60085051D01*
X3644482Y60086975D01*
X3644483Y60086975D01*
X3651978Y60087867D01*
X3726985Y60121184D01*
X3747432Y60130266D01*
X3747433Y60130267D01*
X3755919Y60134036D01*
X3836270Y60214528D01*
X3882258Y60318549D01*
X3885300Y60344642D01*
X3885300Y61270372D01*
X4110149Y61270372D01*
X4124036Y61058497D01*
X4125168Y61054039D01*
X4125169Y61054034D01*
X4146728Y60969145D01*
X4176301Y60852701D01*
X4265195Y60659876D01*
X4387740Y60486479D01*
X4539832Y60338317D01*
X4543665Y60335756D01*
X4543666Y60335755D01*
X4712542Y60222915D01*
X4712546Y60222913D01*
X4716377Y60220353D01*
X4804920Y60182312D01*
X4902728Y60140291D01*
X4911463Y60136538D01*
X5118557Y60089677D01*
X5224640Y60085509D01*
X5326114Y60081522D01*
X5326115Y60081522D01*
X5330723Y60081341D01*
X5335280Y60082002D01*
X5335285Y60082002D01*
X5536293Y60111147D01*
X5536299Y60111148D01*
X5540855Y60111809D01*
X5545218Y60113290D01*
X5545222Y60113291D01*
X5737553Y60178579D01*
X5741916Y60180060D01*
X5927172Y60283808D01*
X5960013Y60311121D01*
X6086873Y60416630D01*
X6090420Y60419580D01*
X6097120Y60427636D01*
X6223244Y60579283D01*
X6223246Y60579285D01*
X6226192Y60582828D01*
X6329940Y60768084D01*
X6398191Y60969145D01*
X6398852Y60973701D01*
X6398853Y60973707D01*
X6428234Y61176345D01*
X6428234Y61176347D01*
X6428659Y61179277D01*
X6430249Y61240000D01*
X6410821Y61451439D01*
X6353186Y61655796D01*
X6341445Y61679605D01*
X6261318Y61842086D01*
X6261316Y61842089D01*
X6259275Y61846228D01*
X6237389Y61875537D01*
X6134996Y62012659D01*
X6134991Y62012664D01*
X6132233Y62016358D01*
X5976315Y62160487D01*
X5972419Y62162945D01*
X5972414Y62162949D01*
X5886528Y62217138D01*
X5796742Y62273789D01*
X5599529Y62352470D01*
X5391279Y62393893D01*
X5283787Y62395300D01*
X5183582Y62396612D01*
X5183578Y62396612D01*
X5178968Y62396672D01*
X5169011Y62394961D01*
X4974253Y62361496D01*
X4974248Y62361495D01*
X4969705Y62360714D01*
X4930553Y62346270D01*
X4774831Y62288822D01*
X4774829Y62288821D01*
X4770500Y62287224D01*
X4720424Y62257432D01*
X4591987Y62181020D01*
X4591982Y62181016D01*
X4588023Y62178661D01*
X4584557Y62175622D01*
X4584555Y62175620D01*
X4431852Y62041704D01*
X4431849Y62041701D01*
X4428385Y62038663D01*
X4296933Y61871917D01*
X4198070Y61684008D01*
X4135105Y61481229D01*
X4110149Y61270372D01*
X3885300Y61270372D01*
X3885300Y62135358D01*
X3882133Y62161978D01*
X3848816Y62236985D01*
X3839734Y62257432D01*
X3839733Y62257433D01*
X3835964Y62265919D01*
X3755472Y62346270D01*
X3712656Y62365199D01*
X3658371Y62389199D01*
X3658369Y62389200D01*
X3651451Y62392258D01*
X3637427Y62393893D01*
X3628270Y62394961D01*
X3628262Y62394961D01*
X3625358Y62395300D01*
X1834642Y62395300D01*
X1831694Y62394949D01*
X1831689Y62394949D01*
X1815518Y62393025D01*
X1815517Y62393025D01*
X1808022Y62392133D01*
X1737288Y62360714D01*
X1713224Y62350025D01*
X1704081Y62345964D01*
X1623730Y62265472D01*
X1619975Y62256978D01*
X1585351Y62178661D01*
X1577742Y62161451D01*
X1574700Y62135358D01*
X1574700Y60344642D01*
X305300Y60344642D01*
X305300Y66379922D01*
X6296001Y66379922D01*
X6296965Y66370139D01*
X6308804Y66310614D01*
X6316242Y66292655D01*
X6361371Y66225115D01*
X6375115Y66211371D01*
X6442657Y66166241D01*
X6460611Y66158804D01*
X6520131Y66146965D01*
X6529930Y66146000D01*
X6856567Y66146000D01*
X6869457Y66150188D01*
X6872500Y66154377D01*
X6872500Y66656567D01*
X6868312Y66669457D01*
X6864123Y66672500D01*
X6311934Y66672500D01*
X6299044Y66668312D01*
X6296001Y66664123D01*
X6296001Y66379922D01*
X305300Y66379922D01*
X305300Y66943433D01*
X6296000Y66943433D01*
X6300188Y66930543D01*
X6304377Y66927500D01*
X6856567Y66927500D01*
X6869457Y66931688D01*
X6872500Y66935877D01*
X6872500Y67438066D01*
X6868312Y67450956D01*
X6864123Y67453999D01*
X6529922Y67453999D01*
X6520139Y67453035D01*
X6460614Y67441196D01*
X6442655Y67433758D01*
X6375115Y67388629D01*
X6361371Y67374885D01*
X6316241Y67307343D01*
X6308804Y67289389D01*
X6296965Y67229869D01*
X6296000Y67220070D01*
X6296000Y66943433D01*
X305300Y66943433D01*
X305300Y69430563D01*
X324513Y69489694D01*
X374813Y69526239D01*
X436987Y69526239D01*
X487287Y69489694D01*
X501127Y69459466D01*
X501657Y69459660D01*
X549579Y69328707D01*
X552404Y69320986D01*
X634765Y69198420D01*
X743985Y69099038D01*
X749312Y69096146D01*
X749313Y69096145D01*
X777898Y69080625D01*
X873758Y69028577D01*
X879628Y69027037D01*
X1010725Y68992644D01*
X1010726Y68992644D01*
X1016592Y68991105D01*
X1085717Y68990019D01*
X1158177Y68988881D01*
X1158179Y68988881D01*
X1164241Y68988786D01*
X1170152Y68990140D01*
X1170154Y68990140D01*
X1302272Y69020399D01*
X1302275Y69020400D01*
X1308182Y69021753D01*
X1328636Y69032040D01*
X1390093Y69041445D01*
X1445342Y69012929D01*
X1473278Y68957385D01*
X1473708Y68930086D01*
X1469700Y68896965D01*
X1469701Y68303036D01*
X1470064Y68300040D01*
X1470064Y68300032D01*
X1475657Y68253808D01*
X1480042Y68217571D01*
X1502035Y68162024D01*
X1518239Y68121098D01*
X1532898Y68084073D01*
X1619707Y67969707D01*
X1625169Y67965561D01*
X1728609Y67887045D01*
X1728611Y67887044D01*
X1734073Y67882898D01*
X1740450Y67880373D01*
X1740452Y67880372D01*
X1844440Y67839200D01*
X1867571Y67830042D01*
X1873988Y67829265D01*
X1873990Y67829265D01*
X1903908Y67825645D01*
X1953035Y67819700D01*
X2212242Y67819700D01*
X2471964Y67819701D01*
X2474960Y67820064D01*
X2474968Y67820064D01*
X2551016Y67829266D01*
X2557429Y67830042D01*
X2612976Y67852035D01*
X2684548Y67880372D01*
X2684550Y67880373D01*
X2690927Y67882898D01*
X2696389Y67887044D01*
X2696391Y67887045D01*
X2799831Y67965561D01*
X2805293Y67969707D01*
X2892102Y68084073D01*
X2894628Y68090452D01*
X2934217Y68190441D01*
X2973848Y68238347D01*
X3034069Y68253808D01*
X3091877Y68230920D01*
X3121951Y68188719D01*
X3147299Y68121100D01*
X3154112Y68108656D01*
X3226729Y68011764D01*
X3236764Y68001729D01*
X3333656Y67929112D01*
X3346098Y67922300D01*
X3460291Y67879492D01*
X3472453Y67876601D01*
X3521305Y67871293D01*
X3526725Y67871000D01*
X3644067Y67871000D01*
X3656957Y67875188D01*
X3660000Y67879377D01*
X3660000Y67886934D01*
X3915000Y67886934D01*
X3919188Y67874044D01*
X3923377Y67871001D01*
X4048273Y67871001D01*
X4053697Y67871295D01*
X4102541Y67876600D01*
X4114714Y67879494D01*
X4228902Y67922300D01*
X4241344Y67929112D01*
X4338236Y68001729D01*
X4348271Y68011764D01*
X4420888Y68108656D01*
X4427700Y68121098D01*
X4470508Y68235291D01*
X4473399Y68247453D01*
X4478707Y68296305D01*
X4479000Y68301725D01*
X4479000Y68456567D01*
X4474812Y68469457D01*
X4470623Y68472500D01*
X3930933Y68472500D01*
X3918043Y68468312D01*
X3915000Y68464123D01*
X3915000Y67886934D01*
X3660000Y67886934D01*
X3660000Y68743433D01*
X3915000Y68743433D01*
X3919188Y68730543D01*
X3923377Y68727500D01*
X4463066Y68727500D01*
X4475956Y68731688D01*
X4478999Y68735877D01*
X4478999Y68898273D01*
X4478705Y68903697D01*
X4473400Y68952541D01*
X4470506Y68964714D01*
X4427700Y69078902D01*
X4420888Y69091344D01*
X4348271Y69188236D01*
X4338236Y69198271D01*
X4241344Y69270888D01*
X4228902Y69277700D01*
X4114709Y69320508D01*
X4102547Y69323399D01*
X4053695Y69328707D01*
X4048275Y69329000D01*
X3930933Y69329000D01*
X3918043Y69324812D01*
X3915000Y69320623D01*
X3915000Y68743433D01*
X3660000Y68743433D01*
X3660000Y69313066D01*
X3655812Y69325956D01*
X3651623Y69328999D01*
X3526727Y69328999D01*
X3521303Y69328705D01*
X3503816Y69326806D01*
X3442956Y69339522D01*
X3401193Y69385581D01*
X3394479Y69447392D01*
X3421818Y69497953D01*
X3493478Y69569613D01*
X3548876Y69597839D01*
X3576694Y69598350D01*
X3606856Y69594700D01*
X4218144Y69594700D01*
X4308703Y69605659D01*
X4314707Y69608036D01*
X4443788Y69659142D01*
X4443790Y69659143D01*
X4450162Y69661666D01*
X4490139Y69692010D01*
X4565886Y69749506D01*
X4571348Y69753652D01*
X4663334Y69874838D01*
X4715372Y70006271D01*
X4716964Y70010293D01*
X4716964Y70010294D01*
X4719341Y70016297D01*
X4730300Y70106856D01*
X4730300Y71093144D01*
X4719341Y71183703D01*
X4663334Y71325162D01*
X4653152Y71338576D01*
X4632704Y71397291D01*
X4650673Y71456812D01*
X4700196Y71494404D01*
X4733282Y71500000D01*
X6558330Y71500000D01*
X6617461Y71480787D01*
G37*
%TD.AperFunction*%
%TD*%
%TA.AperFunction,Conductor*%
%TO.N,/REG_VIN*%
G36*
X2168067Y57684344D02*
G01*
X2168487Y57685117D01*
X2172247Y57683075D01*
X2172349Y57683045D01*
X2176377Y57680353D01*
X2371463Y57596538D01*
X2578557Y57549677D01*
X2684640Y57545509D01*
X2786114Y57541522D01*
X2786115Y57541522D01*
X2790723Y57541341D01*
X2795280Y57542002D01*
X2795285Y57542002D01*
X2996293Y57571147D01*
X2996299Y57571148D01*
X3000855Y57571809D01*
X3005218Y57573290D01*
X3005222Y57573291D01*
X3197553Y57638579D01*
X3201916Y57640060D01*
X3244405Y57663855D01*
X3286043Y57687173D01*
X3335198Y57700000D01*
X4656457Y57700000D01*
X4708067Y57684344D01*
X4708487Y57685117D01*
X4712247Y57683075D01*
X4712349Y57683045D01*
X4716377Y57680353D01*
X4911463Y57596538D01*
X5118557Y57549677D01*
X5224640Y57545509D01*
X5326114Y57541522D01*
X5326115Y57541522D01*
X5330723Y57541341D01*
X5335280Y57542002D01*
X5335285Y57542002D01*
X5536293Y57571147D01*
X5536299Y57571148D01*
X5540855Y57571809D01*
X5545218Y57573290D01*
X5545222Y57573291D01*
X5737553Y57638579D01*
X5741916Y57640060D01*
X5784405Y57663855D01*
X5826043Y57687173D01*
X5875198Y57700000D01*
X6258330Y57700000D01*
X6317461Y57680787D01*
X6329465Y57670535D01*
X8500000Y55500000D01*
X10958330Y55500000D01*
X11017461Y55480787D01*
X11029465Y55470535D01*
X11470535Y55029465D01*
X11498761Y54974067D01*
X11500000Y54958330D01*
X11500000Y26041670D01*
X11480787Y25982539D01*
X11470535Y25970535D01*
X10300000Y24800000D01*
X10300000Y9773040D01*
X10280787Y9713909D01*
X10270535Y9701905D01*
X9730395Y9161765D01*
X9674997Y9133539D01*
X9659260Y9132300D01*
X6909370Y9132300D01*
X6850239Y9151513D01*
X6838235Y9161765D01*
X6529465Y9470535D01*
X6501239Y9525933D01*
X6500000Y9541670D01*
X6500000Y10224539D01*
X6710775Y10224539D01*
X6710875Y10223907D01*
X6715779Y10218266D01*
X6867008Y10112374D01*
X6874587Y10107999D01*
X7065482Y10018983D01*
X7073715Y10015986D01*
X7277165Y9961472D01*
X7285794Y9959951D01*
X7495622Y9941593D01*
X7504378Y9941593D01*
X7714206Y9959951D01*
X7722835Y9961472D01*
X7926285Y10015986D01*
X7934518Y10018983D01*
X8125413Y10107999D01*
X8132992Y10112374D01*
X8281287Y10216212D01*
X8289442Y10227034D01*
X8289454Y10227676D01*
X8285602Y10234086D01*
X7511268Y11008420D01*
X7499189Y11014575D01*
X7494077Y11013765D01*
X6716930Y10236618D01*
X6710775Y10224539D01*
X6500000Y10224539D01*
X6500000Y10338642D01*
X6519213Y10397773D01*
X6529465Y10409777D01*
X7308420Y11188732D01*
X7313748Y11199189D01*
X7685425Y11199189D01*
X7686235Y11194077D01*
X8463382Y10416930D01*
X8475461Y10410775D01*
X8476093Y10410875D01*
X8481734Y10415779D01*
X8587626Y10567008D01*
X8592001Y10574587D01*
X8681017Y10765482D01*
X8684014Y10773715D01*
X8738528Y10977165D01*
X8740049Y10985794D01*
X8758407Y11195622D01*
X8758407Y11204378D01*
X8740049Y11414206D01*
X8738528Y11422835D01*
X8684014Y11626285D01*
X8681017Y11634518D01*
X8592001Y11825413D01*
X8587626Y11832992D01*
X8483788Y11981287D01*
X8472966Y11989442D01*
X8472324Y11989454D01*
X8465914Y11985602D01*
X7691580Y11211268D01*
X7685425Y11199189D01*
X7313748Y11199189D01*
X7314575Y11200811D01*
X7313765Y11205923D01*
X6529465Y11990223D01*
X6501239Y12045621D01*
X6500000Y12061358D01*
X6500000Y12172324D01*
X6710546Y12172324D01*
X6714398Y12165914D01*
X7488732Y11391580D01*
X7500811Y11385425D01*
X7505923Y11386235D01*
X8283070Y12163382D01*
X8289225Y12175461D01*
X8289125Y12176093D01*
X8284221Y12181734D01*
X8132992Y12287626D01*
X8125413Y12292001D01*
X7934518Y12381017D01*
X7926285Y12384014D01*
X7722835Y12438528D01*
X7714206Y12440049D01*
X7504378Y12458407D01*
X7495622Y12458407D01*
X7285794Y12440049D01*
X7277165Y12438528D01*
X7073715Y12384014D01*
X7065482Y12381017D01*
X6874587Y12292001D01*
X6867008Y12287626D01*
X6718713Y12183788D01*
X6710558Y12172966D01*
X6710546Y12172324D01*
X6500000Y12172324D01*
X6500000Y14501088D01*
X6519213Y14560219D01*
X6529465Y14572223D01*
X6608520Y14651278D01*
X6839739Y14936809D01*
X6841171Y14939014D01*
X6841176Y14939021D01*
X7038407Y15242731D01*
X7038413Y15242742D01*
X7039844Y15244945D01*
X7206645Y15572310D01*
X7338313Y15915316D01*
X7433406Y16270207D01*
X7490881Y16633094D01*
X7493094Y16675310D01*
X7509972Y16997367D01*
X7510110Y17000000D01*
X7490881Y17366906D01*
X7433406Y17729793D01*
X7338313Y18084684D01*
X7206645Y18427690D01*
X7039844Y18755055D01*
X7038413Y18757258D01*
X7038407Y18757269D01*
X6841176Y19060979D01*
X6841171Y19060986D01*
X6839739Y19063191D01*
X6608520Y19348722D01*
X6529465Y19427777D01*
X6501239Y19483175D01*
X6500000Y19498912D01*
X6500000Y28016812D01*
X6519213Y28075943D01*
X6569513Y28112488D01*
X6578142Y28114873D01*
X6602270Y28120399D01*
X6608182Y28121753D01*
X6626143Y28130787D01*
X6734685Y28185376D01*
X6734688Y28185378D01*
X6740104Y28188102D01*
X6802725Y28241585D01*
X6847782Y28280068D01*
X6847784Y28280070D01*
X6852391Y28284005D01*
X6886405Y28331341D01*
X6935024Y28399000D01*
X6935026Y28399003D01*
X6938561Y28403923D01*
X6993640Y28540935D01*
X6994494Y28546935D01*
X6994495Y28546939D01*
X7013981Y28683865D01*
X7014446Y28687129D01*
X7014581Y28700000D01*
X7001068Y28811673D01*
X6997570Y28840576D01*
X6997569Y28840578D01*
X6996841Y28846598D01*
X6944644Y28984733D01*
X6861004Y29106430D01*
X6750750Y29204663D01*
X6745394Y29207499D01*
X6745391Y29207501D01*
X6625608Y29270922D01*
X6620246Y29273761D01*
X6591897Y29280882D01*
X6576092Y29284852D01*
X6523423Y29317892D01*
X6500233Y29375579D01*
X6500000Y29382421D01*
X6500000Y48073888D01*
X6503428Y48099925D01*
X6514936Y48142873D01*
X6517575Y48151243D01*
X6534138Y48196750D01*
X6535639Y48200873D01*
X6544812Y48252895D01*
X6546711Y48261458D01*
X6559242Y48308224D01*
X6560380Y48312471D01*
X6564983Y48365083D01*
X6566128Y48373784D01*
X6574538Y48421483D01*
X6575300Y48425802D01*
X6575300Y48478619D01*
X6575683Y48487387D01*
X6579903Y48535622D01*
X6580286Y48540000D01*
X6575683Y48592613D01*
X6575300Y48601381D01*
X6575300Y48654198D01*
X6566128Y48706216D01*
X6564983Y48714917D01*
X6560763Y48763149D01*
X6560380Y48767529D01*
X6546710Y48818547D01*
X6544811Y48827110D01*
X6536401Y48874808D01*
X6536400Y48874813D01*
X6535639Y48879127D01*
X6517574Y48928759D01*
X6514936Y48937127D01*
X6503428Y48980075D01*
X6500000Y49006112D01*
X6500000Y54000000D01*
X6221660Y54278340D01*
X6212189Y54289284D01*
X6134996Y54392658D01*
X6134996Y54392659D01*
X6132233Y54396358D01*
X5976315Y54540487D01*
X5972413Y54542949D01*
X5972409Y54542952D01*
X5940294Y54563215D01*
X5922840Y54577160D01*
X5800000Y54700000D01*
X5700241Y54700000D01*
X5662964Y54707162D01*
X5599529Y54732470D01*
X5391279Y54773893D01*
X5285123Y54775283D01*
X5183582Y54776612D01*
X5183578Y54776612D01*
X5178968Y54776672D01*
X5174423Y54775891D01*
X4974253Y54741496D01*
X4974248Y54741495D01*
X4969705Y54740714D01*
X4911424Y54719213D01*
X4876199Y54706218D01*
X4841380Y54700000D01*
X3160241Y54700000D01*
X3122964Y54707162D01*
X3059529Y54732470D01*
X2851279Y54773893D01*
X2745123Y54775283D01*
X2643582Y54776612D01*
X2643578Y54776612D01*
X2638968Y54776672D01*
X2634423Y54775891D01*
X2434253Y54741496D01*
X2434248Y54741495D01*
X2429705Y54740714D01*
X2371424Y54719213D01*
X2336199Y54706218D01*
X2301380Y54700000D01*
X841670Y54700000D01*
X782539Y54719213D01*
X770535Y54729465D01*
X334765Y55165235D01*
X306539Y55220633D01*
X305300Y55236370D01*
X305300Y56022945D01*
X1632535Y56022945D01*
X1634619Y55991149D01*
X1636053Y55982095D01*
X1683729Y55794370D01*
X1686798Y55785705D01*
X1767879Y55609828D01*
X1772476Y55601866D01*
X1884251Y55443707D01*
X1890224Y55436714D01*
X2028946Y55301577D01*
X2036092Y55295790D01*
X2197125Y55188191D01*
X2205200Y55183808D01*
X2383145Y55107356D01*
X2391884Y55104517D01*
X2580780Y55061774D01*
X2587318Y55060913D01*
X2599624Y55064383D01*
X2602278Y55067750D01*
X2602500Y55068991D01*
X2602500Y55078795D01*
X2857500Y55078795D01*
X2861688Y55065905D01*
X2862878Y55065041D01*
X2868953Y55064523D01*
X2984266Y55081242D01*
X2993195Y55083386D01*
X3176597Y55145644D01*
X3184982Y55149377D01*
X3353967Y55244013D01*
X3361537Y55249216D01*
X3510444Y55373059D01*
X3516941Y55379556D01*
X3640784Y55528463D01*
X3645987Y55536033D01*
X3740623Y55705018D01*
X3744356Y55713403D01*
X3806614Y55896805D01*
X3808758Y55905734D01*
X3824852Y56016732D01*
X3823784Y56022945D01*
X4172535Y56022945D01*
X4174619Y55991149D01*
X4176053Y55982095D01*
X4223729Y55794370D01*
X4226798Y55785705D01*
X4307879Y55609828D01*
X4312476Y55601866D01*
X4424251Y55443707D01*
X4430224Y55436714D01*
X4568946Y55301577D01*
X4576092Y55295790D01*
X4737125Y55188191D01*
X4745200Y55183808D01*
X4923145Y55107356D01*
X4931884Y55104517D01*
X5120780Y55061774D01*
X5127318Y55060913D01*
X5139624Y55064383D01*
X5142278Y55067750D01*
X5142500Y55068991D01*
X5142500Y55078795D01*
X5397500Y55078795D01*
X5401688Y55065905D01*
X5402878Y55065041D01*
X5408953Y55064523D01*
X5524266Y55081242D01*
X5533195Y55083386D01*
X5716597Y55145644D01*
X5724982Y55149377D01*
X5893967Y55244013D01*
X5901537Y55249216D01*
X6050444Y55373059D01*
X6056941Y55379556D01*
X6180784Y55528463D01*
X6185987Y55536033D01*
X6280623Y55705018D01*
X6284356Y55713403D01*
X6346614Y55896805D01*
X6348758Y55905734D01*
X6364852Y56016732D01*
X6362557Y56030089D01*
X6361503Y56031115D01*
X6355563Y56032500D01*
X5413433Y56032500D01*
X5400543Y56028312D01*
X5397500Y56024123D01*
X5397500Y55078795D01*
X5142500Y55078795D01*
X5142500Y56016567D01*
X5138312Y56029457D01*
X5134123Y56032500D01*
X4187842Y56032500D01*
X4174952Y56028312D01*
X4172843Y56025409D01*
X4172535Y56022945D01*
X3823784Y56022945D01*
X3822557Y56030089D01*
X3821503Y56031115D01*
X3815563Y56032500D01*
X2873433Y56032500D01*
X2860543Y56028312D01*
X2857500Y56024123D01*
X2857500Y55078795D01*
X2602500Y55078795D01*
X2602500Y56016567D01*
X2598312Y56029457D01*
X2594123Y56032500D01*
X1647842Y56032500D01*
X1634952Y56028312D01*
X1632843Y56025409D01*
X1632535Y56022945D01*
X305300Y56022945D01*
X305300Y56303323D01*
X1635178Y56303323D01*
X1637822Y56290030D01*
X1639421Y56288552D01*
X1644214Y56287500D01*
X2586567Y56287500D01*
X2599457Y56291688D01*
X2602500Y56295877D01*
X2602500Y56303433D01*
X2857500Y56303433D01*
X2861688Y56290543D01*
X2865877Y56287500D01*
X3811081Y56287500D01*
X3823971Y56291688D01*
X3825666Y56294021D01*
X3826077Y56297699D01*
X3825560Y56303323D01*
X4175178Y56303323D01*
X4177822Y56290030D01*
X4179421Y56288552D01*
X4184214Y56287500D01*
X5126567Y56287500D01*
X5139457Y56291688D01*
X5142500Y56295877D01*
X5142500Y56303433D01*
X5397500Y56303433D01*
X5401688Y56290543D01*
X5405877Y56287500D01*
X6351081Y56287500D01*
X6363971Y56291688D01*
X6365666Y56294021D01*
X6366077Y56297699D01*
X6360586Y56357462D01*
X6358913Y56366485D01*
X6306340Y56552897D01*
X6303049Y56561470D01*
X6217387Y56735176D01*
X6212592Y56743000D01*
X6096705Y56898191D01*
X6090560Y56905016D01*
X5948340Y57036483D01*
X5941051Y57042077D01*
X5777254Y57145424D01*
X5769067Y57149596D01*
X5589182Y57221362D01*
X5580371Y57223972D01*
X5413129Y57257238D01*
X5399667Y57255645D01*
X5399633Y57255614D01*
X5397500Y57247439D01*
X5397500Y56303433D01*
X5142500Y56303433D01*
X5142500Y57242418D01*
X5138312Y57255308D01*
X5137697Y57255755D01*
X5130437Y57256278D01*
X4987585Y57231732D01*
X4978713Y57229355D01*
X4797010Y57162321D01*
X4788711Y57158362D01*
X4622269Y57059340D01*
X4614837Y57053940D01*
X4469223Y56926240D01*
X4462902Y56919579D01*
X4342995Y56767478D01*
X4337995Y56759779D01*
X4247813Y56588372D01*
X4244300Y56579890D01*
X4186864Y56394918D01*
X4184957Y56385944D01*
X4175178Y56303323D01*
X3825560Y56303323D01*
X3820586Y56357462D01*
X3818913Y56366485D01*
X3766340Y56552897D01*
X3763049Y56561470D01*
X3677387Y56735176D01*
X3672592Y56743000D01*
X3556705Y56898191D01*
X3550560Y56905016D01*
X3408340Y57036483D01*
X3401051Y57042077D01*
X3237254Y57145424D01*
X3229067Y57149596D01*
X3049182Y57221362D01*
X3040371Y57223972D01*
X2873129Y57257238D01*
X2859667Y57255645D01*
X2859633Y57255614D01*
X2857500Y57247439D01*
X2857500Y56303433D01*
X2602500Y56303433D01*
X2602500Y57242418D01*
X2598312Y57255308D01*
X2597697Y57255755D01*
X2590437Y57256278D01*
X2447585Y57231732D01*
X2438713Y57229355D01*
X2257010Y57162321D01*
X2248711Y57158362D01*
X2082269Y57059340D01*
X2074837Y57053940D01*
X1929223Y56926240D01*
X1922902Y56919579D01*
X1802995Y56767478D01*
X1797995Y56759779D01*
X1707813Y56588372D01*
X1704300Y56579890D01*
X1646864Y56394918D01*
X1644957Y56385944D01*
X1635178Y56303323D01*
X305300Y56303323D01*
X305300Y57599400D01*
X324513Y57658531D01*
X374813Y57695076D01*
X405900Y57700000D01*
X2116457Y57700000D01*
X2168067Y57684344D01*
G37*
%TD.AperFunction*%
%TD*%
M02*
