%TF.GenerationSoftware,KiCad,Pcbnew,(6.0.5-0)*%
%TF.CreationDate,2022-07-07T14:48:36-07:00*%
%TF.ProjectId,jetson-nano-ppoe,6a657473-6f6e-42d6-9e61-6e6f2d70706f,rev?*%
%TF.SameCoordinates,PX8b3c880PY8583b00*%
%TF.FileFunction,Soldermask,Bot*%
%TF.FilePolarity,Negative*%
%FSLAX46Y46*%
G04 Gerber Fmt 4.6, Leading zero omitted, Abs format (unit mm)*
G04 Created by KiCad (PCBNEW (6.0.5-0)) date 2022-07-07 14:48:36*
%MOMM*%
%LPD*%
G01*
G04 APERTURE LIST*
G04 Aperture macros list*
%AMRoundRect*
0 Rectangle with rounded corners*
0 $1 Rounding radius*
0 $2 $3 $4 $5 $6 $7 $8 $9 X,Y pos of 4 corners*
0 Add a 4 corners polygon primitive as box body*
4,1,4,$2,$3,$4,$5,$6,$7,$8,$9,$2,$3,0*
0 Add four circle primitives for the rounded corners*
1,1,$1+$1,$2,$3*
1,1,$1+$1,$4,$5*
1,1,$1+$1,$6,$7*
1,1,$1+$1,$8,$9*
0 Add four rect primitives between the rounded corners*
20,1,$1+$1,$2,$3,$4,$5,0*
20,1,$1+$1,$4,$5,$6,$7,0*
20,1,$1+$1,$6,$7,$8,$9,0*
20,1,$1+$1,$8,$9,$2,$3,0*%
%AMFreePoly0*
4,1,16,0.535355,0.785355,0.541603,0.777735,1.041603,0.027735,1.049029,-0.009806,1.041603,-0.027735,0.541603,-0.777735,0.509806,-0.799029,0.500000,-0.800000,-0.500000,-0.800000,-0.535355,-0.785355,-0.550000,-0.750000,-0.550000,0.750000,-0.535355,0.785355,-0.500000,0.800000,0.500000,0.800000,0.535355,0.785355,0.535355,0.785355,$1*%
%AMFreePoly1*
4,1,16,0.535355,0.785355,0.550000,0.750000,0.550000,-0.750000,0.535355,-0.785355,0.500000,-0.800000,-0.650000,-0.800000,-0.685355,-0.785355,-0.700000,-0.750000,-0.691603,-0.722265,-0.210093,0.000000,-0.691603,0.722265,-0.699029,0.759806,-0.677735,0.791603,-0.650000,0.800000,0.500000,0.800000,0.535355,0.785355,0.535355,0.785355,$1*%
G04 Aperture macros list end*
%ADD10RoundRect,0.050000X0.850000X0.850000X-0.850000X0.850000X-0.850000X-0.850000X0.850000X-0.850000X0*%
%ADD11O,1.800000X1.800000*%
%ADD12C,1.750000*%
%ADD13C,0.900000*%
%ADD14C,6.500000*%
%ADD15RoundRect,0.050000X0.850000X-0.850000X0.850000X0.850000X-0.850000X0.850000X-0.850000X-0.850000X0*%
%ADD16RoundRect,0.050000X-0.850000X-0.850000X0.850000X-0.850000X0.850000X0.850000X-0.850000X0.850000X0*%
%ADD17FreePoly0,270.000000*%
%ADD18FreePoly1,270.000000*%
G04 APERTURE END LIST*
D10*
%TO.C,J2*%
X5270000Y21870000D03*
D11*
X2730000Y21870000D03*
X5270000Y24410000D03*
X2730000Y24410000D03*
X5270000Y26950000D03*
X2730000Y26950000D03*
X5270000Y29490000D03*
X2730000Y29490000D03*
X5270000Y32030000D03*
X2730000Y32030000D03*
%TD*%
D12*
%TO.C,J1*%
X7000000Y6200000D03*
X3500000Y11200000D03*
%TD*%
D13*
%TO.C,H2*%
X4000000Y77400000D03*
X6400000Y75000000D03*
X1600000Y75000000D03*
X2302944Y76697056D03*
X2302944Y73302944D03*
X5697056Y76697056D03*
D14*
X4000000Y75000000D03*
D13*
X5697056Y73302944D03*
X4000000Y72600000D03*
%TD*%
D15*
%TO.C,J3*%
X8870000Y73730000D03*
D11*
X8870000Y76270000D03*
X11410000Y73730000D03*
X11410000Y76270000D03*
%TD*%
D13*
%TO.C,H1*%
X4000000Y19400000D03*
X2302944Y15302944D03*
X6400000Y17000000D03*
X1600000Y17000000D03*
X5697056Y15302944D03*
X2302944Y18697056D03*
D14*
X4000000Y17000000D03*
D13*
X4000000Y14600000D03*
X5697056Y18697056D03*
%TD*%
D16*
%TO.C,J5*%
X11620005Y15520010D03*
D11*
X11620005Y12980010D03*
X11620005Y10440010D03*
X11620005Y7900010D03*
X11620005Y5360010D03*
X11620005Y2820010D03*
%TD*%
D16*
%TO.C,J4*%
X2730000Y61240000D03*
D11*
X5270000Y61240000D03*
X2730000Y58700000D03*
X5270000Y58700000D03*
X2730000Y56160000D03*
X5270000Y56160000D03*
X2730000Y53620000D03*
X5270000Y53620000D03*
X2730000Y51080000D03*
X5270000Y51080000D03*
X2730000Y48540000D03*
X5270000Y48540000D03*
%TD*%
D17*
%TO.C,JP1*%
X7600000Y22225000D03*
D18*
X7600000Y20775000D03*
%TD*%
G36*
X9642121Y72379998D02*
G01*
X9688614Y72326342D01*
X9700000Y72274000D01*
X9700000Y71326000D01*
X9679998Y71257879D01*
X9626342Y71211386D01*
X9574000Y71200000D01*
X8226000Y71200000D01*
X8157879Y71220002D01*
X8111386Y71273658D01*
X8100000Y71326000D01*
X8100000Y72274000D01*
X8120002Y72342121D01*
X8173658Y72388614D01*
X8226000Y72400000D01*
X9574000Y72400000D01*
X9642121Y72379998D01*
G37*
M02*
