%TF.GenerationSoftware,KiCad,Pcbnew,(5.1.6-0)*%
%TF.CreationDate,2022-04-30T15:33:10-07:00*%
%TF.ProjectId,jetson-nano-ppoe,6a657473-6f6e-42d6-9e61-6e6f2d70706f,rev?*%
%TF.SameCoordinates,PX8b3c880PY8583b00*%
%TF.FileFunction,Paste,Top*%
%TF.FilePolarity,Positive*%
%FSLAX46Y46*%
G04 Gerber Fmt 4.6, Leading zero omitted, Abs format (unit mm)*
G04 Created by KiCad (PCBNEW (5.1.6-0)) date 2022-04-30 15:33:10*
%MOMM*%
%LPD*%
G01*
G04 APERTURE LIST*
%ADD10R,0.550000X0.250000*%
%ADD11R,0.250000X1.000000*%
%ADD12R,0.250000X1.300000*%
%ADD13R,0.250000X0.550000*%
%ADD14R,1.000000X1.250000*%
%ADD15R,0.750000X0.800000*%
%ADD16R,0.800000X0.750000*%
%ADD17R,1.200000X4.700000*%
%ADD18R,0.500000X0.900000*%
%ADD19R,1.000000X1.000000*%
%ADD20R,1.060000X0.650000*%
%ADD21R,0.900000X0.900000*%
%ADD22R,0.900000X0.800000*%
G04 APERTURE END LIST*
D10*
%TO.C,IC1*%
X8575000Y47750000D03*
X8575000Y47250000D03*
X8575000Y46750000D03*
D11*
X9250000Y46800000D03*
D10*
X10425000Y46750000D03*
X10425000Y47250000D03*
X10425000Y47750000D03*
D12*
X9750000Y47550000D03*
D13*
X9250000Y47925000D03*
%TD*%
D14*
%TO.C,C1*%
X8230000Y36000000D03*
X6230000Y36000000D03*
%TD*%
%TO.C,C2*%
X6230000Y38920000D03*
X8230000Y38920000D03*
%TD*%
D15*
%TO.C,C3*%
X8000000Y32500000D03*
X8000000Y34000000D03*
%TD*%
D16*
%TO.C,C4*%
X6000000Y51000000D03*
X7500000Y51000000D03*
%TD*%
%TO.C,C5*%
X7500000Y53500000D03*
X6000000Y53500000D03*
%TD*%
%TO.C,C6*%
X10750000Y53500000D03*
X9250000Y53500000D03*
%TD*%
D15*
%TO.C,C7*%
X10250000Y42000000D03*
X10250000Y43500000D03*
%TD*%
D14*
%TO.C,C8*%
X3750000Y53750000D03*
X1750000Y53750000D03*
%TD*%
%TO.C,C9*%
X3750000Y50750000D03*
X1750000Y50750000D03*
%TD*%
%TO.C,C10*%
X1500000Y39000000D03*
X3500000Y39000000D03*
%TD*%
%TO.C,C11*%
X1500000Y36000000D03*
X3500000Y36000000D03*
%TD*%
D15*
%TO.C,C12*%
X8000000Y21000000D03*
X8000000Y22500000D03*
%TD*%
D17*
%TO.C,L1*%
X1595000Y45000000D03*
X4905000Y45000000D03*
%TD*%
D18*
%TO.C,R3*%
X9250000Y51000000D03*
X10750000Y51000000D03*
%TD*%
%TO.C,R4*%
X8500000Y44250000D03*
X7000000Y44250000D03*
%TD*%
%TO.C,R5*%
X7000000Y41750000D03*
X8500000Y41750000D03*
%TD*%
%TO.C,D1*%
G36*
G01*
X12006250Y8025000D02*
X11493750Y8025000D01*
G75*
G02*
X11275000Y8243750I0J218750D01*
G01*
X11275000Y8681250D01*
G75*
G02*
X11493750Y8900000I218750J0D01*
G01*
X12006250Y8900000D01*
G75*
G02*
X12225000Y8681250I0J-218750D01*
G01*
X12225000Y8243750D01*
G75*
G02*
X12006250Y8025000I-218750J0D01*
G01*
G37*
G36*
G01*
X12006250Y9600000D02*
X11493750Y9600000D01*
G75*
G02*
X11275000Y9818750I0J218750D01*
G01*
X11275000Y10256250D01*
G75*
G02*
X11493750Y10475000I218750J0D01*
G01*
X12006250Y10475000D01*
G75*
G02*
X12225000Y10256250I0J-218750D01*
G01*
X12225000Y9818750D01*
G75*
G02*
X12006250Y9600000I-218750J0D01*
G01*
G37*
%TD*%
%TO.C,D2*%
G36*
G01*
X11243750Y68650000D02*
X11756250Y68650000D01*
G75*
G02*
X11975000Y68431250I0J-218750D01*
G01*
X11975000Y67993750D01*
G75*
G02*
X11756250Y67775000I-218750J0D01*
G01*
X11243750Y67775000D01*
G75*
G02*
X11025000Y67993750I0J218750D01*
G01*
X11025000Y68431250D01*
G75*
G02*
X11243750Y68650000I218750J0D01*
G01*
G37*
G36*
G01*
X11243750Y70225000D02*
X11756250Y70225000D01*
G75*
G02*
X11975000Y70006250I0J-218750D01*
G01*
X11975000Y69568750D01*
G75*
G02*
X11756250Y69350000I-218750J0D01*
G01*
X11243750Y69350000D01*
G75*
G02*
X11025000Y69568750I0J218750D01*
G01*
X11025000Y70006250D01*
G75*
G02*
X11243750Y70225000I218750J0D01*
G01*
G37*
%TD*%
D19*
%TO.C,D3*%
X8000000Y28250000D03*
X8000000Y25750000D03*
%TD*%
%TO.C,D4*%
X1750000Y65500000D03*
X4250000Y65500000D03*
%TD*%
D20*
%TO.C,Q4*%
X8600000Y61050000D03*
X8600000Y62000000D03*
X8600000Y62950000D03*
X6400000Y62950000D03*
X6400000Y61050000D03*
X6400000Y62000000D03*
%TD*%
D21*
%TO.C,RN1*%
X11750000Y15590000D03*
X11750000Y14250000D03*
X11750000Y18250000D03*
X11750000Y16910000D03*
X8750000Y15590000D03*
X8750000Y16910000D03*
X8750000Y14250000D03*
X8750000Y18250000D03*
%TD*%
%TO.C,RN2*%
X6000000Y69750000D03*
X6000000Y65750000D03*
X6000000Y68410000D03*
X6000000Y67090000D03*
X9000000Y68410000D03*
X9000000Y69750000D03*
X9000000Y65750000D03*
X9000000Y67090000D03*
%TD*%
D22*
%TO.C,Q1*%
X11750000Y21050000D03*
X11750000Y22950000D03*
X9750000Y22000000D03*
%TD*%
%TO.C,Q2*%
X3750000Y68750000D03*
X1750000Y67800000D03*
X1750000Y69700000D03*
%TD*%
M02*
