%TF.GenerationSoftware,KiCad,Pcbnew,(6.0.5-0)*%
%TF.CreationDate,2022-10-30T23:15:49-07:00*%
%TF.ProjectId,teensy-4-can1,7465656e-7379-42d3-942d-63616e312e6b,rev?*%
%TF.SameCoordinates,PX8a12ae0PY695f190*%
%TF.FileFunction,Copper,L2,Bot*%
%TF.FilePolarity,Positive*%
%FSLAX46Y46*%
G04 Gerber Fmt 4.6, Leading zero omitted, Abs format (unit mm)*
G04 Created by KiCad (PCBNEW (6.0.5-0)) date 2022-10-30 23:15:49*
%MOMM*%
%LPD*%
G01*
G04 APERTURE LIST*
%ADD10C,0.152400*%
%TA.AperFunction,NonConductor*%
%ADD11C,0.152400*%
%TD*%
%TA.AperFunction,ComponentPad*%
%ADD12R,1.700000X1.700000*%
%TD*%
%TA.AperFunction,ComponentPad*%
%ADD13O,1.700000X1.700000*%
%TD*%
%TA.AperFunction,ViaPad*%
%ADD14C,0.800000*%
%TD*%
%TA.AperFunction,Conductor*%
%ADD15C,0.254000*%
%TD*%
G04 APERTURE END LIST*
D10*
D11*
X3575714Y32202381D02*
X3309047Y31726191D01*
X3118571Y32202381D02*
X3118571Y31202381D01*
X3423333Y31202381D01*
X3499523Y31250000D01*
X3537619Y31297620D01*
X3575714Y31392858D01*
X3575714Y31535715D01*
X3537619Y31630953D01*
X3499523Y31678572D01*
X3423333Y31726191D01*
X3118571Y31726191D01*
X4337619Y32202381D02*
X3880476Y32202381D01*
X4109047Y32202381D02*
X4109047Y31202381D01*
X4032857Y31345239D01*
X3956666Y31440477D01*
X3880476Y31488096D01*
X5937619Y31440477D02*
X5861428Y31392858D01*
X5709047Y31392858D01*
X5632857Y31440477D01*
X5556666Y31535715D01*
X5518571Y31630953D01*
X5518571Y31821429D01*
X5556666Y31916667D01*
X5632857Y32011905D01*
X5709047Y32059524D01*
X5861428Y32059524D01*
X5937619Y32011905D01*
X5785238Y31059524D02*
X5594761Y31107143D01*
X5404285Y31250000D01*
X5290000Y31488096D01*
X5251904Y31726191D01*
X5290000Y31964286D01*
X5404285Y32202381D01*
X5594761Y32345239D01*
X5785238Y32392858D01*
X5975714Y32345239D01*
X6166190Y32202381D01*
X6280476Y31964286D01*
X6318571Y31726191D01*
X6280476Y31488096D01*
X6166190Y31250000D01*
X5975714Y31107143D01*
X5785238Y31059524D01*
X6623333Y31297620D02*
X6661428Y31250000D01*
X6737619Y31202381D01*
X6928095Y31202381D01*
X7004285Y31250000D01*
X7042380Y31297620D01*
X7080476Y31392858D01*
X7080476Y31488096D01*
X7042380Y31630953D01*
X6585238Y32202381D01*
X7080476Y32202381D01*
X7575714Y31202381D02*
X7651904Y31202381D01*
X7728095Y31250000D01*
X7766190Y31297620D01*
X7804285Y31392858D01*
X7842380Y31583334D01*
X7842380Y31821429D01*
X7804285Y32011905D01*
X7766190Y32107143D01*
X7728095Y32154762D01*
X7651904Y32202381D01*
X7575714Y32202381D01*
X7499523Y32154762D01*
X7461428Y32107143D01*
X7423333Y32011905D01*
X7385238Y31821429D01*
X7385238Y31583334D01*
X7423333Y31392858D01*
X7461428Y31297620D01*
X7499523Y31250000D01*
X7575714Y31202381D01*
X8147142Y31297620D02*
X8185238Y31250000D01*
X8261428Y31202381D01*
X8451904Y31202381D01*
X8528095Y31250000D01*
X8566190Y31297620D01*
X8604285Y31392858D01*
X8604285Y31488096D01*
X8566190Y31630953D01*
X8109047Y32202381D01*
X8604285Y32202381D01*
X8909047Y31297620D02*
X8947142Y31250000D01*
X9023333Y31202381D01*
X9213809Y31202381D01*
X9290000Y31250000D01*
X9328095Y31297620D01*
X9366190Y31392858D01*
X9366190Y31488096D01*
X9328095Y31630953D01*
X8870952Y32202381D01*
X9366190Y32202381D01*
X10318571Y32202381D02*
X10318571Y31535715D01*
X10318571Y31202381D02*
X10280476Y31250000D01*
X10318571Y31297620D01*
X10356666Y31250000D01*
X10318571Y31202381D01*
X10318571Y31297620D01*
X10699523Y32202381D02*
X10699523Y31202381D01*
X11042380Y32202381D02*
X11042380Y31678572D01*
X11004285Y31583334D01*
X10928095Y31535715D01*
X10813809Y31535715D01*
X10737619Y31583334D01*
X10699523Y31630953D01*
X11766190Y32202381D02*
X11766190Y31678572D01*
X11728095Y31583334D01*
X11651904Y31535715D01*
X11499523Y31535715D01*
X11423333Y31583334D01*
X11766190Y32154762D02*
X11690000Y32202381D01*
X11499523Y32202381D01*
X11423333Y32154762D01*
X11385238Y32059524D01*
X11385238Y31964286D01*
X11423333Y31869048D01*
X11499523Y31821429D01*
X11690000Y31821429D01*
X11766190Y31773810D01*
X12147142Y32202381D02*
X12147142Y31535715D01*
X12147142Y31726191D02*
X12185238Y31630953D01*
X12223333Y31583334D01*
X12299523Y31535715D01*
X12375714Y31535715D01*
X12528095Y31535715D02*
X12832857Y31535715D01*
X12642380Y31202381D02*
X12642380Y32059524D01*
X12680476Y32154762D01*
X12756666Y32202381D01*
X12832857Y32202381D01*
X13023333Y31535715D02*
X13175714Y32202381D01*
X13328095Y31726191D01*
X13480476Y32202381D01*
X13632857Y31535715D01*
X13937619Y32202381D02*
X13937619Y31535715D01*
X13937619Y31202381D02*
X13899523Y31250000D01*
X13937619Y31297620D01*
X13975714Y31250000D01*
X13937619Y31202381D01*
X13937619Y31297620D01*
X14661428Y31535715D02*
X14661428Y32345239D01*
X14623333Y32440477D01*
X14585238Y32488096D01*
X14509047Y32535715D01*
X14394761Y32535715D01*
X14318571Y32488096D01*
X14661428Y32154762D02*
X14585238Y32202381D01*
X14432857Y32202381D01*
X14356666Y32154762D01*
X14318571Y32107143D01*
X14280476Y32011905D01*
X14280476Y31726191D01*
X14318571Y31630953D01*
X14356666Y31583334D01*
X14432857Y31535715D01*
X14585238Y31535715D01*
X14661428Y31583334D01*
D12*
%TO.P,REF\u002A\u002A,1*%
%TO.N,N/C*%
X8890000Y34290000D03*
D13*
%TO.P,REF\u002A\u002A,2*%
X11430000Y34290000D03*
%TD*%
D12*
%TO.P,REF\u002A\u002A,1*%
%TO.N,N/C*%
X16510000Y34290000D03*
D13*
%TO.P,REF\u002A\u002A,2*%
X16510000Y31750000D03*
%TD*%
D12*
%TO.P,REF\u002A\u002A,1*%
%TO.N,N/C*%
X1270000Y34290000D03*
D13*
%TO.P,REF\u002A\u002A,2*%
X1270000Y31750000D03*
%TD*%
D14*
%TO.N,*%
X3556000Y44450000D03*
X3556000Y41910000D03*
%TD*%
D15*
%TO.N,*%
X16510000Y31750000D02*
X3810000Y44450000D01*
X3810000Y44450000D02*
X3556000Y44450000D01*
X3810000Y41910000D02*
X11430000Y34290000D01*
X3556000Y41910000D02*
X3810000Y41910000D01*
%TD*%
M02*
