%TF.GenerationSoftware,KiCad,Pcbnew,(6.0.5-0)*%
%TF.CreationDate,2022-10-30T23:15:50-07:00*%
%TF.ProjectId,teensy-4-can1,7465656e-7379-42d3-942d-63616e312e6b,rev?*%
%TF.SameCoordinates,PX8a12ae0PY695f190*%
%TF.FileFunction,Legend,Bot*%
%TF.FilePolarity,Positive*%
%FSLAX46Y46*%
G04 Gerber Fmt 4.6, Leading zero omitted, Abs format (unit mm)*
G04 Created by KiCad (PCBNEW (6.0.5-0)) date 2022-10-30 23:15:50*
%MOMM*%
%LPD*%
G01*
G04 APERTURE LIST*
%ADD10C,0.150000*%
G04 APERTURE END LIST*
D10*
X1349416Y37255661D02*
X1349416Y37323004D01*
X1282072Y37457691D01*
X1214729Y37525035D01*
X1080042Y37592378D01*
X945355Y37592378D01*
X844339Y37558706D01*
X675981Y37457691D01*
X574965Y37356676D01*
X473950Y37188317D01*
X440278Y37087302D01*
X440278Y36952615D01*
X507622Y36817928D01*
X574965Y36750584D01*
X709652Y36683241D01*
X776996Y36683241D01*
X2123866Y36615897D02*
X1551446Y36514882D01*
X1719805Y37019958D02*
X1012698Y36312852D01*
X1282072Y36043478D01*
X1383087Y36009806D01*
X1450431Y36009806D01*
X1551446Y36043478D01*
X1652461Y36144493D01*
X1686133Y36245508D01*
X1686133Y36312852D01*
X1652461Y36413867D01*
X1383087Y36683241D01*
X1652461Y35673088D02*
X2830973Y35908791D01*
X2123866Y35201684D02*
X2359568Y36380195D01*
X3470736Y35269027D02*
X3066675Y35673088D01*
X3268705Y35471058D02*
X2561599Y34763951D01*
X2595270Y34932310D01*
X2595270Y35066997D01*
X2561599Y35168012D01*
X13970000Y33655000D02*
X15240000Y32385000D01*
X13970000Y35560000D02*
X13970000Y33655000D01*
X8897309Y37318241D02*
X9335042Y36880508D01*
X9368713Y37385584D01*
X9469729Y37284569D01*
X9570744Y37250897D01*
X9638087Y37250897D01*
X9739103Y37284569D01*
X9907461Y37452928D01*
X9941133Y37553943D01*
X9941133Y37621287D01*
X9907461Y37722302D01*
X9705431Y37924332D01*
X9604416Y37958004D01*
X9537072Y37958004D01*
X9537072Y36678478D02*
X10479881Y37149882D01*
X10008477Y36207073D01*
X10176835Y36038714D02*
X10614568Y35600982D01*
X10648240Y36106058D01*
X10749255Y36005043D01*
X10850270Y35971371D01*
X10917614Y35971371D01*
X11018629Y36005043D01*
X11186988Y36173401D01*
X11220660Y36274417D01*
X11220660Y36341760D01*
X11186988Y36442775D01*
X10984957Y36644806D01*
X10883942Y36678478D01*
X10816599Y36678478D01*
X6727698Y37015195D02*
X6626683Y37048867D01*
X6525668Y37149882D01*
X6458324Y37284569D01*
X6458324Y37419256D01*
X6491996Y37520271D01*
X6593011Y37688630D01*
X6694026Y37789645D01*
X6862385Y37890661D01*
X6963400Y37924332D01*
X7098087Y37924332D01*
X7232774Y37856989D01*
X7300118Y37789645D01*
X7367461Y37654958D01*
X7367461Y37587615D01*
X7131759Y37351913D01*
X6997072Y37486600D01*
X7737851Y37351913D02*
X7030744Y36644806D01*
X8141912Y36947852D01*
X7434805Y36240745D01*
X8478629Y36611134D02*
X7771522Y35904027D01*
X7939881Y35735669D01*
X8074568Y35668325D01*
X8209255Y35668325D01*
X8310270Y35701997D01*
X8478629Y35803012D01*
X8579644Y35904027D01*
X8680660Y36072386D01*
X8714331Y36173401D01*
X8714331Y36308088D01*
X8646988Y36442775D01*
X8478629Y36611134D01*
X12228595Y37806481D02*
X12228595Y37873825D01*
X12161251Y38008512D01*
X12093908Y38075855D01*
X11959221Y38143199D01*
X11824534Y38143199D01*
X11723519Y38109527D01*
X11555160Y38008512D01*
X11454145Y37907497D01*
X11353129Y37739138D01*
X11319458Y37638123D01*
X11319458Y37503436D01*
X11386801Y37368749D01*
X11454145Y37301405D01*
X11588832Y37234062D01*
X11656175Y37234062D01*
X11790862Y36964688D02*
X12194923Y36560626D01*
X12700000Y37469764D02*
X11992893Y36762657D01*
X12363282Y36392268D02*
X13541793Y36627970D01*
X12834687Y35920863D02*
X13070389Y37099375D01*
X14181557Y35988207D02*
X13777496Y36392268D01*
X13979526Y36190237D02*
X13272419Y35483130D01*
X13306091Y35651489D01*
X13306091Y35786176D01*
X13272419Y35887191D01*
X8050000Y41192381D02*
X8564285Y41192381D01*
X8307142Y42192381D02*
X8307142Y41192381D01*
X9207142Y42144762D02*
X9121428Y42192381D01*
X8950000Y42192381D01*
X8864285Y42144762D01*
X8821428Y42049524D01*
X8821428Y41668572D01*
X8864285Y41573334D01*
X8950000Y41525715D01*
X9121428Y41525715D01*
X9207142Y41573334D01*
X9250000Y41668572D01*
X9250000Y41763810D01*
X8821428Y41859048D01*
X9978571Y42144762D02*
X9892857Y42192381D01*
X9721428Y42192381D01*
X9635714Y42144762D01*
X9592857Y42049524D01*
X9592857Y41668572D01*
X9635714Y41573334D01*
X9721428Y41525715D01*
X9892857Y41525715D01*
X9978571Y41573334D01*
X10021428Y41668572D01*
X10021428Y41763810D01*
X9592857Y41859048D01*
X10407142Y41525715D02*
X10407142Y42192381D01*
X10407142Y41620953D02*
X10450000Y41573334D01*
X10535714Y41525715D01*
X10664285Y41525715D01*
X10750000Y41573334D01*
X10792857Y41668572D01*
X10792857Y42192381D01*
X11178571Y42144762D02*
X11264285Y42192381D01*
X11435714Y42192381D01*
X11521428Y42144762D01*
X11564285Y42049524D01*
X11564285Y42001905D01*
X11521428Y41906667D01*
X11435714Y41859048D01*
X11307142Y41859048D01*
X11221428Y41811429D01*
X11178571Y41716191D01*
X11178571Y41668572D01*
X11221428Y41573334D01*
X11307142Y41525715D01*
X11435714Y41525715D01*
X11521428Y41573334D01*
X11864285Y41525715D02*
X12078571Y42192381D01*
X12292857Y41525715D02*
X12078571Y42192381D01*
X11992857Y42430477D01*
X11950000Y42478096D01*
X11864285Y42525715D01*
X13021428Y41525715D02*
X13021428Y42192381D01*
X12807142Y41144762D02*
X12592857Y41859048D01*
X13150000Y41859048D01*
X14692857Y42097143D02*
X14650000Y42144762D01*
X14521428Y42192381D01*
X14435714Y42192381D01*
X14307142Y42144762D01*
X14221428Y42049524D01*
X14178571Y41954286D01*
X14135714Y41763810D01*
X14135714Y41620953D01*
X14178571Y41430477D01*
X14221428Y41335239D01*
X14307142Y41240000D01*
X14435714Y41192381D01*
X14521428Y41192381D01*
X14650000Y41240000D01*
X14692857Y41287620D01*
X15035714Y41906667D02*
X15464285Y41906667D01*
X14950000Y42192381D02*
X15250000Y41192381D01*
X15550000Y42192381D01*
X15850000Y42192381D02*
X15850000Y41192381D01*
X16364285Y42192381D01*
X16364285Y41192381D01*
X17264285Y42192381D02*
X16750000Y42192381D01*
X17007142Y42192381D02*
X17007142Y41192381D01*
X16921428Y41335239D01*
X16835714Y41430477D01*
X16750000Y41478096D01*
X7514285Y43278572D02*
X7214285Y43278572D01*
X7214285Y43802381D02*
X7214285Y42802381D01*
X7642857Y42802381D01*
X8114285Y43802381D02*
X8028571Y43754762D01*
X7985714Y43707143D01*
X7942857Y43611905D01*
X7942857Y43326191D01*
X7985714Y43230953D01*
X8028571Y43183334D01*
X8114285Y43135715D01*
X8242857Y43135715D01*
X8328571Y43183334D01*
X8371428Y43230953D01*
X8414285Y43326191D01*
X8414285Y43611905D01*
X8371428Y43707143D01*
X8328571Y43754762D01*
X8242857Y43802381D01*
X8114285Y43802381D01*
X8800000Y43802381D02*
X8800000Y43135715D01*
X8800000Y43326191D02*
X8842857Y43230953D01*
X8885714Y43183334D01*
X8971428Y43135715D01*
X9057142Y43135715D01*
X10000000Y43754762D02*
X10128571Y43802381D01*
X10342857Y43802381D01*
X10428571Y43754762D01*
X10471428Y43707143D01*
X10514285Y43611905D01*
X10514285Y43516667D01*
X10471428Y43421429D01*
X10428571Y43373810D01*
X10342857Y43326191D01*
X10171428Y43278572D01*
X10085714Y43230953D01*
X10042857Y43183334D01*
X10000000Y43088096D01*
X10000000Y42992858D01*
X10042857Y42897620D01*
X10085714Y42850000D01*
X10171428Y42802381D01*
X10385714Y42802381D01*
X10514285Y42850000D01*
X10900000Y43802381D02*
X10900000Y42802381D01*
X11414285Y43802381D01*
X11414285Y42802381D01*
X12228571Y42802381D02*
X12057142Y42802381D01*
X11971428Y42850000D01*
X11928571Y42897620D01*
X11842857Y43040477D01*
X11800000Y43230953D01*
X11800000Y43611905D01*
X11842857Y43707143D01*
X11885714Y43754762D01*
X11971428Y43802381D01*
X12142857Y43802381D01*
X12228571Y43754762D01*
X12271428Y43707143D01*
X12314285Y43611905D01*
X12314285Y43373810D01*
X12271428Y43278572D01*
X12228571Y43230953D01*
X12142857Y43183334D01*
X11971428Y43183334D01*
X11885714Y43230953D01*
X11842857Y43278572D01*
X11800000Y43373810D01*
X13128571Y42802381D02*
X12700000Y42802381D01*
X12657142Y43278572D01*
X12700000Y43230953D01*
X12785714Y43183334D01*
X13000000Y43183334D01*
X13085714Y43230953D01*
X13128571Y43278572D01*
X13171428Y43373810D01*
X13171428Y43611905D01*
X13128571Y43707143D01*
X13085714Y43754762D01*
X13000000Y43802381D01*
X12785714Y43802381D01*
X12700000Y43754762D01*
X12657142Y43707143D01*
X13557142Y43802381D02*
X13557142Y42802381D01*
X13557142Y43278572D02*
X14071428Y43278572D01*
X14071428Y43802381D02*
X14071428Y42802381D01*
X14371428Y42802381D02*
X14671428Y43802381D01*
X14971428Y42802381D01*
X15271428Y43802381D02*
X15271428Y42802381D01*
X15485714Y42802381D01*
X15614285Y42850000D01*
X15700000Y42945239D01*
X15742857Y43040477D01*
X15785714Y43230953D01*
X15785714Y43373810D01*
X15742857Y43564286D01*
X15700000Y43659524D01*
X15614285Y43754762D01*
X15485714Y43802381D01*
X15271428Y43802381D01*
X16128571Y42897620D02*
X16171428Y42850000D01*
X16257142Y42802381D01*
X16471428Y42802381D01*
X16557142Y42850000D01*
X16600000Y42897620D01*
X16642857Y42992858D01*
X16642857Y43088096D01*
X16600000Y43230953D01*
X16085714Y43802381D01*
X16642857Y43802381D01*
X16942857Y42802381D02*
X17500000Y42802381D01*
X17200000Y43183334D01*
X17328571Y43183334D01*
X17414285Y43230953D01*
X17457142Y43278572D01*
X17500000Y43373810D01*
X17500000Y43611905D01*
X17457142Y43707143D01*
X17414285Y43754762D01*
X17328571Y43802381D01*
X17071428Y43802381D01*
X16985714Y43754762D01*
X16942857Y43707143D01*
X17800000Y43802381D02*
X18271428Y43135715D01*
X17800000Y43135715D02*
X18271428Y43802381D01*
M02*
