%TF.GenerationSoftware,KiCad,Pcbnew,(6.0.5-0)*%
%TF.CreationDate,2022-07-05T23:07:10-07:00*%
%TF.ProjectId,gigablox-nano-rvp,67696761-626c-46f7-982d-6e616e6f2d72,rev?*%
%TF.SameCoordinates,PX5a1f4a0PY3e77360*%
%TF.FileFunction,Legend,Top*%
%TF.FilePolarity,Positive*%
%FSLAX46Y46*%
G04 Gerber Fmt 4.6, Leading zero omitted, Abs format (unit mm)*
G04 Created by KiCad (PCBNEW (6.0.5-0)) date 2022-07-05 23:07:10*
%MOMM*%
%LPD*%
G01*
G04 APERTURE LIST*
%ADD10C,0.200000*%
%ADD11C,0.150000*%
%ADD12C,0.010000*%
%ADD13C,0.120000*%
%ADD14C,0.100000*%
G04 APERTURE END LIST*
D10*
X700000Y28424286D02*
X642857Y28341429D01*
X642857Y28217143D01*
X700000Y28092858D01*
X814285Y28010000D01*
X928571Y27968572D01*
X1157142Y27927143D01*
X1328571Y27927143D01*
X1557142Y27968572D01*
X1671428Y28010000D01*
X1785714Y28092858D01*
X1842857Y28217143D01*
X1842857Y28300000D01*
X1785714Y28424286D01*
X1728571Y28465715D01*
X1328571Y28465715D01*
X1328571Y28300000D01*
X1842857Y28838572D02*
X1042857Y28838572D01*
X642857Y28838572D02*
X700000Y28797143D01*
X757142Y28838572D01*
X700000Y28880000D01*
X642857Y28838572D01*
X757142Y28838572D01*
X1042857Y29625715D02*
X2014285Y29625715D01*
X2128571Y29584286D01*
X2185714Y29542858D01*
X2242857Y29460000D01*
X2242857Y29335715D01*
X2185714Y29252858D01*
X1785714Y29625715D02*
X1842857Y29542858D01*
X1842857Y29377143D01*
X1785714Y29294286D01*
X1728571Y29252858D01*
X1614285Y29211429D01*
X1271428Y29211429D01*
X1157142Y29252858D01*
X1100000Y29294286D01*
X1042857Y29377143D01*
X1042857Y29542858D01*
X1100000Y29625715D01*
X1842857Y30412858D02*
X1214285Y30412858D01*
X1100000Y30371429D01*
X1042857Y30288572D01*
X1042857Y30122858D01*
X1100000Y30040000D01*
X1785714Y30412858D02*
X1842857Y30330000D01*
X1842857Y30122858D01*
X1785714Y30040000D01*
X1671428Y29998572D01*
X1557142Y29998572D01*
X1442857Y30040000D01*
X1385714Y30122858D01*
X1385714Y30330000D01*
X1328571Y30412858D01*
X1842857Y30827143D02*
X642857Y30827143D01*
X1100000Y30827143D02*
X1042857Y30910000D01*
X1042857Y31075715D01*
X1100000Y31158572D01*
X1157142Y31200000D01*
X1271428Y31241429D01*
X1614285Y31241429D01*
X1728571Y31200000D01*
X1785714Y31158572D01*
X1842857Y31075715D01*
X1842857Y30910000D01*
X1785714Y30827143D01*
X1842857Y31738572D02*
X1785714Y31655715D01*
X1671428Y31614286D01*
X642857Y31614286D01*
X1842857Y32194286D02*
X1785714Y32111429D01*
X1728571Y32070000D01*
X1614285Y32028572D01*
X1271428Y32028572D01*
X1157142Y32070000D01*
X1100000Y32111429D01*
X1042857Y32194286D01*
X1042857Y32318572D01*
X1100000Y32401429D01*
X1157142Y32442858D01*
X1271428Y32484286D01*
X1614285Y32484286D01*
X1728571Y32442858D01*
X1785714Y32401429D01*
X1842857Y32318572D01*
X1842857Y32194286D01*
X1842857Y32774286D02*
X1042857Y33230000D01*
X1042857Y32774286D02*
X1842857Y33230000D01*
X1842857Y34224286D02*
X642857Y34224286D01*
X1842857Y34721429D01*
X642857Y34721429D01*
X1842857Y35508572D02*
X1214285Y35508572D01*
X1100000Y35467143D01*
X1042857Y35384286D01*
X1042857Y35218572D01*
X1100000Y35135715D01*
X1785714Y35508572D02*
X1842857Y35425715D01*
X1842857Y35218572D01*
X1785714Y35135715D01*
X1671428Y35094286D01*
X1557142Y35094286D01*
X1442857Y35135715D01*
X1385714Y35218572D01*
X1385714Y35425715D01*
X1328571Y35508572D01*
X1042857Y35922858D02*
X1842857Y35922858D01*
X1157142Y35922858D02*
X1100000Y35964286D01*
X1042857Y36047143D01*
X1042857Y36171429D01*
X1100000Y36254286D01*
X1214285Y36295715D01*
X1842857Y36295715D01*
X1842857Y36834286D02*
X1785714Y36751429D01*
X1728571Y36710000D01*
X1614285Y36668572D01*
X1271428Y36668572D01*
X1157142Y36710000D01*
X1100000Y36751429D01*
X1042857Y36834286D01*
X1042857Y36958572D01*
X1100000Y37041429D01*
X1157142Y37082858D01*
X1271428Y37124286D01*
X1614285Y37124286D01*
X1728571Y37082858D01*
X1785714Y37041429D01*
X1842857Y36958572D01*
X1842857Y36834286D01*
X1842857Y38657143D02*
X1271428Y38367143D01*
X1842857Y38160000D02*
X642857Y38160000D01*
X642857Y38491429D01*
X700000Y38574286D01*
X757142Y38615715D01*
X871428Y38657143D01*
X1042857Y38657143D01*
X1157142Y38615715D01*
X1214285Y38574286D01*
X1271428Y38491429D01*
X1271428Y38160000D01*
X642857Y38905715D02*
X1842857Y39195715D01*
X642857Y39485715D01*
X1842857Y39775715D02*
X642857Y39775715D01*
X642857Y40107143D01*
X700000Y40190000D01*
X757142Y40231429D01*
X871428Y40272858D01*
X1042857Y40272858D01*
X1157142Y40231429D01*
X1214285Y40190000D01*
X1271428Y40107143D01*
X1271428Y39775715D01*
D11*
X42952380Y34995239D02*
X42952380Y34423810D01*
X42952380Y34709524D02*
X41952380Y34709524D01*
X42095238Y34614286D01*
X42190476Y34519048D01*
X42238095Y34423810D01*
X42047619Y35376191D02*
X42000000Y35423810D01*
X41952380Y35519048D01*
X41952380Y35757143D01*
X42000000Y35852381D01*
X42047619Y35900000D01*
X42142857Y35947620D01*
X42238095Y35947620D01*
X42380952Y35900000D01*
X42952380Y35328572D01*
X42952380Y35947620D01*
X41952380Y36233334D02*
X42952380Y36566667D01*
X41952380Y36900000D01*
X42000000Y39280953D02*
X41952380Y39185715D01*
X41952380Y39042858D01*
X42000000Y38900000D01*
X42095238Y38804762D01*
X42190476Y38757143D01*
X42380952Y38709524D01*
X42523809Y38709524D01*
X42714285Y38757143D01*
X42809523Y38804762D01*
X42904761Y38900000D01*
X42952380Y39042858D01*
X42952380Y39138096D01*
X42904761Y39280953D01*
X42857142Y39328572D01*
X42523809Y39328572D01*
X42523809Y39138096D01*
X42952380Y39757143D02*
X41952380Y39757143D01*
X42952380Y40328572D01*
X41952380Y40328572D01*
X42952380Y40804762D02*
X41952380Y40804762D01*
X41952380Y41042858D01*
X42000000Y41185715D01*
X42095238Y41280953D01*
X42190476Y41328572D01*
X42380952Y41376191D01*
X42523809Y41376191D01*
X42714285Y41328572D01*
X42809523Y41280953D01*
X42904761Y41185715D01*
X42952380Y41042858D01*
X42952380Y40804762D01*
X42952380Y22995239D02*
X42952380Y22423810D01*
X42952380Y22709524D02*
X41952380Y22709524D01*
X42095238Y22614286D01*
X42190476Y22519048D01*
X42238095Y22423810D01*
X42047619Y23376191D02*
X42000000Y23423810D01*
X41952380Y23519048D01*
X41952380Y23757143D01*
X42000000Y23852381D01*
X42047619Y23900000D01*
X42142857Y23947620D01*
X42238095Y23947620D01*
X42380952Y23900000D01*
X42952380Y23328572D01*
X42952380Y23947620D01*
X41952380Y24233334D02*
X42952380Y24566667D01*
X41952380Y24900000D01*
X42000000Y27280953D02*
X41952380Y27185715D01*
X41952380Y27042858D01*
X42000000Y26900000D01*
X42095238Y26804762D01*
X42190476Y26757143D01*
X42380952Y26709524D01*
X42523809Y26709524D01*
X42714285Y26757143D01*
X42809523Y26804762D01*
X42904761Y26900000D01*
X42952380Y27042858D01*
X42952380Y27138096D01*
X42904761Y27280953D01*
X42857142Y27328572D01*
X42523809Y27328572D01*
X42523809Y27138096D01*
X42952380Y27757143D02*
X41952380Y27757143D01*
X42952380Y28328572D01*
X41952380Y28328572D01*
X42952380Y28804762D02*
X41952380Y28804762D01*
X41952380Y29042858D01*
X42000000Y29185715D01*
X42095238Y29280953D01*
X42190476Y29328572D01*
X42380952Y29376191D01*
X42523809Y29376191D01*
X42714285Y29328572D01*
X42809523Y29280953D01*
X42904761Y29185715D01*
X42952380Y29042858D01*
X42952380Y28804762D01*
X36823571Y11106429D02*
X36533571Y11520715D01*
X36326428Y11106429D02*
X36326428Y11976429D01*
X36657857Y11976429D01*
X36740714Y11935000D01*
X36782142Y11893572D01*
X36823571Y11810715D01*
X36823571Y11686429D01*
X36782142Y11603572D01*
X36740714Y11562143D01*
X36657857Y11520715D01*
X36326428Y11520715D01*
X37155000Y11147858D02*
X37279285Y11106429D01*
X37486428Y11106429D01*
X37569285Y11147858D01*
X37610714Y11189286D01*
X37652142Y11272143D01*
X37652142Y11355000D01*
X37610714Y11437858D01*
X37569285Y11479286D01*
X37486428Y11520715D01*
X37320714Y11562143D01*
X37237857Y11603572D01*
X37196428Y11645000D01*
X37155000Y11727858D01*
X37155000Y11810715D01*
X37196428Y11893572D01*
X37237857Y11935000D01*
X37320714Y11976429D01*
X37527857Y11976429D01*
X37652142Y11935000D01*
X37900714Y11976429D02*
X38397857Y11976429D01*
X38149285Y11106429D02*
X38149285Y11976429D01*
X36637142Y17035000D02*
X36554285Y17076429D01*
X36430000Y17076429D01*
X36305714Y17035000D01*
X36222857Y16952143D01*
X36181428Y16869286D01*
X36140000Y16703572D01*
X36140000Y16579286D01*
X36181428Y16413572D01*
X36222857Y16330715D01*
X36305714Y16247858D01*
X36430000Y16206429D01*
X36512857Y16206429D01*
X36637142Y16247858D01*
X36678571Y16289286D01*
X36678571Y16579286D01*
X36512857Y16579286D01*
X37051428Y16206429D02*
X37051428Y17076429D01*
X37548571Y16206429D01*
X37548571Y17076429D01*
X37962857Y16206429D02*
X37962857Y17076429D01*
X38170000Y17076429D01*
X38294285Y17035000D01*
X38377142Y16952143D01*
X38418571Y16869286D01*
X38460000Y16703572D01*
X38460000Y16579286D01*
X38418571Y16413572D01*
X38377142Y16330715D01*
X38294285Y16247858D01*
X38170000Y16206429D01*
X37962857Y16206429D01*
X33937142Y16536050D02*
X33854285Y16577479D01*
X33730000Y16577479D01*
X33605714Y16536050D01*
X33522857Y16453193D01*
X33481428Y16370336D01*
X33440000Y16204622D01*
X33440000Y16080336D01*
X33481428Y15914622D01*
X33522857Y15831765D01*
X33605714Y15748908D01*
X33730000Y15707479D01*
X33812857Y15707479D01*
X33937142Y15748908D01*
X33978571Y15790336D01*
X33978571Y16080336D01*
X33812857Y16080336D01*
X34351428Y15707479D02*
X34351428Y16577479D01*
X34848571Y15707479D01*
X34848571Y16577479D01*
X35262857Y15707479D02*
X35262857Y16577479D01*
X35470000Y16577479D01*
X35594285Y16536050D01*
X35677142Y16453193D01*
X35718571Y16370336D01*
X35760000Y16204622D01*
X35760000Y16080336D01*
X35718571Y15914622D01*
X35677142Y15831765D01*
X35594285Y15748908D01*
X35470000Y15707479D01*
X35262857Y15707479D01*
X33937142Y15135350D02*
X33854285Y15176779D01*
X33730000Y15176779D01*
X33605714Y15135350D01*
X33522857Y15052493D01*
X33481428Y14969636D01*
X33440000Y14803922D01*
X33440000Y14679636D01*
X33481428Y14513922D01*
X33522857Y14431065D01*
X33605714Y14348208D01*
X33730000Y14306779D01*
X33812857Y14306779D01*
X33937142Y14348208D01*
X33978571Y14389636D01*
X33978571Y14679636D01*
X33812857Y14679636D01*
X34351428Y14306779D02*
X34351428Y15176779D01*
X34848571Y14306779D01*
X34848571Y15176779D01*
X35262857Y14306779D02*
X35262857Y15176779D01*
X35470000Y15176779D01*
X35594285Y15135350D01*
X35677142Y15052493D01*
X35718571Y14969636D01*
X35760000Y14803922D01*
X35760000Y14679636D01*
X35718571Y14513922D01*
X35677142Y14431065D01*
X35594285Y14348208D01*
X35470000Y14306779D01*
X35262857Y14306779D01*
X34061428Y12906079D02*
X33564285Y12906079D01*
X33812857Y12906079D02*
X33812857Y13776079D01*
X33730000Y13651793D01*
X33647142Y13568936D01*
X33564285Y13527508D01*
X34392857Y13693222D02*
X34434285Y13734650D01*
X34517142Y13776079D01*
X34724285Y13776079D01*
X34807142Y13734650D01*
X34848571Y13693222D01*
X34890000Y13610365D01*
X34890000Y13527508D01*
X34848571Y13403222D01*
X34351428Y12906079D01*
X34890000Y12906079D01*
X35138571Y13776079D02*
X35428571Y12906079D01*
X35718571Y13776079D01*
X34061428Y11505379D02*
X33564285Y11505379D01*
X33812857Y11505379D02*
X33812857Y12375379D01*
X33730000Y12251093D01*
X33647142Y12168236D01*
X33564285Y12126808D01*
X34392857Y12292522D02*
X34434285Y12333950D01*
X34517142Y12375379D01*
X34724285Y12375379D01*
X34807142Y12333950D01*
X34848571Y12292522D01*
X34890000Y12209665D01*
X34890000Y12126808D01*
X34848571Y12002522D01*
X34351428Y11505379D01*
X34890000Y11505379D01*
X35138571Y12375379D02*
X35428571Y11505379D01*
X35718571Y12375379D01*
D10*
X34857142Y2423143D02*
X34171428Y2423143D01*
X34514285Y2423143D02*
X34514285Y3623143D01*
X34400000Y3451715D01*
X34285714Y3337429D01*
X34171428Y3280286D01*
X35314285Y3508858D02*
X35371428Y3566000D01*
X35485714Y3623143D01*
X35771428Y3623143D01*
X35885714Y3566000D01*
X35942857Y3508858D01*
X36000000Y3394572D01*
X36000000Y3280286D01*
X35942857Y3108858D01*
X35257142Y2423143D01*
X36000000Y2423143D01*
X36342857Y3623143D02*
X36742857Y2423143D01*
X37142857Y3623143D01*
X34000000Y491143D02*
X34000000Y1691143D01*
X34457142Y1691143D01*
X34571428Y1634000D01*
X34628571Y1576858D01*
X34685714Y1462572D01*
X34685714Y1291143D01*
X34628571Y1176858D01*
X34571428Y1119715D01*
X34457142Y1062572D01*
X34000000Y1062572D01*
X35085714Y1691143D02*
X35371428Y491143D01*
X35600000Y1348286D01*
X35828571Y491143D01*
X36114285Y1691143D01*
X37257142Y491143D02*
X36857142Y1062572D01*
X36571428Y491143D02*
X36571428Y1691143D01*
X37028571Y1691143D01*
X37142857Y1634000D01*
X37200000Y1576858D01*
X37257142Y1462572D01*
X37257142Y1291143D01*
X37200000Y1176858D01*
X37142857Y1119715D01*
X37028571Y1062572D01*
X36571428Y1062572D01*
D11*
%TO.C,U1*%
X6352380Y40938096D02*
X7161904Y40938096D01*
X7257142Y40985715D01*
X7304761Y41033334D01*
X7352380Y41128572D01*
X7352380Y41319048D01*
X7304761Y41414286D01*
X7257142Y41461905D01*
X7161904Y41509524D01*
X6352380Y41509524D01*
X7352380Y42509524D02*
X7352380Y41938096D01*
X7352380Y42223810D02*
X6352380Y42223810D01*
X6495238Y42128572D01*
X6590476Y42033334D01*
X6638095Y41938096D01*
%TO.C,RN1*%
X15252380Y34809524D02*
X14776190Y34476191D01*
X15252380Y34238096D02*
X14252380Y34238096D01*
X14252380Y34619048D01*
X14300000Y34714286D01*
X14347619Y34761905D01*
X14442857Y34809524D01*
X14585714Y34809524D01*
X14680952Y34761905D01*
X14728571Y34714286D01*
X14776190Y34619048D01*
X14776190Y34238096D01*
X15252380Y35238096D02*
X14252380Y35238096D01*
X15252380Y35809524D01*
X14252380Y35809524D01*
X15252380Y36809524D02*
X15252380Y36238096D01*
X15252380Y36523810D02*
X14252380Y36523810D01*
X14395238Y36428572D01*
X14490476Y36333334D01*
X14538095Y36238096D01*
%TO.C,R4*%
X12802380Y29433334D02*
X12326190Y29100000D01*
X12802380Y28861905D02*
X11802380Y28861905D01*
X11802380Y29242858D01*
X11850000Y29338096D01*
X11897619Y29385715D01*
X11992857Y29433334D01*
X12135714Y29433334D01*
X12230952Y29385715D01*
X12278571Y29338096D01*
X12326190Y29242858D01*
X12326190Y28861905D01*
X12135714Y30290477D02*
X12802380Y30290477D01*
X11754761Y30052381D02*
X12469047Y29814286D01*
X12469047Y30433334D01*
%TO.C,R3*%
X16052380Y29433334D02*
X15576190Y29100000D01*
X16052380Y28861905D02*
X15052380Y28861905D01*
X15052380Y29242858D01*
X15100000Y29338096D01*
X15147619Y29385715D01*
X15242857Y29433334D01*
X15385714Y29433334D01*
X15480952Y29385715D01*
X15528571Y29338096D01*
X15576190Y29242858D01*
X15576190Y28861905D01*
X15052380Y29766667D02*
X15052380Y30385715D01*
X15433333Y30052381D01*
X15433333Y30195239D01*
X15480952Y30290477D01*
X15528571Y30338096D01*
X15623809Y30385715D01*
X15861904Y30385715D01*
X15957142Y30338096D01*
X16004761Y30290477D01*
X16052380Y30195239D01*
X16052380Y29909524D01*
X16004761Y29814286D01*
X15957142Y29766667D01*
%TO.C,R2*%
X5733333Y31897620D02*
X5400000Y32373810D01*
X5161904Y31897620D02*
X5161904Y32897620D01*
X5542857Y32897620D01*
X5638095Y32850000D01*
X5685714Y32802381D01*
X5733333Y32707143D01*
X5733333Y32564286D01*
X5685714Y32469048D01*
X5638095Y32421429D01*
X5542857Y32373810D01*
X5161904Y32373810D01*
X6114285Y32802381D02*
X6161904Y32850000D01*
X6257142Y32897620D01*
X6495238Y32897620D01*
X6590476Y32850000D01*
X6638095Y32802381D01*
X6685714Y32707143D01*
X6685714Y32611905D01*
X6638095Y32469048D01*
X6066666Y31897620D01*
X6685714Y31897620D01*
%TO.C,R1*%
X16152380Y40633334D02*
X15676190Y40300000D01*
X16152380Y40061905D02*
X15152380Y40061905D01*
X15152380Y40442858D01*
X15200000Y40538096D01*
X15247619Y40585715D01*
X15342857Y40633334D01*
X15485714Y40633334D01*
X15580952Y40585715D01*
X15628571Y40538096D01*
X15676190Y40442858D01*
X15676190Y40061905D01*
X16152380Y41585715D02*
X16152380Y41014286D01*
X16152380Y41300000D02*
X15152380Y41300000D01*
X15295238Y41204762D01*
X15390476Y41109524D01*
X15438095Y41014286D01*
%TO.C,Q1*%
X22847619Y35404762D02*
X22800000Y35309524D01*
X22704761Y35214286D01*
X22561904Y35071429D01*
X22514285Y34976191D01*
X22514285Y34880953D01*
X22752380Y34928572D02*
X22704761Y34833334D01*
X22609523Y34738096D01*
X22419047Y34690477D01*
X22085714Y34690477D01*
X21895238Y34738096D01*
X21800000Y34833334D01*
X21752380Y34928572D01*
X21752380Y35119048D01*
X21800000Y35214286D01*
X21895238Y35309524D01*
X22085714Y35357143D01*
X22419047Y35357143D01*
X22609523Y35309524D01*
X22704761Y35214286D01*
X22752380Y35119048D01*
X22752380Y34928572D01*
X22752380Y36309524D02*
X22752380Y35738096D01*
X22752380Y36023810D02*
X21752380Y36023810D01*
X21895238Y35928572D01*
X21990476Y35833334D01*
X22038095Y35738096D01*
%TO.C,JP1*%
X22566666Y29747620D02*
X22566666Y29033334D01*
X22519047Y28890477D01*
X22423809Y28795239D01*
X22280952Y28747620D01*
X22185714Y28747620D01*
X23042857Y28747620D02*
X23042857Y29747620D01*
X23423809Y29747620D01*
X23519047Y29700000D01*
X23566666Y29652381D01*
X23614285Y29557143D01*
X23614285Y29414286D01*
X23566666Y29319048D01*
X23519047Y29271429D01*
X23423809Y29223810D01*
X23042857Y29223810D01*
X24566666Y28747620D02*
X23995238Y28747620D01*
X24280952Y28747620D02*
X24280952Y29747620D01*
X24185714Y29604762D01*
X24090476Y29509524D01*
X23995238Y29461905D01*
%TO.C,J4*%
X40466666Y21347620D02*
X40466666Y20633334D01*
X40419047Y20490477D01*
X40323809Y20395239D01*
X40180952Y20347620D01*
X40085714Y20347620D01*
X41371428Y21014286D02*
X41371428Y20347620D01*
X41133333Y21395239D02*
X40895238Y20680953D01*
X41514285Y20680953D01*
%TO.C,J3*%
X27966666Y12147620D02*
X27966666Y11433334D01*
X27919047Y11290477D01*
X27823809Y11195239D01*
X27680952Y11147620D01*
X27585714Y11147620D01*
X28347619Y12147620D02*
X28966666Y12147620D01*
X28633333Y11766667D01*
X28776190Y11766667D01*
X28871428Y11719048D01*
X28919047Y11671429D01*
X28966666Y11576191D01*
X28966666Y11338096D01*
X28919047Y11242858D01*
X28871428Y11195239D01*
X28776190Y11147620D01*
X28490476Y11147620D01*
X28395238Y11195239D01*
X28347619Y11242858D01*
%TO.C,J2*%
X42166666Y12047620D02*
X42166666Y11333334D01*
X42119047Y11190477D01*
X42023809Y11095239D01*
X41880952Y11047620D01*
X41785714Y11047620D01*
X42595238Y11952381D02*
X42642857Y12000000D01*
X42738095Y12047620D01*
X42976190Y12047620D01*
X43071428Y12000000D01*
X43119047Y11952381D01*
X43166666Y11857143D01*
X43166666Y11761905D01*
X43119047Y11619048D01*
X42547619Y11047620D01*
X43166666Y11047620D01*
%TO.C,J1*%
X40566666Y33447620D02*
X40566666Y32733334D01*
X40519047Y32590477D01*
X40423809Y32495239D01*
X40280952Y32447620D01*
X40185714Y32447620D01*
X41566666Y32447620D02*
X40995238Y32447620D01*
X41280952Y32447620D02*
X41280952Y33447620D01*
X41185714Y33304762D01*
X41090476Y33209524D01*
X40995238Y33161905D01*
%TO.C,IC1*%
X9752380Y34523810D02*
X8752380Y34523810D01*
X9657142Y35571429D02*
X9704761Y35523810D01*
X9752380Y35380953D01*
X9752380Y35285715D01*
X9704761Y35142858D01*
X9609523Y35047620D01*
X9514285Y35000000D01*
X9323809Y34952381D01*
X9180952Y34952381D01*
X8990476Y35000000D01*
X8895238Y35047620D01*
X8800000Y35142858D01*
X8752380Y35285715D01*
X8752380Y35380953D01*
X8800000Y35523810D01*
X8847619Y35571429D01*
X9752380Y36523810D02*
X9752380Y35952381D01*
X9752380Y36238096D02*
X8752380Y36238096D01*
X8895238Y36142858D01*
X8990476Y36047620D01*
X9038095Y35952381D01*
%TO.C,D1*%
X27761904Y1547620D02*
X27761904Y2547620D01*
X28000000Y2547620D01*
X28142857Y2500000D01*
X28238095Y2404762D01*
X28285714Y2309524D01*
X28333333Y2119048D01*
X28333333Y1976191D01*
X28285714Y1785715D01*
X28238095Y1690477D01*
X28142857Y1595239D01*
X28000000Y1547620D01*
X27761904Y1547620D01*
X29285714Y1547620D02*
X28714285Y1547620D01*
X29000000Y1547620D02*
X29000000Y2547620D01*
X28904761Y2404762D01*
X28809523Y2309524D01*
X28714285Y2261905D01*
%TO.C,C6*%
X5733333Y35262858D02*
X5685714Y35215239D01*
X5542857Y35167620D01*
X5447619Y35167620D01*
X5304761Y35215239D01*
X5209523Y35310477D01*
X5161904Y35405715D01*
X5114285Y35596191D01*
X5114285Y35739048D01*
X5161904Y35929524D01*
X5209523Y36024762D01*
X5304761Y36120000D01*
X5447619Y36167620D01*
X5542857Y36167620D01*
X5685714Y36120000D01*
X5733333Y36072381D01*
X6590476Y36167620D02*
X6400000Y36167620D01*
X6304761Y36120000D01*
X6257142Y36072381D01*
X6161904Y35929524D01*
X6114285Y35739048D01*
X6114285Y35358096D01*
X6161904Y35262858D01*
X6209523Y35215239D01*
X6304761Y35167620D01*
X6495238Y35167620D01*
X6590476Y35215239D01*
X6638095Y35262858D01*
X6685714Y35358096D01*
X6685714Y35596191D01*
X6638095Y35691429D01*
X6590476Y35739048D01*
X6495238Y35786667D01*
X6304761Y35786667D01*
X6209523Y35739048D01*
X6161904Y35691429D01*
X6114285Y35596191D01*
%TO.C,C5*%
X12577142Y40633334D02*
X12624761Y40585715D01*
X12672380Y40442858D01*
X12672380Y40347620D01*
X12624761Y40204762D01*
X12529523Y40109524D01*
X12434285Y40061905D01*
X12243809Y40014286D01*
X12100952Y40014286D01*
X11910476Y40061905D01*
X11815238Y40109524D01*
X11720000Y40204762D01*
X11672380Y40347620D01*
X11672380Y40442858D01*
X11720000Y40585715D01*
X11767619Y40633334D01*
X11672380Y41538096D02*
X11672380Y41061905D01*
X12148571Y41014286D01*
X12100952Y41061905D01*
X12053333Y41157143D01*
X12053333Y41395239D01*
X12100952Y41490477D01*
X12148571Y41538096D01*
X12243809Y41585715D01*
X12481904Y41585715D01*
X12577142Y41538096D01*
X12624761Y41490477D01*
X12672380Y41395239D01*
X12672380Y41157143D01*
X12624761Y41061905D01*
X12577142Y41014286D01*
%TO.C,C4*%
X28333333Y4842858D02*
X28285714Y4795239D01*
X28142857Y4747620D01*
X28047619Y4747620D01*
X27904761Y4795239D01*
X27809523Y4890477D01*
X27761904Y4985715D01*
X27714285Y5176191D01*
X27714285Y5319048D01*
X27761904Y5509524D01*
X27809523Y5604762D01*
X27904761Y5700000D01*
X28047619Y5747620D01*
X28142857Y5747620D01*
X28285714Y5700000D01*
X28333333Y5652381D01*
X29190476Y5414286D02*
X29190476Y4747620D01*
X28952380Y5795239D02*
X28714285Y5080953D01*
X29333333Y5080953D01*
%TO.C,C3*%
X28233333Y7942858D02*
X28185714Y7895239D01*
X28042857Y7847620D01*
X27947619Y7847620D01*
X27804761Y7895239D01*
X27709523Y7990477D01*
X27661904Y8085715D01*
X27614285Y8276191D01*
X27614285Y8419048D01*
X27661904Y8609524D01*
X27709523Y8704762D01*
X27804761Y8800000D01*
X27947619Y8847620D01*
X28042857Y8847620D01*
X28185714Y8800000D01*
X28233333Y8752381D01*
X28566666Y8847620D02*
X29185714Y8847620D01*
X28852380Y8466667D01*
X28995238Y8466667D01*
X29090476Y8419048D01*
X29138095Y8371429D01*
X29185714Y8276191D01*
X29185714Y8038096D01*
X29138095Y7942858D01*
X29090476Y7895239D01*
X28995238Y7847620D01*
X28709523Y7847620D01*
X28614285Y7895239D01*
X28566666Y7942858D01*
%TO.C,C2*%
X19337142Y29433334D02*
X19384761Y29385715D01*
X19432380Y29242858D01*
X19432380Y29147620D01*
X19384761Y29004762D01*
X19289523Y28909524D01*
X19194285Y28861905D01*
X19003809Y28814286D01*
X18860952Y28814286D01*
X18670476Y28861905D01*
X18575238Y28909524D01*
X18480000Y29004762D01*
X18432380Y29147620D01*
X18432380Y29242858D01*
X18480000Y29385715D01*
X18527619Y29433334D01*
X18527619Y29814286D02*
X18480000Y29861905D01*
X18432380Y29957143D01*
X18432380Y30195239D01*
X18480000Y30290477D01*
X18527619Y30338096D01*
X18622857Y30385715D01*
X18718095Y30385715D01*
X18860952Y30338096D01*
X19432380Y29766667D01*
X19432380Y30385715D01*
%TO.C,C1*%
X5733333Y28662858D02*
X5685714Y28615239D01*
X5542857Y28567620D01*
X5447619Y28567620D01*
X5304761Y28615239D01*
X5209523Y28710477D01*
X5161904Y28805715D01*
X5114285Y28996191D01*
X5114285Y29139048D01*
X5161904Y29329524D01*
X5209523Y29424762D01*
X5304761Y29520000D01*
X5447619Y29567620D01*
X5542857Y29567620D01*
X5685714Y29520000D01*
X5733333Y29472381D01*
X6685714Y28567620D02*
X6114285Y28567620D01*
X6400000Y28567620D02*
X6400000Y29567620D01*
X6304761Y29424762D01*
X6209523Y29329524D01*
X6114285Y29281905D01*
%TO.C,G\u002A\u002A\u002A*%
G36*
X26557893Y29795104D02*
G01*
X26534252Y29808397D01*
X26511439Y29825291D01*
X26502939Y29833204D01*
X26497737Y29840786D01*
X26486589Y29858718D01*
X26469880Y29886338D01*
X26447991Y29922987D01*
X26421306Y29968002D01*
X26390208Y30020723D01*
X26355080Y30080488D01*
X26316305Y30146637D01*
X26274266Y30218508D01*
X26229345Y30295440D01*
X26181926Y30376772D01*
X26132392Y30461842D01*
X26081125Y30549991D01*
X26028509Y30640556D01*
X25974926Y30732876D01*
X25920760Y30826291D01*
X25866393Y30920139D01*
X25812209Y31013759D01*
X25758590Y31106490D01*
X25705920Y31197671D01*
X25654581Y31286641D01*
X25604956Y31372738D01*
X25557428Y31455301D01*
X25512381Y31533670D01*
X25470197Y31607183D01*
X25431259Y31675180D01*
X25395950Y31736998D01*
X25364653Y31791977D01*
X25337752Y31839455D01*
X25315628Y31878772D01*
X25298665Y31909267D01*
X25287246Y31930278D01*
X25281754Y31941144D01*
X25281443Y31941921D01*
X25275395Y31969067D01*
X25273260Y32001792D01*
X25273869Y32012450D01*
X25917771Y32012450D01*
X25917927Y31945609D01*
X25919065Y31888432D01*
X25921454Y31837902D01*
X25925360Y31791005D01*
X25931052Y31744724D01*
X25938798Y31696042D01*
X25948867Y31641945D01*
X25952203Y31625100D01*
X25988141Y31477145D01*
X26035550Y31333952D01*
X26093930Y31196041D01*
X26162783Y31063933D01*
X26241608Y30938147D01*
X26329906Y30819203D01*
X26427177Y30707622D01*
X26532922Y30603924D01*
X26646641Y30508628D01*
X26767834Y30422256D01*
X26896003Y30345326D01*
X27030648Y30278359D01*
X27171268Y30221876D01*
X27317365Y30176396D01*
X27352325Y30167389D01*
X27412177Y30153139D01*
X27465936Y30141784D01*
X27516334Y30133021D01*
X27566101Y30126547D01*
X27617969Y30122061D01*
X27674670Y30119261D01*
X27738936Y30117844D01*
X27803175Y30117501D01*
X27860252Y30117623D01*
X27906853Y30118064D01*
X27945198Y30118939D01*
X27977510Y30120360D01*
X28006011Y30122441D01*
X28032920Y30125295D01*
X28060461Y30129035D01*
X28076225Y30131440D01*
X28232436Y30162100D01*
X28383314Y30204213D01*
X28528652Y30257680D01*
X28668249Y30322406D01*
X28801900Y30398292D01*
X28929400Y30485241D01*
X29050546Y30583157D01*
X29081763Y30611116D01*
X29191027Y30719567D01*
X29290255Y30835671D01*
X29379243Y30959041D01*
X29457787Y31089293D01*
X29525682Y31226040D01*
X29582725Y31368897D01*
X29628711Y31517478D01*
X29663438Y31671398D01*
X29673431Y31729875D01*
X29679462Y31774179D01*
X29682012Y31811490D01*
X29680974Y31846759D01*
X29676239Y31884939D01*
X29669192Y31923550D01*
X29643612Y32022761D01*
X29606471Y32123539D01*
X29558641Y32224837D01*
X29500988Y32325608D01*
X29434382Y32424806D01*
X29359691Y32521384D01*
X29277785Y32614295D01*
X29189532Y32702494D01*
X29095800Y32784932D01*
X28997459Y32860563D01*
X28895378Y32928342D01*
X28790424Y32987220D01*
X28783326Y32990814D01*
X28696494Y33029777D01*
X28599299Y33064968D01*
X28493598Y33096063D01*
X28381250Y33122736D01*
X28264115Y33144662D01*
X28144050Y33161516D01*
X28022916Y33172974D01*
X27902571Y33178711D01*
X27784874Y33178401D01*
X27725331Y33175743D01*
X27600751Y33165386D01*
X27482098Y33149767D01*
X27370815Y33129162D01*
X27268342Y33103848D01*
X27176122Y33074101D01*
X27156731Y33066746D01*
X27129311Y33056564D01*
X27106029Y33048924D01*
X27089503Y33044619D01*
X27082555Y33044259D01*
X27076195Y33054151D01*
X27080367Y33068473D01*
X27094047Y33086384D01*
X27116215Y33107040D01*
X27145849Y33129599D01*
X27181925Y33153220D01*
X27223422Y33177059D01*
X27269317Y33200275D01*
X27275237Y33203056D01*
X27397920Y33253975D01*
X27528856Y33296631D01*
X27666485Y33330823D01*
X27809247Y33356348D01*
X27955581Y33373006D01*
X28103928Y33380596D01*
X28252728Y33378915D01*
X28400419Y33367762D01*
X28476275Y33358151D01*
X28621368Y33331519D01*
X28759286Y33294580D01*
X28890661Y33247043D01*
X29016127Y33188617D01*
X29136315Y33119013D01*
X29251859Y33037938D01*
X29350965Y32956194D01*
X29407803Y32900097D01*
X29463886Y32833434D01*
X29517460Y32758301D01*
X29520683Y32753375D01*
X29537529Y32727854D01*
X29551926Y32706720D01*
X29562471Y32691982D01*
X29567761Y32685651D01*
X29568001Y32685550D01*
X29567523Y32690933D01*
X29562131Y32705914D01*
X29552606Y32728740D01*
X29539733Y32757661D01*
X29524293Y32790924D01*
X29507070Y32826776D01*
X29488846Y32863465D01*
X29485916Y32869245D01*
X29454948Y32926476D01*
X29419272Y32986146D01*
X29380078Y33046687D01*
X29338555Y33106535D01*
X29295895Y33164124D01*
X29253289Y33217887D01*
X29211925Y33266260D01*
X29172996Y33307676D01*
X29137691Y33340570D01*
X29113201Y33359463D01*
X29053493Y33396255D01*
X28983396Y33432959D01*
X28905197Y33468725D01*
X28821186Y33502702D01*
X28733650Y33534040D01*
X28644876Y33561887D01*
X28557154Y33585394D01*
X28472771Y33603710D01*
X28441261Y33609263D01*
X28390624Y33615939D01*
X28330109Y33621255D01*
X28262473Y33625111D01*
X28190476Y33627405D01*
X28116875Y33628039D01*
X28044429Y33626911D01*
X28000626Y33625252D01*
X27838472Y33613959D01*
X27687146Y33596031D01*
X27546648Y33571468D01*
X27416977Y33540270D01*
X27298132Y33502437D01*
X27190113Y33457968D01*
X27092919Y33406863D01*
X27006549Y33349121D01*
X26974053Y33323352D01*
X26952728Y33306086D01*
X26934667Y33292423D01*
X26922271Y33284128D01*
X26918381Y33282450D01*
X26910037Y33286860D01*
X26909984Y33299411D01*
X26917722Y33319078D01*
X26932749Y33344839D01*
X26954562Y33375669D01*
X26979141Y33406380D01*
X27039231Y33468840D01*
X27110598Y33526988D01*
X27192489Y33580573D01*
X27284147Y33629343D01*
X27384818Y33673049D01*
X27493745Y33711437D01*
X27610175Y33744259D01*
X27733351Y33771262D01*
X27862520Y33792196D01*
X27996924Y33806810D01*
X28135810Y33814852D01*
X28212750Y33816377D01*
X28252335Y33816692D01*
X28280490Y33817135D01*
X28298482Y33817853D01*
X28307582Y33818993D01*
X28309058Y33820700D01*
X28304179Y33823123D01*
X28295658Y33825955D01*
X28231295Y33843210D01*
X28156929Y33858057D01*
X28075080Y33870179D01*
X27988270Y33879258D01*
X27899023Y33884978D01*
X27809860Y33887022D01*
X27809525Y33887022D01*
X27695801Y33884593D01*
X27590009Y33876774D01*
X27488375Y33863107D01*
X27387130Y33843137D01*
X27328361Y33828815D01*
X27181933Y33784411D01*
X27040878Y33728795D01*
X26905701Y33662482D01*
X26776907Y33585990D01*
X26655004Y33499836D01*
X26540498Y33404538D01*
X26433893Y33300613D01*
X26335696Y33188578D01*
X26246414Y33068951D01*
X26166551Y32942248D01*
X26096615Y32808987D01*
X26037110Y32669685D01*
X25988544Y32524859D01*
X25964672Y32434725D01*
X25949502Y32367125D01*
X25937776Y32304610D01*
X25929127Y32243853D01*
X25923184Y32181527D01*
X25919578Y32114304D01*
X25917940Y32038859D01*
X25917771Y32012450D01*
X25273869Y32012450D01*
X25275101Y32034023D01*
X25280196Y32057539D01*
X25284103Y32065194D01*
X25294050Y32083288D01*
X25309721Y32111268D01*
X25330798Y32148581D01*
X25356964Y32194671D01*
X25387901Y32248986D01*
X25423293Y32310970D01*
X25462823Y32380070D01*
X25506173Y32455732D01*
X25553026Y32537401D01*
X25603065Y32624525D01*
X25655972Y32716548D01*
X25711432Y32812917D01*
X25769125Y32913077D01*
X25828736Y33016475D01*
X25879612Y33104650D01*
X25964233Y33251162D01*
X26042607Y33386656D01*
X26114753Y33511164D01*
X26180688Y33624715D01*
X26240430Y33727340D01*
X26293997Y33819069D01*
X26341406Y33899931D01*
X26382675Y33969959D01*
X26417822Y34029181D01*
X26446866Y34077628D01*
X26469823Y34115331D01*
X26486711Y34142319D01*
X26497548Y34158624D01*
X26501032Y34163155D01*
X26527291Y34188237D01*
X26554817Y34204822D01*
X26565429Y34209193D01*
X26569741Y34210764D01*
X26574282Y34212204D01*
X26579597Y34213518D01*
X26586235Y34214713D01*
X26594741Y34215793D01*
X26605662Y34216764D01*
X26619545Y34217633D01*
X26636937Y34218405D01*
X26658385Y34219086D01*
X26684435Y34219681D01*
X26715634Y34220197D01*
X26752529Y34220638D01*
X26795667Y34221011D01*
X26845594Y34221322D01*
X26902857Y34221575D01*
X26968003Y34221778D01*
X27041579Y34221935D01*
X27124132Y34222053D01*
X27216207Y34222137D01*
X27318353Y34222193D01*
X27431115Y34222226D01*
X27555041Y34222243D01*
X27690677Y34222249D01*
X27809525Y34222250D01*
X27955069Y34222248D01*
X28088459Y34222239D01*
X28210243Y34222218D01*
X28320967Y34222179D01*
X28421176Y34222115D01*
X28511419Y34222022D01*
X28592240Y34221894D01*
X28664188Y34221725D01*
X28727808Y34221510D01*
X28783647Y34221243D01*
X28832251Y34220918D01*
X28874167Y34220529D01*
X28909943Y34220072D01*
X28940123Y34219540D01*
X28965255Y34218928D01*
X28985885Y34218230D01*
X29002560Y34217441D01*
X29015826Y34216555D01*
X29026230Y34215565D01*
X29034319Y34214468D01*
X29040638Y34213256D01*
X29045736Y34211925D01*
X29050157Y34210469D01*
X29052967Y34209437D01*
X29084981Y34192831D01*
X29113428Y34169853D01*
X29113530Y34169750D01*
X29119728Y34161587D01*
X29130872Y34144664D01*
X29147059Y34118813D01*
X29168389Y34083866D01*
X29194960Y34039655D01*
X29226871Y33986014D01*
X29264219Y33922774D01*
X29307104Y33849767D01*
X29355625Y33766827D01*
X29409879Y33673785D01*
X29469966Y33570474D01*
X29535983Y33456726D01*
X29608030Y33332374D01*
X29686206Y33197249D01*
X29734221Y33114175D01*
X29795364Y33008304D01*
X29854865Y32905180D01*
X29912408Y32805357D01*
X29967673Y32709390D01*
X30020343Y32617835D01*
X30070101Y32531246D01*
X30116627Y32450178D01*
X30159606Y32375187D01*
X30198718Y32306826D01*
X30233645Y32245653D01*
X30264071Y32192221D01*
X30289676Y32147085D01*
X30310143Y32110801D01*
X30325155Y32083923D01*
X30334393Y32067007D01*
X30337472Y32060864D01*
X30345427Y32023714D01*
X30345433Y31982708D01*
X30337757Y31943567D01*
X30331235Y31926725D01*
X30324884Y31914523D01*
X30312662Y31892285D01*
X30294952Y31860670D01*
X30272139Y31820341D01*
X30244605Y31771958D01*
X30212736Y31716184D01*
X30176915Y31653679D01*
X30137525Y31585106D01*
X30094951Y31511125D01*
X30049577Y31432397D01*
X30001786Y31349585D01*
X29951962Y31263350D01*
X29900489Y31174354D01*
X29847752Y31083256D01*
X29794133Y30990720D01*
X29740018Y30897406D01*
X29685789Y30803976D01*
X29631830Y30711092D01*
X29578526Y30619414D01*
X29526260Y30529605D01*
X29475417Y30442324D01*
X29426379Y30358235D01*
X29379532Y30277999D01*
X29335258Y30202276D01*
X29293942Y30131729D01*
X29255967Y30067018D01*
X29221719Y30008806D01*
X29191579Y29957753D01*
X29165932Y29914521D01*
X29145163Y29879771D01*
X29129655Y29854166D01*
X29119791Y29838365D01*
X29116199Y29833204D01*
X29096431Y29816437D01*
X29072210Y29800747D01*
X29061156Y29795104D01*
X29028725Y29780425D01*
X26590325Y29780425D01*
X26557893Y29795104D01*
G37*
D12*
X26557893Y29795104D02*
X26534252Y29808397D01*
X26511439Y29825291D01*
X26502939Y29833204D01*
X26497737Y29840786D01*
X26486589Y29858718D01*
X26469880Y29886338D01*
X26447991Y29922987D01*
X26421306Y29968002D01*
X26390208Y30020723D01*
X26355080Y30080488D01*
X26316305Y30146637D01*
X26274266Y30218508D01*
X26229345Y30295440D01*
X26181926Y30376772D01*
X26132392Y30461842D01*
X26081125Y30549991D01*
X26028509Y30640556D01*
X25974926Y30732876D01*
X25920760Y30826291D01*
X25866393Y30920139D01*
X25812209Y31013759D01*
X25758590Y31106490D01*
X25705920Y31197671D01*
X25654581Y31286641D01*
X25604956Y31372738D01*
X25557428Y31455301D01*
X25512381Y31533670D01*
X25470197Y31607183D01*
X25431259Y31675180D01*
X25395950Y31736998D01*
X25364653Y31791977D01*
X25337752Y31839455D01*
X25315628Y31878772D01*
X25298665Y31909267D01*
X25287246Y31930278D01*
X25281754Y31941144D01*
X25281443Y31941921D01*
X25275395Y31969067D01*
X25273260Y32001792D01*
X25273869Y32012450D01*
X25917771Y32012450D01*
X25917927Y31945609D01*
X25919065Y31888432D01*
X25921454Y31837902D01*
X25925360Y31791005D01*
X25931052Y31744724D01*
X25938798Y31696042D01*
X25948867Y31641945D01*
X25952203Y31625100D01*
X25988141Y31477145D01*
X26035550Y31333952D01*
X26093930Y31196041D01*
X26162783Y31063933D01*
X26241608Y30938147D01*
X26329906Y30819203D01*
X26427177Y30707622D01*
X26532922Y30603924D01*
X26646641Y30508628D01*
X26767834Y30422256D01*
X26896003Y30345326D01*
X27030648Y30278359D01*
X27171268Y30221876D01*
X27317365Y30176396D01*
X27352325Y30167389D01*
X27412177Y30153139D01*
X27465936Y30141784D01*
X27516334Y30133021D01*
X27566101Y30126547D01*
X27617969Y30122061D01*
X27674670Y30119261D01*
X27738936Y30117844D01*
X27803175Y30117501D01*
X27860252Y30117623D01*
X27906853Y30118064D01*
X27945198Y30118939D01*
X27977510Y30120360D01*
X28006011Y30122441D01*
X28032920Y30125295D01*
X28060461Y30129035D01*
X28076225Y30131440D01*
X28232436Y30162100D01*
X28383314Y30204213D01*
X28528652Y30257680D01*
X28668249Y30322406D01*
X28801900Y30398292D01*
X28929400Y30485241D01*
X29050546Y30583157D01*
X29081763Y30611116D01*
X29191027Y30719567D01*
X29290255Y30835671D01*
X29379243Y30959041D01*
X29457787Y31089293D01*
X29525682Y31226040D01*
X29582725Y31368897D01*
X29628711Y31517478D01*
X29663438Y31671398D01*
X29673431Y31729875D01*
X29679462Y31774179D01*
X29682012Y31811490D01*
X29680974Y31846759D01*
X29676239Y31884939D01*
X29669192Y31923550D01*
X29643612Y32022761D01*
X29606471Y32123539D01*
X29558641Y32224837D01*
X29500988Y32325608D01*
X29434382Y32424806D01*
X29359691Y32521384D01*
X29277785Y32614295D01*
X29189532Y32702494D01*
X29095800Y32784932D01*
X28997459Y32860563D01*
X28895378Y32928342D01*
X28790424Y32987220D01*
X28783326Y32990814D01*
X28696494Y33029777D01*
X28599299Y33064968D01*
X28493598Y33096063D01*
X28381250Y33122736D01*
X28264115Y33144662D01*
X28144050Y33161516D01*
X28022916Y33172974D01*
X27902571Y33178711D01*
X27784874Y33178401D01*
X27725331Y33175743D01*
X27600751Y33165386D01*
X27482098Y33149767D01*
X27370815Y33129162D01*
X27268342Y33103848D01*
X27176122Y33074101D01*
X27156731Y33066746D01*
X27129311Y33056564D01*
X27106029Y33048924D01*
X27089503Y33044619D01*
X27082555Y33044259D01*
X27076195Y33054151D01*
X27080367Y33068473D01*
X27094047Y33086384D01*
X27116215Y33107040D01*
X27145849Y33129599D01*
X27181925Y33153220D01*
X27223422Y33177059D01*
X27269317Y33200275D01*
X27275237Y33203056D01*
X27397920Y33253975D01*
X27528856Y33296631D01*
X27666485Y33330823D01*
X27809247Y33356348D01*
X27955581Y33373006D01*
X28103928Y33380596D01*
X28252728Y33378915D01*
X28400419Y33367762D01*
X28476275Y33358151D01*
X28621368Y33331519D01*
X28759286Y33294580D01*
X28890661Y33247043D01*
X29016127Y33188617D01*
X29136315Y33119013D01*
X29251859Y33037938D01*
X29350965Y32956194D01*
X29407803Y32900097D01*
X29463886Y32833434D01*
X29517460Y32758301D01*
X29520683Y32753375D01*
X29537529Y32727854D01*
X29551926Y32706720D01*
X29562471Y32691982D01*
X29567761Y32685651D01*
X29568001Y32685550D01*
X29567523Y32690933D01*
X29562131Y32705914D01*
X29552606Y32728740D01*
X29539733Y32757661D01*
X29524293Y32790924D01*
X29507070Y32826776D01*
X29488846Y32863465D01*
X29485916Y32869245D01*
X29454948Y32926476D01*
X29419272Y32986146D01*
X29380078Y33046687D01*
X29338555Y33106535D01*
X29295895Y33164124D01*
X29253289Y33217887D01*
X29211925Y33266260D01*
X29172996Y33307676D01*
X29137691Y33340570D01*
X29113201Y33359463D01*
X29053493Y33396255D01*
X28983396Y33432959D01*
X28905197Y33468725D01*
X28821186Y33502702D01*
X28733650Y33534040D01*
X28644876Y33561887D01*
X28557154Y33585394D01*
X28472771Y33603710D01*
X28441261Y33609263D01*
X28390624Y33615939D01*
X28330109Y33621255D01*
X28262473Y33625111D01*
X28190476Y33627405D01*
X28116875Y33628039D01*
X28044429Y33626911D01*
X28000626Y33625252D01*
X27838472Y33613959D01*
X27687146Y33596031D01*
X27546648Y33571468D01*
X27416977Y33540270D01*
X27298132Y33502437D01*
X27190113Y33457968D01*
X27092919Y33406863D01*
X27006549Y33349121D01*
X26974053Y33323352D01*
X26952728Y33306086D01*
X26934667Y33292423D01*
X26922271Y33284128D01*
X26918381Y33282450D01*
X26910037Y33286860D01*
X26909984Y33299411D01*
X26917722Y33319078D01*
X26932749Y33344839D01*
X26954562Y33375669D01*
X26979141Y33406380D01*
X27039231Y33468840D01*
X27110598Y33526988D01*
X27192489Y33580573D01*
X27284147Y33629343D01*
X27384818Y33673049D01*
X27493745Y33711437D01*
X27610175Y33744259D01*
X27733351Y33771262D01*
X27862520Y33792196D01*
X27996924Y33806810D01*
X28135810Y33814852D01*
X28212750Y33816377D01*
X28252335Y33816692D01*
X28280490Y33817135D01*
X28298482Y33817853D01*
X28307582Y33818993D01*
X28309058Y33820700D01*
X28304179Y33823123D01*
X28295658Y33825955D01*
X28231295Y33843210D01*
X28156929Y33858057D01*
X28075080Y33870179D01*
X27988270Y33879258D01*
X27899023Y33884978D01*
X27809860Y33887022D01*
X27809525Y33887022D01*
X27695801Y33884593D01*
X27590009Y33876774D01*
X27488375Y33863107D01*
X27387130Y33843137D01*
X27328361Y33828815D01*
X27181933Y33784411D01*
X27040878Y33728795D01*
X26905701Y33662482D01*
X26776907Y33585990D01*
X26655004Y33499836D01*
X26540498Y33404538D01*
X26433893Y33300613D01*
X26335696Y33188578D01*
X26246414Y33068951D01*
X26166551Y32942248D01*
X26096615Y32808987D01*
X26037110Y32669685D01*
X25988544Y32524859D01*
X25964672Y32434725D01*
X25949502Y32367125D01*
X25937776Y32304610D01*
X25929127Y32243853D01*
X25923184Y32181527D01*
X25919578Y32114304D01*
X25917940Y32038859D01*
X25917771Y32012450D01*
X25273869Y32012450D01*
X25275101Y32034023D01*
X25280196Y32057539D01*
X25284103Y32065194D01*
X25294050Y32083288D01*
X25309721Y32111268D01*
X25330798Y32148581D01*
X25356964Y32194671D01*
X25387901Y32248986D01*
X25423293Y32310970D01*
X25462823Y32380070D01*
X25506173Y32455732D01*
X25553026Y32537401D01*
X25603065Y32624525D01*
X25655972Y32716548D01*
X25711432Y32812917D01*
X25769125Y32913077D01*
X25828736Y33016475D01*
X25879612Y33104650D01*
X25964233Y33251162D01*
X26042607Y33386656D01*
X26114753Y33511164D01*
X26180688Y33624715D01*
X26240430Y33727340D01*
X26293997Y33819069D01*
X26341406Y33899931D01*
X26382675Y33969959D01*
X26417822Y34029181D01*
X26446866Y34077628D01*
X26469823Y34115331D01*
X26486711Y34142319D01*
X26497548Y34158624D01*
X26501032Y34163155D01*
X26527291Y34188237D01*
X26554817Y34204822D01*
X26565429Y34209193D01*
X26569741Y34210764D01*
X26574282Y34212204D01*
X26579597Y34213518D01*
X26586235Y34214713D01*
X26594741Y34215793D01*
X26605662Y34216764D01*
X26619545Y34217633D01*
X26636937Y34218405D01*
X26658385Y34219086D01*
X26684435Y34219681D01*
X26715634Y34220197D01*
X26752529Y34220638D01*
X26795667Y34221011D01*
X26845594Y34221322D01*
X26902857Y34221575D01*
X26968003Y34221778D01*
X27041579Y34221935D01*
X27124132Y34222053D01*
X27216207Y34222137D01*
X27318353Y34222193D01*
X27431115Y34222226D01*
X27555041Y34222243D01*
X27690677Y34222249D01*
X27809525Y34222250D01*
X27955069Y34222248D01*
X28088459Y34222239D01*
X28210243Y34222218D01*
X28320967Y34222179D01*
X28421176Y34222115D01*
X28511419Y34222022D01*
X28592240Y34221894D01*
X28664188Y34221725D01*
X28727808Y34221510D01*
X28783647Y34221243D01*
X28832251Y34220918D01*
X28874167Y34220529D01*
X28909943Y34220072D01*
X28940123Y34219540D01*
X28965255Y34218928D01*
X28985885Y34218230D01*
X29002560Y34217441D01*
X29015826Y34216555D01*
X29026230Y34215565D01*
X29034319Y34214468D01*
X29040638Y34213256D01*
X29045736Y34211925D01*
X29050157Y34210469D01*
X29052967Y34209437D01*
X29084981Y34192831D01*
X29113428Y34169853D01*
X29113530Y34169750D01*
X29119728Y34161587D01*
X29130872Y34144664D01*
X29147059Y34118813D01*
X29168389Y34083866D01*
X29194960Y34039655D01*
X29226871Y33986014D01*
X29264219Y33922774D01*
X29307104Y33849767D01*
X29355625Y33766827D01*
X29409879Y33673785D01*
X29469966Y33570474D01*
X29535983Y33456726D01*
X29608030Y33332374D01*
X29686206Y33197249D01*
X29734221Y33114175D01*
X29795364Y33008304D01*
X29854865Y32905180D01*
X29912408Y32805357D01*
X29967673Y32709390D01*
X30020343Y32617835D01*
X30070101Y32531246D01*
X30116627Y32450178D01*
X30159606Y32375187D01*
X30198718Y32306826D01*
X30233645Y32245653D01*
X30264071Y32192221D01*
X30289676Y32147085D01*
X30310143Y32110801D01*
X30325155Y32083923D01*
X30334393Y32067007D01*
X30337472Y32060864D01*
X30345427Y32023714D01*
X30345433Y31982708D01*
X30337757Y31943567D01*
X30331235Y31926725D01*
X30324884Y31914523D01*
X30312662Y31892285D01*
X30294952Y31860670D01*
X30272139Y31820341D01*
X30244605Y31771958D01*
X30212736Y31716184D01*
X30176915Y31653679D01*
X30137525Y31585106D01*
X30094951Y31511125D01*
X30049577Y31432397D01*
X30001786Y31349585D01*
X29951962Y31263350D01*
X29900489Y31174354D01*
X29847752Y31083256D01*
X29794133Y30990720D01*
X29740018Y30897406D01*
X29685789Y30803976D01*
X29631830Y30711092D01*
X29578526Y30619414D01*
X29526260Y30529605D01*
X29475417Y30442324D01*
X29426379Y30358235D01*
X29379532Y30277999D01*
X29335258Y30202276D01*
X29293942Y30131729D01*
X29255967Y30067018D01*
X29221719Y30008806D01*
X29191579Y29957753D01*
X29165932Y29914521D01*
X29145163Y29879771D01*
X29129655Y29854166D01*
X29119791Y29838365D01*
X29116199Y29833204D01*
X29096431Y29816437D01*
X29072210Y29800747D01*
X29061156Y29795104D01*
X29028725Y29780425D01*
X26590325Y29780425D01*
X26557893Y29795104D01*
G36*
X28585962Y26229162D02*
G01*
X28587700Y26119599D01*
X27811262Y26121212D01*
X27034825Y26122825D01*
X27034825Y26338725D01*
X28584225Y26338725D01*
X28585962Y26229162D01*
G37*
X28585962Y26229162D02*
X28587700Y26119599D01*
X27811262Y26121212D01*
X27034825Y26122825D01*
X27034825Y26338725D01*
X28584225Y26338725D01*
X28585962Y26229162D01*
G36*
X27031762Y26864187D02*
G01*
X27031942Y26921156D01*
X27032405Y26976373D01*
X27033114Y27028014D01*
X27034034Y27074255D01*
X27035127Y27113272D01*
X27036358Y27143241D01*
X27037691Y27162337D01*
X27037693Y27162361D01*
X27047564Y27217813D01*
X27064719Y27263140D01*
X27089643Y27298948D01*
X27122821Y27325837D01*
X27164736Y27344410D01*
X27189125Y27350767D01*
X27205363Y27352773D01*
X27232500Y27354460D01*
X27268844Y27355831D01*
X27312704Y27356890D01*
X27362389Y27357642D01*
X27416209Y27358091D01*
X27472474Y27358241D01*
X27529492Y27358095D01*
X27585572Y27357659D01*
X27639025Y27356935D01*
X27688158Y27355930D01*
X27731282Y27354645D01*
X27766707Y27353086D01*
X27792740Y27351257D01*
X27807286Y27349260D01*
X27854393Y27333158D01*
X27891980Y27308927D01*
X27920824Y27275875D01*
X27941699Y27233310D01*
X27943717Y27227494D01*
X27949892Y27209425D01*
X27954347Y27197179D01*
X27955664Y27194159D01*
X27961677Y27196039D01*
X27978424Y27202113D01*
X28004809Y27211962D01*
X28039732Y27225169D01*
X28082095Y27241316D01*
X28130800Y27259985D01*
X28184749Y27280758D01*
X28242844Y27303218D01*
X28268649Y27313222D01*
X28328276Y27336329D01*
X28384299Y27357987D01*
X28435608Y27377772D01*
X28481093Y27395258D01*
X28519646Y27410019D01*
X28550156Y27421630D01*
X28571514Y27429665D01*
X28582611Y27433700D01*
X28583944Y27434100D01*
X28585030Y27428079D01*
X28585807Y27411329D01*
X28586245Y27385816D01*
X28586308Y27353509D01*
X28585963Y27316374D01*
X28585952Y27315611D01*
X28584225Y27197123D01*
X27961925Y26966051D01*
X27958291Y26843669D01*
X28584225Y26840375D01*
X28585962Y26730837D01*
X28587699Y26621300D01*
X27031650Y26621300D01*
X27031752Y26843550D01*
X27215800Y26843550D01*
X27781662Y26843550D01*
X27779718Y26976687D01*
X27778957Y27021747D01*
X27778061Y27055824D01*
X27776873Y27080635D01*
X27775234Y27097895D01*
X27772988Y27109321D01*
X27769975Y27116630D01*
X27766435Y27121149D01*
X27762869Y27123973D01*
X27757572Y27126287D01*
X27749347Y27128141D01*
X27736999Y27129585D01*
X27719332Y27130670D01*
X27695149Y27131447D01*
X27663253Y27131965D01*
X27622449Y27132275D01*
X27571541Y27132428D01*
X27509331Y27132474D01*
X27497587Y27132475D01*
X27240077Y27132475D01*
X27227938Y27117484D01*
X27223808Y27111420D01*
X27220731Y27103647D01*
X27218554Y27092349D01*
X27217125Y27075708D01*
X27216292Y27051910D01*
X27215901Y27019137D01*
X27215800Y26975574D01*
X27215800Y26843550D01*
X27031752Y26843550D01*
X27031762Y26864187D01*
G37*
X27031762Y26864187D02*
X27031942Y26921156D01*
X27032405Y26976373D01*
X27033114Y27028014D01*
X27034034Y27074255D01*
X27035127Y27113272D01*
X27036358Y27143241D01*
X27037691Y27162337D01*
X27037693Y27162361D01*
X27047564Y27217813D01*
X27064719Y27263140D01*
X27089643Y27298948D01*
X27122821Y27325837D01*
X27164736Y27344410D01*
X27189125Y27350767D01*
X27205363Y27352773D01*
X27232500Y27354460D01*
X27268844Y27355831D01*
X27312704Y27356890D01*
X27362389Y27357642D01*
X27416209Y27358091D01*
X27472474Y27358241D01*
X27529492Y27358095D01*
X27585572Y27357659D01*
X27639025Y27356935D01*
X27688158Y27355930D01*
X27731282Y27354645D01*
X27766707Y27353086D01*
X27792740Y27351257D01*
X27807286Y27349260D01*
X27854393Y27333158D01*
X27891980Y27308927D01*
X27920824Y27275875D01*
X27941699Y27233310D01*
X27943717Y27227494D01*
X27949892Y27209425D01*
X27954347Y27197179D01*
X27955664Y27194159D01*
X27961677Y27196039D01*
X27978424Y27202113D01*
X28004809Y27211962D01*
X28039732Y27225169D01*
X28082095Y27241316D01*
X28130800Y27259985D01*
X28184749Y27280758D01*
X28242844Y27303218D01*
X28268649Y27313222D01*
X28328276Y27336329D01*
X28384299Y27357987D01*
X28435608Y27377772D01*
X28481093Y27395258D01*
X28519646Y27410019D01*
X28550156Y27421630D01*
X28571514Y27429665D01*
X28582611Y27433700D01*
X28583944Y27434100D01*
X28585030Y27428079D01*
X28585807Y27411329D01*
X28586245Y27385816D01*
X28586308Y27353509D01*
X28585963Y27316374D01*
X28585952Y27315611D01*
X28584225Y27197123D01*
X27961925Y26966051D01*
X27958291Y26843669D01*
X28584225Y26840375D01*
X28585962Y26730837D01*
X28587699Y26621300D01*
X27031650Y26621300D01*
X27031752Y26843550D01*
X27215800Y26843550D01*
X27781662Y26843550D01*
X27779718Y26976687D01*
X27778957Y27021747D01*
X27778061Y27055824D01*
X27776873Y27080635D01*
X27775234Y27097895D01*
X27772988Y27109321D01*
X27769975Y27116630D01*
X27766435Y27121149D01*
X27762869Y27123973D01*
X27757572Y27126287D01*
X27749347Y27128141D01*
X27736999Y27129585D01*
X27719332Y27130670D01*
X27695149Y27131447D01*
X27663253Y27131965D01*
X27622449Y27132275D01*
X27571541Y27132428D01*
X27509331Y27132474D01*
X27497587Y27132475D01*
X27240077Y27132475D01*
X27227938Y27117484D01*
X27223808Y27111420D01*
X27220731Y27103647D01*
X27218554Y27092349D01*
X27217125Y27075708D01*
X27216292Y27051910D01*
X27215901Y27019137D01*
X27215800Y26975574D01*
X27215800Y26843550D01*
X27031752Y26843550D01*
X27031762Y26864187D01*
G36*
X27662863Y27586644D02*
G01*
X27588122Y27586914D01*
X27516686Y27587294D01*
X27449697Y27587783D01*
X27388298Y27588381D01*
X27333634Y27589088D01*
X27286846Y27589904D01*
X27249079Y27590829D01*
X27221475Y27591863D01*
X27205177Y27593006D01*
X27203239Y27593269D01*
X27153109Y27606857D01*
X27111335Y27629863D01*
X27078214Y27662040D01*
X27054043Y27703139D01*
X27045992Y27725034D01*
X27042772Y27736899D01*
X27040223Y27750393D01*
X27038270Y27767080D01*
X27036839Y27788524D01*
X27035853Y27816290D01*
X27035239Y27851943D01*
X27034985Y27888103D01*
X27216211Y27888103D01*
X27216635Y27865888D01*
X27217815Y27850733D01*
X27219908Y27840760D01*
X27223072Y27834089D01*
X27227463Y27828842D01*
X27228118Y27828181D01*
X27230533Y27825929D01*
X27233514Y27823951D01*
X27237856Y27822231D01*
X27244351Y27820749D01*
X27253793Y27819488D01*
X27266973Y27818430D01*
X27284686Y27817557D01*
X27307725Y27816852D01*
X27336881Y27816297D01*
X27372949Y27815873D01*
X27416721Y27815564D01*
X27468990Y27815350D01*
X27530549Y27815215D01*
X27602192Y27815140D01*
X27684711Y27815107D01*
X27778900Y27815100D01*
X27809525Y27815100D01*
X27907387Y27815105D01*
X27993342Y27815131D01*
X28068183Y27815197D01*
X28132701Y27815319D01*
X28187688Y27815515D01*
X28233939Y27815802D01*
X28272244Y27816197D01*
X28303397Y27816717D01*
X28328190Y27817381D01*
X28347415Y27818205D01*
X28361865Y27819206D01*
X28372333Y27820402D01*
X28379611Y27821811D01*
X28384492Y27823449D01*
X28387768Y27825334D01*
X28390231Y27827483D01*
X28390550Y27827800D01*
X28395061Y27833144D01*
X28398361Y27840089D01*
X28400636Y27850542D01*
X28402074Y27866410D01*
X28402864Y27889600D01*
X28403192Y27922022D01*
X28403250Y27956761D01*
X28402950Y28003003D01*
X28402000Y28037746D01*
X28400325Y28062180D01*
X28397848Y28077492D01*
X28395142Y28084110D01*
X28383928Y28092648D01*
X28366345Y28099852D01*
X28361804Y28101047D01*
X28351149Y28102043D01*
X28328960Y28102946D01*
X28296402Y28103753D01*
X28254640Y28104467D01*
X28204840Y28105086D01*
X28148166Y28105610D01*
X28085783Y28106039D01*
X28018857Y28106373D01*
X27948553Y28106612D01*
X27876034Y28106755D01*
X27802468Y28106803D01*
X27729018Y28106755D01*
X27656850Y28106612D01*
X27587128Y28106372D01*
X27521018Y28106036D01*
X27459686Y28105604D01*
X27404294Y28105076D01*
X27356010Y28104451D01*
X27315998Y28103729D01*
X27285423Y28102910D01*
X27265450Y28101995D01*
X27257886Y28101192D01*
X27240224Y28095777D01*
X27227663Y28089604D01*
X27226136Y28088341D01*
X27223150Y28078851D01*
X27220667Y28057115D01*
X27218719Y28023579D01*
X27217336Y27978690D01*
X27217006Y27961228D01*
X27216387Y27919256D01*
X27216211Y27888103D01*
X27034985Y27888103D01*
X27034922Y27897045D01*
X27034825Y27953163D01*
X27034825Y27957975D01*
X27034907Y28015003D01*
X27035205Y28060896D01*
X27035794Y28097219D01*
X27036748Y28125536D01*
X27038143Y28147411D01*
X27040053Y28164408D01*
X27042553Y28178091D01*
X27045719Y28190026D01*
X27045992Y28190915D01*
X27065666Y28235652D01*
X27094346Y28271491D01*
X27132267Y28298716D01*
X27136248Y28300809D01*
X27173627Y28319925D01*
X28445422Y28319925D01*
X28482801Y28300809D01*
X28521875Y28274066D01*
X28551704Y28238663D01*
X28572001Y28194942D01*
X28572229Y28194232D01*
X28575520Y28181762D01*
X28578147Y28166180D01*
X28580205Y28145900D01*
X28581787Y28119335D01*
X28582985Y28084899D01*
X28583893Y28041006D01*
X28584605Y27986070D01*
X28584633Y27983375D01*
X28584927Y27934797D01*
X28584814Y27888343D01*
X28584329Y27846129D01*
X28583508Y27810273D01*
X28582385Y27782891D01*
X28581005Y27766150D01*
X28568838Y27713963D01*
X28548038Y27671069D01*
X28518442Y27637298D01*
X28479886Y27612479D01*
X28432207Y27596443D01*
X28415073Y27593151D01*
X28401400Y27591987D01*
X28376170Y27590934D01*
X28340527Y27589992D01*
X28295615Y27589161D01*
X28242575Y27588440D01*
X28182551Y27587830D01*
X28116687Y27587331D01*
X28046125Y27586941D01*
X27972009Y27586662D01*
X27895482Y27586493D01*
X27817686Y27586434D01*
X27778900Y27586458D01*
X27739766Y27586484D01*
X27662863Y27586644D01*
G37*
X27662863Y27586644D02*
X27588122Y27586914D01*
X27516686Y27587294D01*
X27449697Y27587783D01*
X27388298Y27588381D01*
X27333634Y27589088D01*
X27286846Y27589904D01*
X27249079Y27590829D01*
X27221475Y27591863D01*
X27205177Y27593006D01*
X27203239Y27593269D01*
X27153109Y27606857D01*
X27111335Y27629863D01*
X27078214Y27662040D01*
X27054043Y27703139D01*
X27045992Y27725034D01*
X27042772Y27736899D01*
X27040223Y27750393D01*
X27038270Y27767080D01*
X27036839Y27788524D01*
X27035853Y27816290D01*
X27035239Y27851943D01*
X27034985Y27888103D01*
X27216211Y27888103D01*
X27216635Y27865888D01*
X27217815Y27850733D01*
X27219908Y27840760D01*
X27223072Y27834089D01*
X27227463Y27828842D01*
X27228118Y27828181D01*
X27230533Y27825929D01*
X27233514Y27823951D01*
X27237856Y27822231D01*
X27244351Y27820749D01*
X27253793Y27819488D01*
X27266973Y27818430D01*
X27284686Y27817557D01*
X27307725Y27816852D01*
X27336881Y27816297D01*
X27372949Y27815873D01*
X27416721Y27815564D01*
X27468990Y27815350D01*
X27530549Y27815215D01*
X27602192Y27815140D01*
X27684711Y27815107D01*
X27778900Y27815100D01*
X27809525Y27815100D01*
X27907387Y27815105D01*
X27993342Y27815131D01*
X28068183Y27815197D01*
X28132701Y27815319D01*
X28187688Y27815515D01*
X28233939Y27815802D01*
X28272244Y27816197D01*
X28303397Y27816717D01*
X28328190Y27817381D01*
X28347415Y27818205D01*
X28361865Y27819206D01*
X28372333Y27820402D01*
X28379611Y27821811D01*
X28384492Y27823449D01*
X28387768Y27825334D01*
X28390231Y27827483D01*
X28390550Y27827800D01*
X28395061Y27833144D01*
X28398361Y27840089D01*
X28400636Y27850542D01*
X28402074Y27866410D01*
X28402864Y27889600D01*
X28403192Y27922022D01*
X28403250Y27956761D01*
X28402950Y28003003D01*
X28402000Y28037746D01*
X28400325Y28062180D01*
X28397848Y28077492D01*
X28395142Y28084110D01*
X28383928Y28092648D01*
X28366345Y28099852D01*
X28361804Y28101047D01*
X28351149Y28102043D01*
X28328960Y28102946D01*
X28296402Y28103753D01*
X28254640Y28104467D01*
X28204840Y28105086D01*
X28148166Y28105610D01*
X28085783Y28106039D01*
X28018857Y28106373D01*
X27948553Y28106612D01*
X27876034Y28106755D01*
X27802468Y28106803D01*
X27729018Y28106755D01*
X27656850Y28106612D01*
X27587128Y28106372D01*
X27521018Y28106036D01*
X27459686Y28105604D01*
X27404294Y28105076D01*
X27356010Y28104451D01*
X27315998Y28103729D01*
X27285423Y28102910D01*
X27265450Y28101995D01*
X27257886Y28101192D01*
X27240224Y28095777D01*
X27227663Y28089604D01*
X27226136Y28088341D01*
X27223150Y28078851D01*
X27220667Y28057115D01*
X27218719Y28023579D01*
X27217336Y27978690D01*
X27217006Y27961228D01*
X27216387Y27919256D01*
X27216211Y27888103D01*
X27034985Y27888103D01*
X27034922Y27897045D01*
X27034825Y27953163D01*
X27034825Y27957975D01*
X27034907Y28015003D01*
X27035205Y28060896D01*
X27035794Y28097219D01*
X27036748Y28125536D01*
X27038143Y28147411D01*
X27040053Y28164408D01*
X27042553Y28178091D01*
X27045719Y28190026D01*
X27045992Y28190915D01*
X27065666Y28235652D01*
X27094346Y28271491D01*
X27132267Y28298716D01*
X27136248Y28300809D01*
X27173627Y28319925D01*
X28445422Y28319925D01*
X28482801Y28300809D01*
X28521875Y28274066D01*
X28551704Y28238663D01*
X28572001Y28194942D01*
X28572229Y28194232D01*
X28575520Y28181762D01*
X28578147Y28166180D01*
X28580205Y28145900D01*
X28581787Y28119335D01*
X28582985Y28084899D01*
X28583893Y28041006D01*
X28584605Y27986070D01*
X28584633Y27983375D01*
X28584927Y27934797D01*
X28584814Y27888343D01*
X28584329Y27846129D01*
X28583508Y27810273D01*
X28582385Y27782891D01*
X28581005Y27766150D01*
X28568838Y27713963D01*
X28548038Y27671069D01*
X28518442Y27637298D01*
X28479886Y27612479D01*
X28432207Y27596443D01*
X28415073Y27593151D01*
X28401400Y27591987D01*
X28376170Y27590934D01*
X28340527Y27589992D01*
X28295615Y27589161D01*
X28242575Y27588440D01*
X28182551Y27587830D01*
X28116687Y27587331D01*
X28046125Y27586941D01*
X27972009Y27586662D01*
X27895482Y27586493D01*
X27817686Y27586434D01*
X27778900Y27586458D01*
X27739766Y27586484D01*
X27662863Y27586644D01*
G36*
X28584225Y29107354D02*
G01*
X28029330Y28945414D01*
X27474435Y28783475D01*
X28584225Y28777125D01*
X28585973Y28677112D01*
X28587722Y28577100D01*
X27031363Y28577100D01*
X27033094Y28692987D01*
X27034825Y28808875D01*
X27569577Y28964744D01*
X27649296Y28988016D01*
X27725519Y29010336D01*
X27797366Y29031442D01*
X27863955Y29051072D01*
X27924403Y29068965D01*
X27977830Y29084857D01*
X28023354Y29098487D01*
X28060093Y29109592D01*
X28087165Y29117911D01*
X28103689Y29123181D01*
X28108798Y29125081D01*
X28103287Y29125755D01*
X28085986Y29126398D01*
X28057808Y29127003D01*
X28019662Y29127562D01*
X27972461Y29128067D01*
X27917114Y29128510D01*
X27854532Y29128885D01*
X27785628Y29129184D01*
X27711311Y29129399D01*
X27632493Y29129522D01*
X27572297Y29129550D01*
X27031327Y29129550D01*
X27033076Y29229562D01*
X27034825Y29329575D01*
X28584225Y29329575D01*
X28584225Y29107354D01*
G37*
X28584225Y29107354D02*
X28029330Y28945414D01*
X27474435Y28783475D01*
X28584225Y28777125D01*
X28585973Y28677112D01*
X28587722Y28577100D01*
X27031363Y28577100D01*
X27033094Y28692987D01*
X27034825Y28808875D01*
X27569577Y28964744D01*
X27649296Y28988016D01*
X27725519Y29010336D01*
X27797366Y29031442D01*
X27863955Y29051072D01*
X27924403Y29068965D01*
X27977830Y29084857D01*
X28023354Y29098487D01*
X28060093Y29109592D01*
X28087165Y29117911D01*
X28103689Y29123181D01*
X28108798Y29125081D01*
X28103287Y29125755D01*
X28085986Y29126398D01*
X28057808Y29127003D01*
X28019662Y29127562D01*
X27972461Y29128067D01*
X27917114Y29128510D01*
X27854532Y29128885D01*
X27785628Y29129184D01*
X27711311Y29129399D01*
X27632493Y29129522D01*
X27572297Y29129550D01*
X27031327Y29129550D01*
X27033076Y29229562D01*
X27034825Y29329575D01*
X28584225Y29329575D01*
X28584225Y29107354D01*
G36*
X27031698Y34919162D02*
G01*
X27031868Y34995207D01*
X27032401Y35059753D01*
X27033377Y35113996D01*
X27034878Y35159133D01*
X27036985Y35196363D01*
X27039779Y35226881D01*
X27043341Y35251886D01*
X27047752Y35272574D01*
X27053094Y35290143D01*
X27057620Y35301668D01*
X27078553Y35335850D01*
X27108754Y35365820D01*
X27144845Y35388514D01*
X27160742Y35395069D01*
X27169118Y35397691D01*
X27178682Y35399883D01*
X27190585Y35401682D01*
X27205979Y35403128D01*
X27226016Y35404257D01*
X27251846Y35405108D01*
X27284623Y35405720D01*
X27325497Y35406129D01*
X27375621Y35406374D01*
X27436147Y35406493D01*
X27507900Y35406525D01*
X27582608Y35406505D01*
X27645774Y35406377D01*
X27698553Y35406033D01*
X27742103Y35405366D01*
X27777581Y35404271D01*
X27806144Y35402641D01*
X27828948Y35400369D01*
X27847151Y35397350D01*
X27861909Y35393476D01*
X27874380Y35388641D01*
X27885720Y35382739D01*
X27897086Y35375664D01*
X27905722Y35369926D01*
X27925775Y35354096D01*
X27941879Y35334824D01*
X27957542Y35307847D01*
X27958698Y35305588D01*
X27980975Y35261802D01*
X27982997Y35078638D01*
X27985020Y34895473D01*
X28284622Y34893824D01*
X28584225Y34892175D01*
X28585962Y34782637D01*
X28587699Y34673100D01*
X27031650Y34673100D01*
X27031693Y34895350D01*
X27215800Y34895350D01*
X27806350Y34895350D01*
X27806350Y35025525D01*
X27806271Y35069639D01*
X27805931Y35102830D01*
X27805178Y35126873D01*
X27803857Y35143544D01*
X27801814Y35154617D01*
X27798895Y35161869D01*
X27794947Y35167076D01*
X27794004Y35168045D01*
X27778855Y35178020D01*
X27760666Y35184232D01*
X27749771Y35185037D01*
X27727688Y35185688D01*
X27695928Y35186175D01*
X27656003Y35186487D01*
X27609424Y35186613D01*
X27557703Y35186542D01*
X27502350Y35186264D01*
X27489871Y35186174D01*
X27240067Y35184275D01*
X27227933Y35169284D01*
X27223805Y35163219D01*
X27220729Y35155441D01*
X27218553Y35144135D01*
X27217124Y35127484D01*
X27216291Y35103672D01*
X27215900Y35070883D01*
X27215800Y35027301D01*
X27215800Y34895350D01*
X27031693Y34895350D01*
X27031698Y34919162D01*
G37*
X27031698Y34919162D02*
X27031868Y34995207D01*
X27032401Y35059753D01*
X27033377Y35113996D01*
X27034878Y35159133D01*
X27036985Y35196363D01*
X27039779Y35226881D01*
X27043341Y35251886D01*
X27047752Y35272574D01*
X27053094Y35290143D01*
X27057620Y35301668D01*
X27078553Y35335850D01*
X27108754Y35365820D01*
X27144845Y35388514D01*
X27160742Y35395069D01*
X27169118Y35397691D01*
X27178682Y35399883D01*
X27190585Y35401682D01*
X27205979Y35403128D01*
X27226016Y35404257D01*
X27251846Y35405108D01*
X27284623Y35405720D01*
X27325497Y35406129D01*
X27375621Y35406374D01*
X27436147Y35406493D01*
X27507900Y35406525D01*
X27582608Y35406505D01*
X27645774Y35406377D01*
X27698553Y35406033D01*
X27742103Y35405366D01*
X27777581Y35404271D01*
X27806144Y35402641D01*
X27828948Y35400369D01*
X27847151Y35397350D01*
X27861909Y35393476D01*
X27874380Y35388641D01*
X27885720Y35382739D01*
X27897086Y35375664D01*
X27905722Y35369926D01*
X27925775Y35354096D01*
X27941879Y35334824D01*
X27957542Y35307847D01*
X27958698Y35305588D01*
X27980975Y35261802D01*
X27982997Y35078638D01*
X27985020Y34895473D01*
X28284622Y34893824D01*
X28584225Y34892175D01*
X28585962Y34782637D01*
X28587699Y34673100D01*
X27031650Y34673100D01*
X27031693Y34895350D01*
X27215800Y34895350D01*
X27806350Y34895350D01*
X27806350Y35025525D01*
X27806271Y35069639D01*
X27805931Y35102830D01*
X27805178Y35126873D01*
X27803857Y35143544D01*
X27801814Y35154617D01*
X27798895Y35161869D01*
X27794947Y35167076D01*
X27794004Y35168045D01*
X27778855Y35178020D01*
X27760666Y35184232D01*
X27749771Y35185037D01*
X27727688Y35185688D01*
X27695928Y35186175D01*
X27656003Y35186487D01*
X27609424Y35186613D01*
X27557703Y35186542D01*
X27502350Y35186264D01*
X27489871Y35186174D01*
X27240067Y35184275D01*
X27227933Y35169284D01*
X27223805Y35163219D01*
X27220729Y35155441D01*
X27218553Y35144135D01*
X27217124Y35127484D01*
X27216291Y35103672D01*
X27215900Y35070883D01*
X27215800Y35027301D01*
X27215800Y34895350D01*
X27031693Y34895350D01*
X27031698Y34919162D01*
G36*
X27938251Y35623528D02*
G01*
X27854088Y35638369D01*
X27769565Y35653285D01*
X27685618Y35668112D01*
X27603180Y35682684D01*
X27523187Y35696837D01*
X27446572Y35710406D01*
X27374269Y35723226D01*
X27307213Y35735132D01*
X27246338Y35745959D01*
X27192578Y35755543D01*
X27146869Y35763719D01*
X27110143Y35770321D01*
X27083336Y35775185D01*
X27067381Y35778147D01*
X27064987Y35778613D01*
X27031650Y35785250D01*
X27031650Y35943175D01*
X27031651Y35943317D01*
X27243456Y35943317D01*
X27247550Y35941116D01*
X27255026Y35939662D01*
X27273743Y35936470D01*
X27302391Y35931746D01*
X27339659Y35925695D01*
X27384239Y35918525D01*
X27434819Y35910441D01*
X27490091Y35901649D01*
X27548745Y35892355D01*
X27609470Y35882766D01*
X27670957Y35873088D01*
X27731896Y35863526D01*
X27790977Y35854287D01*
X27846891Y35845578D01*
X27898328Y35837603D01*
X27943977Y35830570D01*
X27982529Y35824684D01*
X28012674Y35820152D01*
X28033103Y35817179D01*
X28042505Y35815972D01*
X28042887Y35815956D01*
X28044302Y35822041D01*
X28045549Y35838967D01*
X28046563Y35864878D01*
X28047278Y35897915D01*
X28047626Y35936220D01*
X28047650Y35949450D01*
X28047582Y35993918D01*
X28047288Y36027271D01*
X28046635Y36051091D01*
X28045486Y36066963D01*
X28043709Y36076470D01*
X28041169Y36081197D01*
X28037730Y36082726D01*
X28036325Y36082800D01*
X28028405Y36081747D01*
X28009293Y36078740D01*
X27980305Y36074003D01*
X27942751Y36067763D01*
X27897946Y36060244D01*
X27847202Y36051671D01*
X27791832Y36042271D01*
X27733149Y36032268D01*
X27672467Y36021888D01*
X27611097Y36011355D01*
X27550354Y36000897D01*
X27491549Y35990737D01*
X27435997Y35981101D01*
X27385010Y35972215D01*
X27339900Y35964304D01*
X27301982Y35957593D01*
X27272567Y35952307D01*
X27252969Y35948673D01*
X27244501Y35946915D01*
X27244375Y35946873D01*
X27243456Y35943317D01*
X27031651Y35943317D01*
X27031892Y35992282D01*
X27032587Y36034048D01*
X27033691Y36067262D01*
X27035156Y36090715D01*
X27036937Y36103200D01*
X27037787Y36104893D01*
X27044429Y36106393D01*
X27062647Y36110090D01*
X27091539Y36115814D01*
X27130204Y36123391D01*
X27177740Y36132647D01*
X27233246Y36143412D01*
X27295820Y36155511D01*
X27364562Y36168772D01*
X27438570Y36183023D01*
X27516942Y36198090D01*
X27598778Y36213801D01*
X27683175Y36229983D01*
X27769233Y36246464D01*
X27856050Y36263070D01*
X27942726Y36279629D01*
X28028357Y36295969D01*
X28112044Y36311916D01*
X28192885Y36327298D01*
X28269978Y36341942D01*
X28342423Y36355675D01*
X28409317Y36368325D01*
X28469760Y36379719D01*
X28522850Y36389684D01*
X28563587Y36397286D01*
X28587400Y36401713D01*
X28587400Y36179059D01*
X28569937Y36175488D01*
X28558863Y36173430D01*
X28537262Y36169593D01*
X28507131Y36164324D01*
X28470464Y36157972D01*
X28429256Y36150883D01*
X28403250Y36146433D01*
X28360507Y36139097D01*
X28321325Y36132304D01*
X28287648Y36126397D01*
X28261417Y36121718D01*
X28244577Y36118609D01*
X28239737Y36117628D01*
X28225450Y36114308D01*
X28225450Y35786983D01*
X28404837Y35758679D01*
X28584225Y35730375D01*
X28585962Y35620837D01*
X28586392Y35578366D01*
X28586098Y35547377D01*
X28585017Y35526670D01*
X28583083Y35515046D01*
X28580233Y35511303D01*
X28580132Y35511300D01*
X28573151Y35512381D01*
X28554599Y35515516D01*
X28525411Y35520539D01*
X28486522Y35527286D01*
X28438865Y35535591D01*
X28383374Y35545291D01*
X28320984Y35556219D01*
X28252630Y35568212D01*
X28179245Y35581104D01*
X28101764Y35594730D01*
X28042887Y35605094D01*
X28021122Y35608926D01*
X27938251Y35623528D01*
G37*
X27938251Y35623528D02*
X27854088Y35638369D01*
X27769565Y35653285D01*
X27685618Y35668112D01*
X27603180Y35682684D01*
X27523187Y35696837D01*
X27446572Y35710406D01*
X27374269Y35723226D01*
X27307213Y35735132D01*
X27246338Y35745959D01*
X27192578Y35755543D01*
X27146869Y35763719D01*
X27110143Y35770321D01*
X27083336Y35775185D01*
X27067381Y35778147D01*
X27064987Y35778613D01*
X27031650Y35785250D01*
X27031650Y35943175D01*
X27031651Y35943317D01*
X27243456Y35943317D01*
X27247550Y35941116D01*
X27255026Y35939662D01*
X27273743Y35936470D01*
X27302391Y35931746D01*
X27339659Y35925695D01*
X27384239Y35918525D01*
X27434819Y35910441D01*
X27490091Y35901649D01*
X27548745Y35892355D01*
X27609470Y35882766D01*
X27670957Y35873088D01*
X27731896Y35863526D01*
X27790977Y35854287D01*
X27846891Y35845578D01*
X27898328Y35837603D01*
X27943977Y35830570D01*
X27982529Y35824684D01*
X28012674Y35820152D01*
X28033103Y35817179D01*
X28042505Y35815972D01*
X28042887Y35815956D01*
X28044302Y35822041D01*
X28045549Y35838967D01*
X28046563Y35864878D01*
X28047278Y35897915D01*
X28047626Y35936220D01*
X28047650Y35949450D01*
X28047582Y35993918D01*
X28047288Y36027271D01*
X28046635Y36051091D01*
X28045486Y36066963D01*
X28043709Y36076470D01*
X28041169Y36081197D01*
X28037730Y36082726D01*
X28036325Y36082800D01*
X28028405Y36081747D01*
X28009293Y36078740D01*
X27980305Y36074003D01*
X27942751Y36067763D01*
X27897946Y36060244D01*
X27847202Y36051671D01*
X27791832Y36042271D01*
X27733149Y36032268D01*
X27672467Y36021888D01*
X27611097Y36011355D01*
X27550354Y36000897D01*
X27491549Y35990737D01*
X27435997Y35981101D01*
X27385010Y35972215D01*
X27339900Y35964304D01*
X27301982Y35957593D01*
X27272567Y35952307D01*
X27252969Y35948673D01*
X27244501Y35946915D01*
X27244375Y35946873D01*
X27243456Y35943317D01*
X27031651Y35943317D01*
X27031892Y35992282D01*
X27032587Y36034048D01*
X27033691Y36067262D01*
X27035156Y36090715D01*
X27036937Y36103200D01*
X27037787Y36104893D01*
X27044429Y36106393D01*
X27062647Y36110090D01*
X27091539Y36115814D01*
X27130204Y36123391D01*
X27177740Y36132647D01*
X27233246Y36143412D01*
X27295820Y36155511D01*
X27364562Y36168772D01*
X27438570Y36183023D01*
X27516942Y36198090D01*
X27598778Y36213801D01*
X27683175Y36229983D01*
X27769233Y36246464D01*
X27856050Y36263070D01*
X27942726Y36279629D01*
X28028357Y36295969D01*
X28112044Y36311916D01*
X28192885Y36327298D01*
X28269978Y36341942D01*
X28342423Y36355675D01*
X28409317Y36368325D01*
X28469760Y36379719D01*
X28522850Y36389684D01*
X28563587Y36397286D01*
X28587400Y36401713D01*
X28587400Y36179059D01*
X28569937Y36175488D01*
X28558863Y36173430D01*
X28537262Y36169593D01*
X28507131Y36164324D01*
X28470464Y36157972D01*
X28429256Y36150883D01*
X28403250Y36146433D01*
X28360507Y36139097D01*
X28321325Y36132304D01*
X28287648Y36126397D01*
X28261417Y36121718D01*
X28244577Y36118609D01*
X28239737Y36117628D01*
X28225450Y36114308D01*
X28225450Y35786983D01*
X28404837Y35758679D01*
X28584225Y35730375D01*
X28585962Y35620837D01*
X28586392Y35578366D01*
X28586098Y35547377D01*
X28585017Y35526670D01*
X28583083Y35515046D01*
X28580233Y35511303D01*
X28580132Y35511300D01*
X28573151Y35512381D01*
X28554599Y35515516D01*
X28525411Y35520539D01*
X28486522Y35527286D01*
X28438865Y35535591D01*
X28383374Y35545291D01*
X28320984Y35556219D01*
X28252630Y35568212D01*
X28179245Y35581104D01*
X28101764Y35594730D01*
X28042887Y35605094D01*
X28021122Y35608926D01*
X27938251Y35623528D01*
G36*
X28585961Y37208640D02*
G01*
X28586491Y37168705D01*
X28586518Y37139624D01*
X28585889Y37119553D01*
X28584452Y37106652D01*
X28582054Y37099077D01*
X28578541Y37094988D01*
X28576436Y37093732D01*
X28568787Y37091149D01*
X28549831Y37085287D01*
X28520459Y37076410D01*
X28481558Y37064779D01*
X28434020Y37050659D01*
X28378733Y37034312D01*
X28316587Y37016002D01*
X28248472Y36995991D01*
X28175276Y36974543D01*
X28097890Y36951920D01*
X28022459Y36929917D01*
X27479743Y36771775D01*
X28584225Y36765425D01*
X28585974Y36665275D01*
X28586423Y36625193D01*
X28586096Y36596310D01*
X28584901Y36577141D01*
X28582748Y36566203D01*
X28579624Y36562041D01*
X28572358Y36561662D01*
X28553175Y36561322D01*
X28522861Y36561025D01*
X28482197Y36560769D01*
X28431969Y36560559D01*
X28372959Y36560393D01*
X28305952Y36560276D01*
X28231731Y36560206D01*
X28151080Y36560187D01*
X28064784Y36560220D01*
X27973624Y36560305D01*
X27878386Y36560445D01*
X27803175Y36560591D01*
X27034825Y36562225D01*
X27034825Y36795804D01*
X27571043Y36952064D01*
X28107262Y37108325D01*
X27571043Y37111500D01*
X27034825Y37114675D01*
X27034825Y37317875D01*
X28584225Y37317875D01*
X28585961Y37208640D01*
G37*
X28585961Y37208640D02*
X28586491Y37168705D01*
X28586518Y37139624D01*
X28585889Y37119553D01*
X28584452Y37106652D01*
X28582054Y37099077D01*
X28578541Y37094988D01*
X28576436Y37093732D01*
X28568787Y37091149D01*
X28549831Y37085287D01*
X28520459Y37076410D01*
X28481558Y37064779D01*
X28434020Y37050659D01*
X28378733Y37034312D01*
X28316587Y37016002D01*
X28248472Y36995991D01*
X28175276Y36974543D01*
X28097890Y36951920D01*
X28022459Y36929917D01*
X27479743Y36771775D01*
X28584225Y36765425D01*
X28585974Y36665275D01*
X28586423Y36625193D01*
X28586096Y36596310D01*
X28584901Y36577141D01*
X28582748Y36566203D01*
X28579624Y36562041D01*
X28572358Y36561662D01*
X28553175Y36561322D01*
X28522861Y36561025D01*
X28482197Y36560769D01*
X28431969Y36560559D01*
X28372959Y36560393D01*
X28305952Y36560276D01*
X28231731Y36560206D01*
X28151080Y36560187D01*
X28064784Y36560220D01*
X27973624Y36560305D01*
X27878386Y36560445D01*
X27803175Y36560591D01*
X27034825Y36562225D01*
X27034825Y36795804D01*
X27571043Y36952064D01*
X28107262Y37108325D01*
X27571043Y37111500D01*
X27034825Y37114675D01*
X27034825Y37317875D01*
X28584225Y37317875D01*
X28585961Y37208640D01*
G36*
X27215800Y37943406D02*
G01*
X27900012Y37941790D01*
X28584225Y37940175D01*
X28585962Y37830637D01*
X28587699Y37721100D01*
X27215800Y37721100D01*
X27215800Y37460401D01*
X27125312Y37462163D01*
X27034825Y37463925D01*
X27034825Y38200525D01*
X27125312Y38202286D01*
X27215800Y38204048D01*
X27215800Y37943406D01*
G37*
X27215800Y37943406D02*
X27900012Y37941790D01*
X28584225Y37940175D01*
X28585962Y37830637D01*
X28587699Y37721100D01*
X27215800Y37721100D01*
X27215800Y37460401D01*
X27125312Y37462163D01*
X27034825Y37463925D01*
X27034825Y38200525D01*
X27125312Y38202286D01*
X27215800Y38204048D01*
X27215800Y37943406D01*
G36*
X28585962Y39008562D02*
G01*
X28584225Y38899025D01*
X28242912Y38897382D01*
X27901600Y38895739D01*
X27901600Y38565650D01*
X28587400Y38565650D01*
X28587400Y38457500D01*
X28587140Y38415021D01*
X28586301Y38383947D01*
X28584790Y38362993D01*
X28582516Y38350873D01*
X28579462Y38346329D01*
X28572217Y38345958D01*
X28553055Y38345626D01*
X28522760Y38345335D01*
X28482117Y38345087D01*
X28431907Y38344882D01*
X28372915Y38344723D01*
X28305924Y38344610D01*
X28231718Y38344546D01*
X28151080Y38344531D01*
X28064795Y38344566D01*
X27973644Y38344654D01*
X27878413Y38344795D01*
X27803175Y38344941D01*
X27034825Y38346575D01*
X27033087Y38456112D01*
X27031350Y38565650D01*
X27723800Y38565650D01*
X27723800Y38895740D01*
X27379312Y38897382D01*
X27034825Y38899025D01*
X27033087Y39008562D01*
X27031350Y39118100D01*
X28587699Y39118100D01*
X28585962Y39008562D01*
G37*
X28585962Y39008562D02*
X28584225Y38899025D01*
X28242912Y38897382D01*
X27901600Y38895739D01*
X27901600Y38565650D01*
X28587400Y38565650D01*
X28587400Y38457500D01*
X28587140Y38415021D01*
X28586301Y38383947D01*
X28584790Y38362993D01*
X28582516Y38350873D01*
X28579462Y38346329D01*
X28572217Y38345958D01*
X28553055Y38345626D01*
X28522760Y38345335D01*
X28482117Y38345087D01*
X28431907Y38344882D01*
X28372915Y38344723D01*
X28305924Y38344610D01*
X28231718Y38344546D01*
X28151080Y38344531D01*
X28064795Y38344566D01*
X27973644Y38344654D01*
X27878413Y38344795D01*
X27803175Y38344941D01*
X27034825Y38346575D01*
X27033087Y38456112D01*
X27031350Y38565650D01*
X27723800Y38565650D01*
X27723800Y38895740D01*
X27379312Y38897382D01*
X27034825Y38899025D01*
X27033087Y39008562D01*
X27031350Y39118100D01*
X28587699Y39118100D01*
X28585962Y39008562D01*
G36*
X28493737Y40050136D02*
G01*
X28584225Y40048375D01*
X28585868Y39713387D01*
X28587512Y39378399D01*
X27811168Y39380012D01*
X27034825Y39381625D01*
X27033179Y39707062D01*
X27031534Y40032500D01*
X27215800Y40032500D01*
X27215800Y39600700D01*
X27692050Y39600700D01*
X27692050Y39956300D01*
X27876200Y39956300D01*
X27876200Y39600700D01*
X28403250Y39600700D01*
X28403250Y40051898D01*
X28493737Y40050136D01*
G37*
X28493737Y40050136D02*
X28584225Y40048375D01*
X28585868Y39713387D01*
X28587512Y39378399D01*
X27811168Y39380012D01*
X27034825Y39381625D01*
X27033179Y39707062D01*
X27031534Y40032500D01*
X27215800Y40032500D01*
X27215800Y39600700D01*
X27692050Y39600700D01*
X27692050Y39956300D01*
X27876200Y39956300D01*
X27876200Y39600700D01*
X28403250Y39600700D01*
X28403250Y40051898D01*
X28493737Y40050136D01*
G36*
X27031698Y40475412D02*
G01*
X27031866Y40532567D01*
X27032324Y40587818D01*
X27033036Y40639385D01*
X27033965Y40685486D01*
X27035075Y40724338D01*
X27036329Y40754160D01*
X27037693Y40773169D01*
X27037776Y40773920D01*
X27048222Y40828872D01*
X27066033Y40873735D01*
X27091683Y40909087D01*
X27125644Y40935506D01*
X27168392Y40953572D01*
X27189125Y40958817D01*
X27205363Y40960823D01*
X27232500Y40962510D01*
X27268844Y40963881D01*
X27312704Y40964940D01*
X27362389Y40965692D01*
X27416209Y40966141D01*
X27472474Y40966291D01*
X27529492Y40966145D01*
X27585572Y40965709D01*
X27639025Y40964985D01*
X27688158Y40963980D01*
X27731282Y40962695D01*
X27766707Y40961136D01*
X27792740Y40959307D01*
X27807286Y40957310D01*
X27854393Y40941208D01*
X27891980Y40916977D01*
X27920824Y40883925D01*
X27941699Y40841360D01*
X27943717Y40835544D01*
X27949886Y40817483D01*
X27954326Y40805251D01*
X27955632Y40802241D01*
X27961639Y40804121D01*
X27978362Y40810189D01*
X28004683Y40820019D01*
X28039483Y40833186D01*
X28081646Y40849265D01*
X28130054Y40867831D01*
X28183590Y40888458D01*
X28241136Y40910723D01*
X28257924Y40917235D01*
X28316934Y40940115D01*
X28372675Y40961689D01*
X28423965Y40981502D01*
X28469619Y40999097D01*
X28508455Y41014020D01*
X28539289Y41025816D01*
X28560939Y41034028D01*
X28572219Y41038202D01*
X28573254Y41038553D01*
X28587683Y41043095D01*
X28584225Y40805165D01*
X27961925Y40574367D01*
X27958291Y40451719D01*
X28584225Y40448425D01*
X28585962Y40338887D01*
X28587699Y40229350D01*
X27031650Y40229350D01*
X27031693Y40451600D01*
X27215800Y40451600D01*
X27781662Y40451600D01*
X27779718Y40584737D01*
X27778957Y40629797D01*
X27778061Y40663874D01*
X27776873Y40688685D01*
X27775234Y40705945D01*
X27772988Y40717371D01*
X27769975Y40724680D01*
X27766435Y40729199D01*
X27762869Y40732023D01*
X27757572Y40734337D01*
X27749347Y40736191D01*
X27736999Y40737635D01*
X27719332Y40738720D01*
X27695149Y40739497D01*
X27663253Y40740015D01*
X27622449Y40740325D01*
X27571541Y40740478D01*
X27509331Y40740524D01*
X27497587Y40740525D01*
X27240077Y40740525D01*
X27227938Y40725534D01*
X27223808Y40719470D01*
X27220731Y40711697D01*
X27218554Y40700399D01*
X27217125Y40683758D01*
X27216292Y40659960D01*
X27215901Y40627187D01*
X27215800Y40583624D01*
X27215800Y40451600D01*
X27031693Y40451600D01*
X27031698Y40475412D01*
G37*
X27031698Y40475412D02*
X27031866Y40532567D01*
X27032324Y40587818D01*
X27033036Y40639385D01*
X27033965Y40685486D01*
X27035075Y40724338D01*
X27036329Y40754160D01*
X27037693Y40773169D01*
X27037776Y40773920D01*
X27048222Y40828872D01*
X27066033Y40873735D01*
X27091683Y40909087D01*
X27125644Y40935506D01*
X27168392Y40953572D01*
X27189125Y40958817D01*
X27205363Y40960823D01*
X27232500Y40962510D01*
X27268844Y40963881D01*
X27312704Y40964940D01*
X27362389Y40965692D01*
X27416209Y40966141D01*
X27472474Y40966291D01*
X27529492Y40966145D01*
X27585572Y40965709D01*
X27639025Y40964985D01*
X27688158Y40963980D01*
X27731282Y40962695D01*
X27766707Y40961136D01*
X27792740Y40959307D01*
X27807286Y40957310D01*
X27854393Y40941208D01*
X27891980Y40916977D01*
X27920824Y40883925D01*
X27941699Y40841360D01*
X27943717Y40835544D01*
X27949886Y40817483D01*
X27954326Y40805251D01*
X27955632Y40802241D01*
X27961639Y40804121D01*
X27978362Y40810189D01*
X28004683Y40820019D01*
X28039483Y40833186D01*
X28081646Y40849265D01*
X28130054Y40867831D01*
X28183590Y40888458D01*
X28241136Y40910723D01*
X28257924Y40917235D01*
X28316934Y40940115D01*
X28372675Y40961689D01*
X28423965Y40981502D01*
X28469619Y40999097D01*
X28508455Y41014020D01*
X28539289Y41025816D01*
X28560939Y41034028D01*
X28572219Y41038202D01*
X28573254Y41038553D01*
X28587683Y41043095D01*
X28584225Y40805165D01*
X27961925Y40574367D01*
X27958291Y40451719D01*
X28584225Y40448425D01*
X28585962Y40338887D01*
X28587699Y40229350D01*
X27031650Y40229350D01*
X27031693Y40451600D01*
X27215800Y40451600D01*
X27781662Y40451600D01*
X27779718Y40584737D01*
X27778957Y40629797D01*
X27778061Y40663874D01*
X27776873Y40688685D01*
X27775234Y40705945D01*
X27772988Y40717371D01*
X27769975Y40724680D01*
X27766435Y40729199D01*
X27762869Y40732023D01*
X27757572Y40734337D01*
X27749347Y40736191D01*
X27736999Y40737635D01*
X27719332Y40738720D01*
X27695149Y40739497D01*
X27663253Y40740015D01*
X27622449Y40740325D01*
X27571541Y40740478D01*
X27509331Y40740524D01*
X27497587Y40740525D01*
X27240077Y40740525D01*
X27227938Y40725534D01*
X27223808Y40719470D01*
X27220731Y40711697D01*
X27218554Y40700399D01*
X27217125Y40683758D01*
X27216292Y40659960D01*
X27215901Y40627187D01*
X27215800Y40583624D01*
X27215800Y40451600D01*
X27031693Y40451600D01*
X27031698Y40475412D01*
G36*
X28277646Y41879287D02*
G01*
X28335326Y41878762D01*
X28380829Y41877801D01*
X28414000Y41876406D01*
X28434682Y41874579D01*
X28438521Y41873927D01*
X28476435Y41860986D01*
X28511331Y41839757D01*
X28539032Y41812952D01*
X28544808Y41805001D01*
X28555715Y41787289D01*
X28564363Y41769635D01*
X28571031Y41750268D01*
X28576000Y41727417D01*
X28579549Y41699310D01*
X28581961Y41664176D01*
X28583514Y41620244D01*
X28584489Y41565742D01*
X28584640Y41553325D01*
X28584925Y41507019D01*
X28584740Y41462548D01*
X28584128Y41422255D01*
X28583136Y41388478D01*
X28581807Y41363560D01*
X28580801Y41353343D01*
X28570019Y41308239D01*
X28551475Y41267700D01*
X28526735Y41234740D01*
X28512441Y41221973D01*
X28495134Y41209826D01*
X28477627Y41200363D01*
X28458062Y41193260D01*
X28434582Y41188196D01*
X28405330Y41184847D01*
X28368450Y41182891D01*
X28322084Y41182005D01*
X28281447Y41181850D01*
X28142900Y41181850D01*
X28142900Y41404100D01*
X28257488Y41404100D01*
X28298231Y41404150D01*
X28328238Y41404456D01*
X28349477Y41405255D01*
X28363912Y41406782D01*
X28373508Y41409272D01*
X28380231Y41412959D01*
X28386047Y41418081D01*
X28387663Y41419686D01*
X28393729Y41426274D01*
X28397975Y41433373D01*
X28400725Y41443238D01*
X28402303Y41458124D01*
X28403033Y41480285D01*
X28403240Y41511978D01*
X28403250Y41528053D01*
X28402824Y41561983D01*
X28401653Y41592075D01*
X28399899Y41615706D01*
X28397723Y41630252D01*
X28396825Y41632839D01*
X28391849Y41639414D01*
X28383848Y41644765D01*
X28371610Y41649011D01*
X28353922Y41652273D01*
X28329572Y41654670D01*
X28297347Y41656325D01*
X28256034Y41657356D01*
X28204421Y41657883D01*
X28142900Y41658029D01*
X28079843Y41657869D01*
X28028289Y41657314D01*
X27987041Y41656252D01*
X27954905Y41654567D01*
X27930685Y41652148D01*
X27913186Y41648880D01*
X27901214Y41644651D01*
X27893573Y41639347D01*
X27889644Y41634009D01*
X27887879Y41624750D01*
X27886090Y41604743D01*
X27884383Y41575942D01*
X27882864Y41540297D01*
X27881639Y41499761D01*
X27881148Y41477125D01*
X27879721Y41420555D01*
X27877514Y41374910D01*
X27874106Y41338420D01*
X27869080Y41309314D01*
X27862016Y41285824D01*
X27852496Y41266178D01*
X27840101Y41248607D01*
X27824413Y41231340D01*
X27822555Y41229470D01*
X27810713Y41217892D01*
X27799567Y41208240D01*
X27787871Y41200330D01*
X27774381Y41193974D01*
X27757853Y41188988D01*
X27737040Y41185186D01*
X27710700Y41182381D01*
X27677586Y41180387D01*
X27636455Y41179019D01*
X27586061Y41178091D01*
X27525161Y41177417D01*
X27470962Y41176959D01*
X27404613Y41176481D01*
X27349680Y41176236D01*
X27304884Y41176262D01*
X27268943Y41176591D01*
X27240575Y41177260D01*
X27218500Y41178302D01*
X27201436Y41179754D01*
X27188102Y41181651D01*
X27177217Y41184026D01*
X27173379Y41185084D01*
X27129764Y41202272D01*
X27095660Y41226421D01*
X27069580Y41259029D01*
X27050034Y41301593D01*
X27046324Y41312891D01*
X27042850Y41325595D01*
X27040142Y41339669D01*
X27038108Y41356809D01*
X27036660Y41378713D01*
X27035707Y41407075D01*
X27035158Y41443592D01*
X27034925Y41489960D01*
X27034899Y41527925D01*
X27035026Y41582319D01*
X27035412Y41625688D01*
X27036146Y41659703D01*
X27037314Y41686038D01*
X27039004Y41706366D01*
X27041304Y41722359D01*
X27044300Y41735690D01*
X27046067Y41741815D01*
X27065656Y41786512D01*
X27094316Y41822365D01*
X27132248Y41849620D01*
X27136219Y41851709D01*
X27173569Y41870825D01*
X27324859Y41872827D01*
X27476150Y41874830D01*
X27476150Y41651750D01*
X27361561Y41651750D01*
X27320818Y41651699D01*
X27290811Y41651393D01*
X27269572Y41650594D01*
X27255137Y41649067D01*
X27245541Y41646577D01*
X27238818Y41642890D01*
X27233002Y41637768D01*
X27231386Y41636163D01*
X27225377Y41629650D01*
X27221152Y41622640D01*
X27218396Y41612911D01*
X27216797Y41598239D01*
X27216041Y41576404D01*
X27215813Y41545182D01*
X27215800Y41525742D01*
X27215965Y41488339D01*
X27216624Y41461426D01*
X27218020Y41442798D01*
X27220397Y41430246D01*
X27223999Y41421565D01*
X27227932Y41415915D01*
X27240064Y41400925D01*
X27442244Y41398947D01*
X27504561Y41398437D01*
X27555417Y41398349D01*
X27596048Y41398835D01*
X27627691Y41400049D01*
X27651582Y41402143D01*
X27668957Y41405269D01*
X27681053Y41409581D01*
X27689105Y41415231D01*
X27694350Y41422372D01*
X27697805Y41430524D01*
X27700238Y41444066D01*
X27702237Y41468408D01*
X27703711Y41501651D01*
X27704567Y41541899D01*
X27704750Y41573010D01*
X27705251Y41628935D01*
X27706906Y41674048D01*
X27709937Y41710200D01*
X27714568Y41739244D01*
X27721024Y41763033D01*
X27729528Y41783420D01*
X27730375Y41785100D01*
X27753194Y41817254D01*
X27785516Y41845219D01*
X27815875Y41862562D01*
X27823736Y41866063D01*
X27831533Y41868963D01*
X27840500Y41871329D01*
X27851872Y41873226D01*
X27866883Y41874719D01*
X27886770Y41875873D01*
X27912765Y41876754D01*
X27946105Y41877428D01*
X27988025Y41877960D01*
X28039758Y41878414D01*
X28102541Y41878858D01*
X28126380Y41879017D01*
X28207945Y41879373D01*
X28277646Y41879287D01*
G37*
X28277646Y41879287D02*
X28335326Y41878762D01*
X28380829Y41877801D01*
X28414000Y41876406D01*
X28434682Y41874579D01*
X28438521Y41873927D01*
X28476435Y41860986D01*
X28511331Y41839757D01*
X28539032Y41812952D01*
X28544808Y41805001D01*
X28555715Y41787289D01*
X28564363Y41769635D01*
X28571031Y41750268D01*
X28576000Y41727417D01*
X28579549Y41699310D01*
X28581961Y41664176D01*
X28583514Y41620244D01*
X28584489Y41565742D01*
X28584640Y41553325D01*
X28584925Y41507019D01*
X28584740Y41462548D01*
X28584128Y41422255D01*
X28583136Y41388478D01*
X28581807Y41363560D01*
X28580801Y41353343D01*
X28570019Y41308239D01*
X28551475Y41267700D01*
X28526735Y41234740D01*
X28512441Y41221973D01*
X28495134Y41209826D01*
X28477627Y41200363D01*
X28458062Y41193260D01*
X28434582Y41188196D01*
X28405330Y41184847D01*
X28368450Y41182891D01*
X28322084Y41182005D01*
X28281447Y41181850D01*
X28142900Y41181850D01*
X28142900Y41404100D01*
X28257488Y41404100D01*
X28298231Y41404150D01*
X28328238Y41404456D01*
X28349477Y41405255D01*
X28363912Y41406782D01*
X28373508Y41409272D01*
X28380231Y41412959D01*
X28386047Y41418081D01*
X28387663Y41419686D01*
X28393729Y41426274D01*
X28397975Y41433373D01*
X28400725Y41443238D01*
X28402303Y41458124D01*
X28403033Y41480285D01*
X28403240Y41511978D01*
X28403250Y41528053D01*
X28402824Y41561983D01*
X28401653Y41592075D01*
X28399899Y41615706D01*
X28397723Y41630252D01*
X28396825Y41632839D01*
X28391849Y41639414D01*
X28383848Y41644765D01*
X28371610Y41649011D01*
X28353922Y41652273D01*
X28329572Y41654670D01*
X28297347Y41656325D01*
X28256034Y41657356D01*
X28204421Y41657883D01*
X28142900Y41658029D01*
X28079843Y41657869D01*
X28028289Y41657314D01*
X27987041Y41656252D01*
X27954905Y41654567D01*
X27930685Y41652148D01*
X27913186Y41648880D01*
X27901214Y41644651D01*
X27893573Y41639347D01*
X27889644Y41634009D01*
X27887879Y41624750D01*
X27886090Y41604743D01*
X27884383Y41575942D01*
X27882864Y41540297D01*
X27881639Y41499761D01*
X27881148Y41477125D01*
X27879721Y41420555D01*
X27877514Y41374910D01*
X27874106Y41338420D01*
X27869080Y41309314D01*
X27862016Y41285824D01*
X27852496Y41266178D01*
X27840101Y41248607D01*
X27824413Y41231340D01*
X27822555Y41229470D01*
X27810713Y41217892D01*
X27799567Y41208240D01*
X27787871Y41200330D01*
X27774381Y41193974D01*
X27757853Y41188988D01*
X27737040Y41185186D01*
X27710700Y41182381D01*
X27677586Y41180387D01*
X27636455Y41179019D01*
X27586061Y41178091D01*
X27525161Y41177417D01*
X27470962Y41176959D01*
X27404613Y41176481D01*
X27349680Y41176236D01*
X27304884Y41176262D01*
X27268943Y41176591D01*
X27240575Y41177260D01*
X27218500Y41178302D01*
X27201436Y41179754D01*
X27188102Y41181651D01*
X27177217Y41184026D01*
X27173379Y41185084D01*
X27129764Y41202272D01*
X27095660Y41226421D01*
X27069580Y41259029D01*
X27050034Y41301593D01*
X27046324Y41312891D01*
X27042850Y41325595D01*
X27040142Y41339669D01*
X27038108Y41356809D01*
X27036660Y41378713D01*
X27035707Y41407075D01*
X27035158Y41443592D01*
X27034925Y41489960D01*
X27034899Y41527925D01*
X27035026Y41582319D01*
X27035412Y41625688D01*
X27036146Y41659703D01*
X27037314Y41686038D01*
X27039004Y41706366D01*
X27041304Y41722359D01*
X27044300Y41735690D01*
X27046067Y41741815D01*
X27065656Y41786512D01*
X27094316Y41822365D01*
X27132248Y41849620D01*
X27136219Y41851709D01*
X27173569Y41870825D01*
X27324859Y41872827D01*
X27476150Y41874830D01*
X27476150Y41651750D01*
X27361561Y41651750D01*
X27320818Y41651699D01*
X27290811Y41651393D01*
X27269572Y41650594D01*
X27255137Y41649067D01*
X27245541Y41646577D01*
X27238818Y41642890D01*
X27233002Y41637768D01*
X27231386Y41636163D01*
X27225377Y41629650D01*
X27221152Y41622640D01*
X27218396Y41612911D01*
X27216797Y41598239D01*
X27216041Y41576404D01*
X27215813Y41545182D01*
X27215800Y41525742D01*
X27215965Y41488339D01*
X27216624Y41461426D01*
X27218020Y41442798D01*
X27220397Y41430246D01*
X27223999Y41421565D01*
X27227932Y41415915D01*
X27240064Y41400925D01*
X27442244Y41398947D01*
X27504561Y41398437D01*
X27555417Y41398349D01*
X27596048Y41398835D01*
X27627691Y41400049D01*
X27651582Y41402143D01*
X27668957Y41405269D01*
X27681053Y41409581D01*
X27689105Y41415231D01*
X27694350Y41422372D01*
X27697805Y41430524D01*
X27700238Y41444066D01*
X27702237Y41468408D01*
X27703711Y41501651D01*
X27704567Y41541899D01*
X27704750Y41573010D01*
X27705251Y41628935D01*
X27706906Y41674048D01*
X27709937Y41710200D01*
X27714568Y41739244D01*
X27721024Y41763033D01*
X27729528Y41783420D01*
X27730375Y41785100D01*
X27753194Y41817254D01*
X27785516Y41845219D01*
X27815875Y41862562D01*
X27823736Y41866063D01*
X27831533Y41868963D01*
X27840500Y41871329D01*
X27851872Y41873226D01*
X27866883Y41874719D01*
X27886770Y41875873D01*
X27912765Y41876754D01*
X27946105Y41877428D01*
X27988025Y41877960D01*
X28039758Y41878414D01*
X28102541Y41878858D01*
X28126380Y41879017D01*
X28207945Y41879373D01*
X28277646Y41879287D01*
G36*
X26544963Y33272050D02*
G01*
X26568258Y33262966D01*
X26585418Y33254758D01*
X26642843Y33223219D01*
X26701093Y33185189D01*
X26757888Y33142566D01*
X26810949Y33097251D01*
X26857994Y33051144D01*
X26896746Y33006143D01*
X26915645Y32979574D01*
X26938446Y32936587D01*
X26958748Y32882672D01*
X26976000Y32819449D01*
X26985260Y32774450D01*
X26990464Y32737523D01*
X26994167Y32693973D01*
X26996371Y32646547D01*
X26997080Y32597993D01*
X26996294Y32551058D01*
X26994017Y32508489D01*
X26990250Y32473036D01*
X26984996Y32447444D01*
X26984990Y32447425D01*
X26973733Y32418173D01*
X26960467Y32396083D01*
X26946634Y32383207D01*
X26938196Y32380750D01*
X26929392Y32384841D01*
X26914819Y32395543D01*
X26898403Y32409842D01*
X26871849Y32440619D01*
X26845876Y32481912D01*
X26821498Y32531545D01*
X26799729Y32587344D01*
X26781584Y32647131D01*
X26774847Y32674861D01*
X26770749Y32696704D01*
X26767074Y32722415D01*
X26764190Y32748389D01*
X26762466Y32771026D01*
X26762271Y32786725D01*
X26762951Y32791101D01*
X26771550Y32798675D01*
X26785757Y32797674D01*
X26798904Y32790559D01*
X26814080Y32784650D01*
X26826510Y32789987D01*
X26831066Y32797509D01*
X26830120Y32810532D01*
X26821046Y32832874D01*
X26804001Y32864229D01*
X26779143Y32904292D01*
X26765315Y32925282D01*
X26737271Y32964807D01*
X26713564Y32992802D01*
X26693780Y33009514D01*
X26677503Y33015191D01*
X26664322Y33010080D01*
X26653821Y32994431D01*
X26652988Y32992502D01*
X26643689Y32966176D01*
X26636256Y32935398D01*
X26630478Y32898498D01*
X26626144Y32853809D01*
X26623044Y32799662D01*
X26621089Y32739525D01*
X26620108Y32666243D01*
X26621279Y32603514D01*
X26625065Y32549302D01*
X26631928Y32501573D01*
X26642330Y32458292D01*
X26656734Y32417424D01*
X26675601Y32376934D01*
X26699393Y32334789D01*
X26720710Y32300927D01*
X26759373Y32239794D01*
X26789788Y32187861D01*
X26812112Y32144809D01*
X26826504Y32110318D01*
X26833122Y32084069D01*
X26833516Y32073164D01*
X26829473Y32053954D01*
X26820546Y32045820D01*
X26806056Y32048617D01*
X26785326Y32062201D01*
X26784665Y32062722D01*
X26764150Y32076912D01*
X26739193Y32091431D01*
X26725997Y32098064D01*
X26699616Y32109236D01*
X26680643Y32113707D01*
X26668070Y32110393D01*
X26660891Y32098211D01*
X26658097Y32076076D01*
X26658683Y32042905D01*
X26659616Y32026638D01*
X26663940Y31970318D01*
X26670048Y31907354D01*
X26677613Y31840094D01*
X26686307Y31770886D01*
X26695804Y31702078D01*
X26705776Y31636018D01*
X26715896Y31575055D01*
X26725835Y31521536D01*
X26735268Y31477809D01*
X26737281Y31469581D01*
X26759753Y31391605D01*
X26786917Y31319321D01*
X26819821Y31251090D01*
X26859518Y31185275D01*
X26907056Y31120238D01*
X26963486Y31054342D01*
X27029858Y30985948D01*
X27074948Y30942978D01*
X27121546Y30898895D01*
X27160253Y30860331D01*
X27193136Y30824927D01*
X27222264Y30790321D01*
X27249705Y30754153D01*
X27277527Y30714063D01*
X27283991Y30704350D01*
X27322493Y30647095D01*
X27356608Y30598883D01*
X27388169Y30557687D01*
X27419010Y30521478D01*
X27450964Y30488225D01*
X27485863Y30455901D01*
X27525541Y30422477D01*
X27571400Y30386258D01*
X27612055Y30355358D01*
X27644311Y30332083D01*
X27669309Y30315678D01*
X27688191Y30305387D01*
X27700600Y30300802D01*
X27711383Y30299426D01*
X27716263Y30302916D01*
X27714898Y30312439D01*
X27706949Y30329161D01*
X27692076Y30354250D01*
X27679057Y30374784D01*
X27661852Y30402209D01*
X27645919Y30428802D01*
X27633387Y30450948D01*
X27627792Y30461841D01*
X27614920Y30489207D01*
X27631256Y30510624D01*
X27646453Y30527662D01*
X27660814Y30535338D01*
X27677397Y30533924D01*
X27699263Y30523694D01*
X27709470Y30517628D01*
X27761042Y30492371D01*
X27812853Y30479644D01*
X27864463Y30479476D01*
X27915433Y30491899D01*
X27937886Y30501529D01*
X27977204Y30526017D01*
X28005893Y30556355D01*
X28024388Y30593364D01*
X28033124Y30637866D01*
X28033247Y30681512D01*
X28024209Y30740312D01*
X28004477Y30801909D01*
X27973799Y30866836D01*
X27931923Y30935628D01*
X27878596Y31008818D01*
X27878568Y31008853D01*
X27838427Y31062284D01*
X27806888Y31109232D01*
X27782863Y31151424D01*
X27766910Y31186402D01*
X27759282Y31213108D01*
X27754202Y31246421D01*
X27751730Y31282818D01*
X27751928Y31318777D01*
X27754855Y31350774D01*
X27760572Y31375287D01*
X27763546Y31382011D01*
X27776985Y31400300D01*
X27799678Y31424041D01*
X27830062Y31452037D01*
X27866571Y31483091D01*
X27907639Y31516005D01*
X27951703Y31549582D01*
X27997197Y31582625D01*
X28042555Y31613937D01*
X28086213Y31642320D01*
X28126606Y31666576D01*
X28156786Y31682846D01*
X28210150Y31706451D01*
X28258150Y31720513D01*
X28303103Y31725601D01*
X28327100Y31724804D01*
X28372109Y31718483D01*
X28410319Y31706879D01*
X28443109Y31688760D01*
X28471862Y31662895D01*
X28497958Y31628052D01*
X28522779Y31583001D01*
X28546645Y31529113D01*
X28563126Y31489273D01*
X28576378Y31458896D01*
X28587745Y31435598D01*
X28598571Y31416996D01*
X28610200Y31400704D01*
X28623976Y31384338D01*
X28635190Y31372022D01*
X28666146Y31341932D01*
X28694774Y31322195D01*
X28723847Y31311529D01*
X28756137Y31308656D01*
X28770843Y31309425D01*
X28824682Y31318737D01*
X28869677Y31337007D01*
X28906160Y31364412D01*
X28930967Y31395400D01*
X28944075Y31423863D01*
X28949669Y31453785D01*
X28947220Y31480910D01*
X28942942Y31491858D01*
X28935257Y31500178D01*
X28919400Y31513459D01*
X28897837Y31529731D01*
X28877854Y31543772D01*
X28849926Y31564456D01*
X28816874Y31591574D01*
X28782139Y31622184D01*
X28749163Y31653344D01*
X28745676Y31656794D01*
X28706374Y31697610D01*
X28671013Y31738422D01*
X28638641Y31780833D01*
X28608305Y31826447D01*
X28579052Y31876867D01*
X28549929Y31933697D01*
X28519984Y31998540D01*
X28488263Y32073001D01*
X28466468Y32126750D01*
X28449065Y32169523D01*
X28430959Y32212599D01*
X28413421Y32253053D01*
X28397720Y32287965D01*
X28385128Y32314412D01*
X28383515Y32317606D01*
X28357471Y32364031D01*
X28327398Y32408443D01*
X28292103Y32452089D01*
X28250395Y32496218D01*
X28201079Y32542078D01*
X28142964Y32590918D01*
X28074858Y32643985D01*
X28063525Y32652523D01*
X27997351Y32699344D01*
X27935505Y32736632D01*
X27875333Y32765463D01*
X27814184Y32786913D01*
X27749402Y32802060D01*
X27678336Y32811978D01*
X27667959Y32812990D01*
X27606092Y32815731D01*
X27536193Y32813676D01*
X27461817Y32807231D01*
X27386520Y32796800D01*
X27313856Y32782788D01*
X27247379Y32765600D01*
X27244683Y32764787D01*
X27225557Y32759525D01*
X27214289Y32758583D01*
X27206788Y32761979D01*
X27203515Y32764962D01*
X27197859Y32775195D01*
X27201617Y32786460D01*
X27215608Y32799874D01*
X27240649Y32816554D01*
X27241883Y32817299D01*
X27317547Y32856289D01*
X27402011Y32887963D01*
X27493547Y32912114D01*
X27590430Y32928531D01*
X27690934Y32937006D01*
X27793330Y32937329D01*
X27895894Y32929293D01*
X27996899Y32912688D01*
X28008808Y32910115D01*
X28080862Y32891945D01*
X28150490Y32869579D01*
X28221540Y32841629D01*
X28297862Y32806705D01*
X28304825Y32803318D01*
X28355273Y32777105D01*
X28408988Y32746434D01*
X28463924Y32712692D01*
X28518037Y32677268D01*
X28569281Y32641553D01*
X28615613Y32606933D01*
X28654987Y32574799D01*
X28685359Y32546539D01*
X28689934Y32541731D01*
X28706744Y32523625D01*
X28690515Y32463300D01*
X28683783Y32436421D01*
X28679142Y32412159D01*
X28676205Y32386914D01*
X28674586Y32357086D01*
X28673900Y32319076D01*
X28673828Y32307725D01*
X28674153Y32260556D01*
X28676046Y32221737D01*
X28680124Y32186951D01*
X28687003Y32151884D01*
X28697297Y32112220D01*
X28706002Y32082300D01*
X28718731Y32043862D01*
X28735102Y32000667D01*
X28753715Y31955908D01*
X28773170Y31912779D01*
X28792068Y31874472D01*
X28809008Y31844183D01*
X28813332Y31837390D01*
X28856671Y31782650D01*
X28910640Y31732361D01*
X28973632Y31687579D01*
X29044039Y31649359D01*
X29120252Y31618756D01*
X29167882Y31604548D01*
X29198417Y31596059D01*
X29218419Y31588956D01*
X29229831Y31582264D01*
X29234599Y31575011D01*
X29235100Y31570897D01*
X29231524Y31562607D01*
X29221876Y31546755D01*
X29207775Y31525885D01*
X29196201Y31509762D01*
X29142709Y31444404D01*
X29080498Y31381089D01*
X29012422Y31322242D01*
X28941337Y31270290D01*
X28870098Y31227659D01*
X28855225Y31220038D01*
X28824533Y31205492D01*
X28800689Y31196218D01*
X28779650Y31190955D01*
X28757376Y31188436D01*
X28753441Y31188204D01*
X28727719Y31187735D01*
X28708102Y31190542D01*
X28688138Y31197978D01*
X28674023Y31204861D01*
X28636822Y31223780D01*
X28590050Y31198552D01*
X28557680Y31183090D01*
X28534113Y31176454D01*
X28519051Y31178610D01*
X28512217Y31189417D01*
X28513854Y31200078D01*
X28520123Y31218936D01*
X28529903Y31242862D01*
X28536784Y31257918D01*
X28547925Y31282061D01*
X28556296Y31301557D01*
X28560833Y31313846D01*
X28561232Y31316746D01*
X28555481Y31314188D01*
X28541930Y31305433D01*
X28522859Y31292007D01*
X28508770Y31281637D01*
X28477834Y31259735D01*
X28448244Y31241014D01*
X28421982Y31226534D01*
X28401029Y31217352D01*
X28387367Y31214526D01*
X28384534Y31215318D01*
X28379741Y31220078D01*
X28379179Y31227286D01*
X28383626Y31238656D01*
X28393861Y31255905D01*
X28410664Y31280750D01*
X28420766Y31295135D01*
X28440460Y31323859D01*
X28459686Y31353390D01*
X28475837Y31379647D01*
X28483973Y31394000D01*
X28504371Y31432305D01*
X28482357Y31464993D01*
X28444193Y31512656D01*
X28401251Y31548834D01*
X28352659Y31573988D01*
X28297544Y31588574D01*
X28238150Y31593060D01*
X28183457Y31587008D01*
X28128523Y31569670D01*
X28074788Y31542351D01*
X28023693Y31506353D01*
X27976677Y31462979D01*
X27935182Y31413534D01*
X27900648Y31359319D01*
X27874515Y31301639D01*
X27860002Y31250946D01*
X27855076Y31213384D01*
X27856676Y31176155D01*
X27865353Y31137257D01*
X27881658Y31094688D01*
X27906140Y31046446D01*
X27925303Y31013415D01*
X27937684Y30993755D01*
X27946566Y30983122D01*
X27954482Y30979369D01*
X27963970Y30980350D01*
X27964274Y30980422D01*
X27992345Y30990053D01*
X28028108Y31006921D01*
X28069611Y31029998D01*
X28114903Y31058255D01*
X28126280Y31065800D01*
X28157316Y31086540D01*
X28179617Y31100969D01*
X28194981Y31109872D01*
X28205209Y31114032D01*
X28212098Y31114232D01*
X28217448Y31111255D01*
X28221626Y31107315D01*
X28227534Y31097436D01*
X28228869Y31082810D01*
X28225383Y31061616D01*
X28216832Y31032033D01*
X28207918Y31005975D01*
X28183326Y30945521D01*
X28152142Y30885113D01*
X28123004Y30837065D01*
X28109310Y30815165D01*
X28098726Y30797256D01*
X28092817Y30786033D01*
X28092100Y30783852D01*
X28097525Y30780237D01*
X28112090Y30780956D01*
X28133231Y30785417D01*
X28158382Y30793026D01*
X28184978Y30803193D01*
X28194973Y30807622D01*
X28220614Y30818845D01*
X28237230Y30824364D01*
X28246855Y30824728D01*
X28250286Y30822504D01*
X28250727Y30812521D01*
X28243495Y30794414D01*
X28229379Y30769529D01*
X28209168Y30739209D01*
X28183651Y30704800D01*
X28173915Y30692418D01*
X28156502Y30670243D01*
X28145565Y30654420D01*
X28139598Y30641423D01*
X28137097Y30627725D01*
X28136555Y30609801D01*
X28136550Y30604902D01*
X28134869Y30574663D01*
X28128847Y30548609D01*
X28117011Y30522993D01*
X28097888Y30494066D01*
X28087676Y30480477D01*
X28039257Y30422147D01*
X27988468Y30369447D01*
X27936675Y30323432D01*
X27885245Y30285159D01*
X27835544Y30255683D01*
X27788939Y30236063D01*
X27762914Y30229438D01*
X27734078Y30225968D01*
X27708326Y30227558D01*
X27682851Y30235136D01*
X27654847Y30249633D01*
X27621507Y30271976D01*
X27610870Y30279738D01*
X27520153Y30349566D01*
X27441318Y30416248D01*
X27374030Y30480104D01*
X27317951Y30541457D01*
X27272747Y30600628D01*
X27266680Y30609644D01*
X27246166Y30639087D01*
X27223359Y30669275D01*
X27201725Y30695719D01*
X27191125Y30707525D01*
X27169151Y30731301D01*
X27146074Y30757163D01*
X27126853Y30779549D01*
X27126690Y30779747D01*
X27110875Y30796803D01*
X27087962Y30818986D01*
X27060854Y30843594D01*
X27032453Y30867925D01*
X27028475Y30871208D01*
X26946252Y30943124D01*
X26875834Y31014384D01*
X26816427Y31085931D01*
X26767237Y31158706D01*
X26733040Y31221875D01*
X26714998Y31262058D01*
X26694883Y31311752D01*
X26673708Y31368150D01*
X26652486Y31428444D01*
X26632229Y31489825D01*
X26613951Y31549485D01*
X26610259Y31562228D01*
X26576155Y31693988D01*
X26546494Y31834542D01*
X26521397Y31981945D01*
X26500986Y32134252D01*
X26485384Y32289519D01*
X26474711Y32445800D01*
X26469090Y32601151D01*
X26468641Y32753627D01*
X26473488Y32901284D01*
X26483751Y33042176D01*
X26499553Y33174360D01*
X26506550Y33219018D01*
X26512199Y33247612D01*
X26519064Y33265339D01*
X26529275Y33273163D01*
X26544963Y33272050D01*
G37*
X26544963Y33272050D02*
X26568258Y33262966D01*
X26585418Y33254758D01*
X26642843Y33223219D01*
X26701093Y33185189D01*
X26757888Y33142566D01*
X26810949Y33097251D01*
X26857994Y33051144D01*
X26896746Y33006143D01*
X26915645Y32979574D01*
X26938446Y32936587D01*
X26958748Y32882672D01*
X26976000Y32819449D01*
X26985260Y32774450D01*
X26990464Y32737523D01*
X26994167Y32693973D01*
X26996371Y32646547D01*
X26997080Y32597993D01*
X26996294Y32551058D01*
X26994017Y32508489D01*
X26990250Y32473036D01*
X26984996Y32447444D01*
X26984990Y32447425D01*
X26973733Y32418173D01*
X26960467Y32396083D01*
X26946634Y32383207D01*
X26938196Y32380750D01*
X26929392Y32384841D01*
X26914819Y32395543D01*
X26898403Y32409842D01*
X26871849Y32440619D01*
X26845876Y32481912D01*
X26821498Y32531545D01*
X26799729Y32587344D01*
X26781584Y32647131D01*
X26774847Y32674861D01*
X26770749Y32696704D01*
X26767074Y32722415D01*
X26764190Y32748389D01*
X26762466Y32771026D01*
X26762271Y32786725D01*
X26762951Y32791101D01*
X26771550Y32798675D01*
X26785757Y32797674D01*
X26798904Y32790559D01*
X26814080Y32784650D01*
X26826510Y32789987D01*
X26831066Y32797509D01*
X26830120Y32810532D01*
X26821046Y32832874D01*
X26804001Y32864229D01*
X26779143Y32904292D01*
X26765315Y32925282D01*
X26737271Y32964807D01*
X26713564Y32992802D01*
X26693780Y33009514D01*
X26677503Y33015191D01*
X26664322Y33010080D01*
X26653821Y32994431D01*
X26652988Y32992502D01*
X26643689Y32966176D01*
X26636256Y32935398D01*
X26630478Y32898498D01*
X26626144Y32853809D01*
X26623044Y32799662D01*
X26621089Y32739525D01*
X26620108Y32666243D01*
X26621279Y32603514D01*
X26625065Y32549302D01*
X26631928Y32501573D01*
X26642330Y32458292D01*
X26656734Y32417424D01*
X26675601Y32376934D01*
X26699393Y32334789D01*
X26720710Y32300927D01*
X26759373Y32239794D01*
X26789788Y32187861D01*
X26812112Y32144809D01*
X26826504Y32110318D01*
X26833122Y32084069D01*
X26833516Y32073164D01*
X26829473Y32053954D01*
X26820546Y32045820D01*
X26806056Y32048617D01*
X26785326Y32062201D01*
X26784665Y32062722D01*
X26764150Y32076912D01*
X26739193Y32091431D01*
X26725997Y32098064D01*
X26699616Y32109236D01*
X26680643Y32113707D01*
X26668070Y32110393D01*
X26660891Y32098211D01*
X26658097Y32076076D01*
X26658683Y32042905D01*
X26659616Y32026638D01*
X26663940Y31970318D01*
X26670048Y31907354D01*
X26677613Y31840094D01*
X26686307Y31770886D01*
X26695804Y31702078D01*
X26705776Y31636018D01*
X26715896Y31575055D01*
X26725835Y31521536D01*
X26735268Y31477809D01*
X26737281Y31469581D01*
X26759753Y31391605D01*
X26786917Y31319321D01*
X26819821Y31251090D01*
X26859518Y31185275D01*
X26907056Y31120238D01*
X26963486Y31054342D01*
X27029858Y30985948D01*
X27074948Y30942978D01*
X27121546Y30898895D01*
X27160253Y30860331D01*
X27193136Y30824927D01*
X27222264Y30790321D01*
X27249705Y30754153D01*
X27277527Y30714063D01*
X27283991Y30704350D01*
X27322493Y30647095D01*
X27356608Y30598883D01*
X27388169Y30557687D01*
X27419010Y30521478D01*
X27450964Y30488225D01*
X27485863Y30455901D01*
X27525541Y30422477D01*
X27571400Y30386258D01*
X27612055Y30355358D01*
X27644311Y30332083D01*
X27669309Y30315678D01*
X27688191Y30305387D01*
X27700600Y30300802D01*
X27711383Y30299426D01*
X27716263Y30302916D01*
X27714898Y30312439D01*
X27706949Y30329161D01*
X27692076Y30354250D01*
X27679057Y30374784D01*
X27661852Y30402209D01*
X27645919Y30428802D01*
X27633387Y30450948D01*
X27627792Y30461841D01*
X27614920Y30489207D01*
X27631256Y30510624D01*
X27646453Y30527662D01*
X27660814Y30535338D01*
X27677397Y30533924D01*
X27699263Y30523694D01*
X27709470Y30517628D01*
X27761042Y30492371D01*
X27812853Y30479644D01*
X27864463Y30479476D01*
X27915433Y30491899D01*
X27937886Y30501529D01*
X27977204Y30526017D01*
X28005893Y30556355D01*
X28024388Y30593364D01*
X28033124Y30637866D01*
X28033247Y30681512D01*
X28024209Y30740312D01*
X28004477Y30801909D01*
X27973799Y30866836D01*
X27931923Y30935628D01*
X27878596Y31008818D01*
X27878568Y31008853D01*
X27838427Y31062284D01*
X27806888Y31109232D01*
X27782863Y31151424D01*
X27766910Y31186402D01*
X27759282Y31213108D01*
X27754202Y31246421D01*
X27751730Y31282818D01*
X27751928Y31318777D01*
X27754855Y31350774D01*
X27760572Y31375287D01*
X27763546Y31382011D01*
X27776985Y31400300D01*
X27799678Y31424041D01*
X27830062Y31452037D01*
X27866571Y31483091D01*
X27907639Y31516005D01*
X27951703Y31549582D01*
X27997197Y31582625D01*
X28042555Y31613937D01*
X28086213Y31642320D01*
X28126606Y31666576D01*
X28156786Y31682846D01*
X28210150Y31706451D01*
X28258150Y31720513D01*
X28303103Y31725601D01*
X28327100Y31724804D01*
X28372109Y31718483D01*
X28410319Y31706879D01*
X28443109Y31688760D01*
X28471862Y31662895D01*
X28497958Y31628052D01*
X28522779Y31583001D01*
X28546645Y31529113D01*
X28563126Y31489273D01*
X28576378Y31458896D01*
X28587745Y31435598D01*
X28598571Y31416996D01*
X28610200Y31400704D01*
X28623976Y31384338D01*
X28635190Y31372022D01*
X28666146Y31341932D01*
X28694774Y31322195D01*
X28723847Y31311529D01*
X28756137Y31308656D01*
X28770843Y31309425D01*
X28824682Y31318737D01*
X28869677Y31337007D01*
X28906160Y31364412D01*
X28930967Y31395400D01*
X28944075Y31423863D01*
X28949669Y31453785D01*
X28947220Y31480910D01*
X28942942Y31491858D01*
X28935257Y31500178D01*
X28919400Y31513459D01*
X28897837Y31529731D01*
X28877854Y31543772D01*
X28849926Y31564456D01*
X28816874Y31591574D01*
X28782139Y31622184D01*
X28749163Y31653344D01*
X28745676Y31656794D01*
X28706374Y31697610D01*
X28671013Y31738422D01*
X28638641Y31780833D01*
X28608305Y31826447D01*
X28579052Y31876867D01*
X28549929Y31933697D01*
X28519984Y31998540D01*
X28488263Y32073001D01*
X28466468Y32126750D01*
X28449065Y32169523D01*
X28430959Y32212599D01*
X28413421Y32253053D01*
X28397720Y32287965D01*
X28385128Y32314412D01*
X28383515Y32317606D01*
X28357471Y32364031D01*
X28327398Y32408443D01*
X28292103Y32452089D01*
X28250395Y32496218D01*
X28201079Y32542078D01*
X28142964Y32590918D01*
X28074858Y32643985D01*
X28063525Y32652523D01*
X27997351Y32699344D01*
X27935505Y32736632D01*
X27875333Y32765463D01*
X27814184Y32786913D01*
X27749402Y32802060D01*
X27678336Y32811978D01*
X27667959Y32812990D01*
X27606092Y32815731D01*
X27536193Y32813676D01*
X27461817Y32807231D01*
X27386520Y32796800D01*
X27313856Y32782788D01*
X27247379Y32765600D01*
X27244683Y32764787D01*
X27225557Y32759525D01*
X27214289Y32758583D01*
X27206788Y32761979D01*
X27203515Y32764962D01*
X27197859Y32775195D01*
X27201617Y32786460D01*
X27215608Y32799874D01*
X27240649Y32816554D01*
X27241883Y32817299D01*
X27317547Y32856289D01*
X27402011Y32887963D01*
X27493547Y32912114D01*
X27590430Y32928531D01*
X27690934Y32937006D01*
X27793330Y32937329D01*
X27895894Y32929293D01*
X27996899Y32912688D01*
X28008808Y32910115D01*
X28080862Y32891945D01*
X28150490Y32869579D01*
X28221540Y32841629D01*
X28297862Y32806705D01*
X28304825Y32803318D01*
X28355273Y32777105D01*
X28408988Y32746434D01*
X28463924Y32712692D01*
X28518037Y32677268D01*
X28569281Y32641553D01*
X28615613Y32606933D01*
X28654987Y32574799D01*
X28685359Y32546539D01*
X28689934Y32541731D01*
X28706744Y32523625D01*
X28690515Y32463300D01*
X28683783Y32436421D01*
X28679142Y32412159D01*
X28676205Y32386914D01*
X28674586Y32357086D01*
X28673900Y32319076D01*
X28673828Y32307725D01*
X28674153Y32260556D01*
X28676046Y32221737D01*
X28680124Y32186951D01*
X28687003Y32151884D01*
X28697297Y32112220D01*
X28706002Y32082300D01*
X28718731Y32043862D01*
X28735102Y32000667D01*
X28753715Y31955908D01*
X28773170Y31912779D01*
X28792068Y31874472D01*
X28809008Y31844183D01*
X28813332Y31837390D01*
X28856671Y31782650D01*
X28910640Y31732361D01*
X28973632Y31687579D01*
X29044039Y31649359D01*
X29120252Y31618756D01*
X29167882Y31604548D01*
X29198417Y31596059D01*
X29218419Y31588956D01*
X29229831Y31582264D01*
X29234599Y31575011D01*
X29235100Y31570897D01*
X29231524Y31562607D01*
X29221876Y31546755D01*
X29207775Y31525885D01*
X29196201Y31509762D01*
X29142709Y31444404D01*
X29080498Y31381089D01*
X29012422Y31322242D01*
X28941337Y31270290D01*
X28870098Y31227659D01*
X28855225Y31220038D01*
X28824533Y31205492D01*
X28800689Y31196218D01*
X28779650Y31190955D01*
X28757376Y31188436D01*
X28753441Y31188204D01*
X28727719Y31187735D01*
X28708102Y31190542D01*
X28688138Y31197978D01*
X28674023Y31204861D01*
X28636822Y31223780D01*
X28590050Y31198552D01*
X28557680Y31183090D01*
X28534113Y31176454D01*
X28519051Y31178610D01*
X28512217Y31189417D01*
X28513854Y31200078D01*
X28520123Y31218936D01*
X28529903Y31242862D01*
X28536784Y31257918D01*
X28547925Y31282061D01*
X28556296Y31301557D01*
X28560833Y31313846D01*
X28561232Y31316746D01*
X28555481Y31314188D01*
X28541930Y31305433D01*
X28522859Y31292007D01*
X28508770Y31281637D01*
X28477834Y31259735D01*
X28448244Y31241014D01*
X28421982Y31226534D01*
X28401029Y31217352D01*
X28387367Y31214526D01*
X28384534Y31215318D01*
X28379741Y31220078D01*
X28379179Y31227286D01*
X28383626Y31238656D01*
X28393861Y31255905D01*
X28410664Y31280750D01*
X28420766Y31295135D01*
X28440460Y31323859D01*
X28459686Y31353390D01*
X28475837Y31379647D01*
X28483973Y31394000D01*
X28504371Y31432305D01*
X28482357Y31464993D01*
X28444193Y31512656D01*
X28401251Y31548834D01*
X28352659Y31573988D01*
X28297544Y31588574D01*
X28238150Y31593060D01*
X28183457Y31587008D01*
X28128523Y31569670D01*
X28074788Y31542351D01*
X28023693Y31506353D01*
X27976677Y31462979D01*
X27935182Y31413534D01*
X27900648Y31359319D01*
X27874515Y31301639D01*
X27860002Y31250946D01*
X27855076Y31213384D01*
X27856676Y31176155D01*
X27865353Y31137257D01*
X27881658Y31094688D01*
X27906140Y31046446D01*
X27925303Y31013415D01*
X27937684Y30993755D01*
X27946566Y30983122D01*
X27954482Y30979369D01*
X27963970Y30980350D01*
X27964274Y30980422D01*
X27992345Y30990053D01*
X28028108Y31006921D01*
X28069611Y31029998D01*
X28114903Y31058255D01*
X28126280Y31065800D01*
X28157316Y31086540D01*
X28179617Y31100969D01*
X28194981Y31109872D01*
X28205209Y31114032D01*
X28212098Y31114232D01*
X28217448Y31111255D01*
X28221626Y31107315D01*
X28227534Y31097436D01*
X28228869Y31082810D01*
X28225383Y31061616D01*
X28216832Y31032033D01*
X28207918Y31005975D01*
X28183326Y30945521D01*
X28152142Y30885113D01*
X28123004Y30837065D01*
X28109310Y30815165D01*
X28098726Y30797256D01*
X28092817Y30786033D01*
X28092100Y30783852D01*
X28097525Y30780237D01*
X28112090Y30780956D01*
X28133231Y30785417D01*
X28158382Y30793026D01*
X28184978Y30803193D01*
X28194973Y30807622D01*
X28220614Y30818845D01*
X28237230Y30824364D01*
X28246855Y30824728D01*
X28250286Y30822504D01*
X28250727Y30812521D01*
X28243495Y30794414D01*
X28229379Y30769529D01*
X28209168Y30739209D01*
X28183651Y30704800D01*
X28173915Y30692418D01*
X28156502Y30670243D01*
X28145565Y30654420D01*
X28139598Y30641423D01*
X28137097Y30627725D01*
X28136555Y30609801D01*
X28136550Y30604902D01*
X28134869Y30574663D01*
X28128847Y30548609D01*
X28117011Y30522993D01*
X28097888Y30494066D01*
X28087676Y30480477D01*
X28039257Y30422147D01*
X27988468Y30369447D01*
X27936675Y30323432D01*
X27885245Y30285159D01*
X27835544Y30255683D01*
X27788939Y30236063D01*
X27762914Y30229438D01*
X27734078Y30225968D01*
X27708326Y30227558D01*
X27682851Y30235136D01*
X27654847Y30249633D01*
X27621507Y30271976D01*
X27610870Y30279738D01*
X27520153Y30349566D01*
X27441318Y30416248D01*
X27374030Y30480104D01*
X27317951Y30541457D01*
X27272747Y30600628D01*
X27266680Y30609644D01*
X27246166Y30639087D01*
X27223359Y30669275D01*
X27201725Y30695719D01*
X27191125Y30707525D01*
X27169151Y30731301D01*
X27146074Y30757163D01*
X27126853Y30779549D01*
X27126690Y30779747D01*
X27110875Y30796803D01*
X27087962Y30818986D01*
X27060854Y30843594D01*
X27032453Y30867925D01*
X27028475Y30871208D01*
X26946252Y30943124D01*
X26875834Y31014384D01*
X26816427Y31085931D01*
X26767237Y31158706D01*
X26733040Y31221875D01*
X26714998Y31262058D01*
X26694883Y31311752D01*
X26673708Y31368150D01*
X26652486Y31428444D01*
X26632229Y31489825D01*
X26613951Y31549485D01*
X26610259Y31562228D01*
X26576155Y31693988D01*
X26546494Y31834542D01*
X26521397Y31981945D01*
X26500986Y32134252D01*
X26485384Y32289519D01*
X26474711Y32445800D01*
X26469090Y32601151D01*
X26468641Y32753627D01*
X26473488Y32901284D01*
X26483751Y33042176D01*
X26499553Y33174360D01*
X26506550Y33219018D01*
X26512199Y33247612D01*
X26519064Y33265339D01*
X26529275Y33273163D01*
X26544963Y33272050D01*
G36*
X27636122Y31128557D02*
G01*
X27669825Y31126625D01*
X27636614Y31118133D01*
X27601785Y31105070D01*
X27565370Y31084547D01*
X27532232Y31059698D01*
X27508910Y31035826D01*
X27495856Y31017422D01*
X27481829Y30994648D01*
X27468613Y30970811D01*
X27457993Y30949218D01*
X27451752Y30933175D01*
X27450830Y30928187D01*
X27446612Y30920809D01*
X27444196Y30920250D01*
X27433884Y30922540D01*
X27419118Y30928041D01*
X27404604Y30934696D01*
X27395048Y30940447D01*
X27393600Y30942362D01*
X27396655Y30951529D01*
X27404569Y30968017D01*
X27415459Y30988381D01*
X27427444Y31009177D01*
X27438644Y31026960D01*
X27443713Y31034112D01*
X27466075Y31057817D01*
X27495852Y31081722D01*
X27528535Y31102702D01*
X27559613Y31117633D01*
X27568616Y31120661D01*
X27595661Y31126165D01*
X27624848Y31128692D01*
X27636122Y31128557D01*
G37*
X27636122Y31128557D02*
X27669825Y31126625D01*
X27636614Y31118133D01*
X27601785Y31105070D01*
X27565370Y31084547D01*
X27532232Y31059698D01*
X27508910Y31035826D01*
X27495856Y31017422D01*
X27481829Y30994648D01*
X27468613Y30970811D01*
X27457993Y30949218D01*
X27451752Y30933175D01*
X27450830Y30928187D01*
X27446612Y30920809D01*
X27444196Y30920250D01*
X27433884Y30922540D01*
X27419118Y30928041D01*
X27404604Y30934696D01*
X27395048Y30940447D01*
X27393600Y30942362D01*
X27396655Y30951529D01*
X27404569Y30968017D01*
X27415459Y30988381D01*
X27427444Y31009177D01*
X27438644Y31026960D01*
X27443713Y31034112D01*
X27466075Y31057817D01*
X27495852Y31081722D01*
X27528535Y31102702D01*
X27559613Y31117633D01*
X27568616Y31120661D01*
X27595661Y31126165D01*
X27624848Y31128692D01*
X27636122Y31128557D01*
G36*
X27151350Y32207089D02*
G01*
X27165970Y32198459D01*
X27189080Y32183536D01*
X27211453Y32168684D01*
X27247310Y32145112D01*
X27289204Y32118157D01*
X27332259Y32090926D01*
X27371597Y32066526D01*
X27376637Y32063448D01*
X27409865Y32042943D01*
X27433574Y32027542D01*
X27449271Y32016053D01*
X27458466Y32007283D01*
X27462667Y32000039D01*
X27463450Y31994834D01*
X27465052Y31978492D01*
X27469565Y31951798D01*
X27476545Y31916650D01*
X27485550Y31874946D01*
X27496138Y31828583D01*
X27507864Y31779460D01*
X27520288Y31729475D01*
X27532966Y31680524D01*
X27545455Y31634506D01*
X27556358Y31596525D01*
X27557513Y31588285D01*
X27553503Y31590175D01*
X27548131Y31598087D01*
X27538469Y31614860D01*
X27525912Y31637997D01*
X27512509Y31663710D01*
X27491037Y31709698D01*
X27469728Y31762519D01*
X27450013Y31818053D01*
X27433325Y31872177D01*
X27421098Y31920768D01*
X27418324Y31934680D01*
X27413654Y31958496D01*
X27408738Y31973814D01*
X27401057Y31984633D01*
X27388094Y31994952D01*
X27374756Y32003870D01*
X27334228Y32032046D01*
X27292632Y32063611D01*
X27252074Y32096745D01*
X27214656Y32129626D01*
X27182483Y32160431D01*
X27157660Y32187341D01*
X27147160Y32200873D01*
X27143071Y32207733D01*
X27144092Y32209993D01*
X27151350Y32207089D01*
G37*
X27151350Y32207089D02*
X27165970Y32198459D01*
X27189080Y32183536D01*
X27211453Y32168684D01*
X27247310Y32145112D01*
X27289204Y32118157D01*
X27332259Y32090926D01*
X27371597Y32066526D01*
X27376637Y32063448D01*
X27409865Y32042943D01*
X27433574Y32027542D01*
X27449271Y32016053D01*
X27458466Y32007283D01*
X27462667Y32000039D01*
X27463450Y31994834D01*
X27465052Y31978492D01*
X27469565Y31951798D01*
X27476545Y31916650D01*
X27485550Y31874946D01*
X27496138Y31828583D01*
X27507864Y31779460D01*
X27520288Y31729475D01*
X27532966Y31680524D01*
X27545455Y31634506D01*
X27556358Y31596525D01*
X27557513Y31588285D01*
X27553503Y31590175D01*
X27548131Y31598087D01*
X27538469Y31614860D01*
X27525912Y31637997D01*
X27512509Y31663710D01*
X27491037Y31709698D01*
X27469728Y31762519D01*
X27450013Y31818053D01*
X27433325Y31872177D01*
X27421098Y31920768D01*
X27418324Y31934680D01*
X27413654Y31958496D01*
X27408738Y31973814D01*
X27401057Y31984633D01*
X27388094Y31994952D01*
X27374756Y32003870D01*
X27334228Y32032046D01*
X27292632Y32063611D01*
X27252074Y32096745D01*
X27214656Y32129626D01*
X27182483Y32160431D01*
X27157660Y32187341D01*
X27147160Y32200873D01*
X27143071Y32207733D01*
X27144092Y32209993D01*
X27151350Y32207089D01*
G36*
X27010702Y31485370D02*
G01*
X27022946Y31481652D01*
X27060278Y31464998D01*
X27097398Y31441505D01*
X27129372Y31414532D01*
X27142099Y31400527D01*
X27152997Y31386331D01*
X27168704Y31364971D01*
X27187641Y31338692D01*
X27208230Y31309735D01*
X27228892Y31280345D01*
X27248047Y31252764D01*
X27264118Y31229236D01*
X27275523Y31212003D01*
X27280146Y31204412D01*
X27283039Y31195464D01*
X27281452Y31193300D01*
X27273895Y31196634D01*
X27260029Y31205087D01*
X27252108Y31210416D01*
X27227408Y31227533D01*
X27207316Y31204640D01*
X27181700Y31179774D01*
X27155534Y31164561D01*
X27124496Y31156526D01*
X27122870Y31156287D01*
X27104734Y31153129D01*
X27094977Y31147950D01*
X27089680Y31137051D01*
X27085959Y31121450D01*
X27081016Y31103871D01*
X27075823Y31092878D01*
X27073361Y31091008D01*
X27070426Y31096871D01*
X27064805Y31113225D01*
X27056997Y31138265D01*
X27047500Y31170187D01*
X27036814Y31207187D01*
X27025438Y31247462D01*
X27013871Y31289207D01*
X27002611Y31330619D01*
X26992158Y31369894D01*
X26983011Y31405227D01*
X26975669Y31434815D01*
X26970630Y31456854D01*
X26968395Y31469540D01*
X26968329Y31470684D01*
X26972938Y31483800D01*
X26987113Y31488705D01*
X27010702Y31485370D01*
G37*
X27010702Y31485370D02*
X27022946Y31481652D01*
X27060278Y31464998D01*
X27097398Y31441505D01*
X27129372Y31414532D01*
X27142099Y31400527D01*
X27152997Y31386331D01*
X27168704Y31364971D01*
X27187641Y31338692D01*
X27208230Y31309735D01*
X27228892Y31280345D01*
X27248047Y31252764D01*
X27264118Y31229236D01*
X27275523Y31212003D01*
X27280146Y31204412D01*
X27283039Y31195464D01*
X27281452Y31193300D01*
X27273895Y31196634D01*
X27260029Y31205087D01*
X27252108Y31210416D01*
X27227408Y31227533D01*
X27207316Y31204640D01*
X27181700Y31179774D01*
X27155534Y31164561D01*
X27124496Y31156526D01*
X27122870Y31156287D01*
X27104734Y31153129D01*
X27094977Y31147950D01*
X27089680Y31137051D01*
X27085959Y31121450D01*
X27081016Y31103871D01*
X27075823Y31092878D01*
X27073361Y31091008D01*
X27070426Y31096871D01*
X27064805Y31113225D01*
X27056997Y31138265D01*
X27047500Y31170187D01*
X27036814Y31207187D01*
X27025438Y31247462D01*
X27013871Y31289207D01*
X27002611Y31330619D01*
X26992158Y31369894D01*
X26983011Y31405227D01*
X26975669Y31434815D01*
X26970630Y31456854D01*
X26968395Y31469540D01*
X26968329Y31470684D01*
X26972938Y31483800D01*
X26987113Y31488705D01*
X27010702Y31485370D01*
D13*
%TO.C,U1*%
X11060000Y40800000D02*
X11060000Y40150000D01*
X7940000Y40800000D02*
X7940000Y40150000D01*
X11060000Y40800000D02*
X11060000Y42475000D01*
X7940000Y40800000D02*
X7940000Y41450000D01*
%TO.C,RN1*%
X15630000Y36550000D02*
X15630000Y34450000D01*
X20970000Y36550000D02*
X20970000Y34450000D01*
%TO.C,R4*%
X11435000Y29827064D02*
X11435000Y29372936D01*
X9965000Y29827064D02*
X9965000Y29372936D01*
%TO.C,R3*%
X13165000Y29372936D02*
X13165000Y29827064D01*
X14635000Y29372936D02*
X14635000Y29827064D01*
%TO.C,R2*%
X6127064Y34735000D02*
X5672936Y34735000D01*
X6127064Y33265000D02*
X5672936Y33265000D01*
%TO.C,R1*%
X18035000Y41027064D02*
X18035000Y40572936D01*
X16565000Y41027064D02*
X16565000Y40572936D01*
%TO.C,Q1*%
X23140000Y35500000D02*
X23140000Y36150000D01*
X26260000Y35500000D02*
X26260000Y36150000D01*
X23140000Y35500000D02*
X23140000Y33825000D01*
X26260000Y35500000D02*
X26260000Y34850000D01*
%TO.C,JP1*%
X22000000Y30100000D02*
X22000000Y32100000D01*
X24800000Y30100000D02*
X22000000Y30100000D01*
X24800000Y32100000D02*
X24800000Y30100000D01*
X22000000Y32100000D02*
X24800000Y32100000D01*
D14*
%TO.C,J4*%
X41565000Y30225000D02*
X29565000Y30225000D01*
X41565000Y21725000D02*
X41565000Y30225000D01*
X29565000Y21725000D02*
X41565000Y21725000D01*
X29565000Y30225000D02*
X29565000Y21725000D01*
%TO.C,J3*%
X33015000Y17410000D02*
X33015000Y10660000D01*
X33015000Y10660000D02*
X29815000Y10660000D01*
X29815000Y10660000D02*
X29815000Y17410000D01*
X29815000Y17410000D02*
X33015000Y17410000D01*
D10*
X31865000Y9660000D02*
X31865000Y9660000D01*
X31865000Y9560000D02*
X31865000Y9560000D01*
X31865000Y9660000D02*
X31865000Y9660000D01*
X31865000Y9660000D02*
G75*
G03*
X31865000Y9560000I0J-50000D01*
G01*
X31865000Y9560000D02*
G75*
G03*
X31865000Y9660000I0J50000D01*
G01*
X31865000Y9660000D02*
G75*
G03*
X31865000Y9560000I0J-50000D01*
G01*
D13*
%TO.C,J2*%
X38790000Y15335000D02*
X41450000Y15335000D01*
X38790000Y17935000D02*
X40120000Y17935000D01*
X41450000Y15335000D02*
X41450000Y10195000D01*
X38790000Y16605000D02*
X38790000Y17935000D01*
X38790000Y15335000D02*
X38790000Y10195000D01*
X38790000Y10195000D02*
X41450000Y10195000D01*
D14*
%TO.C,J1*%
X41565000Y42290000D02*
X29565000Y42290000D01*
X41565000Y33790000D02*
X41565000Y42290000D01*
X29565000Y33790000D02*
X41565000Y33790000D01*
X29565000Y42290000D02*
X29565000Y33790000D01*
D13*
%TO.C,IC1*%
X10140000Y35500000D02*
X10140000Y33700000D01*
X13260000Y35500000D02*
X13260000Y36300000D01*
X10140000Y35500000D02*
X10140000Y36300000D01*
X13260000Y35500000D02*
X13260000Y34700000D01*
%TO.C,D1*%
X32030000Y2735000D02*
X29745000Y2735000D01*
X29745000Y2735000D02*
X29745000Y1265000D01*
X29745000Y1265000D02*
X32030000Y1265000D01*
%TO.C,C6*%
X6161252Y38035000D02*
X5638748Y38035000D01*
X6161252Y36565000D02*
X5638748Y36565000D01*
%TO.C,C5*%
X13165000Y40538748D02*
X13165000Y41061252D01*
X14635000Y40538748D02*
X14635000Y41061252D01*
%TO.C,C4*%
X31491252Y5910000D02*
X30968748Y5910000D01*
X31491252Y4440000D02*
X30968748Y4440000D01*
%TO.C,C3*%
X31491252Y9085000D02*
X30968748Y9085000D01*
X31491252Y7615000D02*
X30968748Y7615000D01*
%TO.C,C2*%
X18035000Y29861252D02*
X18035000Y29338748D01*
X16565000Y29861252D02*
X16565000Y29338748D01*
%TO.C,C1*%
X6161252Y31435000D02*
X5638748Y31435000D01*
X6161252Y29965000D02*
X5638748Y29965000D01*
%TD*%
M02*
