%TF.GenerationSoftware,KiCad,Pcbnew,(6.0.5-0)*%
%TF.CreationDate,2022-07-05T23:07:10-07:00*%
%TF.ProjectId,gigablox-nano-rvp,67696761-626c-46f7-982d-6e616e6f2d72,rev?*%
%TF.SameCoordinates,PX5a1f4a0PY3e77360*%
%TF.FileFunction,Soldermask,Top*%
%TF.FilePolarity,Negative*%
%FSLAX46Y46*%
G04 Gerber Fmt 4.6, Leading zero omitted, Abs format (unit mm)*
G04 Created by KiCad (PCBNEW (6.0.5-0)) date 2022-07-05 23:07:10*
%MOMM*%
%LPD*%
G01*
G04 APERTURE LIST*
G04 Aperture macros list*
%AMRoundRect*
0 Rectangle with rounded corners*
0 $1 Rounding radius*
0 $2 $3 $4 $5 $6 $7 $8 $9 X,Y pos of 4 corners*
0 Add a 4 corners polygon primitive as box body*
4,1,4,$2,$3,$4,$5,$6,$7,$8,$9,$2,$3,0*
0 Add four circle primitives for the rounded corners*
1,1,$1+$1,$2,$3*
1,1,$1+$1,$4,$5*
1,1,$1+$1,$6,$7*
1,1,$1+$1,$8,$9*
0 Add four rect primitives between the rounded corners*
20,1,$1+$1,$2,$3,$4,$5,0*
20,1,$1+$1,$4,$5,$6,$7,0*
20,1,$1+$1,$6,$7,$8,$9,0*
20,1,$1+$1,$8,$9,$2,$3,0*%
%AMFreePoly0*
4,1,6,1.000000,0.000000,0.500000,-0.750000,-0.500000,-0.750000,-0.500000,0.750000,0.500000,0.750000,1.000000,0.000000,1.000000,0.000000,$1*%
%AMFreePoly1*
4,1,6,0.500000,-0.750000,-0.650000,-0.750000,-0.150000,0.000000,-0.650000,0.750000,0.500000,0.750000,0.500000,-0.750000,0.500000,-0.750000,$1*%
G04 Aperture macros list end*
%ADD10C,2.200000*%
%ADD11RoundRect,0.150000X-0.150000X0.587500X-0.150000X-0.587500X0.150000X-0.587500X0.150000X0.587500X0*%
%ADD12R,0.900000X0.900000*%
%ADD13RoundRect,0.250000X-0.450000X0.262500X-0.450000X-0.262500X0.450000X-0.262500X0.450000X0.262500X0*%
%ADD14RoundRect,0.250000X0.450000X-0.262500X0.450000X0.262500X-0.450000X0.262500X-0.450000X-0.262500X0*%
%ADD15RoundRect,0.250000X0.262500X0.450000X-0.262500X0.450000X-0.262500X-0.450000X0.262500X-0.450000X0*%
%ADD16RoundRect,0.150000X0.150000X-0.587500X0.150000X0.587500X-0.150000X0.587500X-0.150000X-0.587500X0*%
%ADD17FreePoly0,0.000000*%
%ADD18FreePoly1,0.000000*%
%ADD19C,1.650000*%
%ADD20C,1.100000*%
%ADD21O,1.700000X1.700000*%
%ADD22R,1.700000X1.700000*%
%ADD23RoundRect,0.150000X0.150000X-0.512500X0.150000X0.512500X-0.150000X0.512500X-0.150000X-0.512500X0*%
%ADD24RoundRect,0.218750X-0.218750X-0.256250X0.218750X-0.256250X0.218750X0.256250X-0.218750X0.256250X0*%
%ADD25RoundRect,0.250000X0.250000X0.475000X-0.250000X0.475000X-0.250000X-0.475000X0.250000X-0.475000X0*%
%ADD26RoundRect,0.250000X0.475000X-0.250000X0.475000X0.250000X-0.475000X0.250000X-0.475000X-0.250000X0*%
%ADD27RoundRect,0.250000X-0.475000X0.250000X-0.475000X-0.250000X0.475000X-0.250000X0.475000X0.250000X0*%
G04 APERTURE END LIST*
D10*
%TO.C,H3*%
X41300000Y2300000D03*
%TD*%
%TO.C,H2*%
X2300000Y41300000D03*
%TD*%
%TO.C,H1*%
X23700000Y41300000D03*
%TD*%
D11*
%TO.C,U1*%
X10450000Y41737500D03*
X8550000Y41737500D03*
X9500000Y39862500D03*
%TD*%
D12*
%TO.C,RN1*%
X16300000Y37000000D03*
X17640000Y37000000D03*
X18960000Y37000000D03*
X20300000Y37000000D03*
X20300000Y34000000D03*
X18960000Y34000000D03*
X17640000Y34000000D03*
X16300000Y34000000D03*
%TD*%
D13*
%TO.C,R4*%
X10700000Y30512500D03*
X10700000Y28687500D03*
%TD*%
D14*
%TO.C,R3*%
X13900000Y28687500D03*
X13900000Y30512500D03*
%TD*%
D15*
%TO.C,R2*%
X4987500Y34000000D03*
X6812500Y34000000D03*
%TD*%
D13*
%TO.C,R1*%
X17300000Y41712500D03*
X17300000Y39887500D03*
%TD*%
D16*
%TO.C,Q1*%
X23750000Y34562500D03*
X25650000Y34562500D03*
X24700000Y36437500D03*
%TD*%
D17*
%TO.C,JP1*%
X22675000Y31100000D03*
D18*
X24125000Y31100000D03*
%TD*%
D19*
%TO.C,J4*%
X31865000Y24225000D03*
X36865000Y27725000D03*
%TD*%
D20*
%TO.C,J3*%
X31865000Y12160000D03*
X31865000Y13410000D03*
X31865000Y14660000D03*
X31865000Y15910000D03*
%TD*%
D21*
%TO.C,J2*%
X40120000Y11525000D03*
X40120000Y14065000D03*
D22*
X40120000Y16605000D03*
%TD*%
D19*
%TO.C,J1*%
X31865000Y36290000D03*
X36865000Y39790000D03*
%TD*%
D23*
%TO.C,IC1*%
X10750000Y36637500D03*
X11700000Y36637500D03*
X12650000Y36637500D03*
X12650000Y34362500D03*
X11700000Y34362500D03*
X10750000Y34362500D03*
%TD*%
D24*
%TO.C,D1*%
X32017500Y2000000D03*
X30442500Y2000000D03*
%TD*%
D25*
%TO.C,C6*%
X6850000Y37300000D03*
X4950000Y37300000D03*
%TD*%
D26*
%TO.C,C5*%
X13900000Y41750000D03*
X13900000Y39850000D03*
%TD*%
D25*
%TO.C,C4*%
X32180000Y5175000D03*
X30280000Y5175000D03*
%TD*%
%TO.C,C3*%
X32180000Y8350000D03*
X30280000Y8350000D03*
%TD*%
D27*
%TO.C,C2*%
X17300000Y28650000D03*
X17300000Y30550000D03*
%TD*%
D25*
%TO.C,C1*%
X6850000Y30700000D03*
X4950000Y30700000D03*
%TD*%
M02*
