%TF.GenerationSoftware,KiCad,Pcbnew,(6.0.5-0)*%
%TF.CreationDate,2022-07-05T23:07:10-07:00*%
%TF.ProjectId,gigablox-nano-rvp,67696761-626c-46f7-982d-6e616e6f2d72,rev?*%
%TF.SameCoordinates,PX5a1f4a0PY3e77360*%
%TF.FileFunction,Copper,L2,Bot*%
%TF.FilePolarity,Positive*%
%FSLAX46Y46*%
G04 Gerber Fmt 4.6, Leading zero omitted, Abs format (unit mm)*
G04 Created by KiCad (PCBNEW (6.0.5-0)) date 2022-07-05 23:07:10*
%MOMM*%
%LPD*%
G01*
G04 APERTURE LIST*
%ADD10C,0.150000*%
%TA.AperFunction,NonConductor*%
%ADD11C,0.150000*%
%TD*%
%TA.AperFunction,ComponentPad*%
%ADD12C,1.650000*%
%TD*%
%TA.AperFunction,ComponentPad*%
%ADD13C,1.100000*%
%TD*%
%TA.AperFunction,ComponentPad*%
%ADD14O,1.700000X1.700000*%
%TD*%
%TA.AperFunction,ComponentPad*%
%ADD15R,1.700000X1.700000*%
%TD*%
%TA.AperFunction,ViaPad*%
%ADD16C,0.800000*%
%TD*%
%TA.AperFunction,Conductor*%
%ADD17C,0.250000*%
%TD*%
G04 APERTURE END LIST*
D10*
D11*
X26471428Y42852381D02*
X26471428Y42185715D01*
X26471428Y41852381D02*
X26430952Y41900000D01*
X26471428Y41947620D01*
X26511904Y41900000D01*
X26471428Y41852381D01*
X26471428Y41947620D01*
X26876190Y42852381D02*
X26876190Y41852381D01*
X27240476Y42852381D02*
X27240476Y42328572D01*
X27200000Y42233334D01*
X27119047Y42185715D01*
X26997619Y42185715D01*
X26916666Y42233334D01*
X26876190Y42280953D01*
X28009523Y42852381D02*
X28009523Y42328572D01*
X27969047Y42233334D01*
X27888095Y42185715D01*
X27726190Y42185715D01*
X27645238Y42233334D01*
X28009523Y42804762D02*
X27928571Y42852381D01*
X27726190Y42852381D01*
X27645238Y42804762D01*
X27604761Y42709524D01*
X27604761Y42614286D01*
X27645238Y42519048D01*
X27726190Y42471429D01*
X27928571Y42471429D01*
X28009523Y42423810D01*
X28414285Y42852381D02*
X28414285Y42185715D01*
X28414285Y42376191D02*
X28454761Y42280953D01*
X28495238Y42233334D01*
X28576190Y42185715D01*
X28657142Y42185715D01*
X28819047Y42185715D02*
X29142857Y42185715D01*
X28940476Y41852381D02*
X28940476Y42709524D01*
X28980952Y42804762D01*
X29061904Y42852381D01*
X29142857Y42852381D01*
X29345238Y42185715D02*
X29507142Y42852381D01*
X29669047Y42376191D01*
X29830952Y42852381D01*
X29992857Y42185715D01*
X30316666Y42852381D02*
X30316666Y42185715D01*
X30316666Y41852381D02*
X30276190Y41900000D01*
X30316666Y41947620D01*
X30357142Y41900000D01*
X30316666Y41852381D01*
X30316666Y41947620D01*
X31085714Y42185715D02*
X31085714Y42995239D01*
X31045238Y43090477D01*
X31004761Y43138096D01*
X30923809Y43185715D01*
X30802380Y43185715D01*
X30721428Y43138096D01*
X31085714Y42804762D02*
X31004761Y42852381D01*
X30842857Y42852381D01*
X30761904Y42804762D01*
X30721428Y42757143D01*
X30680952Y42661905D01*
X30680952Y42376191D01*
X30721428Y42280953D01*
X30761904Y42233334D01*
X30842857Y42185715D01*
X31004761Y42185715D01*
X31085714Y42233334D01*
X32016666Y42376191D02*
X31976190Y42328572D01*
X31895238Y42280953D01*
X31814285Y42280953D01*
X31733333Y42328572D01*
X31692857Y42376191D01*
X31652380Y42471429D01*
X31652380Y42566667D01*
X31692857Y42661905D01*
X31733333Y42709524D01*
X31814285Y42757143D01*
X31895238Y42757143D01*
X31976190Y42709524D01*
X32016666Y42661905D01*
X32016666Y42280953D02*
X32016666Y42661905D01*
X32057142Y42709524D01*
X32097619Y42709524D01*
X32178571Y42661905D01*
X32219047Y42566667D01*
X32219047Y42328572D01*
X32138095Y42185715D01*
X32016666Y42090477D01*
X31854761Y42042858D01*
X31692857Y42090477D01*
X31571428Y42185715D01*
X31490476Y42328572D01*
X31450000Y42519048D01*
X31490476Y42709524D01*
X31571428Y42852381D01*
X31692857Y42947620D01*
X31854761Y42995239D01*
X32016666Y42947620D01*
X32138095Y42852381D01*
X33230952Y42852381D02*
X33230952Y41852381D01*
X33635714Y42852381D02*
X33635714Y42185715D01*
X33635714Y42376191D02*
X33676190Y42280953D01*
X33716666Y42233334D01*
X33797619Y42185715D01*
X33878571Y42185715D01*
X34283333Y42852381D02*
X34202380Y42804762D01*
X34161904Y42757143D01*
X34121428Y42661905D01*
X34121428Y42376191D01*
X34161904Y42280953D01*
X34202380Y42233334D01*
X34283333Y42185715D01*
X34404761Y42185715D01*
X34485714Y42233334D01*
X34526190Y42280953D01*
X34566666Y42376191D01*
X34566666Y42661905D01*
X34526190Y42757143D01*
X34485714Y42804762D01*
X34404761Y42852381D01*
X34283333Y42852381D01*
X34930952Y42185715D02*
X34930952Y42852381D01*
X34930952Y42280953D02*
X34971428Y42233334D01*
X35052380Y42185715D01*
X35173809Y42185715D01*
X35254761Y42233334D01*
X35295238Y42328572D01*
X35295238Y42852381D01*
X36347619Y42852381D02*
X36347619Y41852381D01*
X36671428Y41852381D01*
X36752380Y41900000D01*
X36792857Y41947620D01*
X36833333Y42042858D01*
X36833333Y42185715D01*
X36792857Y42280953D01*
X36752380Y42328572D01*
X36671428Y42376191D01*
X36347619Y42376191D01*
X37561904Y42852381D02*
X37561904Y42328572D01*
X37521428Y42233334D01*
X37440476Y42185715D01*
X37278571Y42185715D01*
X37197619Y42233334D01*
X37561904Y42804762D02*
X37480952Y42852381D01*
X37278571Y42852381D01*
X37197619Y42804762D01*
X37157142Y42709524D01*
X37157142Y42614286D01*
X37197619Y42519048D01*
X37278571Y42471429D01*
X37480952Y42471429D01*
X37561904Y42423810D01*
X37966666Y42185715D02*
X37966666Y42852381D01*
X37966666Y42280953D02*
X38007142Y42233334D01*
X38088095Y42185715D01*
X38209523Y42185715D01*
X38290476Y42233334D01*
X38330952Y42328572D01*
X38330952Y42852381D01*
X38614285Y42185715D02*
X38938095Y42185715D01*
X38735714Y41852381D02*
X38735714Y42709524D01*
X38776190Y42804762D01*
X38857142Y42852381D01*
X38938095Y42852381D01*
X39221428Y42852381D02*
X39221428Y41852381D01*
X39585714Y42852381D02*
X39585714Y42328572D01*
X39545238Y42233334D01*
X39464285Y42185715D01*
X39342857Y42185715D01*
X39261904Y42233334D01*
X39221428Y42280953D01*
X40314285Y42804762D02*
X40233333Y42852381D01*
X40071428Y42852381D01*
X39990476Y42804762D01*
X39950000Y42709524D01*
X39950000Y42328572D01*
X39990476Y42233334D01*
X40071428Y42185715D01*
X40233333Y42185715D01*
X40314285Y42233334D01*
X40354761Y42328572D01*
X40354761Y42423810D01*
X39950000Y42519048D01*
X40719047Y42852381D02*
X40719047Y42185715D01*
X40719047Y42376191D02*
X40759523Y42280953D01*
X40800000Y42233334D01*
X40880952Y42185715D01*
X40961904Y42185715D01*
X41204761Y42804762D02*
X41285714Y42852381D01*
X41447619Y42852381D01*
X41528571Y42804762D01*
X41569047Y42709524D01*
X41569047Y42661905D01*
X41528571Y42566667D01*
X41447619Y42519048D01*
X41326190Y42519048D01*
X41245238Y42471429D01*
X41204761Y42376191D01*
X41204761Y42328572D01*
X41245238Y42233334D01*
X41326190Y42185715D01*
X41447619Y42185715D01*
X41528571Y42233334D01*
D10*
D11*
X41900000Y41291667D02*
X41852380Y41372620D01*
X41852380Y41494048D01*
X41900000Y41615477D01*
X41995238Y41696429D01*
X42090476Y41736905D01*
X42280952Y41777381D01*
X42423809Y41777381D01*
X42614285Y41736905D01*
X42709523Y41696429D01*
X42804761Y41615477D01*
X42852380Y41494048D01*
X42852380Y41413096D01*
X42804761Y41291667D01*
X42757142Y41251191D01*
X42423809Y41251191D01*
X42423809Y41413096D01*
X42852380Y40886905D02*
X42185714Y40886905D01*
X41852380Y40886905D02*
X41900000Y40927381D01*
X41947619Y40886905D01*
X41900000Y40846429D01*
X41852380Y40886905D01*
X41947619Y40886905D01*
X42185714Y40117858D02*
X42995238Y40117858D01*
X43090476Y40158334D01*
X43138095Y40198810D01*
X43185714Y40279762D01*
X43185714Y40401191D01*
X43138095Y40482143D01*
X42804761Y40117858D02*
X42852380Y40198810D01*
X42852380Y40360715D01*
X42804761Y40441667D01*
X42757142Y40482143D01*
X42661904Y40522620D01*
X42376190Y40522620D01*
X42280952Y40482143D01*
X42233333Y40441667D01*
X42185714Y40360715D01*
X42185714Y40198810D01*
X42233333Y40117858D01*
X42852380Y39348810D02*
X42328571Y39348810D01*
X42233333Y39389286D01*
X42185714Y39470239D01*
X42185714Y39632143D01*
X42233333Y39713096D01*
X42804761Y39348810D02*
X42852380Y39429762D01*
X42852380Y39632143D01*
X42804761Y39713096D01*
X42709523Y39753572D01*
X42614285Y39753572D01*
X42519047Y39713096D01*
X42471428Y39632143D01*
X42471428Y39429762D01*
X42423809Y39348810D01*
X42852380Y38944048D02*
X41852380Y38944048D01*
X42233333Y38944048D02*
X42185714Y38863096D01*
X42185714Y38701191D01*
X42233333Y38620239D01*
X42280952Y38579762D01*
X42376190Y38539286D01*
X42661904Y38539286D01*
X42757142Y38579762D01*
X42804761Y38620239D01*
X42852380Y38701191D01*
X42852380Y38863096D01*
X42804761Y38944048D01*
X42852380Y38053572D02*
X42804761Y38134524D01*
X42709523Y38175000D01*
X41852380Y38175000D01*
X42852380Y37608334D02*
X42804761Y37689286D01*
X42757142Y37729762D01*
X42661904Y37770239D01*
X42376190Y37770239D01*
X42280952Y37729762D01*
X42233333Y37689286D01*
X42185714Y37608334D01*
X42185714Y37486905D01*
X42233333Y37405953D01*
X42280952Y37365477D01*
X42376190Y37325000D01*
X42661904Y37325000D01*
X42757142Y37365477D01*
X42804761Y37405953D01*
X42852380Y37486905D01*
X42852380Y37608334D01*
X42852380Y37041667D02*
X42185714Y36596429D01*
X42185714Y37041667D02*
X42852380Y36596429D01*
X42852380Y35625000D02*
X41852380Y35625000D01*
X42852380Y35139286D01*
X41852380Y35139286D01*
X42852380Y34370239D02*
X42328571Y34370239D01*
X42233333Y34410715D01*
X42185714Y34491667D01*
X42185714Y34653572D01*
X42233333Y34734524D01*
X42804761Y34370239D02*
X42852380Y34451191D01*
X42852380Y34653572D01*
X42804761Y34734524D01*
X42709523Y34775000D01*
X42614285Y34775000D01*
X42519047Y34734524D01*
X42471428Y34653572D01*
X42471428Y34451191D01*
X42423809Y34370239D01*
X42185714Y33965477D02*
X42852380Y33965477D01*
X42280952Y33965477D02*
X42233333Y33925000D01*
X42185714Y33844048D01*
X42185714Y33722620D01*
X42233333Y33641667D01*
X42328571Y33601191D01*
X42852380Y33601191D01*
X42852380Y33075000D02*
X42804761Y33155953D01*
X42757142Y33196429D01*
X42661904Y33236905D01*
X42376190Y33236905D01*
X42280952Y33196429D01*
X42233333Y33155953D01*
X42185714Y33075000D01*
X42185714Y32953572D01*
X42233333Y32872620D01*
X42280952Y32832143D01*
X42376190Y32791667D01*
X42661904Y32791667D01*
X42757142Y32832143D01*
X42804761Y32872620D01*
X42852380Y32953572D01*
X42852380Y33075000D01*
X42852380Y31294048D02*
X42376190Y31577381D01*
X42852380Y31779762D02*
X41852380Y31779762D01*
X41852380Y31455953D01*
X41900000Y31375000D01*
X41947619Y31334524D01*
X42042857Y31294048D01*
X42185714Y31294048D01*
X42280952Y31334524D01*
X42328571Y31375000D01*
X42376190Y31455953D01*
X42376190Y31779762D01*
X41852380Y31051191D02*
X42852380Y30767858D01*
X41852380Y30484524D01*
X42852380Y30201191D02*
X41852380Y30201191D01*
X41852380Y29877381D01*
X41900000Y29796429D01*
X41947619Y29755953D01*
X42042857Y29715477D01*
X42185714Y29715477D01*
X42280952Y29755953D01*
X42328571Y29796429D01*
X42376190Y29877381D01*
X42376190Y30201191D01*
X42471428Y28703572D02*
X42471428Y28055953D01*
X42852380Y26517858D02*
X42376190Y26801191D01*
X42852380Y27003572D02*
X41852380Y27003572D01*
X41852380Y26679762D01*
X41900000Y26598810D01*
X41947619Y26558334D01*
X42042857Y26517858D01*
X42185714Y26517858D01*
X42280952Y26558334D01*
X42328571Y26598810D01*
X42376190Y26679762D01*
X42376190Y27003572D01*
X42852380Y25708334D02*
X42852380Y26194048D01*
X42852380Y25951191D02*
X41852380Y25951191D01*
X41995238Y26032143D01*
X42090476Y26113096D01*
X42138095Y26194048D01*
X41947619Y24736905D02*
X41900000Y24696429D01*
X41852380Y24615477D01*
X41852380Y24413096D01*
X41900000Y24332143D01*
X41947619Y24291667D01*
X42042857Y24251191D01*
X42138095Y24251191D01*
X42280952Y24291667D01*
X42852380Y24777381D01*
X42852380Y24251191D01*
X41852380Y23725000D02*
X41852380Y23644048D01*
X41900000Y23563096D01*
X41947619Y23522620D01*
X42042857Y23482143D01*
X42233333Y23441667D01*
X42471428Y23441667D01*
X42661904Y23482143D01*
X42757142Y23522620D01*
X42804761Y23563096D01*
X42852380Y23644048D01*
X42852380Y23725000D01*
X42804761Y23805953D01*
X42757142Y23846429D01*
X42661904Y23886905D01*
X42471428Y23927381D01*
X42233333Y23927381D01*
X42042857Y23886905D01*
X41947619Y23846429D01*
X41900000Y23805953D01*
X41852380Y23725000D01*
X41947619Y23117858D02*
X41900000Y23077381D01*
X41852380Y22996429D01*
X41852380Y22794048D01*
X41900000Y22713096D01*
X41947619Y22672620D01*
X42042857Y22632143D01*
X42138095Y22632143D01*
X42280952Y22672620D01*
X42852380Y23158334D01*
X42852380Y22632143D01*
X41947619Y22308334D02*
X41900000Y22267858D01*
X41852380Y22186905D01*
X41852380Y21984524D01*
X41900000Y21903572D01*
X41947619Y21863096D01*
X42042857Y21822620D01*
X42138095Y21822620D01*
X42280952Y21863096D01*
X42852380Y22348810D01*
X42852380Y21822620D01*
D12*
%TO.P,J4,2,Pin_2*%
%TO.N,/12V_CONN*%
X31865000Y24225000D03*
%TO.P,J4,1,Pin_1*%
%TO.N,GND*%
X36865000Y27725000D03*
%TD*%
D13*
%TO.P,J3,1,Pin_1*%
%TO.N,+12V*%
X31865000Y12160000D03*
%TO.P,J3,2,Pin_2*%
X31865000Y13410000D03*
%TO.P,J3,3,Pin_3*%
%TO.N,GND*%
X31865000Y14660000D03*
%TO.P,J3,4,Pin_4*%
X31865000Y15910000D03*
%TD*%
D14*
%TO.P,J2,3,Pin_3*%
%TO.N,/RST_CONN*%
X40120000Y11525000D03*
%TO.P,J2,2,Pin_2*%
%TO.N,unconnected-(J2-Pad2)*%
X40120000Y14065000D03*
D15*
%TO.P,J2,1,Pin_1*%
%TO.N,GND*%
X40120000Y16605000D03*
%TD*%
D12*
%TO.P,J1,2,Pin_2*%
%TO.N,/12V_CONN*%
X31865000Y36290000D03*
%TO.P,J1,1,Pin_1*%
%TO.N,GND*%
X36865000Y39790000D03*
%TD*%
D16*
%TO.N,/12V_CONN*%
X24400000Y33400000D03*
X22200000Y32600000D03*
%TO.N,+12V*%
X23100000Y37600000D03*
X26600000Y35400000D03*
X29100000Y25700000D03*
X26000000Y28800000D03*
%TO.N,/RST_CONN*%
X25300000Y27900000D03*
%TO.N,GND*%
X18600000Y28700000D03*
X9400000Y28700000D03*
X20300000Y32900000D03*
%TO.N,/RST_CONN*%
X32100000Y21100000D03*
%TO.N,GND*%
X30700000Y7100000D03*
X4600000Y36000000D03*
X4600000Y32700000D03*
X4600000Y29400000D03*
X11700000Y33100000D03*
X7700000Y41800000D03*
X12600000Y42100000D03*
X29900000Y9700000D03*
X29900000Y6500000D03*
X30700000Y3900000D03*
X25300000Y30900000D03*
%TD*%
D17*
%TO.N,/12V_CONN*%
X24400000Y33400000D02*
X23000000Y33400000D01*
X23000000Y33400000D02*
X22200000Y32600000D01*
%TO.N,+12V*%
X23100000Y37600000D02*
X24400000Y37600000D01*
X24400000Y37600000D02*
X26600000Y35400000D01*
X26000000Y28800000D02*
X29100000Y25700000D01*
%TO.N,/RST_CONN*%
X26500000Y26700000D02*
X25300000Y27900000D01*
X32100000Y21100000D02*
X26500000Y26700000D01*
%TD*%
%TA.AperFunction,Conductor*%
%TO.N,GND*%
G36*
X21158531Y43275487D02*
G01*
X21195076Y43225187D01*
X21200000Y43194100D01*
X21200000Y40400000D01*
X22600000Y38800000D01*
X24800000Y38800000D01*
X24921622Y38938996D01*
X36200233Y38938996D01*
X36200241Y38938949D01*
X36205853Y38932634D01*
X36344106Y38840256D01*
X36352177Y38835874D01*
X36525908Y38761232D01*
X36534633Y38758397D01*
X36719064Y38716665D01*
X36728169Y38715467D01*
X36917103Y38708043D01*
X36926274Y38708523D01*
X37113405Y38735656D01*
X37122334Y38737800D01*
X37301386Y38798580D01*
X37309770Y38802313D01*
X37474748Y38894705D01*
X37482315Y38899906D01*
X37520545Y38931701D01*
X37527778Y38943165D01*
X37527589Y38946044D01*
X37525554Y38949133D01*
X36876268Y39598420D01*
X36864189Y39604575D01*
X36859077Y39603765D01*
X36206387Y38951074D01*
X36200233Y38938996D01*
X24921622Y38938996D01*
X25687042Y39813762D01*
X35782050Y39813762D01*
X35794417Y39625078D01*
X35795851Y39616021D01*
X35842396Y39432751D01*
X35845465Y39424086D01*
X35924622Y39252382D01*
X35929219Y39244420D01*
X36006935Y39134454D01*
X36017794Y39126345D01*
X36018553Y39126335D01*
X36024786Y39130099D01*
X36673420Y39778732D01*
X36678748Y39789189D01*
X37050425Y39789189D01*
X37051235Y39784077D01*
X37701841Y39133472D01*
X37713919Y39127318D01*
X37716769Y39127770D01*
X37719657Y39130077D01*
X37755094Y39172685D01*
X37760295Y39180252D01*
X37852687Y39345230D01*
X37856420Y39353614D01*
X37917200Y39532666D01*
X37919344Y39541595D01*
X37946713Y39730356D01*
X37947215Y39736247D01*
X37948546Y39787044D01*
X37948352Y39792949D01*
X37930900Y39982887D01*
X37929227Y39991909D01*
X37877900Y40173899D01*
X37874609Y40182472D01*
X37790983Y40352049D01*
X37786177Y40359891D01*
X37722619Y40445007D01*
X37711551Y40452829D01*
X37710080Y40452810D01*
X37704904Y40449591D01*
X37056580Y39801268D01*
X37050425Y39789189D01*
X36678748Y39789189D01*
X36679575Y39790811D01*
X36678765Y39795923D01*
X36028434Y40446253D01*
X36016356Y40452407D01*
X36014203Y40452066D01*
X36010414Y40448956D01*
X35959051Y40383803D01*
X35954051Y40376104D01*
X35866009Y40208764D01*
X35862496Y40200282D01*
X35806424Y40019700D01*
X35804516Y40010723D01*
X35782290Y39822948D01*
X35782050Y39813762D01*
X25687042Y39813762D01*
X26200000Y40400000D01*
X26200000Y40637765D01*
X36201455Y40637765D01*
X36201784Y40634192D01*
X36203177Y40632136D01*
X36853732Y39981580D01*
X36865811Y39975425D01*
X36870923Y39976235D01*
X37523645Y40628958D01*
X37529799Y40641036D01*
X37529128Y40645271D01*
X37528367Y40646277D01*
X37528051Y40646569D01*
X37520773Y40652154D01*
X37360856Y40753053D01*
X37352669Y40757225D01*
X37177052Y40827289D01*
X37168241Y40829899D01*
X36982793Y40866787D01*
X36973655Y40867747D01*
X36784593Y40870223D01*
X36775436Y40869502D01*
X36589086Y40837481D01*
X36580207Y40835101D01*
X36402819Y40769660D01*
X36394520Y40765701D01*
X36232024Y40669026D01*
X36224599Y40663632D01*
X36208385Y40649412D01*
X36201455Y40637765D01*
X26200000Y40637765D01*
X26200000Y41076600D01*
X26219213Y41135731D01*
X26269513Y41172276D01*
X26300600Y41177200D01*
X41076600Y41177200D01*
X41135731Y41157987D01*
X41172276Y41107687D01*
X41177200Y41076600D01*
X41177200Y21280415D01*
X43194100Y21280415D01*
X43253231Y21261202D01*
X43289776Y21210902D01*
X43294700Y21179815D01*
X43294700Y4900600D01*
X43275487Y4841469D01*
X43225187Y4804924D01*
X43194100Y4800000D01*
X40200000Y4800000D01*
X38800000Y3200000D01*
X38800000Y405900D01*
X38780787Y346769D01*
X38730487Y310224D01*
X38699400Y305300D01*
X29035515Y305300D01*
X29018046Y306828D01*
X29008667Y308482D01*
X29008666Y308482D01*
X29000000Y310010D01*
X28991330Y308481D01*
X28986716Y308481D01*
X28968598Y307546D01*
X28765993Y322037D01*
X28751786Y324080D01*
X28529577Y372418D01*
X28515805Y376462D01*
X28302734Y455934D01*
X28289688Y461891D01*
X28090080Y570886D01*
X28078017Y578639D01*
X27895971Y714917D01*
X27885123Y724316D01*
X27724316Y885123D01*
X27714917Y895971D01*
X27578639Y1078017D01*
X27570886Y1090080D01*
X27461891Y1289688D01*
X27455934Y1302734D01*
X27376462Y1515805D01*
X27372418Y1529577D01*
X27324080Y1751786D01*
X27322037Y1765993D01*
X27307546Y1968598D01*
X27308481Y1986716D01*
X27308481Y1991330D01*
X27310010Y2000000D01*
X27306828Y2018046D01*
X27305300Y2035515D01*
X27305300Y12160000D01*
X31004989Y12160000D01*
X31023782Y11981194D01*
X31079341Y11810202D01*
X31081977Y11805636D01*
X31081978Y11805634D01*
X31124577Y11731851D01*
X31169236Y11654498D01*
X31289540Y11520887D01*
X31434994Y11415209D01*
X31599242Y11342081D01*
X31604392Y11340986D01*
X31604393Y11340986D01*
X31769950Y11305795D01*
X31769955Y11305794D01*
X31775104Y11304700D01*
X31954896Y11304700D01*
X31960045Y11305794D01*
X31960050Y11305795D01*
X32125607Y11340986D01*
X32125608Y11340986D01*
X32130758Y11342081D01*
X32295006Y11415209D01*
X32440460Y11520887D01*
X32471510Y11555372D01*
X38960149Y11555372D01*
X38974036Y11343497D01*
X38975168Y11339039D01*
X38975169Y11339034D01*
X38996728Y11254145D01*
X39026301Y11137701D01*
X39115195Y10944876D01*
X39237740Y10771479D01*
X39389832Y10623317D01*
X39393665Y10620756D01*
X39393666Y10620755D01*
X39562542Y10507915D01*
X39562546Y10507913D01*
X39566377Y10505353D01*
X39761463Y10421538D01*
X39968557Y10374677D01*
X40074640Y10370509D01*
X40176114Y10366522D01*
X40176115Y10366522D01*
X40180723Y10366341D01*
X40185280Y10367002D01*
X40185285Y10367002D01*
X40386293Y10396147D01*
X40386299Y10396148D01*
X40390855Y10396809D01*
X40395218Y10398290D01*
X40395222Y10398291D01*
X40587553Y10463579D01*
X40591916Y10465060D01*
X40777172Y10568808D01*
X40839632Y10620755D01*
X40936873Y10701630D01*
X40940420Y10704580D01*
X40947120Y10712636D01*
X41073244Y10864283D01*
X41073246Y10864285D01*
X41076192Y10867828D01*
X41179940Y11053084D01*
X41248191Y11254145D01*
X41248852Y11258701D01*
X41248853Y11258707D01*
X41278234Y11461345D01*
X41278234Y11461347D01*
X41278659Y11464277D01*
X41279518Y11497083D01*
X41280172Y11522044D01*
X41280172Y11522051D01*
X41280249Y11525000D01*
X41260821Y11736439D01*
X41203186Y11940796D01*
X41191445Y11964605D01*
X41111318Y12127086D01*
X41111316Y12127089D01*
X41109275Y12131228D01*
X41083876Y12165242D01*
X40984996Y12297659D01*
X40984991Y12297664D01*
X40982233Y12301358D01*
X40826315Y12445487D01*
X40822419Y12447945D01*
X40822414Y12447949D01*
X40717148Y12514366D01*
X40646742Y12558789D01*
X40449529Y12637470D01*
X40241279Y12678893D01*
X40135124Y12680282D01*
X40033582Y12681612D01*
X40033578Y12681612D01*
X40028968Y12681672D01*
X40024423Y12680891D01*
X39824253Y12646496D01*
X39824248Y12646495D01*
X39819705Y12645714D01*
X39720102Y12608969D01*
X39624831Y12573822D01*
X39624829Y12573821D01*
X39620500Y12572224D01*
X39616532Y12569863D01*
X39441987Y12466020D01*
X39441982Y12466016D01*
X39438023Y12463661D01*
X39434557Y12460622D01*
X39434555Y12460620D01*
X39281852Y12326704D01*
X39281849Y12326701D01*
X39278385Y12323663D01*
X39146933Y12156917D01*
X39048070Y11969008D01*
X39039310Y11940796D01*
X38997341Y11805634D01*
X38985105Y11766229D01*
X38960149Y11555372D01*
X32471510Y11555372D01*
X32560764Y11654498D01*
X32605424Y11731851D01*
X32648022Y11805634D01*
X32648023Y11805636D01*
X32650659Y11810202D01*
X32706218Y11981194D01*
X32725011Y12160000D01*
X32706218Y12338806D01*
X32650659Y12509798D01*
X32623796Y12556327D01*
X32563400Y12660937D01*
X32563398Y12660940D01*
X32560764Y12665502D01*
X32513778Y12717685D01*
X32488489Y12774484D01*
X32501416Y12835300D01*
X32513778Y12852315D01*
X32557237Y12900581D01*
X32560764Y12904498D01*
X32566537Y12914496D01*
X32648022Y13055634D01*
X32648023Y13055636D01*
X32650659Y13060202D01*
X32706218Y13231194D01*
X32725011Y13410000D01*
X32721553Y13442902D01*
X32706769Y13583566D01*
X32706768Y13583568D01*
X32706218Y13588806D01*
X32650659Y13759798D01*
X32648022Y13764366D01*
X32563400Y13910937D01*
X32563398Y13910940D01*
X32560764Y13915502D01*
X32480831Y14004277D01*
X32460338Y14027037D01*
X32435050Y14083836D01*
X32437502Y14095372D01*
X38960149Y14095372D01*
X38974036Y13883497D01*
X38975168Y13879039D01*
X38975169Y13879034D01*
X38996728Y13794145D01*
X39026301Y13677701D01*
X39115195Y13484876D01*
X39237740Y13311479D01*
X39389832Y13163317D01*
X39393665Y13160756D01*
X39393666Y13160755D01*
X39562542Y13047915D01*
X39562546Y13047913D01*
X39566377Y13045353D01*
X39761463Y12961538D01*
X39968557Y12914677D01*
X40074640Y12910509D01*
X40176114Y12906522D01*
X40176115Y12906522D01*
X40180723Y12906341D01*
X40185280Y12907002D01*
X40185285Y12907002D01*
X40386293Y12936147D01*
X40386299Y12936148D01*
X40390855Y12936809D01*
X40395218Y12938290D01*
X40395222Y12938291D01*
X40587553Y13003579D01*
X40591916Y13005060D01*
X40777172Y13108808D01*
X40839632Y13160755D01*
X40936873Y13241630D01*
X40940420Y13244580D01*
X40947120Y13252636D01*
X41073244Y13404283D01*
X41073246Y13404285D01*
X41076192Y13407828D01*
X41179940Y13593084D01*
X41236532Y13759798D01*
X41246709Y13789778D01*
X41246710Y13789782D01*
X41248191Y13794145D01*
X41248852Y13798701D01*
X41248853Y13798707D01*
X41278234Y14001345D01*
X41278234Y14001347D01*
X41278659Y14004277D01*
X41279833Y14049113D01*
X41280172Y14062044D01*
X41280172Y14062051D01*
X41280249Y14065000D01*
X41269108Y14186254D01*
X41261243Y14271851D01*
X41261242Y14271856D01*
X41260821Y14276439D01*
X41203186Y14480796D01*
X41191445Y14504605D01*
X41111318Y14667086D01*
X41111316Y14667089D01*
X41109275Y14671228D01*
X41087389Y14700537D01*
X40984996Y14837659D01*
X40984991Y14837664D01*
X40982233Y14841358D01*
X40977834Y14845425D01*
X40829703Y14982355D01*
X40826315Y14985487D01*
X40822419Y14987945D01*
X40822414Y14987949D01*
X40736529Y15042138D01*
X40646742Y15098789D01*
X40449529Y15177470D01*
X40241279Y15218893D01*
X40135123Y15220283D01*
X40033582Y15221612D01*
X40033578Y15221612D01*
X40028968Y15221672D01*
X40024423Y15220891D01*
X39824253Y15186496D01*
X39824248Y15186495D01*
X39819705Y15185714D01*
X39720102Y15148969D01*
X39624831Y15113822D01*
X39624829Y15113821D01*
X39620500Y15112224D01*
X39616532Y15109863D01*
X39441987Y15006020D01*
X39441982Y15006016D01*
X39438023Y15003661D01*
X39434557Y15000622D01*
X39434555Y15000620D01*
X39281852Y14866704D01*
X39281849Y14866701D01*
X39278385Y14863663D01*
X39275532Y14860044D01*
X39275531Y14860043D01*
X39212659Y14780290D01*
X39146933Y14696917D01*
X39048070Y14509008D01*
X39039310Y14480796D01*
X38987116Y14312704D01*
X38985105Y14306229D01*
X38978553Y14250872D01*
X38962515Y14115359D01*
X38960149Y14095372D01*
X32437502Y14095372D01*
X32447977Y14144651D01*
X32494182Y14186254D01*
X32517377Y14193125D01*
X32524147Y14199156D01*
X32581501Y14285482D01*
X32586613Y14295429D01*
X32646670Y14453528D01*
X32649451Y14464358D01*
X32673331Y14634274D01*
X32673816Y14640577D01*
X32674043Y14656835D01*
X32673734Y14663144D01*
X32654608Y14833660D01*
X32652130Y14844567D01*
X32596512Y15004279D01*
X32591678Y15014369D01*
X32526287Y15119016D01*
X32516258Y15127431D01*
X32508162Y15122850D01*
X32056580Y14671268D01*
X32050425Y14659189D01*
X32051235Y14654077D01*
X32371772Y14333540D01*
X32399998Y14278142D01*
X32390272Y14216734D01*
X32346308Y14172770D01*
X32284900Y14163044D01*
X32259719Y14170502D01*
X32135574Y14225775D01*
X32135572Y14225776D01*
X32130758Y14227919D01*
X32130868Y14228166D01*
X32093816Y14250872D01*
X31876268Y14468420D01*
X31864189Y14474575D01*
X31859077Y14473765D01*
X31636184Y14250872D01*
X31599132Y14228166D01*
X31599242Y14227919D01*
X31594428Y14225776D01*
X31594426Y14225775D01*
X31470280Y14170501D01*
X31408446Y14164002D01*
X31354602Y14195089D01*
X31329313Y14251888D01*
X31342240Y14312704D01*
X31358227Y14333539D01*
X31673420Y14648732D01*
X31679575Y14660811D01*
X31678765Y14665923D01*
X31223922Y15120766D01*
X31212056Y15126812D01*
X31205430Y15120825D01*
X31143337Y15024475D01*
X31138368Y15014465D01*
X31080523Y14855537D01*
X31077894Y14844671D01*
X31056696Y14676873D01*
X31056541Y14665703D01*
X31073044Y14497380D01*
X31075368Y14486444D01*
X31128754Y14325962D01*
X31133441Y14315819D01*
X31203291Y14200484D01*
X31222665Y14183761D01*
X31258870Y14168541D01*
X31291077Y14115359D01*
X31285874Y14053403D01*
X31267897Y14025076D01*
X31169236Y13915502D01*
X31166602Y13910940D01*
X31166600Y13910937D01*
X31081978Y13764366D01*
X31079341Y13759798D01*
X31023782Y13588806D01*
X31023232Y13583568D01*
X31023231Y13583566D01*
X31008447Y13442902D01*
X31004989Y13410000D01*
X31023782Y13231194D01*
X31079341Y13060202D01*
X31081977Y13055636D01*
X31081978Y13055634D01*
X31163464Y12914496D01*
X31169236Y12904498D01*
X31172763Y12900581D01*
X31216222Y12852315D01*
X31241511Y12795516D01*
X31228584Y12734700D01*
X31216222Y12717685D01*
X31169236Y12665502D01*
X31166602Y12660940D01*
X31166600Y12660937D01*
X31106204Y12556327D01*
X31079341Y12509798D01*
X31023782Y12338806D01*
X31004989Y12160000D01*
X27305300Y12160000D01*
X27305300Y15284189D01*
X31425425Y15284189D01*
X31426235Y15279077D01*
X31853732Y14851580D01*
X31865811Y14845425D01*
X31870923Y14846235D01*
X32298420Y15273732D01*
X32304575Y15285811D01*
X32303765Y15290923D01*
X31876268Y15718420D01*
X31864189Y15724575D01*
X31859077Y15723765D01*
X31431580Y15296268D01*
X31425425Y15284189D01*
X27305300Y15284189D01*
X27305300Y15915703D01*
X31056541Y15915703D01*
X31073044Y15747380D01*
X31075368Y15736444D01*
X31128754Y15575962D01*
X31133441Y15565819D01*
X31203291Y15450484D01*
X31213022Y15442084D01*
X31221479Y15446791D01*
X31673420Y15898732D01*
X31678748Y15909189D01*
X32050425Y15909189D01*
X32051235Y15904077D01*
X32505697Y15449615D01*
X32517762Y15443468D01*
X32524147Y15449156D01*
X32581501Y15535482D01*
X32586613Y15545429D01*
X32646670Y15703528D01*
X32649451Y15714358D01*
X32652341Y15734922D01*
X39016001Y15734922D01*
X39016965Y15725139D01*
X39028804Y15665614D01*
X39036242Y15647655D01*
X39081371Y15580115D01*
X39095115Y15566371D01*
X39162657Y15521241D01*
X39180611Y15513804D01*
X39240131Y15501965D01*
X39249930Y15501000D01*
X39976567Y15501000D01*
X39989457Y15505188D01*
X39992500Y15509377D01*
X39992500Y15516934D01*
X40247500Y15516934D01*
X40251688Y15504044D01*
X40255877Y15501001D01*
X40990078Y15501001D01*
X40999861Y15501965D01*
X41059386Y15513804D01*
X41077345Y15521242D01*
X41144885Y15566371D01*
X41158629Y15580115D01*
X41203759Y15647657D01*
X41211196Y15665611D01*
X41223035Y15725131D01*
X41224000Y15734930D01*
X41224000Y16461567D01*
X41219812Y16474457D01*
X41215623Y16477500D01*
X40263433Y16477500D01*
X40250543Y16473312D01*
X40247500Y16469123D01*
X40247500Y15516934D01*
X39992500Y15516934D01*
X39992500Y16461567D01*
X39988312Y16474457D01*
X39984123Y16477500D01*
X39031934Y16477500D01*
X39019044Y16473312D01*
X39016001Y16469123D01*
X39016001Y15734922D01*
X32652341Y15734922D01*
X32673331Y15884274D01*
X32673816Y15890577D01*
X32674043Y15906835D01*
X32673734Y15913144D01*
X32654608Y16083660D01*
X32652130Y16094567D01*
X32596512Y16254279D01*
X32591678Y16264369D01*
X32526287Y16369016D01*
X32516258Y16377431D01*
X32508162Y16372850D01*
X32056580Y15921268D01*
X32050425Y15909189D01*
X31678748Y15909189D01*
X31679575Y15910811D01*
X31678765Y15915923D01*
X31223922Y16370766D01*
X31212056Y16376812D01*
X31205430Y16370825D01*
X31143337Y16274475D01*
X31138368Y16264465D01*
X31080523Y16105537D01*
X31077894Y16094671D01*
X31056696Y15926873D01*
X31056541Y15915703D01*
X27305300Y15915703D01*
X27305300Y16561604D01*
X31397340Y16561604D01*
X31401985Y16553327D01*
X31853732Y16101580D01*
X31865811Y16095425D01*
X31870923Y16096235D01*
X32325999Y16551311D01*
X32331994Y16563076D01*
X32325858Y16569819D01*
X32224427Y16634190D01*
X32214382Y16639089D01*
X32055054Y16695824D01*
X32044171Y16698376D01*
X31876239Y16718400D01*
X31865050Y16718479D01*
X31696851Y16700801D01*
X31685939Y16698402D01*
X31525833Y16643897D01*
X31515718Y16639137D01*
X31405748Y16571484D01*
X31397340Y16561604D01*
X27305300Y16561604D01*
X27305300Y16748433D01*
X39016000Y16748433D01*
X39020188Y16735543D01*
X39024377Y16732500D01*
X39976567Y16732500D01*
X39989457Y16736688D01*
X39992500Y16740877D01*
X39992500Y16748433D01*
X40247500Y16748433D01*
X40251688Y16735543D01*
X40255877Y16732500D01*
X41208066Y16732500D01*
X41220956Y16736688D01*
X41223999Y16740877D01*
X41223999Y17475078D01*
X41223035Y17484861D01*
X41211196Y17544386D01*
X41203758Y17562345D01*
X41158629Y17629885D01*
X41144885Y17643629D01*
X41077343Y17688759D01*
X41059389Y17696196D01*
X40999869Y17708035D01*
X40990070Y17709000D01*
X40263433Y17709000D01*
X40250543Y17704812D01*
X40247500Y17700623D01*
X40247500Y16748433D01*
X39992500Y16748433D01*
X39992500Y17693066D01*
X39988312Y17705956D01*
X39984123Y17708999D01*
X39249922Y17708999D01*
X39240139Y17708035D01*
X39180614Y17696196D01*
X39162655Y17688758D01*
X39095115Y17643629D01*
X39081371Y17629885D01*
X39036241Y17562343D01*
X39028804Y17544389D01*
X39016965Y17484869D01*
X39016000Y17475070D01*
X39016000Y16748433D01*
X27305300Y16748433D01*
X27305300Y23964485D01*
X27306828Y23981954D01*
X27308481Y23991326D01*
X27308481Y23991329D01*
X27310010Y24000000D01*
X27309762Y24001404D01*
X27296487Y24254715D01*
X27291843Y24343328D01*
X27291842Y24343336D01*
X27291704Y24345972D01*
X27251529Y24599627D01*
X27237921Y24685549D01*
X27237919Y24685557D01*
X27237508Y24688154D01*
X27157249Y24987686D01*
X27148521Y25020260D01*
X27148518Y25020268D01*
X27147841Y25022796D01*
X27055269Y25263955D01*
X27052015Y25326044D01*
X27085877Y25378188D01*
X27143922Y25400469D01*
X27203978Y25384377D01*
X27220322Y25371142D01*
X31365469Y21225995D01*
X31393695Y21170597D01*
X31394073Y21141730D01*
X31389559Y21107440D01*
X31390224Y21101416D01*
X31390224Y21101412D01*
X31391659Y21088417D01*
X31408292Y20937761D01*
X31466958Y20777449D01*
X31562170Y20635758D01*
X31688432Y20520868D01*
X31838455Y20439412D01*
X31844325Y20437872D01*
X31997710Y20397632D01*
X31997711Y20397632D01*
X32003577Y20396093D01*
X32083545Y20394837D01*
X32168201Y20393507D01*
X32168203Y20393507D01*
X32174265Y20393412D01*
X32180176Y20394766D01*
X32180178Y20394766D01*
X32334757Y20430169D01*
X32334760Y20430170D01*
X32340667Y20431523D01*
X32493174Y20508226D01*
X32565440Y20569948D01*
X32618373Y20615156D01*
X32618375Y20615158D01*
X32622982Y20619093D01*
X32626520Y20624016D01*
X32719061Y20752801D01*
X32719063Y20752804D01*
X32722598Y20757724D01*
X32730528Y20777449D01*
X32784009Y20910487D01*
X32786271Y20916114D01*
X32810324Y21085121D01*
X32810480Y21100000D01*
X32789971Y21269473D01*
X32785837Y21280415D01*
X32731772Y21423493D01*
X32729630Y21429163D01*
X32632939Y21569849D01*
X32505481Y21683410D01*
X32500125Y21686246D01*
X32500122Y21686248D01*
X32359975Y21760451D01*
X32354613Y21763290D01*
X32245012Y21790820D01*
X32194932Y21803400D01*
X32194930Y21803400D01*
X32189047Y21804878D01*
X32182982Y21804910D01*
X32182980Y21804910D01*
X32044043Y21805637D01*
X31985014Y21825160D01*
X31973435Y21835101D01*
X29553821Y24254715D01*
X30730247Y24254715D01*
X30743833Y24047425D01*
X30744966Y24042964D01*
X30762662Y23973288D01*
X30794968Y23846082D01*
X30881938Y23657429D01*
X31001831Y23487784D01*
X31065377Y23425880D01*
X31147330Y23346045D01*
X31147334Y23346042D01*
X31150632Y23342829D01*
X31154465Y23340268D01*
X31154466Y23340267D01*
X31319522Y23229980D01*
X31319526Y23229978D01*
X31323357Y23227418D01*
X31464214Y23166901D01*
X31509983Y23147237D01*
X31509985Y23147236D01*
X31514222Y23145416D01*
X31614593Y23122704D01*
X31712334Y23100587D01*
X31712337Y23100587D01*
X31716834Y23099569D01*
X31841470Y23094672D01*
X31919800Y23091595D01*
X31919801Y23091595D01*
X31924409Y23091414D01*
X31928966Y23092075D01*
X31928971Y23092075D01*
X32046091Y23109057D01*
X32129994Y23121222D01*
X32326704Y23187996D01*
X32507952Y23289500D01*
X32667667Y23422333D01*
X32800500Y23582048D01*
X32902004Y23763296D01*
X32968778Y23960006D01*
X32982119Y24052018D01*
X32998161Y24162656D01*
X32998162Y24162665D01*
X32998586Y24165591D01*
X33000142Y24225000D01*
X32981134Y24431863D01*
X32924746Y24631799D01*
X32896955Y24688154D01*
X32834907Y24813976D01*
X32834905Y24813979D01*
X32832868Y24818110D01*
X32771435Y24900379D01*
X32711334Y24980864D01*
X32711331Y24980868D01*
X32708575Y24984558D01*
X32556031Y25125569D01*
X32380344Y25236419D01*
X32187398Y25313397D01*
X31983655Y25353924D01*
X31879797Y25355283D01*
X31780552Y25356583D01*
X31780548Y25356583D01*
X31775938Y25356643D01*
X31571204Y25321463D01*
X31566882Y25319869D01*
X31566880Y25319868D01*
X31380637Y25251159D01*
X31380634Y25251158D01*
X31376309Y25249562D01*
X31197780Y25143349D01*
X31194314Y25140310D01*
X31194312Y25140308D01*
X31045064Y25009421D01*
X31045061Y25009418D01*
X31041597Y25006380D01*
X30912990Y24843243D01*
X30816266Y24659400D01*
X30754664Y24461009D01*
X30730247Y24254715D01*
X29553821Y24254715D01*
X28985017Y24823519D01*
X28956791Y24878917D01*
X28966517Y24940325D01*
X29010481Y24984289D01*
X29057732Y24995242D01*
X29168201Y24993507D01*
X29168203Y24993507D01*
X29174265Y24993412D01*
X29180176Y24994766D01*
X29180178Y24994766D01*
X29334757Y25030169D01*
X29334760Y25030170D01*
X29340667Y25031523D01*
X29493174Y25108226D01*
X29565440Y25169948D01*
X29618373Y25215156D01*
X29618375Y25215158D01*
X29622982Y25219093D01*
X29636661Y25238129D01*
X29719061Y25352801D01*
X29719063Y25352804D01*
X29722598Y25357724D01*
X29730528Y25377449D01*
X29784009Y25510487D01*
X29786271Y25516114D01*
X29793256Y25565188D01*
X29809860Y25681859D01*
X29809860Y25681863D01*
X29810324Y25685121D01*
X29810480Y25700000D01*
X29789971Y25869473D01*
X29729630Y26029163D01*
X29632939Y26169849D01*
X29505481Y26283410D01*
X29500125Y26286246D01*
X29500122Y26286248D01*
X29359975Y26360451D01*
X29354613Y26363290D01*
X29245012Y26390820D01*
X29194932Y26403400D01*
X29194930Y26403400D01*
X29189047Y26404878D01*
X29182982Y26404910D01*
X29182980Y26404910D01*
X29044043Y26405637D01*
X28985014Y26425160D01*
X28973435Y26435101D01*
X28534540Y26873996D01*
X36200233Y26873996D01*
X36200241Y26873949D01*
X36205853Y26867634D01*
X36344106Y26775256D01*
X36352177Y26770874D01*
X36525908Y26696232D01*
X36534633Y26693397D01*
X36719064Y26651665D01*
X36728169Y26650467D01*
X36917103Y26643043D01*
X36926274Y26643523D01*
X37113405Y26670656D01*
X37122334Y26672800D01*
X37301386Y26733580D01*
X37309770Y26737313D01*
X37474748Y26829705D01*
X37482315Y26834906D01*
X37520545Y26866701D01*
X37527778Y26878165D01*
X37527589Y26881044D01*
X37525554Y26884133D01*
X36876268Y27533420D01*
X36864189Y27539575D01*
X36859077Y27538765D01*
X36206387Y26886074D01*
X36200233Y26873996D01*
X28534540Y26873996D01*
X27659774Y27748762D01*
X35782050Y27748762D01*
X35794417Y27560078D01*
X35795851Y27551021D01*
X35842396Y27367751D01*
X35845465Y27359086D01*
X35924622Y27187382D01*
X35929219Y27179420D01*
X36006935Y27069454D01*
X36017794Y27061345D01*
X36018553Y27061335D01*
X36024786Y27065099D01*
X36673420Y27713732D01*
X36678748Y27724189D01*
X37050425Y27724189D01*
X37051235Y27719077D01*
X37701841Y27068472D01*
X37713919Y27062318D01*
X37716769Y27062770D01*
X37719657Y27065077D01*
X37755094Y27107685D01*
X37760295Y27115252D01*
X37852687Y27280230D01*
X37856420Y27288614D01*
X37917200Y27467666D01*
X37919344Y27476595D01*
X37946713Y27665356D01*
X37947215Y27671247D01*
X37948546Y27722044D01*
X37948352Y27727949D01*
X37930900Y27917887D01*
X37929227Y27926909D01*
X37877900Y28108899D01*
X37874609Y28117472D01*
X37790983Y28287049D01*
X37786177Y28294891D01*
X37722619Y28380007D01*
X37711551Y28387829D01*
X37710080Y28387810D01*
X37704904Y28384591D01*
X37056580Y27736268D01*
X37050425Y27724189D01*
X36678748Y27724189D01*
X36679575Y27725811D01*
X36678765Y27730923D01*
X36028434Y28381253D01*
X36016356Y28387407D01*
X36014203Y28387066D01*
X36010414Y28383956D01*
X35959051Y28318803D01*
X35954051Y28311104D01*
X35866009Y28143764D01*
X35862496Y28135282D01*
X35806424Y27954700D01*
X35804516Y27945723D01*
X35782290Y27757948D01*
X35782050Y27748762D01*
X27659774Y27748762D01*
X26835771Y28572765D01*
X36201455Y28572765D01*
X36201784Y28569192D01*
X36203177Y28567136D01*
X36853732Y27916580D01*
X36865811Y27910425D01*
X36870923Y27911235D01*
X37523645Y28563958D01*
X37529799Y28576036D01*
X37529128Y28580271D01*
X37528367Y28581277D01*
X37528051Y28581569D01*
X37520773Y28587154D01*
X37360856Y28688053D01*
X37352669Y28692225D01*
X37177052Y28762289D01*
X37168241Y28764899D01*
X36982793Y28801787D01*
X36973655Y28802747D01*
X36784593Y28805223D01*
X36775436Y28804502D01*
X36589086Y28772481D01*
X36580207Y28770101D01*
X36402819Y28704660D01*
X36394520Y28700701D01*
X36232024Y28604026D01*
X36224599Y28598632D01*
X36208385Y28584412D01*
X36201455Y28572765D01*
X26835771Y28572765D01*
X26735040Y28673496D01*
X26706814Y28728894D01*
X26706579Y28758805D01*
X26709860Y28781856D01*
X26709861Y28781866D01*
X26710324Y28785121D01*
X26710480Y28800000D01*
X26709936Y28804502D01*
X26690700Y28963448D01*
X26689971Y28969473D01*
X26687245Y28976689D01*
X26631772Y29123493D01*
X26629630Y29129163D01*
X26532939Y29269849D01*
X26405481Y29383410D01*
X26400125Y29386246D01*
X26400122Y29386248D01*
X26259975Y29460451D01*
X26254613Y29463290D01*
X26145012Y29490820D01*
X26094932Y29503400D01*
X26094930Y29503400D01*
X26089047Y29504878D01*
X26082982Y29504910D01*
X26082980Y29504910D01*
X26005992Y29505312D01*
X25918339Y29505771D01*
X25912442Y29504355D01*
X25912440Y29504355D01*
X25758245Y29467336D01*
X25752347Y29465920D01*
X25600651Y29387624D01*
X25472010Y29275404D01*
X25422931Y29205571D01*
X25377340Y29140702D01*
X25377338Y29140698D01*
X25373852Y29135738D01*
X25371649Y29130088D01*
X25371648Y29130086D01*
X25319260Y28995718D01*
X25311841Y28976689D01*
X25289559Y28807440D01*
X25290224Y28801416D01*
X25290224Y28801413D01*
X25299743Y28715198D01*
X25287135Y28654315D01*
X25241150Y28612471D01*
X25218250Y28606141D01*
X25218339Y28605771D01*
X25052347Y28565920D01*
X24900651Y28487624D01*
X24896086Y28483642D01*
X24896085Y28483641D01*
X24777287Y28380007D01*
X24772010Y28375404D01*
X24732231Y28318803D01*
X24677340Y28240702D01*
X24677338Y28240698D01*
X24673852Y28235738D01*
X24671649Y28230088D01*
X24671648Y28230086D01*
X24614604Y28083776D01*
X24611841Y28076689D01*
X24589559Y27907440D01*
X24590224Y27901416D01*
X24590224Y27901412D01*
X24594928Y27858805D01*
X24608292Y27737761D01*
X24666958Y27577449D01*
X24670344Y27572410D01*
X24746924Y27458447D01*
X24762170Y27435758D01*
X24766657Y27431675D01*
X24766658Y27431674D01*
X24795481Y27405447D01*
X24826286Y27351440D01*
X24819463Y27289641D01*
X24777619Y27243655D01*
X24716736Y27231048D01*
X24701739Y27233868D01*
X24690699Y27236826D01*
X24690700Y27236826D01*
X24688154Y27237508D01*
X24685557Y27237919D01*
X24685549Y27237921D01*
X24474773Y27271304D01*
X24345972Y27291704D01*
X24343336Y27291842D01*
X24343328Y27291843D01*
X24012093Y27309202D01*
X24012092Y27309202D01*
X24001404Y27309762D01*
X24000000Y27310010D01*
X23991329Y27308481D01*
X23991326Y27308481D01*
X23981954Y27306828D01*
X23964485Y27305300D01*
X2035515Y27305300D01*
X2018046Y27306828D01*
X2008667Y27308482D01*
X2008666Y27308482D01*
X2000000Y27310010D01*
X1991330Y27308481D01*
X1986716Y27308481D01*
X1968598Y27307546D01*
X1765993Y27322037D01*
X1751786Y27324080D01*
X1529577Y27372418D01*
X1515805Y27376462D01*
X1302734Y27455934D01*
X1289688Y27461891D01*
X1090080Y27570886D01*
X1078017Y27578639D01*
X1071993Y27583149D01*
X895971Y27714917D01*
X885123Y27724316D01*
X724316Y27885123D01*
X714917Y27895971D01*
X578639Y28078017D01*
X570886Y28090080D01*
X461891Y28289688D01*
X455934Y28302734D01*
X376462Y28515805D01*
X372418Y28529577D01*
X324080Y28751786D01*
X322037Y28765993D01*
X307546Y28968598D01*
X308481Y28986716D01*
X308481Y28991330D01*
X310010Y29000000D01*
X306828Y29018046D01*
X305300Y29035515D01*
X305300Y32607440D01*
X21489559Y32607440D01*
X21490224Y32601416D01*
X21490224Y32601412D01*
X21491659Y32588417D01*
X21508292Y32437761D01*
X21566958Y32277449D01*
X21662170Y32135758D01*
X21788432Y32020868D01*
X21938455Y31939412D01*
X21944325Y31937872D01*
X22097710Y31897632D01*
X22097711Y31897632D01*
X22103577Y31896093D01*
X22183545Y31894837D01*
X22268201Y31893507D01*
X22268203Y31893507D01*
X22274265Y31893412D01*
X22280176Y31894766D01*
X22280178Y31894766D01*
X22434757Y31930169D01*
X22434760Y31930170D01*
X22440667Y31931523D01*
X22593174Y32008226D01*
X22665440Y32069948D01*
X22718373Y32115156D01*
X22718375Y32115158D01*
X22722982Y32119093D01*
X22726520Y32124016D01*
X22819061Y32252801D01*
X22819063Y32252804D01*
X22822598Y32257724D01*
X22830528Y32277449D01*
X22884009Y32410487D01*
X22886271Y32416114D01*
X22910324Y32585121D01*
X22910480Y32600000D01*
X22910084Y32603268D01*
X22910084Y32603277D01*
X22905357Y32642337D01*
X22917327Y32703348D01*
X22934093Y32725557D01*
X23148771Y32940235D01*
X23204169Y32968461D01*
X23219906Y32969700D01*
X23787776Y32969700D01*
X23846907Y32950487D01*
X23860949Y32937575D01*
X23862170Y32935758D01*
X23988432Y32820868D01*
X24138455Y32739412D01*
X24144325Y32737872D01*
X24297710Y32697632D01*
X24297711Y32697632D01*
X24303577Y32696093D01*
X24383545Y32694837D01*
X24468201Y32693507D01*
X24468203Y32693507D01*
X24474265Y32693412D01*
X24480176Y32694766D01*
X24480178Y32694766D01*
X24634757Y32730169D01*
X24634760Y32730170D01*
X24640667Y32731523D01*
X24793174Y32808226D01*
X24865440Y32869948D01*
X24918373Y32915156D01*
X24918375Y32915158D01*
X24922982Y32919093D01*
X24926520Y32924016D01*
X25019061Y33052801D01*
X25019063Y33052804D01*
X25022598Y33057724D01*
X25029706Y33075404D01*
X25084009Y33210487D01*
X25086271Y33216114D01*
X25092964Y33263138D01*
X25109860Y33381859D01*
X25109860Y33381863D01*
X25110324Y33385121D01*
X25110480Y33400000D01*
X25089971Y33569473D01*
X25029630Y33729163D01*
X24932939Y33869849D01*
X24805481Y33983410D01*
X24800125Y33986246D01*
X24800122Y33986248D01*
X24659975Y34060451D01*
X24654613Y34063290D01*
X24545012Y34090820D01*
X24494932Y34103400D01*
X24494930Y34103400D01*
X24489047Y34104878D01*
X24482982Y34104910D01*
X24482980Y34104910D01*
X24405992Y34105312D01*
X24318339Y34105771D01*
X24312442Y34104355D01*
X24312440Y34104355D01*
X24158245Y34067336D01*
X24152347Y34065920D01*
X24000651Y33987624D01*
X23872010Y33875404D01*
X23868522Y33870441D01*
X23864466Y33865936D01*
X23862835Y33867405D01*
X23820637Y33835723D01*
X23788053Y33830300D01*
X23031520Y33830300D01*
X23019695Y33830997D01*
X22993796Y33834063D01*
X22993793Y33834063D01*
X22986332Y33834946D01*
X22930857Y33824814D01*
X22927772Y33824301D01*
X22872045Y33815923D01*
X22865829Y33812938D01*
X22859044Y33811699D01*
X22852374Y33808234D01*
X22852365Y33808231D01*
X22808997Y33785702D01*
X22806183Y33784296D01*
X22785060Y33774153D01*
X22762186Y33763169D01*
X22762185Y33763168D01*
X22755404Y33759912D01*
X22750977Y33755820D01*
X22749307Y33754695D01*
X22744220Y33752052D01*
X22739394Y33747930D01*
X22703530Y33712066D01*
X22700682Y33709328D01*
X22665911Y33677187D01*
X22665909Y33677185D01*
X22660388Y33672081D01*
X22656986Y33666223D01*
X22650959Y33659495D01*
X22325988Y33334524D01*
X22270590Y33306298D01*
X22254327Y33305060D01*
X22179806Y33305449D01*
X22118339Y33305771D01*
X22112442Y33304355D01*
X22112440Y33304355D01*
X21958245Y33267336D01*
X21952347Y33265920D01*
X21800651Y33187624D01*
X21672010Y33075404D01*
X21622931Y33005571D01*
X21577340Y32940702D01*
X21577338Y32940698D01*
X21573852Y32935738D01*
X21571649Y32930088D01*
X21571648Y32930086D01*
X21529066Y32820868D01*
X21511841Y32776689D01*
X21489559Y32607440D01*
X305300Y32607440D01*
X305300Y37607440D01*
X22389559Y37607440D01*
X22390224Y37601416D01*
X22390224Y37601412D01*
X22401439Y37499836D01*
X22408292Y37437761D01*
X22410378Y37432061D01*
X22453377Y37314562D01*
X22466958Y37277449D01*
X22470344Y37272410D01*
X22552273Y37150487D01*
X22562170Y37135758D01*
X22688432Y37020868D01*
X22838455Y36939412D01*
X22844325Y36937872D01*
X22997710Y36897632D01*
X22997711Y36897632D01*
X23003577Y36896093D01*
X23083545Y36894837D01*
X23168201Y36893507D01*
X23168203Y36893507D01*
X23174265Y36893412D01*
X23180176Y36894766D01*
X23180178Y36894766D01*
X23334757Y36930169D01*
X23334760Y36930170D01*
X23340667Y36931523D01*
X23493174Y37008226D01*
X23622982Y37119093D01*
X23629244Y37127807D01*
X23679353Y37164613D01*
X23710937Y37169700D01*
X24180094Y37169700D01*
X24239225Y37150487D01*
X24251229Y37140235D01*
X25865469Y35525995D01*
X25893695Y35470597D01*
X25894073Y35441730D01*
X25889559Y35407440D01*
X25890224Y35401416D01*
X25890224Y35401412D01*
X25901439Y35299836D01*
X25908292Y35237761D01*
X25966958Y35077449D01*
X26062170Y34935758D01*
X26188432Y34820868D01*
X26338455Y34739412D01*
X26344325Y34737872D01*
X26497710Y34697632D01*
X26497711Y34697632D01*
X26503577Y34696093D01*
X26583545Y34694837D01*
X26668201Y34693507D01*
X26668203Y34693507D01*
X26674265Y34693412D01*
X26680176Y34694766D01*
X26680178Y34694766D01*
X26834757Y34730169D01*
X26834760Y34730170D01*
X26840667Y34731523D01*
X26993174Y34808226D01*
X27065440Y34869948D01*
X27118373Y34915156D01*
X27118375Y34915158D01*
X27122982Y34919093D01*
X27126520Y34924016D01*
X27219061Y35052801D01*
X27219063Y35052804D01*
X27222598Y35057724D01*
X27230528Y35077449D01*
X27284009Y35210487D01*
X27286271Y35216114D01*
X27291310Y35251515D01*
X27309860Y35381859D01*
X27309860Y35381863D01*
X27310324Y35385121D01*
X27310480Y35400000D01*
X27309144Y35411045D01*
X27290700Y35563448D01*
X27289971Y35569473D01*
X27229630Y35729163D01*
X27132939Y35869849D01*
X27005481Y35983410D01*
X27000125Y35986246D01*
X27000122Y35986248D01*
X26859975Y36060451D01*
X26854613Y36063290D01*
X26745012Y36090820D01*
X26694932Y36103400D01*
X26694930Y36103400D01*
X26689047Y36104878D01*
X26682982Y36104910D01*
X26682980Y36104910D01*
X26544043Y36105637D01*
X26485014Y36125160D01*
X26473435Y36135101D01*
X26288821Y36319715D01*
X30730247Y36319715D01*
X30743833Y36112425D01*
X30794968Y35911082D01*
X30881938Y35722429D01*
X31001831Y35552784D01*
X31029331Y35525995D01*
X31147330Y35411045D01*
X31147334Y35411042D01*
X31150632Y35407829D01*
X31154465Y35405268D01*
X31154466Y35405267D01*
X31319522Y35294980D01*
X31319526Y35294978D01*
X31323357Y35292418D01*
X31436528Y35243796D01*
X31509983Y35212237D01*
X31509985Y35212236D01*
X31514222Y35210416D01*
X31614593Y35187704D01*
X31712334Y35165587D01*
X31712337Y35165587D01*
X31716834Y35164569D01*
X31841470Y35159672D01*
X31919800Y35156595D01*
X31919801Y35156595D01*
X31924409Y35156414D01*
X31928966Y35157075D01*
X31928971Y35157075D01*
X32046091Y35174057D01*
X32129994Y35186222D01*
X32326704Y35252996D01*
X32507952Y35354500D01*
X32667667Y35487333D01*
X32800500Y35647048D01*
X32902004Y35828296D01*
X32968778Y36025006D01*
X32982119Y36117018D01*
X32998161Y36227656D01*
X32998162Y36227665D01*
X32998586Y36230591D01*
X33000142Y36290000D01*
X32981134Y36496863D01*
X32924746Y36696799D01*
X32832868Y36883110D01*
X32736499Y37012164D01*
X32711334Y37045864D01*
X32711331Y37045868D01*
X32708575Y37049558D01*
X32556031Y37190569D01*
X32380344Y37301419D01*
X32187398Y37378397D01*
X31983655Y37418924D01*
X31879797Y37420283D01*
X31780552Y37421583D01*
X31780548Y37421583D01*
X31775938Y37421643D01*
X31571204Y37386463D01*
X31566882Y37384869D01*
X31566880Y37384868D01*
X31380637Y37316159D01*
X31380634Y37316158D01*
X31376309Y37314562D01*
X31197780Y37208349D01*
X31194314Y37205310D01*
X31194312Y37205308D01*
X31045064Y37074421D01*
X31045061Y37074418D01*
X31041597Y37071380D01*
X31038744Y37067761D01*
X31038743Y37067760D01*
X30999496Y37017975D01*
X30912990Y36908243D01*
X30816266Y36724400D01*
X30754664Y36526009D01*
X30730247Y36319715D01*
X26288821Y36319715D01*
X24726554Y37881982D01*
X24718686Y37890836D01*
X24702544Y37911312D01*
X24697888Y37917218D01*
X24651481Y37949292D01*
X24648988Y37951073D01*
X24603624Y37984580D01*
X24597117Y37986865D01*
X24591444Y37990786D01*
X24544906Y38005504D01*
X24537702Y38007782D01*
X24534705Y38008782D01*
X24481541Y38027452D01*
X24475517Y38027689D01*
X24473536Y38028075D01*
X24468074Y38029802D01*
X24461747Y38030300D01*
X24411020Y38030300D01*
X24407070Y38030378D01*
X24359766Y38032237D01*
X24359763Y38032237D01*
X24352248Y38032532D01*
X24345700Y38030796D01*
X24336684Y38030300D01*
X23712257Y38030300D01*
X23653126Y38049513D01*
X23636795Y38064373D01*
X23636375Y38064849D01*
X23632939Y38069849D01*
X23505481Y38183410D01*
X23500125Y38186246D01*
X23500122Y38186248D01*
X23359975Y38260451D01*
X23354613Y38263290D01*
X23245012Y38290820D01*
X23194932Y38303400D01*
X23194930Y38303400D01*
X23189047Y38304878D01*
X23182982Y38304910D01*
X23182980Y38304910D01*
X23105992Y38305312D01*
X23018339Y38305771D01*
X23012442Y38304355D01*
X23012440Y38304355D01*
X22858245Y38267336D01*
X22852347Y38265920D01*
X22700651Y38187624D01*
X22572010Y38075404D01*
X22525188Y38008782D01*
X22477340Y37940702D01*
X22477338Y37940698D01*
X22473852Y37935738D01*
X22471649Y37930088D01*
X22471648Y37930086D01*
X22456345Y37890836D01*
X22411841Y37776689D01*
X22389559Y37607440D01*
X305300Y37607440D01*
X305300Y38699400D01*
X324513Y38758531D01*
X374813Y38795076D01*
X405900Y38800000D01*
X3400000Y38800000D01*
X4800000Y40400000D01*
X4800000Y43194100D01*
X4819213Y43253231D01*
X4869513Y43289776D01*
X4900600Y43294700D01*
X21099400Y43294700D01*
X21158531Y43275487D01*
G37*
%TD.AperFunction*%
%TD*%
M02*
