%TF.GenerationSoftware,KiCad,Pcbnew,(6.0.5-0)*%
%TF.CreationDate,2022-07-07T00:21:25-07:00*%
%TF.ProjectId,gigablox-nano-rvp,67696761-626c-46f7-982d-6e616e6f2d72,rev?*%
%TF.SameCoordinates,PX5a1f4a0PY3e77360*%
%TF.FileFunction,Copper,L1,Top*%
%TF.FilePolarity,Positive*%
%FSLAX46Y46*%
G04 Gerber Fmt 4.6, Leading zero omitted, Abs format (unit mm)*
G04 Created by KiCad (PCBNEW (6.0.5-0)) date 2022-07-07 00:21:25*
%MOMM*%
%LPD*%
G01*
G04 APERTURE LIST*
G04 Aperture macros list*
%AMRoundRect*
0 Rectangle with rounded corners*
0 $1 Rounding radius*
0 $2 $3 $4 $5 $6 $7 $8 $9 X,Y pos of 4 corners*
0 Add a 4 corners polygon primitive as box body*
4,1,4,$2,$3,$4,$5,$6,$7,$8,$9,$2,$3,0*
0 Add four circle primitives for the rounded corners*
1,1,$1+$1,$2,$3*
1,1,$1+$1,$4,$5*
1,1,$1+$1,$6,$7*
1,1,$1+$1,$8,$9*
0 Add four rect primitives between the rounded corners*
20,1,$1+$1,$2,$3,$4,$5,0*
20,1,$1+$1,$4,$5,$6,$7,0*
20,1,$1+$1,$6,$7,$8,$9,0*
20,1,$1+$1,$8,$9,$2,$3,0*%
%AMFreePoly0*
4,1,6,1.000000,0.000000,0.500000,-0.750000,-0.500000,-0.750000,-0.500000,0.750000,0.500000,0.750000,1.000000,0.000000,1.000000,0.000000,$1*%
%AMFreePoly1*
4,1,6,0.500000,-0.750000,-0.650000,-0.750000,-0.150000,0.000000,-0.650000,0.750000,0.500000,0.750000,0.500000,-0.750000,0.500000,-0.750000,$1*%
G04 Aperture macros list end*
%TA.AperFunction,ComponentPad*%
%ADD10C,1.650000*%
%TD*%
%TA.AperFunction,SMDPad,CuDef*%
%ADD11RoundRect,0.250000X0.450000X-0.262500X0.450000X0.262500X-0.450000X0.262500X-0.450000X-0.262500X0*%
%TD*%
%TA.AperFunction,SMDPad,CuDef*%
%ADD12RoundRect,0.218750X-0.218750X-0.256250X0.218750X-0.256250X0.218750X0.256250X-0.218750X0.256250X0*%
%TD*%
%TA.AperFunction,SMDPad,CuDef*%
%ADD13RoundRect,0.150000X0.150000X-0.587500X0.150000X0.587500X-0.150000X0.587500X-0.150000X-0.587500X0*%
%TD*%
%TA.AperFunction,SMDPad,CuDef*%
%ADD14RoundRect,0.250000X-0.450000X0.262500X-0.450000X-0.262500X0.450000X-0.262500X0.450000X0.262500X0*%
%TD*%
%TA.AperFunction,SMDPad,CuDef*%
%ADD15FreePoly0,0.000000*%
%TD*%
%TA.AperFunction,SMDPad,CuDef*%
%ADD16FreePoly1,0.000000*%
%TD*%
%TA.AperFunction,ComponentPad*%
%ADD17R,1.600000X1.600000*%
%TD*%
%TA.AperFunction,ComponentPad*%
%ADD18C,1.600000*%
%TD*%
%TA.AperFunction,SMDPad,CuDef*%
%ADD19RoundRect,0.150000X0.150000X-0.512500X0.150000X0.512500X-0.150000X0.512500X-0.150000X-0.512500X0*%
%TD*%
%TA.AperFunction,SMDPad,CuDef*%
%ADD20RoundRect,0.250000X0.250000X0.475000X-0.250000X0.475000X-0.250000X-0.475000X0.250000X-0.475000X0*%
%TD*%
%TA.AperFunction,ComponentPad*%
%ADD21C,1.100000*%
%TD*%
%TA.AperFunction,ComponentPad*%
%ADD22R,1.700000X1.700000*%
%TD*%
%TA.AperFunction,ComponentPad*%
%ADD23O,1.700000X1.700000*%
%TD*%
%TA.AperFunction,SMDPad,CuDef*%
%ADD24RoundRect,0.250000X0.262500X0.450000X-0.262500X0.450000X-0.262500X-0.450000X0.262500X-0.450000X0*%
%TD*%
%TA.AperFunction,SMDPad,CuDef*%
%ADD25R,0.900000X0.900000*%
%TD*%
%TA.AperFunction,SMDPad,CuDef*%
%ADD26RoundRect,0.250000X-0.475000X0.250000X-0.475000X-0.250000X0.475000X-0.250000X0.475000X0.250000X0*%
%TD*%
%TA.AperFunction,SMDPad,CuDef*%
%ADD27RoundRect,0.150000X-0.150000X0.587500X-0.150000X-0.587500X0.150000X-0.587500X0.150000X0.587500X0*%
%TD*%
%TA.AperFunction,SMDPad,CuDef*%
%ADD28RoundRect,0.250000X0.475000X-0.250000X0.475000X0.250000X-0.475000X0.250000X-0.475000X-0.250000X0*%
%TD*%
%TA.AperFunction,ViaPad*%
%ADD29C,0.800000*%
%TD*%
%TA.AperFunction,Conductor*%
%ADD30C,0.250000*%
%TD*%
G04 APERTURE END LIST*
D10*
%TO.P,J1,1,Pin_1*%
%TO.N,GND*%
X36865000Y39790000D03*
%TO.P,J1,2,Pin_2*%
%TO.N,/12V_CONN*%
X31865000Y36290000D03*
%TD*%
D11*
%TO.P,R3,1*%
%TO.N,+12V*%
X13900000Y28687500D03*
%TO.P,R3,2*%
%TO.N,/RST_IN*%
X13900000Y30512500D03*
%TD*%
D12*
%TO.P,D1,2,A*%
%TO.N,+12V*%
X32017500Y2000000D03*
%TO.P,D1,1,K*%
%TO.N,/REG_VIN_K*%
X30442500Y2000000D03*
%TD*%
D13*
%TO.P,Q1,1,G*%
%TO.N,/12V_CONN_R*%
X23750000Y34562500D03*
%TO.P,Q1,2,S*%
%TO.N,+12V*%
X25650000Y34562500D03*
%TO.P,Q1,3,D*%
%TO.N,/12V_CONN*%
X24700000Y36437500D03*
%TD*%
D14*
%TO.P,R1,1*%
%TO.N,+12V*%
X17300000Y41712500D03*
%TO.P,R1,2*%
%TO.N,+3V0*%
X17300000Y39887500D03*
%TD*%
D15*
%TO.P,JP1,1,A*%
%TO.N,/12V_CONN_EN*%
X22675000Y31100000D03*
D16*
%TO.P,JP1,2,B*%
%TO.N,GND*%
X24125000Y31100000D03*
%TD*%
D17*
%TO.P,C7,1*%
%TO.N,+12V*%
X35617621Y6700000D03*
D18*
%TO.P,C7,2*%
%TO.N,GND*%
X38117621Y6700000D03*
%TD*%
D19*
%TO.P,IC1,1,~{ENABLE}*%
%TO.N,/RST_CONN*%
X10750000Y34362500D03*
%TO.P,IC1,2,GND*%
%TO.N,GND*%
X11700000Y34362500D03*
%TO.P,IC1,3,IN*%
%TO.N,/RST_IN*%
X12650000Y34362500D03*
%TO.P,IC1,4,~{OUT}*%
%TO.N,/12V_CONN_EN*%
X12650000Y36637500D03*
%TO.P,IC1,5,VCC*%
%TO.N,+3V0*%
X11700000Y36637500D03*
%TO.P,IC1,6,CDELAY*%
%TO.N,/RST_CDELAY*%
X10750000Y36637500D03*
%TD*%
D20*
%TO.P,C6,1*%
%TO.N,/RST_CDELAY*%
X6850000Y37300000D03*
%TO.P,C6,2*%
%TO.N,GND*%
X4950000Y37300000D03*
%TD*%
D21*
%TO.P,J3,1,Pin_1*%
%TO.N,+12V*%
X31865000Y12160000D03*
%TO.P,J3,2,Pin_2*%
X31865000Y13410000D03*
%TO.P,J3,3,Pin_3*%
%TO.N,GND*%
X31865000Y14660000D03*
%TO.P,J3,4,Pin_4*%
X31865000Y15910000D03*
%TD*%
D22*
%TO.P,J2,1,Pin_1*%
%TO.N,GND*%
X40120000Y16605000D03*
D23*
%TO.P,J2,2,Pin_2*%
%TO.N,unconnected-(J2-Pad2)*%
X40120000Y14065000D03*
%TO.P,J2,3,Pin_3*%
%TO.N,/RST_CONN*%
X40120000Y11525000D03*
%TD*%
D24*
%TO.P,R2,1*%
%TO.N,/RST_CONN*%
X6812500Y34000000D03*
%TO.P,R2,2*%
%TO.N,GND*%
X4987500Y34000000D03*
%TD*%
D25*
%TO.P,RN1,1,R1.1*%
%TO.N,/12V_CONN*%
X16300000Y34000000D03*
%TO.P,RN1,2,R1.1*%
%TO.N,Net-(RN1-Pad2)*%
X17640000Y34000000D03*
%TO.P,RN1,3,R1.1*%
X18960000Y34000000D03*
%TO.P,RN1,4,R1.1*%
%TO.N,GND*%
X20300000Y34000000D03*
%TO.P,RN1,5,R1.2*%
%TO.N,/REG_VIN_K*%
X20300000Y37000000D03*
%TO.P,RN1,6,R1.2*%
%TO.N,/12V_CONN_EN*%
X18960000Y37000000D03*
%TO.P,RN1,7,R1.2*%
%TO.N,/12V_CONN_R*%
X17640000Y37000000D03*
%TO.P,RN1,8,R1.2*%
X16300000Y37000000D03*
%TD*%
D20*
%TO.P,C4,1*%
%TO.N,+12V*%
X32180000Y5175000D03*
%TO.P,C4,2*%
%TO.N,GND*%
X30280000Y5175000D03*
%TD*%
D26*
%TO.P,C2,1*%
%TO.N,/RST_IN*%
X17300000Y30550000D03*
%TO.P,C2,2*%
%TO.N,GND*%
X17300000Y28650000D03*
%TD*%
D20*
%TO.P,C3,1*%
%TO.N,+12V*%
X32180000Y8350000D03*
%TO.P,C3,2*%
%TO.N,GND*%
X30280000Y8350000D03*
%TD*%
D27*
%TO.P,U1,1,K*%
%TO.N,+3V0*%
X10450000Y41737500D03*
%TO.P,U1,2,A*%
%TO.N,GND*%
X8550000Y41737500D03*
%TO.P,U1,3*%
%TO.N,N/C*%
X9500000Y39862500D03*
%TD*%
D28*
%TO.P,C5,1*%
%TO.N,+3V0*%
X13900000Y39850000D03*
%TO.P,C5,2*%
%TO.N,GND*%
X13900000Y41750000D03*
%TD*%
D10*
%TO.P,J4,1,Pin_1*%
%TO.N,GND*%
X36865000Y27725000D03*
%TO.P,J4,2,Pin_2*%
%TO.N,/12V_CONN*%
X31865000Y24225000D03*
%TD*%
D14*
%TO.P,R4,1*%
%TO.N,/RST_IN*%
X10700000Y30512500D03*
%TO.P,R4,2*%
%TO.N,GND*%
X10700000Y28687500D03*
%TD*%
D20*
%TO.P,C1,1*%
%TO.N,/RST_CONN*%
X6850000Y30700000D03*
%TO.P,C1,2*%
%TO.N,GND*%
X4950000Y30700000D03*
%TD*%
D29*
%TO.N,/RST_CONN*%
X32100000Y21100000D03*
X25300000Y27900000D03*
%TO.N,GND*%
X18600000Y28700000D03*
X4600000Y29400000D03*
X4600000Y32700000D03*
X25300000Y30900000D03*
X20300000Y32900000D03*
X4600000Y36000000D03*
X11700000Y33100000D03*
X7700000Y41800000D03*
X9400000Y28700000D03*
X29900000Y6500000D03*
X12600000Y42100000D03*
X30700000Y7100000D03*
X30700000Y3900000D03*
X29900000Y9700000D03*
%TO.N,+12V*%
X23100000Y37600000D03*
X26000000Y28800000D03*
X26600000Y35400000D03*
X29100000Y25700000D03*
%TO.N,/12V_CONN*%
X24400000Y33400000D03*
X22200000Y32600000D03*
%TD*%
D30*
%TO.N,/RST_CONN*%
X8600000Y28200000D02*
X8600000Y30600000D01*
X38200000Y13445000D02*
X38200000Y15000000D01*
X6850000Y30700000D02*
X6850000Y32150000D01*
X10750000Y32750000D02*
X10350000Y32350000D01*
X9300000Y27500000D02*
X8600000Y28200000D01*
X6850000Y32150000D02*
X6850000Y32350000D01*
X23600000Y27500000D02*
X9300000Y27500000D01*
X8600000Y30600000D02*
X10050000Y32050000D01*
X10750000Y34362500D02*
X10750000Y32750000D01*
X7150000Y32350000D02*
X6850000Y32350000D01*
X7150000Y32350000D02*
X7050000Y32350000D01*
X6850000Y32550000D02*
X6850000Y33962500D01*
X6850000Y32550000D02*
X7050000Y32350000D01*
X38200000Y15000000D02*
X32100000Y21100000D01*
X9750000Y32350000D02*
X7150000Y32350000D01*
X10350000Y32350000D02*
X9750000Y32350000D01*
X6850000Y33962500D02*
X6812500Y34000000D01*
X24000000Y27900000D02*
X25300000Y27900000D01*
X40120000Y11525000D02*
X38200000Y13445000D01*
X10050000Y32050000D02*
X10350000Y32350000D01*
X6850000Y32350000D02*
X6850000Y32550000D01*
X7050000Y32350000D02*
X6850000Y32150000D01*
X9750000Y32350000D02*
X10050000Y32050000D01*
X23600000Y27500000D02*
X24000000Y27900000D01*
%TO.N,GND*%
X30280000Y8350000D02*
X30280000Y9320000D01*
X30280000Y5175000D02*
X30280000Y6120000D01*
X30280000Y4320000D02*
X30700000Y3900000D01*
X4950000Y29750000D02*
X4600000Y29400000D01*
X30280000Y5175000D02*
X30280000Y4320000D01*
X4950000Y30700000D02*
X4950000Y29750000D01*
X12950000Y41750000D02*
X12600000Y42100000D01*
X30280000Y8350000D02*
X30280000Y7520000D01*
X17300000Y28650000D02*
X18550000Y28650000D01*
X4950000Y36350000D02*
X4600000Y36000000D01*
X7762500Y41737500D02*
X7700000Y41800000D01*
X30280000Y9320000D02*
X29900000Y9700000D01*
X11700000Y34362500D02*
X11700000Y33100000D01*
X8550000Y41737500D02*
X7762500Y41737500D01*
X30280000Y6120000D02*
X29900000Y6500000D01*
X20300000Y34000000D02*
X20300000Y32900000D01*
X13900000Y41750000D02*
X12950000Y41750000D01*
X4987500Y34000000D02*
X4987500Y33087500D01*
X9412500Y28687500D02*
X9400000Y28700000D01*
X24125000Y31100000D02*
X25100000Y31100000D01*
X4950000Y37300000D02*
X4950000Y36350000D01*
X30280000Y7520000D02*
X30700000Y7100000D01*
X25100000Y31100000D02*
X25300000Y30900000D01*
X10700000Y28687500D02*
X9412500Y28687500D01*
X18550000Y28650000D02*
X18600000Y28700000D01*
X4987500Y33087500D02*
X4600000Y32700000D01*
%TO.N,/RST_IN*%
X12412500Y30512500D02*
X12887500Y30512500D01*
X12650000Y34362500D02*
X12650000Y30750000D01*
X10700000Y30512500D02*
X12412500Y30512500D01*
X12650000Y30750000D02*
X12412500Y30512500D01*
X12650000Y30750000D02*
X12887500Y30512500D01*
X17262500Y30512500D02*
X17300000Y30550000D01*
X12887500Y30512500D02*
X13900000Y30512500D01*
X13900000Y30512500D02*
X17262500Y30512500D01*
%TO.N,+12V*%
X17300000Y41712500D02*
X18987500Y41712500D01*
X13900000Y28687500D02*
X14812500Y29600000D01*
X26000000Y28800000D02*
X20000000Y28800000D01*
X14812500Y29600000D02*
X19200000Y29600000D01*
X19200000Y29600000D02*
X20000000Y28800000D01*
X18987500Y41712500D02*
X23100000Y37600000D01*
%TO.N,+3V0*%
X11700000Y40000000D02*
X11800000Y39900000D01*
X11700000Y40200000D02*
X11700000Y40000000D01*
X11262500Y41737500D02*
X11700000Y41300000D01*
X11700000Y40300000D02*
X11700000Y41300000D01*
X13900000Y39850000D02*
X12050000Y39850000D01*
X10450000Y41737500D02*
X11262500Y41737500D01*
X12050000Y39850000D02*
X11700000Y39500000D01*
X11700000Y40200000D02*
X11700000Y40300000D01*
X12050000Y39850000D02*
X11700000Y40200000D01*
X17262500Y39850000D02*
X17300000Y39887500D01*
X11700000Y36637500D02*
X11700000Y39500000D01*
X13900000Y39850000D02*
X17262500Y39850000D01*
X11700000Y39500000D02*
X11700000Y40300000D01*
%TO.N,/RST_CDELAY*%
X10750000Y37450000D02*
X10400000Y37800000D01*
X8600000Y37800000D02*
X8100000Y37300000D01*
X8100000Y37300000D02*
X6850000Y37300000D01*
X10400000Y37800000D02*
X8600000Y37800000D01*
X10750000Y36637500D02*
X10750000Y37450000D01*
%TO.N,/REG_VIN_K*%
X20651964Y36648036D02*
X20300000Y37000000D01*
X30442500Y2000000D02*
X28200000Y2000000D01*
X25750000Y32550000D02*
X24150000Y32550000D01*
X20651964Y36048036D02*
X20651964Y36648036D01*
X24150000Y32550000D02*
X20651964Y36048036D01*
X27500000Y30800000D02*
X25750000Y32550000D01*
X28200000Y2000000D02*
X27500000Y2700000D01*
X27500000Y2700000D02*
X27500000Y30800000D01*
%TO.N,/12V_CONN_EN*%
X18960000Y36889022D02*
X23024022Y32825000D01*
X14900000Y36100000D02*
X14700000Y36100000D01*
X18960000Y37000000D02*
X18960000Y36860000D01*
X18960000Y37000000D02*
X18960000Y36889022D01*
X18400000Y36300000D02*
X18200000Y36100000D01*
X12650000Y36637500D02*
X14162500Y36637500D01*
X23024022Y31449022D02*
X22675000Y31100000D01*
X18200000Y36100000D02*
X14900000Y36100000D01*
X18960000Y36860000D02*
X18400000Y36300000D01*
X14162500Y36637500D02*
X14700000Y36100000D01*
X23024022Y32825000D02*
X23024022Y31449022D01*
%TO.N,/12V_CONN*%
X24700000Y36437500D02*
X24700000Y33700000D01*
X24700000Y33700000D02*
X24400000Y33400000D01*
X22200000Y32600000D02*
X21700000Y32100000D01*
X16300000Y32700000D02*
X16300000Y34000000D01*
X21700000Y32100000D02*
X16900000Y32100000D01*
X16900000Y32100000D02*
X16300000Y32700000D01*
%TO.N,/12V_CONN_R*%
X17400000Y37980000D02*
X17640000Y37740000D01*
X17640000Y37000000D02*
X17640000Y37740000D01*
X17900000Y38000000D02*
X17700000Y38000000D01*
X16300000Y37000000D02*
X16300000Y37800000D01*
X17640000Y37740000D02*
X17640000Y37940000D01*
X17640000Y37740000D02*
X17900000Y38000000D01*
X16300000Y37800000D02*
X16500000Y38000000D01*
X23750000Y35850000D02*
X21600000Y38000000D01*
X18300000Y38000000D02*
X17900000Y38000000D01*
X21600000Y38000000D02*
X18300000Y38000000D01*
X16500000Y38000000D02*
X17000000Y38000000D01*
X23750000Y34562500D02*
X23750000Y35850000D01*
X17400000Y38000000D02*
X17400000Y37980000D01*
X17640000Y37940000D02*
X17700000Y38000000D01*
X17400000Y38000000D02*
X17000000Y38000000D01*
X17700000Y38000000D02*
X17400000Y38000000D01*
%TO.N,Net-(RN1-Pad2)*%
X17900000Y33000000D02*
X18700000Y33000000D01*
X18960000Y33260000D02*
X18960000Y34000000D01*
X18700000Y33000000D02*
X18960000Y33260000D01*
X17640000Y33260000D02*
X17900000Y33000000D01*
X17640000Y34000000D02*
X17640000Y33260000D01*
%TD*%
%TA.AperFunction,Conductor*%
%TO.N,/12V_CONN*%
G36*
X35422761Y43275487D02*
G01*
X35434765Y43265235D01*
X35670535Y43029465D01*
X35698761Y42974067D01*
X35700000Y42958330D01*
X35700000Y19841670D01*
X35680787Y19782539D01*
X35670535Y19770535D01*
X35429465Y19529465D01*
X35374067Y19501239D01*
X35358330Y19500000D01*
X34741670Y19500000D01*
X34682539Y19519213D01*
X34670535Y19529465D01*
X32645604Y21554396D01*
X32640564Y21560456D01*
X32640387Y21560300D01*
X32636371Y21564855D01*
X32632939Y21569849D01*
X32628415Y21573880D01*
X32628413Y21573882D01*
X32609533Y21590703D01*
X32605320Y21594680D01*
X32500000Y21700000D01*
X32489152Y21700000D01*
X32479655Y21704839D01*
X32452064Y21711693D01*
X32359973Y21760452D01*
X32354613Y21763290D01*
X32245346Y21790736D01*
X32194932Y21803400D01*
X32194930Y21803400D01*
X32189047Y21804878D01*
X32182982Y21804910D01*
X32182980Y21804910D01*
X32105992Y21805312D01*
X32018339Y21805771D01*
X32012442Y21804355D01*
X32012440Y21804355D01*
X31858245Y21767336D01*
X31852347Y21765920D01*
X31781717Y21729465D01*
X31746338Y21711205D01*
X31700198Y21700000D01*
X31341670Y21700000D01*
X31282539Y21719213D01*
X31270535Y21729465D01*
X30839765Y22160235D01*
X30811539Y22215633D01*
X30810300Y22231370D01*
X30810300Y23373996D01*
X31200233Y23373996D01*
X31200241Y23373949D01*
X31205853Y23367634D01*
X31344106Y23275256D01*
X31352177Y23270874D01*
X31525908Y23196232D01*
X31534633Y23193397D01*
X31719064Y23151665D01*
X31728169Y23150467D01*
X31917103Y23143043D01*
X31926274Y23143523D01*
X32113405Y23170656D01*
X32122334Y23172800D01*
X32301386Y23233580D01*
X32309770Y23237313D01*
X32474748Y23329705D01*
X32482315Y23334906D01*
X32520545Y23366701D01*
X32527778Y23378165D01*
X32527589Y23381044D01*
X32525554Y23384133D01*
X31876268Y24033420D01*
X31864189Y24039575D01*
X31859077Y24038765D01*
X31206387Y23386074D01*
X31200233Y23373996D01*
X30810300Y23373996D01*
X30810300Y23531034D01*
X30829513Y23590165D01*
X30879813Y23626710D01*
X30941987Y23626710D01*
X30993054Y23589095D01*
X31006935Y23569454D01*
X31017794Y23561345D01*
X31018553Y23561335D01*
X31024786Y23565099D01*
X31673420Y24213732D01*
X31678748Y24224189D01*
X32050425Y24224189D01*
X32051235Y24219077D01*
X32701841Y23568472D01*
X32713919Y23562318D01*
X32716769Y23562770D01*
X32719657Y23565077D01*
X32755094Y23607685D01*
X32760295Y23615252D01*
X32852687Y23780230D01*
X32856420Y23788614D01*
X32917200Y23967666D01*
X32919344Y23976595D01*
X32946713Y24165356D01*
X32947215Y24171247D01*
X32948546Y24222044D01*
X32948352Y24227949D01*
X32930900Y24417887D01*
X32929227Y24426909D01*
X32877900Y24608899D01*
X32874609Y24617472D01*
X32790983Y24787049D01*
X32786177Y24794891D01*
X32722619Y24880007D01*
X32711551Y24887829D01*
X32710080Y24887810D01*
X32704904Y24884591D01*
X32056580Y24236268D01*
X32050425Y24224189D01*
X31678748Y24224189D01*
X31679575Y24225811D01*
X31678765Y24230923D01*
X31028434Y24881253D01*
X31016356Y24887407D01*
X31014203Y24887066D01*
X31010414Y24883956D01*
X30989903Y24857938D01*
X30938207Y24823396D01*
X30876081Y24825837D01*
X30827254Y24864329D01*
X30810300Y24920219D01*
X30810300Y25072765D01*
X31201455Y25072765D01*
X31201784Y25069192D01*
X31203177Y25067136D01*
X31853732Y24416580D01*
X31865811Y24410425D01*
X31870923Y24411235D01*
X32523645Y25063958D01*
X32529799Y25076036D01*
X32529128Y25080271D01*
X32528367Y25081277D01*
X32528051Y25081569D01*
X32520773Y25087154D01*
X32360856Y25188053D01*
X32352669Y25192225D01*
X32177052Y25262289D01*
X32168241Y25264899D01*
X31982793Y25301787D01*
X31973655Y25302747D01*
X31784593Y25305223D01*
X31775436Y25304502D01*
X31589086Y25272481D01*
X31580207Y25270101D01*
X31402819Y25204660D01*
X31394520Y25200701D01*
X31232024Y25104026D01*
X31224599Y25098632D01*
X31208385Y25084412D01*
X31201455Y25072765D01*
X30810300Y25072765D01*
X30810300Y35438996D01*
X31200233Y35438996D01*
X31200241Y35438949D01*
X31205853Y35432634D01*
X31344106Y35340256D01*
X31352177Y35335874D01*
X31525908Y35261232D01*
X31534633Y35258397D01*
X31719064Y35216665D01*
X31728169Y35215467D01*
X31917103Y35208043D01*
X31926274Y35208523D01*
X32113405Y35235656D01*
X32122334Y35237800D01*
X32301386Y35298580D01*
X32309770Y35302313D01*
X32474748Y35394705D01*
X32482315Y35399906D01*
X32520545Y35431701D01*
X32527778Y35443165D01*
X32527589Y35446044D01*
X32525554Y35449133D01*
X31876268Y36098420D01*
X31864189Y36104575D01*
X31859077Y36103765D01*
X31206387Y35451074D01*
X31200233Y35438996D01*
X30810300Y35438996D01*
X30810300Y35458330D01*
X30809343Y35482685D01*
X30808104Y35498422D01*
X30775242Y35614938D01*
X30773002Y35619333D01*
X30771198Y35623944D01*
X30773013Y35624655D01*
X30767878Y35657126D01*
X30736094Y35685370D01*
X30692276Y35745679D01*
X30692274Y35745682D01*
X30689950Y35748880D01*
X30448880Y35989950D01*
X30447792Y35990956D01*
X30431676Y36005854D01*
X30431657Y36005871D01*
X30430984Y36006493D01*
X30418980Y36016745D01*
X30414675Y36019156D01*
X30414672Y36019158D01*
X30363793Y36047651D01*
X30313350Y36075900D01*
X30254219Y36095113D01*
X30250312Y36095732D01*
X30250307Y36095733D01*
X30194477Y36104575D01*
X30158330Y36110300D01*
X25386321Y36110300D01*
X25369749Y36107775D01*
X25308400Y36117864D01*
X25264696Y36162087D01*
X25254000Y36207228D01*
X25254000Y36294067D01*
X25249812Y36306957D01*
X25245623Y36310000D01*
X24843433Y36310000D01*
X24830543Y36305812D01*
X24827500Y36301623D01*
X24827500Y35461934D01*
X24831688Y35449044D01*
X24835877Y35446001D01*
X24877844Y35446001D01*
X24885703Y35446619D01*
X24932177Y35453980D01*
X24993586Y35444254D01*
X25030909Y35411470D01*
X25038831Y35399906D01*
X25053873Y35377946D01*
X25071437Y35318304D01*
X25065795Y35287768D01*
X25047713Y35236278D01*
X25044700Y35204405D01*
X25044700Y34681415D01*
X25025488Y34622286D01*
X24975188Y34585741D01*
X24913014Y34585741D01*
X24872463Y34610788D01*
X24384261Y35105964D01*
X24356428Y35161561D01*
X24355299Y35176593D01*
X24355299Y35204404D01*
X24352287Y35236278D01*
X24320388Y35327115D01*
X24318924Y35389269D01*
X24354274Y35440416D01*
X24412937Y35461016D01*
X24431043Y35459805D01*
X24514292Y35446620D01*
X24522162Y35446000D01*
X24556567Y35446000D01*
X24569457Y35450188D01*
X24572500Y35454377D01*
X24572500Y36294067D01*
X24568312Y36306957D01*
X24564123Y36310000D01*
X24161934Y36310000D01*
X24149044Y36305812D01*
X24145908Y36301495D01*
X24144762Y36294262D01*
X24142497Y36294621D01*
X24126788Y36246274D01*
X24076488Y36209729D01*
X24014314Y36209729D01*
X23974266Y36234270D01*
X23894774Y36313762D01*
X30782050Y36313762D01*
X30794417Y36125078D01*
X30795851Y36116021D01*
X30842396Y35932751D01*
X30845463Y35924091D01*
X30908839Y35786620D01*
X30913296Y35748966D01*
X30946038Y35720621D01*
X31006934Y35634455D01*
X31017794Y35626345D01*
X31018553Y35626335D01*
X31024786Y35630099D01*
X31673420Y36278732D01*
X31678748Y36289189D01*
X32050425Y36289189D01*
X32051235Y36284077D01*
X32701841Y35633472D01*
X32713919Y35627318D01*
X32716769Y35627770D01*
X32719657Y35630077D01*
X32755094Y35672685D01*
X32760295Y35680252D01*
X32852687Y35845230D01*
X32856420Y35853614D01*
X32917200Y36032666D01*
X32919344Y36041595D01*
X32946713Y36230356D01*
X32947215Y36236247D01*
X32948546Y36287044D01*
X32948352Y36292949D01*
X32930900Y36482887D01*
X32929227Y36491909D01*
X32877900Y36673899D01*
X32874609Y36682472D01*
X32790983Y36852049D01*
X32786177Y36859891D01*
X32722619Y36945007D01*
X32711551Y36952829D01*
X32710080Y36952810D01*
X32704904Y36949591D01*
X32056580Y36301268D01*
X32050425Y36289189D01*
X31678748Y36289189D01*
X31679575Y36290811D01*
X31678765Y36295923D01*
X31028434Y36946253D01*
X31016356Y36952407D01*
X31014203Y36952066D01*
X31010414Y36948956D01*
X30959051Y36883803D01*
X30954051Y36876104D01*
X30866009Y36708764D01*
X30862496Y36700282D01*
X30806424Y36519700D01*
X30804516Y36510723D01*
X30782290Y36322948D01*
X30782050Y36313762D01*
X23894774Y36313762D01*
X23729465Y36479071D01*
X23701239Y36534469D01*
X23700000Y36550206D01*
X23700000Y36580933D01*
X24146000Y36580933D01*
X24150188Y36568043D01*
X24154377Y36565000D01*
X24556567Y36565000D01*
X24569457Y36569188D01*
X24572500Y36573377D01*
X24572500Y36580933D01*
X24827500Y36580933D01*
X24831688Y36568043D01*
X24835877Y36565000D01*
X25238066Y36565000D01*
X25250956Y36569188D01*
X25253999Y36573377D01*
X25253999Y37052844D01*
X25253382Y37060693D01*
X25241176Y37137765D01*
X31201455Y37137765D01*
X31201784Y37134192D01*
X31203177Y37132136D01*
X31853732Y36481580D01*
X31865811Y36475425D01*
X31870923Y36476235D01*
X32523645Y37128958D01*
X32529799Y37141036D01*
X32529128Y37145271D01*
X32528367Y37146277D01*
X32528051Y37146569D01*
X32520773Y37152154D01*
X32360856Y37253053D01*
X32352669Y37257225D01*
X32177052Y37327289D01*
X32168241Y37329899D01*
X31982793Y37366787D01*
X31973655Y37367747D01*
X31784593Y37370223D01*
X31775436Y37369502D01*
X31589086Y37337481D01*
X31580207Y37335101D01*
X31402819Y37269660D01*
X31394520Y37265701D01*
X31232024Y37169026D01*
X31224599Y37163632D01*
X31208385Y37149412D01*
X31201455Y37137765D01*
X25241176Y37137765D01*
X25240255Y37143578D01*
X25235420Y37158457D01*
X25184512Y37258369D01*
X25175318Y37271024D01*
X25096024Y37350318D01*
X25083369Y37359512D01*
X24983455Y37410421D01*
X24968577Y37415255D01*
X24885706Y37428381D01*
X24877838Y37429000D01*
X24843433Y37429000D01*
X24830543Y37424812D01*
X24827500Y37420623D01*
X24827500Y36580933D01*
X24572500Y36580933D01*
X24572500Y37413066D01*
X24568312Y37425956D01*
X24564123Y37428999D01*
X24522156Y37428999D01*
X24514307Y37428382D01*
X24431422Y37415255D01*
X24416543Y37410420D01*
X24316631Y37359512D01*
X24303976Y37350318D01*
X24224682Y37271024D01*
X24215488Y37258369D01*
X24164579Y37158455D01*
X24159745Y37143577D01*
X24146619Y37060706D01*
X24146000Y37052838D01*
X24146000Y36580933D01*
X23700000Y36580933D01*
X23700000Y37193879D01*
X23717092Y37246958D01*
X23716137Y37247483D01*
X23718851Y37252420D01*
X23718903Y37252581D01*
X23719059Y37252798D01*
X23719061Y37252802D01*
X23722598Y37257724D01*
X23727397Y37269660D01*
X23784009Y37410487D01*
X23786271Y37416114D01*
X23810324Y37585121D01*
X23810480Y37600000D01*
X23789971Y37769473D01*
X23781806Y37791083D01*
X23731773Y37923492D01*
X23731773Y37923493D01*
X23729630Y37929163D01*
X23726197Y37934158D01*
X23726195Y37934162D01*
X23717694Y37946530D01*
X23700000Y38003511D01*
X23700000Y38458330D01*
X23719213Y38517461D01*
X23729465Y38529465D01*
X23970535Y38770535D01*
X24025933Y38798761D01*
X24041670Y38800000D01*
X24800000Y38800000D01*
X26200000Y40400000D01*
X26200000Y43194100D01*
X26219213Y43253231D01*
X26269513Y43289776D01*
X26300600Y43294700D01*
X35363630Y43294700D01*
X35422761Y43275487D01*
G37*
%TD.AperFunction*%
%TD*%
%TA.AperFunction,Conductor*%
%TO.N,+12V*%
G36*
X30217461Y35780787D02*
G01*
X30229465Y35770535D01*
X30470535Y35529465D01*
X30498761Y35474067D01*
X30500000Y35458330D01*
X30500000Y21800000D01*
X31419167Y20880833D01*
X31442505Y20844270D01*
X31466958Y20777449D01*
X31562170Y20635758D01*
X31688432Y20520868D01*
X31838455Y20439412D01*
X31844319Y20437874D01*
X31849960Y20435640D01*
X31849415Y20434263D01*
X31887720Y20412280D01*
X34070535Y18229465D01*
X34098761Y18174067D01*
X34100000Y18158330D01*
X34100000Y14100000D01*
X35970535Y12229465D01*
X35998761Y12174067D01*
X36000000Y12158330D01*
X36000000Y7854600D01*
X35980787Y7795469D01*
X35930487Y7758924D01*
X35899400Y7754000D01*
X35761054Y7754000D01*
X35748164Y7749812D01*
X35745121Y7745623D01*
X35745121Y5661934D01*
X35749309Y5649044D01*
X35753498Y5646001D01*
X35899400Y5646001D01*
X35958531Y5626788D01*
X35995076Y5576488D01*
X36000000Y5545401D01*
X36000000Y1041670D01*
X35980787Y982539D01*
X35970535Y970535D01*
X35334765Y334765D01*
X35279367Y306539D01*
X35263630Y305300D01*
X31836370Y305300D01*
X31777239Y324513D01*
X31765235Y334765D01*
X31129465Y970535D01*
X31101239Y1025933D01*
X31100000Y1041670D01*
X31100000Y1421099D01*
X31116907Y1471328D01*
X31114588Y1472634D01*
X31117955Y1478610D01*
X31122102Y1484073D01*
X31124628Y1490452D01*
X31164217Y1590441D01*
X31203848Y1638347D01*
X31264069Y1653808D01*
X31321877Y1630920D01*
X31351951Y1588719D01*
X31377299Y1521100D01*
X31384112Y1508656D01*
X31456729Y1411764D01*
X31466764Y1401729D01*
X31563656Y1329112D01*
X31576098Y1322300D01*
X31690291Y1279492D01*
X31702453Y1276601D01*
X31751305Y1271293D01*
X31756725Y1271000D01*
X31874067Y1271000D01*
X31886957Y1275188D01*
X31890000Y1279377D01*
X31890000Y1286934D01*
X32145000Y1286934D01*
X32149188Y1274044D01*
X32153377Y1271001D01*
X32278273Y1271001D01*
X32283697Y1271295D01*
X32332541Y1276600D01*
X32344714Y1279494D01*
X32458902Y1322300D01*
X32471344Y1329112D01*
X32568236Y1401729D01*
X32578271Y1411764D01*
X32650888Y1508656D01*
X32657700Y1521098D01*
X32700508Y1635291D01*
X32703399Y1647453D01*
X32708707Y1696305D01*
X32709000Y1701725D01*
X32709000Y1856567D01*
X32704812Y1869457D01*
X32700623Y1872500D01*
X32160933Y1872500D01*
X32148043Y1868312D01*
X32145000Y1864123D01*
X32145000Y1286934D01*
X31890000Y1286934D01*
X31890000Y2143433D01*
X32145000Y2143433D01*
X32149188Y2130543D01*
X32153377Y2127500D01*
X32693066Y2127500D01*
X32705956Y2131688D01*
X32708999Y2135877D01*
X32708999Y2298273D01*
X32708705Y2303697D01*
X32703400Y2352541D01*
X32700506Y2364714D01*
X32657700Y2478902D01*
X32650888Y2491344D01*
X32578271Y2588236D01*
X32568236Y2598271D01*
X32471344Y2670888D01*
X32458902Y2677700D01*
X32344709Y2720508D01*
X32332547Y2723399D01*
X32283695Y2728707D01*
X32278275Y2729000D01*
X32160933Y2729000D01*
X32148043Y2724812D01*
X32145000Y2720623D01*
X32145000Y2143433D01*
X31890000Y2143433D01*
X31890000Y2713066D01*
X31885812Y2725956D01*
X31881623Y2728999D01*
X31756727Y2728999D01*
X31751303Y2728705D01*
X31702459Y2723400D01*
X31690286Y2720506D01*
X31576098Y2677700D01*
X31563656Y2670888D01*
X31466764Y2598271D01*
X31456729Y2588236D01*
X31384112Y2491344D01*
X31377299Y2478900D01*
X31351951Y2411281D01*
X31313204Y2362656D01*
X31253277Y2346093D01*
X31195059Y2367917D01*
X31164217Y2409559D01*
X31124628Y2509548D01*
X31124627Y2509550D01*
X31122102Y2515927D01*
X31117955Y2521390D01*
X31114588Y2527366D01*
X31116907Y2528672D01*
X31100000Y2578901D01*
X31100000Y3267678D01*
X31119213Y3326809D01*
X31135265Y3344175D01*
X31218373Y3415156D01*
X31218375Y3415158D01*
X31222982Y3419093D01*
X31234957Y3435758D01*
X31319061Y3552801D01*
X31319063Y3552804D01*
X31322598Y3557724D01*
X31330528Y3577449D01*
X31384009Y3710487D01*
X31386271Y3716114D01*
X31410324Y3885121D01*
X31410480Y3900000D01*
X31389971Y4069473D01*
X31367995Y4127633D01*
X31342161Y4196000D01*
X31329630Y4229163D01*
X31232939Y4369849D01*
X31228415Y4373880D01*
X31228413Y4373882D01*
X31133678Y4458287D01*
X31102309Y4511968D01*
X31100000Y4533399D01*
X31100000Y4655011D01*
X31426001Y4655011D01*
X31426295Y4649587D01*
X31432014Y4596930D01*
X31434910Y4584751D01*
X31480855Y4462193D01*
X31487672Y4449741D01*
X31565654Y4345689D01*
X31575689Y4335654D01*
X31679741Y4257672D01*
X31692193Y4250855D01*
X31814749Y4204911D01*
X31826932Y4202014D01*
X31879589Y4196293D01*
X31885009Y4196000D01*
X32036567Y4196000D01*
X32049457Y4200188D01*
X32052500Y4204377D01*
X32052500Y4211934D01*
X32307500Y4211934D01*
X32311688Y4199044D01*
X32315877Y4196001D01*
X32474989Y4196001D01*
X32480413Y4196295D01*
X32533070Y4202014D01*
X32545249Y4204910D01*
X32667807Y4250855D01*
X32680259Y4257672D01*
X32784311Y4335654D01*
X32794346Y4345689D01*
X32872328Y4449741D01*
X32879145Y4462193D01*
X32925089Y4584749D01*
X32927986Y4596932D01*
X32933707Y4649589D01*
X32934000Y4655009D01*
X32934000Y5031567D01*
X32929812Y5044457D01*
X32925623Y5047500D01*
X32323433Y5047500D01*
X32310543Y5043312D01*
X32307500Y5039123D01*
X32307500Y4211934D01*
X32052500Y4211934D01*
X32052500Y5031567D01*
X32048312Y5044457D01*
X32044123Y5047500D01*
X31441934Y5047500D01*
X31429044Y5043312D01*
X31426001Y5039123D01*
X31426001Y4655011D01*
X31100000Y4655011D01*
X31100000Y5318433D01*
X31426000Y5318433D01*
X31430188Y5305543D01*
X31434377Y5302500D01*
X32036567Y5302500D01*
X32049457Y5306688D01*
X32052500Y5310877D01*
X32052500Y5318433D01*
X32307500Y5318433D01*
X32311688Y5305543D01*
X32315877Y5302500D01*
X32918066Y5302500D01*
X32930956Y5306688D01*
X32933999Y5310877D01*
X32933999Y5694989D01*
X32933705Y5700413D01*
X32927986Y5753070D01*
X32925090Y5765249D01*
X32882101Y5879922D01*
X34563622Y5879922D01*
X34564586Y5870139D01*
X34576425Y5810614D01*
X34583863Y5792655D01*
X34628992Y5725115D01*
X34642736Y5711371D01*
X34710278Y5666241D01*
X34728232Y5658804D01*
X34787752Y5646965D01*
X34797551Y5646000D01*
X35474188Y5646001D01*
X35487078Y5650189D01*
X35490121Y5654378D01*
X35490121Y6556567D01*
X35485933Y6569457D01*
X35481744Y6572500D01*
X34579555Y6572500D01*
X34566665Y6568312D01*
X34563622Y6564123D01*
X34563622Y5879922D01*
X32882101Y5879922D01*
X32879145Y5887807D01*
X32872328Y5900259D01*
X32794346Y6004311D01*
X32784311Y6014346D01*
X32680259Y6092328D01*
X32667807Y6099145D01*
X32545251Y6145089D01*
X32533068Y6147986D01*
X32480411Y6153707D01*
X32474991Y6154000D01*
X32323433Y6154000D01*
X32310543Y6149812D01*
X32307500Y6145623D01*
X32307500Y5318433D01*
X32052500Y5318433D01*
X32052500Y6138066D01*
X32048312Y6150956D01*
X32044123Y6153999D01*
X31885011Y6153999D01*
X31879587Y6153705D01*
X31826930Y6147986D01*
X31814751Y6145090D01*
X31692193Y6099145D01*
X31679741Y6092328D01*
X31575689Y6014346D01*
X31565654Y6004311D01*
X31487672Y5900259D01*
X31480855Y5887807D01*
X31434911Y5765251D01*
X31432014Y5753068D01*
X31426293Y5700411D01*
X31426000Y5694991D01*
X31426000Y5318433D01*
X31100000Y5318433D01*
X31100000Y6467678D01*
X31119213Y6526809D01*
X31135265Y6544175D01*
X31218373Y6615156D01*
X31218375Y6615158D01*
X31222982Y6619093D01*
X31264369Y6676689D01*
X31319061Y6752801D01*
X31319063Y6752804D01*
X31322598Y6757724D01*
X31351872Y6830543D01*
X31357054Y6843433D01*
X34563621Y6843433D01*
X34567809Y6830543D01*
X34571998Y6827500D01*
X35474188Y6827500D01*
X35487078Y6831688D01*
X35490121Y6835877D01*
X35490121Y7738067D01*
X35485933Y7750957D01*
X35481744Y7754000D01*
X34797543Y7753999D01*
X34787760Y7753035D01*
X34728235Y7741196D01*
X34710276Y7733758D01*
X34642736Y7688629D01*
X34628992Y7674885D01*
X34583862Y7607343D01*
X34576425Y7589389D01*
X34564586Y7529869D01*
X34563621Y7520070D01*
X34563621Y6843433D01*
X31357054Y6843433D01*
X31384009Y6910487D01*
X31386271Y6916114D01*
X31410324Y7085121D01*
X31410480Y7100000D01*
X31389971Y7269473D01*
X31367995Y7327633D01*
X31363407Y7339772D01*
X31329630Y7429163D01*
X31232939Y7569849D01*
X31228415Y7573880D01*
X31228413Y7573882D01*
X31133678Y7658287D01*
X31102309Y7711968D01*
X31100000Y7733399D01*
X31100000Y7830011D01*
X31426001Y7830011D01*
X31426295Y7824587D01*
X31432014Y7771930D01*
X31434910Y7759751D01*
X31480855Y7637193D01*
X31487672Y7624741D01*
X31565654Y7520689D01*
X31575689Y7510654D01*
X31679741Y7432672D01*
X31692193Y7425855D01*
X31814749Y7379911D01*
X31826932Y7377014D01*
X31879589Y7371293D01*
X31885009Y7371000D01*
X32036567Y7371000D01*
X32049457Y7375188D01*
X32052500Y7379377D01*
X32052500Y7386934D01*
X32307500Y7386934D01*
X32311688Y7374044D01*
X32315877Y7371001D01*
X32474989Y7371001D01*
X32480413Y7371295D01*
X32533070Y7377014D01*
X32545249Y7379910D01*
X32667807Y7425855D01*
X32680259Y7432672D01*
X32784311Y7510654D01*
X32794346Y7520689D01*
X32872328Y7624741D01*
X32879145Y7637193D01*
X32925089Y7759749D01*
X32927986Y7771932D01*
X32933707Y7824589D01*
X32934000Y7830009D01*
X32934000Y8206567D01*
X32929812Y8219457D01*
X32925623Y8222500D01*
X32323433Y8222500D01*
X32310543Y8218312D01*
X32307500Y8214123D01*
X32307500Y7386934D01*
X32052500Y7386934D01*
X32052500Y8206567D01*
X32048312Y8219457D01*
X32044123Y8222500D01*
X31441934Y8222500D01*
X31429044Y8218312D01*
X31426001Y8214123D01*
X31426001Y7830011D01*
X31100000Y7830011D01*
X31100000Y8493433D01*
X31426000Y8493433D01*
X31430188Y8480543D01*
X31434377Y8477500D01*
X32036567Y8477500D01*
X32049457Y8481688D01*
X32052500Y8485877D01*
X32052500Y8493433D01*
X32307500Y8493433D01*
X32311688Y8480543D01*
X32315877Y8477500D01*
X32918066Y8477500D01*
X32930956Y8481688D01*
X32933999Y8485877D01*
X32933999Y8869989D01*
X32933705Y8875413D01*
X32927986Y8928070D01*
X32925090Y8940249D01*
X32879145Y9062807D01*
X32872328Y9075259D01*
X32794346Y9179311D01*
X32784311Y9189346D01*
X32680259Y9267328D01*
X32667807Y9274145D01*
X32545251Y9320089D01*
X32533068Y9322986D01*
X32480411Y9328707D01*
X32474991Y9329000D01*
X32323433Y9329000D01*
X32310543Y9324812D01*
X32307500Y9320623D01*
X32307500Y8493433D01*
X32052500Y8493433D01*
X32052500Y9313066D01*
X32048312Y9325956D01*
X32044123Y9328999D01*
X31885011Y9328999D01*
X31879587Y9328705D01*
X31826930Y9322986D01*
X31814751Y9320090D01*
X31692193Y9274145D01*
X31679741Y9267328D01*
X31575689Y9189346D01*
X31565654Y9179311D01*
X31487672Y9075259D01*
X31480855Y9062807D01*
X31434911Y8940251D01*
X31432014Y8928068D01*
X31426293Y8875411D01*
X31426000Y8869991D01*
X31426000Y8493433D01*
X31100000Y8493433D01*
X31100000Y8900000D01*
X31092331Y8907669D01*
X31085711Y8928044D01*
X31086482Y8928295D01*
X31078498Y8946484D01*
X31076706Y8946029D01*
X31075118Y8952283D01*
X31074341Y8958703D01*
X31028194Y9075259D01*
X31020858Y9093788D01*
X31020857Y9093790D01*
X31018334Y9100162D01*
X30926348Y9221348D01*
X30805162Y9313334D01*
X30798790Y9315857D01*
X30798788Y9315858D01*
X30764369Y9329485D01*
X30716463Y9369117D01*
X30701920Y9408065D01*
X30697040Y9440522D01*
X30695923Y9447955D01*
X30692938Y9454171D01*
X30691699Y9460956D01*
X30665712Y9510981D01*
X30664300Y9513808D01*
X30643168Y9557815D01*
X30639912Y9564596D01*
X30635813Y9569030D01*
X30634696Y9570688D01*
X30632051Y9575780D01*
X30628326Y9580142D01*
X30625125Y9584893D01*
X30626593Y9585882D01*
X30605794Y9636126D01*
X30606489Y9658173D01*
X30609860Y9681856D01*
X30609861Y9681866D01*
X30610324Y9685121D01*
X30610480Y9700000D01*
X30589971Y9869473D01*
X30587245Y9876689D01*
X30531772Y10023493D01*
X30529630Y10029163D01*
X30432939Y10169849D01*
X30305481Y10283410D01*
X30300125Y10286246D01*
X30300122Y10286248D01*
X30159975Y10360451D01*
X30154613Y10363290D01*
X30045012Y10390820D01*
X29994932Y10403400D01*
X29994930Y10403400D01*
X29989047Y10404878D01*
X29982982Y10404910D01*
X29982980Y10404910D01*
X29905992Y10405312D01*
X29818339Y10405771D01*
X29692397Y10375535D01*
X29630416Y10380414D01*
X29597779Y10402221D01*
X28492839Y11507161D01*
X31398342Y11507161D01*
X31404180Y11500655D01*
X31495492Y11440902D01*
X31505474Y11435859D01*
X31663997Y11376905D01*
X31674837Y11374202D01*
X31842478Y11351834D01*
X31853659Y11351600D01*
X32022091Y11366928D01*
X32033038Y11369176D01*
X32193892Y11421441D01*
X32204063Y11426055D01*
X32324810Y11498034D01*
X32333202Y11507619D01*
X32328436Y11516252D01*
X31876268Y11968420D01*
X31864189Y11974575D01*
X31859077Y11973765D01*
X31404439Y11519127D01*
X31398342Y11507161D01*
X28492839Y11507161D01*
X27959765Y12040235D01*
X27931539Y12095633D01*
X27930300Y12111370D01*
X27930300Y12165703D01*
X31056541Y12165703D01*
X31073044Y11997380D01*
X31075368Y11986444D01*
X31128754Y11825962D01*
X31133441Y11815819D01*
X31203291Y11700484D01*
X31213022Y11692084D01*
X31221479Y11696791D01*
X31673420Y12148732D01*
X31678748Y12159189D01*
X32050425Y12159189D01*
X32051235Y12154077D01*
X32505697Y11699615D01*
X32517762Y11693468D01*
X32524147Y11699156D01*
X32581501Y11785482D01*
X32586613Y11795429D01*
X32646670Y11953528D01*
X32649451Y11964358D01*
X32673331Y12134274D01*
X32673816Y12140577D01*
X32674043Y12156835D01*
X32673734Y12163144D01*
X32654608Y12333660D01*
X32652130Y12344567D01*
X32596512Y12504279D01*
X32591678Y12514369D01*
X32526287Y12619016D01*
X32516258Y12627431D01*
X32508162Y12622850D01*
X32056580Y12171268D01*
X32050425Y12159189D01*
X31678748Y12159189D01*
X31679575Y12160811D01*
X31678765Y12165923D01*
X31223922Y12620766D01*
X31212056Y12626812D01*
X31205430Y12620825D01*
X31143337Y12524475D01*
X31138368Y12514465D01*
X31080523Y12355537D01*
X31077894Y12344671D01*
X31056696Y12176873D01*
X31056541Y12165703D01*
X27930300Y12165703D01*
X27930300Y12784189D01*
X31425425Y12784189D01*
X31426235Y12779077D01*
X31853732Y12351580D01*
X31865811Y12345425D01*
X31870923Y12346235D01*
X32298420Y12773732D01*
X32304575Y12785811D01*
X32303765Y12790923D01*
X31876268Y13218420D01*
X31864189Y13224575D01*
X31859077Y13223765D01*
X31431580Y12796268D01*
X31425425Y12784189D01*
X27930300Y12784189D01*
X27930300Y14660000D01*
X31004989Y14660000D01*
X31023782Y14481194D01*
X31079341Y14310202D01*
X31169236Y14154498D01*
X31269315Y14043349D01*
X31294603Y13986552D01*
X31281676Y13925736D01*
X31235472Y13884133D01*
X31212691Y13877386D01*
X31205430Y13870825D01*
X31143337Y13774475D01*
X31138368Y13764465D01*
X31080523Y13605537D01*
X31077894Y13594671D01*
X31056696Y13426873D01*
X31056541Y13415703D01*
X31073044Y13247380D01*
X31075368Y13236444D01*
X31128754Y13075962D01*
X31133441Y13065819D01*
X31203291Y12950484D01*
X31213022Y12942084D01*
X31221479Y12946791D01*
X31673420Y13398732D01*
X31679575Y13410811D01*
X31678765Y13415923D01*
X31358228Y13736460D01*
X31330002Y13791858D01*
X31339728Y13853266D01*
X31383692Y13897230D01*
X31445100Y13906956D01*
X31470281Y13899498D01*
X31594426Y13844225D01*
X31594428Y13844224D01*
X31597362Y13842918D01*
X31599242Y13842081D01*
X31599132Y13841834D01*
X31636184Y13819128D01*
X31853732Y13601580D01*
X31865811Y13595425D01*
X31870923Y13596235D01*
X32093816Y13819128D01*
X32130868Y13841834D01*
X32130758Y13842081D01*
X32132638Y13842918D01*
X32135572Y13844224D01*
X32135574Y13844225D01*
X32259719Y13899498D01*
X32321553Y13905997D01*
X32375397Y13874909D01*
X32400686Y13818110D01*
X32387759Y13757295D01*
X32371772Y13736460D01*
X32056580Y13421268D01*
X32050425Y13409189D01*
X32051235Y13404077D01*
X32505697Y12949615D01*
X32517762Y12943468D01*
X32524147Y12949156D01*
X32581501Y13035482D01*
X32586613Y13045429D01*
X32646670Y13203528D01*
X32649451Y13214358D01*
X32673331Y13384274D01*
X32673816Y13390577D01*
X32674043Y13406835D01*
X32673734Y13413144D01*
X32654608Y13583660D01*
X32652130Y13594567D01*
X32596512Y13754279D01*
X32591678Y13764369D01*
X32526287Y13869016D01*
X32505518Y13886443D01*
X32471774Y13900077D01*
X32438828Y13952804D01*
X32443166Y14014827D01*
X32461678Y14044452D01*
X32560764Y14154498D01*
X32650659Y14310202D01*
X32706218Y14481194D01*
X32725011Y14660000D01*
X32706218Y14838806D01*
X32650659Y15009798D01*
X32560764Y15165502D01*
X32513778Y15217685D01*
X32488489Y15274484D01*
X32501416Y15335300D01*
X32513778Y15352315D01*
X32557237Y15400581D01*
X32560764Y15404498D01*
X32650659Y15560202D01*
X32706218Y15731194D01*
X32725011Y15910000D01*
X32706218Y16088806D01*
X32650659Y16259798D01*
X32560764Y16415502D01*
X32440460Y16549113D01*
X32295006Y16654791D01*
X32130758Y16727919D01*
X32125608Y16729014D01*
X32125607Y16729014D01*
X31960050Y16764205D01*
X31960045Y16764206D01*
X31954896Y16765300D01*
X31775104Y16765300D01*
X31769955Y16764206D01*
X31769950Y16764205D01*
X31604393Y16729014D01*
X31604392Y16729014D01*
X31599242Y16727919D01*
X31434995Y16654791D01*
X31289540Y16549113D01*
X31169236Y16415502D01*
X31079341Y16259798D01*
X31023782Y16088806D01*
X31004989Y15910000D01*
X31023782Y15731194D01*
X31079341Y15560202D01*
X31169236Y15404498D01*
X31172763Y15400581D01*
X31216222Y15352315D01*
X31241511Y15295516D01*
X31228584Y15234700D01*
X31216222Y15217685D01*
X31169236Y15165502D01*
X31079341Y15009798D01*
X31023782Y14838806D01*
X31004989Y14660000D01*
X27930300Y14660000D01*
X27930300Y30768480D01*
X27930997Y30780305D01*
X27934063Y30806204D01*
X27934063Y30806207D01*
X27934946Y30813668D01*
X27924814Y30869143D01*
X27924299Y30872239D01*
X27922853Y30881859D01*
X27915923Y30927955D01*
X27912938Y30934171D01*
X27911699Y30940956D01*
X27908234Y30947626D01*
X27908231Y30947635D01*
X27885702Y30991003D01*
X27884289Y30993831D01*
X27863169Y31037814D01*
X27863168Y31037815D01*
X27859912Y31044596D01*
X27855820Y31049023D01*
X27854695Y31050693D01*
X27852052Y31055780D01*
X27847930Y31060606D01*
X27812066Y31096470D01*
X27809328Y31099318D01*
X27777187Y31134089D01*
X27777185Y31134091D01*
X27772081Y31139612D01*
X27766223Y31143014D01*
X27759495Y31149041D01*
X26076554Y32831982D01*
X26068686Y32840836D01*
X26052544Y32861312D01*
X26047888Y32867218D01*
X26001481Y32899292D01*
X25998988Y32901073D01*
X25953624Y32934580D01*
X25947117Y32936865D01*
X25941444Y32940786D01*
X25894906Y32955504D01*
X25887702Y32957782D01*
X25884705Y32958782D01*
X25831541Y32977452D01*
X25825517Y32977689D01*
X25823536Y32978075D01*
X25818074Y32979802D01*
X25811747Y32980300D01*
X25761020Y32980300D01*
X25757070Y32980378D01*
X25709766Y32982237D01*
X25709763Y32982237D01*
X25702248Y32982532D01*
X25695700Y32980796D01*
X25686684Y32980300D01*
X25140339Y32980300D01*
X25081208Y32999513D01*
X25044663Y33049813D01*
X25044663Y33111987D01*
X25046999Y33118423D01*
X25084009Y33210487D01*
X25086271Y33216114D01*
X25110324Y33385121D01*
X25110480Y33400000D01*
X25098147Y33501911D01*
X25102101Y33544332D01*
X25107783Y33562298D01*
X25108782Y33565294D01*
X25113727Y33579377D01*
X25117147Y33589115D01*
X25154867Y33638541D01*
X25214434Y33656356D01*
X25258278Y33641538D01*
X25259575Y33644083D01*
X25366545Y33589579D01*
X25381423Y33584745D01*
X25464294Y33571619D01*
X25472162Y33571000D01*
X25506567Y33571000D01*
X25519457Y33575188D01*
X25522500Y33579377D01*
X25522500Y33586934D01*
X25777500Y33586934D01*
X25781688Y33574044D01*
X25785877Y33571001D01*
X25827844Y33571001D01*
X25835693Y33571618D01*
X25918578Y33584745D01*
X25933457Y33589580D01*
X26033369Y33640488D01*
X26046024Y33649682D01*
X26125318Y33728976D01*
X26134512Y33741631D01*
X26185421Y33841545D01*
X26190255Y33856423D01*
X26203381Y33939294D01*
X26204000Y33947162D01*
X26204000Y34419067D01*
X26199812Y34431957D01*
X26195623Y34435000D01*
X25793433Y34435000D01*
X25780543Y34430812D01*
X25777500Y34426623D01*
X25777500Y33586934D01*
X25522500Y33586934D01*
X25522500Y34705933D01*
X25777500Y34705933D01*
X25781688Y34693043D01*
X25785877Y34690000D01*
X26188066Y34690000D01*
X26200956Y34694188D01*
X26203999Y34698377D01*
X26203999Y35177844D01*
X26203382Y35185693D01*
X26190255Y35268578D01*
X26185420Y35283457D01*
X26134512Y35383369D01*
X26125318Y35396024D01*
X26046024Y35475318D01*
X26033369Y35484512D01*
X25933455Y35535421D01*
X25918577Y35540255D01*
X25835706Y35553381D01*
X25827838Y35554000D01*
X25793433Y35554000D01*
X25780543Y35549812D01*
X25777500Y35545623D01*
X25777500Y34705933D01*
X25522500Y34705933D01*
X25522500Y35538066D01*
X25518312Y35550956D01*
X25514123Y35553999D01*
X25472156Y35553999D01*
X25464310Y35553382D01*
X25381043Y35540194D01*
X25319634Y35549921D01*
X25275671Y35593885D01*
X25265945Y35655294D01*
X25270386Y35672879D01*
X25291405Y35732735D01*
X25329123Y35782157D01*
X25386321Y35800000D01*
X30158330Y35800000D01*
X30217461Y35780787D01*
G37*
%TD.AperFunction*%
%TD*%
M02*
