%TF.GenerationSoftware,KiCad,Pcbnew,(6.0.5-0)*%
%TF.CreationDate,2022-07-07T00:21:25-07:00*%
%TF.ProjectId,gigablox-nano-rvp,67696761-626c-46f7-982d-6e616e6f2d72,rev?*%
%TF.SameCoordinates,PX5a1f4a0PY3e77360*%
%TF.FileFunction,Copper,L2,Bot*%
%TF.FilePolarity,Positive*%
%FSLAX46Y46*%
G04 Gerber Fmt 4.6, Leading zero omitted, Abs format (unit mm)*
G04 Created by KiCad (PCBNEW (6.0.5-0)) date 2022-07-07 00:21:25*
%MOMM*%
%LPD*%
G01*
G04 APERTURE LIST*
%ADD10C,0.150000*%
%TA.AperFunction,NonConductor*%
%ADD11C,0.150000*%
%TD*%
%TA.AperFunction,EtchedComponent*%
%ADD12C,0.010000*%
%TD*%
%TA.AperFunction,ComponentPad*%
%ADD13C,1.650000*%
%TD*%
%TA.AperFunction,ComponentPad*%
%ADD14R,1.600000X1.600000*%
%TD*%
%TA.AperFunction,ComponentPad*%
%ADD15C,1.600000*%
%TD*%
%TA.AperFunction,ComponentPad*%
%ADD16C,1.100000*%
%TD*%
%TA.AperFunction,ComponentPad*%
%ADD17R,1.700000X1.700000*%
%TD*%
%TA.AperFunction,ComponentPad*%
%ADD18O,1.700000X1.700000*%
%TD*%
%TA.AperFunction,ViaPad*%
%ADD19C,0.800000*%
%TD*%
%TA.AperFunction,Conductor*%
%ADD20C,0.250000*%
%TD*%
G04 APERTURE END LIST*
D10*
D11*
X26471428Y42852381D02*
X26471428Y42185715D01*
X26471428Y41852381D02*
X26430952Y41900000D01*
X26471428Y41947620D01*
X26511904Y41900000D01*
X26471428Y41852381D01*
X26471428Y41947620D01*
X26876190Y42852381D02*
X26876190Y41852381D01*
X27240476Y42852381D02*
X27240476Y42328572D01*
X27200000Y42233334D01*
X27119047Y42185715D01*
X26997619Y42185715D01*
X26916666Y42233334D01*
X26876190Y42280953D01*
X28009523Y42852381D02*
X28009523Y42328572D01*
X27969047Y42233334D01*
X27888095Y42185715D01*
X27726190Y42185715D01*
X27645238Y42233334D01*
X28009523Y42804762D02*
X27928571Y42852381D01*
X27726190Y42852381D01*
X27645238Y42804762D01*
X27604761Y42709524D01*
X27604761Y42614286D01*
X27645238Y42519048D01*
X27726190Y42471429D01*
X27928571Y42471429D01*
X28009523Y42423810D01*
X28414285Y42852381D02*
X28414285Y42185715D01*
X28414285Y42376191D02*
X28454761Y42280953D01*
X28495238Y42233334D01*
X28576190Y42185715D01*
X28657142Y42185715D01*
X28819047Y42185715D02*
X29142857Y42185715D01*
X28940476Y41852381D02*
X28940476Y42709524D01*
X28980952Y42804762D01*
X29061904Y42852381D01*
X29142857Y42852381D01*
X29345238Y42185715D02*
X29507142Y42852381D01*
X29669047Y42376191D01*
X29830952Y42852381D01*
X29992857Y42185715D01*
X30316666Y42852381D02*
X30316666Y42185715D01*
X30316666Y41852381D02*
X30276190Y41900000D01*
X30316666Y41947620D01*
X30357142Y41900000D01*
X30316666Y41852381D01*
X30316666Y41947620D01*
X31085714Y42185715D02*
X31085714Y42995239D01*
X31045238Y43090477D01*
X31004761Y43138096D01*
X30923809Y43185715D01*
X30802380Y43185715D01*
X30721428Y43138096D01*
X31085714Y42804762D02*
X31004761Y42852381D01*
X30842857Y42852381D01*
X30761904Y42804762D01*
X30721428Y42757143D01*
X30680952Y42661905D01*
X30680952Y42376191D01*
X30721428Y42280953D01*
X30761904Y42233334D01*
X30842857Y42185715D01*
X31004761Y42185715D01*
X31085714Y42233334D01*
X32016666Y42376191D02*
X31976190Y42328572D01*
X31895238Y42280953D01*
X31814285Y42280953D01*
X31733333Y42328572D01*
X31692857Y42376191D01*
X31652380Y42471429D01*
X31652380Y42566667D01*
X31692857Y42661905D01*
X31733333Y42709524D01*
X31814285Y42757143D01*
X31895238Y42757143D01*
X31976190Y42709524D01*
X32016666Y42661905D01*
X32016666Y42280953D02*
X32016666Y42661905D01*
X32057142Y42709524D01*
X32097619Y42709524D01*
X32178571Y42661905D01*
X32219047Y42566667D01*
X32219047Y42328572D01*
X32138095Y42185715D01*
X32016666Y42090477D01*
X31854761Y42042858D01*
X31692857Y42090477D01*
X31571428Y42185715D01*
X31490476Y42328572D01*
X31450000Y42519048D01*
X31490476Y42709524D01*
X31571428Y42852381D01*
X31692857Y42947620D01*
X31854761Y42995239D01*
X32016666Y42947620D01*
X32138095Y42852381D01*
X33230952Y42852381D02*
X33230952Y41852381D01*
X33635714Y42852381D02*
X33635714Y42185715D01*
X33635714Y42376191D02*
X33676190Y42280953D01*
X33716666Y42233334D01*
X33797619Y42185715D01*
X33878571Y42185715D01*
X34283333Y42852381D02*
X34202380Y42804762D01*
X34161904Y42757143D01*
X34121428Y42661905D01*
X34121428Y42376191D01*
X34161904Y42280953D01*
X34202380Y42233334D01*
X34283333Y42185715D01*
X34404761Y42185715D01*
X34485714Y42233334D01*
X34526190Y42280953D01*
X34566666Y42376191D01*
X34566666Y42661905D01*
X34526190Y42757143D01*
X34485714Y42804762D01*
X34404761Y42852381D01*
X34283333Y42852381D01*
X34930952Y42185715D02*
X34930952Y42852381D01*
X34930952Y42280953D02*
X34971428Y42233334D01*
X35052380Y42185715D01*
X35173809Y42185715D01*
X35254761Y42233334D01*
X35295238Y42328572D01*
X35295238Y42852381D01*
X36347619Y42852381D02*
X36347619Y41852381D01*
X36671428Y41852381D01*
X36752380Y41900000D01*
X36792857Y41947620D01*
X36833333Y42042858D01*
X36833333Y42185715D01*
X36792857Y42280953D01*
X36752380Y42328572D01*
X36671428Y42376191D01*
X36347619Y42376191D01*
X37561904Y42852381D02*
X37561904Y42328572D01*
X37521428Y42233334D01*
X37440476Y42185715D01*
X37278571Y42185715D01*
X37197619Y42233334D01*
X37561904Y42804762D02*
X37480952Y42852381D01*
X37278571Y42852381D01*
X37197619Y42804762D01*
X37157142Y42709524D01*
X37157142Y42614286D01*
X37197619Y42519048D01*
X37278571Y42471429D01*
X37480952Y42471429D01*
X37561904Y42423810D01*
X37966666Y42185715D02*
X37966666Y42852381D01*
X37966666Y42280953D02*
X38007142Y42233334D01*
X38088095Y42185715D01*
X38209523Y42185715D01*
X38290476Y42233334D01*
X38330952Y42328572D01*
X38330952Y42852381D01*
X38614285Y42185715D02*
X38938095Y42185715D01*
X38735714Y41852381D02*
X38735714Y42709524D01*
X38776190Y42804762D01*
X38857142Y42852381D01*
X38938095Y42852381D01*
X39221428Y42852381D02*
X39221428Y41852381D01*
X39585714Y42852381D02*
X39585714Y42328572D01*
X39545238Y42233334D01*
X39464285Y42185715D01*
X39342857Y42185715D01*
X39261904Y42233334D01*
X39221428Y42280953D01*
X40314285Y42804762D02*
X40233333Y42852381D01*
X40071428Y42852381D01*
X39990476Y42804762D01*
X39950000Y42709524D01*
X39950000Y42328572D01*
X39990476Y42233334D01*
X40071428Y42185715D01*
X40233333Y42185715D01*
X40314285Y42233334D01*
X40354761Y42328572D01*
X40354761Y42423810D01*
X39950000Y42519048D01*
X40719047Y42852381D02*
X40719047Y42185715D01*
X40719047Y42376191D02*
X40759523Y42280953D01*
X40800000Y42233334D01*
X40880952Y42185715D01*
X40961904Y42185715D01*
X41204761Y42804762D02*
X41285714Y42852381D01*
X41447619Y42852381D01*
X41528571Y42804762D01*
X41569047Y42709524D01*
X41569047Y42661905D01*
X41528571Y42566667D01*
X41447619Y42519048D01*
X41326190Y42519048D01*
X41245238Y42471429D01*
X41204761Y42376191D01*
X41204761Y42328572D01*
X41245238Y42233334D01*
X41326190Y42185715D01*
X41447619Y42185715D01*
X41528571Y42233334D01*
D10*
D11*
X41900000Y41291667D02*
X41852380Y41372620D01*
X41852380Y41494048D01*
X41900000Y41615477D01*
X41995238Y41696429D01*
X42090476Y41736905D01*
X42280952Y41777381D01*
X42423809Y41777381D01*
X42614285Y41736905D01*
X42709523Y41696429D01*
X42804761Y41615477D01*
X42852380Y41494048D01*
X42852380Y41413096D01*
X42804761Y41291667D01*
X42757142Y41251191D01*
X42423809Y41251191D01*
X42423809Y41413096D01*
X42852380Y40886905D02*
X42185714Y40886905D01*
X41852380Y40886905D02*
X41900000Y40927381D01*
X41947619Y40886905D01*
X41900000Y40846429D01*
X41852380Y40886905D01*
X41947619Y40886905D01*
X42185714Y40117858D02*
X42995238Y40117858D01*
X43090476Y40158334D01*
X43138095Y40198810D01*
X43185714Y40279762D01*
X43185714Y40401191D01*
X43138095Y40482143D01*
X42804761Y40117858D02*
X42852380Y40198810D01*
X42852380Y40360715D01*
X42804761Y40441667D01*
X42757142Y40482143D01*
X42661904Y40522620D01*
X42376190Y40522620D01*
X42280952Y40482143D01*
X42233333Y40441667D01*
X42185714Y40360715D01*
X42185714Y40198810D01*
X42233333Y40117858D01*
X42852380Y39348810D02*
X42328571Y39348810D01*
X42233333Y39389286D01*
X42185714Y39470239D01*
X42185714Y39632143D01*
X42233333Y39713096D01*
X42804761Y39348810D02*
X42852380Y39429762D01*
X42852380Y39632143D01*
X42804761Y39713096D01*
X42709523Y39753572D01*
X42614285Y39753572D01*
X42519047Y39713096D01*
X42471428Y39632143D01*
X42471428Y39429762D01*
X42423809Y39348810D01*
X42852380Y38944048D02*
X41852380Y38944048D01*
X42233333Y38944048D02*
X42185714Y38863096D01*
X42185714Y38701191D01*
X42233333Y38620239D01*
X42280952Y38579762D01*
X42376190Y38539286D01*
X42661904Y38539286D01*
X42757142Y38579762D01*
X42804761Y38620239D01*
X42852380Y38701191D01*
X42852380Y38863096D01*
X42804761Y38944048D01*
X42852380Y38053572D02*
X42804761Y38134524D01*
X42709523Y38175000D01*
X41852380Y38175000D01*
X42852380Y37608334D02*
X42804761Y37689286D01*
X42757142Y37729762D01*
X42661904Y37770239D01*
X42376190Y37770239D01*
X42280952Y37729762D01*
X42233333Y37689286D01*
X42185714Y37608334D01*
X42185714Y37486905D01*
X42233333Y37405953D01*
X42280952Y37365477D01*
X42376190Y37325000D01*
X42661904Y37325000D01*
X42757142Y37365477D01*
X42804761Y37405953D01*
X42852380Y37486905D01*
X42852380Y37608334D01*
X42852380Y37041667D02*
X42185714Y36596429D01*
X42185714Y37041667D02*
X42852380Y36596429D01*
X42852380Y35625000D02*
X41852380Y35625000D01*
X42852380Y35139286D01*
X41852380Y35139286D01*
X42852380Y34370239D02*
X42328571Y34370239D01*
X42233333Y34410715D01*
X42185714Y34491667D01*
X42185714Y34653572D01*
X42233333Y34734524D01*
X42804761Y34370239D02*
X42852380Y34451191D01*
X42852380Y34653572D01*
X42804761Y34734524D01*
X42709523Y34775000D01*
X42614285Y34775000D01*
X42519047Y34734524D01*
X42471428Y34653572D01*
X42471428Y34451191D01*
X42423809Y34370239D01*
X42185714Y33965477D02*
X42852380Y33965477D01*
X42280952Y33965477D02*
X42233333Y33925000D01*
X42185714Y33844048D01*
X42185714Y33722620D01*
X42233333Y33641667D01*
X42328571Y33601191D01*
X42852380Y33601191D01*
X42852380Y33075000D02*
X42804761Y33155953D01*
X42757142Y33196429D01*
X42661904Y33236905D01*
X42376190Y33236905D01*
X42280952Y33196429D01*
X42233333Y33155953D01*
X42185714Y33075000D01*
X42185714Y32953572D01*
X42233333Y32872620D01*
X42280952Y32832143D01*
X42376190Y32791667D01*
X42661904Y32791667D01*
X42757142Y32832143D01*
X42804761Y32872620D01*
X42852380Y32953572D01*
X42852380Y33075000D01*
X42852380Y31294048D02*
X42376190Y31577381D01*
X42852380Y31779762D02*
X41852380Y31779762D01*
X41852380Y31455953D01*
X41900000Y31375000D01*
X41947619Y31334524D01*
X42042857Y31294048D01*
X42185714Y31294048D01*
X42280952Y31334524D01*
X42328571Y31375000D01*
X42376190Y31455953D01*
X42376190Y31779762D01*
X41852380Y31051191D02*
X42852380Y30767858D01*
X41852380Y30484524D01*
X42852380Y30201191D02*
X41852380Y30201191D01*
X41852380Y29877381D01*
X41900000Y29796429D01*
X41947619Y29755953D01*
X42042857Y29715477D01*
X42185714Y29715477D01*
X42280952Y29755953D01*
X42328571Y29796429D01*
X42376190Y29877381D01*
X42376190Y30201191D01*
X42471428Y28703572D02*
X42471428Y28055953D01*
X42852380Y26517858D02*
X42376190Y26801191D01*
X42852380Y27003572D02*
X41852380Y27003572D01*
X41852380Y26679762D01*
X41900000Y26598810D01*
X41947619Y26558334D01*
X42042857Y26517858D01*
X42185714Y26517858D01*
X42280952Y26558334D01*
X42328571Y26598810D01*
X42376190Y26679762D01*
X42376190Y27003572D01*
X42852380Y25708334D02*
X42852380Y26194048D01*
X42852380Y25951191D02*
X41852380Y25951191D01*
X41995238Y26032143D01*
X42090476Y26113096D01*
X42138095Y26194048D01*
X41947619Y24736905D02*
X41900000Y24696429D01*
X41852380Y24615477D01*
X41852380Y24413096D01*
X41900000Y24332143D01*
X41947619Y24291667D01*
X42042857Y24251191D01*
X42138095Y24251191D01*
X42280952Y24291667D01*
X42852380Y24777381D01*
X42852380Y24251191D01*
X41852380Y23725000D02*
X41852380Y23644048D01*
X41900000Y23563096D01*
X41947619Y23522620D01*
X42042857Y23482143D01*
X42233333Y23441667D01*
X42471428Y23441667D01*
X42661904Y23482143D01*
X42757142Y23522620D01*
X42804761Y23563096D01*
X42852380Y23644048D01*
X42852380Y23725000D01*
X42804761Y23805953D01*
X42757142Y23846429D01*
X42661904Y23886905D01*
X42471428Y23927381D01*
X42233333Y23927381D01*
X42042857Y23886905D01*
X41947619Y23846429D01*
X41900000Y23805953D01*
X41852380Y23725000D01*
X41947619Y23117858D02*
X41900000Y23077381D01*
X41852380Y22996429D01*
X41852380Y22794048D01*
X41900000Y22713096D01*
X41947619Y22672620D01*
X42042857Y22632143D01*
X42138095Y22632143D01*
X42280952Y22672620D01*
X42852380Y23158334D01*
X42852380Y22632143D01*
X41947619Y22308334D02*
X41900000Y22267858D01*
X41852380Y22186905D01*
X41852380Y21984524D01*
X41900000Y21903572D01*
X41947619Y21863096D01*
X42042857Y21822620D01*
X42138095Y21822620D01*
X42280952Y21863096D01*
X42852380Y22348810D01*
X42852380Y21822620D01*
%TO.C,G\u002A\u002A\u002A*%
G36*
X28854806Y41104646D02*
G01*
X28865860Y41099003D01*
X28890081Y41083313D01*
X28909849Y41066546D01*
X28913441Y41061385D01*
X28923305Y41045584D01*
X28938813Y41019979D01*
X28959582Y40985229D01*
X28985229Y40941997D01*
X29015369Y40890944D01*
X29049617Y40832732D01*
X29087592Y40768021D01*
X29128908Y40697474D01*
X29173182Y40621751D01*
X29220029Y40541515D01*
X29269067Y40457426D01*
X29319910Y40370145D01*
X29372176Y40280336D01*
X29425480Y40188658D01*
X29479439Y40095774D01*
X29533668Y40002344D01*
X29587783Y39909030D01*
X29641402Y39816494D01*
X29694139Y39725396D01*
X29745612Y39636400D01*
X29795436Y39550165D01*
X29843227Y39467353D01*
X29888601Y39388625D01*
X29931175Y39314644D01*
X29970565Y39246071D01*
X30006386Y39183566D01*
X30038255Y39127792D01*
X30065789Y39079409D01*
X30088602Y39039080D01*
X30106312Y39007465D01*
X30118534Y38985227D01*
X30124885Y38973025D01*
X30131407Y38956183D01*
X30139083Y38917042D01*
X30139077Y38876036D01*
X30131122Y38838886D01*
X30128043Y38832743D01*
X30118805Y38815827D01*
X30103793Y38788949D01*
X30083326Y38752665D01*
X30057721Y38707529D01*
X30027295Y38654097D01*
X29992368Y38592924D01*
X29953256Y38524563D01*
X29910277Y38449572D01*
X29863751Y38368504D01*
X29813993Y38281915D01*
X29761323Y38190360D01*
X29706058Y38094393D01*
X29648515Y37994570D01*
X29589014Y37891446D01*
X29527871Y37785575D01*
X29479856Y37702501D01*
X29401680Y37567376D01*
X29329633Y37443024D01*
X29263616Y37329276D01*
X29203529Y37225965D01*
X29149275Y37132923D01*
X29100754Y37049983D01*
X29057869Y36976976D01*
X29020521Y36913736D01*
X28988610Y36860095D01*
X28962039Y36815884D01*
X28940709Y36780937D01*
X28924522Y36755086D01*
X28913378Y36738163D01*
X28907180Y36730000D01*
X28907078Y36729897D01*
X28878631Y36706919D01*
X28846617Y36690313D01*
X28843807Y36689281D01*
X28839386Y36687825D01*
X28834288Y36686494D01*
X28827969Y36685282D01*
X28819880Y36684185D01*
X28809476Y36683195D01*
X28796210Y36682309D01*
X28779535Y36681520D01*
X28758905Y36680822D01*
X28733773Y36680210D01*
X28703593Y36679678D01*
X28667817Y36679221D01*
X28625901Y36678832D01*
X28577297Y36678507D01*
X28521458Y36678240D01*
X28457838Y36678025D01*
X28385890Y36677856D01*
X28305069Y36677728D01*
X28214826Y36677635D01*
X28114617Y36677571D01*
X28003893Y36677532D01*
X27882109Y36677511D01*
X27748719Y36677502D01*
X27603175Y36677500D01*
X27484327Y36677501D01*
X27348691Y36677507D01*
X27224765Y36677524D01*
X27112003Y36677557D01*
X27009857Y36677613D01*
X26917782Y36677697D01*
X26835229Y36677815D01*
X26761653Y36677972D01*
X26696507Y36678175D01*
X26639244Y36678428D01*
X26589317Y36678739D01*
X26546179Y36679112D01*
X26509284Y36679553D01*
X26478085Y36680069D01*
X26452035Y36680664D01*
X26430587Y36681345D01*
X26413195Y36682117D01*
X26399312Y36682986D01*
X26388391Y36683957D01*
X26379885Y36685037D01*
X26373247Y36686232D01*
X26367932Y36687546D01*
X26363391Y36688986D01*
X26359079Y36690557D01*
X26348467Y36694928D01*
X26320941Y36711513D01*
X26294682Y36736595D01*
X26291198Y36741126D01*
X26280361Y36757431D01*
X26263473Y36784419D01*
X26240516Y36822122D01*
X26211472Y36870569D01*
X26176325Y36929791D01*
X26135056Y36999819D01*
X26087647Y37080681D01*
X26034080Y37172410D01*
X25974338Y37275035D01*
X25908403Y37388586D01*
X25836257Y37513094D01*
X25757883Y37648588D01*
X25673262Y37795100D01*
X25622386Y37883275D01*
X25562775Y37986673D01*
X25505082Y38086833D01*
X25449622Y38183202D01*
X25396715Y38275225D01*
X25346676Y38362349D01*
X25299823Y38444018D01*
X25256473Y38519680D01*
X25216943Y38588780D01*
X25181551Y38650764D01*
X25150614Y38705079D01*
X25124448Y38751169D01*
X25103371Y38788482D01*
X25087700Y38816462D01*
X25077753Y38834556D01*
X25073846Y38842211D01*
X25068751Y38865727D01*
X25067519Y38887300D01*
X25711421Y38887300D01*
X25711590Y38860891D01*
X25713228Y38785446D01*
X25716834Y38718223D01*
X25722777Y38655897D01*
X25731426Y38595140D01*
X25743152Y38532625D01*
X25758322Y38465025D01*
X25782194Y38374891D01*
X25830760Y38230065D01*
X25890265Y38090763D01*
X25960201Y37957502D01*
X26040064Y37830799D01*
X26129346Y37711172D01*
X26227543Y37599137D01*
X26334148Y37495212D01*
X26448654Y37399914D01*
X26570557Y37313760D01*
X26699351Y37237268D01*
X26834528Y37170955D01*
X26975583Y37115339D01*
X27122011Y37070935D01*
X27180780Y37056613D01*
X27282025Y37036643D01*
X27383659Y37022976D01*
X27489451Y37015157D01*
X27603175Y37012728D01*
X27603510Y37012728D01*
X27692673Y37014772D01*
X27781920Y37020492D01*
X27868730Y37029571D01*
X27950579Y37041693D01*
X28024945Y37056540D01*
X28089308Y37073795D01*
X28097829Y37076627D01*
X28102708Y37079050D01*
X28101232Y37080757D01*
X28092132Y37081897D01*
X28074140Y37082615D01*
X28045985Y37083058D01*
X28006400Y37083373D01*
X27929460Y37084898D01*
X27790574Y37092940D01*
X27656170Y37107554D01*
X27527001Y37128488D01*
X27403825Y37155491D01*
X27287395Y37188313D01*
X27178468Y37226701D01*
X27077797Y37270407D01*
X26986139Y37319177D01*
X26904248Y37372762D01*
X26832881Y37430910D01*
X26772791Y37493370D01*
X26748212Y37524081D01*
X26726399Y37554911D01*
X26711372Y37580672D01*
X26703634Y37600339D01*
X26703687Y37612890D01*
X26712031Y37617300D01*
X26715921Y37615622D01*
X26728317Y37607327D01*
X26746378Y37593664D01*
X26767703Y37576398D01*
X26800199Y37550629D01*
X26886569Y37492887D01*
X26983763Y37441782D01*
X27091782Y37397313D01*
X27210627Y37359480D01*
X27340298Y37328282D01*
X27480796Y37303719D01*
X27632122Y37285791D01*
X27794276Y37274498D01*
X27838079Y37272839D01*
X27910525Y37271711D01*
X27984126Y37272345D01*
X28056123Y37274639D01*
X28123759Y37278495D01*
X28184274Y37283811D01*
X28234911Y37290487D01*
X28266421Y37296040D01*
X28350804Y37314356D01*
X28438526Y37337863D01*
X28527300Y37365710D01*
X28614836Y37397048D01*
X28698847Y37431025D01*
X28777046Y37466791D01*
X28847143Y37503495D01*
X28906851Y37540287D01*
X28931341Y37559180D01*
X28966646Y37592074D01*
X29005575Y37633490D01*
X29046939Y37681863D01*
X29089545Y37735626D01*
X29132205Y37793215D01*
X29173728Y37853063D01*
X29212922Y37913604D01*
X29248598Y37973274D01*
X29279566Y38030505D01*
X29282496Y38036285D01*
X29300720Y38072974D01*
X29317943Y38108826D01*
X29333383Y38142089D01*
X29346256Y38171010D01*
X29355781Y38193836D01*
X29361173Y38208817D01*
X29361651Y38214200D01*
X29361411Y38214099D01*
X29356121Y38207768D01*
X29345576Y38193030D01*
X29331179Y38171896D01*
X29314333Y38146375D01*
X29311110Y38141449D01*
X29257536Y38066316D01*
X29201453Y37999653D01*
X29144615Y37943556D01*
X29045509Y37861812D01*
X28929965Y37780737D01*
X28809777Y37711133D01*
X28684311Y37652707D01*
X28552936Y37605170D01*
X28415018Y37568231D01*
X28269925Y37541599D01*
X28194069Y37531988D01*
X28046378Y37520835D01*
X27897578Y37519154D01*
X27749231Y37526744D01*
X27602897Y37543402D01*
X27460135Y37568927D01*
X27322506Y37603119D01*
X27191570Y37645775D01*
X27068887Y37696694D01*
X27062967Y37699475D01*
X27017072Y37722691D01*
X26975575Y37746530D01*
X26939499Y37770151D01*
X26909865Y37792710D01*
X26887697Y37813366D01*
X26874017Y37831277D01*
X26869845Y37845599D01*
X26876205Y37855491D01*
X26883153Y37855131D01*
X26899679Y37850826D01*
X26922961Y37843186D01*
X26950381Y37833004D01*
X26969772Y37825649D01*
X27061992Y37795902D01*
X27164465Y37770588D01*
X27275748Y37749983D01*
X27394401Y37734364D01*
X27518981Y37724007D01*
X27578524Y37721349D01*
X27696221Y37721039D01*
X27816566Y37726776D01*
X27937700Y37738234D01*
X28057765Y37755088D01*
X28174900Y37777014D01*
X28287248Y37803687D01*
X28392949Y37834782D01*
X28490144Y37869973D01*
X28576976Y37908936D01*
X28584074Y37912530D01*
X28689028Y37971408D01*
X28791109Y38039187D01*
X28889450Y38114818D01*
X28983182Y38197256D01*
X29071435Y38285455D01*
X29153341Y38378366D01*
X29228032Y38474944D01*
X29294638Y38574142D01*
X29352291Y38674913D01*
X29400121Y38776211D01*
X29437262Y38876989D01*
X29462842Y38976200D01*
X29469889Y39014811D01*
X29474624Y39052991D01*
X29475662Y39088260D01*
X29473112Y39125571D01*
X29467081Y39169875D01*
X29457088Y39228352D01*
X29422361Y39382272D01*
X29376375Y39530853D01*
X29319332Y39673710D01*
X29251437Y39810457D01*
X29172893Y39940709D01*
X29083905Y40064079D01*
X28984677Y40180183D01*
X28875413Y40288634D01*
X28844196Y40316593D01*
X28723050Y40414509D01*
X28595550Y40501458D01*
X28461899Y40577344D01*
X28322302Y40642070D01*
X28176964Y40695537D01*
X28026086Y40737650D01*
X27869875Y40768310D01*
X27854111Y40770715D01*
X27826570Y40774455D01*
X27799661Y40777309D01*
X27771160Y40779390D01*
X27738848Y40780811D01*
X27700503Y40781686D01*
X27653902Y40782127D01*
X27596825Y40782249D01*
X27532586Y40781906D01*
X27468320Y40780489D01*
X27411619Y40777689D01*
X27359751Y40773203D01*
X27309984Y40766729D01*
X27259586Y40757966D01*
X27205827Y40746611D01*
X27145975Y40732361D01*
X27111015Y40723354D01*
X26964918Y40677874D01*
X26824298Y40621391D01*
X26689653Y40554424D01*
X26561484Y40477494D01*
X26440291Y40391122D01*
X26326572Y40295826D01*
X26220827Y40192128D01*
X26123556Y40080547D01*
X26035258Y39961603D01*
X25956433Y39835817D01*
X25887580Y39703709D01*
X25829200Y39565798D01*
X25781791Y39422605D01*
X25745853Y39274650D01*
X25742517Y39257805D01*
X25732448Y39203708D01*
X25724702Y39155026D01*
X25719010Y39108745D01*
X25715104Y39061848D01*
X25712715Y39011318D01*
X25711577Y38954141D01*
X25711421Y38887300D01*
X25067519Y38887300D01*
X25066910Y38897958D01*
X25069045Y38930683D01*
X25075093Y38957829D01*
X25075404Y38958606D01*
X25080896Y38969472D01*
X25092315Y38990483D01*
X25109278Y39020978D01*
X25131402Y39060295D01*
X25158303Y39107773D01*
X25189600Y39162752D01*
X25224909Y39224570D01*
X25263847Y39292567D01*
X25306031Y39366080D01*
X25351078Y39444449D01*
X25398606Y39527012D01*
X25448231Y39613109D01*
X25499570Y39702079D01*
X25552240Y39793260D01*
X25605859Y39885991D01*
X25660043Y39979611D01*
X25714410Y40073459D01*
X25768576Y40166874D01*
X25822159Y40259194D01*
X25874775Y40349759D01*
X25926042Y40437908D01*
X25975576Y40522978D01*
X26022995Y40604310D01*
X26067916Y40681242D01*
X26109955Y40753113D01*
X26148730Y40819262D01*
X26183858Y40879027D01*
X26214956Y40931748D01*
X26241641Y40976763D01*
X26263530Y41013412D01*
X26280239Y41041032D01*
X26291387Y41058964D01*
X26296589Y41066546D01*
X26305089Y41074459D01*
X26327902Y41091353D01*
X26351543Y41104646D01*
X26383975Y41119325D01*
X28822375Y41119325D01*
X28854806Y41104646D01*
G37*
D12*
X28854806Y41104646D02*
X28865860Y41099003D01*
X28890081Y41083313D01*
X28909849Y41066546D01*
X28913441Y41061385D01*
X28923305Y41045584D01*
X28938813Y41019979D01*
X28959582Y40985229D01*
X28985229Y40941997D01*
X29015369Y40890944D01*
X29049617Y40832732D01*
X29087592Y40768021D01*
X29128908Y40697474D01*
X29173182Y40621751D01*
X29220029Y40541515D01*
X29269067Y40457426D01*
X29319910Y40370145D01*
X29372176Y40280336D01*
X29425480Y40188658D01*
X29479439Y40095774D01*
X29533668Y40002344D01*
X29587783Y39909030D01*
X29641402Y39816494D01*
X29694139Y39725396D01*
X29745612Y39636400D01*
X29795436Y39550165D01*
X29843227Y39467353D01*
X29888601Y39388625D01*
X29931175Y39314644D01*
X29970565Y39246071D01*
X30006386Y39183566D01*
X30038255Y39127792D01*
X30065789Y39079409D01*
X30088602Y39039080D01*
X30106312Y39007465D01*
X30118534Y38985227D01*
X30124885Y38973025D01*
X30131407Y38956183D01*
X30139083Y38917042D01*
X30139077Y38876036D01*
X30131122Y38838886D01*
X30128043Y38832743D01*
X30118805Y38815827D01*
X30103793Y38788949D01*
X30083326Y38752665D01*
X30057721Y38707529D01*
X30027295Y38654097D01*
X29992368Y38592924D01*
X29953256Y38524563D01*
X29910277Y38449572D01*
X29863751Y38368504D01*
X29813993Y38281915D01*
X29761323Y38190360D01*
X29706058Y38094393D01*
X29648515Y37994570D01*
X29589014Y37891446D01*
X29527871Y37785575D01*
X29479856Y37702501D01*
X29401680Y37567376D01*
X29329633Y37443024D01*
X29263616Y37329276D01*
X29203529Y37225965D01*
X29149275Y37132923D01*
X29100754Y37049983D01*
X29057869Y36976976D01*
X29020521Y36913736D01*
X28988610Y36860095D01*
X28962039Y36815884D01*
X28940709Y36780937D01*
X28924522Y36755086D01*
X28913378Y36738163D01*
X28907180Y36730000D01*
X28907078Y36729897D01*
X28878631Y36706919D01*
X28846617Y36690313D01*
X28843807Y36689281D01*
X28839386Y36687825D01*
X28834288Y36686494D01*
X28827969Y36685282D01*
X28819880Y36684185D01*
X28809476Y36683195D01*
X28796210Y36682309D01*
X28779535Y36681520D01*
X28758905Y36680822D01*
X28733773Y36680210D01*
X28703593Y36679678D01*
X28667817Y36679221D01*
X28625901Y36678832D01*
X28577297Y36678507D01*
X28521458Y36678240D01*
X28457838Y36678025D01*
X28385890Y36677856D01*
X28305069Y36677728D01*
X28214826Y36677635D01*
X28114617Y36677571D01*
X28003893Y36677532D01*
X27882109Y36677511D01*
X27748719Y36677502D01*
X27603175Y36677500D01*
X27484327Y36677501D01*
X27348691Y36677507D01*
X27224765Y36677524D01*
X27112003Y36677557D01*
X27009857Y36677613D01*
X26917782Y36677697D01*
X26835229Y36677815D01*
X26761653Y36677972D01*
X26696507Y36678175D01*
X26639244Y36678428D01*
X26589317Y36678739D01*
X26546179Y36679112D01*
X26509284Y36679553D01*
X26478085Y36680069D01*
X26452035Y36680664D01*
X26430587Y36681345D01*
X26413195Y36682117D01*
X26399312Y36682986D01*
X26388391Y36683957D01*
X26379885Y36685037D01*
X26373247Y36686232D01*
X26367932Y36687546D01*
X26363391Y36688986D01*
X26359079Y36690557D01*
X26348467Y36694928D01*
X26320941Y36711513D01*
X26294682Y36736595D01*
X26291198Y36741126D01*
X26280361Y36757431D01*
X26263473Y36784419D01*
X26240516Y36822122D01*
X26211472Y36870569D01*
X26176325Y36929791D01*
X26135056Y36999819D01*
X26087647Y37080681D01*
X26034080Y37172410D01*
X25974338Y37275035D01*
X25908403Y37388586D01*
X25836257Y37513094D01*
X25757883Y37648588D01*
X25673262Y37795100D01*
X25622386Y37883275D01*
X25562775Y37986673D01*
X25505082Y38086833D01*
X25449622Y38183202D01*
X25396715Y38275225D01*
X25346676Y38362349D01*
X25299823Y38444018D01*
X25256473Y38519680D01*
X25216943Y38588780D01*
X25181551Y38650764D01*
X25150614Y38705079D01*
X25124448Y38751169D01*
X25103371Y38788482D01*
X25087700Y38816462D01*
X25077753Y38834556D01*
X25073846Y38842211D01*
X25068751Y38865727D01*
X25067519Y38887300D01*
X25711421Y38887300D01*
X25711590Y38860891D01*
X25713228Y38785446D01*
X25716834Y38718223D01*
X25722777Y38655897D01*
X25731426Y38595140D01*
X25743152Y38532625D01*
X25758322Y38465025D01*
X25782194Y38374891D01*
X25830760Y38230065D01*
X25890265Y38090763D01*
X25960201Y37957502D01*
X26040064Y37830799D01*
X26129346Y37711172D01*
X26227543Y37599137D01*
X26334148Y37495212D01*
X26448654Y37399914D01*
X26570557Y37313760D01*
X26699351Y37237268D01*
X26834528Y37170955D01*
X26975583Y37115339D01*
X27122011Y37070935D01*
X27180780Y37056613D01*
X27282025Y37036643D01*
X27383659Y37022976D01*
X27489451Y37015157D01*
X27603175Y37012728D01*
X27603510Y37012728D01*
X27692673Y37014772D01*
X27781920Y37020492D01*
X27868730Y37029571D01*
X27950579Y37041693D01*
X28024945Y37056540D01*
X28089308Y37073795D01*
X28097829Y37076627D01*
X28102708Y37079050D01*
X28101232Y37080757D01*
X28092132Y37081897D01*
X28074140Y37082615D01*
X28045985Y37083058D01*
X28006400Y37083373D01*
X27929460Y37084898D01*
X27790574Y37092940D01*
X27656170Y37107554D01*
X27527001Y37128488D01*
X27403825Y37155491D01*
X27287395Y37188313D01*
X27178468Y37226701D01*
X27077797Y37270407D01*
X26986139Y37319177D01*
X26904248Y37372762D01*
X26832881Y37430910D01*
X26772791Y37493370D01*
X26748212Y37524081D01*
X26726399Y37554911D01*
X26711372Y37580672D01*
X26703634Y37600339D01*
X26703687Y37612890D01*
X26712031Y37617300D01*
X26715921Y37615622D01*
X26728317Y37607327D01*
X26746378Y37593664D01*
X26767703Y37576398D01*
X26800199Y37550629D01*
X26886569Y37492887D01*
X26983763Y37441782D01*
X27091782Y37397313D01*
X27210627Y37359480D01*
X27340298Y37328282D01*
X27480796Y37303719D01*
X27632122Y37285791D01*
X27794276Y37274498D01*
X27838079Y37272839D01*
X27910525Y37271711D01*
X27984126Y37272345D01*
X28056123Y37274639D01*
X28123759Y37278495D01*
X28184274Y37283811D01*
X28234911Y37290487D01*
X28266421Y37296040D01*
X28350804Y37314356D01*
X28438526Y37337863D01*
X28527300Y37365710D01*
X28614836Y37397048D01*
X28698847Y37431025D01*
X28777046Y37466791D01*
X28847143Y37503495D01*
X28906851Y37540287D01*
X28931341Y37559180D01*
X28966646Y37592074D01*
X29005575Y37633490D01*
X29046939Y37681863D01*
X29089545Y37735626D01*
X29132205Y37793215D01*
X29173728Y37853063D01*
X29212922Y37913604D01*
X29248598Y37973274D01*
X29279566Y38030505D01*
X29282496Y38036285D01*
X29300720Y38072974D01*
X29317943Y38108826D01*
X29333383Y38142089D01*
X29346256Y38171010D01*
X29355781Y38193836D01*
X29361173Y38208817D01*
X29361651Y38214200D01*
X29361411Y38214099D01*
X29356121Y38207768D01*
X29345576Y38193030D01*
X29331179Y38171896D01*
X29314333Y38146375D01*
X29311110Y38141449D01*
X29257536Y38066316D01*
X29201453Y37999653D01*
X29144615Y37943556D01*
X29045509Y37861812D01*
X28929965Y37780737D01*
X28809777Y37711133D01*
X28684311Y37652707D01*
X28552936Y37605170D01*
X28415018Y37568231D01*
X28269925Y37541599D01*
X28194069Y37531988D01*
X28046378Y37520835D01*
X27897578Y37519154D01*
X27749231Y37526744D01*
X27602897Y37543402D01*
X27460135Y37568927D01*
X27322506Y37603119D01*
X27191570Y37645775D01*
X27068887Y37696694D01*
X27062967Y37699475D01*
X27017072Y37722691D01*
X26975575Y37746530D01*
X26939499Y37770151D01*
X26909865Y37792710D01*
X26887697Y37813366D01*
X26874017Y37831277D01*
X26869845Y37845599D01*
X26876205Y37855491D01*
X26883153Y37855131D01*
X26899679Y37850826D01*
X26922961Y37843186D01*
X26950381Y37833004D01*
X26969772Y37825649D01*
X27061992Y37795902D01*
X27164465Y37770588D01*
X27275748Y37749983D01*
X27394401Y37734364D01*
X27518981Y37724007D01*
X27578524Y37721349D01*
X27696221Y37721039D01*
X27816566Y37726776D01*
X27937700Y37738234D01*
X28057765Y37755088D01*
X28174900Y37777014D01*
X28287248Y37803687D01*
X28392949Y37834782D01*
X28490144Y37869973D01*
X28576976Y37908936D01*
X28584074Y37912530D01*
X28689028Y37971408D01*
X28791109Y38039187D01*
X28889450Y38114818D01*
X28983182Y38197256D01*
X29071435Y38285455D01*
X29153341Y38378366D01*
X29228032Y38474944D01*
X29294638Y38574142D01*
X29352291Y38674913D01*
X29400121Y38776211D01*
X29437262Y38876989D01*
X29462842Y38976200D01*
X29469889Y39014811D01*
X29474624Y39052991D01*
X29475662Y39088260D01*
X29473112Y39125571D01*
X29467081Y39169875D01*
X29457088Y39228352D01*
X29422361Y39382272D01*
X29376375Y39530853D01*
X29319332Y39673710D01*
X29251437Y39810457D01*
X29172893Y39940709D01*
X29083905Y40064079D01*
X28984677Y40180183D01*
X28875413Y40288634D01*
X28844196Y40316593D01*
X28723050Y40414509D01*
X28595550Y40501458D01*
X28461899Y40577344D01*
X28322302Y40642070D01*
X28176964Y40695537D01*
X28026086Y40737650D01*
X27869875Y40768310D01*
X27854111Y40770715D01*
X27826570Y40774455D01*
X27799661Y40777309D01*
X27771160Y40779390D01*
X27738848Y40780811D01*
X27700503Y40781686D01*
X27653902Y40782127D01*
X27596825Y40782249D01*
X27532586Y40781906D01*
X27468320Y40780489D01*
X27411619Y40777689D01*
X27359751Y40773203D01*
X27309984Y40766729D01*
X27259586Y40757966D01*
X27205827Y40746611D01*
X27145975Y40732361D01*
X27111015Y40723354D01*
X26964918Y40677874D01*
X26824298Y40621391D01*
X26689653Y40554424D01*
X26561484Y40477494D01*
X26440291Y40391122D01*
X26326572Y40295826D01*
X26220827Y40192128D01*
X26123556Y40080547D01*
X26035258Y39961603D01*
X25956433Y39835817D01*
X25887580Y39703709D01*
X25829200Y39565798D01*
X25781791Y39422605D01*
X25745853Y39274650D01*
X25742517Y39257805D01*
X25732448Y39203708D01*
X25724702Y39155026D01*
X25719010Y39108745D01*
X25715104Y39061848D01*
X25712715Y39011318D01*
X25711577Y38954141D01*
X25711421Y38887300D01*
X25067519Y38887300D01*
X25066910Y38897958D01*
X25069045Y38930683D01*
X25075093Y38957829D01*
X25075404Y38958606D01*
X25080896Y38969472D01*
X25092315Y38990483D01*
X25109278Y39020978D01*
X25131402Y39060295D01*
X25158303Y39107773D01*
X25189600Y39162752D01*
X25224909Y39224570D01*
X25263847Y39292567D01*
X25306031Y39366080D01*
X25351078Y39444449D01*
X25398606Y39527012D01*
X25448231Y39613109D01*
X25499570Y39702079D01*
X25552240Y39793260D01*
X25605859Y39885991D01*
X25660043Y39979611D01*
X25714410Y40073459D01*
X25768576Y40166874D01*
X25822159Y40259194D01*
X25874775Y40349759D01*
X25926042Y40437908D01*
X25975576Y40522978D01*
X26022995Y40604310D01*
X26067916Y40681242D01*
X26109955Y40753113D01*
X26148730Y40819262D01*
X26183858Y40879027D01*
X26214956Y40931748D01*
X26241641Y40976763D01*
X26263530Y41013412D01*
X26280239Y41041032D01*
X26291387Y41058964D01*
X26296589Y41066546D01*
X26305089Y41074459D01*
X26327902Y41091353D01*
X26351543Y41104646D01*
X26383975Y41119325D01*
X28822375Y41119325D01*
X28854806Y41104646D01*
G36*
X27556564Y40670312D02*
G01*
X27582589Y40663687D01*
X27629194Y40644067D01*
X27678895Y40614591D01*
X27730325Y40576318D01*
X27782118Y40530303D01*
X27832907Y40477603D01*
X27881326Y40419273D01*
X27891538Y40405684D01*
X27910661Y40376757D01*
X27922497Y40351141D01*
X27928519Y40325087D01*
X27930200Y40294848D01*
X27930205Y40289949D01*
X27930747Y40272025D01*
X27933248Y40258327D01*
X27939215Y40245330D01*
X27950152Y40229507D01*
X27967565Y40207332D01*
X27977301Y40194950D01*
X28002818Y40160541D01*
X28023029Y40130221D01*
X28037145Y40105336D01*
X28044377Y40087229D01*
X28043936Y40077246D01*
X28040505Y40075022D01*
X28030880Y40075386D01*
X28014264Y40080905D01*
X27988623Y40092128D01*
X27978628Y40096557D01*
X27952032Y40106724D01*
X27926881Y40114333D01*
X27905740Y40118794D01*
X27891175Y40119513D01*
X27885750Y40115898D01*
X27886467Y40113717D01*
X27892376Y40102494D01*
X27902960Y40084585D01*
X27916654Y40062685D01*
X27945792Y40014637D01*
X27976976Y39954229D01*
X28001568Y39893775D01*
X28010482Y39867717D01*
X28019033Y39838134D01*
X28022519Y39816940D01*
X28021184Y39802314D01*
X28015276Y39792435D01*
X28011098Y39788495D01*
X28005748Y39785518D01*
X27998859Y39785718D01*
X27988631Y39789878D01*
X27973267Y39798781D01*
X27950966Y39813210D01*
X27919930Y39833950D01*
X27908553Y39841495D01*
X27863261Y39869752D01*
X27821758Y39892829D01*
X27785995Y39909697D01*
X27757924Y39919328D01*
X27757620Y39919400D01*
X27748132Y39920381D01*
X27740216Y39916628D01*
X27731334Y39905995D01*
X27718953Y39886335D01*
X27699790Y39853304D01*
X27675308Y39805062D01*
X27659003Y39762493D01*
X27650326Y39723595D01*
X27648726Y39686366D01*
X27653652Y39648804D01*
X27668165Y39598111D01*
X27694298Y39540431D01*
X27728832Y39486216D01*
X27770327Y39436771D01*
X27817343Y39393397D01*
X27868438Y39357399D01*
X27922173Y39330080D01*
X27977107Y39312742D01*
X28031800Y39306690D01*
X28091194Y39311176D01*
X28146309Y39325762D01*
X28194901Y39350916D01*
X28237843Y39387094D01*
X28276007Y39434757D01*
X28298021Y39467445D01*
X28277623Y39505750D01*
X28269487Y39520103D01*
X28253336Y39546360D01*
X28234110Y39575891D01*
X28214416Y39604615D01*
X28204314Y39619000D01*
X28187511Y39643845D01*
X28177276Y39661094D01*
X28172829Y39672464D01*
X28173391Y39679672D01*
X28178184Y39684432D01*
X28181017Y39685224D01*
X28194679Y39682398D01*
X28215632Y39673216D01*
X28241894Y39658736D01*
X28271484Y39640015D01*
X28302420Y39618113D01*
X28316509Y39607743D01*
X28335580Y39594317D01*
X28349131Y39585562D01*
X28354882Y39583004D01*
X28354483Y39585904D01*
X28349946Y39598193D01*
X28341575Y39617689D01*
X28330434Y39641832D01*
X28323553Y39656888D01*
X28313773Y39680814D01*
X28307504Y39699672D01*
X28305867Y39710333D01*
X28312701Y39721140D01*
X28327763Y39723296D01*
X28351330Y39716660D01*
X28383700Y39701198D01*
X28430472Y39675970D01*
X28467673Y39694889D01*
X28481788Y39701772D01*
X28501752Y39709208D01*
X28521369Y39712015D01*
X28547091Y39711546D01*
X28551026Y39711314D01*
X28573300Y39708795D01*
X28594339Y39703532D01*
X28618183Y39694258D01*
X28648875Y39679712D01*
X28663748Y39672091D01*
X28734987Y39629460D01*
X28806072Y39577508D01*
X28874148Y39518661D01*
X28936359Y39455346D01*
X28989851Y39389988D01*
X29001425Y39373865D01*
X29015526Y39352995D01*
X29025174Y39337143D01*
X29028750Y39328853D01*
X29028249Y39324739D01*
X29023481Y39317486D01*
X29012069Y39310794D01*
X28992067Y39303691D01*
X28961532Y39295202D01*
X28913902Y39280994D01*
X28837689Y39250391D01*
X28767282Y39212171D01*
X28704290Y39167389D01*
X28650321Y39117100D01*
X28606982Y39062360D01*
X28602658Y39055567D01*
X28585718Y39025278D01*
X28566820Y38986971D01*
X28547365Y38943842D01*
X28528752Y38899083D01*
X28512381Y38855888D01*
X28499652Y38817450D01*
X28490947Y38787530D01*
X28480653Y38747866D01*
X28473774Y38712799D01*
X28469696Y38678013D01*
X28467803Y38639194D01*
X28467478Y38592025D01*
X28467550Y38580674D01*
X28468236Y38542664D01*
X28469855Y38512836D01*
X28472792Y38487591D01*
X28477433Y38463329D01*
X28484165Y38436450D01*
X28500394Y38376125D01*
X28483584Y38358019D01*
X28479009Y38353211D01*
X28448637Y38324951D01*
X28409263Y38292817D01*
X28362931Y38258197D01*
X28311687Y38222482D01*
X28257574Y38187058D01*
X28202638Y38153316D01*
X28148923Y38122645D01*
X28098475Y38096432D01*
X28091512Y38093045D01*
X28015190Y38058121D01*
X27944140Y38030171D01*
X27874512Y38007805D01*
X27802458Y37989635D01*
X27790549Y37987062D01*
X27689544Y37970457D01*
X27586980Y37962421D01*
X27484584Y37962744D01*
X27384080Y37971219D01*
X27287197Y37987636D01*
X27195661Y38011787D01*
X27111197Y38043461D01*
X27035533Y38082451D01*
X27034299Y38083196D01*
X27009258Y38099876D01*
X26995267Y38113290D01*
X26991509Y38124555D01*
X26997165Y38134788D01*
X27000438Y38137771D01*
X27007939Y38141167D01*
X27019207Y38140225D01*
X27038333Y38134963D01*
X27041029Y38134150D01*
X27107506Y38116962D01*
X27180170Y38102950D01*
X27255467Y38092519D01*
X27329843Y38086074D01*
X27399742Y38084019D01*
X27461609Y38086760D01*
X27471986Y38087772D01*
X27543052Y38097690D01*
X27607834Y38112837D01*
X27668983Y38134287D01*
X27729155Y38163118D01*
X27791001Y38200406D01*
X27857175Y38247227D01*
X27868508Y38255765D01*
X27936614Y38308832D01*
X27994729Y38357672D01*
X28044045Y38403532D01*
X28085753Y38447661D01*
X28121048Y38491307D01*
X28151121Y38535719D01*
X28177165Y38582144D01*
X28178778Y38585338D01*
X28191370Y38611785D01*
X28207071Y38646697D01*
X28224609Y38687151D01*
X28242715Y38730227D01*
X28260118Y38773000D01*
X28281913Y38826749D01*
X28313634Y38901210D01*
X28343579Y38966053D01*
X28372702Y39022883D01*
X28401955Y39073303D01*
X28432291Y39118917D01*
X28464663Y39161328D01*
X28500024Y39202140D01*
X28539326Y39242956D01*
X28542813Y39246406D01*
X28575789Y39277566D01*
X28610524Y39308176D01*
X28643576Y39335294D01*
X28671504Y39355978D01*
X28691487Y39370019D01*
X28713050Y39386291D01*
X28728907Y39399572D01*
X28736592Y39407892D01*
X28740870Y39418840D01*
X28743319Y39445965D01*
X28737725Y39475887D01*
X28724617Y39504350D01*
X28699810Y39535338D01*
X28663327Y39562743D01*
X28618332Y39581013D01*
X28564493Y39590325D01*
X28549787Y39591094D01*
X28517497Y39588221D01*
X28488424Y39577555D01*
X28459796Y39557818D01*
X28428840Y39527728D01*
X28417626Y39515412D01*
X28403850Y39499046D01*
X28392221Y39482754D01*
X28381395Y39464152D01*
X28370028Y39440854D01*
X28356776Y39410477D01*
X28340295Y39370637D01*
X28316429Y39316749D01*
X28291608Y39271698D01*
X28265512Y39236855D01*
X28236759Y39210990D01*
X28203969Y39192871D01*
X28165759Y39181267D01*
X28120750Y39174946D01*
X28096753Y39174149D01*
X28051800Y39179237D01*
X28003800Y39193299D01*
X27950436Y39216904D01*
X27920256Y39233174D01*
X27879863Y39257430D01*
X27836205Y39285813D01*
X27790847Y39317125D01*
X27745353Y39350168D01*
X27701289Y39383745D01*
X27660221Y39416659D01*
X27623712Y39447713D01*
X27593328Y39475709D01*
X27570635Y39499450D01*
X27557196Y39517739D01*
X27554222Y39524463D01*
X27548505Y39548976D01*
X27545578Y39580973D01*
X27545380Y39616932D01*
X27547852Y39653329D01*
X27552932Y39686642D01*
X27560560Y39713348D01*
X27576513Y39748326D01*
X27600538Y39790518D01*
X27632077Y39837466D01*
X27672218Y39890897D01*
X27672246Y39890932D01*
X27725573Y39964122D01*
X27767449Y40032914D01*
X27798127Y40097841D01*
X27817859Y40159438D01*
X27826897Y40218238D01*
X27826774Y40261884D01*
X27818038Y40306386D01*
X27799543Y40343395D01*
X27770854Y40373733D01*
X27731536Y40398221D01*
X27709083Y40407851D01*
X27658113Y40420274D01*
X27606503Y40420106D01*
X27554692Y40407379D01*
X27503120Y40382122D01*
X27492913Y40376056D01*
X27471047Y40365826D01*
X27454464Y40364412D01*
X27440103Y40372088D01*
X27424906Y40389126D01*
X27408570Y40410543D01*
X27421442Y40437909D01*
X27427037Y40448802D01*
X27439569Y40470948D01*
X27455502Y40497541D01*
X27472707Y40524966D01*
X27485726Y40545500D01*
X27500599Y40570589D01*
X27508548Y40587311D01*
X27509913Y40596834D01*
X27505033Y40600324D01*
X27494250Y40598948D01*
X27481841Y40594363D01*
X27462959Y40584072D01*
X27437961Y40567667D01*
X27405705Y40544392D01*
X27365050Y40513492D01*
X27319191Y40477273D01*
X27279513Y40443849D01*
X27244614Y40411525D01*
X27212660Y40378272D01*
X27181819Y40342063D01*
X27150258Y40300867D01*
X27116143Y40252655D01*
X27077641Y40195400D01*
X27071177Y40185687D01*
X27043355Y40145597D01*
X27015914Y40109429D01*
X26986786Y40074823D01*
X26953903Y40039419D01*
X26915196Y40000855D01*
X26868598Y39956772D01*
X26823508Y39913802D01*
X26757136Y39845408D01*
X26700706Y39779512D01*
X26653168Y39714475D01*
X26613471Y39648660D01*
X26580567Y39580429D01*
X26553403Y39508145D01*
X26530931Y39430169D01*
X26528918Y39421941D01*
X26519485Y39378214D01*
X26509546Y39324695D01*
X26499426Y39263732D01*
X26489454Y39197672D01*
X26479957Y39128864D01*
X26471263Y39059656D01*
X26463698Y38992396D01*
X26457590Y38929432D01*
X26453266Y38873112D01*
X26452333Y38856845D01*
X26451747Y38823674D01*
X26454541Y38801539D01*
X26461720Y38789357D01*
X26474293Y38786043D01*
X26493266Y38790514D01*
X26519647Y38801686D01*
X26532843Y38808319D01*
X26557800Y38822838D01*
X26578315Y38837028D01*
X26578976Y38837549D01*
X26599706Y38851133D01*
X26614196Y38853930D01*
X26623123Y38845796D01*
X26627166Y38826586D01*
X26626772Y38815681D01*
X26620154Y38789432D01*
X26605762Y38754941D01*
X26583438Y38711889D01*
X26553023Y38659956D01*
X26514360Y38598823D01*
X26493043Y38564961D01*
X26469251Y38522816D01*
X26450384Y38482326D01*
X26435980Y38441458D01*
X26425578Y38398177D01*
X26418715Y38350448D01*
X26414929Y38296236D01*
X26413758Y38233507D01*
X26414739Y38160225D01*
X26416694Y38100088D01*
X26419794Y38045941D01*
X26424128Y38001252D01*
X26429906Y37964352D01*
X26437339Y37933574D01*
X26446638Y37907248D01*
X26447471Y37905319D01*
X26457972Y37889670D01*
X26471153Y37884559D01*
X26487430Y37890236D01*
X26507214Y37906948D01*
X26530921Y37934943D01*
X26558965Y37974468D01*
X26572793Y37995458D01*
X26597651Y38035521D01*
X26614696Y38066876D01*
X26623770Y38089218D01*
X26624716Y38102241D01*
X26620160Y38109763D01*
X26607730Y38115100D01*
X26592554Y38109191D01*
X26579407Y38102076D01*
X26565200Y38101075D01*
X26556601Y38108649D01*
X26555921Y38113025D01*
X26556116Y38128724D01*
X26557840Y38151361D01*
X26560724Y38177335D01*
X26564399Y38203046D01*
X26568497Y38224889D01*
X26575234Y38252619D01*
X26593379Y38312406D01*
X26615148Y38368205D01*
X26639526Y38417838D01*
X26665499Y38459131D01*
X26692053Y38489908D01*
X26708469Y38504207D01*
X26723042Y38514909D01*
X26731846Y38519000D01*
X26740284Y38516543D01*
X26754117Y38503667D01*
X26767383Y38481577D01*
X26778640Y38452325D01*
X26778646Y38452306D01*
X26783900Y38426714D01*
X26787667Y38391261D01*
X26789944Y38348692D01*
X26790730Y38301757D01*
X26790021Y38253203D01*
X26787817Y38205777D01*
X26784114Y38162227D01*
X26778910Y38125300D01*
X26769650Y38080301D01*
X26752398Y38017078D01*
X26732096Y37963163D01*
X26709295Y37920176D01*
X26690396Y37893607D01*
X26651644Y37848606D01*
X26604599Y37802499D01*
X26551538Y37757184D01*
X26494743Y37714561D01*
X26436493Y37676531D01*
X26379068Y37644992D01*
X26361908Y37636784D01*
X26338613Y37627700D01*
X26322925Y37626587D01*
X26312714Y37634411D01*
X26305849Y37652138D01*
X26300200Y37680732D01*
X26293203Y37725390D01*
X26277401Y37857574D01*
X26267138Y37998466D01*
X26262291Y38146123D01*
X26262740Y38298599D01*
X26268361Y38453950D01*
X26279034Y38610231D01*
X26294636Y38765498D01*
X26315047Y38917805D01*
X26340144Y39065208D01*
X26369805Y39205762D01*
X26403909Y39337522D01*
X26407601Y39350265D01*
X26425879Y39409925D01*
X26446136Y39471306D01*
X26467358Y39531600D01*
X26488533Y39587998D01*
X26508648Y39637692D01*
X26526690Y39677875D01*
X26560887Y39741044D01*
X26610077Y39813819D01*
X26669484Y39885366D01*
X26739902Y39956626D01*
X26822125Y40028542D01*
X26826103Y40031825D01*
X26854504Y40056156D01*
X26881612Y40080764D01*
X26904525Y40102947D01*
X26920340Y40120003D01*
X26920503Y40120201D01*
X26939724Y40142587D01*
X26962801Y40168449D01*
X26984775Y40192225D01*
X26995375Y40204031D01*
X27017009Y40230475D01*
X27039816Y40260663D01*
X27060330Y40290106D01*
X27066397Y40299122D01*
X27111601Y40358293D01*
X27167680Y40419646D01*
X27234968Y40483502D01*
X27313803Y40550184D01*
X27404520Y40620012D01*
X27415157Y40627774D01*
X27448497Y40650117D01*
X27476501Y40664614D01*
X27501976Y40672192D01*
X27527728Y40673782D01*
X27556564Y40670312D01*
G37*
X27556564Y40670312D02*
X27582589Y40663687D01*
X27629194Y40644067D01*
X27678895Y40614591D01*
X27730325Y40576318D01*
X27782118Y40530303D01*
X27832907Y40477603D01*
X27881326Y40419273D01*
X27891538Y40405684D01*
X27910661Y40376757D01*
X27922497Y40351141D01*
X27928519Y40325087D01*
X27930200Y40294848D01*
X27930205Y40289949D01*
X27930747Y40272025D01*
X27933248Y40258327D01*
X27939215Y40245330D01*
X27950152Y40229507D01*
X27967565Y40207332D01*
X27977301Y40194950D01*
X28002818Y40160541D01*
X28023029Y40130221D01*
X28037145Y40105336D01*
X28044377Y40087229D01*
X28043936Y40077246D01*
X28040505Y40075022D01*
X28030880Y40075386D01*
X28014264Y40080905D01*
X27988623Y40092128D01*
X27978628Y40096557D01*
X27952032Y40106724D01*
X27926881Y40114333D01*
X27905740Y40118794D01*
X27891175Y40119513D01*
X27885750Y40115898D01*
X27886467Y40113717D01*
X27892376Y40102494D01*
X27902960Y40084585D01*
X27916654Y40062685D01*
X27945792Y40014637D01*
X27976976Y39954229D01*
X28001568Y39893775D01*
X28010482Y39867717D01*
X28019033Y39838134D01*
X28022519Y39816940D01*
X28021184Y39802314D01*
X28015276Y39792435D01*
X28011098Y39788495D01*
X28005748Y39785518D01*
X27998859Y39785718D01*
X27988631Y39789878D01*
X27973267Y39798781D01*
X27950966Y39813210D01*
X27919930Y39833950D01*
X27908553Y39841495D01*
X27863261Y39869752D01*
X27821758Y39892829D01*
X27785995Y39909697D01*
X27757924Y39919328D01*
X27757620Y39919400D01*
X27748132Y39920381D01*
X27740216Y39916628D01*
X27731334Y39905995D01*
X27718953Y39886335D01*
X27699790Y39853304D01*
X27675308Y39805062D01*
X27659003Y39762493D01*
X27650326Y39723595D01*
X27648726Y39686366D01*
X27653652Y39648804D01*
X27668165Y39598111D01*
X27694298Y39540431D01*
X27728832Y39486216D01*
X27770327Y39436771D01*
X27817343Y39393397D01*
X27868438Y39357399D01*
X27922173Y39330080D01*
X27977107Y39312742D01*
X28031800Y39306690D01*
X28091194Y39311176D01*
X28146309Y39325762D01*
X28194901Y39350916D01*
X28237843Y39387094D01*
X28276007Y39434757D01*
X28298021Y39467445D01*
X28277623Y39505750D01*
X28269487Y39520103D01*
X28253336Y39546360D01*
X28234110Y39575891D01*
X28214416Y39604615D01*
X28204314Y39619000D01*
X28187511Y39643845D01*
X28177276Y39661094D01*
X28172829Y39672464D01*
X28173391Y39679672D01*
X28178184Y39684432D01*
X28181017Y39685224D01*
X28194679Y39682398D01*
X28215632Y39673216D01*
X28241894Y39658736D01*
X28271484Y39640015D01*
X28302420Y39618113D01*
X28316509Y39607743D01*
X28335580Y39594317D01*
X28349131Y39585562D01*
X28354882Y39583004D01*
X28354483Y39585904D01*
X28349946Y39598193D01*
X28341575Y39617689D01*
X28330434Y39641832D01*
X28323553Y39656888D01*
X28313773Y39680814D01*
X28307504Y39699672D01*
X28305867Y39710333D01*
X28312701Y39721140D01*
X28327763Y39723296D01*
X28351330Y39716660D01*
X28383700Y39701198D01*
X28430472Y39675970D01*
X28467673Y39694889D01*
X28481788Y39701772D01*
X28501752Y39709208D01*
X28521369Y39712015D01*
X28547091Y39711546D01*
X28551026Y39711314D01*
X28573300Y39708795D01*
X28594339Y39703532D01*
X28618183Y39694258D01*
X28648875Y39679712D01*
X28663748Y39672091D01*
X28734987Y39629460D01*
X28806072Y39577508D01*
X28874148Y39518661D01*
X28936359Y39455346D01*
X28989851Y39389988D01*
X29001425Y39373865D01*
X29015526Y39352995D01*
X29025174Y39337143D01*
X29028750Y39328853D01*
X29028249Y39324739D01*
X29023481Y39317486D01*
X29012069Y39310794D01*
X28992067Y39303691D01*
X28961532Y39295202D01*
X28913902Y39280994D01*
X28837689Y39250391D01*
X28767282Y39212171D01*
X28704290Y39167389D01*
X28650321Y39117100D01*
X28606982Y39062360D01*
X28602658Y39055567D01*
X28585718Y39025278D01*
X28566820Y38986971D01*
X28547365Y38943842D01*
X28528752Y38899083D01*
X28512381Y38855888D01*
X28499652Y38817450D01*
X28490947Y38787530D01*
X28480653Y38747866D01*
X28473774Y38712799D01*
X28469696Y38678013D01*
X28467803Y38639194D01*
X28467478Y38592025D01*
X28467550Y38580674D01*
X28468236Y38542664D01*
X28469855Y38512836D01*
X28472792Y38487591D01*
X28477433Y38463329D01*
X28484165Y38436450D01*
X28500394Y38376125D01*
X28483584Y38358019D01*
X28479009Y38353211D01*
X28448637Y38324951D01*
X28409263Y38292817D01*
X28362931Y38258197D01*
X28311687Y38222482D01*
X28257574Y38187058D01*
X28202638Y38153316D01*
X28148923Y38122645D01*
X28098475Y38096432D01*
X28091512Y38093045D01*
X28015190Y38058121D01*
X27944140Y38030171D01*
X27874512Y38007805D01*
X27802458Y37989635D01*
X27790549Y37987062D01*
X27689544Y37970457D01*
X27586980Y37962421D01*
X27484584Y37962744D01*
X27384080Y37971219D01*
X27287197Y37987636D01*
X27195661Y38011787D01*
X27111197Y38043461D01*
X27035533Y38082451D01*
X27034299Y38083196D01*
X27009258Y38099876D01*
X26995267Y38113290D01*
X26991509Y38124555D01*
X26997165Y38134788D01*
X27000438Y38137771D01*
X27007939Y38141167D01*
X27019207Y38140225D01*
X27038333Y38134963D01*
X27041029Y38134150D01*
X27107506Y38116962D01*
X27180170Y38102950D01*
X27255467Y38092519D01*
X27329843Y38086074D01*
X27399742Y38084019D01*
X27461609Y38086760D01*
X27471986Y38087772D01*
X27543052Y38097690D01*
X27607834Y38112837D01*
X27668983Y38134287D01*
X27729155Y38163118D01*
X27791001Y38200406D01*
X27857175Y38247227D01*
X27868508Y38255765D01*
X27936614Y38308832D01*
X27994729Y38357672D01*
X28044045Y38403532D01*
X28085753Y38447661D01*
X28121048Y38491307D01*
X28151121Y38535719D01*
X28177165Y38582144D01*
X28178778Y38585338D01*
X28191370Y38611785D01*
X28207071Y38646697D01*
X28224609Y38687151D01*
X28242715Y38730227D01*
X28260118Y38773000D01*
X28281913Y38826749D01*
X28313634Y38901210D01*
X28343579Y38966053D01*
X28372702Y39022883D01*
X28401955Y39073303D01*
X28432291Y39118917D01*
X28464663Y39161328D01*
X28500024Y39202140D01*
X28539326Y39242956D01*
X28542813Y39246406D01*
X28575789Y39277566D01*
X28610524Y39308176D01*
X28643576Y39335294D01*
X28671504Y39355978D01*
X28691487Y39370019D01*
X28713050Y39386291D01*
X28728907Y39399572D01*
X28736592Y39407892D01*
X28740870Y39418840D01*
X28743319Y39445965D01*
X28737725Y39475887D01*
X28724617Y39504350D01*
X28699810Y39535338D01*
X28663327Y39562743D01*
X28618332Y39581013D01*
X28564493Y39590325D01*
X28549787Y39591094D01*
X28517497Y39588221D01*
X28488424Y39577555D01*
X28459796Y39557818D01*
X28428840Y39527728D01*
X28417626Y39515412D01*
X28403850Y39499046D01*
X28392221Y39482754D01*
X28381395Y39464152D01*
X28370028Y39440854D01*
X28356776Y39410477D01*
X28340295Y39370637D01*
X28316429Y39316749D01*
X28291608Y39271698D01*
X28265512Y39236855D01*
X28236759Y39210990D01*
X28203969Y39192871D01*
X28165759Y39181267D01*
X28120750Y39174946D01*
X28096753Y39174149D01*
X28051800Y39179237D01*
X28003800Y39193299D01*
X27950436Y39216904D01*
X27920256Y39233174D01*
X27879863Y39257430D01*
X27836205Y39285813D01*
X27790847Y39317125D01*
X27745353Y39350168D01*
X27701289Y39383745D01*
X27660221Y39416659D01*
X27623712Y39447713D01*
X27593328Y39475709D01*
X27570635Y39499450D01*
X27557196Y39517739D01*
X27554222Y39524463D01*
X27548505Y39548976D01*
X27545578Y39580973D01*
X27545380Y39616932D01*
X27547852Y39653329D01*
X27552932Y39686642D01*
X27560560Y39713348D01*
X27576513Y39748326D01*
X27600538Y39790518D01*
X27632077Y39837466D01*
X27672218Y39890897D01*
X27672246Y39890932D01*
X27725573Y39964122D01*
X27767449Y40032914D01*
X27798127Y40097841D01*
X27817859Y40159438D01*
X27826897Y40218238D01*
X27826774Y40261884D01*
X27818038Y40306386D01*
X27799543Y40343395D01*
X27770854Y40373733D01*
X27731536Y40398221D01*
X27709083Y40407851D01*
X27658113Y40420274D01*
X27606503Y40420106D01*
X27554692Y40407379D01*
X27503120Y40382122D01*
X27492913Y40376056D01*
X27471047Y40365826D01*
X27454464Y40364412D01*
X27440103Y40372088D01*
X27424906Y40389126D01*
X27408570Y40410543D01*
X27421442Y40437909D01*
X27427037Y40448802D01*
X27439569Y40470948D01*
X27455502Y40497541D01*
X27472707Y40524966D01*
X27485726Y40545500D01*
X27500599Y40570589D01*
X27508548Y40587311D01*
X27509913Y40596834D01*
X27505033Y40600324D01*
X27494250Y40598948D01*
X27481841Y40594363D01*
X27462959Y40584072D01*
X27437961Y40567667D01*
X27405705Y40544392D01*
X27365050Y40513492D01*
X27319191Y40477273D01*
X27279513Y40443849D01*
X27244614Y40411525D01*
X27212660Y40378272D01*
X27181819Y40342063D01*
X27150258Y40300867D01*
X27116143Y40252655D01*
X27077641Y40195400D01*
X27071177Y40185687D01*
X27043355Y40145597D01*
X27015914Y40109429D01*
X26986786Y40074823D01*
X26953903Y40039419D01*
X26915196Y40000855D01*
X26868598Y39956772D01*
X26823508Y39913802D01*
X26757136Y39845408D01*
X26700706Y39779512D01*
X26653168Y39714475D01*
X26613471Y39648660D01*
X26580567Y39580429D01*
X26553403Y39508145D01*
X26530931Y39430169D01*
X26528918Y39421941D01*
X26519485Y39378214D01*
X26509546Y39324695D01*
X26499426Y39263732D01*
X26489454Y39197672D01*
X26479957Y39128864D01*
X26471263Y39059656D01*
X26463698Y38992396D01*
X26457590Y38929432D01*
X26453266Y38873112D01*
X26452333Y38856845D01*
X26451747Y38823674D01*
X26454541Y38801539D01*
X26461720Y38789357D01*
X26474293Y38786043D01*
X26493266Y38790514D01*
X26519647Y38801686D01*
X26532843Y38808319D01*
X26557800Y38822838D01*
X26578315Y38837028D01*
X26578976Y38837549D01*
X26599706Y38851133D01*
X26614196Y38853930D01*
X26623123Y38845796D01*
X26627166Y38826586D01*
X26626772Y38815681D01*
X26620154Y38789432D01*
X26605762Y38754941D01*
X26583438Y38711889D01*
X26553023Y38659956D01*
X26514360Y38598823D01*
X26493043Y38564961D01*
X26469251Y38522816D01*
X26450384Y38482326D01*
X26435980Y38441458D01*
X26425578Y38398177D01*
X26418715Y38350448D01*
X26414929Y38296236D01*
X26413758Y38233507D01*
X26414739Y38160225D01*
X26416694Y38100088D01*
X26419794Y38045941D01*
X26424128Y38001252D01*
X26429906Y37964352D01*
X26437339Y37933574D01*
X26446638Y37907248D01*
X26447471Y37905319D01*
X26457972Y37889670D01*
X26471153Y37884559D01*
X26487430Y37890236D01*
X26507214Y37906948D01*
X26530921Y37934943D01*
X26558965Y37974468D01*
X26572793Y37995458D01*
X26597651Y38035521D01*
X26614696Y38066876D01*
X26623770Y38089218D01*
X26624716Y38102241D01*
X26620160Y38109763D01*
X26607730Y38115100D01*
X26592554Y38109191D01*
X26579407Y38102076D01*
X26565200Y38101075D01*
X26556601Y38108649D01*
X26555921Y38113025D01*
X26556116Y38128724D01*
X26557840Y38151361D01*
X26560724Y38177335D01*
X26564399Y38203046D01*
X26568497Y38224889D01*
X26575234Y38252619D01*
X26593379Y38312406D01*
X26615148Y38368205D01*
X26639526Y38417838D01*
X26665499Y38459131D01*
X26692053Y38489908D01*
X26708469Y38504207D01*
X26723042Y38514909D01*
X26731846Y38519000D01*
X26740284Y38516543D01*
X26754117Y38503667D01*
X26767383Y38481577D01*
X26778640Y38452325D01*
X26778646Y38452306D01*
X26783900Y38426714D01*
X26787667Y38391261D01*
X26789944Y38348692D01*
X26790730Y38301757D01*
X26790021Y38253203D01*
X26787817Y38205777D01*
X26784114Y38162227D01*
X26778910Y38125300D01*
X26769650Y38080301D01*
X26752398Y38017078D01*
X26732096Y37963163D01*
X26709295Y37920176D01*
X26690396Y37893607D01*
X26651644Y37848606D01*
X26604599Y37802499D01*
X26551538Y37757184D01*
X26494743Y37714561D01*
X26436493Y37676531D01*
X26379068Y37644992D01*
X26361908Y37636784D01*
X26338613Y37627700D01*
X26322925Y37626587D01*
X26312714Y37634411D01*
X26305849Y37652138D01*
X26300200Y37680732D01*
X26293203Y37725390D01*
X26277401Y37857574D01*
X26267138Y37998466D01*
X26262291Y38146123D01*
X26262740Y38298599D01*
X26268361Y38453950D01*
X26279034Y38610231D01*
X26294636Y38765498D01*
X26315047Y38917805D01*
X26340144Y39065208D01*
X26369805Y39205762D01*
X26403909Y39337522D01*
X26407601Y39350265D01*
X26425879Y39409925D01*
X26446136Y39471306D01*
X26467358Y39531600D01*
X26488533Y39587998D01*
X26508648Y39637692D01*
X26526690Y39677875D01*
X26560887Y39741044D01*
X26610077Y39813819D01*
X26669484Y39885366D01*
X26739902Y39956626D01*
X26822125Y40028542D01*
X26826103Y40031825D01*
X26854504Y40056156D01*
X26881612Y40080764D01*
X26904525Y40102947D01*
X26920340Y40120003D01*
X26920503Y40120201D01*
X26939724Y40142587D01*
X26962801Y40168449D01*
X26984775Y40192225D01*
X26995375Y40204031D01*
X27017009Y40230475D01*
X27039816Y40260663D01*
X27060330Y40290106D01*
X27066397Y40299122D01*
X27111601Y40358293D01*
X27167680Y40419646D01*
X27234968Y40483502D01*
X27313803Y40550184D01*
X27404520Y40620012D01*
X27415157Y40627774D01*
X27448497Y40650117D01*
X27476501Y40664614D01*
X27501976Y40672192D01*
X27527728Y40673782D01*
X27556564Y40670312D01*
G36*
X27240262Y39978941D02*
G01*
X27244480Y39971563D01*
X27245402Y39966575D01*
X27251643Y39950532D01*
X27262263Y39928939D01*
X27275479Y39905102D01*
X27289506Y39882328D01*
X27302560Y39863924D01*
X27325882Y39840052D01*
X27359020Y39815203D01*
X27395435Y39794680D01*
X27430264Y39781617D01*
X27463475Y39773125D01*
X27429772Y39771193D01*
X27418498Y39771058D01*
X27389311Y39773585D01*
X27362266Y39779089D01*
X27353263Y39782117D01*
X27322185Y39797048D01*
X27289502Y39818028D01*
X27259725Y39841933D01*
X27237363Y39865638D01*
X27232294Y39872790D01*
X27221094Y39890573D01*
X27209109Y39911369D01*
X27198219Y39931733D01*
X27190305Y39948221D01*
X27187250Y39957388D01*
X27188698Y39959303D01*
X27198254Y39965054D01*
X27212768Y39971709D01*
X27227534Y39977210D01*
X27237846Y39979500D01*
X27240262Y39978941D01*
G37*
X27240262Y39978941D02*
X27244480Y39971563D01*
X27245402Y39966575D01*
X27251643Y39950532D01*
X27262263Y39928939D01*
X27275479Y39905102D01*
X27289506Y39882328D01*
X27302560Y39863924D01*
X27325882Y39840052D01*
X27359020Y39815203D01*
X27395435Y39794680D01*
X27430264Y39781617D01*
X27463475Y39773125D01*
X27429772Y39771193D01*
X27418498Y39771058D01*
X27389311Y39773585D01*
X27362266Y39779089D01*
X27353263Y39782117D01*
X27322185Y39797048D01*
X27289502Y39818028D01*
X27259725Y39841933D01*
X27237363Y39865638D01*
X27232294Y39872790D01*
X27221094Y39890573D01*
X27209109Y39911369D01*
X27198219Y39931733D01*
X27190305Y39948221D01*
X27187250Y39957388D01*
X27188698Y39959303D01*
X27198254Y39965054D01*
X27212768Y39971709D01*
X27227534Y39977210D01*
X27237846Y39979500D01*
X27240262Y39978941D01*
G36*
X27350008Y39303225D02*
G01*
X27339105Y39265244D01*
X27326616Y39219226D01*
X27313938Y39170275D01*
X27301514Y39120290D01*
X27289788Y39071167D01*
X27279200Y39024804D01*
X27270195Y38983100D01*
X27263215Y38947952D01*
X27258702Y38921258D01*
X27257100Y38904916D01*
X27256317Y38899711D01*
X27252116Y38892467D01*
X27242921Y38883697D01*
X27227224Y38872208D01*
X27203515Y38856807D01*
X27170287Y38836302D01*
X27165247Y38833224D01*
X27125909Y38808824D01*
X27082854Y38781593D01*
X27040960Y38754638D01*
X27005103Y38731066D01*
X26982730Y38716214D01*
X26959620Y38701291D01*
X26945000Y38692661D01*
X26937742Y38689757D01*
X26936721Y38692017D01*
X26940810Y38698877D01*
X26951310Y38712409D01*
X26976133Y38739319D01*
X27008306Y38770124D01*
X27045724Y38803005D01*
X27086282Y38836139D01*
X27127878Y38867704D01*
X27168406Y38895880D01*
X27181744Y38904798D01*
X27194707Y38915117D01*
X27202388Y38925936D01*
X27207304Y38941254D01*
X27211974Y38965070D01*
X27214748Y38978982D01*
X27226975Y39027573D01*
X27243663Y39081697D01*
X27263378Y39137231D01*
X27284687Y39190052D01*
X27306159Y39236040D01*
X27319562Y39261753D01*
X27332119Y39284890D01*
X27341781Y39301663D01*
X27347153Y39309575D01*
X27351163Y39311465D01*
X27350008Y39303225D01*
G37*
X27350008Y39303225D02*
X27339105Y39265244D01*
X27326616Y39219226D01*
X27313938Y39170275D01*
X27301514Y39120290D01*
X27289788Y39071167D01*
X27279200Y39024804D01*
X27270195Y38983100D01*
X27263215Y38947952D01*
X27258702Y38921258D01*
X27257100Y38904916D01*
X27256317Y38899711D01*
X27252116Y38892467D01*
X27242921Y38883697D01*
X27227224Y38872208D01*
X27203515Y38856807D01*
X27170287Y38836302D01*
X27165247Y38833224D01*
X27125909Y38808824D01*
X27082854Y38781593D01*
X27040960Y38754638D01*
X27005103Y38731066D01*
X26982730Y38716214D01*
X26959620Y38701291D01*
X26945000Y38692661D01*
X26937742Y38689757D01*
X26936721Y38692017D01*
X26940810Y38698877D01*
X26951310Y38712409D01*
X26976133Y38739319D01*
X27008306Y38770124D01*
X27045724Y38803005D01*
X27086282Y38836139D01*
X27127878Y38867704D01*
X27168406Y38895880D01*
X27181744Y38904798D01*
X27194707Y38915117D01*
X27202388Y38925936D01*
X27207304Y38941254D01*
X27211974Y38965070D01*
X27214748Y38978982D01*
X27226975Y39027573D01*
X27243663Y39081697D01*
X27263378Y39137231D01*
X27284687Y39190052D01*
X27306159Y39236040D01*
X27319562Y39261753D01*
X27332119Y39284890D01*
X27341781Y39301663D01*
X27347153Y39309575D01*
X27351163Y39311465D01*
X27350008Y39303225D01*
G36*
X26869473Y39806872D02*
G01*
X26874666Y39795879D01*
X26879609Y39778300D01*
X26883330Y39762699D01*
X26888627Y39751800D01*
X26898384Y39746621D01*
X26916520Y39743463D01*
X26918146Y39743224D01*
X26949184Y39735189D01*
X26975350Y39719976D01*
X27000966Y39695110D01*
X27021058Y39672217D01*
X27045758Y39689334D01*
X27053679Y39694663D01*
X27067545Y39703116D01*
X27075102Y39706450D01*
X27076689Y39704286D01*
X27073796Y39695338D01*
X27069173Y39687747D01*
X27057768Y39670514D01*
X27041697Y39646986D01*
X27022542Y39619405D01*
X27001880Y39590015D01*
X26981291Y39561058D01*
X26962354Y39534779D01*
X26946647Y39513419D01*
X26935749Y39499223D01*
X26923022Y39485218D01*
X26891048Y39458245D01*
X26853928Y39434752D01*
X26816596Y39418098D01*
X26804352Y39414380D01*
X26780763Y39411045D01*
X26766588Y39415950D01*
X26761979Y39429066D01*
X26762045Y39430210D01*
X26764280Y39442896D01*
X26769319Y39464935D01*
X26776661Y39494523D01*
X26785808Y39529856D01*
X26796261Y39569131D01*
X26807521Y39610543D01*
X26819088Y39652288D01*
X26830464Y39692563D01*
X26841150Y39729563D01*
X26850647Y39761485D01*
X26858455Y39786525D01*
X26864076Y39802879D01*
X26867011Y39808742D01*
X26869473Y39806872D01*
G37*
X26869473Y39806872D02*
X26874666Y39795879D01*
X26879609Y39778300D01*
X26883330Y39762699D01*
X26888627Y39751800D01*
X26898384Y39746621D01*
X26916520Y39743463D01*
X26918146Y39743224D01*
X26949184Y39735189D01*
X26975350Y39719976D01*
X27000966Y39695110D01*
X27021058Y39672217D01*
X27045758Y39689334D01*
X27053679Y39694663D01*
X27067545Y39703116D01*
X27075102Y39706450D01*
X27076689Y39704286D01*
X27073796Y39695338D01*
X27069173Y39687747D01*
X27057768Y39670514D01*
X27041697Y39646986D01*
X27022542Y39619405D01*
X27001880Y39590015D01*
X26981291Y39561058D01*
X26962354Y39534779D01*
X26946647Y39513419D01*
X26935749Y39499223D01*
X26923022Y39485218D01*
X26891048Y39458245D01*
X26853928Y39434752D01*
X26816596Y39418098D01*
X26804352Y39414380D01*
X26780763Y39411045D01*
X26766588Y39415950D01*
X26761979Y39429066D01*
X26762045Y39430210D01*
X26764280Y39442896D01*
X26769319Y39464935D01*
X26776661Y39494523D01*
X26785808Y39529856D01*
X26796261Y39569131D01*
X26807521Y39610543D01*
X26819088Y39652288D01*
X26830464Y39692563D01*
X26841150Y39729563D01*
X26850647Y39761485D01*
X26858455Y39786525D01*
X26864076Y39802879D01*
X26867011Y39808742D01*
X26869473Y39806872D01*
%TD*%
D13*
%TO.P,J1,1,Pin_1*%
%TO.N,GND*%
X36865000Y39790000D03*
%TO.P,J1,2,Pin_2*%
%TO.N,/12V_CONN*%
X31865000Y36290000D03*
%TD*%
D14*
%TO.P,C7,1*%
%TO.N,+12V*%
X35617621Y6700000D03*
D15*
%TO.P,C7,2*%
%TO.N,GND*%
X38117621Y6700000D03*
%TD*%
D16*
%TO.P,J3,1,Pin_1*%
%TO.N,+12V*%
X31865000Y12160000D03*
%TO.P,J3,2,Pin_2*%
X31865000Y13410000D03*
%TO.P,J3,3,Pin_3*%
%TO.N,GND*%
X31865000Y14660000D03*
%TO.P,J3,4,Pin_4*%
X31865000Y15910000D03*
%TD*%
D17*
%TO.P,J2,1,Pin_1*%
%TO.N,GND*%
X40120000Y16605000D03*
D18*
%TO.P,J2,2,Pin_2*%
%TO.N,unconnected-(J2-Pad2)*%
X40120000Y14065000D03*
%TO.P,J2,3,Pin_3*%
%TO.N,/RST_CONN*%
X40120000Y11525000D03*
%TD*%
D13*
%TO.P,J4,1,Pin_1*%
%TO.N,GND*%
X36865000Y27725000D03*
%TO.P,J4,2,Pin_2*%
%TO.N,/12V_CONN*%
X31865000Y24225000D03*
%TD*%
D19*
%TO.N,/RST_CONN*%
X32100000Y21100000D03*
X25300000Y27900000D03*
%TO.N,GND*%
X18600000Y28700000D03*
X4600000Y29400000D03*
X4600000Y32700000D03*
X25300000Y30900000D03*
X20300000Y32900000D03*
X4600000Y36000000D03*
X11700000Y33100000D03*
X7700000Y41800000D03*
X9400000Y28700000D03*
X29900000Y6500000D03*
X12600000Y42100000D03*
X30700000Y7100000D03*
X30700000Y3900000D03*
X29900000Y9700000D03*
%TO.N,+12V*%
X23100000Y37600000D03*
X26000000Y28800000D03*
X26600000Y35400000D03*
X29100000Y25700000D03*
%TO.N,/12V_CONN*%
X24400000Y33400000D03*
X22200000Y32600000D03*
%TD*%
D20*
%TO.N,+12V*%
X26000000Y35400000D02*
X26498757Y35400000D01*
X23100000Y37600000D02*
X23800000Y37600000D01*
X23800000Y37600000D02*
X26000000Y35400000D01*
%TO.N,/RST_CONN*%
X26500000Y26700000D02*
X25300000Y27900000D01*
X32100000Y21100000D02*
X26500000Y26700000D01*
%TO.N,+12V*%
X26000000Y28800000D02*
X29100000Y25700000D01*
%TO.N,/12V_CONN*%
X23000000Y33400000D02*
X22200000Y32600000D01*
X24400000Y33400000D02*
X23000000Y33400000D01*
%TD*%
%TA.AperFunction,Conductor*%
%TO.N,GND*%
G36*
X21158531Y43275487D02*
G01*
X21195076Y43225187D01*
X21200000Y43194100D01*
X21200000Y40400000D01*
X22600000Y38800000D01*
X24684421Y38800000D01*
X24743552Y38780787D01*
X24776882Y38739040D01*
X24778454Y38735372D01*
X24778462Y38735356D01*
X24779425Y38733109D01*
X24780604Y38730964D01*
X24780611Y38730950D01*
X24786111Y38720946D01*
X24788023Y38717063D01*
X24788105Y38717104D01*
X24789200Y38714903D01*
X24790183Y38712660D01*
X24792769Y38708043D01*
X24793285Y38707122D01*
X24798274Y38696899D01*
X24810078Y38668784D01*
X24816517Y38662088D01*
X24821618Y38654329D01*
X24821286Y38654111D01*
X24824711Y38649455D01*
X24824870Y38649562D01*
X24825928Y38647997D01*
X24826021Y38647674D01*
X24827489Y38645679D01*
X24828130Y38644513D01*
X24829690Y38641675D01*
X24828013Y38640753D01*
X24828162Y38640236D01*
X24830011Y38641286D01*
X24840711Y38622438D01*
X24840983Y38621957D01*
X24841441Y38621139D01*
X24846745Y38611670D01*
X24844828Y38610597D01*
X24844946Y38610200D01*
X24846997Y38611365D01*
X24853196Y38600446D01*
X24853623Y38599651D01*
X24853853Y38599135D01*
X24864885Y38579767D01*
X24865006Y38579553D01*
X24868469Y38573421D01*
X24866413Y38572260D01*
X24866456Y38572119D01*
X24868558Y38573317D01*
X24880817Y38551796D01*
X24880891Y38551666D01*
X24884570Y38545185D01*
X24884735Y38544877D01*
X24884902Y38544506D01*
X24885458Y38543533D01*
X24885478Y38543495D01*
X24894025Y38528528D01*
X24894139Y38528329D01*
X24895016Y38526785D01*
X24892740Y38525492D01*
X24892748Y38525467D01*
X24895029Y38526769D01*
X24911829Y38497347D01*
X24911881Y38497257D01*
X24920218Y38482621D01*
X24920280Y38482506D01*
X24920381Y38482280D01*
X24946553Y38436531D01*
X24947198Y38435403D01*
X24947238Y38435332D01*
X24959905Y38413148D01*
X24959922Y38413117D01*
X24959981Y38412985D01*
X24972541Y38391063D01*
X24987058Y38365726D01*
X24987046Y38365719D01*
X24987090Y38365671D01*
X25001462Y38340547D01*
X25001529Y38340468D01*
X25003142Y38337654D01*
X25003299Y38337363D01*
X25003392Y38337156D01*
X25030025Y38290732D01*
X25044930Y38264717D01*
X25044981Y38264657D01*
X25045005Y38264620D01*
X25050077Y38255779D01*
X25050215Y38255524D01*
X25050297Y38255342D01*
X25077223Y38208461D01*
X25091884Y38182905D01*
X25091932Y38182848D01*
X25091942Y38182833D01*
X25100193Y38168468D01*
X25100303Y38168264D01*
X25100383Y38168087D01*
X25100663Y38167600D01*
X25127645Y38120669D01*
X25127668Y38120630D01*
X25142011Y38095657D01*
X25142055Y38095605D01*
X25153158Y38076295D01*
X25153261Y38076106D01*
X25153336Y38075938D01*
X25180203Y38029252D01*
X25180212Y38029212D01*
X25180223Y38029218D01*
X25194998Y38003520D01*
X25195033Y38003478D01*
X25195057Y38003441D01*
X25208654Y37979814D01*
X25208776Y37979590D01*
X25208837Y37979455D01*
X25236144Y37932048D01*
X25250534Y37907044D01*
X25250566Y37907006D01*
X25250584Y37906979D01*
X25266401Y37879519D01*
X25266504Y37879329D01*
X25266571Y37879181D01*
X25266802Y37878780D01*
X25266806Y37878773D01*
X25288852Y37840535D01*
X25293631Y37832245D01*
X25308296Y37806785D01*
X25308333Y37806742D01*
X25308343Y37806727D01*
X25326055Y37776005D01*
X25326161Y37775811D01*
X25326220Y37775679D01*
X25353118Y37729061D01*
X25367976Y37703290D01*
X25368007Y37703253D01*
X25368021Y37703231D01*
X25376935Y37687783D01*
X25377073Y37687530D01*
X25377143Y37687375D01*
X25377391Y37686946D01*
X25377412Y37686907D01*
X25404137Y37640637D01*
X25404159Y37640600D01*
X25418916Y37615025D01*
X25418952Y37614983D01*
X25418968Y37614957D01*
X25461542Y37541247D01*
X25461727Y37540908D01*
X25461834Y37540672D01*
X25462205Y37540031D01*
X25485608Y37499572D01*
X25488505Y37494563D01*
X25503615Y37468402D01*
X25503672Y37468334D01*
X25503706Y37468282D01*
X25536634Y37411357D01*
X25539928Y37405662D01*
X25540160Y37405238D01*
X25540290Y37404952D01*
X25540750Y37404158D01*
X25540755Y37404149D01*
X25551928Y37384868D01*
X25567397Y37358172D01*
X25582105Y37332745D01*
X25582171Y37332668D01*
X25582203Y37332618D01*
X25612095Y37281033D01*
X25612378Y37280516D01*
X25612534Y37280175D01*
X25613078Y37279239D01*
X25640005Y37232866D01*
X25639988Y37232856D01*
X25640050Y37232788D01*
X25654389Y37208043D01*
X25654470Y37207949D01*
X25654509Y37207888D01*
X25678062Y37167325D01*
X25678401Y37166707D01*
X25678589Y37166298D01*
X25705808Y37119543D01*
X25705832Y37119431D01*
X25705862Y37119449D01*
X25720488Y37094261D01*
X25720584Y37094150D01*
X25720636Y37094069D01*
X25737825Y37064542D01*
X25738248Y37063773D01*
X25738480Y37063269D01*
X25766099Y37015974D01*
X25780430Y36991356D01*
X25780550Y36991217D01*
X25780607Y36991129D01*
X25791394Y36972656D01*
X25791942Y36971666D01*
X25792236Y36971028D01*
X25793262Y36969278D01*
X25793267Y36969269D01*
X25819827Y36923969D01*
X25819915Y36923818D01*
X25826897Y36911863D01*
X25834244Y36899281D01*
X25834403Y36899097D01*
X25834466Y36899000D01*
X25838794Y36891619D01*
X25839503Y36890342D01*
X25839893Y36889502D01*
X25867508Y36842642D01*
X25867509Y36842641D01*
X25880661Y36820209D01*
X25881114Y36819397D01*
X25881503Y36818565D01*
X25909249Y36771813D01*
X25909331Y36771675D01*
X25915375Y36761420D01*
X25916454Y36759500D01*
X25917147Y36758035D01*
X25936960Y36724987D01*
X25943156Y36714651D01*
X25945254Y36710977D01*
X25945906Y36709778D01*
X25946972Y36707566D01*
X25965086Y36677817D01*
X25965743Y36676738D01*
X25969908Y36669186D01*
X25971350Y36666286D01*
X25972648Y36664212D01*
X25983883Y36646258D01*
X25988389Y36637014D01*
X25988525Y36637087D01*
X25991591Y36631324D01*
X26000041Y36618611D01*
X26006874Y36606155D01*
X26008340Y36600975D01*
X26011796Y36595436D01*
X26013294Y36593488D01*
X26020066Y36584681D01*
X26031810Y36565183D01*
X26036455Y36555020D01*
X26040713Y36550072D01*
X26042494Y36548371D01*
X26060450Y36531220D01*
X26063748Y36527872D01*
X26066287Y36524570D01*
X26069740Y36521473D01*
X26080830Y36511525D01*
X26093809Y36497433D01*
X26108611Y36477918D01*
X26113847Y36474020D01*
X26115947Y36472755D01*
X26115948Y36472754D01*
X26147875Y36453517D01*
X26166013Y36439547D01*
X26173838Y36431954D01*
X26179602Y36428891D01*
X26181865Y36427959D01*
X26181869Y36427957D01*
X26184042Y36427062D01*
X26194396Y36421547D01*
X26195465Y36420592D01*
X26201351Y36417770D01*
X26203553Y36416968D01*
X26209241Y36414064D01*
X26211340Y36412343D01*
X26217341Y36409772D01*
X26219682Y36409030D01*
X26221986Y36408173D01*
X26221885Y36407902D01*
X26230188Y36404446D01*
X26234090Y36401649D01*
X26240244Y36399471D01*
X26242629Y36398881D01*
X26244983Y36398176D01*
X26244915Y36397951D01*
X26254024Y36394835D01*
X26258037Y36392332D01*
X26264319Y36390554D01*
X26266739Y36390118D01*
X26269127Y36389567D01*
X26269074Y36389337D01*
X26277456Y36387002D01*
X26280054Y36385563D01*
X26286419Y36384113D01*
X26288863Y36383803D01*
X26291279Y36383375D01*
X26291240Y36383154D01*
X26299107Y36381339D01*
X26299893Y36380941D01*
X26306308Y36379731D01*
X26308886Y36379502D01*
X26308990Y36379481D01*
X26311195Y36379176D01*
X26311177Y36379049D01*
X26318738Y36377557D01*
X26318771Y36377758D01*
X26322787Y36377109D01*
X26322794Y36377108D01*
X26325216Y36376717D01*
X26329788Y36376431D01*
X26338136Y36374978D01*
X26338208Y36375478D01*
X26344671Y36374553D01*
X26347112Y36374445D01*
X26347118Y36374444D01*
X26353898Y36374143D01*
X26362413Y36373401D01*
X26363505Y36373259D01*
X26363511Y36373259D01*
X26365949Y36372941D01*
X26377229Y36372583D01*
X26377194Y36371465D01*
X26378681Y36371586D01*
X26378711Y36372535D01*
X26380375Y36372482D01*
X26385206Y36372114D01*
X26385248Y36372118D01*
X26385252Y36372169D01*
X26385587Y36372145D01*
X26386104Y36372187D01*
X26387575Y36372009D01*
X26387592Y36372001D01*
X26387704Y36371993D01*
X26390146Y36371697D01*
X26392598Y36371641D01*
X26392599Y36371641D01*
X26395090Y36371584D01*
X26395092Y36371584D01*
X26398918Y36371497D01*
X26400017Y36371399D01*
X26401488Y36370927D01*
X26401500Y36371438D01*
X26401502Y36371438D01*
X26403819Y36371385D01*
X26410874Y36371224D01*
X26415133Y36371036D01*
X26415686Y36371000D01*
X26418143Y36370718D01*
X26420613Y36370677D01*
X26420618Y36370677D01*
X26422091Y36370653D01*
X26422090Y36370581D01*
X26422785Y36370536D01*
X26422787Y36370641D01*
X26424055Y36370620D01*
X26437341Y36370400D01*
X26440129Y36370315D01*
X26444010Y36370143D01*
X26444012Y36370143D01*
X26445658Y36370070D01*
X26446080Y36370130D01*
X26449128Y36370110D01*
X26450761Y36369930D01*
X26459694Y36369823D01*
X26465852Y36369749D01*
X26467808Y36369706D01*
X26471019Y36369604D01*
X26470964Y36367878D01*
X26471515Y36367736D01*
X26471538Y36369682D01*
X26471539Y36369682D01*
X26472344Y36369672D01*
X26485144Y36369519D01*
X26487330Y36369442D01*
X26488680Y36369298D01*
X26499071Y36369208D01*
X26499071Y36369199D01*
X26499913Y36369181D01*
X26499913Y36369201D01*
X26500143Y36369199D01*
X26520398Y36369023D01*
X26521179Y36369013D01*
X26532117Y36368833D01*
X26532107Y36368205D01*
X26532564Y36368264D01*
X26532567Y36368786D01*
X26561289Y36368607D01*
X26561863Y36368602D01*
X26571329Y36368489D01*
X26571302Y36366248D01*
X26571618Y36366173D01*
X26571633Y36368542D01*
X26571638Y36368543D01*
X26572232Y36368539D01*
X26581167Y36368483D01*
X26582311Y36368449D01*
X26583056Y36368373D01*
X26608620Y36368260D01*
X26608779Y36368259D01*
X26615493Y36368201D01*
X26615497Y36368201D01*
X26615477Y36365875D01*
X26615641Y36365836D01*
X26615652Y36368229D01*
X26637391Y36368133D01*
X26637540Y36368132D01*
X26638370Y36368127D01*
X26639584Y36368120D01*
X26640176Y36368102D01*
X26640722Y36368047D01*
X26642240Y36368042D01*
X26642250Y36368042D01*
X26661720Y36367982D01*
X26662043Y36367980D01*
X26666170Y36367954D01*
X26666155Y36365512D01*
X26666239Y36365493D01*
X26666247Y36367968D01*
X26695636Y36367876D01*
X26695763Y36367875D01*
X26704036Y36367839D01*
X26705555Y36367832D01*
X26705825Y36367825D01*
X26706173Y36367790D01*
X26710563Y36367781D01*
X26723448Y36367753D01*
X26723614Y36367752D01*
X26723878Y36367751D01*
X26723868Y36365148D01*
X26723996Y36365120D01*
X26724002Y36367752D01*
X26724367Y36367751D01*
X26760854Y36367673D01*
X26760954Y36367673D01*
X26779731Y36367614D01*
X26779774Y36367613D01*
X26779968Y36367594D01*
X26780520Y36367593D01*
X26780528Y36367593D01*
X26834266Y36367516D01*
X26834335Y36367516D01*
X26862592Y36367456D01*
X26862590Y36366660D01*
X26862680Y36366672D01*
X26862681Y36367447D01*
X26917436Y36367397D01*
X26917488Y36367397D01*
X26945990Y36367356D01*
X26946198Y36367356D01*
X26946267Y36367369D01*
X26946315Y36367371D01*
X26947830Y36367370D01*
X26954501Y36367363D01*
X26954718Y36367358D01*
X26954869Y36367343D01*
X27005996Y36367315D01*
X27010368Y36367313D01*
X27010407Y36367313D01*
X27038286Y36367287D01*
X27038434Y36367287D01*
X27038483Y36367296D01*
X27038507Y36367297D01*
X27040933Y36367296D01*
X27056834Y36367287D01*
X27056991Y36367283D01*
X27057094Y36367273D01*
X27106889Y36367258D01*
X27110745Y36367257D01*
X27110769Y36367257D01*
X27140585Y36367241D01*
X27140693Y36367241D01*
X27140728Y36367248D01*
X27140755Y36367249D01*
X27147271Y36367247D01*
X27169750Y36367240D01*
X27169842Y36367238D01*
X27169904Y36367232D01*
X27221251Y36367225D01*
X27224827Y36367224D01*
X27224840Y36367224D01*
X27253473Y36367216D01*
X27253534Y36367216D01*
X27253554Y36367220D01*
X27253565Y36367220D01*
X27259306Y36367219D01*
X27293753Y36367215D01*
X27293817Y36367213D01*
X27293859Y36367209D01*
X27346473Y36367207D01*
X27351484Y36367207D01*
X27377471Y36367203D01*
X27377508Y36367203D01*
X27377520Y36367206D01*
X27377527Y36367206D01*
X27388347Y36367205D01*
X27429462Y36367203D01*
X27429487Y36367202D01*
X27429506Y36367201D01*
X27496916Y36367201D01*
X27513164Y36367200D01*
X27513173Y36367200D01*
X27513176Y36367201D01*
X27548337Y36367200D01*
X27548350Y36367200D01*
X27548361Y36367199D01*
X27548393Y36367199D01*
X27626758Y36367200D01*
X27632033Y36367200D01*
X27693868Y36367201D01*
X27693900Y36367200D01*
X27693922Y36367198D01*
X27693987Y36367198D01*
X27745784Y36367202D01*
X27777583Y36367202D01*
X27777592Y36367204D01*
X27782011Y36367204D01*
X27827251Y36367207D01*
X27827306Y36367206D01*
X27827345Y36367202D01*
X27827462Y36367202D01*
X27878902Y36367211D01*
X27885428Y36367211D01*
X27910990Y36367213D01*
X27911006Y36367216D01*
X27912718Y36367216D01*
X27949000Y36367223D01*
X27949112Y36367220D01*
X27949184Y36367213D01*
X27949401Y36367213D01*
X28003547Y36367232D01*
X28003565Y36367232D01*
X28009150Y36367233D01*
X28032807Y36367237D01*
X28032832Y36367242D01*
X28032843Y36367242D01*
X28034335Y36367243D01*
X28059702Y36367252D01*
X28059881Y36367248D01*
X28059997Y36367236D01*
X28060346Y36367236D01*
X28115016Y36367271D01*
X28115045Y36367271D01*
X28120503Y36367273D01*
X28143586Y36367281D01*
X28143626Y36367288D01*
X28143642Y36367289D01*
X28144655Y36367290D01*
X28159938Y36367300D01*
X28160174Y36367294D01*
X28160328Y36367279D01*
X28160789Y36367279D01*
X28213355Y36367334D01*
X28213396Y36367334D01*
X28218968Y36367337D01*
X28243884Y36367353D01*
X28243944Y36367364D01*
X28243964Y36367365D01*
X28244292Y36367365D01*
X28250177Y36367372D01*
X28250520Y36367364D01*
X28250743Y36367342D01*
X28251400Y36367343D01*
X28251402Y36367343D01*
X28305254Y36367428D01*
X28305309Y36367428D01*
X28311880Y36367435D01*
X28331361Y36367455D01*
X28331567Y36367450D01*
X28331801Y36367428D01*
X28386412Y36367556D01*
X28386481Y36367556D01*
X28389906Y36367562D01*
X28403376Y36367584D01*
X28403713Y36367576D01*
X28404069Y36367542D01*
X28405066Y36367545D01*
X28405082Y36367545D01*
X28434011Y36367643D01*
X28458699Y36367727D01*
X28458804Y36367693D01*
X28458804Y36367727D01*
X28458805Y36367727D01*
X28466933Y36367746D01*
X28467575Y36367732D01*
X28468124Y36367681D01*
X28469647Y36367688D01*
X28469660Y36367688D01*
X28522542Y36367941D01*
X28523779Y36367918D01*
X28524555Y36367847D01*
X28535473Y36367920D01*
X28571194Y36368159D01*
X28572911Y36368131D01*
X28573965Y36368037D01*
X28591615Y36368201D01*
X28607482Y36368348D01*
X28607662Y36368349D01*
X28613158Y36368400D01*
X28615529Y36368368D01*
X28616967Y36368246D01*
X28619414Y36368277D01*
X28619421Y36368277D01*
X28630923Y36368424D01*
X28648829Y36368653D01*
X28652240Y36368621D01*
X28654252Y36368460D01*
X28656704Y36368503D01*
X28656712Y36368503D01*
X28678662Y36368890D01*
X28682895Y36368876D01*
X28684078Y36368847D01*
X28686525Y36368667D01*
X28704458Y36369104D01*
X28709708Y36369000D01*
X28709709Y36369040D01*
X28712159Y36369003D01*
X28714611Y36368846D01*
X28726793Y36369258D01*
X28735262Y36369187D01*
X28739444Y36368976D01*
X28741897Y36369092D01*
X28741900Y36369092D01*
X28746956Y36369331D01*
X28755653Y36368789D01*
X28755667Y36369248D01*
X28759734Y36369122D01*
X28759736Y36369122D01*
X28762192Y36369046D01*
X28767357Y36369391D01*
X28777770Y36368989D01*
X28777770Y36369116D01*
X28784299Y36369098D01*
X28787892Y36369440D01*
X28788997Y36369435D01*
X28789190Y36369444D01*
X28789190Y36369434D01*
X28799547Y36369388D01*
X28800736Y36369091D01*
X28807259Y36369333D01*
X28809692Y36369663D01*
X28809705Y36369664D01*
X28810000Y36369704D01*
X28810337Y36369718D01*
X28812143Y36369874D01*
X28812150Y36369796D01*
X28822770Y36370251D01*
X28826083Y36369613D01*
X28832583Y36370211D01*
X28835001Y36370675D01*
X28837435Y36371019D01*
X28837454Y36370882D01*
X28848263Y36372000D01*
X28853187Y36371385D01*
X28859634Y36372410D01*
X28862013Y36373031D01*
X28864414Y36373534D01*
X28864469Y36373273D01*
X28873496Y36374800D01*
X28878014Y36374522D01*
X28884384Y36375950D01*
X28885976Y36376474D01*
X28891321Y36377510D01*
X28893006Y36377463D01*
X28899324Y36379105D01*
X28904382Y36380962D01*
X28920830Y36384734D01*
X28920812Y36384810D01*
X28927707Y36386496D01*
X28934773Y36387197D01*
X28940834Y36389623D01*
X28948499Y36393599D01*
X28966387Y36402877D01*
X28966712Y36403046D01*
X28966723Y36403026D01*
X28967082Y36403185D01*
X28968284Y36403581D01*
X28969579Y36404292D01*
X28971818Y36405285D01*
X28973021Y36406106D01*
X28973986Y36406525D01*
X28974959Y36406882D01*
X28975330Y36406918D01*
X28976263Y36407361D01*
X28978076Y36408027D01*
X28980158Y36408715D01*
X28980328Y36408855D01*
X28980683Y36408985D01*
X28984689Y36411365D01*
X28988892Y36413362D01*
X28989003Y36413128D01*
X28996057Y36416579D01*
X29001372Y36418663D01*
X29001377Y36418665D01*
X29001435Y36418516D01*
X29011826Y36423266D01*
X29013773Y36423868D01*
X29025514Y36427498D01*
X29030968Y36431085D01*
X29058729Y36453509D01*
X29071712Y36461380D01*
X29071405Y36461879D01*
X29077456Y36465602D01*
X29083964Y36468436D01*
X29088988Y36472604D01*
X29091439Y36475079D01*
X29091962Y36475490D01*
X29092531Y36476011D01*
X29092570Y36475968D01*
X29107936Y36488043D01*
X29110643Y36490244D01*
X29116729Y36493907D01*
X29121165Y36498696D01*
X29124682Y36503328D01*
X29134077Y36513716D01*
X29138281Y36516647D01*
X29142386Y36521722D01*
X29148716Y36531335D01*
X29154697Y36538577D01*
X29154438Y36538777D01*
X29156924Y36541999D01*
X29156925Y36542001D01*
X29158426Y36543946D01*
X29160042Y36546527D01*
X29160704Y36547429D01*
X29161131Y36548042D01*
X29161146Y36548031D01*
X29168833Y36558501D01*
X29174506Y36565138D01*
X29174506Y36565139D01*
X29180542Y36572200D01*
X29183631Y36580962D01*
X29188007Y36588550D01*
X29188192Y36588973D01*
X29188592Y36589424D01*
X29193680Y36599497D01*
X29194683Y36600975D01*
X29196408Y36603516D01*
X29196422Y36603577D01*
X29196565Y36603845D01*
X29196495Y36603891D01*
X29196997Y36604653D01*
X29196998Y36604655D01*
X29197081Y36604781D01*
X29197083Y36604783D01*
X29199551Y36608532D01*
X29200397Y36607975D01*
X29200880Y36608440D01*
X29199788Y36609096D01*
X29212879Y36630877D01*
X29213838Y36632440D01*
X29219021Y36640718D01*
X29220338Y36639893D01*
X29221201Y36640762D01*
X29219452Y36641813D01*
X29224475Y36650172D01*
X29226160Y36652839D01*
X29227262Y36654337D01*
X29238233Y36672778D01*
X29238708Y36673567D01*
X29241937Y36678858D01*
X29241938Y36678861D01*
X29241940Y36678864D01*
X29243655Y36677817D01*
X29243974Y36678146D01*
X29242092Y36679265D01*
X29252522Y36696799D01*
X29254906Y36700806D01*
X29258521Y36706820D01*
X29259115Y36707763D01*
X29259830Y36708742D01*
X29268407Y36723265D01*
X29268748Y36723838D01*
X29268778Y36723887D01*
X29269439Y36724987D01*
X29269439Y36724988D01*
X29269443Y36724994D01*
X29271389Y36723824D01*
X29271448Y36723887D01*
X29269465Y36725058D01*
X29287527Y36755641D01*
X29287702Y36755935D01*
X29297149Y36771813D01*
X29297283Y36772028D01*
X29297659Y36772545D01*
X29325304Y36819607D01*
X29339728Y36844032D01*
X29339865Y36843951D01*
X29340976Y36845940D01*
X29340908Y36845980D01*
X29360211Y36878976D01*
X29368471Y36893095D01*
X29382926Y36917703D01*
X29383010Y36917935D01*
X29383078Y36918064D01*
X29388899Y36928014D01*
X29389380Y36928793D01*
X29389718Y36929261D01*
X29397326Y36942308D01*
X29417253Y36976481D01*
X29417324Y36976603D01*
X29431392Y37000650D01*
X29431393Y37000653D01*
X29431682Y37001146D01*
X29431747Y37001328D01*
X29431804Y37001437D01*
X29434174Y37005500D01*
X29443558Y37021592D01*
X29443930Y37022197D01*
X29444200Y37022572D01*
X29471935Y37070258D01*
X29486123Y37094589D01*
X29486175Y37094735D01*
X29486215Y37094812D01*
X29503956Y37125313D01*
X29504253Y37125797D01*
X29504474Y37126105D01*
X29531838Y37173254D01*
X29546357Y37198217D01*
X29546400Y37198337D01*
X29546434Y37198403D01*
X29570219Y37239384D01*
X29570470Y37239793D01*
X29570643Y37240034D01*
X29598124Y37287466D01*
X29612494Y37312225D01*
X29612529Y37312323D01*
X29612552Y37312368D01*
X29613823Y37314562D01*
X29642479Y37364021D01*
X29642664Y37364323D01*
X29642817Y37364536D01*
X29669878Y37411311D01*
X29669929Y37411357D01*
X29669911Y37411368D01*
X29684511Y37436566D01*
X29684513Y37436570D01*
X29684640Y37436789D01*
X29684668Y37436867D01*
X29684695Y37436919D01*
X29720848Y37499409D01*
X29720980Y37499625D01*
X29721079Y37499764D01*
X29748544Y37547283D01*
X29762897Y37572091D01*
X29762918Y37572149D01*
X29762930Y37572173D01*
X29768972Y37582627D01*
X29769083Y37582809D01*
X29769163Y37582920D01*
X29783324Y37607440D01*
X29797247Y37631547D01*
X29797264Y37631577D01*
X29802479Y37640600D01*
X29810967Y37655285D01*
X29810983Y37655331D01*
X29810990Y37655344D01*
X29830172Y37688556D01*
X29830290Y37688750D01*
X29830388Y37688888D01*
X29830638Y37689320D01*
X29830647Y37689336D01*
X29857432Y37735758D01*
X29857452Y37735793D01*
X29872071Y37761106D01*
X29872074Y37761111D01*
X29872155Y37761252D01*
X29872173Y37761303D01*
X29872192Y37761340D01*
X29889748Y37791766D01*
X29889879Y37791981D01*
X29889970Y37792109D01*
X29917865Y37840499D01*
X29917868Y37840497D01*
X29917882Y37840529D01*
X29931709Y37864492D01*
X29931728Y37864547D01*
X29931739Y37864568D01*
X29947360Y37891666D01*
X29947499Y37891895D01*
X29947601Y37892037D01*
X29974778Y37939229D01*
X29974781Y37939227D01*
X29974796Y37939260D01*
X29989304Y37964428D01*
X29989326Y37964488D01*
X29989341Y37964518D01*
X29997943Y37979455D01*
X30002706Y37987726D01*
X30002848Y37987959D01*
X30002956Y37988111D01*
X30003225Y37988579D01*
X30003238Y37988600D01*
X30030735Y38036398D01*
X30030757Y38036437D01*
X30044531Y38060355D01*
X30044533Y38060359D01*
X30044624Y38060517D01*
X30044646Y38060581D01*
X30055471Y38079397D01*
X30055602Y38079612D01*
X30055723Y38079782D01*
X30083577Y38128254D01*
X30097352Y38152198D01*
X30097373Y38152259D01*
X30097384Y38152280D01*
X30105275Y38166014D01*
X30105464Y38166325D01*
X30105592Y38166504D01*
X30105909Y38167056D01*
X30105924Y38167081D01*
X30132794Y38213901D01*
X30132822Y38213950D01*
X30147055Y38238719D01*
X30147172Y38238922D01*
X30147197Y38238993D01*
X30147208Y38239014D01*
X30151911Y38247211D01*
X30152099Y38247521D01*
X30152238Y38247716D01*
X30179466Y38295224D01*
X30193770Y38320147D01*
X30193796Y38320222D01*
X30193822Y38320273D01*
X30194949Y38322239D01*
X30195190Y38322637D01*
X30195367Y38322886D01*
X30203532Y38337156D01*
X30222723Y38370700D01*
X30222761Y38370766D01*
X30234394Y38391063D01*
X30234504Y38391246D01*
X30234659Y38391463D01*
X30262303Y38439880D01*
X30262304Y38439881D01*
X30269352Y38452200D01*
X30269587Y38452588D01*
X30269817Y38452914D01*
X30270377Y38453898D01*
X30270390Y38453919D01*
X30296806Y38500310D01*
X30296867Y38500417D01*
X30299797Y38505548D01*
X30300197Y38506213D01*
X30300569Y38506741D01*
X30325266Y38550276D01*
X30326085Y38551645D01*
X30326661Y38552467D01*
X30345480Y38585829D01*
X30346974Y38588346D01*
X30347971Y38589781D01*
X30349166Y38591921D01*
X30349180Y38591943D01*
X30359463Y38610354D01*
X30362233Y38614838D01*
X30362200Y38614858D01*
X30363484Y38616958D01*
X30364867Y38618990D01*
X30370593Y38629475D01*
X30377010Y38638821D01*
X30377404Y38639172D01*
X30380885Y38644695D01*
X30396782Y38676411D01*
X30403155Y38687348D01*
X30417129Y38708194D01*
X30421082Y38714091D01*
X30423066Y38720311D01*
X30431434Y38759389D01*
X30433134Y38766168D01*
X30435347Y38773851D01*
X30436379Y38777211D01*
X30440989Y38791324D01*
X30440985Y38791395D01*
X30441397Y38792959D01*
X30440895Y38793103D01*
X30440895Y38793112D01*
X30441510Y38795246D01*
X30443610Y38801375D01*
X30443971Y38802748D01*
X30444031Y38802897D01*
X30444201Y38803100D01*
X30444746Y38804691D01*
X30448731Y38814676D01*
X30449369Y38821173D01*
X30449374Y38856040D01*
X30449376Y38869062D01*
X30449412Y38871745D01*
X30449707Y38882741D01*
X30451405Y38898642D01*
X30453445Y38909488D01*
X30454758Y38916466D01*
X30454132Y38922964D01*
X30450988Y38938996D01*
X36200233Y38938996D01*
X36200241Y38938949D01*
X36205853Y38932634D01*
X36344106Y38840256D01*
X36352177Y38835874D01*
X36525908Y38761232D01*
X36534633Y38758397D01*
X36719064Y38716665D01*
X36728169Y38715467D01*
X36917103Y38708043D01*
X36926274Y38708523D01*
X37113405Y38735656D01*
X37122334Y38737800D01*
X37301386Y38798580D01*
X37309770Y38802313D01*
X37474748Y38894705D01*
X37482315Y38899906D01*
X37520545Y38931701D01*
X37527778Y38943165D01*
X37527589Y38946044D01*
X37525554Y38949133D01*
X36876268Y39598420D01*
X36864189Y39604575D01*
X36859077Y39603765D01*
X36206387Y38951074D01*
X36200233Y38938996D01*
X30450988Y38938996D01*
X30450867Y38939612D01*
X30444729Y38970914D01*
X30444549Y38971859D01*
X30443851Y38975608D01*
X30442156Y38995041D01*
X30442244Y39003731D01*
X30442316Y39010829D01*
X30440564Y39017118D01*
X30434389Y39033064D01*
X30430865Y39047793D01*
X30430283Y39047650D01*
X30428588Y39054541D01*
X30427877Y39061606D01*
X30425443Y39067663D01*
X30423153Y39072063D01*
X30419755Y39080775D01*
X30419444Y39080642D01*
X30416873Y39086643D01*
X30415691Y39088793D01*
X30415684Y39088808D01*
X30408229Y39102372D01*
X30406314Y39106030D01*
X30405757Y39107150D01*
X30405324Y39108120D01*
X30403825Y39111992D01*
X30403005Y39113319D01*
X30402333Y39114825D01*
X30398542Y39124378D01*
X30395192Y39128002D01*
X30394513Y39130687D01*
X30393328Y39130023D01*
X30389249Y39137306D01*
X30387790Y39140006D01*
X30385912Y39143613D01*
X30386047Y39143683D01*
X30385563Y39144343D01*
X30385172Y39145035D01*
X30380458Y39154091D01*
X30381035Y39154391D01*
X30380404Y39156782D01*
X30378982Y39155977D01*
X30371698Y39168854D01*
X30371137Y39169859D01*
X30364347Y39182213D01*
X30364346Y39182214D01*
X30364370Y39182227D01*
X30362595Y39185246D01*
X30362589Y39185242D01*
X30362331Y39185696D01*
X30350308Y39206824D01*
X30349997Y39207375D01*
X30345217Y39215907D01*
X30347132Y39216980D01*
X30347015Y39217371D01*
X30344968Y39216206D01*
X30335689Y39232512D01*
X30335166Y39233483D01*
X30334871Y39234141D01*
X30328998Y39244420D01*
X30324623Y39252077D01*
X30324411Y39252449D01*
X30324156Y39252900D01*
X30321666Y39257301D01*
X30323685Y39258443D01*
X30323639Y39258595D01*
X30321573Y39257414D01*
X30307850Y39281431D01*
X30307765Y39281580D01*
X30303206Y39289593D01*
X30303061Y39289861D01*
X30302866Y39290294D01*
X30294314Y39305216D01*
X30293682Y39306327D01*
X30295644Y39307444D01*
X30295628Y39307498D01*
X30293655Y39306367D01*
X30275648Y39337787D01*
X30267120Y39352712D01*
X30267060Y39352823D01*
X30266937Y39353096D01*
X30239863Y39400229D01*
X30227544Y39421726D01*
X30227536Y39421741D01*
X30227463Y39421902D01*
X30200262Y39469170D01*
X30185868Y39494228D01*
X30185810Y39494296D01*
X30185734Y39494415D01*
X30185095Y39495527D01*
X30184934Y39495824D01*
X30184819Y39496077D01*
X30157336Y39543763D01*
X30157306Y39543816D01*
X30143285Y39568179D01*
X30143284Y39568180D01*
X30143152Y39568410D01*
X30143093Y39568478D01*
X30143073Y39568510D01*
X30139658Y39574434D01*
X30139480Y39574761D01*
X30139384Y39574974D01*
X30111553Y39623199D01*
X30097661Y39647303D01*
X30097609Y39647364D01*
X30097590Y39647394D01*
X30091777Y39657466D01*
X30091625Y39657745D01*
X30091539Y39657934D01*
X30063871Y39705821D01*
X30063184Y39707012D01*
X30049864Y39730094D01*
X30049858Y39730103D01*
X30049767Y39730261D01*
X30049724Y39730311D01*
X30049702Y39730345D01*
X30041882Y39743881D01*
X30041739Y39744143D01*
X30041666Y39744304D01*
X30014124Y39791924D01*
X30014103Y39791962D01*
X30001507Y39813762D01*
X35782050Y39813762D01*
X35794417Y39625078D01*
X35795851Y39616021D01*
X35842396Y39432751D01*
X35845465Y39424086D01*
X35924622Y39252382D01*
X35929219Y39244420D01*
X36006935Y39134454D01*
X36017794Y39126345D01*
X36018553Y39126335D01*
X36024786Y39130099D01*
X36673420Y39778732D01*
X36678748Y39789189D01*
X37050425Y39789189D01*
X37051235Y39784077D01*
X37701841Y39133472D01*
X37713919Y39127318D01*
X37716769Y39127770D01*
X37719657Y39130077D01*
X37755094Y39172685D01*
X37760295Y39180252D01*
X37852687Y39345230D01*
X37856420Y39353614D01*
X37917200Y39532666D01*
X37919344Y39541595D01*
X37946713Y39730356D01*
X37947215Y39736247D01*
X37948546Y39787044D01*
X37948352Y39792949D01*
X37930900Y39982887D01*
X37929227Y39991909D01*
X37877900Y40173899D01*
X37874609Y40182472D01*
X37790983Y40352049D01*
X37786177Y40359891D01*
X37722619Y40445007D01*
X37711551Y40452829D01*
X37710080Y40452810D01*
X37704904Y40449591D01*
X37056580Y39801268D01*
X37050425Y39789189D01*
X36678748Y39789189D01*
X36679575Y39790811D01*
X36678765Y39795923D01*
X36028434Y40446253D01*
X36016356Y40452407D01*
X36014203Y40452066D01*
X36010414Y40448956D01*
X35959051Y40383803D01*
X35954051Y40376104D01*
X35866009Y40208764D01*
X35862496Y40200282D01*
X35806424Y40019700D01*
X35804516Y40010723D01*
X35782290Y39822948D01*
X35782050Y39813762D01*
X30001507Y39813762D01*
X29999947Y39816462D01*
X29999943Y39816469D01*
X29999853Y39816624D01*
X29999816Y39816667D01*
X29999797Y39816697D01*
X29990333Y39833059D01*
X29990214Y39833277D01*
X29990150Y39833417D01*
X29962144Y39881795D01*
X29948298Y39905735D01*
X29948263Y39905775D01*
X29948251Y39905794D01*
X29937558Y39924264D01*
X29937439Y39924482D01*
X29937370Y39924634D01*
X29909800Y39972214D01*
X29895490Y39996934D01*
X29895452Y39996979D01*
X29895436Y39997003D01*
X29883886Y40016937D01*
X29883772Y40017145D01*
X29883712Y40017277D01*
X29881272Y40021486D01*
X29855039Y40066720D01*
X29855021Y40066751D01*
X29841798Y40089571D01*
X29841768Y40089606D01*
X29841754Y40089628D01*
X29829724Y40110372D01*
X29829619Y40110564D01*
X29829556Y40110701D01*
X29802419Y40157455D01*
X29802400Y40157488D01*
X29787709Y40182822D01*
X29787698Y40182840D01*
X29787618Y40182977D01*
X29787583Y40183019D01*
X29787567Y40183043D01*
X29775455Y40203909D01*
X29775353Y40204096D01*
X29775286Y40204243D01*
X29747065Y40252822D01*
X29733321Y40276502D01*
X29733288Y40276540D01*
X29733274Y40276562D01*
X29721455Y40296908D01*
X29721348Y40297102D01*
X29721287Y40297237D01*
X29692803Y40346228D01*
X29692794Y40346266D01*
X29692784Y40346260D01*
X29679377Y40369340D01*
X29679372Y40369348D01*
X29679294Y40369482D01*
X29679257Y40369525D01*
X29668107Y40388701D01*
X29668010Y40388878D01*
X29667938Y40389036D01*
X29654279Y40412507D01*
X29640982Y40435354D01*
X29625923Y40461255D01*
X29625886Y40461299D01*
X29625869Y40461325D01*
X29615830Y40478574D01*
X29615696Y40478817D01*
X29615628Y40478966D01*
X29587299Y40527598D01*
X29587306Y40527602D01*
X29587280Y40527631D01*
X29573583Y40551166D01*
X29573546Y40551209D01*
X29573534Y40551227D01*
X29564955Y40565956D01*
X29564812Y40566215D01*
X29564732Y40566390D01*
X29537023Y40613905D01*
X29523124Y40637765D01*
X36201455Y40637765D01*
X36201784Y40634192D01*
X36203177Y40632136D01*
X36853732Y39981580D01*
X36865811Y39975425D01*
X36870923Y39976235D01*
X37523645Y40628958D01*
X37529799Y40641036D01*
X37529128Y40645271D01*
X37528367Y40646277D01*
X37528051Y40646569D01*
X37520773Y40652154D01*
X37360856Y40753053D01*
X37352669Y40757225D01*
X37177052Y40827289D01*
X37168241Y40829899D01*
X36982793Y40866787D01*
X36973655Y40867747D01*
X36784593Y40870223D01*
X36775436Y40869502D01*
X36589086Y40837481D01*
X36580207Y40835101D01*
X36402819Y40769660D01*
X36394520Y40765701D01*
X36232024Y40669026D01*
X36224599Y40663632D01*
X36208385Y40649412D01*
X36201455Y40637765D01*
X29523124Y40637765D01*
X29522666Y40638552D01*
X29522622Y40638603D01*
X29522596Y40638643D01*
X29515889Y40650146D01*
X29515727Y40650439D01*
X29515638Y40650633D01*
X29487309Y40699153D01*
X29473540Y40722764D01*
X29473494Y40722817D01*
X29473476Y40722845D01*
X29469008Y40730497D01*
X29468827Y40730825D01*
X29468724Y40731049D01*
X29441117Y40778266D01*
X29426599Y40803131D01*
X29426539Y40803200D01*
X29426529Y40803216D01*
X29424722Y40806305D01*
X29424493Y40806721D01*
X29424371Y40806985D01*
X29410952Y40829899D01*
X29396450Y40854660D01*
X29396411Y40854726D01*
X29388799Y40867747D01*
X29383159Y40877393D01*
X29383063Y40877567D01*
X29382958Y40877793D01*
X29355297Y40924929D01*
X29345172Y40942219D01*
X29345011Y40942508D01*
X29344861Y40942832D01*
X29316681Y40990731D01*
X29316622Y40990833D01*
X29310987Y41000437D01*
X29310679Y41000991D01*
X29310446Y41001490D01*
X29309648Y41002842D01*
X29296297Y41025458D01*
X29282781Y41086145D01*
X29307517Y41143186D01*
X29361058Y41174794D01*
X29382927Y41177200D01*
X41076600Y41177200D01*
X41135731Y41157987D01*
X41172276Y41107687D01*
X41177200Y41076600D01*
X41177200Y21280415D01*
X43194100Y21280415D01*
X43253231Y21261202D01*
X43289776Y21210902D01*
X43294700Y21179815D01*
X43294700Y4900600D01*
X43275487Y4841469D01*
X43225187Y4804924D01*
X43194100Y4800000D01*
X40200000Y4800000D01*
X38800000Y3200000D01*
X38800000Y405900D01*
X38780787Y346769D01*
X38730487Y310224D01*
X38699400Y305300D01*
X29035515Y305300D01*
X29018046Y306828D01*
X29008667Y308482D01*
X29008666Y308482D01*
X29000000Y310010D01*
X28991330Y308481D01*
X28986716Y308481D01*
X28968598Y307546D01*
X28765993Y322037D01*
X28751786Y324080D01*
X28529577Y372418D01*
X28515805Y376462D01*
X28302734Y455934D01*
X28289688Y461891D01*
X28090080Y570886D01*
X28078017Y578639D01*
X27895971Y714917D01*
X27885123Y724316D01*
X27724316Y885123D01*
X27714917Y895971D01*
X27578639Y1078017D01*
X27570886Y1090080D01*
X27461891Y1289688D01*
X27455934Y1302734D01*
X27376462Y1515805D01*
X27372418Y1529577D01*
X27324080Y1751786D01*
X27322037Y1765993D01*
X27307546Y1968598D01*
X27308481Y1986716D01*
X27308481Y1991330D01*
X27310010Y2000000D01*
X27306828Y2018046D01*
X27305300Y2035515D01*
X27305300Y5854642D01*
X34512321Y5854642D01*
X34515488Y5828022D01*
X34548805Y5753015D01*
X34557686Y5733022D01*
X34561657Y5724081D01*
X34642149Y5643730D01*
X34684965Y5624801D01*
X34739250Y5600801D01*
X34739252Y5600800D01*
X34746170Y5597742D01*
X34758806Y5596269D01*
X34769351Y5595039D01*
X34769359Y5595039D01*
X34772263Y5594700D01*
X36462979Y5594700D01*
X36465927Y5595051D01*
X36465932Y5595051D01*
X36482103Y5596975D01*
X36482104Y5596975D01*
X36489599Y5597867D01*
X36564606Y5631184D01*
X36585053Y5640266D01*
X36585054Y5640267D01*
X36593540Y5644036D01*
X36673891Y5724528D01*
X36708828Y5803552D01*
X36716820Y5821629D01*
X36716821Y5821631D01*
X36719879Y5828549D01*
X36722921Y5854642D01*
X36722921Y5868556D01*
X37472413Y5868556D01*
X37472912Y5865407D01*
X37474879Y5862917D01*
X37509431Y5833510D01*
X37517473Y5827920D01*
X37689317Y5731880D01*
X37698292Y5727959D01*
X37885515Y5667126D01*
X37895081Y5665023D01*
X38090553Y5641715D01*
X38100345Y5641509D01*
X38296629Y5656613D01*
X38306272Y5658313D01*
X38495876Y5711252D01*
X38505012Y5714796D01*
X38680721Y5803552D01*
X38688992Y5808801D01*
X38754759Y5860184D01*
X38762338Y5871421D01*
X38762266Y5873480D01*
X38759523Y5877786D01*
X38128889Y6508420D01*
X38116810Y6514575D01*
X38111698Y6513765D01*
X37478568Y5880635D01*
X37472413Y5868556D01*
X36722921Y5868556D01*
X36722921Y6709885D01*
X37059036Y6709885D01*
X37075508Y6513721D01*
X37077278Y6504078D01*
X37131538Y6314851D01*
X37135146Y6305740D01*
X37225128Y6130653D01*
X37230432Y6122422D01*
X37277703Y6062780D01*
X37288994Y6055279D01*
X37291241Y6055373D01*
X37295265Y6057956D01*
X37926041Y6688732D01*
X37931369Y6699189D01*
X38303046Y6699189D01*
X38303856Y6694077D01*
X38937218Y6060715D01*
X38949297Y6054560D01*
X38952630Y6055088D01*
X38954874Y6056847D01*
X38979844Y6085777D01*
X38985488Y6093776D01*
X39082727Y6264947D01*
X39086710Y6273894D01*
X39148849Y6460690D01*
X39151019Y6470238D01*
X39175957Y6667646D01*
X39176347Y6673236D01*
X39176682Y6697186D01*
X39176447Y6702798D01*
X39157031Y6900815D01*
X39155128Y6910429D01*
X39098231Y7098878D01*
X39094495Y7107941D01*
X39002082Y7281744D01*
X38996652Y7289917D01*
X38957848Y7337495D01*
X38946454Y7344839D01*
X38943833Y7344692D01*
X38940363Y7342430D01*
X38309201Y6711268D01*
X38303046Y6699189D01*
X37931369Y6699189D01*
X37932196Y6700811D01*
X37931386Y6705923D01*
X37298451Y7338858D01*
X37286372Y7345013D01*
X37283409Y7344543D01*
X37280672Y7342366D01*
X37246904Y7302125D01*
X37241373Y7294047D01*
X37146534Y7121533D01*
X37142678Y7112535D01*
X37083154Y6924893D01*
X37081116Y6915306D01*
X37059172Y6719675D01*
X37059036Y6709885D01*
X36722921Y6709885D01*
X36722921Y7528712D01*
X37472860Y7528712D01*
X37472979Y7526277D01*
X37475403Y7522530D01*
X38106353Y6891580D01*
X38118432Y6885425D01*
X38123544Y6886235D01*
X38756320Y7519011D01*
X38762475Y7531090D01*
X38762035Y7533867D01*
X38759645Y7536850D01*
X38713650Y7574901D01*
X38705538Y7580372D01*
X38532362Y7674008D01*
X38523342Y7677799D01*
X38335283Y7736013D01*
X38325691Y7737982D01*
X38129912Y7758559D01*
X38120111Y7758628D01*
X37924064Y7740786D01*
X37914446Y7738951D01*
X37725598Y7683370D01*
X37716511Y7679699D01*
X37542053Y7588494D01*
X37533866Y7583137D01*
X37480282Y7540054D01*
X37472860Y7528712D01*
X36722921Y7528712D01*
X36722921Y7545358D01*
X36719754Y7571978D01*
X36686437Y7646985D01*
X36677355Y7667432D01*
X36677354Y7667433D01*
X36673585Y7675919D01*
X36593093Y7756270D01*
X36550277Y7775199D01*
X36495992Y7799199D01*
X36495990Y7799200D01*
X36489072Y7802258D01*
X36476436Y7803731D01*
X36465891Y7804961D01*
X36465883Y7804961D01*
X36462979Y7805300D01*
X34772263Y7805300D01*
X34769315Y7804949D01*
X34769310Y7804949D01*
X34753139Y7803025D01*
X34753138Y7803025D01*
X34745643Y7802133D01*
X34670636Y7768816D01*
X34650845Y7760025D01*
X34641702Y7755964D01*
X34561351Y7675472D01*
X34557596Y7666978D01*
X34522898Y7588494D01*
X34515363Y7571451D01*
X34512321Y7545358D01*
X34512321Y5854642D01*
X27305300Y5854642D01*
X27305300Y12160000D01*
X31004989Y12160000D01*
X31023782Y11981194D01*
X31079341Y11810202D01*
X31081977Y11805636D01*
X31081978Y11805634D01*
X31124577Y11731851D01*
X31169236Y11654498D01*
X31289540Y11520887D01*
X31434994Y11415209D01*
X31599242Y11342081D01*
X31604392Y11340986D01*
X31604393Y11340986D01*
X31769950Y11305795D01*
X31769955Y11305794D01*
X31775104Y11304700D01*
X31954896Y11304700D01*
X31960045Y11305794D01*
X31960050Y11305795D01*
X32125607Y11340986D01*
X32125608Y11340986D01*
X32130758Y11342081D01*
X32295006Y11415209D01*
X32440460Y11520887D01*
X32471510Y11555372D01*
X38960149Y11555372D01*
X38974036Y11343497D01*
X38975168Y11339039D01*
X38975169Y11339034D01*
X38996728Y11254145D01*
X39026301Y11137701D01*
X39115195Y10944876D01*
X39237740Y10771479D01*
X39389832Y10623317D01*
X39393665Y10620756D01*
X39393666Y10620755D01*
X39562542Y10507915D01*
X39562546Y10507913D01*
X39566377Y10505353D01*
X39761463Y10421538D01*
X39968557Y10374677D01*
X40074640Y10370509D01*
X40176114Y10366522D01*
X40176115Y10366522D01*
X40180723Y10366341D01*
X40185280Y10367002D01*
X40185285Y10367002D01*
X40386293Y10396147D01*
X40386299Y10396148D01*
X40390855Y10396809D01*
X40395218Y10398290D01*
X40395222Y10398291D01*
X40587553Y10463579D01*
X40591916Y10465060D01*
X40777172Y10568808D01*
X40839632Y10620755D01*
X40936873Y10701630D01*
X40940420Y10704580D01*
X40947120Y10712636D01*
X41073244Y10864283D01*
X41073246Y10864285D01*
X41076192Y10867828D01*
X41179940Y11053084D01*
X41248191Y11254145D01*
X41248852Y11258701D01*
X41248853Y11258707D01*
X41278234Y11461345D01*
X41278234Y11461347D01*
X41278659Y11464277D01*
X41279518Y11497083D01*
X41280172Y11522044D01*
X41280172Y11522051D01*
X41280249Y11525000D01*
X41260821Y11736439D01*
X41203186Y11940796D01*
X41191445Y11964605D01*
X41111318Y12127086D01*
X41111316Y12127089D01*
X41109275Y12131228D01*
X41083876Y12165242D01*
X40984996Y12297659D01*
X40984991Y12297664D01*
X40982233Y12301358D01*
X40826315Y12445487D01*
X40822419Y12447945D01*
X40822414Y12447949D01*
X40717148Y12514366D01*
X40646742Y12558789D01*
X40449529Y12637470D01*
X40241279Y12678893D01*
X40135124Y12680282D01*
X40033582Y12681612D01*
X40033578Y12681612D01*
X40028968Y12681672D01*
X40024423Y12680891D01*
X39824253Y12646496D01*
X39824248Y12646495D01*
X39819705Y12645714D01*
X39720102Y12608969D01*
X39624831Y12573822D01*
X39624829Y12573821D01*
X39620500Y12572224D01*
X39616532Y12569863D01*
X39441987Y12466020D01*
X39441982Y12466016D01*
X39438023Y12463661D01*
X39434557Y12460622D01*
X39434555Y12460620D01*
X39281852Y12326704D01*
X39281849Y12326701D01*
X39278385Y12323663D01*
X39146933Y12156917D01*
X39048070Y11969008D01*
X39039310Y11940796D01*
X38997341Y11805634D01*
X38985105Y11766229D01*
X38960149Y11555372D01*
X32471510Y11555372D01*
X32560764Y11654498D01*
X32605424Y11731851D01*
X32648022Y11805634D01*
X32648023Y11805636D01*
X32650659Y11810202D01*
X32706218Y11981194D01*
X32725011Y12160000D01*
X32706218Y12338806D01*
X32650659Y12509798D01*
X32623796Y12556327D01*
X32563400Y12660937D01*
X32563398Y12660940D01*
X32560764Y12665502D01*
X32513778Y12717685D01*
X32488489Y12774484D01*
X32501416Y12835300D01*
X32513778Y12852315D01*
X32557237Y12900581D01*
X32560764Y12904498D01*
X32566537Y12914496D01*
X32648022Y13055634D01*
X32648023Y13055636D01*
X32650659Y13060202D01*
X32706218Y13231194D01*
X32725011Y13410000D01*
X32721553Y13442902D01*
X32706769Y13583566D01*
X32706768Y13583568D01*
X32706218Y13588806D01*
X32650659Y13759798D01*
X32648022Y13764366D01*
X32563400Y13910937D01*
X32563398Y13910940D01*
X32560764Y13915502D01*
X32480831Y14004277D01*
X32460338Y14027037D01*
X32435050Y14083836D01*
X32437502Y14095372D01*
X38960149Y14095372D01*
X38974036Y13883497D01*
X38975168Y13879039D01*
X38975169Y13879034D01*
X38996728Y13794145D01*
X39026301Y13677701D01*
X39115195Y13484876D01*
X39237740Y13311479D01*
X39389832Y13163317D01*
X39393665Y13160756D01*
X39393666Y13160755D01*
X39562542Y13047915D01*
X39562546Y13047913D01*
X39566377Y13045353D01*
X39761463Y12961538D01*
X39968557Y12914677D01*
X40074640Y12910509D01*
X40176114Y12906522D01*
X40176115Y12906522D01*
X40180723Y12906341D01*
X40185280Y12907002D01*
X40185285Y12907002D01*
X40386293Y12936147D01*
X40386299Y12936148D01*
X40390855Y12936809D01*
X40395218Y12938290D01*
X40395222Y12938291D01*
X40587553Y13003579D01*
X40591916Y13005060D01*
X40777172Y13108808D01*
X40839632Y13160755D01*
X40936873Y13241630D01*
X40940420Y13244580D01*
X40947120Y13252636D01*
X41073244Y13404283D01*
X41073246Y13404285D01*
X41076192Y13407828D01*
X41179940Y13593084D01*
X41236532Y13759798D01*
X41246709Y13789778D01*
X41246710Y13789782D01*
X41248191Y13794145D01*
X41248852Y13798701D01*
X41248853Y13798707D01*
X41278234Y14001345D01*
X41278234Y14001347D01*
X41278659Y14004277D01*
X41279833Y14049113D01*
X41280172Y14062044D01*
X41280172Y14062051D01*
X41280249Y14065000D01*
X41269108Y14186254D01*
X41261243Y14271851D01*
X41261242Y14271856D01*
X41260821Y14276439D01*
X41203186Y14480796D01*
X41191445Y14504605D01*
X41111318Y14667086D01*
X41111316Y14667089D01*
X41109275Y14671228D01*
X41087389Y14700537D01*
X40984996Y14837659D01*
X40984991Y14837664D01*
X40982233Y14841358D01*
X40977834Y14845425D01*
X40829703Y14982355D01*
X40826315Y14985487D01*
X40822419Y14987945D01*
X40822414Y14987949D01*
X40736529Y15042138D01*
X40646742Y15098789D01*
X40449529Y15177470D01*
X40241279Y15218893D01*
X40135123Y15220283D01*
X40033582Y15221612D01*
X40033578Y15221612D01*
X40028968Y15221672D01*
X40024423Y15220891D01*
X39824253Y15186496D01*
X39824248Y15186495D01*
X39819705Y15185714D01*
X39720102Y15148969D01*
X39624831Y15113822D01*
X39624829Y15113821D01*
X39620500Y15112224D01*
X39616532Y15109863D01*
X39441987Y15006020D01*
X39441982Y15006016D01*
X39438023Y15003661D01*
X39434557Y15000622D01*
X39434555Y15000620D01*
X39281852Y14866704D01*
X39281849Y14866701D01*
X39278385Y14863663D01*
X39275532Y14860044D01*
X39275531Y14860043D01*
X39212659Y14780290D01*
X39146933Y14696917D01*
X39048070Y14509008D01*
X39039310Y14480796D01*
X38987116Y14312704D01*
X38985105Y14306229D01*
X38978553Y14250872D01*
X38962515Y14115359D01*
X38960149Y14095372D01*
X32437502Y14095372D01*
X32447977Y14144651D01*
X32494182Y14186254D01*
X32517377Y14193125D01*
X32524147Y14199156D01*
X32581501Y14285482D01*
X32586613Y14295429D01*
X32646670Y14453528D01*
X32649451Y14464358D01*
X32673331Y14634274D01*
X32673816Y14640577D01*
X32674043Y14656835D01*
X32673734Y14663144D01*
X32654608Y14833660D01*
X32652130Y14844567D01*
X32596512Y15004279D01*
X32591678Y15014369D01*
X32526287Y15119016D01*
X32516258Y15127431D01*
X32508162Y15122850D01*
X32056580Y14671268D01*
X32050425Y14659189D01*
X32051235Y14654077D01*
X32371772Y14333540D01*
X32399998Y14278142D01*
X32390272Y14216734D01*
X32346308Y14172770D01*
X32284900Y14163044D01*
X32259719Y14170502D01*
X32135574Y14225775D01*
X32135572Y14225776D01*
X32130758Y14227919D01*
X32130868Y14228166D01*
X32093816Y14250872D01*
X31876268Y14468420D01*
X31864189Y14474575D01*
X31859077Y14473765D01*
X31636184Y14250872D01*
X31599132Y14228166D01*
X31599242Y14227919D01*
X31594428Y14225776D01*
X31594426Y14225775D01*
X31470280Y14170501D01*
X31408446Y14164002D01*
X31354602Y14195089D01*
X31329313Y14251888D01*
X31342240Y14312704D01*
X31358227Y14333539D01*
X31673420Y14648732D01*
X31679575Y14660811D01*
X31678765Y14665923D01*
X31223922Y15120766D01*
X31212056Y15126812D01*
X31205430Y15120825D01*
X31143337Y15024475D01*
X31138368Y15014465D01*
X31080523Y14855537D01*
X31077894Y14844671D01*
X31056696Y14676873D01*
X31056541Y14665703D01*
X31073044Y14497380D01*
X31075368Y14486444D01*
X31128754Y14325962D01*
X31133441Y14315819D01*
X31203291Y14200484D01*
X31222665Y14183761D01*
X31258870Y14168541D01*
X31291077Y14115359D01*
X31285874Y14053403D01*
X31267897Y14025076D01*
X31169236Y13915502D01*
X31166602Y13910940D01*
X31166600Y13910937D01*
X31081978Y13764366D01*
X31079341Y13759798D01*
X31023782Y13588806D01*
X31023232Y13583568D01*
X31023231Y13583566D01*
X31008447Y13442902D01*
X31004989Y13410000D01*
X31023782Y13231194D01*
X31079341Y13060202D01*
X31081977Y13055636D01*
X31081978Y13055634D01*
X31163464Y12914496D01*
X31169236Y12904498D01*
X31172763Y12900581D01*
X31216222Y12852315D01*
X31241511Y12795516D01*
X31228584Y12734700D01*
X31216222Y12717685D01*
X31169236Y12665502D01*
X31166602Y12660940D01*
X31166600Y12660937D01*
X31106204Y12556327D01*
X31079341Y12509798D01*
X31023782Y12338806D01*
X31004989Y12160000D01*
X27305300Y12160000D01*
X27305300Y15284189D01*
X31425425Y15284189D01*
X31426235Y15279077D01*
X31853732Y14851580D01*
X31865811Y14845425D01*
X31870923Y14846235D01*
X32298420Y15273732D01*
X32304575Y15285811D01*
X32303765Y15290923D01*
X31876268Y15718420D01*
X31864189Y15724575D01*
X31859077Y15723765D01*
X31431580Y15296268D01*
X31425425Y15284189D01*
X27305300Y15284189D01*
X27305300Y15915703D01*
X31056541Y15915703D01*
X31073044Y15747380D01*
X31075368Y15736444D01*
X31128754Y15575962D01*
X31133441Y15565819D01*
X31203291Y15450484D01*
X31213022Y15442084D01*
X31221479Y15446791D01*
X31673420Y15898732D01*
X31678748Y15909189D01*
X32050425Y15909189D01*
X32051235Y15904077D01*
X32505697Y15449615D01*
X32517762Y15443468D01*
X32524147Y15449156D01*
X32581501Y15535482D01*
X32586613Y15545429D01*
X32646670Y15703528D01*
X32649451Y15714358D01*
X32652341Y15734922D01*
X39016001Y15734922D01*
X39016965Y15725139D01*
X39028804Y15665614D01*
X39036242Y15647655D01*
X39081371Y15580115D01*
X39095115Y15566371D01*
X39162657Y15521241D01*
X39180611Y15513804D01*
X39240131Y15501965D01*
X39249930Y15501000D01*
X39976567Y15501000D01*
X39989457Y15505188D01*
X39992500Y15509377D01*
X39992500Y15516934D01*
X40247500Y15516934D01*
X40251688Y15504044D01*
X40255877Y15501001D01*
X40990078Y15501001D01*
X40999861Y15501965D01*
X41059386Y15513804D01*
X41077345Y15521242D01*
X41144885Y15566371D01*
X41158629Y15580115D01*
X41203759Y15647657D01*
X41211196Y15665611D01*
X41223035Y15725131D01*
X41224000Y15734930D01*
X41224000Y16461567D01*
X41219812Y16474457D01*
X41215623Y16477500D01*
X40263433Y16477500D01*
X40250543Y16473312D01*
X40247500Y16469123D01*
X40247500Y15516934D01*
X39992500Y15516934D01*
X39992500Y16461567D01*
X39988312Y16474457D01*
X39984123Y16477500D01*
X39031934Y16477500D01*
X39019044Y16473312D01*
X39016001Y16469123D01*
X39016001Y15734922D01*
X32652341Y15734922D01*
X32673331Y15884274D01*
X32673816Y15890577D01*
X32674043Y15906835D01*
X32673734Y15913144D01*
X32654608Y16083660D01*
X32652130Y16094567D01*
X32596512Y16254279D01*
X32591678Y16264369D01*
X32526287Y16369016D01*
X32516258Y16377431D01*
X32508162Y16372850D01*
X32056580Y15921268D01*
X32050425Y15909189D01*
X31678748Y15909189D01*
X31679575Y15910811D01*
X31678765Y15915923D01*
X31223922Y16370766D01*
X31212056Y16376812D01*
X31205430Y16370825D01*
X31143337Y16274475D01*
X31138368Y16264465D01*
X31080523Y16105537D01*
X31077894Y16094671D01*
X31056696Y15926873D01*
X31056541Y15915703D01*
X27305300Y15915703D01*
X27305300Y16561604D01*
X31397340Y16561604D01*
X31401985Y16553327D01*
X31853732Y16101580D01*
X31865811Y16095425D01*
X31870923Y16096235D01*
X32325999Y16551311D01*
X32331994Y16563076D01*
X32325858Y16569819D01*
X32224427Y16634190D01*
X32214382Y16639089D01*
X32055054Y16695824D01*
X32044171Y16698376D01*
X31876239Y16718400D01*
X31865050Y16718479D01*
X31696851Y16700801D01*
X31685939Y16698402D01*
X31525833Y16643897D01*
X31515718Y16639137D01*
X31405748Y16571484D01*
X31397340Y16561604D01*
X27305300Y16561604D01*
X27305300Y16748433D01*
X39016000Y16748433D01*
X39020188Y16735543D01*
X39024377Y16732500D01*
X39976567Y16732500D01*
X39989457Y16736688D01*
X39992500Y16740877D01*
X39992500Y16748433D01*
X40247500Y16748433D01*
X40251688Y16735543D01*
X40255877Y16732500D01*
X41208066Y16732500D01*
X41220956Y16736688D01*
X41223999Y16740877D01*
X41223999Y17475078D01*
X41223035Y17484861D01*
X41211196Y17544386D01*
X41203758Y17562345D01*
X41158629Y17629885D01*
X41144885Y17643629D01*
X41077343Y17688759D01*
X41059389Y17696196D01*
X40999869Y17708035D01*
X40990070Y17709000D01*
X40263433Y17709000D01*
X40250543Y17704812D01*
X40247500Y17700623D01*
X40247500Y16748433D01*
X39992500Y16748433D01*
X39992500Y17693066D01*
X39988312Y17705956D01*
X39984123Y17708999D01*
X39249922Y17708999D01*
X39240139Y17708035D01*
X39180614Y17696196D01*
X39162655Y17688758D01*
X39095115Y17643629D01*
X39081371Y17629885D01*
X39036241Y17562343D01*
X39028804Y17544389D01*
X39016965Y17484869D01*
X39016000Y17475070D01*
X39016000Y16748433D01*
X27305300Y16748433D01*
X27305300Y23964485D01*
X27306828Y23981954D01*
X27308481Y23991326D01*
X27308481Y23991329D01*
X27310010Y24000000D01*
X27309762Y24001404D01*
X27296487Y24254715D01*
X27291843Y24343328D01*
X27291842Y24343336D01*
X27291704Y24345972D01*
X27251529Y24599627D01*
X27237921Y24685549D01*
X27237919Y24685557D01*
X27237508Y24688154D01*
X27157249Y24987686D01*
X27148521Y25020260D01*
X27148518Y25020268D01*
X27147841Y25022796D01*
X27055269Y25263955D01*
X27052015Y25326044D01*
X27085877Y25378188D01*
X27143922Y25400469D01*
X27203978Y25384377D01*
X27220322Y25371142D01*
X31365469Y21225995D01*
X31393695Y21170597D01*
X31394073Y21141730D01*
X31389559Y21107440D01*
X31390224Y21101416D01*
X31390224Y21101412D01*
X31391659Y21088417D01*
X31408292Y20937761D01*
X31466958Y20777449D01*
X31562170Y20635758D01*
X31688432Y20520868D01*
X31838455Y20439412D01*
X31844325Y20437872D01*
X31997710Y20397632D01*
X31997711Y20397632D01*
X32003577Y20396093D01*
X32083545Y20394837D01*
X32168201Y20393507D01*
X32168203Y20393507D01*
X32174265Y20393412D01*
X32180176Y20394766D01*
X32180178Y20394766D01*
X32334757Y20430169D01*
X32334760Y20430170D01*
X32340667Y20431523D01*
X32493174Y20508226D01*
X32565440Y20569948D01*
X32618373Y20615156D01*
X32618375Y20615158D01*
X32622982Y20619093D01*
X32626520Y20624016D01*
X32719061Y20752801D01*
X32719063Y20752804D01*
X32722598Y20757724D01*
X32730528Y20777449D01*
X32784009Y20910487D01*
X32786271Y20916114D01*
X32810324Y21085121D01*
X32810480Y21100000D01*
X32789971Y21269473D01*
X32785837Y21280415D01*
X32731772Y21423493D01*
X32729630Y21429163D01*
X32632939Y21569849D01*
X32505481Y21683410D01*
X32500125Y21686246D01*
X32500122Y21686248D01*
X32359975Y21760451D01*
X32354613Y21763290D01*
X32245012Y21790820D01*
X32194932Y21803400D01*
X32194930Y21803400D01*
X32189047Y21804878D01*
X32182982Y21804910D01*
X32182980Y21804910D01*
X32044043Y21805637D01*
X31985014Y21825160D01*
X31973435Y21835101D01*
X29553821Y24254715D01*
X30730247Y24254715D01*
X30743833Y24047425D01*
X30744966Y24042964D01*
X30762662Y23973288D01*
X30794968Y23846082D01*
X30881938Y23657429D01*
X31001831Y23487784D01*
X31065377Y23425880D01*
X31147330Y23346045D01*
X31147334Y23346042D01*
X31150632Y23342829D01*
X31154465Y23340268D01*
X31154466Y23340267D01*
X31319522Y23229980D01*
X31319526Y23229978D01*
X31323357Y23227418D01*
X31464214Y23166901D01*
X31509983Y23147237D01*
X31509985Y23147236D01*
X31514222Y23145416D01*
X31614593Y23122704D01*
X31712334Y23100587D01*
X31712337Y23100587D01*
X31716834Y23099569D01*
X31841470Y23094672D01*
X31919800Y23091595D01*
X31919801Y23091595D01*
X31924409Y23091414D01*
X31928966Y23092075D01*
X31928971Y23092075D01*
X32046091Y23109057D01*
X32129994Y23121222D01*
X32326704Y23187996D01*
X32507952Y23289500D01*
X32667667Y23422333D01*
X32800500Y23582048D01*
X32902004Y23763296D01*
X32968778Y23960006D01*
X32982119Y24052018D01*
X32998161Y24162656D01*
X32998162Y24162665D01*
X32998586Y24165591D01*
X33000142Y24225000D01*
X32981134Y24431863D01*
X32924746Y24631799D01*
X32896955Y24688154D01*
X32834907Y24813976D01*
X32834905Y24813979D01*
X32832868Y24818110D01*
X32771435Y24900379D01*
X32711334Y24980864D01*
X32711331Y24980868D01*
X32708575Y24984558D01*
X32556031Y25125569D01*
X32380344Y25236419D01*
X32187398Y25313397D01*
X31983655Y25353924D01*
X31879797Y25355283D01*
X31780552Y25356583D01*
X31780548Y25356583D01*
X31775938Y25356643D01*
X31571204Y25321463D01*
X31566882Y25319869D01*
X31566880Y25319868D01*
X31380637Y25251159D01*
X31380634Y25251158D01*
X31376309Y25249562D01*
X31197780Y25143349D01*
X31194314Y25140310D01*
X31194312Y25140308D01*
X31045064Y25009421D01*
X31045061Y25009418D01*
X31041597Y25006380D01*
X30912990Y24843243D01*
X30816266Y24659400D01*
X30754664Y24461009D01*
X30730247Y24254715D01*
X29553821Y24254715D01*
X28985017Y24823519D01*
X28956791Y24878917D01*
X28966517Y24940325D01*
X29010481Y24984289D01*
X29057732Y24995242D01*
X29168201Y24993507D01*
X29168203Y24993507D01*
X29174265Y24993412D01*
X29180176Y24994766D01*
X29180178Y24994766D01*
X29334757Y25030169D01*
X29334760Y25030170D01*
X29340667Y25031523D01*
X29493174Y25108226D01*
X29565440Y25169948D01*
X29618373Y25215156D01*
X29618375Y25215158D01*
X29622982Y25219093D01*
X29636661Y25238129D01*
X29719061Y25352801D01*
X29719063Y25352804D01*
X29722598Y25357724D01*
X29730528Y25377449D01*
X29784009Y25510487D01*
X29786271Y25516114D01*
X29793256Y25565188D01*
X29809860Y25681859D01*
X29809860Y25681863D01*
X29810324Y25685121D01*
X29810480Y25700000D01*
X29789971Y25869473D01*
X29729630Y26029163D01*
X29632939Y26169849D01*
X29505481Y26283410D01*
X29500125Y26286246D01*
X29500122Y26286248D01*
X29359975Y26360451D01*
X29354613Y26363290D01*
X29245012Y26390820D01*
X29194932Y26403400D01*
X29194930Y26403400D01*
X29189047Y26404878D01*
X29182982Y26404910D01*
X29182980Y26404910D01*
X29044043Y26405637D01*
X28985014Y26425160D01*
X28973435Y26435101D01*
X28534540Y26873996D01*
X36200233Y26873996D01*
X36200241Y26873949D01*
X36205853Y26867634D01*
X36344106Y26775256D01*
X36352177Y26770874D01*
X36525908Y26696232D01*
X36534633Y26693397D01*
X36719064Y26651665D01*
X36728169Y26650467D01*
X36917103Y26643043D01*
X36926274Y26643523D01*
X37113405Y26670656D01*
X37122334Y26672800D01*
X37301386Y26733580D01*
X37309770Y26737313D01*
X37474748Y26829705D01*
X37482315Y26834906D01*
X37520545Y26866701D01*
X37527778Y26878165D01*
X37527589Y26881044D01*
X37525554Y26884133D01*
X36876268Y27533420D01*
X36864189Y27539575D01*
X36859077Y27538765D01*
X36206387Y26886074D01*
X36200233Y26873996D01*
X28534540Y26873996D01*
X27659774Y27748762D01*
X35782050Y27748762D01*
X35794417Y27560078D01*
X35795851Y27551021D01*
X35842396Y27367751D01*
X35845465Y27359086D01*
X35924622Y27187382D01*
X35929219Y27179420D01*
X36006935Y27069454D01*
X36017794Y27061345D01*
X36018553Y27061335D01*
X36024786Y27065099D01*
X36673420Y27713732D01*
X36678748Y27724189D01*
X37050425Y27724189D01*
X37051235Y27719077D01*
X37701841Y27068472D01*
X37713919Y27062318D01*
X37716769Y27062770D01*
X37719657Y27065077D01*
X37755094Y27107685D01*
X37760295Y27115252D01*
X37852687Y27280230D01*
X37856420Y27288614D01*
X37917200Y27467666D01*
X37919344Y27476595D01*
X37946713Y27665356D01*
X37947215Y27671247D01*
X37948546Y27722044D01*
X37948352Y27727949D01*
X37930900Y27917887D01*
X37929227Y27926909D01*
X37877900Y28108899D01*
X37874609Y28117472D01*
X37790983Y28287049D01*
X37786177Y28294891D01*
X37722619Y28380007D01*
X37711551Y28387829D01*
X37710080Y28387810D01*
X37704904Y28384591D01*
X37056580Y27736268D01*
X37050425Y27724189D01*
X36678748Y27724189D01*
X36679575Y27725811D01*
X36678765Y27730923D01*
X36028434Y28381253D01*
X36016356Y28387407D01*
X36014203Y28387066D01*
X36010414Y28383956D01*
X35959051Y28318803D01*
X35954051Y28311104D01*
X35866009Y28143764D01*
X35862496Y28135282D01*
X35806424Y27954700D01*
X35804516Y27945723D01*
X35782290Y27757948D01*
X35782050Y27748762D01*
X27659774Y27748762D01*
X26835771Y28572765D01*
X36201455Y28572765D01*
X36201784Y28569192D01*
X36203177Y28567136D01*
X36853732Y27916580D01*
X36865811Y27910425D01*
X36870923Y27911235D01*
X37523645Y28563958D01*
X37529799Y28576036D01*
X37529128Y28580271D01*
X37528367Y28581277D01*
X37528051Y28581569D01*
X37520773Y28587154D01*
X37360856Y28688053D01*
X37352669Y28692225D01*
X37177052Y28762289D01*
X37168241Y28764899D01*
X36982793Y28801787D01*
X36973655Y28802747D01*
X36784593Y28805223D01*
X36775436Y28804502D01*
X36589086Y28772481D01*
X36580207Y28770101D01*
X36402819Y28704660D01*
X36394520Y28700701D01*
X36232024Y28604026D01*
X36224599Y28598632D01*
X36208385Y28584412D01*
X36201455Y28572765D01*
X26835771Y28572765D01*
X26735040Y28673496D01*
X26706814Y28728894D01*
X26706579Y28758805D01*
X26709860Y28781856D01*
X26709861Y28781866D01*
X26710324Y28785121D01*
X26710480Y28800000D01*
X26709936Y28804502D01*
X26690700Y28963448D01*
X26689971Y28969473D01*
X26687245Y28976689D01*
X26631772Y29123493D01*
X26629630Y29129163D01*
X26532939Y29269849D01*
X26405481Y29383410D01*
X26400125Y29386246D01*
X26400122Y29386248D01*
X26259975Y29460451D01*
X26254613Y29463290D01*
X26145012Y29490820D01*
X26094932Y29503400D01*
X26094930Y29503400D01*
X26089047Y29504878D01*
X26082982Y29504910D01*
X26082980Y29504910D01*
X26005992Y29505312D01*
X25918339Y29505771D01*
X25912442Y29504355D01*
X25912440Y29504355D01*
X25758245Y29467336D01*
X25752347Y29465920D01*
X25600651Y29387624D01*
X25472010Y29275404D01*
X25422931Y29205571D01*
X25377340Y29140702D01*
X25377338Y29140698D01*
X25373852Y29135738D01*
X25371649Y29130088D01*
X25371648Y29130086D01*
X25319260Y28995718D01*
X25311841Y28976689D01*
X25289559Y28807440D01*
X25290224Y28801416D01*
X25290224Y28801413D01*
X25299743Y28715198D01*
X25287135Y28654315D01*
X25241150Y28612471D01*
X25218250Y28606141D01*
X25218339Y28605771D01*
X25052347Y28565920D01*
X24900651Y28487624D01*
X24896086Y28483642D01*
X24896085Y28483641D01*
X24777287Y28380007D01*
X24772010Y28375404D01*
X24732231Y28318803D01*
X24677340Y28240702D01*
X24677338Y28240698D01*
X24673852Y28235738D01*
X24671649Y28230088D01*
X24671648Y28230086D01*
X24614604Y28083776D01*
X24611841Y28076689D01*
X24589559Y27907440D01*
X24590224Y27901416D01*
X24590224Y27901412D01*
X24594928Y27858805D01*
X24608292Y27737761D01*
X24666958Y27577449D01*
X24670344Y27572410D01*
X24746924Y27458447D01*
X24762170Y27435758D01*
X24766657Y27431675D01*
X24766658Y27431674D01*
X24795481Y27405447D01*
X24826286Y27351440D01*
X24819463Y27289641D01*
X24777619Y27243655D01*
X24716736Y27231048D01*
X24701739Y27233868D01*
X24690699Y27236826D01*
X24690700Y27236826D01*
X24688154Y27237508D01*
X24685557Y27237919D01*
X24685549Y27237921D01*
X24474773Y27271304D01*
X24345972Y27291704D01*
X24343336Y27291842D01*
X24343328Y27291843D01*
X24012093Y27309202D01*
X24012092Y27309202D01*
X24001404Y27309762D01*
X24000000Y27310010D01*
X23991329Y27308481D01*
X23991326Y27308481D01*
X23981954Y27306828D01*
X23964485Y27305300D01*
X2035515Y27305300D01*
X2018046Y27306828D01*
X2008667Y27308482D01*
X2008666Y27308482D01*
X2000000Y27310010D01*
X1991330Y27308481D01*
X1986716Y27308481D01*
X1968598Y27307546D01*
X1765993Y27322037D01*
X1751786Y27324080D01*
X1529577Y27372418D01*
X1515805Y27376462D01*
X1302734Y27455934D01*
X1289688Y27461891D01*
X1090080Y27570886D01*
X1078017Y27578639D01*
X1071993Y27583149D01*
X895971Y27714917D01*
X885123Y27724316D01*
X724316Y27885123D01*
X714917Y27895971D01*
X578639Y28078017D01*
X570886Y28090080D01*
X461891Y28289688D01*
X455934Y28302734D01*
X376462Y28515805D01*
X372418Y28529577D01*
X324080Y28751786D01*
X322037Y28765993D01*
X307546Y28968598D01*
X308481Y28986716D01*
X308481Y28991330D01*
X310010Y29000000D01*
X306828Y29018046D01*
X305300Y29035515D01*
X305300Y32607440D01*
X21489559Y32607440D01*
X21490224Y32601416D01*
X21490224Y32601412D01*
X21491659Y32588417D01*
X21508292Y32437761D01*
X21566958Y32277449D01*
X21662170Y32135758D01*
X21788432Y32020868D01*
X21938455Y31939412D01*
X21944325Y31937872D01*
X22097710Y31897632D01*
X22097711Y31897632D01*
X22103577Y31896093D01*
X22183545Y31894837D01*
X22268201Y31893507D01*
X22268203Y31893507D01*
X22274265Y31893412D01*
X22280176Y31894766D01*
X22280178Y31894766D01*
X22434757Y31930169D01*
X22434760Y31930170D01*
X22440667Y31931523D01*
X22593174Y32008226D01*
X22665440Y32069948D01*
X22718373Y32115156D01*
X22718375Y32115158D01*
X22722982Y32119093D01*
X22726520Y32124016D01*
X22819061Y32252801D01*
X22819063Y32252804D01*
X22822598Y32257724D01*
X22830528Y32277449D01*
X22884009Y32410487D01*
X22886271Y32416114D01*
X22910324Y32585121D01*
X22910480Y32600000D01*
X22910084Y32603268D01*
X22910084Y32603277D01*
X22905357Y32642337D01*
X22917327Y32703348D01*
X22934093Y32725557D01*
X23148771Y32940235D01*
X23204169Y32968461D01*
X23219906Y32969700D01*
X23787776Y32969700D01*
X23846907Y32950487D01*
X23860949Y32937575D01*
X23862170Y32935758D01*
X23988432Y32820868D01*
X24138455Y32739412D01*
X24144325Y32737872D01*
X24297710Y32697632D01*
X24297711Y32697632D01*
X24303577Y32696093D01*
X24383545Y32694837D01*
X24468201Y32693507D01*
X24468203Y32693507D01*
X24474265Y32693412D01*
X24480176Y32694766D01*
X24480178Y32694766D01*
X24634757Y32730169D01*
X24634760Y32730170D01*
X24640667Y32731523D01*
X24793174Y32808226D01*
X24865440Y32869948D01*
X24918373Y32915156D01*
X24918375Y32915158D01*
X24922982Y32919093D01*
X24926520Y32924016D01*
X25019061Y33052801D01*
X25019063Y33052804D01*
X25022598Y33057724D01*
X25029706Y33075404D01*
X25084009Y33210487D01*
X25086271Y33216114D01*
X25092964Y33263138D01*
X25109860Y33381859D01*
X25109860Y33381863D01*
X25110324Y33385121D01*
X25110480Y33400000D01*
X25089971Y33569473D01*
X25029630Y33729163D01*
X24932939Y33869849D01*
X24805481Y33983410D01*
X24800125Y33986246D01*
X24800122Y33986248D01*
X24659975Y34060451D01*
X24654613Y34063290D01*
X24545012Y34090820D01*
X24494932Y34103400D01*
X24494930Y34103400D01*
X24489047Y34104878D01*
X24482982Y34104910D01*
X24482980Y34104910D01*
X24405992Y34105312D01*
X24318339Y34105771D01*
X24312442Y34104355D01*
X24312440Y34104355D01*
X24158245Y34067336D01*
X24152347Y34065920D01*
X24000651Y33987624D01*
X23872010Y33875404D01*
X23868522Y33870441D01*
X23864466Y33865936D01*
X23862835Y33867405D01*
X23820637Y33835723D01*
X23788053Y33830300D01*
X23031520Y33830300D01*
X23019695Y33830997D01*
X22993796Y33834063D01*
X22993793Y33834063D01*
X22986332Y33834946D01*
X22930857Y33824814D01*
X22927772Y33824301D01*
X22872045Y33815923D01*
X22865829Y33812938D01*
X22859044Y33811699D01*
X22852374Y33808234D01*
X22852365Y33808231D01*
X22808997Y33785702D01*
X22806183Y33784296D01*
X22785060Y33774153D01*
X22762186Y33763169D01*
X22762185Y33763168D01*
X22755404Y33759912D01*
X22750977Y33755820D01*
X22749307Y33754695D01*
X22744220Y33752052D01*
X22739394Y33747930D01*
X22703530Y33712066D01*
X22700682Y33709328D01*
X22665911Y33677187D01*
X22665909Y33677185D01*
X22660388Y33672081D01*
X22656986Y33666223D01*
X22650959Y33659495D01*
X22325988Y33334524D01*
X22270590Y33306298D01*
X22254327Y33305060D01*
X22179806Y33305449D01*
X22118339Y33305771D01*
X22112442Y33304355D01*
X22112440Y33304355D01*
X21958245Y33267336D01*
X21952347Y33265920D01*
X21800651Y33187624D01*
X21672010Y33075404D01*
X21622931Y33005571D01*
X21577340Y32940702D01*
X21577338Y32940698D01*
X21573852Y32935738D01*
X21571649Y32930088D01*
X21571648Y32930086D01*
X21529066Y32820868D01*
X21511841Y32776689D01*
X21489559Y32607440D01*
X305300Y32607440D01*
X305300Y37607440D01*
X22389559Y37607440D01*
X22390224Y37601416D01*
X22390224Y37601412D01*
X22396867Y37541247D01*
X22408292Y37437761D01*
X22417955Y37411357D01*
X22454192Y37312335D01*
X22466958Y37277449D01*
X22470344Y37272410D01*
X22542403Y37165175D01*
X22562170Y37135758D01*
X22688432Y37020868D01*
X22693759Y37017976D01*
X22693760Y37017975D01*
X22704463Y37012164D01*
X22838455Y36939412D01*
X22844325Y36937872D01*
X22997710Y36897632D01*
X22997711Y36897632D01*
X23003577Y36896093D01*
X23083545Y36894837D01*
X23168201Y36893507D01*
X23168203Y36893507D01*
X23174265Y36893412D01*
X23180176Y36894766D01*
X23180178Y36894766D01*
X23334757Y36930169D01*
X23334760Y36930170D01*
X23340667Y36931523D01*
X23493174Y37008226D01*
X23578906Y37081449D01*
X23636349Y37105242D01*
X23696805Y37090728D01*
X23715377Y37076087D01*
X25673446Y35118018D01*
X25681314Y35109164D01*
X25702112Y35082782D01*
X25748519Y35050708D01*
X25751012Y35048927D01*
X25796376Y35015420D01*
X25802883Y35013135D01*
X25808556Y35009214D01*
X25855094Y34994496D01*
X25862298Y34992218D01*
X25865286Y34991221D01*
X25918459Y34972548D01*
X25924483Y34972311D01*
X25926464Y34971925D01*
X25931926Y34970198D01*
X25938253Y34969700D01*
X25987776Y34969700D01*
X26046907Y34950487D01*
X26060949Y34937575D01*
X26062170Y34935758D01*
X26188432Y34820868D01*
X26338455Y34739412D01*
X26344325Y34737872D01*
X26497710Y34697632D01*
X26497711Y34697632D01*
X26503577Y34696093D01*
X26583545Y34694837D01*
X26668201Y34693507D01*
X26668203Y34693507D01*
X26674265Y34693412D01*
X26680176Y34694766D01*
X26680178Y34694766D01*
X26834757Y34730169D01*
X26834760Y34730170D01*
X26840667Y34731523D01*
X26993174Y34808226D01*
X27065440Y34869948D01*
X27118373Y34915156D01*
X27118375Y34915158D01*
X27122982Y34919093D01*
X27126520Y34924016D01*
X27219061Y35052801D01*
X27219063Y35052804D01*
X27222598Y35057724D01*
X27232672Y35082782D01*
X27284009Y35210487D01*
X27286271Y35216114D01*
X27291310Y35251515D01*
X27309860Y35381859D01*
X27309860Y35381863D01*
X27310324Y35385121D01*
X27310480Y35400000D01*
X27309144Y35411045D01*
X27290700Y35563448D01*
X27289971Y35569473D01*
X27229630Y35729163D01*
X27132939Y35869849D01*
X27005481Y35983410D01*
X27000125Y35986246D01*
X27000122Y35986248D01*
X26859975Y36060451D01*
X26854613Y36063290D01*
X26745012Y36090820D01*
X26694932Y36103400D01*
X26694930Y36103400D01*
X26689047Y36104878D01*
X26682982Y36104910D01*
X26682980Y36104910D01*
X26605992Y36105312D01*
X26518339Y36105771D01*
X26512442Y36104355D01*
X26512440Y36104355D01*
X26358245Y36067336D01*
X26352347Y36065920D01*
X26200651Y35987624D01*
X26175470Y35965657D01*
X26118285Y35941264D01*
X26057680Y35955144D01*
X26038205Y35970331D01*
X25688821Y36319715D01*
X30730247Y36319715D01*
X30743833Y36112425D01*
X30744966Y36107964D01*
X30787303Y35941264D01*
X30794968Y35911082D01*
X30881938Y35722429D01*
X31001831Y35552784D01*
X31065377Y35490880D01*
X31147330Y35411045D01*
X31147334Y35411042D01*
X31150632Y35407829D01*
X31154465Y35405268D01*
X31154466Y35405267D01*
X31319522Y35294980D01*
X31319526Y35294978D01*
X31323357Y35292418D01*
X31464214Y35231901D01*
X31509983Y35212237D01*
X31509985Y35212236D01*
X31514222Y35210416D01*
X31614593Y35187704D01*
X31712334Y35165587D01*
X31712337Y35165587D01*
X31716834Y35164569D01*
X31841470Y35159672D01*
X31919800Y35156595D01*
X31919801Y35156595D01*
X31924409Y35156414D01*
X31928966Y35157075D01*
X31928971Y35157075D01*
X32046091Y35174057D01*
X32129994Y35186222D01*
X32326704Y35252996D01*
X32507952Y35354500D01*
X32667667Y35487333D01*
X32800500Y35647048D01*
X32902004Y35828296D01*
X32968778Y36025006D01*
X32982119Y36117018D01*
X32998161Y36227656D01*
X32998162Y36227665D01*
X32998586Y36230591D01*
X33000142Y36290000D01*
X32996991Y36324297D01*
X32981556Y36492275D01*
X32981555Y36492280D01*
X32981134Y36496863D01*
X32924746Y36696799D01*
X32919436Y36707566D01*
X32834907Y36878976D01*
X32834905Y36878979D01*
X32832868Y36883110D01*
X32752037Y36991356D01*
X32711334Y37045864D01*
X32711331Y37045868D01*
X32708575Y37049558D01*
X32556031Y37190569D01*
X32380344Y37301419D01*
X32353926Y37311959D01*
X32191684Y37376687D01*
X32191685Y37376687D01*
X32187398Y37378397D01*
X31983655Y37418924D01*
X31879797Y37420283D01*
X31780552Y37421583D01*
X31780548Y37421583D01*
X31775938Y37421643D01*
X31571204Y37386463D01*
X31566882Y37384869D01*
X31566880Y37384868D01*
X31380637Y37316159D01*
X31380634Y37316158D01*
X31376309Y37314562D01*
X31197780Y37208349D01*
X31194314Y37205310D01*
X31194312Y37205308D01*
X31045064Y37074421D01*
X31045061Y37074418D01*
X31041597Y37071380D01*
X31038744Y37067761D01*
X31038743Y37067760D01*
X30999496Y37017975D01*
X30912990Y36908243D01*
X30816266Y36724400D01*
X30814899Y36719997D01*
X30756317Y36531331D01*
X30754664Y36526009D01*
X30746084Y36453517D01*
X30735668Y36365512D01*
X30730247Y36319715D01*
X25688821Y36319715D01*
X24126554Y37881982D01*
X24118686Y37890836D01*
X24102544Y37911312D01*
X24097888Y37917218D01*
X24051481Y37949292D01*
X24048988Y37951073D01*
X24003624Y37984580D01*
X23997117Y37986865D01*
X23991444Y37990786D01*
X23944906Y38005504D01*
X23937702Y38007782D01*
X23934705Y38008782D01*
X23881541Y38027452D01*
X23875517Y38027689D01*
X23873536Y38028075D01*
X23868074Y38029802D01*
X23861747Y38030300D01*
X23811020Y38030300D01*
X23807070Y38030378D01*
X23759766Y38032237D01*
X23759763Y38032237D01*
X23752248Y38032532D01*
X23745700Y38030796D01*
X23736684Y38030300D01*
X23712257Y38030300D01*
X23653126Y38049513D01*
X23636795Y38064373D01*
X23636375Y38064849D01*
X23632939Y38069849D01*
X23505481Y38183410D01*
X23500125Y38186246D01*
X23500122Y38186248D01*
X23359975Y38260451D01*
X23354613Y38263290D01*
X23227481Y38295224D01*
X23194932Y38303400D01*
X23194930Y38303400D01*
X23189047Y38304878D01*
X23182982Y38304910D01*
X23182980Y38304910D01*
X23105992Y38305312D01*
X23018339Y38305771D01*
X23012442Y38304355D01*
X23012440Y38304355D01*
X22858245Y38267336D01*
X22852347Y38265920D01*
X22700651Y38187624D01*
X22696086Y38183642D01*
X22696085Y38183641D01*
X22577029Y38079782D01*
X22572010Y38075404D01*
X22525188Y38008782D01*
X22477340Y37940702D01*
X22477338Y37940698D01*
X22473852Y37935738D01*
X22471649Y37930088D01*
X22471648Y37930086D01*
X22423630Y37806926D01*
X22411841Y37776689D01*
X22389559Y37607440D01*
X305300Y37607440D01*
X305300Y38699400D01*
X324513Y38758531D01*
X374813Y38795076D01*
X405900Y38800000D01*
X3400000Y38800000D01*
X4800000Y40400000D01*
X4800000Y43194100D01*
X4819213Y43253231D01*
X4869513Y43289776D01*
X4900600Y43294700D01*
X21099400Y43294700D01*
X21158531Y43275487D01*
G37*
%TD.AperFunction*%
%TD*%
M02*
