%TF.GenerationSoftware,KiCad,Pcbnew,(6.0.5-0)*%
%TF.CreationDate,2022-07-07T00:21:25-07:00*%
%TF.ProjectId,gigablox-nano-rvp,67696761-626c-46f7-982d-6e616e6f2d72,rev?*%
%TF.SameCoordinates,PX5a1f4a0PY3e77360*%
%TF.FileFunction,Legend,Top*%
%TF.FilePolarity,Positive*%
%FSLAX46Y46*%
G04 Gerber Fmt 4.6, Leading zero omitted, Abs format (unit mm)*
G04 Created by KiCad (PCBNEW (6.0.5-0)) date 2022-07-07 00:21:25*
%MOMM*%
%LPD*%
G01*
G04 APERTURE LIST*
%ADD10C,0.200000*%
%ADD11C,0.150000*%
%ADD12C,0.100000*%
%ADD13C,0.120000*%
%ADD14C,0.010000*%
G04 APERTURE END LIST*
D10*
X700000Y28424286D02*
X642857Y28341429D01*
X642857Y28217143D01*
X700000Y28092858D01*
X814285Y28010000D01*
X928571Y27968572D01*
X1157142Y27927143D01*
X1328571Y27927143D01*
X1557142Y27968572D01*
X1671428Y28010000D01*
X1785714Y28092858D01*
X1842857Y28217143D01*
X1842857Y28300000D01*
X1785714Y28424286D01*
X1728571Y28465715D01*
X1328571Y28465715D01*
X1328571Y28300000D01*
X1842857Y28838572D02*
X1042857Y28838572D01*
X642857Y28838572D02*
X700000Y28797143D01*
X757142Y28838572D01*
X700000Y28880000D01*
X642857Y28838572D01*
X757142Y28838572D01*
X1042857Y29625715D02*
X2014285Y29625715D01*
X2128571Y29584286D01*
X2185714Y29542858D01*
X2242857Y29460000D01*
X2242857Y29335715D01*
X2185714Y29252858D01*
X1785714Y29625715D02*
X1842857Y29542858D01*
X1842857Y29377143D01*
X1785714Y29294286D01*
X1728571Y29252858D01*
X1614285Y29211429D01*
X1271428Y29211429D01*
X1157142Y29252858D01*
X1100000Y29294286D01*
X1042857Y29377143D01*
X1042857Y29542858D01*
X1100000Y29625715D01*
X1842857Y30412858D02*
X1214285Y30412858D01*
X1100000Y30371429D01*
X1042857Y30288572D01*
X1042857Y30122858D01*
X1100000Y30040000D01*
X1785714Y30412858D02*
X1842857Y30330000D01*
X1842857Y30122858D01*
X1785714Y30040000D01*
X1671428Y29998572D01*
X1557142Y29998572D01*
X1442857Y30040000D01*
X1385714Y30122858D01*
X1385714Y30330000D01*
X1328571Y30412858D01*
X1842857Y30827143D02*
X642857Y30827143D01*
X1100000Y30827143D02*
X1042857Y30910000D01*
X1042857Y31075715D01*
X1100000Y31158572D01*
X1157142Y31200000D01*
X1271428Y31241429D01*
X1614285Y31241429D01*
X1728571Y31200000D01*
X1785714Y31158572D01*
X1842857Y31075715D01*
X1842857Y30910000D01*
X1785714Y30827143D01*
X1842857Y31738572D02*
X1785714Y31655715D01*
X1671428Y31614286D01*
X642857Y31614286D01*
X1842857Y32194286D02*
X1785714Y32111429D01*
X1728571Y32070000D01*
X1614285Y32028572D01*
X1271428Y32028572D01*
X1157142Y32070000D01*
X1100000Y32111429D01*
X1042857Y32194286D01*
X1042857Y32318572D01*
X1100000Y32401429D01*
X1157142Y32442858D01*
X1271428Y32484286D01*
X1614285Y32484286D01*
X1728571Y32442858D01*
X1785714Y32401429D01*
X1842857Y32318572D01*
X1842857Y32194286D01*
X1842857Y32774286D02*
X1042857Y33230000D01*
X1042857Y32774286D02*
X1842857Y33230000D01*
X1842857Y34224286D02*
X642857Y34224286D01*
X1842857Y34721429D01*
X642857Y34721429D01*
X1842857Y35508572D02*
X1214285Y35508572D01*
X1100000Y35467143D01*
X1042857Y35384286D01*
X1042857Y35218572D01*
X1100000Y35135715D01*
X1785714Y35508572D02*
X1842857Y35425715D01*
X1842857Y35218572D01*
X1785714Y35135715D01*
X1671428Y35094286D01*
X1557142Y35094286D01*
X1442857Y35135715D01*
X1385714Y35218572D01*
X1385714Y35425715D01*
X1328571Y35508572D01*
X1042857Y35922858D02*
X1842857Y35922858D01*
X1157142Y35922858D02*
X1100000Y35964286D01*
X1042857Y36047143D01*
X1042857Y36171429D01*
X1100000Y36254286D01*
X1214285Y36295715D01*
X1842857Y36295715D01*
X1842857Y36834286D02*
X1785714Y36751429D01*
X1728571Y36710000D01*
X1614285Y36668572D01*
X1271428Y36668572D01*
X1157142Y36710000D01*
X1100000Y36751429D01*
X1042857Y36834286D01*
X1042857Y36958572D01*
X1100000Y37041429D01*
X1157142Y37082858D01*
X1271428Y37124286D01*
X1614285Y37124286D01*
X1728571Y37082858D01*
X1785714Y37041429D01*
X1842857Y36958572D01*
X1842857Y36834286D01*
X1842857Y38657143D02*
X1271428Y38367143D01*
X1842857Y38160000D02*
X642857Y38160000D01*
X642857Y38491429D01*
X700000Y38574286D01*
X757142Y38615715D01*
X871428Y38657143D01*
X1042857Y38657143D01*
X1157142Y38615715D01*
X1214285Y38574286D01*
X1271428Y38491429D01*
X1271428Y38160000D01*
X642857Y38905715D02*
X1842857Y39195715D01*
X642857Y39485715D01*
X1842857Y39775715D02*
X642857Y39775715D01*
X642857Y40107143D01*
X700000Y40190000D01*
X757142Y40231429D01*
X871428Y40272858D01*
X1042857Y40272858D01*
X1157142Y40231429D01*
X1214285Y40190000D01*
X1271428Y40107143D01*
X1271428Y39775715D01*
D11*
X36637142Y17035000D02*
X36554285Y17076429D01*
X36430000Y17076429D01*
X36305714Y17035000D01*
X36222857Y16952143D01*
X36181428Y16869286D01*
X36140000Y16703572D01*
X36140000Y16579286D01*
X36181428Y16413572D01*
X36222857Y16330715D01*
X36305714Y16247858D01*
X36430000Y16206429D01*
X36512857Y16206429D01*
X36637142Y16247858D01*
X36678571Y16289286D01*
X36678571Y16579286D01*
X36512857Y16579286D01*
X37051428Y16206429D02*
X37051428Y17076429D01*
X37548571Y16206429D01*
X37548571Y17076429D01*
X37962857Y16206429D02*
X37962857Y17076429D01*
X38170000Y17076429D01*
X38294285Y17035000D01*
X38377142Y16952143D01*
X38418571Y16869286D01*
X38460000Y16703572D01*
X38460000Y16579286D01*
X38418571Y16413572D01*
X38377142Y16330715D01*
X38294285Y16247858D01*
X38170000Y16206429D01*
X37962857Y16206429D01*
X42952380Y22995239D02*
X42952380Y22423810D01*
X42952380Y22709524D02*
X41952380Y22709524D01*
X42095238Y22614286D01*
X42190476Y22519048D01*
X42238095Y22423810D01*
X42047619Y23376191D02*
X42000000Y23423810D01*
X41952380Y23519048D01*
X41952380Y23757143D01*
X42000000Y23852381D01*
X42047619Y23900000D01*
X42142857Y23947620D01*
X42238095Y23947620D01*
X42380952Y23900000D01*
X42952380Y23328572D01*
X42952380Y23947620D01*
X41952380Y24233334D02*
X42952380Y24566667D01*
X41952380Y24900000D01*
X42000000Y27280953D02*
X41952380Y27185715D01*
X41952380Y27042858D01*
X42000000Y26900000D01*
X42095238Y26804762D01*
X42190476Y26757143D01*
X42380952Y26709524D01*
X42523809Y26709524D01*
X42714285Y26757143D01*
X42809523Y26804762D01*
X42904761Y26900000D01*
X42952380Y27042858D01*
X42952380Y27138096D01*
X42904761Y27280953D01*
X42857142Y27328572D01*
X42523809Y27328572D01*
X42523809Y27138096D01*
X42952380Y27757143D02*
X41952380Y27757143D01*
X42952380Y28328572D01*
X41952380Y28328572D01*
X42952380Y28804762D02*
X41952380Y28804762D01*
X41952380Y29042858D01*
X42000000Y29185715D01*
X42095238Y29280953D01*
X42190476Y29328572D01*
X42380952Y29376191D01*
X42523809Y29376191D01*
X42714285Y29328572D01*
X42809523Y29280953D01*
X42904761Y29185715D01*
X42952380Y29042858D01*
X42952380Y28804762D01*
X42952380Y34995239D02*
X42952380Y34423810D01*
X42952380Y34709524D02*
X41952380Y34709524D01*
X42095238Y34614286D01*
X42190476Y34519048D01*
X42238095Y34423810D01*
X42047619Y35376191D02*
X42000000Y35423810D01*
X41952380Y35519048D01*
X41952380Y35757143D01*
X42000000Y35852381D01*
X42047619Y35900000D01*
X42142857Y35947620D01*
X42238095Y35947620D01*
X42380952Y35900000D01*
X42952380Y35328572D01*
X42952380Y35947620D01*
X41952380Y36233334D02*
X42952380Y36566667D01*
X41952380Y36900000D01*
X42000000Y39280953D02*
X41952380Y39185715D01*
X41952380Y39042858D01*
X42000000Y38900000D01*
X42095238Y38804762D01*
X42190476Y38757143D01*
X42380952Y38709524D01*
X42523809Y38709524D01*
X42714285Y38757143D01*
X42809523Y38804762D01*
X42904761Y38900000D01*
X42952380Y39042858D01*
X42952380Y39138096D01*
X42904761Y39280953D01*
X42857142Y39328572D01*
X42523809Y39328572D01*
X42523809Y39138096D01*
X42952380Y39757143D02*
X41952380Y39757143D01*
X42952380Y40328572D01*
X41952380Y40328572D01*
X42952380Y40804762D02*
X41952380Y40804762D01*
X41952380Y41042858D01*
X42000000Y41185715D01*
X42095238Y41280953D01*
X42190476Y41328572D01*
X42380952Y41376191D01*
X42523809Y41376191D01*
X42714285Y41328572D01*
X42809523Y41280953D01*
X42904761Y41185715D01*
X42952380Y41042858D01*
X42952380Y40804762D01*
X34137142Y16536050D02*
X34054285Y16577479D01*
X33930000Y16577479D01*
X33805714Y16536050D01*
X33722857Y16453193D01*
X33681428Y16370336D01*
X33640000Y16204622D01*
X33640000Y16080336D01*
X33681428Y15914622D01*
X33722857Y15831765D01*
X33805714Y15748908D01*
X33930000Y15707479D01*
X34012857Y15707479D01*
X34137142Y15748908D01*
X34178571Y15790336D01*
X34178571Y16080336D01*
X34012857Y16080336D01*
X34551428Y15707479D02*
X34551428Y16577479D01*
X35048571Y15707479D01*
X35048571Y16577479D01*
X35462857Y15707479D02*
X35462857Y16577479D01*
X35670000Y16577479D01*
X35794285Y16536050D01*
X35877142Y16453193D01*
X35918571Y16370336D01*
X35960000Y16204622D01*
X35960000Y16080336D01*
X35918571Y15914622D01*
X35877142Y15831765D01*
X35794285Y15748908D01*
X35670000Y15707479D01*
X35462857Y15707479D01*
X34137142Y15135350D02*
X34054285Y15176779D01*
X33930000Y15176779D01*
X33805714Y15135350D01*
X33722857Y15052493D01*
X33681428Y14969636D01*
X33640000Y14803922D01*
X33640000Y14679636D01*
X33681428Y14513922D01*
X33722857Y14431065D01*
X33805714Y14348208D01*
X33930000Y14306779D01*
X34012857Y14306779D01*
X34137142Y14348208D01*
X34178571Y14389636D01*
X34178571Y14679636D01*
X34012857Y14679636D01*
X34551428Y14306779D02*
X34551428Y15176779D01*
X35048571Y14306779D01*
X35048571Y15176779D01*
X35462857Y14306779D02*
X35462857Y15176779D01*
X35670000Y15176779D01*
X35794285Y15135350D01*
X35877142Y15052493D01*
X35918571Y14969636D01*
X35960000Y14803922D01*
X35960000Y14679636D01*
X35918571Y14513922D01*
X35877142Y14431065D01*
X35794285Y14348208D01*
X35670000Y14306779D01*
X35462857Y14306779D01*
X34261428Y12906079D02*
X33764285Y12906079D01*
X34012857Y12906079D02*
X34012857Y13776079D01*
X33930000Y13651793D01*
X33847142Y13568936D01*
X33764285Y13527508D01*
X34592857Y13693222D02*
X34634285Y13734650D01*
X34717142Y13776079D01*
X34924285Y13776079D01*
X35007142Y13734650D01*
X35048571Y13693222D01*
X35090000Y13610365D01*
X35090000Y13527508D01*
X35048571Y13403222D01*
X34551428Y12906079D01*
X35090000Y12906079D01*
X35338571Y13776079D02*
X35628571Y12906079D01*
X35918571Y13776079D01*
X34261428Y11505379D02*
X33764285Y11505379D01*
X34012857Y11505379D02*
X34012857Y12375379D01*
X33930000Y12251093D01*
X33847142Y12168236D01*
X33764285Y12126808D01*
X34592857Y12292522D02*
X34634285Y12333950D01*
X34717142Y12375379D01*
X34924285Y12375379D01*
X35007142Y12333950D01*
X35048571Y12292522D01*
X35090000Y12209665D01*
X35090000Y12126808D01*
X35048571Y12002522D01*
X34551428Y11505379D01*
X35090000Y11505379D01*
X35338571Y12375379D02*
X35628571Y11505379D01*
X35918571Y12375379D01*
X36823571Y11106429D02*
X36533571Y11520715D01*
X36326428Y11106429D02*
X36326428Y11976429D01*
X36657857Y11976429D01*
X36740714Y11935000D01*
X36782142Y11893572D01*
X36823571Y11810715D01*
X36823571Y11686429D01*
X36782142Y11603572D01*
X36740714Y11562143D01*
X36657857Y11520715D01*
X36326428Y11520715D01*
X37155000Y11147858D02*
X37279285Y11106429D01*
X37486428Y11106429D01*
X37569285Y11147858D01*
X37610714Y11189286D01*
X37652142Y11272143D01*
X37652142Y11355000D01*
X37610714Y11437858D01*
X37569285Y11479286D01*
X37486428Y11520715D01*
X37320714Y11562143D01*
X37237857Y11603572D01*
X37196428Y11645000D01*
X37155000Y11727858D01*
X37155000Y11810715D01*
X37196428Y11893572D01*
X37237857Y11935000D01*
X37320714Y11976429D01*
X37527857Y11976429D01*
X37652142Y11935000D01*
X37900714Y11976429D02*
X38397857Y11976429D01*
X38149285Y11106429D02*
X38149285Y11976429D01*
D10*
X33657142Y2423143D02*
X32971428Y2423143D01*
X33314285Y2423143D02*
X33314285Y3623143D01*
X33200000Y3451715D01*
X33085714Y3337429D01*
X32971428Y3280286D01*
X34114285Y3508858D02*
X34171428Y3566000D01*
X34285714Y3623143D01*
X34571428Y3623143D01*
X34685714Y3566000D01*
X34742857Y3508858D01*
X34800000Y3394572D01*
X34800000Y3280286D01*
X34742857Y3108858D01*
X34057142Y2423143D01*
X34800000Y2423143D01*
X35142857Y3623143D02*
X35542857Y2423143D01*
X35942857Y3623143D01*
X32800000Y491143D02*
X32800000Y1691143D01*
X33257142Y1691143D01*
X33371428Y1634000D01*
X33428571Y1576858D01*
X33485714Y1462572D01*
X33485714Y1291143D01*
X33428571Y1176858D01*
X33371428Y1119715D01*
X33257142Y1062572D01*
X32800000Y1062572D01*
X33885714Y1691143D02*
X34171428Y491143D01*
X34400000Y1348286D01*
X34628571Y491143D01*
X34914285Y1691143D01*
X36057142Y491143D02*
X35657142Y1062572D01*
X35371428Y491143D02*
X35371428Y1691143D01*
X35828571Y1691143D01*
X35942857Y1634000D01*
X36000000Y1576858D01*
X36057142Y1462572D01*
X36057142Y1291143D01*
X36000000Y1176858D01*
X35942857Y1119715D01*
X35828571Y1062572D01*
X35371428Y1062572D01*
D11*
%TO.C,J1*%
X40566666Y33447620D02*
X40566666Y32733334D01*
X40519047Y32590477D01*
X40423809Y32495239D01*
X40280952Y32447620D01*
X40185714Y32447620D01*
X41566666Y32447620D02*
X40995238Y32447620D01*
X41280952Y32447620D02*
X41280952Y33447620D01*
X41185714Y33304762D01*
X41090476Y33209524D01*
X40995238Y33161905D01*
%TO.C,R3*%
X16052380Y29433334D02*
X15576190Y29100000D01*
X16052380Y28861905D02*
X15052380Y28861905D01*
X15052380Y29242858D01*
X15100000Y29338096D01*
X15147619Y29385715D01*
X15242857Y29433334D01*
X15385714Y29433334D01*
X15480952Y29385715D01*
X15528571Y29338096D01*
X15576190Y29242858D01*
X15576190Y28861905D01*
X15052380Y29766667D02*
X15052380Y30385715D01*
X15433333Y30052381D01*
X15433333Y30195239D01*
X15480952Y30290477D01*
X15528571Y30338096D01*
X15623809Y30385715D01*
X15861904Y30385715D01*
X15957142Y30338096D01*
X16004761Y30290477D01*
X16052380Y30195239D01*
X16052380Y29909524D01*
X16004761Y29814286D01*
X15957142Y29766667D01*
%TO.C,D1*%
X27761904Y1547620D02*
X27761904Y2547620D01*
X28000000Y2547620D01*
X28142857Y2500000D01*
X28238095Y2404762D01*
X28285714Y2309524D01*
X28333333Y2119048D01*
X28333333Y1976191D01*
X28285714Y1785715D01*
X28238095Y1690477D01*
X28142857Y1595239D01*
X28000000Y1547620D01*
X27761904Y1547620D01*
X29285714Y1547620D02*
X28714285Y1547620D01*
X29000000Y1547620D02*
X29000000Y2547620D01*
X28904761Y2404762D01*
X28809523Y2309524D01*
X28714285Y2261905D01*
%TO.C,Q1*%
X22847619Y35404762D02*
X22800000Y35309524D01*
X22704761Y35214286D01*
X22561904Y35071429D01*
X22514285Y34976191D01*
X22514285Y34880953D01*
X22752380Y34928572D02*
X22704761Y34833334D01*
X22609523Y34738096D01*
X22419047Y34690477D01*
X22085714Y34690477D01*
X21895238Y34738096D01*
X21800000Y34833334D01*
X21752380Y34928572D01*
X21752380Y35119048D01*
X21800000Y35214286D01*
X21895238Y35309524D01*
X22085714Y35357143D01*
X22419047Y35357143D01*
X22609523Y35309524D01*
X22704761Y35214286D01*
X22752380Y35119048D01*
X22752380Y34928572D01*
X22752380Y36309524D02*
X22752380Y35738096D01*
X22752380Y36023810D02*
X21752380Y36023810D01*
X21895238Y35928572D01*
X21990476Y35833334D01*
X22038095Y35738096D01*
%TO.C,R1*%
X16152380Y40633334D02*
X15676190Y40300000D01*
X16152380Y40061905D02*
X15152380Y40061905D01*
X15152380Y40442858D01*
X15200000Y40538096D01*
X15247619Y40585715D01*
X15342857Y40633334D01*
X15485714Y40633334D01*
X15580952Y40585715D01*
X15628571Y40538096D01*
X15676190Y40442858D01*
X15676190Y40061905D01*
X16152380Y41585715D02*
X16152380Y41014286D01*
X16152380Y41300000D02*
X15152380Y41300000D01*
X15295238Y41204762D01*
X15390476Y41109524D01*
X15438095Y41014286D01*
%TO.C,JP1*%
X22566666Y29747620D02*
X22566666Y29033334D01*
X22519047Y28890477D01*
X22423809Y28795239D01*
X22280952Y28747620D01*
X22185714Y28747620D01*
X23042857Y28747620D02*
X23042857Y29747620D01*
X23423809Y29747620D01*
X23519047Y29700000D01*
X23566666Y29652381D01*
X23614285Y29557143D01*
X23614285Y29414286D01*
X23566666Y29319048D01*
X23519047Y29271429D01*
X23423809Y29223810D01*
X23042857Y29223810D01*
X24566666Y28747620D02*
X23995238Y28747620D01*
X24280952Y28747620D02*
X24280952Y29747620D01*
X24185714Y29604762D01*
X24090476Y29509524D01*
X23995238Y29461905D01*
%TO.C,C7*%
X34133333Y9642858D02*
X34085714Y9595239D01*
X33942857Y9547620D01*
X33847619Y9547620D01*
X33704761Y9595239D01*
X33609523Y9690477D01*
X33561904Y9785715D01*
X33514285Y9976191D01*
X33514285Y10119048D01*
X33561904Y10309524D01*
X33609523Y10404762D01*
X33704761Y10500000D01*
X33847619Y10547620D01*
X33942857Y10547620D01*
X34085714Y10500000D01*
X34133333Y10452381D01*
X34466666Y10547620D02*
X35133333Y10547620D01*
X34704761Y9547620D01*
%TO.C,IC1*%
X9752380Y34523810D02*
X8752380Y34523810D01*
X9657142Y35571429D02*
X9704761Y35523810D01*
X9752380Y35380953D01*
X9752380Y35285715D01*
X9704761Y35142858D01*
X9609523Y35047620D01*
X9514285Y35000000D01*
X9323809Y34952381D01*
X9180952Y34952381D01*
X8990476Y35000000D01*
X8895238Y35047620D01*
X8800000Y35142858D01*
X8752380Y35285715D01*
X8752380Y35380953D01*
X8800000Y35523810D01*
X8847619Y35571429D01*
X9752380Y36523810D02*
X9752380Y35952381D01*
X9752380Y36238096D02*
X8752380Y36238096D01*
X8895238Y36142858D01*
X8990476Y36047620D01*
X9038095Y35952381D01*
%TO.C,C6*%
X5733333Y35262858D02*
X5685714Y35215239D01*
X5542857Y35167620D01*
X5447619Y35167620D01*
X5304761Y35215239D01*
X5209523Y35310477D01*
X5161904Y35405715D01*
X5114285Y35596191D01*
X5114285Y35739048D01*
X5161904Y35929524D01*
X5209523Y36024762D01*
X5304761Y36120000D01*
X5447619Y36167620D01*
X5542857Y36167620D01*
X5685714Y36120000D01*
X5733333Y36072381D01*
X6590476Y36167620D02*
X6400000Y36167620D01*
X6304761Y36120000D01*
X6257142Y36072381D01*
X6161904Y35929524D01*
X6114285Y35739048D01*
X6114285Y35358096D01*
X6161904Y35262858D01*
X6209523Y35215239D01*
X6304761Y35167620D01*
X6495238Y35167620D01*
X6590476Y35215239D01*
X6638095Y35262858D01*
X6685714Y35358096D01*
X6685714Y35596191D01*
X6638095Y35691429D01*
X6590476Y35739048D01*
X6495238Y35786667D01*
X6304761Y35786667D01*
X6209523Y35739048D01*
X6161904Y35691429D01*
X6114285Y35596191D01*
%TO.C,J3*%
X27966666Y12147620D02*
X27966666Y11433334D01*
X27919047Y11290477D01*
X27823809Y11195239D01*
X27680952Y11147620D01*
X27585714Y11147620D01*
X28347619Y12147620D02*
X28966666Y12147620D01*
X28633333Y11766667D01*
X28776190Y11766667D01*
X28871428Y11719048D01*
X28919047Y11671429D01*
X28966666Y11576191D01*
X28966666Y11338096D01*
X28919047Y11242858D01*
X28871428Y11195239D01*
X28776190Y11147620D01*
X28490476Y11147620D01*
X28395238Y11195239D01*
X28347619Y11242858D01*
%TO.C,J2*%
X42166666Y12047620D02*
X42166666Y11333334D01*
X42119047Y11190477D01*
X42023809Y11095239D01*
X41880952Y11047620D01*
X41785714Y11047620D01*
X42595238Y11952381D02*
X42642857Y12000000D01*
X42738095Y12047620D01*
X42976190Y12047620D01*
X43071428Y12000000D01*
X43119047Y11952381D01*
X43166666Y11857143D01*
X43166666Y11761905D01*
X43119047Y11619048D01*
X42547619Y11047620D01*
X43166666Y11047620D01*
%TO.C,R2*%
X5733333Y31897620D02*
X5400000Y32373810D01*
X5161904Y31897620D02*
X5161904Y32897620D01*
X5542857Y32897620D01*
X5638095Y32850000D01*
X5685714Y32802381D01*
X5733333Y32707143D01*
X5733333Y32564286D01*
X5685714Y32469048D01*
X5638095Y32421429D01*
X5542857Y32373810D01*
X5161904Y32373810D01*
X6114285Y32802381D02*
X6161904Y32850000D01*
X6257142Y32897620D01*
X6495238Y32897620D01*
X6590476Y32850000D01*
X6638095Y32802381D01*
X6685714Y32707143D01*
X6685714Y32611905D01*
X6638095Y32469048D01*
X6066666Y31897620D01*
X6685714Y31897620D01*
%TO.C,RN1*%
X15252380Y34809524D02*
X14776190Y34476191D01*
X15252380Y34238096D02*
X14252380Y34238096D01*
X14252380Y34619048D01*
X14300000Y34714286D01*
X14347619Y34761905D01*
X14442857Y34809524D01*
X14585714Y34809524D01*
X14680952Y34761905D01*
X14728571Y34714286D01*
X14776190Y34619048D01*
X14776190Y34238096D01*
X15252380Y35238096D02*
X14252380Y35238096D01*
X15252380Y35809524D01*
X14252380Y35809524D01*
X15252380Y36809524D02*
X15252380Y36238096D01*
X15252380Y36523810D02*
X14252380Y36523810D01*
X14395238Y36428572D01*
X14490476Y36333334D01*
X14538095Y36238096D01*
%TO.C,C4*%
X28333333Y4842858D02*
X28285714Y4795239D01*
X28142857Y4747620D01*
X28047619Y4747620D01*
X27904761Y4795239D01*
X27809523Y4890477D01*
X27761904Y4985715D01*
X27714285Y5176191D01*
X27714285Y5319048D01*
X27761904Y5509524D01*
X27809523Y5604762D01*
X27904761Y5700000D01*
X28047619Y5747620D01*
X28142857Y5747620D01*
X28285714Y5700000D01*
X28333333Y5652381D01*
X29190476Y5414286D02*
X29190476Y4747620D01*
X28952380Y5795239D02*
X28714285Y5080953D01*
X29333333Y5080953D01*
%TO.C,C2*%
X19337142Y29433334D02*
X19384761Y29385715D01*
X19432380Y29242858D01*
X19432380Y29147620D01*
X19384761Y29004762D01*
X19289523Y28909524D01*
X19194285Y28861905D01*
X19003809Y28814286D01*
X18860952Y28814286D01*
X18670476Y28861905D01*
X18575238Y28909524D01*
X18480000Y29004762D01*
X18432380Y29147620D01*
X18432380Y29242858D01*
X18480000Y29385715D01*
X18527619Y29433334D01*
X18527619Y29814286D02*
X18480000Y29861905D01*
X18432380Y29957143D01*
X18432380Y30195239D01*
X18480000Y30290477D01*
X18527619Y30338096D01*
X18622857Y30385715D01*
X18718095Y30385715D01*
X18860952Y30338096D01*
X19432380Y29766667D01*
X19432380Y30385715D01*
%TO.C,C3*%
X28233333Y7942858D02*
X28185714Y7895239D01*
X28042857Y7847620D01*
X27947619Y7847620D01*
X27804761Y7895239D01*
X27709523Y7990477D01*
X27661904Y8085715D01*
X27614285Y8276191D01*
X27614285Y8419048D01*
X27661904Y8609524D01*
X27709523Y8704762D01*
X27804761Y8800000D01*
X27947619Y8847620D01*
X28042857Y8847620D01*
X28185714Y8800000D01*
X28233333Y8752381D01*
X28566666Y8847620D02*
X29185714Y8847620D01*
X28852380Y8466667D01*
X28995238Y8466667D01*
X29090476Y8419048D01*
X29138095Y8371429D01*
X29185714Y8276191D01*
X29185714Y8038096D01*
X29138095Y7942858D01*
X29090476Y7895239D01*
X28995238Y7847620D01*
X28709523Y7847620D01*
X28614285Y7895239D01*
X28566666Y7942858D01*
%TO.C,U1*%
X6352380Y40938096D02*
X7161904Y40938096D01*
X7257142Y40985715D01*
X7304761Y41033334D01*
X7352380Y41128572D01*
X7352380Y41319048D01*
X7304761Y41414286D01*
X7257142Y41461905D01*
X7161904Y41509524D01*
X6352380Y41509524D01*
X7352380Y42509524D02*
X7352380Y41938096D01*
X7352380Y42223810D02*
X6352380Y42223810D01*
X6495238Y42128572D01*
X6590476Y42033334D01*
X6638095Y41938096D01*
%TO.C,C5*%
X12577142Y40633334D02*
X12624761Y40585715D01*
X12672380Y40442858D01*
X12672380Y40347620D01*
X12624761Y40204762D01*
X12529523Y40109524D01*
X12434285Y40061905D01*
X12243809Y40014286D01*
X12100952Y40014286D01*
X11910476Y40061905D01*
X11815238Y40109524D01*
X11720000Y40204762D01*
X11672380Y40347620D01*
X11672380Y40442858D01*
X11720000Y40585715D01*
X11767619Y40633334D01*
X11672380Y41538096D02*
X11672380Y41061905D01*
X12148571Y41014286D01*
X12100952Y41061905D01*
X12053333Y41157143D01*
X12053333Y41395239D01*
X12100952Y41490477D01*
X12148571Y41538096D01*
X12243809Y41585715D01*
X12481904Y41585715D01*
X12577142Y41538096D01*
X12624761Y41490477D01*
X12672380Y41395239D01*
X12672380Y41157143D01*
X12624761Y41061905D01*
X12577142Y41014286D01*
%TO.C,J4*%
X40466666Y21347620D02*
X40466666Y20633334D01*
X40419047Y20490477D01*
X40323809Y20395239D01*
X40180952Y20347620D01*
X40085714Y20347620D01*
X41371428Y21014286D02*
X41371428Y20347620D01*
X41133333Y21395239D02*
X40895238Y20680953D01*
X41514285Y20680953D01*
%TO.C,R4*%
X12802380Y29433334D02*
X12326190Y29100000D01*
X12802380Y28861905D02*
X11802380Y28861905D01*
X11802380Y29242858D01*
X11850000Y29338096D01*
X11897619Y29385715D01*
X11992857Y29433334D01*
X12135714Y29433334D01*
X12230952Y29385715D01*
X12278571Y29338096D01*
X12326190Y29242858D01*
X12326190Y28861905D01*
X12135714Y30290477D02*
X12802380Y30290477D01*
X11754761Y30052381D02*
X12469047Y29814286D01*
X12469047Y30433334D01*
%TO.C,C1*%
X5733333Y28662858D02*
X5685714Y28615239D01*
X5542857Y28567620D01*
X5447619Y28567620D01*
X5304761Y28615239D01*
X5209523Y28710477D01*
X5161904Y28805715D01*
X5114285Y28996191D01*
X5114285Y29139048D01*
X5161904Y29329524D01*
X5209523Y29424762D01*
X5304761Y29520000D01*
X5447619Y29567620D01*
X5542857Y29567620D01*
X5685714Y29520000D01*
X5733333Y29472381D01*
X6685714Y28567620D02*
X6114285Y28567620D01*
X6400000Y28567620D02*
X6400000Y29567620D01*
X6304761Y29424762D01*
X6209523Y29329524D01*
X6114285Y29281905D01*
D12*
%TO.C,J1*%
X29565000Y33790000D02*
X41565000Y33790000D01*
X29565000Y42290000D02*
X29565000Y33790000D01*
X41565000Y42290000D02*
X29565000Y42290000D01*
X41565000Y33790000D02*
X41565000Y42290000D01*
G36*
X29245000Y39790000D02*
G01*
X28610000Y39155000D01*
X28610000Y40425000D01*
X29245000Y39790000D01*
G37*
D13*
X29245000Y39790000D02*
X28610000Y39155000D01*
X28610000Y40425000D01*
X29245000Y39790000D01*
%TO.C,R3*%
X13165000Y29372936D02*
X13165000Y29827064D01*
X14635000Y29372936D02*
X14635000Y29827064D01*
%TO.C,D1*%
X32030000Y2735000D02*
X29745000Y2735000D01*
X29745000Y2735000D02*
X29745000Y1265000D01*
X29745000Y1265000D02*
X32030000Y1265000D01*
%TO.C,Q1*%
X23140000Y35500000D02*
X23140000Y36150000D01*
X26260000Y35500000D02*
X26260000Y36150000D01*
X23140000Y35500000D02*
X23140000Y33825000D01*
X26260000Y35500000D02*
X26260000Y34850000D01*
%TO.C,R1*%
X18035000Y41027064D02*
X18035000Y40572936D01*
X16565000Y41027064D02*
X16565000Y40572936D01*
%TO.C,JP1*%
X22000000Y30100000D02*
X22000000Y32100000D01*
X24800000Y30100000D02*
X22000000Y30100000D01*
X24800000Y32100000D02*
X24800000Y30100000D01*
X22000000Y32100000D02*
X24800000Y32100000D01*
%TO.C,C7*%
X38868621Y5660000D02*
X38868621Y4152000D01*
X38348621Y5660000D02*
X38348621Y3824000D01*
X37948621Y9747000D02*
X37948621Y7740000D01*
X39508621Y8590000D02*
X39508621Y4810000D01*
X37668621Y9831000D02*
X37668621Y7740000D01*
X36947621Y9930000D02*
X36947621Y3470000D01*
X37748621Y5660000D02*
X37748621Y3590000D01*
X37868621Y5660000D02*
X37868621Y3626000D01*
X36907621Y9930000D02*
X36907621Y3470000D01*
X39548621Y8534000D02*
X39548621Y4866000D01*
X39428621Y8695000D02*
X39428621Y4705000D01*
X37427621Y5660000D02*
X37427621Y3518000D01*
X38468621Y5660000D02*
X38468621Y3888000D01*
X38388621Y9556000D02*
X38388621Y7740000D01*
X39148621Y9005000D02*
X39148621Y7740000D01*
X37427621Y9882000D02*
X37427621Y7740000D01*
X40028621Y7502000D02*
X40028621Y5898000D01*
X36987621Y9928000D02*
X36987621Y3472000D01*
X38508621Y5660000D02*
X38508621Y3910000D01*
X33367380Y8539000D02*
X33997380Y8539000D01*
X38588621Y5660000D02*
X38588621Y3958000D01*
X40108621Y7102000D02*
X40108621Y6298000D01*
X37507621Y5660000D02*
X37507621Y3533000D01*
X38108621Y5660000D02*
X38108621Y3714000D01*
X38468621Y9512000D02*
X38468621Y7740000D01*
X38628621Y5660000D02*
X38628621Y3984000D01*
X37387621Y5660000D02*
X37387621Y3511000D01*
X39748621Y8209000D02*
X39748621Y5191000D01*
X39228621Y8924000D02*
X39228621Y4476000D01*
X38028621Y5660000D02*
X38028621Y3682000D01*
X38948621Y9184000D02*
X38948621Y7740000D01*
X39668621Y8350000D02*
X39668621Y5050000D01*
X37467621Y5660000D02*
X37467621Y3525000D01*
X37147621Y5660000D02*
X37147621Y3482000D01*
X38708621Y9364000D02*
X38708621Y7740000D01*
X39788621Y8132000D02*
X39788621Y5268000D01*
X37307621Y9901000D02*
X37307621Y7740000D01*
X38428621Y9534000D02*
X38428621Y7740000D01*
X37668621Y5660000D02*
X37668621Y3569000D01*
X37107621Y9922000D02*
X37107621Y7740000D01*
X39028621Y9116000D02*
X39028621Y7740000D01*
X38668621Y9390000D02*
X38668621Y7740000D01*
X39588621Y8476000D02*
X39588621Y4924000D01*
X38748621Y5660000D02*
X38748621Y4064000D01*
X40068621Y7333000D02*
X40068621Y6067000D01*
X39148621Y5660000D02*
X39148621Y4395000D01*
X38828621Y5660000D02*
X38828621Y4122000D01*
X37187621Y5660000D02*
X37187621Y3485000D01*
X38148621Y9670000D02*
X38148621Y7740000D01*
X37187621Y9915000D02*
X37187621Y7740000D01*
X38508621Y9490000D02*
X38508621Y7740000D01*
X38188621Y9652000D02*
X38188621Y7740000D01*
X38548621Y5660000D02*
X38548621Y3934000D01*
X39308621Y8837000D02*
X39308621Y4563000D01*
X38788621Y9307000D02*
X38788621Y7740000D01*
X37628621Y5660000D02*
X37628621Y3559000D01*
X38148621Y5660000D02*
X38148621Y3730000D01*
X38268621Y5660000D02*
X38268621Y3784000D01*
X39388621Y8744000D02*
X39388621Y4656000D01*
X39348621Y8792000D02*
X39348621Y4608000D01*
X38188621Y5660000D02*
X38188621Y3748000D01*
X39108621Y9043000D02*
X39108621Y7740000D01*
X37828621Y5660000D02*
X37828621Y3614000D01*
X39828621Y8050000D02*
X39828621Y5350000D01*
X37588621Y9850000D02*
X37588621Y7740000D01*
X38228621Y9634000D02*
X38228621Y7740000D01*
X39108621Y5660000D02*
X39108621Y4357000D01*
X38028621Y9718000D02*
X38028621Y7740000D01*
X38388621Y5660000D02*
X38388621Y3844000D01*
X37347621Y5660000D02*
X37347621Y3505000D01*
X37748621Y9810000D02*
X37748621Y7740000D01*
X38788621Y5660000D02*
X38788621Y4093000D01*
X39028621Y5660000D02*
X39028621Y4284000D01*
X37988621Y9733000D02*
X37988621Y7740000D01*
X37588621Y5660000D02*
X37588621Y3550000D01*
X33682380Y8854000D02*
X33682380Y8224000D01*
X38428621Y5660000D02*
X38428621Y3866000D01*
X39628621Y8414000D02*
X39628621Y4986000D01*
X39068621Y9080000D02*
X39068621Y7740000D01*
X39708621Y8281000D02*
X39708621Y5119000D01*
X37467621Y9875000D02*
X37467621Y7740000D01*
X39948621Y7759000D02*
X39948621Y5641000D01*
X39988621Y7640000D02*
X39988621Y5760000D01*
X37307621Y5660000D02*
X37307621Y3499000D01*
X38308621Y9596000D02*
X38308621Y7740000D01*
X37908621Y5660000D02*
X37908621Y3639000D01*
X37387621Y9889000D02*
X37387621Y7740000D01*
X37547621Y9859000D02*
X37547621Y7740000D01*
X37788621Y9798000D02*
X37788621Y7740000D01*
X36867621Y9930000D02*
X36867621Y3470000D01*
X37708621Y5660000D02*
X37708621Y3579000D01*
X38548621Y9466000D02*
X38548621Y7740000D01*
X37708621Y9821000D02*
X37708621Y7740000D01*
X37988621Y5660000D02*
X37988621Y3667000D01*
X37628621Y9841000D02*
X37628621Y7740000D01*
X37147621Y9918000D02*
X37147621Y7740000D01*
X38988621Y9150000D02*
X38988621Y7740000D01*
X39188621Y8965000D02*
X39188621Y4435000D01*
X38308621Y5660000D02*
X38308621Y3804000D01*
X38828621Y9278000D02*
X38828621Y7740000D01*
X37107621Y5660000D02*
X37107621Y3478000D01*
X37828621Y9786000D02*
X37828621Y7740000D01*
X37788621Y5660000D02*
X37788621Y3602000D01*
X39908621Y7865000D02*
X39908621Y5535000D01*
X38748621Y9336000D02*
X38748621Y7740000D01*
X38908621Y5660000D02*
X38908621Y4184000D01*
X37948621Y5660000D02*
X37948621Y3653000D01*
X39268621Y8882000D02*
X39268621Y4518000D01*
X39468621Y8644000D02*
X39468621Y4756000D01*
X39868621Y7962000D02*
X39868621Y5438000D01*
X37267621Y5660000D02*
X37267621Y3494000D01*
X39068621Y5660000D02*
X39068621Y4320000D01*
X38588621Y9442000D02*
X38588621Y7740000D01*
X37507621Y9867000D02*
X37507621Y7740000D01*
X38228621Y5660000D02*
X38228621Y3766000D01*
X37027621Y9927000D02*
X37027621Y3473000D01*
X38948621Y5660000D02*
X38948621Y4216000D01*
X38668621Y5660000D02*
X38668621Y4010000D01*
X38868621Y9248000D02*
X38868621Y7740000D01*
X37227621Y5660000D02*
X37227621Y3489000D01*
X38348621Y9576000D02*
X38348621Y7740000D01*
X38708621Y5660000D02*
X38708621Y4036000D01*
X37267621Y9906000D02*
X37267621Y7740000D01*
X38908621Y9216000D02*
X38908621Y7740000D01*
X38108621Y9686000D02*
X38108621Y7740000D01*
X37868621Y9774000D02*
X37868621Y7740000D01*
X37908621Y9761000D02*
X37908621Y7740000D01*
X37227621Y9911000D02*
X37227621Y7740000D01*
X38068621Y9702000D02*
X38068621Y7740000D01*
X38068621Y5660000D02*
X38068621Y3698000D01*
X37347621Y9895000D02*
X37347621Y7740000D01*
X38268621Y9616000D02*
X38268621Y7740000D01*
X37547621Y5660000D02*
X37547621Y3541000D01*
X38988621Y5660000D02*
X38988621Y4250000D01*
X38628621Y9416000D02*
X38628621Y7740000D01*
X37067621Y9924000D02*
X37067621Y3476000D01*
X40137621Y6700000D02*
G75*
G03*
X40137621Y6700000I-3270000J0D01*
G01*
%TO.C,IC1*%
X13260000Y35500000D02*
X13260000Y34700000D01*
X10140000Y35500000D02*
X10140000Y36300000D01*
X13260000Y35500000D02*
X13260000Y36300000D01*
X10140000Y35500000D02*
X10140000Y33700000D01*
%TO.C,C6*%
X6161252Y38035000D02*
X5638748Y38035000D01*
X6161252Y36565000D02*
X5638748Y36565000D01*
D12*
%TO.C,J3*%
X33015000Y10660000D02*
X29815000Y10660000D01*
X29815000Y10660000D02*
X29815000Y17410000D01*
X29815000Y17410000D02*
X33015000Y17410000D01*
X33015000Y17410000D02*
X33015000Y10660000D01*
G36*
X33643000Y11652000D02*
G01*
X33135000Y12160000D01*
X33643000Y12668000D01*
X33643000Y11652000D01*
G37*
D13*
X33643000Y11652000D02*
X33135000Y12160000D01*
X33643000Y12668000D01*
X33643000Y11652000D01*
%TO.C,G\u002A\u002A\u002A*%
G36*
X26357893Y29795104D02*
G01*
X26334252Y29808397D01*
X26311439Y29825291D01*
X26302939Y29833204D01*
X26297737Y29840786D01*
X26286589Y29858718D01*
X26269880Y29886338D01*
X26247991Y29922987D01*
X26221306Y29968002D01*
X26190208Y30020723D01*
X26155080Y30080488D01*
X26116305Y30146637D01*
X26074266Y30218508D01*
X26029345Y30295440D01*
X25981926Y30376772D01*
X25932392Y30461842D01*
X25881125Y30549991D01*
X25828509Y30640556D01*
X25774926Y30732876D01*
X25720760Y30826291D01*
X25666393Y30920139D01*
X25612209Y31013759D01*
X25558590Y31106490D01*
X25505920Y31197671D01*
X25454581Y31286641D01*
X25404956Y31372738D01*
X25357428Y31455301D01*
X25312381Y31533670D01*
X25270197Y31607183D01*
X25231259Y31675180D01*
X25195950Y31736998D01*
X25164653Y31791977D01*
X25137752Y31839455D01*
X25115628Y31878772D01*
X25098665Y31909267D01*
X25087246Y31930278D01*
X25081754Y31941144D01*
X25081443Y31941921D01*
X25075395Y31969067D01*
X25073260Y32001792D01*
X25073869Y32012450D01*
X25717771Y32012450D01*
X25717927Y31945609D01*
X25719065Y31888432D01*
X25721454Y31837902D01*
X25725360Y31791005D01*
X25731052Y31744724D01*
X25738798Y31696042D01*
X25748867Y31641945D01*
X25752203Y31625100D01*
X25788141Y31477145D01*
X25835550Y31333952D01*
X25893930Y31196041D01*
X25962783Y31063933D01*
X26041608Y30938147D01*
X26129906Y30819203D01*
X26227177Y30707622D01*
X26332922Y30603924D01*
X26446641Y30508628D01*
X26567834Y30422256D01*
X26696003Y30345326D01*
X26830648Y30278359D01*
X26971268Y30221876D01*
X27117365Y30176396D01*
X27152325Y30167389D01*
X27212177Y30153139D01*
X27265936Y30141784D01*
X27316334Y30133021D01*
X27366101Y30126547D01*
X27417969Y30122061D01*
X27474670Y30119261D01*
X27538936Y30117844D01*
X27603175Y30117501D01*
X27660252Y30117623D01*
X27706853Y30118064D01*
X27745198Y30118939D01*
X27777510Y30120360D01*
X27806011Y30122441D01*
X27832920Y30125295D01*
X27860461Y30129035D01*
X27876225Y30131440D01*
X28032436Y30162100D01*
X28183314Y30204213D01*
X28328652Y30257680D01*
X28468249Y30322406D01*
X28601900Y30398292D01*
X28729400Y30485241D01*
X28850546Y30583157D01*
X28881763Y30611116D01*
X28991027Y30719567D01*
X29090255Y30835671D01*
X29179243Y30959041D01*
X29257787Y31089293D01*
X29325682Y31226040D01*
X29382725Y31368897D01*
X29428711Y31517478D01*
X29463438Y31671398D01*
X29473431Y31729875D01*
X29479462Y31774179D01*
X29482012Y31811490D01*
X29480974Y31846759D01*
X29476239Y31884939D01*
X29469192Y31923550D01*
X29443612Y32022761D01*
X29406471Y32123539D01*
X29358641Y32224837D01*
X29300988Y32325608D01*
X29234382Y32424806D01*
X29159691Y32521384D01*
X29077785Y32614295D01*
X28989532Y32702494D01*
X28895800Y32784932D01*
X28797459Y32860563D01*
X28695378Y32928342D01*
X28590424Y32987220D01*
X28583326Y32990814D01*
X28496494Y33029777D01*
X28399299Y33064968D01*
X28293598Y33096063D01*
X28181250Y33122736D01*
X28064115Y33144662D01*
X27944050Y33161516D01*
X27822916Y33172974D01*
X27702571Y33178711D01*
X27584874Y33178401D01*
X27525331Y33175743D01*
X27400751Y33165386D01*
X27282098Y33149767D01*
X27170815Y33129162D01*
X27068342Y33103848D01*
X26976122Y33074101D01*
X26956731Y33066746D01*
X26929311Y33056564D01*
X26906029Y33048924D01*
X26889503Y33044619D01*
X26882555Y33044259D01*
X26876195Y33054151D01*
X26880367Y33068473D01*
X26894047Y33086384D01*
X26916215Y33107040D01*
X26945849Y33129599D01*
X26981925Y33153220D01*
X27023422Y33177059D01*
X27069317Y33200275D01*
X27075237Y33203056D01*
X27197920Y33253975D01*
X27328856Y33296631D01*
X27466485Y33330823D01*
X27609247Y33356348D01*
X27755581Y33373006D01*
X27903928Y33380596D01*
X28052728Y33378915D01*
X28200419Y33367762D01*
X28276275Y33358151D01*
X28421368Y33331519D01*
X28559286Y33294580D01*
X28690661Y33247043D01*
X28816127Y33188617D01*
X28936315Y33119013D01*
X29051859Y33037938D01*
X29150965Y32956194D01*
X29207803Y32900097D01*
X29263886Y32833434D01*
X29317460Y32758301D01*
X29320683Y32753375D01*
X29337529Y32727854D01*
X29351926Y32706720D01*
X29362471Y32691982D01*
X29367761Y32685651D01*
X29368001Y32685550D01*
X29367523Y32690933D01*
X29362131Y32705914D01*
X29352606Y32728740D01*
X29339733Y32757661D01*
X29324293Y32790924D01*
X29307070Y32826776D01*
X29288846Y32863465D01*
X29285916Y32869245D01*
X29254948Y32926476D01*
X29219272Y32986146D01*
X29180078Y33046687D01*
X29138555Y33106535D01*
X29095895Y33164124D01*
X29053289Y33217887D01*
X29011925Y33266260D01*
X28972996Y33307676D01*
X28937691Y33340570D01*
X28913201Y33359463D01*
X28853493Y33396255D01*
X28783396Y33432959D01*
X28705197Y33468725D01*
X28621186Y33502702D01*
X28533650Y33534040D01*
X28444876Y33561887D01*
X28357154Y33585394D01*
X28272771Y33603710D01*
X28241261Y33609263D01*
X28190624Y33615939D01*
X28130109Y33621255D01*
X28062473Y33625111D01*
X27990476Y33627405D01*
X27916875Y33628039D01*
X27844429Y33626911D01*
X27800626Y33625252D01*
X27638472Y33613959D01*
X27487146Y33596031D01*
X27346648Y33571468D01*
X27216977Y33540270D01*
X27098132Y33502437D01*
X26990113Y33457968D01*
X26892919Y33406863D01*
X26806549Y33349121D01*
X26774053Y33323352D01*
X26752728Y33306086D01*
X26734667Y33292423D01*
X26722271Y33284128D01*
X26718381Y33282450D01*
X26710037Y33286860D01*
X26709984Y33299411D01*
X26717722Y33319078D01*
X26732749Y33344839D01*
X26754562Y33375669D01*
X26779141Y33406380D01*
X26839231Y33468840D01*
X26910598Y33526988D01*
X26992489Y33580573D01*
X27084147Y33629343D01*
X27184818Y33673049D01*
X27293745Y33711437D01*
X27410175Y33744259D01*
X27533351Y33771262D01*
X27662520Y33792196D01*
X27796924Y33806810D01*
X27935810Y33814852D01*
X28012750Y33816377D01*
X28052335Y33816692D01*
X28080490Y33817135D01*
X28098482Y33817853D01*
X28107582Y33818993D01*
X28109058Y33820700D01*
X28104179Y33823123D01*
X28095658Y33825955D01*
X28031295Y33843210D01*
X27956929Y33858057D01*
X27875080Y33870179D01*
X27788270Y33879258D01*
X27699023Y33884978D01*
X27609860Y33887022D01*
X27609525Y33887022D01*
X27495801Y33884593D01*
X27390009Y33876774D01*
X27288375Y33863107D01*
X27187130Y33843137D01*
X27128361Y33828815D01*
X26981933Y33784411D01*
X26840878Y33728795D01*
X26705701Y33662482D01*
X26576907Y33585990D01*
X26455004Y33499836D01*
X26340498Y33404538D01*
X26233893Y33300613D01*
X26135696Y33188578D01*
X26046414Y33068951D01*
X25966551Y32942248D01*
X25896615Y32808987D01*
X25837110Y32669685D01*
X25788544Y32524859D01*
X25764672Y32434725D01*
X25749502Y32367125D01*
X25737776Y32304610D01*
X25729127Y32243853D01*
X25723184Y32181527D01*
X25719578Y32114304D01*
X25717940Y32038859D01*
X25717771Y32012450D01*
X25073869Y32012450D01*
X25075101Y32034023D01*
X25080196Y32057539D01*
X25084103Y32065194D01*
X25094050Y32083288D01*
X25109721Y32111268D01*
X25130798Y32148581D01*
X25156964Y32194671D01*
X25187901Y32248986D01*
X25223293Y32310970D01*
X25262823Y32380070D01*
X25306173Y32455732D01*
X25353026Y32537401D01*
X25403065Y32624525D01*
X25455972Y32716548D01*
X25511432Y32812917D01*
X25569125Y32913077D01*
X25628736Y33016475D01*
X25679612Y33104650D01*
X25764233Y33251162D01*
X25842607Y33386656D01*
X25914753Y33511164D01*
X25980688Y33624715D01*
X26040430Y33727340D01*
X26093997Y33819069D01*
X26141406Y33899931D01*
X26182675Y33969959D01*
X26217822Y34029181D01*
X26246866Y34077628D01*
X26269823Y34115331D01*
X26286711Y34142319D01*
X26297548Y34158624D01*
X26301032Y34163155D01*
X26327291Y34188237D01*
X26354817Y34204822D01*
X26365429Y34209193D01*
X26369741Y34210764D01*
X26374282Y34212204D01*
X26379597Y34213518D01*
X26386235Y34214713D01*
X26394741Y34215793D01*
X26405662Y34216764D01*
X26419545Y34217633D01*
X26436937Y34218405D01*
X26458385Y34219086D01*
X26484435Y34219681D01*
X26515634Y34220197D01*
X26552529Y34220638D01*
X26595667Y34221011D01*
X26645594Y34221322D01*
X26702857Y34221575D01*
X26768003Y34221778D01*
X26841579Y34221935D01*
X26924132Y34222053D01*
X27016207Y34222137D01*
X27118353Y34222193D01*
X27231115Y34222226D01*
X27355041Y34222243D01*
X27490677Y34222249D01*
X27609525Y34222250D01*
X27755069Y34222248D01*
X27888459Y34222239D01*
X28010243Y34222218D01*
X28120967Y34222179D01*
X28221176Y34222115D01*
X28311419Y34222022D01*
X28392240Y34221894D01*
X28464188Y34221725D01*
X28527808Y34221510D01*
X28583647Y34221243D01*
X28632251Y34220918D01*
X28674167Y34220529D01*
X28709943Y34220072D01*
X28740123Y34219540D01*
X28765255Y34218928D01*
X28785885Y34218230D01*
X28802560Y34217441D01*
X28815826Y34216555D01*
X28826230Y34215565D01*
X28834319Y34214468D01*
X28840638Y34213256D01*
X28845736Y34211925D01*
X28850157Y34210469D01*
X28852967Y34209437D01*
X28884981Y34192831D01*
X28913428Y34169853D01*
X28913530Y34169750D01*
X28919728Y34161587D01*
X28930872Y34144664D01*
X28947059Y34118813D01*
X28968389Y34083866D01*
X28994960Y34039655D01*
X29026871Y33986014D01*
X29064219Y33922774D01*
X29107104Y33849767D01*
X29155625Y33766827D01*
X29209879Y33673785D01*
X29269966Y33570474D01*
X29335983Y33456726D01*
X29408030Y33332374D01*
X29486206Y33197249D01*
X29534221Y33114175D01*
X29595364Y33008304D01*
X29654865Y32905180D01*
X29712408Y32805357D01*
X29767673Y32709390D01*
X29820343Y32617835D01*
X29870101Y32531246D01*
X29916627Y32450178D01*
X29959606Y32375187D01*
X29998718Y32306826D01*
X30033645Y32245653D01*
X30064071Y32192221D01*
X30089676Y32147085D01*
X30110143Y32110801D01*
X30125155Y32083923D01*
X30134393Y32067007D01*
X30137472Y32060864D01*
X30145427Y32023714D01*
X30145433Y31982708D01*
X30137757Y31943567D01*
X30131235Y31926725D01*
X30124884Y31914523D01*
X30112662Y31892285D01*
X30094952Y31860670D01*
X30072139Y31820341D01*
X30044605Y31771958D01*
X30012736Y31716184D01*
X29976915Y31653679D01*
X29937525Y31585106D01*
X29894951Y31511125D01*
X29849577Y31432397D01*
X29801786Y31349585D01*
X29751962Y31263350D01*
X29700489Y31174354D01*
X29647752Y31083256D01*
X29594133Y30990720D01*
X29540018Y30897406D01*
X29485789Y30803976D01*
X29431830Y30711092D01*
X29378526Y30619414D01*
X29326260Y30529605D01*
X29275417Y30442324D01*
X29226379Y30358235D01*
X29179532Y30277999D01*
X29135258Y30202276D01*
X29093942Y30131729D01*
X29055967Y30067018D01*
X29021719Y30008806D01*
X28991579Y29957753D01*
X28965932Y29914521D01*
X28945163Y29879771D01*
X28929655Y29854166D01*
X28919791Y29838365D01*
X28916199Y29833204D01*
X28896431Y29816437D01*
X28872210Y29800747D01*
X28861156Y29795104D01*
X28828725Y29780425D01*
X26390325Y29780425D01*
X26357893Y29795104D01*
G37*
D14*
X26357893Y29795104D02*
X26334252Y29808397D01*
X26311439Y29825291D01*
X26302939Y29833204D01*
X26297737Y29840786D01*
X26286589Y29858718D01*
X26269880Y29886338D01*
X26247991Y29922987D01*
X26221306Y29968002D01*
X26190208Y30020723D01*
X26155080Y30080488D01*
X26116305Y30146637D01*
X26074266Y30218508D01*
X26029345Y30295440D01*
X25981926Y30376772D01*
X25932392Y30461842D01*
X25881125Y30549991D01*
X25828509Y30640556D01*
X25774926Y30732876D01*
X25720760Y30826291D01*
X25666393Y30920139D01*
X25612209Y31013759D01*
X25558590Y31106490D01*
X25505920Y31197671D01*
X25454581Y31286641D01*
X25404956Y31372738D01*
X25357428Y31455301D01*
X25312381Y31533670D01*
X25270197Y31607183D01*
X25231259Y31675180D01*
X25195950Y31736998D01*
X25164653Y31791977D01*
X25137752Y31839455D01*
X25115628Y31878772D01*
X25098665Y31909267D01*
X25087246Y31930278D01*
X25081754Y31941144D01*
X25081443Y31941921D01*
X25075395Y31969067D01*
X25073260Y32001792D01*
X25073869Y32012450D01*
X25717771Y32012450D01*
X25717927Y31945609D01*
X25719065Y31888432D01*
X25721454Y31837902D01*
X25725360Y31791005D01*
X25731052Y31744724D01*
X25738798Y31696042D01*
X25748867Y31641945D01*
X25752203Y31625100D01*
X25788141Y31477145D01*
X25835550Y31333952D01*
X25893930Y31196041D01*
X25962783Y31063933D01*
X26041608Y30938147D01*
X26129906Y30819203D01*
X26227177Y30707622D01*
X26332922Y30603924D01*
X26446641Y30508628D01*
X26567834Y30422256D01*
X26696003Y30345326D01*
X26830648Y30278359D01*
X26971268Y30221876D01*
X27117365Y30176396D01*
X27152325Y30167389D01*
X27212177Y30153139D01*
X27265936Y30141784D01*
X27316334Y30133021D01*
X27366101Y30126547D01*
X27417969Y30122061D01*
X27474670Y30119261D01*
X27538936Y30117844D01*
X27603175Y30117501D01*
X27660252Y30117623D01*
X27706853Y30118064D01*
X27745198Y30118939D01*
X27777510Y30120360D01*
X27806011Y30122441D01*
X27832920Y30125295D01*
X27860461Y30129035D01*
X27876225Y30131440D01*
X28032436Y30162100D01*
X28183314Y30204213D01*
X28328652Y30257680D01*
X28468249Y30322406D01*
X28601900Y30398292D01*
X28729400Y30485241D01*
X28850546Y30583157D01*
X28881763Y30611116D01*
X28991027Y30719567D01*
X29090255Y30835671D01*
X29179243Y30959041D01*
X29257787Y31089293D01*
X29325682Y31226040D01*
X29382725Y31368897D01*
X29428711Y31517478D01*
X29463438Y31671398D01*
X29473431Y31729875D01*
X29479462Y31774179D01*
X29482012Y31811490D01*
X29480974Y31846759D01*
X29476239Y31884939D01*
X29469192Y31923550D01*
X29443612Y32022761D01*
X29406471Y32123539D01*
X29358641Y32224837D01*
X29300988Y32325608D01*
X29234382Y32424806D01*
X29159691Y32521384D01*
X29077785Y32614295D01*
X28989532Y32702494D01*
X28895800Y32784932D01*
X28797459Y32860563D01*
X28695378Y32928342D01*
X28590424Y32987220D01*
X28583326Y32990814D01*
X28496494Y33029777D01*
X28399299Y33064968D01*
X28293598Y33096063D01*
X28181250Y33122736D01*
X28064115Y33144662D01*
X27944050Y33161516D01*
X27822916Y33172974D01*
X27702571Y33178711D01*
X27584874Y33178401D01*
X27525331Y33175743D01*
X27400751Y33165386D01*
X27282098Y33149767D01*
X27170815Y33129162D01*
X27068342Y33103848D01*
X26976122Y33074101D01*
X26956731Y33066746D01*
X26929311Y33056564D01*
X26906029Y33048924D01*
X26889503Y33044619D01*
X26882555Y33044259D01*
X26876195Y33054151D01*
X26880367Y33068473D01*
X26894047Y33086384D01*
X26916215Y33107040D01*
X26945849Y33129599D01*
X26981925Y33153220D01*
X27023422Y33177059D01*
X27069317Y33200275D01*
X27075237Y33203056D01*
X27197920Y33253975D01*
X27328856Y33296631D01*
X27466485Y33330823D01*
X27609247Y33356348D01*
X27755581Y33373006D01*
X27903928Y33380596D01*
X28052728Y33378915D01*
X28200419Y33367762D01*
X28276275Y33358151D01*
X28421368Y33331519D01*
X28559286Y33294580D01*
X28690661Y33247043D01*
X28816127Y33188617D01*
X28936315Y33119013D01*
X29051859Y33037938D01*
X29150965Y32956194D01*
X29207803Y32900097D01*
X29263886Y32833434D01*
X29317460Y32758301D01*
X29320683Y32753375D01*
X29337529Y32727854D01*
X29351926Y32706720D01*
X29362471Y32691982D01*
X29367761Y32685651D01*
X29368001Y32685550D01*
X29367523Y32690933D01*
X29362131Y32705914D01*
X29352606Y32728740D01*
X29339733Y32757661D01*
X29324293Y32790924D01*
X29307070Y32826776D01*
X29288846Y32863465D01*
X29285916Y32869245D01*
X29254948Y32926476D01*
X29219272Y32986146D01*
X29180078Y33046687D01*
X29138555Y33106535D01*
X29095895Y33164124D01*
X29053289Y33217887D01*
X29011925Y33266260D01*
X28972996Y33307676D01*
X28937691Y33340570D01*
X28913201Y33359463D01*
X28853493Y33396255D01*
X28783396Y33432959D01*
X28705197Y33468725D01*
X28621186Y33502702D01*
X28533650Y33534040D01*
X28444876Y33561887D01*
X28357154Y33585394D01*
X28272771Y33603710D01*
X28241261Y33609263D01*
X28190624Y33615939D01*
X28130109Y33621255D01*
X28062473Y33625111D01*
X27990476Y33627405D01*
X27916875Y33628039D01*
X27844429Y33626911D01*
X27800626Y33625252D01*
X27638472Y33613959D01*
X27487146Y33596031D01*
X27346648Y33571468D01*
X27216977Y33540270D01*
X27098132Y33502437D01*
X26990113Y33457968D01*
X26892919Y33406863D01*
X26806549Y33349121D01*
X26774053Y33323352D01*
X26752728Y33306086D01*
X26734667Y33292423D01*
X26722271Y33284128D01*
X26718381Y33282450D01*
X26710037Y33286860D01*
X26709984Y33299411D01*
X26717722Y33319078D01*
X26732749Y33344839D01*
X26754562Y33375669D01*
X26779141Y33406380D01*
X26839231Y33468840D01*
X26910598Y33526988D01*
X26992489Y33580573D01*
X27084147Y33629343D01*
X27184818Y33673049D01*
X27293745Y33711437D01*
X27410175Y33744259D01*
X27533351Y33771262D01*
X27662520Y33792196D01*
X27796924Y33806810D01*
X27935810Y33814852D01*
X28012750Y33816377D01*
X28052335Y33816692D01*
X28080490Y33817135D01*
X28098482Y33817853D01*
X28107582Y33818993D01*
X28109058Y33820700D01*
X28104179Y33823123D01*
X28095658Y33825955D01*
X28031295Y33843210D01*
X27956929Y33858057D01*
X27875080Y33870179D01*
X27788270Y33879258D01*
X27699023Y33884978D01*
X27609860Y33887022D01*
X27609525Y33887022D01*
X27495801Y33884593D01*
X27390009Y33876774D01*
X27288375Y33863107D01*
X27187130Y33843137D01*
X27128361Y33828815D01*
X26981933Y33784411D01*
X26840878Y33728795D01*
X26705701Y33662482D01*
X26576907Y33585990D01*
X26455004Y33499836D01*
X26340498Y33404538D01*
X26233893Y33300613D01*
X26135696Y33188578D01*
X26046414Y33068951D01*
X25966551Y32942248D01*
X25896615Y32808987D01*
X25837110Y32669685D01*
X25788544Y32524859D01*
X25764672Y32434725D01*
X25749502Y32367125D01*
X25737776Y32304610D01*
X25729127Y32243853D01*
X25723184Y32181527D01*
X25719578Y32114304D01*
X25717940Y32038859D01*
X25717771Y32012450D01*
X25073869Y32012450D01*
X25075101Y32034023D01*
X25080196Y32057539D01*
X25084103Y32065194D01*
X25094050Y32083288D01*
X25109721Y32111268D01*
X25130798Y32148581D01*
X25156964Y32194671D01*
X25187901Y32248986D01*
X25223293Y32310970D01*
X25262823Y32380070D01*
X25306173Y32455732D01*
X25353026Y32537401D01*
X25403065Y32624525D01*
X25455972Y32716548D01*
X25511432Y32812917D01*
X25569125Y32913077D01*
X25628736Y33016475D01*
X25679612Y33104650D01*
X25764233Y33251162D01*
X25842607Y33386656D01*
X25914753Y33511164D01*
X25980688Y33624715D01*
X26040430Y33727340D01*
X26093997Y33819069D01*
X26141406Y33899931D01*
X26182675Y33969959D01*
X26217822Y34029181D01*
X26246866Y34077628D01*
X26269823Y34115331D01*
X26286711Y34142319D01*
X26297548Y34158624D01*
X26301032Y34163155D01*
X26327291Y34188237D01*
X26354817Y34204822D01*
X26365429Y34209193D01*
X26369741Y34210764D01*
X26374282Y34212204D01*
X26379597Y34213518D01*
X26386235Y34214713D01*
X26394741Y34215793D01*
X26405662Y34216764D01*
X26419545Y34217633D01*
X26436937Y34218405D01*
X26458385Y34219086D01*
X26484435Y34219681D01*
X26515634Y34220197D01*
X26552529Y34220638D01*
X26595667Y34221011D01*
X26645594Y34221322D01*
X26702857Y34221575D01*
X26768003Y34221778D01*
X26841579Y34221935D01*
X26924132Y34222053D01*
X27016207Y34222137D01*
X27118353Y34222193D01*
X27231115Y34222226D01*
X27355041Y34222243D01*
X27490677Y34222249D01*
X27609525Y34222250D01*
X27755069Y34222248D01*
X27888459Y34222239D01*
X28010243Y34222218D01*
X28120967Y34222179D01*
X28221176Y34222115D01*
X28311419Y34222022D01*
X28392240Y34221894D01*
X28464188Y34221725D01*
X28527808Y34221510D01*
X28583647Y34221243D01*
X28632251Y34220918D01*
X28674167Y34220529D01*
X28709943Y34220072D01*
X28740123Y34219540D01*
X28765255Y34218928D01*
X28785885Y34218230D01*
X28802560Y34217441D01*
X28815826Y34216555D01*
X28826230Y34215565D01*
X28834319Y34214468D01*
X28840638Y34213256D01*
X28845736Y34211925D01*
X28850157Y34210469D01*
X28852967Y34209437D01*
X28884981Y34192831D01*
X28913428Y34169853D01*
X28913530Y34169750D01*
X28919728Y34161587D01*
X28930872Y34144664D01*
X28947059Y34118813D01*
X28968389Y34083866D01*
X28994960Y34039655D01*
X29026871Y33986014D01*
X29064219Y33922774D01*
X29107104Y33849767D01*
X29155625Y33766827D01*
X29209879Y33673785D01*
X29269966Y33570474D01*
X29335983Y33456726D01*
X29408030Y33332374D01*
X29486206Y33197249D01*
X29534221Y33114175D01*
X29595364Y33008304D01*
X29654865Y32905180D01*
X29712408Y32805357D01*
X29767673Y32709390D01*
X29820343Y32617835D01*
X29870101Y32531246D01*
X29916627Y32450178D01*
X29959606Y32375187D01*
X29998718Y32306826D01*
X30033645Y32245653D01*
X30064071Y32192221D01*
X30089676Y32147085D01*
X30110143Y32110801D01*
X30125155Y32083923D01*
X30134393Y32067007D01*
X30137472Y32060864D01*
X30145427Y32023714D01*
X30145433Y31982708D01*
X30137757Y31943567D01*
X30131235Y31926725D01*
X30124884Y31914523D01*
X30112662Y31892285D01*
X30094952Y31860670D01*
X30072139Y31820341D01*
X30044605Y31771958D01*
X30012736Y31716184D01*
X29976915Y31653679D01*
X29937525Y31585106D01*
X29894951Y31511125D01*
X29849577Y31432397D01*
X29801786Y31349585D01*
X29751962Y31263350D01*
X29700489Y31174354D01*
X29647752Y31083256D01*
X29594133Y30990720D01*
X29540018Y30897406D01*
X29485789Y30803976D01*
X29431830Y30711092D01*
X29378526Y30619414D01*
X29326260Y30529605D01*
X29275417Y30442324D01*
X29226379Y30358235D01*
X29179532Y30277999D01*
X29135258Y30202276D01*
X29093942Y30131729D01*
X29055967Y30067018D01*
X29021719Y30008806D01*
X28991579Y29957753D01*
X28965932Y29914521D01*
X28945163Y29879771D01*
X28929655Y29854166D01*
X28919791Y29838365D01*
X28916199Y29833204D01*
X28896431Y29816437D01*
X28872210Y29800747D01*
X28861156Y29795104D01*
X28828725Y29780425D01*
X26390325Y29780425D01*
X26357893Y29795104D01*
G36*
X28385962Y26229162D02*
G01*
X28387700Y26119599D01*
X27611262Y26121212D01*
X26834825Y26122825D01*
X26834825Y26338725D01*
X28384225Y26338725D01*
X28385962Y26229162D01*
G37*
X28385962Y26229162D02*
X28387700Y26119599D01*
X27611262Y26121212D01*
X26834825Y26122825D01*
X26834825Y26338725D01*
X28384225Y26338725D01*
X28385962Y26229162D01*
G36*
X26831762Y26864187D02*
G01*
X26831942Y26921156D01*
X26832405Y26976373D01*
X26833114Y27028014D01*
X26834034Y27074255D01*
X26835127Y27113272D01*
X26836358Y27143241D01*
X26837691Y27162337D01*
X26837693Y27162361D01*
X26847564Y27217813D01*
X26864719Y27263140D01*
X26889643Y27298948D01*
X26922821Y27325837D01*
X26964736Y27344410D01*
X26989125Y27350767D01*
X27005363Y27352773D01*
X27032500Y27354460D01*
X27068844Y27355831D01*
X27112704Y27356890D01*
X27162389Y27357642D01*
X27216209Y27358091D01*
X27272474Y27358241D01*
X27329492Y27358095D01*
X27385572Y27357659D01*
X27439025Y27356935D01*
X27488158Y27355930D01*
X27531282Y27354645D01*
X27566707Y27353086D01*
X27592740Y27351257D01*
X27607286Y27349260D01*
X27654393Y27333158D01*
X27691980Y27308927D01*
X27720824Y27275875D01*
X27741699Y27233310D01*
X27743717Y27227494D01*
X27749892Y27209425D01*
X27754347Y27197179D01*
X27755664Y27194159D01*
X27761677Y27196039D01*
X27778424Y27202113D01*
X27804809Y27211962D01*
X27839732Y27225169D01*
X27882095Y27241316D01*
X27930800Y27259985D01*
X27984749Y27280758D01*
X28042844Y27303218D01*
X28068649Y27313222D01*
X28128276Y27336329D01*
X28184299Y27357987D01*
X28235608Y27377772D01*
X28281093Y27395258D01*
X28319646Y27410019D01*
X28350156Y27421630D01*
X28371514Y27429665D01*
X28382611Y27433700D01*
X28383944Y27434100D01*
X28385030Y27428079D01*
X28385807Y27411329D01*
X28386245Y27385816D01*
X28386308Y27353509D01*
X28385963Y27316374D01*
X28385952Y27315611D01*
X28384225Y27197123D01*
X27761925Y26966051D01*
X27758291Y26843669D01*
X28384225Y26840375D01*
X28385962Y26730837D01*
X28387699Y26621300D01*
X26831650Y26621300D01*
X26831752Y26843550D01*
X27015800Y26843550D01*
X27581662Y26843550D01*
X27579718Y26976687D01*
X27578957Y27021747D01*
X27578061Y27055824D01*
X27576873Y27080635D01*
X27575234Y27097895D01*
X27572988Y27109321D01*
X27569975Y27116630D01*
X27566435Y27121149D01*
X27562869Y27123973D01*
X27557572Y27126287D01*
X27549347Y27128141D01*
X27536999Y27129585D01*
X27519332Y27130670D01*
X27495149Y27131447D01*
X27463253Y27131965D01*
X27422449Y27132275D01*
X27371541Y27132428D01*
X27309331Y27132474D01*
X27297587Y27132475D01*
X27040077Y27132475D01*
X27027938Y27117484D01*
X27023808Y27111420D01*
X27020731Y27103647D01*
X27018554Y27092349D01*
X27017125Y27075708D01*
X27016292Y27051910D01*
X27015901Y27019137D01*
X27015800Y26975574D01*
X27015800Y26843550D01*
X26831752Y26843550D01*
X26831762Y26864187D01*
G37*
X26831762Y26864187D02*
X26831942Y26921156D01*
X26832405Y26976373D01*
X26833114Y27028014D01*
X26834034Y27074255D01*
X26835127Y27113272D01*
X26836358Y27143241D01*
X26837691Y27162337D01*
X26837693Y27162361D01*
X26847564Y27217813D01*
X26864719Y27263140D01*
X26889643Y27298948D01*
X26922821Y27325837D01*
X26964736Y27344410D01*
X26989125Y27350767D01*
X27005363Y27352773D01*
X27032500Y27354460D01*
X27068844Y27355831D01*
X27112704Y27356890D01*
X27162389Y27357642D01*
X27216209Y27358091D01*
X27272474Y27358241D01*
X27329492Y27358095D01*
X27385572Y27357659D01*
X27439025Y27356935D01*
X27488158Y27355930D01*
X27531282Y27354645D01*
X27566707Y27353086D01*
X27592740Y27351257D01*
X27607286Y27349260D01*
X27654393Y27333158D01*
X27691980Y27308927D01*
X27720824Y27275875D01*
X27741699Y27233310D01*
X27743717Y27227494D01*
X27749892Y27209425D01*
X27754347Y27197179D01*
X27755664Y27194159D01*
X27761677Y27196039D01*
X27778424Y27202113D01*
X27804809Y27211962D01*
X27839732Y27225169D01*
X27882095Y27241316D01*
X27930800Y27259985D01*
X27984749Y27280758D01*
X28042844Y27303218D01*
X28068649Y27313222D01*
X28128276Y27336329D01*
X28184299Y27357987D01*
X28235608Y27377772D01*
X28281093Y27395258D01*
X28319646Y27410019D01*
X28350156Y27421630D01*
X28371514Y27429665D01*
X28382611Y27433700D01*
X28383944Y27434100D01*
X28385030Y27428079D01*
X28385807Y27411329D01*
X28386245Y27385816D01*
X28386308Y27353509D01*
X28385963Y27316374D01*
X28385952Y27315611D01*
X28384225Y27197123D01*
X27761925Y26966051D01*
X27758291Y26843669D01*
X28384225Y26840375D01*
X28385962Y26730837D01*
X28387699Y26621300D01*
X26831650Y26621300D01*
X26831752Y26843550D01*
X27015800Y26843550D01*
X27581662Y26843550D01*
X27579718Y26976687D01*
X27578957Y27021747D01*
X27578061Y27055824D01*
X27576873Y27080635D01*
X27575234Y27097895D01*
X27572988Y27109321D01*
X27569975Y27116630D01*
X27566435Y27121149D01*
X27562869Y27123973D01*
X27557572Y27126287D01*
X27549347Y27128141D01*
X27536999Y27129585D01*
X27519332Y27130670D01*
X27495149Y27131447D01*
X27463253Y27131965D01*
X27422449Y27132275D01*
X27371541Y27132428D01*
X27309331Y27132474D01*
X27297587Y27132475D01*
X27040077Y27132475D01*
X27027938Y27117484D01*
X27023808Y27111420D01*
X27020731Y27103647D01*
X27018554Y27092349D01*
X27017125Y27075708D01*
X27016292Y27051910D01*
X27015901Y27019137D01*
X27015800Y26975574D01*
X27015800Y26843550D01*
X26831752Y26843550D01*
X26831762Y26864187D01*
G36*
X27462863Y27586644D02*
G01*
X27388122Y27586914D01*
X27316686Y27587294D01*
X27249697Y27587783D01*
X27188298Y27588381D01*
X27133634Y27589088D01*
X27086846Y27589904D01*
X27049079Y27590829D01*
X27021475Y27591863D01*
X27005177Y27593006D01*
X27003239Y27593269D01*
X26953109Y27606857D01*
X26911335Y27629863D01*
X26878214Y27662040D01*
X26854043Y27703139D01*
X26845992Y27725034D01*
X26842772Y27736899D01*
X26840223Y27750393D01*
X26838270Y27767080D01*
X26836839Y27788524D01*
X26835853Y27816290D01*
X26835239Y27851943D01*
X26834985Y27888103D01*
X27016211Y27888103D01*
X27016635Y27865888D01*
X27017815Y27850733D01*
X27019908Y27840760D01*
X27023072Y27834089D01*
X27027463Y27828842D01*
X27028118Y27828181D01*
X27030533Y27825929D01*
X27033514Y27823951D01*
X27037856Y27822231D01*
X27044351Y27820749D01*
X27053793Y27819488D01*
X27066973Y27818430D01*
X27084686Y27817557D01*
X27107725Y27816852D01*
X27136881Y27816297D01*
X27172949Y27815873D01*
X27216721Y27815564D01*
X27268990Y27815350D01*
X27330549Y27815215D01*
X27402192Y27815140D01*
X27484711Y27815107D01*
X27578900Y27815100D01*
X27609525Y27815100D01*
X27707387Y27815105D01*
X27793342Y27815131D01*
X27868183Y27815197D01*
X27932701Y27815319D01*
X27987688Y27815515D01*
X28033939Y27815802D01*
X28072244Y27816197D01*
X28103397Y27816717D01*
X28128190Y27817381D01*
X28147415Y27818205D01*
X28161865Y27819206D01*
X28172333Y27820402D01*
X28179611Y27821811D01*
X28184492Y27823449D01*
X28187768Y27825334D01*
X28190231Y27827483D01*
X28190550Y27827800D01*
X28195061Y27833144D01*
X28198361Y27840089D01*
X28200636Y27850542D01*
X28202074Y27866410D01*
X28202864Y27889600D01*
X28203192Y27922022D01*
X28203250Y27956761D01*
X28202950Y28003003D01*
X28202000Y28037746D01*
X28200325Y28062180D01*
X28197848Y28077492D01*
X28195142Y28084110D01*
X28183928Y28092648D01*
X28166345Y28099852D01*
X28161804Y28101047D01*
X28151149Y28102043D01*
X28128960Y28102946D01*
X28096402Y28103753D01*
X28054640Y28104467D01*
X28004840Y28105086D01*
X27948166Y28105610D01*
X27885783Y28106039D01*
X27818857Y28106373D01*
X27748553Y28106612D01*
X27676034Y28106755D01*
X27602468Y28106803D01*
X27529018Y28106755D01*
X27456850Y28106612D01*
X27387128Y28106372D01*
X27321018Y28106036D01*
X27259686Y28105604D01*
X27204294Y28105076D01*
X27156010Y28104451D01*
X27115998Y28103729D01*
X27085423Y28102910D01*
X27065450Y28101995D01*
X27057886Y28101192D01*
X27040224Y28095777D01*
X27027663Y28089604D01*
X27026136Y28088341D01*
X27023150Y28078851D01*
X27020667Y28057115D01*
X27018719Y28023579D01*
X27017336Y27978690D01*
X27017006Y27961228D01*
X27016387Y27919256D01*
X27016211Y27888103D01*
X26834985Y27888103D01*
X26834922Y27897045D01*
X26834825Y27953163D01*
X26834825Y27957975D01*
X26834907Y28015003D01*
X26835205Y28060896D01*
X26835794Y28097219D01*
X26836748Y28125536D01*
X26838143Y28147411D01*
X26840053Y28164408D01*
X26842553Y28178091D01*
X26845719Y28190026D01*
X26845992Y28190915D01*
X26865666Y28235652D01*
X26894346Y28271491D01*
X26932267Y28298716D01*
X26936248Y28300809D01*
X26973627Y28319925D01*
X28245422Y28319925D01*
X28282801Y28300809D01*
X28321875Y28274066D01*
X28351704Y28238663D01*
X28372001Y28194942D01*
X28372229Y28194232D01*
X28375520Y28181762D01*
X28378147Y28166180D01*
X28380205Y28145900D01*
X28381787Y28119335D01*
X28382985Y28084899D01*
X28383893Y28041006D01*
X28384605Y27986070D01*
X28384633Y27983375D01*
X28384927Y27934797D01*
X28384814Y27888343D01*
X28384329Y27846129D01*
X28383508Y27810273D01*
X28382385Y27782891D01*
X28381005Y27766150D01*
X28368838Y27713963D01*
X28348038Y27671069D01*
X28318442Y27637298D01*
X28279886Y27612479D01*
X28232207Y27596443D01*
X28215073Y27593151D01*
X28201400Y27591987D01*
X28176170Y27590934D01*
X28140527Y27589992D01*
X28095615Y27589161D01*
X28042575Y27588440D01*
X27982551Y27587830D01*
X27916687Y27587331D01*
X27846125Y27586941D01*
X27772009Y27586662D01*
X27695482Y27586493D01*
X27617686Y27586434D01*
X27578900Y27586458D01*
X27539766Y27586484D01*
X27462863Y27586644D01*
G37*
X27462863Y27586644D02*
X27388122Y27586914D01*
X27316686Y27587294D01*
X27249697Y27587783D01*
X27188298Y27588381D01*
X27133634Y27589088D01*
X27086846Y27589904D01*
X27049079Y27590829D01*
X27021475Y27591863D01*
X27005177Y27593006D01*
X27003239Y27593269D01*
X26953109Y27606857D01*
X26911335Y27629863D01*
X26878214Y27662040D01*
X26854043Y27703139D01*
X26845992Y27725034D01*
X26842772Y27736899D01*
X26840223Y27750393D01*
X26838270Y27767080D01*
X26836839Y27788524D01*
X26835853Y27816290D01*
X26835239Y27851943D01*
X26834985Y27888103D01*
X27016211Y27888103D01*
X27016635Y27865888D01*
X27017815Y27850733D01*
X27019908Y27840760D01*
X27023072Y27834089D01*
X27027463Y27828842D01*
X27028118Y27828181D01*
X27030533Y27825929D01*
X27033514Y27823951D01*
X27037856Y27822231D01*
X27044351Y27820749D01*
X27053793Y27819488D01*
X27066973Y27818430D01*
X27084686Y27817557D01*
X27107725Y27816852D01*
X27136881Y27816297D01*
X27172949Y27815873D01*
X27216721Y27815564D01*
X27268990Y27815350D01*
X27330549Y27815215D01*
X27402192Y27815140D01*
X27484711Y27815107D01*
X27578900Y27815100D01*
X27609525Y27815100D01*
X27707387Y27815105D01*
X27793342Y27815131D01*
X27868183Y27815197D01*
X27932701Y27815319D01*
X27987688Y27815515D01*
X28033939Y27815802D01*
X28072244Y27816197D01*
X28103397Y27816717D01*
X28128190Y27817381D01*
X28147415Y27818205D01*
X28161865Y27819206D01*
X28172333Y27820402D01*
X28179611Y27821811D01*
X28184492Y27823449D01*
X28187768Y27825334D01*
X28190231Y27827483D01*
X28190550Y27827800D01*
X28195061Y27833144D01*
X28198361Y27840089D01*
X28200636Y27850542D01*
X28202074Y27866410D01*
X28202864Y27889600D01*
X28203192Y27922022D01*
X28203250Y27956761D01*
X28202950Y28003003D01*
X28202000Y28037746D01*
X28200325Y28062180D01*
X28197848Y28077492D01*
X28195142Y28084110D01*
X28183928Y28092648D01*
X28166345Y28099852D01*
X28161804Y28101047D01*
X28151149Y28102043D01*
X28128960Y28102946D01*
X28096402Y28103753D01*
X28054640Y28104467D01*
X28004840Y28105086D01*
X27948166Y28105610D01*
X27885783Y28106039D01*
X27818857Y28106373D01*
X27748553Y28106612D01*
X27676034Y28106755D01*
X27602468Y28106803D01*
X27529018Y28106755D01*
X27456850Y28106612D01*
X27387128Y28106372D01*
X27321018Y28106036D01*
X27259686Y28105604D01*
X27204294Y28105076D01*
X27156010Y28104451D01*
X27115998Y28103729D01*
X27085423Y28102910D01*
X27065450Y28101995D01*
X27057886Y28101192D01*
X27040224Y28095777D01*
X27027663Y28089604D01*
X27026136Y28088341D01*
X27023150Y28078851D01*
X27020667Y28057115D01*
X27018719Y28023579D01*
X27017336Y27978690D01*
X27017006Y27961228D01*
X27016387Y27919256D01*
X27016211Y27888103D01*
X26834985Y27888103D01*
X26834922Y27897045D01*
X26834825Y27953163D01*
X26834825Y27957975D01*
X26834907Y28015003D01*
X26835205Y28060896D01*
X26835794Y28097219D01*
X26836748Y28125536D01*
X26838143Y28147411D01*
X26840053Y28164408D01*
X26842553Y28178091D01*
X26845719Y28190026D01*
X26845992Y28190915D01*
X26865666Y28235652D01*
X26894346Y28271491D01*
X26932267Y28298716D01*
X26936248Y28300809D01*
X26973627Y28319925D01*
X28245422Y28319925D01*
X28282801Y28300809D01*
X28321875Y28274066D01*
X28351704Y28238663D01*
X28372001Y28194942D01*
X28372229Y28194232D01*
X28375520Y28181762D01*
X28378147Y28166180D01*
X28380205Y28145900D01*
X28381787Y28119335D01*
X28382985Y28084899D01*
X28383893Y28041006D01*
X28384605Y27986070D01*
X28384633Y27983375D01*
X28384927Y27934797D01*
X28384814Y27888343D01*
X28384329Y27846129D01*
X28383508Y27810273D01*
X28382385Y27782891D01*
X28381005Y27766150D01*
X28368838Y27713963D01*
X28348038Y27671069D01*
X28318442Y27637298D01*
X28279886Y27612479D01*
X28232207Y27596443D01*
X28215073Y27593151D01*
X28201400Y27591987D01*
X28176170Y27590934D01*
X28140527Y27589992D01*
X28095615Y27589161D01*
X28042575Y27588440D01*
X27982551Y27587830D01*
X27916687Y27587331D01*
X27846125Y27586941D01*
X27772009Y27586662D01*
X27695482Y27586493D01*
X27617686Y27586434D01*
X27578900Y27586458D01*
X27539766Y27586484D01*
X27462863Y27586644D01*
G36*
X28384225Y29107354D02*
G01*
X27829330Y28945414D01*
X27274435Y28783475D01*
X28384225Y28777125D01*
X28385973Y28677112D01*
X28387722Y28577100D01*
X26831363Y28577100D01*
X26833094Y28692987D01*
X26834825Y28808875D01*
X27369577Y28964744D01*
X27449296Y28988016D01*
X27525519Y29010336D01*
X27597366Y29031442D01*
X27663955Y29051072D01*
X27724403Y29068965D01*
X27777830Y29084857D01*
X27823354Y29098487D01*
X27860093Y29109592D01*
X27887165Y29117911D01*
X27903689Y29123181D01*
X27908798Y29125081D01*
X27903287Y29125755D01*
X27885986Y29126398D01*
X27857808Y29127003D01*
X27819662Y29127562D01*
X27772461Y29128067D01*
X27717114Y29128510D01*
X27654532Y29128885D01*
X27585628Y29129184D01*
X27511311Y29129399D01*
X27432493Y29129522D01*
X27372297Y29129550D01*
X26831327Y29129550D01*
X26833076Y29229562D01*
X26834825Y29329575D01*
X28384225Y29329575D01*
X28384225Y29107354D01*
G37*
X28384225Y29107354D02*
X27829330Y28945414D01*
X27274435Y28783475D01*
X28384225Y28777125D01*
X28385973Y28677112D01*
X28387722Y28577100D01*
X26831363Y28577100D01*
X26833094Y28692987D01*
X26834825Y28808875D01*
X27369577Y28964744D01*
X27449296Y28988016D01*
X27525519Y29010336D01*
X27597366Y29031442D01*
X27663955Y29051072D01*
X27724403Y29068965D01*
X27777830Y29084857D01*
X27823354Y29098487D01*
X27860093Y29109592D01*
X27887165Y29117911D01*
X27903689Y29123181D01*
X27908798Y29125081D01*
X27903287Y29125755D01*
X27885986Y29126398D01*
X27857808Y29127003D01*
X27819662Y29127562D01*
X27772461Y29128067D01*
X27717114Y29128510D01*
X27654532Y29128885D01*
X27585628Y29129184D01*
X27511311Y29129399D01*
X27432493Y29129522D01*
X27372297Y29129550D01*
X26831327Y29129550D01*
X26833076Y29229562D01*
X26834825Y29329575D01*
X28384225Y29329575D01*
X28384225Y29107354D01*
G36*
X26831698Y34919162D02*
G01*
X26831868Y34995207D01*
X26832401Y35059753D01*
X26833377Y35113996D01*
X26834878Y35159133D01*
X26836985Y35196363D01*
X26839779Y35226881D01*
X26843341Y35251886D01*
X26847752Y35272574D01*
X26853094Y35290143D01*
X26857620Y35301668D01*
X26878553Y35335850D01*
X26908754Y35365820D01*
X26944845Y35388514D01*
X26960742Y35395069D01*
X26969118Y35397691D01*
X26978682Y35399883D01*
X26990585Y35401682D01*
X27005979Y35403128D01*
X27026016Y35404257D01*
X27051846Y35405108D01*
X27084623Y35405720D01*
X27125497Y35406129D01*
X27175621Y35406374D01*
X27236147Y35406493D01*
X27307900Y35406525D01*
X27382608Y35406505D01*
X27445774Y35406377D01*
X27498553Y35406033D01*
X27542103Y35405366D01*
X27577581Y35404271D01*
X27606144Y35402641D01*
X27628948Y35400369D01*
X27647151Y35397350D01*
X27661909Y35393476D01*
X27674380Y35388641D01*
X27685720Y35382739D01*
X27697086Y35375664D01*
X27705722Y35369926D01*
X27725775Y35354096D01*
X27741879Y35334824D01*
X27757542Y35307847D01*
X27758698Y35305588D01*
X27780975Y35261802D01*
X27782997Y35078638D01*
X27785020Y34895473D01*
X28084622Y34893824D01*
X28384225Y34892175D01*
X28385962Y34782637D01*
X28387699Y34673100D01*
X26831650Y34673100D01*
X26831693Y34895350D01*
X27015800Y34895350D01*
X27606350Y34895350D01*
X27606350Y35025525D01*
X27606271Y35069639D01*
X27605931Y35102830D01*
X27605178Y35126873D01*
X27603857Y35143544D01*
X27601814Y35154617D01*
X27598895Y35161869D01*
X27594947Y35167076D01*
X27594004Y35168045D01*
X27578855Y35178020D01*
X27560666Y35184232D01*
X27549771Y35185037D01*
X27527688Y35185688D01*
X27495928Y35186175D01*
X27456003Y35186487D01*
X27409424Y35186613D01*
X27357703Y35186542D01*
X27302350Y35186264D01*
X27289871Y35186174D01*
X27040067Y35184275D01*
X27027933Y35169284D01*
X27023805Y35163219D01*
X27020729Y35155441D01*
X27018553Y35144135D01*
X27017124Y35127484D01*
X27016291Y35103672D01*
X27015900Y35070883D01*
X27015800Y35027301D01*
X27015800Y34895350D01*
X26831693Y34895350D01*
X26831698Y34919162D01*
G37*
X26831698Y34919162D02*
X26831868Y34995207D01*
X26832401Y35059753D01*
X26833377Y35113996D01*
X26834878Y35159133D01*
X26836985Y35196363D01*
X26839779Y35226881D01*
X26843341Y35251886D01*
X26847752Y35272574D01*
X26853094Y35290143D01*
X26857620Y35301668D01*
X26878553Y35335850D01*
X26908754Y35365820D01*
X26944845Y35388514D01*
X26960742Y35395069D01*
X26969118Y35397691D01*
X26978682Y35399883D01*
X26990585Y35401682D01*
X27005979Y35403128D01*
X27026016Y35404257D01*
X27051846Y35405108D01*
X27084623Y35405720D01*
X27125497Y35406129D01*
X27175621Y35406374D01*
X27236147Y35406493D01*
X27307900Y35406525D01*
X27382608Y35406505D01*
X27445774Y35406377D01*
X27498553Y35406033D01*
X27542103Y35405366D01*
X27577581Y35404271D01*
X27606144Y35402641D01*
X27628948Y35400369D01*
X27647151Y35397350D01*
X27661909Y35393476D01*
X27674380Y35388641D01*
X27685720Y35382739D01*
X27697086Y35375664D01*
X27705722Y35369926D01*
X27725775Y35354096D01*
X27741879Y35334824D01*
X27757542Y35307847D01*
X27758698Y35305588D01*
X27780975Y35261802D01*
X27782997Y35078638D01*
X27785020Y34895473D01*
X28084622Y34893824D01*
X28384225Y34892175D01*
X28385962Y34782637D01*
X28387699Y34673100D01*
X26831650Y34673100D01*
X26831693Y34895350D01*
X27015800Y34895350D01*
X27606350Y34895350D01*
X27606350Y35025525D01*
X27606271Y35069639D01*
X27605931Y35102830D01*
X27605178Y35126873D01*
X27603857Y35143544D01*
X27601814Y35154617D01*
X27598895Y35161869D01*
X27594947Y35167076D01*
X27594004Y35168045D01*
X27578855Y35178020D01*
X27560666Y35184232D01*
X27549771Y35185037D01*
X27527688Y35185688D01*
X27495928Y35186175D01*
X27456003Y35186487D01*
X27409424Y35186613D01*
X27357703Y35186542D01*
X27302350Y35186264D01*
X27289871Y35186174D01*
X27040067Y35184275D01*
X27027933Y35169284D01*
X27023805Y35163219D01*
X27020729Y35155441D01*
X27018553Y35144135D01*
X27017124Y35127484D01*
X27016291Y35103672D01*
X27015900Y35070883D01*
X27015800Y35027301D01*
X27015800Y34895350D01*
X26831693Y34895350D01*
X26831698Y34919162D01*
G36*
X27738251Y35623528D02*
G01*
X27654088Y35638369D01*
X27569565Y35653285D01*
X27485618Y35668112D01*
X27403180Y35682684D01*
X27323187Y35696837D01*
X27246572Y35710406D01*
X27174269Y35723226D01*
X27107213Y35735132D01*
X27046338Y35745959D01*
X26992578Y35755543D01*
X26946869Y35763719D01*
X26910143Y35770321D01*
X26883336Y35775185D01*
X26867381Y35778147D01*
X26864987Y35778613D01*
X26831650Y35785250D01*
X26831650Y35943175D01*
X26831651Y35943317D01*
X27043456Y35943317D01*
X27047550Y35941116D01*
X27055026Y35939662D01*
X27073743Y35936470D01*
X27102391Y35931746D01*
X27139659Y35925695D01*
X27184239Y35918525D01*
X27234819Y35910441D01*
X27290091Y35901649D01*
X27348745Y35892355D01*
X27409470Y35882766D01*
X27470957Y35873088D01*
X27531896Y35863526D01*
X27590977Y35854287D01*
X27646891Y35845578D01*
X27698328Y35837603D01*
X27743977Y35830570D01*
X27782529Y35824684D01*
X27812674Y35820152D01*
X27833103Y35817179D01*
X27842505Y35815972D01*
X27842887Y35815956D01*
X27844302Y35822041D01*
X27845549Y35838967D01*
X27846563Y35864878D01*
X27847278Y35897915D01*
X27847626Y35936220D01*
X27847650Y35949450D01*
X27847582Y35993918D01*
X27847288Y36027271D01*
X27846635Y36051091D01*
X27845486Y36066963D01*
X27843709Y36076470D01*
X27841169Y36081197D01*
X27837730Y36082726D01*
X27836325Y36082800D01*
X27828405Y36081747D01*
X27809293Y36078740D01*
X27780305Y36074003D01*
X27742751Y36067763D01*
X27697946Y36060244D01*
X27647202Y36051671D01*
X27591832Y36042271D01*
X27533149Y36032268D01*
X27472467Y36021888D01*
X27411097Y36011355D01*
X27350354Y36000897D01*
X27291549Y35990737D01*
X27235997Y35981101D01*
X27185010Y35972215D01*
X27139900Y35964304D01*
X27101982Y35957593D01*
X27072567Y35952307D01*
X27052969Y35948673D01*
X27044501Y35946915D01*
X27044375Y35946873D01*
X27043456Y35943317D01*
X26831651Y35943317D01*
X26831892Y35992282D01*
X26832587Y36034048D01*
X26833691Y36067262D01*
X26835156Y36090715D01*
X26836937Y36103200D01*
X26837787Y36104893D01*
X26844429Y36106393D01*
X26862647Y36110090D01*
X26891539Y36115814D01*
X26930204Y36123391D01*
X26977740Y36132647D01*
X27033246Y36143412D01*
X27095820Y36155511D01*
X27164562Y36168772D01*
X27238570Y36183023D01*
X27316942Y36198090D01*
X27398778Y36213801D01*
X27483175Y36229983D01*
X27569233Y36246464D01*
X27656050Y36263070D01*
X27742726Y36279629D01*
X27828357Y36295969D01*
X27912044Y36311916D01*
X27992885Y36327298D01*
X28069978Y36341942D01*
X28142423Y36355675D01*
X28209317Y36368325D01*
X28269760Y36379719D01*
X28322850Y36389684D01*
X28363587Y36397286D01*
X28387400Y36401713D01*
X28387400Y36179059D01*
X28369937Y36175488D01*
X28358863Y36173430D01*
X28337262Y36169593D01*
X28307131Y36164324D01*
X28270464Y36157972D01*
X28229256Y36150883D01*
X28203250Y36146433D01*
X28160507Y36139097D01*
X28121325Y36132304D01*
X28087648Y36126397D01*
X28061417Y36121718D01*
X28044577Y36118609D01*
X28039737Y36117628D01*
X28025450Y36114308D01*
X28025450Y35786983D01*
X28204837Y35758679D01*
X28384225Y35730375D01*
X28385962Y35620837D01*
X28386392Y35578366D01*
X28386098Y35547377D01*
X28385017Y35526670D01*
X28383083Y35515046D01*
X28380233Y35511303D01*
X28380132Y35511300D01*
X28373151Y35512381D01*
X28354599Y35515516D01*
X28325411Y35520539D01*
X28286522Y35527286D01*
X28238865Y35535591D01*
X28183374Y35545291D01*
X28120984Y35556219D01*
X28052630Y35568212D01*
X27979245Y35581104D01*
X27901764Y35594730D01*
X27842887Y35605094D01*
X27821122Y35608926D01*
X27738251Y35623528D01*
G37*
X27738251Y35623528D02*
X27654088Y35638369D01*
X27569565Y35653285D01*
X27485618Y35668112D01*
X27403180Y35682684D01*
X27323187Y35696837D01*
X27246572Y35710406D01*
X27174269Y35723226D01*
X27107213Y35735132D01*
X27046338Y35745959D01*
X26992578Y35755543D01*
X26946869Y35763719D01*
X26910143Y35770321D01*
X26883336Y35775185D01*
X26867381Y35778147D01*
X26864987Y35778613D01*
X26831650Y35785250D01*
X26831650Y35943175D01*
X26831651Y35943317D01*
X27043456Y35943317D01*
X27047550Y35941116D01*
X27055026Y35939662D01*
X27073743Y35936470D01*
X27102391Y35931746D01*
X27139659Y35925695D01*
X27184239Y35918525D01*
X27234819Y35910441D01*
X27290091Y35901649D01*
X27348745Y35892355D01*
X27409470Y35882766D01*
X27470957Y35873088D01*
X27531896Y35863526D01*
X27590977Y35854287D01*
X27646891Y35845578D01*
X27698328Y35837603D01*
X27743977Y35830570D01*
X27782529Y35824684D01*
X27812674Y35820152D01*
X27833103Y35817179D01*
X27842505Y35815972D01*
X27842887Y35815956D01*
X27844302Y35822041D01*
X27845549Y35838967D01*
X27846563Y35864878D01*
X27847278Y35897915D01*
X27847626Y35936220D01*
X27847650Y35949450D01*
X27847582Y35993918D01*
X27847288Y36027271D01*
X27846635Y36051091D01*
X27845486Y36066963D01*
X27843709Y36076470D01*
X27841169Y36081197D01*
X27837730Y36082726D01*
X27836325Y36082800D01*
X27828405Y36081747D01*
X27809293Y36078740D01*
X27780305Y36074003D01*
X27742751Y36067763D01*
X27697946Y36060244D01*
X27647202Y36051671D01*
X27591832Y36042271D01*
X27533149Y36032268D01*
X27472467Y36021888D01*
X27411097Y36011355D01*
X27350354Y36000897D01*
X27291549Y35990737D01*
X27235997Y35981101D01*
X27185010Y35972215D01*
X27139900Y35964304D01*
X27101982Y35957593D01*
X27072567Y35952307D01*
X27052969Y35948673D01*
X27044501Y35946915D01*
X27044375Y35946873D01*
X27043456Y35943317D01*
X26831651Y35943317D01*
X26831892Y35992282D01*
X26832587Y36034048D01*
X26833691Y36067262D01*
X26835156Y36090715D01*
X26836937Y36103200D01*
X26837787Y36104893D01*
X26844429Y36106393D01*
X26862647Y36110090D01*
X26891539Y36115814D01*
X26930204Y36123391D01*
X26977740Y36132647D01*
X27033246Y36143412D01*
X27095820Y36155511D01*
X27164562Y36168772D01*
X27238570Y36183023D01*
X27316942Y36198090D01*
X27398778Y36213801D01*
X27483175Y36229983D01*
X27569233Y36246464D01*
X27656050Y36263070D01*
X27742726Y36279629D01*
X27828357Y36295969D01*
X27912044Y36311916D01*
X27992885Y36327298D01*
X28069978Y36341942D01*
X28142423Y36355675D01*
X28209317Y36368325D01*
X28269760Y36379719D01*
X28322850Y36389684D01*
X28363587Y36397286D01*
X28387400Y36401713D01*
X28387400Y36179059D01*
X28369937Y36175488D01*
X28358863Y36173430D01*
X28337262Y36169593D01*
X28307131Y36164324D01*
X28270464Y36157972D01*
X28229256Y36150883D01*
X28203250Y36146433D01*
X28160507Y36139097D01*
X28121325Y36132304D01*
X28087648Y36126397D01*
X28061417Y36121718D01*
X28044577Y36118609D01*
X28039737Y36117628D01*
X28025450Y36114308D01*
X28025450Y35786983D01*
X28204837Y35758679D01*
X28384225Y35730375D01*
X28385962Y35620837D01*
X28386392Y35578366D01*
X28386098Y35547377D01*
X28385017Y35526670D01*
X28383083Y35515046D01*
X28380233Y35511303D01*
X28380132Y35511300D01*
X28373151Y35512381D01*
X28354599Y35515516D01*
X28325411Y35520539D01*
X28286522Y35527286D01*
X28238865Y35535591D01*
X28183374Y35545291D01*
X28120984Y35556219D01*
X28052630Y35568212D01*
X27979245Y35581104D01*
X27901764Y35594730D01*
X27842887Y35605094D01*
X27821122Y35608926D01*
X27738251Y35623528D01*
G36*
X28385961Y37208640D02*
G01*
X28386491Y37168705D01*
X28386518Y37139624D01*
X28385889Y37119553D01*
X28384452Y37106652D01*
X28382054Y37099077D01*
X28378541Y37094988D01*
X28376436Y37093732D01*
X28368787Y37091149D01*
X28349831Y37085287D01*
X28320459Y37076410D01*
X28281558Y37064779D01*
X28234020Y37050659D01*
X28178733Y37034312D01*
X28116587Y37016002D01*
X28048472Y36995991D01*
X27975276Y36974543D01*
X27897890Y36951920D01*
X27822459Y36929917D01*
X27279743Y36771775D01*
X28384225Y36765425D01*
X28385974Y36665275D01*
X28386423Y36625193D01*
X28386096Y36596310D01*
X28384901Y36577141D01*
X28382748Y36566203D01*
X28379624Y36562041D01*
X28372358Y36561662D01*
X28353175Y36561322D01*
X28322861Y36561025D01*
X28282197Y36560769D01*
X28231969Y36560559D01*
X28172959Y36560393D01*
X28105952Y36560276D01*
X28031731Y36560206D01*
X27951080Y36560187D01*
X27864784Y36560220D01*
X27773624Y36560305D01*
X27678386Y36560445D01*
X27603175Y36560591D01*
X26834825Y36562225D01*
X26834825Y36795804D01*
X27371043Y36952064D01*
X27907262Y37108325D01*
X27371043Y37111500D01*
X26834825Y37114675D01*
X26834825Y37317875D01*
X28384225Y37317875D01*
X28385961Y37208640D01*
G37*
X28385961Y37208640D02*
X28386491Y37168705D01*
X28386518Y37139624D01*
X28385889Y37119553D01*
X28384452Y37106652D01*
X28382054Y37099077D01*
X28378541Y37094988D01*
X28376436Y37093732D01*
X28368787Y37091149D01*
X28349831Y37085287D01*
X28320459Y37076410D01*
X28281558Y37064779D01*
X28234020Y37050659D01*
X28178733Y37034312D01*
X28116587Y37016002D01*
X28048472Y36995991D01*
X27975276Y36974543D01*
X27897890Y36951920D01*
X27822459Y36929917D01*
X27279743Y36771775D01*
X28384225Y36765425D01*
X28385974Y36665275D01*
X28386423Y36625193D01*
X28386096Y36596310D01*
X28384901Y36577141D01*
X28382748Y36566203D01*
X28379624Y36562041D01*
X28372358Y36561662D01*
X28353175Y36561322D01*
X28322861Y36561025D01*
X28282197Y36560769D01*
X28231969Y36560559D01*
X28172959Y36560393D01*
X28105952Y36560276D01*
X28031731Y36560206D01*
X27951080Y36560187D01*
X27864784Y36560220D01*
X27773624Y36560305D01*
X27678386Y36560445D01*
X27603175Y36560591D01*
X26834825Y36562225D01*
X26834825Y36795804D01*
X27371043Y36952064D01*
X27907262Y37108325D01*
X27371043Y37111500D01*
X26834825Y37114675D01*
X26834825Y37317875D01*
X28384225Y37317875D01*
X28385961Y37208640D01*
G36*
X27015800Y37943406D02*
G01*
X27700012Y37941790D01*
X28384225Y37940175D01*
X28385962Y37830637D01*
X28387699Y37721100D01*
X27015800Y37721100D01*
X27015800Y37460401D01*
X26925312Y37462163D01*
X26834825Y37463925D01*
X26834825Y38200525D01*
X26925312Y38202286D01*
X27015800Y38204048D01*
X27015800Y37943406D01*
G37*
X27015800Y37943406D02*
X27700012Y37941790D01*
X28384225Y37940175D01*
X28385962Y37830637D01*
X28387699Y37721100D01*
X27015800Y37721100D01*
X27015800Y37460401D01*
X26925312Y37462163D01*
X26834825Y37463925D01*
X26834825Y38200525D01*
X26925312Y38202286D01*
X27015800Y38204048D01*
X27015800Y37943406D01*
G36*
X28385962Y39008562D02*
G01*
X28384225Y38899025D01*
X28042912Y38897382D01*
X27701600Y38895739D01*
X27701600Y38565650D01*
X28387400Y38565650D01*
X28387400Y38457500D01*
X28387140Y38415021D01*
X28386301Y38383947D01*
X28384790Y38362993D01*
X28382516Y38350873D01*
X28379462Y38346329D01*
X28372217Y38345958D01*
X28353055Y38345626D01*
X28322760Y38345335D01*
X28282117Y38345087D01*
X28231907Y38344882D01*
X28172915Y38344723D01*
X28105924Y38344610D01*
X28031718Y38344546D01*
X27951080Y38344531D01*
X27864795Y38344566D01*
X27773644Y38344654D01*
X27678413Y38344795D01*
X27603175Y38344941D01*
X26834825Y38346575D01*
X26833087Y38456112D01*
X26831350Y38565650D01*
X27523800Y38565650D01*
X27523800Y38895740D01*
X27179312Y38897382D01*
X26834825Y38899025D01*
X26833087Y39008562D01*
X26831350Y39118100D01*
X28387699Y39118100D01*
X28385962Y39008562D01*
G37*
X28385962Y39008562D02*
X28384225Y38899025D01*
X28042912Y38897382D01*
X27701600Y38895739D01*
X27701600Y38565650D01*
X28387400Y38565650D01*
X28387400Y38457500D01*
X28387140Y38415021D01*
X28386301Y38383947D01*
X28384790Y38362993D01*
X28382516Y38350873D01*
X28379462Y38346329D01*
X28372217Y38345958D01*
X28353055Y38345626D01*
X28322760Y38345335D01*
X28282117Y38345087D01*
X28231907Y38344882D01*
X28172915Y38344723D01*
X28105924Y38344610D01*
X28031718Y38344546D01*
X27951080Y38344531D01*
X27864795Y38344566D01*
X27773644Y38344654D01*
X27678413Y38344795D01*
X27603175Y38344941D01*
X26834825Y38346575D01*
X26833087Y38456112D01*
X26831350Y38565650D01*
X27523800Y38565650D01*
X27523800Y38895740D01*
X27179312Y38897382D01*
X26834825Y38899025D01*
X26833087Y39008562D01*
X26831350Y39118100D01*
X28387699Y39118100D01*
X28385962Y39008562D01*
G36*
X28293737Y40050136D02*
G01*
X28384225Y40048375D01*
X28385868Y39713387D01*
X28387512Y39378399D01*
X27611168Y39380012D01*
X26834825Y39381625D01*
X26833179Y39707062D01*
X26831534Y40032500D01*
X27015800Y40032500D01*
X27015800Y39600700D01*
X27492050Y39600700D01*
X27492050Y39956300D01*
X27676200Y39956300D01*
X27676200Y39600700D01*
X28203250Y39600700D01*
X28203250Y40051898D01*
X28293737Y40050136D01*
G37*
X28293737Y40050136D02*
X28384225Y40048375D01*
X28385868Y39713387D01*
X28387512Y39378399D01*
X27611168Y39380012D01*
X26834825Y39381625D01*
X26833179Y39707062D01*
X26831534Y40032500D01*
X27015800Y40032500D01*
X27015800Y39600700D01*
X27492050Y39600700D01*
X27492050Y39956300D01*
X27676200Y39956300D01*
X27676200Y39600700D01*
X28203250Y39600700D01*
X28203250Y40051898D01*
X28293737Y40050136D01*
G36*
X26831698Y40475412D02*
G01*
X26831866Y40532567D01*
X26832324Y40587818D01*
X26833036Y40639385D01*
X26833965Y40685486D01*
X26835075Y40724338D01*
X26836329Y40754160D01*
X26837693Y40773169D01*
X26837776Y40773920D01*
X26848222Y40828872D01*
X26866033Y40873735D01*
X26891683Y40909087D01*
X26925644Y40935506D01*
X26968392Y40953572D01*
X26989125Y40958817D01*
X27005363Y40960823D01*
X27032500Y40962510D01*
X27068844Y40963881D01*
X27112704Y40964940D01*
X27162389Y40965692D01*
X27216209Y40966141D01*
X27272474Y40966291D01*
X27329492Y40966145D01*
X27385572Y40965709D01*
X27439025Y40964985D01*
X27488158Y40963980D01*
X27531282Y40962695D01*
X27566707Y40961136D01*
X27592740Y40959307D01*
X27607286Y40957310D01*
X27654393Y40941208D01*
X27691980Y40916977D01*
X27720824Y40883925D01*
X27741699Y40841360D01*
X27743717Y40835544D01*
X27749886Y40817483D01*
X27754326Y40805251D01*
X27755632Y40802241D01*
X27761639Y40804121D01*
X27778362Y40810189D01*
X27804683Y40820019D01*
X27839483Y40833186D01*
X27881646Y40849265D01*
X27930054Y40867831D01*
X27983590Y40888458D01*
X28041136Y40910723D01*
X28057924Y40917235D01*
X28116934Y40940115D01*
X28172675Y40961689D01*
X28223965Y40981502D01*
X28269619Y40999097D01*
X28308455Y41014020D01*
X28339289Y41025816D01*
X28360939Y41034028D01*
X28372219Y41038202D01*
X28373254Y41038553D01*
X28387683Y41043095D01*
X28384225Y40805165D01*
X27761925Y40574367D01*
X27758291Y40451719D01*
X28384225Y40448425D01*
X28385962Y40338887D01*
X28387699Y40229350D01*
X26831650Y40229350D01*
X26831693Y40451600D01*
X27015800Y40451600D01*
X27581662Y40451600D01*
X27579718Y40584737D01*
X27578957Y40629797D01*
X27578061Y40663874D01*
X27576873Y40688685D01*
X27575234Y40705945D01*
X27572988Y40717371D01*
X27569975Y40724680D01*
X27566435Y40729199D01*
X27562869Y40732023D01*
X27557572Y40734337D01*
X27549347Y40736191D01*
X27536999Y40737635D01*
X27519332Y40738720D01*
X27495149Y40739497D01*
X27463253Y40740015D01*
X27422449Y40740325D01*
X27371541Y40740478D01*
X27309331Y40740524D01*
X27297587Y40740525D01*
X27040077Y40740525D01*
X27027938Y40725534D01*
X27023808Y40719470D01*
X27020731Y40711697D01*
X27018554Y40700399D01*
X27017125Y40683758D01*
X27016292Y40659960D01*
X27015901Y40627187D01*
X27015800Y40583624D01*
X27015800Y40451600D01*
X26831693Y40451600D01*
X26831698Y40475412D01*
G37*
X26831698Y40475412D02*
X26831866Y40532567D01*
X26832324Y40587818D01*
X26833036Y40639385D01*
X26833965Y40685486D01*
X26835075Y40724338D01*
X26836329Y40754160D01*
X26837693Y40773169D01*
X26837776Y40773920D01*
X26848222Y40828872D01*
X26866033Y40873735D01*
X26891683Y40909087D01*
X26925644Y40935506D01*
X26968392Y40953572D01*
X26989125Y40958817D01*
X27005363Y40960823D01*
X27032500Y40962510D01*
X27068844Y40963881D01*
X27112704Y40964940D01*
X27162389Y40965692D01*
X27216209Y40966141D01*
X27272474Y40966291D01*
X27329492Y40966145D01*
X27385572Y40965709D01*
X27439025Y40964985D01*
X27488158Y40963980D01*
X27531282Y40962695D01*
X27566707Y40961136D01*
X27592740Y40959307D01*
X27607286Y40957310D01*
X27654393Y40941208D01*
X27691980Y40916977D01*
X27720824Y40883925D01*
X27741699Y40841360D01*
X27743717Y40835544D01*
X27749886Y40817483D01*
X27754326Y40805251D01*
X27755632Y40802241D01*
X27761639Y40804121D01*
X27778362Y40810189D01*
X27804683Y40820019D01*
X27839483Y40833186D01*
X27881646Y40849265D01*
X27930054Y40867831D01*
X27983590Y40888458D01*
X28041136Y40910723D01*
X28057924Y40917235D01*
X28116934Y40940115D01*
X28172675Y40961689D01*
X28223965Y40981502D01*
X28269619Y40999097D01*
X28308455Y41014020D01*
X28339289Y41025816D01*
X28360939Y41034028D01*
X28372219Y41038202D01*
X28373254Y41038553D01*
X28387683Y41043095D01*
X28384225Y40805165D01*
X27761925Y40574367D01*
X27758291Y40451719D01*
X28384225Y40448425D01*
X28385962Y40338887D01*
X28387699Y40229350D01*
X26831650Y40229350D01*
X26831693Y40451600D01*
X27015800Y40451600D01*
X27581662Y40451600D01*
X27579718Y40584737D01*
X27578957Y40629797D01*
X27578061Y40663874D01*
X27576873Y40688685D01*
X27575234Y40705945D01*
X27572988Y40717371D01*
X27569975Y40724680D01*
X27566435Y40729199D01*
X27562869Y40732023D01*
X27557572Y40734337D01*
X27549347Y40736191D01*
X27536999Y40737635D01*
X27519332Y40738720D01*
X27495149Y40739497D01*
X27463253Y40740015D01*
X27422449Y40740325D01*
X27371541Y40740478D01*
X27309331Y40740524D01*
X27297587Y40740525D01*
X27040077Y40740525D01*
X27027938Y40725534D01*
X27023808Y40719470D01*
X27020731Y40711697D01*
X27018554Y40700399D01*
X27017125Y40683758D01*
X27016292Y40659960D01*
X27015901Y40627187D01*
X27015800Y40583624D01*
X27015800Y40451600D01*
X26831693Y40451600D01*
X26831698Y40475412D01*
G36*
X28077646Y41879287D02*
G01*
X28135326Y41878762D01*
X28180829Y41877801D01*
X28214000Y41876406D01*
X28234682Y41874579D01*
X28238521Y41873927D01*
X28276435Y41860986D01*
X28311331Y41839757D01*
X28339032Y41812952D01*
X28344808Y41805001D01*
X28355715Y41787289D01*
X28364363Y41769635D01*
X28371031Y41750268D01*
X28376000Y41727417D01*
X28379549Y41699310D01*
X28381961Y41664176D01*
X28383514Y41620244D01*
X28384489Y41565742D01*
X28384640Y41553325D01*
X28384925Y41507019D01*
X28384740Y41462548D01*
X28384128Y41422255D01*
X28383136Y41388478D01*
X28381807Y41363560D01*
X28380801Y41353343D01*
X28370019Y41308239D01*
X28351475Y41267700D01*
X28326735Y41234740D01*
X28312441Y41221973D01*
X28295134Y41209826D01*
X28277627Y41200363D01*
X28258062Y41193260D01*
X28234582Y41188196D01*
X28205330Y41184847D01*
X28168450Y41182891D01*
X28122084Y41182005D01*
X28081447Y41181850D01*
X27942900Y41181850D01*
X27942900Y41404100D01*
X28057488Y41404100D01*
X28098231Y41404150D01*
X28128238Y41404456D01*
X28149477Y41405255D01*
X28163912Y41406782D01*
X28173508Y41409272D01*
X28180231Y41412959D01*
X28186047Y41418081D01*
X28187663Y41419686D01*
X28193729Y41426274D01*
X28197975Y41433373D01*
X28200725Y41443238D01*
X28202303Y41458124D01*
X28203033Y41480285D01*
X28203240Y41511978D01*
X28203250Y41528053D01*
X28202824Y41561983D01*
X28201653Y41592075D01*
X28199899Y41615706D01*
X28197723Y41630252D01*
X28196825Y41632839D01*
X28191849Y41639414D01*
X28183848Y41644765D01*
X28171610Y41649011D01*
X28153922Y41652273D01*
X28129572Y41654670D01*
X28097347Y41656325D01*
X28056034Y41657356D01*
X28004421Y41657883D01*
X27942900Y41658029D01*
X27879843Y41657869D01*
X27828289Y41657314D01*
X27787041Y41656252D01*
X27754905Y41654567D01*
X27730685Y41652148D01*
X27713186Y41648880D01*
X27701214Y41644651D01*
X27693573Y41639347D01*
X27689644Y41634009D01*
X27687879Y41624750D01*
X27686090Y41604743D01*
X27684383Y41575942D01*
X27682864Y41540297D01*
X27681639Y41499761D01*
X27681148Y41477125D01*
X27679721Y41420555D01*
X27677514Y41374910D01*
X27674106Y41338420D01*
X27669080Y41309314D01*
X27662016Y41285824D01*
X27652496Y41266178D01*
X27640101Y41248607D01*
X27624413Y41231340D01*
X27622555Y41229470D01*
X27610713Y41217892D01*
X27599567Y41208240D01*
X27587871Y41200330D01*
X27574381Y41193974D01*
X27557853Y41188988D01*
X27537040Y41185186D01*
X27510700Y41182381D01*
X27477586Y41180387D01*
X27436455Y41179019D01*
X27386061Y41178091D01*
X27325161Y41177417D01*
X27270962Y41176959D01*
X27204613Y41176481D01*
X27149680Y41176236D01*
X27104884Y41176262D01*
X27068943Y41176591D01*
X27040575Y41177260D01*
X27018500Y41178302D01*
X27001436Y41179754D01*
X26988102Y41181651D01*
X26977217Y41184026D01*
X26973379Y41185084D01*
X26929764Y41202272D01*
X26895660Y41226421D01*
X26869580Y41259029D01*
X26850034Y41301593D01*
X26846324Y41312891D01*
X26842850Y41325595D01*
X26840142Y41339669D01*
X26838108Y41356809D01*
X26836660Y41378713D01*
X26835707Y41407075D01*
X26835158Y41443592D01*
X26834925Y41489960D01*
X26834899Y41527925D01*
X26835026Y41582319D01*
X26835412Y41625688D01*
X26836146Y41659703D01*
X26837314Y41686038D01*
X26839004Y41706366D01*
X26841304Y41722359D01*
X26844300Y41735690D01*
X26846067Y41741815D01*
X26865656Y41786512D01*
X26894316Y41822365D01*
X26932248Y41849620D01*
X26936219Y41851709D01*
X26973569Y41870825D01*
X27124859Y41872827D01*
X27276150Y41874830D01*
X27276150Y41651750D01*
X27161561Y41651750D01*
X27120818Y41651699D01*
X27090811Y41651393D01*
X27069572Y41650594D01*
X27055137Y41649067D01*
X27045541Y41646577D01*
X27038818Y41642890D01*
X27033002Y41637768D01*
X27031386Y41636163D01*
X27025377Y41629650D01*
X27021152Y41622640D01*
X27018396Y41612911D01*
X27016797Y41598239D01*
X27016041Y41576404D01*
X27015813Y41545182D01*
X27015800Y41525742D01*
X27015965Y41488339D01*
X27016624Y41461426D01*
X27018020Y41442798D01*
X27020397Y41430246D01*
X27023999Y41421565D01*
X27027932Y41415915D01*
X27040064Y41400925D01*
X27242244Y41398947D01*
X27304561Y41398437D01*
X27355417Y41398349D01*
X27396048Y41398835D01*
X27427691Y41400049D01*
X27451582Y41402143D01*
X27468957Y41405269D01*
X27481053Y41409581D01*
X27489105Y41415231D01*
X27494350Y41422372D01*
X27497805Y41430524D01*
X27500238Y41444066D01*
X27502237Y41468408D01*
X27503711Y41501651D01*
X27504567Y41541899D01*
X27504750Y41573010D01*
X27505251Y41628935D01*
X27506906Y41674048D01*
X27509937Y41710200D01*
X27514568Y41739244D01*
X27521024Y41763033D01*
X27529528Y41783420D01*
X27530375Y41785100D01*
X27553194Y41817254D01*
X27585516Y41845219D01*
X27615875Y41862562D01*
X27623736Y41866063D01*
X27631533Y41868963D01*
X27640500Y41871329D01*
X27651872Y41873226D01*
X27666883Y41874719D01*
X27686770Y41875873D01*
X27712765Y41876754D01*
X27746105Y41877428D01*
X27788025Y41877960D01*
X27839758Y41878414D01*
X27902541Y41878858D01*
X27926380Y41879017D01*
X28007945Y41879373D01*
X28077646Y41879287D01*
G37*
X28077646Y41879287D02*
X28135326Y41878762D01*
X28180829Y41877801D01*
X28214000Y41876406D01*
X28234682Y41874579D01*
X28238521Y41873927D01*
X28276435Y41860986D01*
X28311331Y41839757D01*
X28339032Y41812952D01*
X28344808Y41805001D01*
X28355715Y41787289D01*
X28364363Y41769635D01*
X28371031Y41750268D01*
X28376000Y41727417D01*
X28379549Y41699310D01*
X28381961Y41664176D01*
X28383514Y41620244D01*
X28384489Y41565742D01*
X28384640Y41553325D01*
X28384925Y41507019D01*
X28384740Y41462548D01*
X28384128Y41422255D01*
X28383136Y41388478D01*
X28381807Y41363560D01*
X28380801Y41353343D01*
X28370019Y41308239D01*
X28351475Y41267700D01*
X28326735Y41234740D01*
X28312441Y41221973D01*
X28295134Y41209826D01*
X28277627Y41200363D01*
X28258062Y41193260D01*
X28234582Y41188196D01*
X28205330Y41184847D01*
X28168450Y41182891D01*
X28122084Y41182005D01*
X28081447Y41181850D01*
X27942900Y41181850D01*
X27942900Y41404100D01*
X28057488Y41404100D01*
X28098231Y41404150D01*
X28128238Y41404456D01*
X28149477Y41405255D01*
X28163912Y41406782D01*
X28173508Y41409272D01*
X28180231Y41412959D01*
X28186047Y41418081D01*
X28187663Y41419686D01*
X28193729Y41426274D01*
X28197975Y41433373D01*
X28200725Y41443238D01*
X28202303Y41458124D01*
X28203033Y41480285D01*
X28203240Y41511978D01*
X28203250Y41528053D01*
X28202824Y41561983D01*
X28201653Y41592075D01*
X28199899Y41615706D01*
X28197723Y41630252D01*
X28196825Y41632839D01*
X28191849Y41639414D01*
X28183848Y41644765D01*
X28171610Y41649011D01*
X28153922Y41652273D01*
X28129572Y41654670D01*
X28097347Y41656325D01*
X28056034Y41657356D01*
X28004421Y41657883D01*
X27942900Y41658029D01*
X27879843Y41657869D01*
X27828289Y41657314D01*
X27787041Y41656252D01*
X27754905Y41654567D01*
X27730685Y41652148D01*
X27713186Y41648880D01*
X27701214Y41644651D01*
X27693573Y41639347D01*
X27689644Y41634009D01*
X27687879Y41624750D01*
X27686090Y41604743D01*
X27684383Y41575942D01*
X27682864Y41540297D01*
X27681639Y41499761D01*
X27681148Y41477125D01*
X27679721Y41420555D01*
X27677514Y41374910D01*
X27674106Y41338420D01*
X27669080Y41309314D01*
X27662016Y41285824D01*
X27652496Y41266178D01*
X27640101Y41248607D01*
X27624413Y41231340D01*
X27622555Y41229470D01*
X27610713Y41217892D01*
X27599567Y41208240D01*
X27587871Y41200330D01*
X27574381Y41193974D01*
X27557853Y41188988D01*
X27537040Y41185186D01*
X27510700Y41182381D01*
X27477586Y41180387D01*
X27436455Y41179019D01*
X27386061Y41178091D01*
X27325161Y41177417D01*
X27270962Y41176959D01*
X27204613Y41176481D01*
X27149680Y41176236D01*
X27104884Y41176262D01*
X27068943Y41176591D01*
X27040575Y41177260D01*
X27018500Y41178302D01*
X27001436Y41179754D01*
X26988102Y41181651D01*
X26977217Y41184026D01*
X26973379Y41185084D01*
X26929764Y41202272D01*
X26895660Y41226421D01*
X26869580Y41259029D01*
X26850034Y41301593D01*
X26846324Y41312891D01*
X26842850Y41325595D01*
X26840142Y41339669D01*
X26838108Y41356809D01*
X26836660Y41378713D01*
X26835707Y41407075D01*
X26835158Y41443592D01*
X26834925Y41489960D01*
X26834899Y41527925D01*
X26835026Y41582319D01*
X26835412Y41625688D01*
X26836146Y41659703D01*
X26837314Y41686038D01*
X26839004Y41706366D01*
X26841304Y41722359D01*
X26844300Y41735690D01*
X26846067Y41741815D01*
X26865656Y41786512D01*
X26894316Y41822365D01*
X26932248Y41849620D01*
X26936219Y41851709D01*
X26973569Y41870825D01*
X27124859Y41872827D01*
X27276150Y41874830D01*
X27276150Y41651750D01*
X27161561Y41651750D01*
X27120818Y41651699D01*
X27090811Y41651393D01*
X27069572Y41650594D01*
X27055137Y41649067D01*
X27045541Y41646577D01*
X27038818Y41642890D01*
X27033002Y41637768D01*
X27031386Y41636163D01*
X27025377Y41629650D01*
X27021152Y41622640D01*
X27018396Y41612911D01*
X27016797Y41598239D01*
X27016041Y41576404D01*
X27015813Y41545182D01*
X27015800Y41525742D01*
X27015965Y41488339D01*
X27016624Y41461426D01*
X27018020Y41442798D01*
X27020397Y41430246D01*
X27023999Y41421565D01*
X27027932Y41415915D01*
X27040064Y41400925D01*
X27242244Y41398947D01*
X27304561Y41398437D01*
X27355417Y41398349D01*
X27396048Y41398835D01*
X27427691Y41400049D01*
X27451582Y41402143D01*
X27468957Y41405269D01*
X27481053Y41409581D01*
X27489105Y41415231D01*
X27494350Y41422372D01*
X27497805Y41430524D01*
X27500238Y41444066D01*
X27502237Y41468408D01*
X27503711Y41501651D01*
X27504567Y41541899D01*
X27504750Y41573010D01*
X27505251Y41628935D01*
X27506906Y41674048D01*
X27509937Y41710200D01*
X27514568Y41739244D01*
X27521024Y41763033D01*
X27529528Y41783420D01*
X27530375Y41785100D01*
X27553194Y41817254D01*
X27585516Y41845219D01*
X27615875Y41862562D01*
X27623736Y41866063D01*
X27631533Y41868963D01*
X27640500Y41871329D01*
X27651872Y41873226D01*
X27666883Y41874719D01*
X27686770Y41875873D01*
X27712765Y41876754D01*
X27746105Y41877428D01*
X27788025Y41877960D01*
X27839758Y41878414D01*
X27902541Y41878858D01*
X27926380Y41879017D01*
X28007945Y41879373D01*
X28077646Y41879287D01*
G36*
X26344963Y33272050D02*
G01*
X26368258Y33262966D01*
X26385418Y33254758D01*
X26442843Y33223219D01*
X26501093Y33185189D01*
X26557888Y33142566D01*
X26610949Y33097251D01*
X26657994Y33051144D01*
X26696746Y33006143D01*
X26715645Y32979574D01*
X26738446Y32936587D01*
X26758748Y32882672D01*
X26776000Y32819449D01*
X26785260Y32774450D01*
X26790464Y32737523D01*
X26794167Y32693973D01*
X26796371Y32646547D01*
X26797080Y32597993D01*
X26796294Y32551058D01*
X26794017Y32508489D01*
X26790250Y32473036D01*
X26784996Y32447444D01*
X26784990Y32447425D01*
X26773733Y32418173D01*
X26760467Y32396083D01*
X26746634Y32383207D01*
X26738196Y32380750D01*
X26729392Y32384841D01*
X26714819Y32395543D01*
X26698403Y32409842D01*
X26671849Y32440619D01*
X26645876Y32481912D01*
X26621498Y32531545D01*
X26599729Y32587344D01*
X26581584Y32647131D01*
X26574847Y32674861D01*
X26570749Y32696704D01*
X26567074Y32722415D01*
X26564190Y32748389D01*
X26562466Y32771026D01*
X26562271Y32786725D01*
X26562951Y32791101D01*
X26571550Y32798675D01*
X26585757Y32797674D01*
X26598904Y32790559D01*
X26614080Y32784650D01*
X26626510Y32789987D01*
X26631066Y32797509D01*
X26630120Y32810532D01*
X26621046Y32832874D01*
X26604001Y32864229D01*
X26579143Y32904292D01*
X26565315Y32925282D01*
X26537271Y32964807D01*
X26513564Y32992802D01*
X26493780Y33009514D01*
X26477503Y33015191D01*
X26464322Y33010080D01*
X26453821Y32994431D01*
X26452988Y32992502D01*
X26443689Y32966176D01*
X26436256Y32935398D01*
X26430478Y32898498D01*
X26426144Y32853809D01*
X26423044Y32799662D01*
X26421089Y32739525D01*
X26420108Y32666243D01*
X26421279Y32603514D01*
X26425065Y32549302D01*
X26431928Y32501573D01*
X26442330Y32458292D01*
X26456734Y32417424D01*
X26475601Y32376934D01*
X26499393Y32334789D01*
X26520710Y32300927D01*
X26559373Y32239794D01*
X26589788Y32187861D01*
X26612112Y32144809D01*
X26626504Y32110318D01*
X26633122Y32084069D01*
X26633516Y32073164D01*
X26629473Y32053954D01*
X26620546Y32045820D01*
X26606056Y32048617D01*
X26585326Y32062201D01*
X26584665Y32062722D01*
X26564150Y32076912D01*
X26539193Y32091431D01*
X26525997Y32098064D01*
X26499616Y32109236D01*
X26480643Y32113707D01*
X26468070Y32110393D01*
X26460891Y32098211D01*
X26458097Y32076076D01*
X26458683Y32042905D01*
X26459616Y32026638D01*
X26463940Y31970318D01*
X26470048Y31907354D01*
X26477613Y31840094D01*
X26486307Y31770886D01*
X26495804Y31702078D01*
X26505776Y31636018D01*
X26515896Y31575055D01*
X26525835Y31521536D01*
X26535268Y31477809D01*
X26537281Y31469581D01*
X26559753Y31391605D01*
X26586917Y31319321D01*
X26619821Y31251090D01*
X26659518Y31185275D01*
X26707056Y31120238D01*
X26763486Y31054342D01*
X26829858Y30985948D01*
X26874948Y30942978D01*
X26921546Y30898895D01*
X26960253Y30860331D01*
X26993136Y30824927D01*
X27022264Y30790321D01*
X27049705Y30754153D01*
X27077527Y30714063D01*
X27083991Y30704350D01*
X27122493Y30647095D01*
X27156608Y30598883D01*
X27188169Y30557687D01*
X27219010Y30521478D01*
X27250964Y30488225D01*
X27285863Y30455901D01*
X27325541Y30422477D01*
X27371400Y30386258D01*
X27412055Y30355358D01*
X27444311Y30332083D01*
X27469309Y30315678D01*
X27488191Y30305387D01*
X27500600Y30300802D01*
X27511383Y30299426D01*
X27516263Y30302916D01*
X27514898Y30312439D01*
X27506949Y30329161D01*
X27492076Y30354250D01*
X27479057Y30374784D01*
X27461852Y30402209D01*
X27445919Y30428802D01*
X27433387Y30450948D01*
X27427792Y30461841D01*
X27414920Y30489207D01*
X27431256Y30510624D01*
X27446453Y30527662D01*
X27460814Y30535338D01*
X27477397Y30533924D01*
X27499263Y30523694D01*
X27509470Y30517628D01*
X27561042Y30492371D01*
X27612853Y30479644D01*
X27664463Y30479476D01*
X27715433Y30491899D01*
X27737886Y30501529D01*
X27777204Y30526017D01*
X27805893Y30556355D01*
X27824388Y30593364D01*
X27833124Y30637866D01*
X27833247Y30681512D01*
X27824209Y30740312D01*
X27804477Y30801909D01*
X27773799Y30866836D01*
X27731923Y30935628D01*
X27678596Y31008818D01*
X27678568Y31008853D01*
X27638427Y31062284D01*
X27606888Y31109232D01*
X27582863Y31151424D01*
X27566910Y31186402D01*
X27559282Y31213108D01*
X27554202Y31246421D01*
X27551730Y31282818D01*
X27551928Y31318777D01*
X27554855Y31350774D01*
X27560572Y31375287D01*
X27563546Y31382011D01*
X27576985Y31400300D01*
X27599678Y31424041D01*
X27630062Y31452037D01*
X27666571Y31483091D01*
X27707639Y31516005D01*
X27751703Y31549582D01*
X27797197Y31582625D01*
X27842555Y31613937D01*
X27886213Y31642320D01*
X27926606Y31666576D01*
X27956786Y31682846D01*
X28010150Y31706451D01*
X28058150Y31720513D01*
X28103103Y31725601D01*
X28127100Y31724804D01*
X28172109Y31718483D01*
X28210319Y31706879D01*
X28243109Y31688760D01*
X28271862Y31662895D01*
X28297958Y31628052D01*
X28322779Y31583001D01*
X28346645Y31529113D01*
X28363126Y31489273D01*
X28376378Y31458896D01*
X28387745Y31435598D01*
X28398571Y31416996D01*
X28410200Y31400704D01*
X28423976Y31384338D01*
X28435190Y31372022D01*
X28466146Y31341932D01*
X28494774Y31322195D01*
X28523847Y31311529D01*
X28556137Y31308656D01*
X28570843Y31309425D01*
X28624682Y31318737D01*
X28669677Y31337007D01*
X28706160Y31364412D01*
X28730967Y31395400D01*
X28744075Y31423863D01*
X28749669Y31453785D01*
X28747220Y31480910D01*
X28742942Y31491858D01*
X28735257Y31500178D01*
X28719400Y31513459D01*
X28697837Y31529731D01*
X28677854Y31543772D01*
X28649926Y31564456D01*
X28616874Y31591574D01*
X28582139Y31622184D01*
X28549163Y31653344D01*
X28545676Y31656794D01*
X28506374Y31697610D01*
X28471013Y31738422D01*
X28438641Y31780833D01*
X28408305Y31826447D01*
X28379052Y31876867D01*
X28349929Y31933697D01*
X28319984Y31998540D01*
X28288263Y32073001D01*
X28266468Y32126750D01*
X28249065Y32169523D01*
X28230959Y32212599D01*
X28213421Y32253053D01*
X28197720Y32287965D01*
X28185128Y32314412D01*
X28183515Y32317606D01*
X28157471Y32364031D01*
X28127398Y32408443D01*
X28092103Y32452089D01*
X28050395Y32496218D01*
X28001079Y32542078D01*
X27942964Y32590918D01*
X27874858Y32643985D01*
X27863525Y32652523D01*
X27797351Y32699344D01*
X27735505Y32736632D01*
X27675333Y32765463D01*
X27614184Y32786913D01*
X27549402Y32802060D01*
X27478336Y32811978D01*
X27467959Y32812990D01*
X27406092Y32815731D01*
X27336193Y32813676D01*
X27261817Y32807231D01*
X27186520Y32796800D01*
X27113856Y32782788D01*
X27047379Y32765600D01*
X27044683Y32764787D01*
X27025557Y32759525D01*
X27014289Y32758583D01*
X27006788Y32761979D01*
X27003515Y32764962D01*
X26997859Y32775195D01*
X27001617Y32786460D01*
X27015608Y32799874D01*
X27040649Y32816554D01*
X27041883Y32817299D01*
X27117547Y32856289D01*
X27202011Y32887963D01*
X27293547Y32912114D01*
X27390430Y32928531D01*
X27490934Y32937006D01*
X27593330Y32937329D01*
X27695894Y32929293D01*
X27796899Y32912688D01*
X27808808Y32910115D01*
X27880862Y32891945D01*
X27950490Y32869579D01*
X28021540Y32841629D01*
X28097862Y32806705D01*
X28104825Y32803318D01*
X28155273Y32777105D01*
X28208988Y32746434D01*
X28263924Y32712692D01*
X28318037Y32677268D01*
X28369281Y32641553D01*
X28415613Y32606933D01*
X28454987Y32574799D01*
X28485359Y32546539D01*
X28489934Y32541731D01*
X28506744Y32523625D01*
X28490515Y32463300D01*
X28483783Y32436421D01*
X28479142Y32412159D01*
X28476205Y32386914D01*
X28474586Y32357086D01*
X28473900Y32319076D01*
X28473828Y32307725D01*
X28474153Y32260556D01*
X28476046Y32221737D01*
X28480124Y32186951D01*
X28487003Y32151884D01*
X28497297Y32112220D01*
X28506002Y32082300D01*
X28518731Y32043862D01*
X28535102Y32000667D01*
X28553715Y31955908D01*
X28573170Y31912779D01*
X28592068Y31874472D01*
X28609008Y31844183D01*
X28613332Y31837390D01*
X28656671Y31782650D01*
X28710640Y31732361D01*
X28773632Y31687579D01*
X28844039Y31649359D01*
X28920252Y31618756D01*
X28967882Y31604548D01*
X28998417Y31596059D01*
X29018419Y31588956D01*
X29029831Y31582264D01*
X29034599Y31575011D01*
X29035100Y31570897D01*
X29031524Y31562607D01*
X29021876Y31546755D01*
X29007775Y31525885D01*
X28996201Y31509762D01*
X28942709Y31444404D01*
X28880498Y31381089D01*
X28812422Y31322242D01*
X28741337Y31270290D01*
X28670098Y31227659D01*
X28655225Y31220038D01*
X28624533Y31205492D01*
X28600689Y31196218D01*
X28579650Y31190955D01*
X28557376Y31188436D01*
X28553441Y31188204D01*
X28527719Y31187735D01*
X28508102Y31190542D01*
X28488138Y31197978D01*
X28474023Y31204861D01*
X28436822Y31223780D01*
X28390050Y31198552D01*
X28357680Y31183090D01*
X28334113Y31176454D01*
X28319051Y31178610D01*
X28312217Y31189417D01*
X28313854Y31200078D01*
X28320123Y31218936D01*
X28329903Y31242862D01*
X28336784Y31257918D01*
X28347925Y31282061D01*
X28356296Y31301557D01*
X28360833Y31313846D01*
X28361232Y31316746D01*
X28355481Y31314188D01*
X28341930Y31305433D01*
X28322859Y31292007D01*
X28308770Y31281637D01*
X28277834Y31259735D01*
X28248244Y31241014D01*
X28221982Y31226534D01*
X28201029Y31217352D01*
X28187367Y31214526D01*
X28184534Y31215318D01*
X28179741Y31220078D01*
X28179179Y31227286D01*
X28183626Y31238656D01*
X28193861Y31255905D01*
X28210664Y31280750D01*
X28220766Y31295135D01*
X28240460Y31323859D01*
X28259686Y31353390D01*
X28275837Y31379647D01*
X28283973Y31394000D01*
X28304371Y31432305D01*
X28282357Y31464993D01*
X28244193Y31512656D01*
X28201251Y31548834D01*
X28152659Y31573988D01*
X28097544Y31588574D01*
X28038150Y31593060D01*
X27983457Y31587008D01*
X27928523Y31569670D01*
X27874788Y31542351D01*
X27823693Y31506353D01*
X27776677Y31462979D01*
X27735182Y31413534D01*
X27700648Y31359319D01*
X27674515Y31301639D01*
X27660002Y31250946D01*
X27655076Y31213384D01*
X27656676Y31176155D01*
X27665353Y31137257D01*
X27681658Y31094688D01*
X27706140Y31046446D01*
X27725303Y31013415D01*
X27737684Y30993755D01*
X27746566Y30983122D01*
X27754482Y30979369D01*
X27763970Y30980350D01*
X27764274Y30980422D01*
X27792345Y30990053D01*
X27828108Y31006921D01*
X27869611Y31029998D01*
X27914903Y31058255D01*
X27926280Y31065800D01*
X27957316Y31086540D01*
X27979617Y31100969D01*
X27994981Y31109872D01*
X28005209Y31114032D01*
X28012098Y31114232D01*
X28017448Y31111255D01*
X28021626Y31107315D01*
X28027534Y31097436D01*
X28028869Y31082810D01*
X28025383Y31061616D01*
X28016832Y31032033D01*
X28007918Y31005975D01*
X27983326Y30945521D01*
X27952142Y30885113D01*
X27923004Y30837065D01*
X27909310Y30815165D01*
X27898726Y30797256D01*
X27892817Y30786033D01*
X27892100Y30783852D01*
X27897525Y30780237D01*
X27912090Y30780956D01*
X27933231Y30785417D01*
X27958382Y30793026D01*
X27984978Y30803193D01*
X27994973Y30807622D01*
X28020614Y30818845D01*
X28037230Y30824364D01*
X28046855Y30824728D01*
X28050286Y30822504D01*
X28050727Y30812521D01*
X28043495Y30794414D01*
X28029379Y30769529D01*
X28009168Y30739209D01*
X27983651Y30704800D01*
X27973915Y30692418D01*
X27956502Y30670243D01*
X27945565Y30654420D01*
X27939598Y30641423D01*
X27937097Y30627725D01*
X27936555Y30609801D01*
X27936550Y30604902D01*
X27934869Y30574663D01*
X27928847Y30548609D01*
X27917011Y30522993D01*
X27897888Y30494066D01*
X27887676Y30480477D01*
X27839257Y30422147D01*
X27788468Y30369447D01*
X27736675Y30323432D01*
X27685245Y30285159D01*
X27635544Y30255683D01*
X27588939Y30236063D01*
X27562914Y30229438D01*
X27534078Y30225968D01*
X27508326Y30227558D01*
X27482851Y30235136D01*
X27454847Y30249633D01*
X27421507Y30271976D01*
X27410870Y30279738D01*
X27320153Y30349566D01*
X27241318Y30416248D01*
X27174030Y30480104D01*
X27117951Y30541457D01*
X27072747Y30600628D01*
X27066680Y30609644D01*
X27046166Y30639087D01*
X27023359Y30669275D01*
X27001725Y30695719D01*
X26991125Y30707525D01*
X26969151Y30731301D01*
X26946074Y30757163D01*
X26926853Y30779549D01*
X26926690Y30779747D01*
X26910875Y30796803D01*
X26887962Y30818986D01*
X26860854Y30843594D01*
X26832453Y30867925D01*
X26828475Y30871208D01*
X26746252Y30943124D01*
X26675834Y31014384D01*
X26616427Y31085931D01*
X26567237Y31158706D01*
X26533040Y31221875D01*
X26514998Y31262058D01*
X26494883Y31311752D01*
X26473708Y31368150D01*
X26452486Y31428444D01*
X26432229Y31489825D01*
X26413951Y31549485D01*
X26410259Y31562228D01*
X26376155Y31693988D01*
X26346494Y31834542D01*
X26321397Y31981945D01*
X26300986Y32134252D01*
X26285384Y32289519D01*
X26274711Y32445800D01*
X26269090Y32601151D01*
X26268641Y32753627D01*
X26273488Y32901284D01*
X26283751Y33042176D01*
X26299553Y33174360D01*
X26306550Y33219018D01*
X26312199Y33247612D01*
X26319064Y33265339D01*
X26329275Y33273163D01*
X26344963Y33272050D01*
G37*
X26344963Y33272050D02*
X26368258Y33262966D01*
X26385418Y33254758D01*
X26442843Y33223219D01*
X26501093Y33185189D01*
X26557888Y33142566D01*
X26610949Y33097251D01*
X26657994Y33051144D01*
X26696746Y33006143D01*
X26715645Y32979574D01*
X26738446Y32936587D01*
X26758748Y32882672D01*
X26776000Y32819449D01*
X26785260Y32774450D01*
X26790464Y32737523D01*
X26794167Y32693973D01*
X26796371Y32646547D01*
X26797080Y32597993D01*
X26796294Y32551058D01*
X26794017Y32508489D01*
X26790250Y32473036D01*
X26784996Y32447444D01*
X26784990Y32447425D01*
X26773733Y32418173D01*
X26760467Y32396083D01*
X26746634Y32383207D01*
X26738196Y32380750D01*
X26729392Y32384841D01*
X26714819Y32395543D01*
X26698403Y32409842D01*
X26671849Y32440619D01*
X26645876Y32481912D01*
X26621498Y32531545D01*
X26599729Y32587344D01*
X26581584Y32647131D01*
X26574847Y32674861D01*
X26570749Y32696704D01*
X26567074Y32722415D01*
X26564190Y32748389D01*
X26562466Y32771026D01*
X26562271Y32786725D01*
X26562951Y32791101D01*
X26571550Y32798675D01*
X26585757Y32797674D01*
X26598904Y32790559D01*
X26614080Y32784650D01*
X26626510Y32789987D01*
X26631066Y32797509D01*
X26630120Y32810532D01*
X26621046Y32832874D01*
X26604001Y32864229D01*
X26579143Y32904292D01*
X26565315Y32925282D01*
X26537271Y32964807D01*
X26513564Y32992802D01*
X26493780Y33009514D01*
X26477503Y33015191D01*
X26464322Y33010080D01*
X26453821Y32994431D01*
X26452988Y32992502D01*
X26443689Y32966176D01*
X26436256Y32935398D01*
X26430478Y32898498D01*
X26426144Y32853809D01*
X26423044Y32799662D01*
X26421089Y32739525D01*
X26420108Y32666243D01*
X26421279Y32603514D01*
X26425065Y32549302D01*
X26431928Y32501573D01*
X26442330Y32458292D01*
X26456734Y32417424D01*
X26475601Y32376934D01*
X26499393Y32334789D01*
X26520710Y32300927D01*
X26559373Y32239794D01*
X26589788Y32187861D01*
X26612112Y32144809D01*
X26626504Y32110318D01*
X26633122Y32084069D01*
X26633516Y32073164D01*
X26629473Y32053954D01*
X26620546Y32045820D01*
X26606056Y32048617D01*
X26585326Y32062201D01*
X26584665Y32062722D01*
X26564150Y32076912D01*
X26539193Y32091431D01*
X26525997Y32098064D01*
X26499616Y32109236D01*
X26480643Y32113707D01*
X26468070Y32110393D01*
X26460891Y32098211D01*
X26458097Y32076076D01*
X26458683Y32042905D01*
X26459616Y32026638D01*
X26463940Y31970318D01*
X26470048Y31907354D01*
X26477613Y31840094D01*
X26486307Y31770886D01*
X26495804Y31702078D01*
X26505776Y31636018D01*
X26515896Y31575055D01*
X26525835Y31521536D01*
X26535268Y31477809D01*
X26537281Y31469581D01*
X26559753Y31391605D01*
X26586917Y31319321D01*
X26619821Y31251090D01*
X26659518Y31185275D01*
X26707056Y31120238D01*
X26763486Y31054342D01*
X26829858Y30985948D01*
X26874948Y30942978D01*
X26921546Y30898895D01*
X26960253Y30860331D01*
X26993136Y30824927D01*
X27022264Y30790321D01*
X27049705Y30754153D01*
X27077527Y30714063D01*
X27083991Y30704350D01*
X27122493Y30647095D01*
X27156608Y30598883D01*
X27188169Y30557687D01*
X27219010Y30521478D01*
X27250964Y30488225D01*
X27285863Y30455901D01*
X27325541Y30422477D01*
X27371400Y30386258D01*
X27412055Y30355358D01*
X27444311Y30332083D01*
X27469309Y30315678D01*
X27488191Y30305387D01*
X27500600Y30300802D01*
X27511383Y30299426D01*
X27516263Y30302916D01*
X27514898Y30312439D01*
X27506949Y30329161D01*
X27492076Y30354250D01*
X27479057Y30374784D01*
X27461852Y30402209D01*
X27445919Y30428802D01*
X27433387Y30450948D01*
X27427792Y30461841D01*
X27414920Y30489207D01*
X27431256Y30510624D01*
X27446453Y30527662D01*
X27460814Y30535338D01*
X27477397Y30533924D01*
X27499263Y30523694D01*
X27509470Y30517628D01*
X27561042Y30492371D01*
X27612853Y30479644D01*
X27664463Y30479476D01*
X27715433Y30491899D01*
X27737886Y30501529D01*
X27777204Y30526017D01*
X27805893Y30556355D01*
X27824388Y30593364D01*
X27833124Y30637866D01*
X27833247Y30681512D01*
X27824209Y30740312D01*
X27804477Y30801909D01*
X27773799Y30866836D01*
X27731923Y30935628D01*
X27678596Y31008818D01*
X27678568Y31008853D01*
X27638427Y31062284D01*
X27606888Y31109232D01*
X27582863Y31151424D01*
X27566910Y31186402D01*
X27559282Y31213108D01*
X27554202Y31246421D01*
X27551730Y31282818D01*
X27551928Y31318777D01*
X27554855Y31350774D01*
X27560572Y31375287D01*
X27563546Y31382011D01*
X27576985Y31400300D01*
X27599678Y31424041D01*
X27630062Y31452037D01*
X27666571Y31483091D01*
X27707639Y31516005D01*
X27751703Y31549582D01*
X27797197Y31582625D01*
X27842555Y31613937D01*
X27886213Y31642320D01*
X27926606Y31666576D01*
X27956786Y31682846D01*
X28010150Y31706451D01*
X28058150Y31720513D01*
X28103103Y31725601D01*
X28127100Y31724804D01*
X28172109Y31718483D01*
X28210319Y31706879D01*
X28243109Y31688760D01*
X28271862Y31662895D01*
X28297958Y31628052D01*
X28322779Y31583001D01*
X28346645Y31529113D01*
X28363126Y31489273D01*
X28376378Y31458896D01*
X28387745Y31435598D01*
X28398571Y31416996D01*
X28410200Y31400704D01*
X28423976Y31384338D01*
X28435190Y31372022D01*
X28466146Y31341932D01*
X28494774Y31322195D01*
X28523847Y31311529D01*
X28556137Y31308656D01*
X28570843Y31309425D01*
X28624682Y31318737D01*
X28669677Y31337007D01*
X28706160Y31364412D01*
X28730967Y31395400D01*
X28744075Y31423863D01*
X28749669Y31453785D01*
X28747220Y31480910D01*
X28742942Y31491858D01*
X28735257Y31500178D01*
X28719400Y31513459D01*
X28697837Y31529731D01*
X28677854Y31543772D01*
X28649926Y31564456D01*
X28616874Y31591574D01*
X28582139Y31622184D01*
X28549163Y31653344D01*
X28545676Y31656794D01*
X28506374Y31697610D01*
X28471013Y31738422D01*
X28438641Y31780833D01*
X28408305Y31826447D01*
X28379052Y31876867D01*
X28349929Y31933697D01*
X28319984Y31998540D01*
X28288263Y32073001D01*
X28266468Y32126750D01*
X28249065Y32169523D01*
X28230959Y32212599D01*
X28213421Y32253053D01*
X28197720Y32287965D01*
X28185128Y32314412D01*
X28183515Y32317606D01*
X28157471Y32364031D01*
X28127398Y32408443D01*
X28092103Y32452089D01*
X28050395Y32496218D01*
X28001079Y32542078D01*
X27942964Y32590918D01*
X27874858Y32643985D01*
X27863525Y32652523D01*
X27797351Y32699344D01*
X27735505Y32736632D01*
X27675333Y32765463D01*
X27614184Y32786913D01*
X27549402Y32802060D01*
X27478336Y32811978D01*
X27467959Y32812990D01*
X27406092Y32815731D01*
X27336193Y32813676D01*
X27261817Y32807231D01*
X27186520Y32796800D01*
X27113856Y32782788D01*
X27047379Y32765600D01*
X27044683Y32764787D01*
X27025557Y32759525D01*
X27014289Y32758583D01*
X27006788Y32761979D01*
X27003515Y32764962D01*
X26997859Y32775195D01*
X27001617Y32786460D01*
X27015608Y32799874D01*
X27040649Y32816554D01*
X27041883Y32817299D01*
X27117547Y32856289D01*
X27202011Y32887963D01*
X27293547Y32912114D01*
X27390430Y32928531D01*
X27490934Y32937006D01*
X27593330Y32937329D01*
X27695894Y32929293D01*
X27796899Y32912688D01*
X27808808Y32910115D01*
X27880862Y32891945D01*
X27950490Y32869579D01*
X28021540Y32841629D01*
X28097862Y32806705D01*
X28104825Y32803318D01*
X28155273Y32777105D01*
X28208988Y32746434D01*
X28263924Y32712692D01*
X28318037Y32677268D01*
X28369281Y32641553D01*
X28415613Y32606933D01*
X28454987Y32574799D01*
X28485359Y32546539D01*
X28489934Y32541731D01*
X28506744Y32523625D01*
X28490515Y32463300D01*
X28483783Y32436421D01*
X28479142Y32412159D01*
X28476205Y32386914D01*
X28474586Y32357086D01*
X28473900Y32319076D01*
X28473828Y32307725D01*
X28474153Y32260556D01*
X28476046Y32221737D01*
X28480124Y32186951D01*
X28487003Y32151884D01*
X28497297Y32112220D01*
X28506002Y32082300D01*
X28518731Y32043862D01*
X28535102Y32000667D01*
X28553715Y31955908D01*
X28573170Y31912779D01*
X28592068Y31874472D01*
X28609008Y31844183D01*
X28613332Y31837390D01*
X28656671Y31782650D01*
X28710640Y31732361D01*
X28773632Y31687579D01*
X28844039Y31649359D01*
X28920252Y31618756D01*
X28967882Y31604548D01*
X28998417Y31596059D01*
X29018419Y31588956D01*
X29029831Y31582264D01*
X29034599Y31575011D01*
X29035100Y31570897D01*
X29031524Y31562607D01*
X29021876Y31546755D01*
X29007775Y31525885D01*
X28996201Y31509762D01*
X28942709Y31444404D01*
X28880498Y31381089D01*
X28812422Y31322242D01*
X28741337Y31270290D01*
X28670098Y31227659D01*
X28655225Y31220038D01*
X28624533Y31205492D01*
X28600689Y31196218D01*
X28579650Y31190955D01*
X28557376Y31188436D01*
X28553441Y31188204D01*
X28527719Y31187735D01*
X28508102Y31190542D01*
X28488138Y31197978D01*
X28474023Y31204861D01*
X28436822Y31223780D01*
X28390050Y31198552D01*
X28357680Y31183090D01*
X28334113Y31176454D01*
X28319051Y31178610D01*
X28312217Y31189417D01*
X28313854Y31200078D01*
X28320123Y31218936D01*
X28329903Y31242862D01*
X28336784Y31257918D01*
X28347925Y31282061D01*
X28356296Y31301557D01*
X28360833Y31313846D01*
X28361232Y31316746D01*
X28355481Y31314188D01*
X28341930Y31305433D01*
X28322859Y31292007D01*
X28308770Y31281637D01*
X28277834Y31259735D01*
X28248244Y31241014D01*
X28221982Y31226534D01*
X28201029Y31217352D01*
X28187367Y31214526D01*
X28184534Y31215318D01*
X28179741Y31220078D01*
X28179179Y31227286D01*
X28183626Y31238656D01*
X28193861Y31255905D01*
X28210664Y31280750D01*
X28220766Y31295135D01*
X28240460Y31323859D01*
X28259686Y31353390D01*
X28275837Y31379647D01*
X28283973Y31394000D01*
X28304371Y31432305D01*
X28282357Y31464993D01*
X28244193Y31512656D01*
X28201251Y31548834D01*
X28152659Y31573988D01*
X28097544Y31588574D01*
X28038150Y31593060D01*
X27983457Y31587008D01*
X27928523Y31569670D01*
X27874788Y31542351D01*
X27823693Y31506353D01*
X27776677Y31462979D01*
X27735182Y31413534D01*
X27700648Y31359319D01*
X27674515Y31301639D01*
X27660002Y31250946D01*
X27655076Y31213384D01*
X27656676Y31176155D01*
X27665353Y31137257D01*
X27681658Y31094688D01*
X27706140Y31046446D01*
X27725303Y31013415D01*
X27737684Y30993755D01*
X27746566Y30983122D01*
X27754482Y30979369D01*
X27763970Y30980350D01*
X27764274Y30980422D01*
X27792345Y30990053D01*
X27828108Y31006921D01*
X27869611Y31029998D01*
X27914903Y31058255D01*
X27926280Y31065800D01*
X27957316Y31086540D01*
X27979617Y31100969D01*
X27994981Y31109872D01*
X28005209Y31114032D01*
X28012098Y31114232D01*
X28017448Y31111255D01*
X28021626Y31107315D01*
X28027534Y31097436D01*
X28028869Y31082810D01*
X28025383Y31061616D01*
X28016832Y31032033D01*
X28007918Y31005975D01*
X27983326Y30945521D01*
X27952142Y30885113D01*
X27923004Y30837065D01*
X27909310Y30815165D01*
X27898726Y30797256D01*
X27892817Y30786033D01*
X27892100Y30783852D01*
X27897525Y30780237D01*
X27912090Y30780956D01*
X27933231Y30785417D01*
X27958382Y30793026D01*
X27984978Y30803193D01*
X27994973Y30807622D01*
X28020614Y30818845D01*
X28037230Y30824364D01*
X28046855Y30824728D01*
X28050286Y30822504D01*
X28050727Y30812521D01*
X28043495Y30794414D01*
X28029379Y30769529D01*
X28009168Y30739209D01*
X27983651Y30704800D01*
X27973915Y30692418D01*
X27956502Y30670243D01*
X27945565Y30654420D01*
X27939598Y30641423D01*
X27937097Y30627725D01*
X27936555Y30609801D01*
X27936550Y30604902D01*
X27934869Y30574663D01*
X27928847Y30548609D01*
X27917011Y30522993D01*
X27897888Y30494066D01*
X27887676Y30480477D01*
X27839257Y30422147D01*
X27788468Y30369447D01*
X27736675Y30323432D01*
X27685245Y30285159D01*
X27635544Y30255683D01*
X27588939Y30236063D01*
X27562914Y30229438D01*
X27534078Y30225968D01*
X27508326Y30227558D01*
X27482851Y30235136D01*
X27454847Y30249633D01*
X27421507Y30271976D01*
X27410870Y30279738D01*
X27320153Y30349566D01*
X27241318Y30416248D01*
X27174030Y30480104D01*
X27117951Y30541457D01*
X27072747Y30600628D01*
X27066680Y30609644D01*
X27046166Y30639087D01*
X27023359Y30669275D01*
X27001725Y30695719D01*
X26991125Y30707525D01*
X26969151Y30731301D01*
X26946074Y30757163D01*
X26926853Y30779549D01*
X26926690Y30779747D01*
X26910875Y30796803D01*
X26887962Y30818986D01*
X26860854Y30843594D01*
X26832453Y30867925D01*
X26828475Y30871208D01*
X26746252Y30943124D01*
X26675834Y31014384D01*
X26616427Y31085931D01*
X26567237Y31158706D01*
X26533040Y31221875D01*
X26514998Y31262058D01*
X26494883Y31311752D01*
X26473708Y31368150D01*
X26452486Y31428444D01*
X26432229Y31489825D01*
X26413951Y31549485D01*
X26410259Y31562228D01*
X26376155Y31693988D01*
X26346494Y31834542D01*
X26321397Y31981945D01*
X26300986Y32134252D01*
X26285384Y32289519D01*
X26274711Y32445800D01*
X26269090Y32601151D01*
X26268641Y32753627D01*
X26273488Y32901284D01*
X26283751Y33042176D01*
X26299553Y33174360D01*
X26306550Y33219018D01*
X26312199Y33247612D01*
X26319064Y33265339D01*
X26329275Y33273163D01*
X26344963Y33272050D01*
G36*
X27436122Y31128557D02*
G01*
X27469825Y31126625D01*
X27436614Y31118133D01*
X27401785Y31105070D01*
X27365370Y31084547D01*
X27332232Y31059698D01*
X27308910Y31035826D01*
X27295856Y31017422D01*
X27281829Y30994648D01*
X27268613Y30970811D01*
X27257993Y30949218D01*
X27251752Y30933175D01*
X27250830Y30928187D01*
X27246612Y30920809D01*
X27244196Y30920250D01*
X27233884Y30922540D01*
X27219118Y30928041D01*
X27204604Y30934696D01*
X27195048Y30940447D01*
X27193600Y30942362D01*
X27196655Y30951529D01*
X27204569Y30968017D01*
X27215459Y30988381D01*
X27227444Y31009177D01*
X27238644Y31026960D01*
X27243713Y31034112D01*
X27266075Y31057817D01*
X27295852Y31081722D01*
X27328535Y31102702D01*
X27359613Y31117633D01*
X27368616Y31120661D01*
X27395661Y31126165D01*
X27424848Y31128692D01*
X27436122Y31128557D01*
G37*
X27436122Y31128557D02*
X27469825Y31126625D01*
X27436614Y31118133D01*
X27401785Y31105070D01*
X27365370Y31084547D01*
X27332232Y31059698D01*
X27308910Y31035826D01*
X27295856Y31017422D01*
X27281829Y30994648D01*
X27268613Y30970811D01*
X27257993Y30949218D01*
X27251752Y30933175D01*
X27250830Y30928187D01*
X27246612Y30920809D01*
X27244196Y30920250D01*
X27233884Y30922540D01*
X27219118Y30928041D01*
X27204604Y30934696D01*
X27195048Y30940447D01*
X27193600Y30942362D01*
X27196655Y30951529D01*
X27204569Y30968017D01*
X27215459Y30988381D01*
X27227444Y31009177D01*
X27238644Y31026960D01*
X27243713Y31034112D01*
X27266075Y31057817D01*
X27295852Y31081722D01*
X27328535Y31102702D01*
X27359613Y31117633D01*
X27368616Y31120661D01*
X27395661Y31126165D01*
X27424848Y31128692D01*
X27436122Y31128557D01*
G36*
X26951350Y32207089D02*
G01*
X26965970Y32198459D01*
X26989080Y32183536D01*
X27011453Y32168684D01*
X27047310Y32145112D01*
X27089204Y32118157D01*
X27132259Y32090926D01*
X27171597Y32066526D01*
X27176637Y32063448D01*
X27209865Y32042943D01*
X27233574Y32027542D01*
X27249271Y32016053D01*
X27258466Y32007283D01*
X27262667Y32000039D01*
X27263450Y31994834D01*
X27265052Y31978492D01*
X27269565Y31951798D01*
X27276545Y31916650D01*
X27285550Y31874946D01*
X27296138Y31828583D01*
X27307864Y31779460D01*
X27320288Y31729475D01*
X27332966Y31680524D01*
X27345455Y31634506D01*
X27356358Y31596525D01*
X27357513Y31588285D01*
X27353503Y31590175D01*
X27348131Y31598087D01*
X27338469Y31614860D01*
X27325912Y31637997D01*
X27312509Y31663710D01*
X27291037Y31709698D01*
X27269728Y31762519D01*
X27250013Y31818053D01*
X27233325Y31872177D01*
X27221098Y31920768D01*
X27218324Y31934680D01*
X27213654Y31958496D01*
X27208738Y31973814D01*
X27201057Y31984633D01*
X27188094Y31994952D01*
X27174756Y32003870D01*
X27134228Y32032046D01*
X27092632Y32063611D01*
X27052074Y32096745D01*
X27014656Y32129626D01*
X26982483Y32160431D01*
X26957660Y32187341D01*
X26947160Y32200873D01*
X26943071Y32207733D01*
X26944092Y32209993D01*
X26951350Y32207089D01*
G37*
X26951350Y32207089D02*
X26965970Y32198459D01*
X26989080Y32183536D01*
X27011453Y32168684D01*
X27047310Y32145112D01*
X27089204Y32118157D01*
X27132259Y32090926D01*
X27171597Y32066526D01*
X27176637Y32063448D01*
X27209865Y32042943D01*
X27233574Y32027542D01*
X27249271Y32016053D01*
X27258466Y32007283D01*
X27262667Y32000039D01*
X27263450Y31994834D01*
X27265052Y31978492D01*
X27269565Y31951798D01*
X27276545Y31916650D01*
X27285550Y31874946D01*
X27296138Y31828583D01*
X27307864Y31779460D01*
X27320288Y31729475D01*
X27332966Y31680524D01*
X27345455Y31634506D01*
X27356358Y31596525D01*
X27357513Y31588285D01*
X27353503Y31590175D01*
X27348131Y31598087D01*
X27338469Y31614860D01*
X27325912Y31637997D01*
X27312509Y31663710D01*
X27291037Y31709698D01*
X27269728Y31762519D01*
X27250013Y31818053D01*
X27233325Y31872177D01*
X27221098Y31920768D01*
X27218324Y31934680D01*
X27213654Y31958496D01*
X27208738Y31973814D01*
X27201057Y31984633D01*
X27188094Y31994952D01*
X27174756Y32003870D01*
X27134228Y32032046D01*
X27092632Y32063611D01*
X27052074Y32096745D01*
X27014656Y32129626D01*
X26982483Y32160431D01*
X26957660Y32187341D01*
X26947160Y32200873D01*
X26943071Y32207733D01*
X26944092Y32209993D01*
X26951350Y32207089D01*
G36*
X26810702Y31485370D02*
G01*
X26822946Y31481652D01*
X26860278Y31464998D01*
X26897398Y31441505D01*
X26929372Y31414532D01*
X26942099Y31400527D01*
X26952997Y31386331D01*
X26968704Y31364971D01*
X26987641Y31338692D01*
X27008230Y31309735D01*
X27028892Y31280345D01*
X27048047Y31252764D01*
X27064118Y31229236D01*
X27075523Y31212003D01*
X27080146Y31204412D01*
X27083039Y31195464D01*
X27081452Y31193300D01*
X27073895Y31196634D01*
X27060029Y31205087D01*
X27052108Y31210416D01*
X27027408Y31227533D01*
X27007316Y31204640D01*
X26981700Y31179774D01*
X26955534Y31164561D01*
X26924496Y31156526D01*
X26922870Y31156287D01*
X26904734Y31153129D01*
X26894977Y31147950D01*
X26889680Y31137051D01*
X26885959Y31121450D01*
X26881016Y31103871D01*
X26875823Y31092878D01*
X26873361Y31091008D01*
X26870426Y31096871D01*
X26864805Y31113225D01*
X26856997Y31138265D01*
X26847500Y31170187D01*
X26836814Y31207187D01*
X26825438Y31247462D01*
X26813871Y31289207D01*
X26802611Y31330619D01*
X26792158Y31369894D01*
X26783011Y31405227D01*
X26775669Y31434815D01*
X26770630Y31456854D01*
X26768395Y31469540D01*
X26768329Y31470684D01*
X26772938Y31483800D01*
X26787113Y31488705D01*
X26810702Y31485370D01*
G37*
X26810702Y31485370D02*
X26822946Y31481652D01*
X26860278Y31464998D01*
X26897398Y31441505D01*
X26929372Y31414532D01*
X26942099Y31400527D01*
X26952997Y31386331D01*
X26968704Y31364971D01*
X26987641Y31338692D01*
X27008230Y31309735D01*
X27028892Y31280345D01*
X27048047Y31252764D01*
X27064118Y31229236D01*
X27075523Y31212003D01*
X27080146Y31204412D01*
X27083039Y31195464D01*
X27081452Y31193300D01*
X27073895Y31196634D01*
X27060029Y31205087D01*
X27052108Y31210416D01*
X27027408Y31227533D01*
X27007316Y31204640D01*
X26981700Y31179774D01*
X26955534Y31164561D01*
X26924496Y31156526D01*
X26922870Y31156287D01*
X26904734Y31153129D01*
X26894977Y31147950D01*
X26889680Y31137051D01*
X26885959Y31121450D01*
X26881016Y31103871D01*
X26875823Y31092878D01*
X26873361Y31091008D01*
X26870426Y31096871D01*
X26864805Y31113225D01*
X26856997Y31138265D01*
X26847500Y31170187D01*
X26836814Y31207187D01*
X26825438Y31247462D01*
X26813871Y31289207D01*
X26802611Y31330619D01*
X26792158Y31369894D01*
X26783011Y31405227D01*
X26775669Y31434815D01*
X26770630Y31456854D01*
X26768395Y31469540D01*
X26768329Y31470684D01*
X26772938Y31483800D01*
X26787113Y31488705D01*
X26810702Y31485370D01*
D13*
%TO.C,J2*%
X38790000Y10195000D02*
X41450000Y10195000D01*
X38790000Y15335000D02*
X38790000Y10195000D01*
X38790000Y16605000D02*
X38790000Y17935000D01*
X41450000Y15335000D02*
X41450000Y10195000D01*
X38790000Y17935000D02*
X40120000Y17935000D01*
X38790000Y15335000D02*
X41450000Y15335000D01*
%TO.C,R2*%
X6127064Y33265000D02*
X5672936Y33265000D01*
X6127064Y34735000D02*
X5672936Y34735000D01*
%TO.C,RN1*%
X20970000Y36550000D02*
X20970000Y34450000D01*
X15630000Y36550000D02*
X15630000Y34450000D01*
%TO.C,C4*%
X31491252Y5910000D02*
X30968748Y5910000D01*
X31491252Y4440000D02*
X30968748Y4440000D01*
%TO.C,C2*%
X16565000Y29861252D02*
X16565000Y29338748D01*
X18035000Y29861252D02*
X18035000Y29338748D01*
%TO.C,C3*%
X31491252Y9085000D02*
X30968748Y9085000D01*
X31491252Y7615000D02*
X30968748Y7615000D01*
%TO.C,U1*%
X11060000Y40800000D02*
X11060000Y40150000D01*
X7940000Y40800000D02*
X7940000Y40150000D01*
X11060000Y40800000D02*
X11060000Y42475000D01*
X7940000Y40800000D02*
X7940000Y41450000D01*
%TO.C,C5*%
X14635000Y40538748D02*
X14635000Y41061252D01*
X13165000Y40538748D02*
X13165000Y41061252D01*
D12*
%TO.C,J4*%
X29565000Y21725000D02*
X41565000Y21725000D01*
X29565000Y30225000D02*
X29565000Y21725000D01*
X41565000Y30225000D02*
X29565000Y30225000D01*
X41565000Y21725000D02*
X41565000Y30225000D01*
G36*
X29245000Y27725000D02*
G01*
X28610000Y27090000D01*
X28610000Y28360000D01*
X29245000Y27725000D01*
G37*
D13*
X29245000Y27725000D02*
X28610000Y27090000D01*
X28610000Y28360000D01*
X29245000Y27725000D01*
%TO.C,R4*%
X11435000Y29827064D02*
X11435000Y29372936D01*
X9965000Y29827064D02*
X9965000Y29372936D01*
%TO.C,C1*%
X6161252Y31435000D02*
X5638748Y31435000D01*
X6161252Y29965000D02*
X5638748Y29965000D01*
%TD*%
M02*
