%TF.GenerationSoftware,KiCad,Pcbnew,(6.0.5-0)*%
%TF.CreationDate,2022-11-19T14:20:50-08:00*%
%TF.ProjectId,teensy-lc-reg-adpt,7465656e-7379-42d6-9c63-2d7265672d61,rev?*%
%TF.SameCoordinates,PX8a12ae0PY695f190*%
%TF.FileFunction,Legend,Top*%
%TF.FilePolarity,Positive*%
%FSLAX46Y46*%
G04 Gerber Fmt 4.6, Leading zero omitted, Abs format (unit mm)*
G04 Created by KiCad (PCBNEW (6.0.5-0)) date 2022-11-19 14:20:50*
%MOMM*%
%LPD*%
G01*
G04 APERTURE LIST*
%ADD10C,0.150000*%
%ADD11C,0.120000*%
G04 APERTURE END LIST*
D10*
X10690000Y25303215D02*
X10737619Y25398453D01*
X10737619Y25541310D01*
X10690000Y25684167D01*
X10594761Y25779405D01*
X10499523Y25827024D01*
X10309047Y25874643D01*
X10166190Y25874643D01*
X9975714Y25827024D01*
X9880476Y25779405D01*
X9785238Y25684167D01*
X9737619Y25541310D01*
X9737619Y25446072D01*
X9785238Y25303215D01*
X9832857Y25255596D01*
X10166190Y25255596D01*
X10166190Y25446072D01*
X9737619Y24827024D02*
X10737619Y24827024D01*
X9737619Y24255596D01*
X10737619Y24255596D01*
X9737619Y23779405D02*
X10737619Y23779405D01*
X10737619Y23541310D01*
X10690000Y23398453D01*
X10594761Y23303215D01*
X10499523Y23255596D01*
X10309047Y23207977D01*
X10166190Y23207977D01*
X9975714Y23255596D01*
X9880476Y23303215D01*
X9785238Y23398453D01*
X9737619Y23541310D01*
X9737619Y23779405D01*
X10025000Y8254905D02*
X10072619Y8350143D01*
X10072619Y8493000D01*
X10025000Y8635858D01*
X9929761Y8731096D01*
X9834523Y8778715D01*
X9644047Y8826334D01*
X9501190Y8826334D01*
X9310714Y8778715D01*
X9215476Y8731096D01*
X9120238Y8635858D01*
X9072619Y8493000D01*
X9072619Y8397762D01*
X9120238Y8254905D01*
X9167857Y8207286D01*
X9501190Y8207286D01*
X9501190Y8397762D01*
X9072619Y7778715D02*
X10072619Y7778715D01*
X9072619Y7207286D01*
X10072619Y7207286D01*
X9072619Y6731096D02*
X10072619Y6731096D01*
X10072619Y6493000D01*
X10025000Y6350143D01*
X9929761Y6254905D01*
X9834523Y6207286D01*
X9644047Y6159667D01*
X9501190Y6159667D01*
X9310714Y6207286D01*
X9215476Y6254905D01*
X9120238Y6350143D01*
X9072619Y6493000D01*
X9072619Y6731096D01*
X12147619Y18636762D02*
X12147619Y18065334D01*
X11147619Y18351048D02*
X12147619Y18351048D01*
X11195238Y17351048D02*
X11147619Y17446286D01*
X11147619Y17636762D01*
X11195238Y17732000D01*
X11290476Y17779620D01*
X11671428Y17779620D01*
X11766666Y17732000D01*
X11814285Y17636762D01*
X11814285Y17446286D01*
X11766666Y17351048D01*
X11671428Y17303429D01*
X11576190Y17303429D01*
X11480952Y17779620D01*
X11195238Y16493905D02*
X11147619Y16589143D01*
X11147619Y16779620D01*
X11195238Y16874858D01*
X11290476Y16922477D01*
X11671428Y16922477D01*
X11766666Y16874858D01*
X11814285Y16779620D01*
X11814285Y16589143D01*
X11766666Y16493905D01*
X11671428Y16446286D01*
X11576190Y16446286D01*
X11480952Y16922477D01*
X11814285Y16017715D02*
X11147619Y16017715D01*
X11719047Y16017715D02*
X11766666Y15970096D01*
X11814285Y15874858D01*
X11814285Y15732000D01*
X11766666Y15636762D01*
X11671428Y15589143D01*
X11147619Y15589143D01*
X11195238Y15160572D02*
X11147619Y15065334D01*
X11147619Y14874858D01*
X11195238Y14779620D01*
X11290476Y14732000D01*
X11338095Y14732000D01*
X11433333Y14779620D01*
X11480952Y14874858D01*
X11480952Y15017715D01*
X11528571Y15112953D01*
X11623809Y15160572D01*
X11671428Y15160572D01*
X11766666Y15112953D01*
X11814285Y15017715D01*
X11814285Y14874858D01*
X11766666Y14779620D01*
X11814285Y14398667D02*
X11147619Y14160572D01*
X11814285Y13922477D02*
X11147619Y14160572D01*
X10909523Y14255810D01*
X10861904Y14303429D01*
X10814285Y14398667D01*
X11528571Y13541524D02*
X11528571Y12779620D01*
X11147619Y11827239D02*
X11147619Y12303429D01*
X12147619Y12303429D01*
X11242857Y10922477D02*
X11195238Y10970096D01*
X11147619Y11112953D01*
X11147619Y11208191D01*
X11195238Y11351048D01*
X11290476Y11446286D01*
X11385714Y11493905D01*
X11576190Y11541524D01*
X11719047Y11541524D01*
X11909523Y11493905D01*
X12004761Y11446286D01*
X12100000Y11351048D01*
X12147619Y11208191D01*
X12147619Y11112953D01*
X12100000Y10970096D01*
X12052380Y10922477D01*
X9537619Y17303429D02*
X10013809Y17636762D01*
X9537619Y17874858D02*
X10537619Y17874858D01*
X10537619Y17493905D01*
X10490000Y17398667D01*
X10442380Y17351048D01*
X10347142Y17303429D01*
X10204285Y17303429D01*
X10109047Y17351048D01*
X10061428Y17398667D01*
X10013809Y17493905D01*
X10013809Y17874858D01*
X9585238Y16493905D02*
X9537619Y16589143D01*
X9537619Y16779620D01*
X9585238Y16874858D01*
X9680476Y16922477D01*
X10061428Y16922477D01*
X10156666Y16874858D01*
X10204285Y16779620D01*
X10204285Y16589143D01*
X10156666Y16493905D01*
X10061428Y16446286D01*
X9966190Y16446286D01*
X9870952Y16922477D01*
X10204285Y15589143D02*
X9394761Y15589143D01*
X9299523Y15636762D01*
X9251904Y15684381D01*
X9204285Y15779620D01*
X9204285Y15922477D01*
X9251904Y16017715D01*
X9585238Y15589143D02*
X9537619Y15684381D01*
X9537619Y15874858D01*
X9585238Y15970096D01*
X9632857Y16017715D01*
X9728095Y16065334D01*
X10013809Y16065334D01*
X10109047Y16017715D01*
X10156666Y15970096D01*
X10204285Y15874858D01*
X10204285Y15684381D01*
X10156666Y15589143D01*
X9823333Y14398667D02*
X9823333Y13922477D01*
X9537619Y14493905D02*
X10537619Y14160572D01*
X9537619Y13827239D01*
X9537619Y13065334D02*
X10537619Y13065334D01*
X9585238Y13065334D02*
X9537619Y13160572D01*
X9537619Y13351048D01*
X9585238Y13446286D01*
X9632857Y13493905D01*
X9728095Y13541524D01*
X10013809Y13541524D01*
X10109047Y13493905D01*
X10156666Y13446286D01*
X10204285Y13351048D01*
X10204285Y13160572D01*
X10156666Y13065334D01*
X10204285Y12589143D02*
X9204285Y12589143D01*
X10156666Y12589143D02*
X10204285Y12493905D01*
X10204285Y12303429D01*
X10156666Y12208191D01*
X10109047Y12160572D01*
X10013809Y12112953D01*
X9728095Y12112953D01*
X9632857Y12160572D01*
X9585238Y12208191D01*
X9537619Y12303429D01*
X9537619Y12493905D01*
X9585238Y12589143D01*
X10204285Y11827239D02*
X10204285Y11446286D01*
X10537619Y11684381D02*
X9680476Y11684381D01*
X9585238Y11636762D01*
X9537619Y11541524D01*
X9537619Y11446286D01*
X8167619Y19002239D02*
X7167619Y18668905D01*
X8167619Y18335572D01*
X7167619Y18002239D02*
X8167619Y18002239D01*
X7167619Y17526048D02*
X8167619Y17526048D01*
X7167619Y16954620D01*
X8167619Y16954620D01*
X8167619Y25243215D02*
X7167619Y24909881D01*
X8167619Y24576548D01*
X7167619Y24243215D02*
X8167619Y24243215D01*
X7167619Y23767024D02*
X8167619Y23767024D01*
X7167619Y23195596D01*
X8167619Y23195596D01*
X13247619Y26636548D02*
X12247619Y26303215D01*
X13247619Y25969881D01*
X13247619Y25446072D02*
X13247619Y25255596D01*
X13200000Y25160358D01*
X13104761Y25065120D01*
X12914285Y25017500D01*
X12580952Y25017500D01*
X12390476Y25065120D01*
X12295238Y25160358D01*
X12247619Y25255596D01*
X12247619Y25446072D01*
X12295238Y25541310D01*
X12390476Y25636548D01*
X12580952Y25684167D01*
X12914285Y25684167D01*
X13104761Y25636548D01*
X13200000Y25541310D01*
X13247619Y25446072D01*
X13247619Y24588929D02*
X12438095Y24588929D01*
X12342857Y24541310D01*
X12295238Y24493691D01*
X12247619Y24398453D01*
X12247619Y24207977D01*
X12295238Y24112739D01*
X12342857Y24065120D01*
X12438095Y24017500D01*
X13247619Y24017500D01*
X13247619Y23684167D02*
X13247619Y23112739D01*
X12247619Y23398453D02*
X13247619Y23398453D01*
X5910000Y27005120D02*
X5910000Y26052739D01*
X4675238Y26814643D02*
X4627619Y26671786D01*
X4627619Y26433691D01*
X4675238Y26338453D01*
X4722857Y26290834D01*
X4818095Y26243215D01*
X4913333Y26243215D01*
X5008571Y26290834D01*
X5056190Y26338453D01*
X5103809Y26433691D01*
X5151428Y26624167D01*
X5199047Y26719405D01*
X5246666Y26767024D01*
X5341904Y26814643D01*
X5437142Y26814643D01*
X5532380Y26767024D01*
X5580000Y26719405D01*
X5627619Y26624167D01*
X5627619Y26386072D01*
X5580000Y26243215D01*
X5910000Y26052739D02*
X5910000Y25005120D01*
X4627619Y25814643D02*
X5627619Y25814643D01*
X5151428Y25814643D02*
X5151428Y25243215D01*
X4627619Y25243215D02*
X5627619Y25243215D01*
X5910000Y25005120D02*
X5910000Y24005120D01*
X4627619Y24767024D02*
X5627619Y24767024D01*
X5627619Y24528929D01*
X5580000Y24386072D01*
X5484761Y24290834D01*
X5389523Y24243215D01*
X5199047Y24195596D01*
X5056190Y24195596D01*
X4865714Y24243215D01*
X4770476Y24290834D01*
X4675238Y24386072D01*
X4627619Y24528929D01*
X4627619Y24767024D01*
X5910000Y24005120D02*
X5910000Y22957500D01*
X4627619Y23767024D02*
X5627619Y23767024D01*
X4627619Y23195596D01*
X5627619Y23195596D01*
%TO.C,D1*%
X10977619Y9247096D02*
X11977619Y9247096D01*
X11977619Y9009000D01*
X11930000Y8866143D01*
X11834761Y8770905D01*
X11739523Y8723286D01*
X11549047Y8675667D01*
X11406190Y8675667D01*
X11215714Y8723286D01*
X11120476Y8770905D01*
X11025238Y8866143D01*
X10977619Y9009000D01*
X10977619Y9247096D01*
X10977619Y7723286D02*
X10977619Y8294715D01*
X10977619Y8009000D02*
X11977619Y8009000D01*
X11834761Y8104239D01*
X11739523Y8199477D01*
X11691904Y8294715D01*
%TO.C,R2*%
X5135619Y2071667D02*
X5611809Y2405000D01*
X5135619Y2643096D02*
X6135619Y2643096D01*
X6135619Y2262143D01*
X6088000Y2166905D01*
X6040380Y2119286D01*
X5945142Y2071667D01*
X5802285Y2071667D01*
X5707047Y2119286D01*
X5659428Y2166905D01*
X5611809Y2262143D01*
X5611809Y2643096D01*
X6040380Y1690715D02*
X6088000Y1643096D01*
X6135619Y1547858D01*
X6135619Y1309762D01*
X6088000Y1214524D01*
X6040380Y1166905D01*
X5945142Y1119286D01*
X5849904Y1119286D01*
X5707047Y1166905D01*
X5135619Y1738334D01*
X5135619Y1119286D01*
%TO.C,R1*%
X6405619Y9691667D02*
X6881809Y10025000D01*
X6405619Y10263096D02*
X7405619Y10263096D01*
X7405619Y9882143D01*
X7358000Y9786905D01*
X7310380Y9739286D01*
X7215142Y9691667D01*
X7072285Y9691667D01*
X6977047Y9739286D01*
X6929428Y9786905D01*
X6881809Y9882143D01*
X6881809Y10263096D01*
X6405619Y8739286D02*
X6405619Y9310715D01*
X6405619Y9025000D02*
X7405619Y9025000D01*
X7262761Y9120239D01*
X7167523Y9215477D01*
X7119904Y9310715D01*
%TO.C,C1*%
X14755857Y22899667D02*
X14708238Y22947286D01*
X14660619Y23090143D01*
X14660619Y23185381D01*
X14708238Y23328239D01*
X14803476Y23423477D01*
X14898714Y23471096D01*
X15089190Y23518715D01*
X15232047Y23518715D01*
X15422523Y23471096D01*
X15517761Y23423477D01*
X15613000Y23328239D01*
X15660619Y23185381D01*
X15660619Y23090143D01*
X15613000Y22947286D01*
X15565380Y22899667D01*
X14660619Y21947286D02*
X14660619Y22518715D01*
X14660619Y22233000D02*
X15660619Y22233000D01*
X15517761Y22328239D01*
X15422523Y22423477D01*
X15374904Y22518715D01*
D11*
%TO.C,JP1*%
X10430000Y2537000D02*
X10430000Y5337000D01*
X10430000Y5337000D02*
X12430000Y5337000D01*
X12430000Y5337000D02*
X12430000Y2537000D01*
X12430000Y2537000D02*
X10430000Y2537000D01*
%TO.C,D1*%
X9780000Y537000D02*
X13080000Y537000D01*
X13080000Y537000D02*
X13080000Y5937000D01*
X9780000Y537000D02*
X9780000Y5937000D01*
%TO.C,R2*%
X5815000Y4672064D02*
X5815000Y4217936D01*
X4345000Y4672064D02*
X4345000Y4217936D01*
%TO.C,R1*%
X5815000Y8482064D02*
X5815000Y8027936D01*
X4345000Y8482064D02*
X4345000Y8027936D01*
%TO.C,J4*%
X15180000Y20260000D02*
X15180000Y21590000D01*
X17780000Y20260000D02*
X17780000Y22920000D01*
X17840000Y20260000D02*
X17840000Y22920000D01*
X17780000Y22920000D02*
X17840000Y22920000D01*
X17780000Y20260000D02*
X17840000Y20260000D01*
X16510000Y20260000D02*
X15180000Y20260000D01*
%TO.C,C1*%
X14378000Y25138748D02*
X14378000Y25661252D01*
X15848000Y25138748D02*
X15848000Y25661252D01*
D10*
%TO.C,TP3*%
X4515000Y18610000D02*
X6915000Y18610000D01*
X6915000Y14410000D02*
X4515000Y14410000D01*
X6915000Y18610000D02*
X6915000Y14410000D01*
X4515000Y14410000D02*
X4515000Y18610000D01*
%TO.C,TP2*%
X8820000Y440000D02*
X6420000Y440000D01*
X8820000Y4640000D02*
X8820000Y440000D01*
X6420000Y4640000D02*
X8820000Y4640000D01*
X6420000Y440000D02*
X6420000Y4640000D01*
D11*
%TO.C,J2*%
X3750000Y20260000D02*
X3750000Y21590000D01*
X14030000Y20260000D02*
X14030000Y22920000D01*
X6350000Y20260000D02*
X14030000Y20260000D01*
X5080000Y20260000D02*
X3750000Y20260000D01*
X6350000Y22920000D02*
X14030000Y22920000D01*
X6350000Y20260000D02*
X6350000Y22920000D01*
%TO.C,J3*%
X15300000Y2540000D02*
X15300000Y-60000D01*
X12640000Y-60000D02*
X15300000Y-60000D01*
X12640000Y3810000D02*
X12640000Y5140000D01*
X12640000Y5140000D02*
X13970000Y5140000D01*
X12640000Y2540000D02*
X15300000Y2540000D01*
X12640000Y2540000D02*
X12640000Y-60000D01*
D10*
%TO.C,TP1*%
X4515000Y14800000D02*
X6915000Y14800000D01*
X4515000Y10600000D02*
X4515000Y14800000D01*
X6915000Y14800000D02*
X6915000Y10600000D01*
X6915000Y10600000D02*
X4515000Y10600000D01*
D11*
%TO.C,J1*%
X2480000Y-60000D02*
X5140000Y-60000D01*
X2480000Y1270000D02*
X2480000Y2600000D01*
X2480000Y0D02*
X5140000Y0D01*
X2480000Y2600000D02*
X3810000Y2600000D01*
X2480000Y0D02*
X2480000Y-60000D01*
X5140000Y0D02*
X5140000Y-60000D01*
D10*
%TO.C,TP4*%
X6420000Y8450000D02*
X8820000Y8450000D01*
X8820000Y8450000D02*
X8820000Y4250000D01*
X8820000Y4250000D02*
X6420000Y4250000D01*
X6420000Y4250000D02*
X6420000Y8450000D01*
%TD*%
M02*
