%TF.GenerationSoftware,KiCad,Pcbnew,(6.0.5-0)*%
%TF.CreationDate,2022-10-30T22:36:45-07:00*%
%TF.ProjectId,teensy-lc-reg-adpt,7465656e-7379-42d6-9c63-2d7265672d61,rev?*%
%TF.SameCoordinates,PX8a12ae0PY695f190*%
%TF.FileFunction,Copper,L2,Bot*%
%TF.FilePolarity,Positive*%
%FSLAX46Y46*%
G04 Gerber Fmt 4.6, Leading zero omitted, Abs format (unit mm)*
G04 Created by KiCad (PCBNEW (6.0.5-0)) date 2022-10-30 22:36:45*
%MOMM*%
%LPD*%
G01*
G04 APERTURE LIST*
%ADD10C,0.152400*%
%TA.AperFunction,NonConductor*%
%ADD11C,0.152400*%
%TD*%
%TA.AperFunction,ComponentPad*%
%ADD12R,1.700000X1.700000*%
%TD*%
%TA.AperFunction,ComponentPad*%
%ADD13O,1.700000X1.700000*%
%TD*%
G04 APERTURE END LIST*
D10*
D11*
X11882380Y18072858D02*
X11406190Y18406191D01*
X11882380Y18644286D02*
X10882380Y18644286D01*
X10882380Y18263334D01*
X10930000Y18168096D01*
X10977619Y18120477D01*
X11072857Y18072858D01*
X11215714Y18072858D01*
X11310952Y18120477D01*
X11358571Y18168096D01*
X11406190Y18263334D01*
X11406190Y18644286D01*
X11882380Y17120477D02*
X11882380Y17691905D01*
X11882380Y17406191D02*
X10882380Y17406191D01*
X11025238Y17501429D01*
X11120476Y17596667D01*
X11168095Y17691905D01*
X11120476Y15120477D02*
X11072857Y15215715D01*
X11072857Y15406191D01*
X11120476Y15501429D01*
X11215714Y15596667D01*
X11310952Y15644286D01*
X11501428Y15644286D01*
X11596666Y15596667D01*
X11691904Y15501429D01*
X11739523Y15406191D01*
X11739523Y15215715D01*
X11691904Y15120477D01*
X10739523Y15310953D02*
X10787142Y15549048D01*
X10930000Y15787143D01*
X11168095Y15930000D01*
X11406190Y15977620D01*
X11644285Y15930000D01*
X11882380Y15787143D01*
X12025238Y15549048D01*
X12072857Y15310953D01*
X12025238Y15072858D01*
X11882380Y14834762D01*
X11644285Y14691905D01*
X11406190Y14644286D01*
X11168095Y14691905D01*
X10930000Y14834762D01*
X10787142Y15072858D01*
X10739523Y15310953D01*
X10977619Y14263334D02*
X10930000Y14215715D01*
X10882380Y14120477D01*
X10882380Y13882381D01*
X10930000Y13787143D01*
X10977619Y13739524D01*
X11072857Y13691905D01*
X11168095Y13691905D01*
X11310952Y13739524D01*
X11882380Y14310953D01*
X11882380Y13691905D01*
X10882380Y13072858D02*
X10882380Y12977620D01*
X10930000Y12882381D01*
X10977619Y12834762D01*
X11072857Y12787143D01*
X11263333Y12739524D01*
X11501428Y12739524D01*
X11691904Y12787143D01*
X11787142Y12834762D01*
X11834761Y12882381D01*
X11882380Y12977620D01*
X11882380Y13072858D01*
X11834761Y13168096D01*
X11787142Y13215715D01*
X11691904Y13263334D01*
X11501428Y13310953D01*
X11263333Y13310953D01*
X11072857Y13263334D01*
X10977619Y13215715D01*
X10930000Y13168096D01*
X10882380Y13072858D01*
X10977619Y12358572D02*
X10930000Y12310953D01*
X10882380Y12215715D01*
X10882380Y11977620D01*
X10930000Y11882381D01*
X10977619Y11834762D01*
X11072857Y11787143D01*
X11168095Y11787143D01*
X11310952Y11834762D01*
X11882380Y12406191D01*
X11882380Y11787143D01*
X10977619Y11406191D02*
X10930000Y11358572D01*
X10882380Y11263334D01*
X10882380Y11025239D01*
X10930000Y10930000D01*
X10977619Y10882381D01*
X11072857Y10834762D01*
X11168095Y10834762D01*
X11310952Y10882381D01*
X11882380Y11453810D01*
X11882380Y10834762D01*
X11882380Y9644286D02*
X11215714Y9644286D01*
X10882380Y9644286D02*
X10930000Y9691905D01*
X10977619Y9644286D01*
X10930000Y9596667D01*
X10882380Y9644286D01*
X10977619Y9644286D01*
X11882380Y9168096D02*
X10882380Y9168096D01*
X11882380Y8739524D02*
X11358571Y8739524D01*
X11263333Y8787143D01*
X11215714Y8882381D01*
X11215714Y9025239D01*
X11263333Y9120477D01*
X11310952Y9168096D01*
X11882380Y7834762D02*
X11358571Y7834762D01*
X11263333Y7882381D01*
X11215714Y7977620D01*
X11215714Y8168096D01*
X11263333Y8263334D01*
X11834761Y7834762D02*
X11882380Y7930000D01*
X11882380Y8168096D01*
X11834761Y8263334D01*
X11739523Y8310953D01*
X11644285Y8310953D01*
X11549047Y8263334D01*
X11501428Y8168096D01*
X11501428Y7930000D01*
X11453809Y7834762D01*
X11882380Y7358572D02*
X11215714Y7358572D01*
X11406190Y7358572D02*
X11310952Y7310953D01*
X11263333Y7263334D01*
X11215714Y7168096D01*
X11215714Y7072858D01*
X11215714Y6882381D02*
X11215714Y6501429D01*
X10882380Y6739524D02*
X11739523Y6739524D01*
X11834761Y6691905D01*
X11882380Y6596667D01*
X11882380Y6501429D01*
X11215714Y6263334D02*
X11882380Y6072858D01*
X11406190Y5882381D01*
X11882380Y5691905D01*
X11215714Y5501429D01*
X11882380Y5120477D02*
X11215714Y5120477D01*
X10882380Y5120477D02*
X10930000Y5168096D01*
X10977619Y5120477D01*
X10930000Y5072858D01*
X10882380Y5120477D01*
X10977619Y5120477D01*
X11215714Y4215715D02*
X12025238Y4215715D01*
X12120476Y4263334D01*
X12168095Y4310953D01*
X12215714Y4406191D01*
X12215714Y4549048D01*
X12168095Y4644286D01*
X11834761Y4215715D02*
X11882380Y4310953D01*
X11882380Y4501429D01*
X11834761Y4596667D01*
X11787142Y4644286D01*
X11691904Y4691905D01*
X11406190Y4691905D01*
X11310952Y4644286D01*
X11263333Y4596667D01*
X11215714Y4501429D01*
X11215714Y4310953D01*
X11263333Y4215715D01*
D12*
%TO.P,REF\u002A\u002A,1*%
%TO.N,N/C*%
X3810000Y1270000D03*
%TD*%
%TO.P,REF\u002A\u002A,1*%
%TO.N,N/C*%
X13970000Y3810000D03*
D13*
%TO.P,REF\u002A\u002A,2*%
X13970000Y1270000D03*
%TD*%
D12*
%TO.P,REF\u002A\u002A,1*%
%TO.N,N/C*%
X5080000Y21590000D03*
D13*
%TO.P,REF\u002A\u002A,2*%
X7620000Y21590000D03*
%TO.P,REF\u002A\u002A,3*%
X10160000Y21590000D03*
%TO.P,REF\u002A\u002A,4*%
X12700000Y21590000D03*
%TD*%
M02*
