%TF.GenerationSoftware,KiCad,Pcbnew,(6.0.5-0)*%
%TF.CreationDate,2022-11-19T14:20:50-08:00*%
%TF.ProjectId,teensy-lc-reg-adpt,7465656e-7379-42d6-9c63-2d7265672d61,rev?*%
%TF.SameCoordinates,PX8a12ae0PY695f190*%
%TF.FileFunction,Copper,L1,Top*%
%TF.FilePolarity,Positive*%
%FSLAX46Y46*%
G04 Gerber Fmt 4.6, Leading zero omitted, Abs format (unit mm)*
G04 Created by KiCad (PCBNEW (6.0.5-0)) date 2022-11-19 14:20:50*
%MOMM*%
%LPD*%
G01*
G04 APERTURE LIST*
G04 Aperture macros list*
%AMRoundRect*
0 Rectangle with rounded corners*
0 $1 Rounding radius*
0 $2 $3 $4 $5 $6 $7 $8 $9 X,Y pos of 4 corners*
0 Add a 4 corners polygon primitive as box body*
4,1,4,$2,$3,$4,$5,$6,$7,$8,$9,$2,$3,0*
0 Add four circle primitives for the rounded corners*
1,1,$1+$1,$2,$3*
1,1,$1+$1,$4,$5*
1,1,$1+$1,$6,$7*
1,1,$1+$1,$8,$9*
0 Add four rect primitives between the rounded corners*
20,1,$1+$1,$2,$3,$4,$5,0*
20,1,$1+$1,$4,$5,$6,$7,0*
20,1,$1+$1,$6,$7,$8,$9,0*
20,1,$1+$1,$8,$9,$2,$3,0*%
%AMFreePoly0*
4,1,6,0.500000,-0.750000,-0.650000,-0.750000,-0.150000,0.000000,-0.650000,0.750000,0.500000,0.750000,0.500000,-0.750000,0.500000,-0.750000,$1*%
%AMFreePoly1*
4,1,6,1.000000,0.000000,0.500000,-0.750000,-0.500000,-0.750000,-0.500000,0.750000,0.500000,0.750000,1.000000,0.000000,1.000000,0.000000,$1*%
G04 Aperture macros list end*
%TA.AperFunction,SMDPad,CuDef*%
%ADD10FreePoly0,90.000000*%
%TD*%
%TA.AperFunction,SMDPad,CuDef*%
%ADD11FreePoly1,90.000000*%
%TD*%
%TA.AperFunction,SMDPad,CuDef*%
%ADD12R,1.800000X2.500000*%
%TD*%
%TA.AperFunction,SMDPad,CuDef*%
%ADD13RoundRect,0.250000X-0.450000X0.262500X-0.450000X-0.262500X0.450000X-0.262500X0.450000X0.262500X0*%
%TD*%
%TA.AperFunction,ComponentPad*%
%ADD14R,1.700000X1.700000*%
%TD*%
%TA.AperFunction,SMDPad,CuDef*%
%ADD15RoundRect,0.250000X0.475000X-0.250000X0.475000X0.250000X-0.475000X0.250000X-0.475000X-0.250000X0*%
%TD*%
%TA.AperFunction,SMDPad,CuDef*%
%ADD16R,2.000000X3.800000*%
%TD*%
%TA.AperFunction,ComponentPad*%
%ADD17O,1.700000X1.700000*%
%TD*%
%TA.AperFunction,ViaPad*%
%ADD18C,0.800000*%
%TD*%
%TA.AperFunction,Conductor*%
%ADD19C,0.203200*%
%TD*%
%TA.AperFunction,Conductor*%
%ADD20C,1.700000*%
%TD*%
%TA.AperFunction,Conductor*%
%ADD21C,0.508000*%
%TD*%
%TA.AperFunction,Conductor*%
%ADD22C,2.000000*%
%TD*%
G04 APERTURE END LIST*
D10*
%TO.P,JP1,2,B*%
%TO.N,+5V*%
X11430000Y4662000D03*
D11*
%TO.P,JP1,1,A*%
%TO.N,/VBUS*%
X11430000Y3212000D03*
%TD*%
D12*
%TO.P,D1,2,A*%
%TO.N,+5V*%
X11430000Y5937000D03*
%TO.P,D1,1,K*%
%TO.N,/VBUS*%
X11430000Y1937000D03*
%TD*%
D13*
%TO.P,R2,1*%
%TO.N,/P12V_SENSE*%
X5080000Y5357500D03*
%TO.P,R2,2*%
%TO.N,GND*%
X5080000Y3532500D03*
%TD*%
%TO.P,R1,1*%
%TO.N,+12V*%
X5080000Y9167500D03*
%TO.P,R1,2*%
%TO.N,/P12V_SENSE*%
X5080000Y7342500D03*
%TD*%
D14*
%TO.P,J4,1,Pin_1*%
%TO.N,/P12V_SENSE*%
X16510000Y21590000D03*
%TD*%
D15*
%TO.P,C1,2*%
%TO.N,GND*%
X15113000Y26350000D03*
%TO.P,C1,1*%
%TO.N,/P12V_SENSE*%
X15113000Y24450000D03*
%TD*%
D16*
%TO.P,TP3,1,1*%
%TO.N,+12V*%
X5715000Y16510000D03*
%TD*%
%TO.P,TP2,1,1*%
%TO.N,GND*%
X7620000Y2540000D03*
%TD*%
D14*
%TO.P,J2,1,Pin_1*%
%TO.N,unconnected-(J2-Pad1)*%
X5080000Y21590000D03*
D17*
%TO.P,J2,2,Pin_2*%
%TO.N,+12V*%
X7620000Y21590000D03*
%TO.P,J2,3,Pin_3*%
%TO.N,GND*%
X10160000Y21590000D03*
%TO.P,J2,4,Pin_4*%
%TO.N,+5V*%
X12700000Y21590000D03*
%TD*%
D14*
%TO.P,J3,1,Pin_1*%
%TO.N,/VBUS*%
X13970000Y3810000D03*
D17*
%TO.P,J3,2,Pin_2*%
X13970000Y1270000D03*
%TD*%
D16*
%TO.P,TP1,1,1*%
%TO.N,+12V*%
X5715000Y12700000D03*
%TD*%
D14*
%TO.P,J1,1,Pin_1*%
%TO.N,GND*%
X3810000Y1270000D03*
%TD*%
D16*
%TO.P,TP4,1,1*%
%TO.N,GND*%
X7620000Y6350000D03*
%TD*%
D18*
%TO.N,GND*%
X13716000Y26416000D03*
%TD*%
D19*
%TO.N,/P12V_SENSE*%
X15113000Y24450000D02*
X15113000Y23495000D01*
X14986000Y23749000D02*
X14859000Y23622000D01*
X14859000Y23622000D02*
X14097000Y22860000D01*
X14986000Y23622000D02*
X14859000Y23622000D01*
X15113000Y23495000D02*
X15113000Y21971000D01*
X15113000Y23495000D02*
X14986000Y23622000D01*
X15113000Y21971000D02*
X15494000Y21590000D01*
D20*
%TO.N,+5V*%
X11430000Y17145000D02*
X11430000Y5937000D01*
%TO.N,/VBUS*%
X13081000Y3428754D02*
X13081000Y1270000D01*
X13081000Y1270000D02*
X12097000Y1270000D01*
X12097000Y1270000D02*
X11430000Y1937000D01*
X13081000Y3428754D02*
X11589246Y1937000D01*
X11589246Y1937000D02*
X11430000Y1937000D01*
D19*
%TO.N,GND*%
X14986000Y26350000D02*
X13782000Y26350000D01*
X13782000Y26350000D02*
X13716000Y26416000D01*
%TO.N,/P12V_SENSE*%
X14986000Y24450000D02*
X14986000Y23749000D01*
X8890000Y21947918D02*
X8890000Y19812000D01*
X14097000Y22860000D02*
X9802082Y22860000D01*
X5080000Y7493000D02*
X5080000Y7342500D01*
X9802082Y22860000D02*
X8890000Y21947918D01*
X7366000Y18288000D02*
X7366000Y9779000D01*
X8890000Y19812000D02*
X7366000Y18288000D01*
X7366000Y9779000D02*
X5080000Y7493000D01*
D20*
%TO.N,+12V*%
X7620000Y21590000D02*
X7620000Y20574000D01*
X7620000Y20574000D02*
X5715000Y18669000D01*
X5715000Y18669000D02*
X5715000Y16510000D01*
D19*
%TO.N,/P12V_SENSE*%
X5080000Y5357500D02*
X5080000Y7342500D01*
X15494000Y21590000D02*
X16510000Y21590000D01*
D21*
%TO.N,+12V*%
X5715000Y12700000D02*
X6350000Y12065000D01*
X6350000Y12319000D02*
X6350000Y9779000D01*
%TO.N,GND*%
X5080000Y3532500D02*
X5080000Y1270000D01*
%TO.N,+12V*%
X5080000Y9167500D02*
X5080000Y12065000D01*
X5080000Y12065000D02*
X5715000Y12700000D01*
D20*
%TO.N,GND*%
X8890000Y7620000D02*
X7620000Y6350000D01*
D22*
X7620000Y2540000D02*
X6350000Y1270000D01*
X6350000Y1270000D02*
X5080000Y1270000D01*
D20*
X8890000Y9525000D02*
X7620000Y8255000D01*
X8890000Y9525000D02*
X8890000Y7620000D01*
D22*
X7620000Y6350000D02*
X7620000Y2540000D01*
D20*
X10160000Y21590000D02*
X10160000Y19050000D01*
X10160000Y19050000D02*
X8890000Y17780000D01*
X8890000Y17780000D02*
X8890000Y9525000D01*
D22*
%TO.N,+12V*%
X5715000Y12700000D02*
X5715000Y17780000D01*
D20*
%TO.N,+5V*%
X12700000Y21590000D02*
X12700000Y18415000D01*
X12700000Y18415000D02*
X11430000Y17145000D01*
%TD*%
M02*
