%TF.GenerationSoftware,KiCad,Pcbnew,(6.0.5-0)*%
%TF.CreationDate,2022-10-30T22:07:31-07:00*%
%TF.ProjectId,teensy-lc-reg-adpt,7465656e-7379-42d6-9c63-2d7265672d61,rev?*%
%TF.SameCoordinates,Original*%
%TF.FileFunction,Legend,Bot*%
%TF.FilePolarity,Positive*%
%FSLAX46Y46*%
G04 Gerber Fmt 4.6, Leading zero omitted, Abs format (unit mm)*
G04 Created by KiCad (PCBNEW (6.0.5-0)) date 2022-10-30 22:07:31*
%MOMM*%
%LPD*%
G01*
G04 APERTURE LIST*
%ADD10C,0.150000*%
G04 APERTURE END LIST*
D10*
X149475714Y-91504523D02*
X150142380Y-91695000D01*
X149666190Y-91885476D01*
X150142380Y-92075952D01*
X149475714Y-92266428D01*
X149094761Y-93361666D02*
X150380476Y-92504523D01*
X150142380Y-94456904D02*
X149142380Y-94456904D01*
X149142380Y-94695000D01*
X149190000Y-94837857D01*
X149285238Y-94933095D01*
X149380476Y-94980714D01*
X149570952Y-95028333D01*
X149713809Y-95028333D01*
X149904285Y-94980714D01*
X149999523Y-94933095D01*
X150094761Y-94837857D01*
X150142380Y-94695000D01*
X150142380Y-94456904D01*
X149237619Y-95409285D02*
X149190000Y-95456904D01*
X149142380Y-95552142D01*
X149142380Y-95790238D01*
X149190000Y-95885476D01*
X149237619Y-95933095D01*
X149332857Y-95980714D01*
X149428095Y-95980714D01*
X149570952Y-95933095D01*
X150142380Y-95361666D01*
X150142380Y-95980714D01*
X149475714Y-96837857D02*
X150142380Y-96837857D01*
X149094761Y-96599761D02*
X149809047Y-96361666D01*
X149809047Y-96980714D01*
X149142380Y-97218809D02*
X150142380Y-97552142D01*
X149142380Y-97885476D01*
X149142380Y-98695000D02*
X149142380Y-98218809D01*
X149618571Y-98171190D01*
X149570952Y-98218809D01*
X149523333Y-98314047D01*
X149523333Y-98552142D01*
X149570952Y-98647380D01*
X149618571Y-98695000D01*
X149713809Y-98742619D01*
X149951904Y-98742619D01*
X150047142Y-98695000D01*
X150094761Y-98647380D01*
X150142380Y-98552142D01*
X150142380Y-98314047D01*
X150094761Y-98218809D01*
X150047142Y-98171190D01*
X149618571Y-99504523D02*
X149618571Y-99171190D01*
X150142380Y-99171190D02*
X149142380Y-99171190D01*
X149142380Y-99647380D01*
X149142380Y-100504523D02*
X149142380Y-100028333D01*
X149618571Y-99980714D01*
X149570952Y-100028333D01*
X149523333Y-100123571D01*
X149523333Y-100361666D01*
X149570952Y-100456904D01*
X149618571Y-100504523D01*
X149713809Y-100552142D01*
X149951904Y-100552142D01*
X150047142Y-100504523D01*
X150094761Y-100456904D01*
X150142380Y-100361666D01*
X150142380Y-100123571D01*
X150094761Y-100028333D01*
X150047142Y-99980714D01*
X150523333Y-102028333D02*
X150475714Y-101980714D01*
X150332857Y-101885476D01*
X150237619Y-101837857D01*
X150094761Y-101790238D01*
X149856666Y-101742619D01*
X149666190Y-101742619D01*
X149428095Y-101790238D01*
X149285238Y-101837857D01*
X149190000Y-101885476D01*
X149047142Y-101980714D01*
X148999523Y-102028333D01*
X150142380Y-102409285D02*
X149475714Y-102409285D01*
X149666190Y-102409285D02*
X149570952Y-102456904D01*
X149523333Y-102504523D01*
X149475714Y-102599761D01*
X149475714Y-102695000D01*
X150094761Y-103409285D02*
X150142380Y-103314047D01*
X150142380Y-103123571D01*
X150094761Y-103028333D01*
X149999523Y-102980714D01*
X149618571Y-102980714D01*
X149523333Y-103028333D01*
X149475714Y-103123571D01*
X149475714Y-103314047D01*
X149523333Y-103409285D01*
X149618571Y-103456904D01*
X149713809Y-103456904D01*
X149809047Y-102980714D01*
X149475714Y-104314047D02*
X150285238Y-104314047D01*
X150380476Y-104266428D01*
X150428095Y-104218809D01*
X150475714Y-104123571D01*
X150475714Y-103980714D01*
X150428095Y-103885476D01*
X150094761Y-104314047D02*
X150142380Y-104218809D01*
X150142380Y-104028333D01*
X150094761Y-103933095D01*
X150047142Y-103885476D01*
X149951904Y-103837857D01*
X149666190Y-103837857D01*
X149570952Y-103885476D01*
X149523333Y-103933095D01*
X149475714Y-104028333D01*
X149475714Y-104218809D01*
X149523333Y-104314047D01*
X150142380Y-105314047D02*
X150142380Y-104742619D01*
X150142380Y-105028333D02*
X149142380Y-105028333D01*
X149285238Y-104933095D01*
X149380476Y-104837857D01*
X149428095Y-104742619D01*
X149142380Y-106171190D02*
X149142380Y-105980714D01*
X149190000Y-105885476D01*
X149237619Y-105837857D01*
X149380476Y-105742619D01*
X149570952Y-105695000D01*
X149951904Y-105695000D01*
X150047142Y-105742619D01*
X150094761Y-105790238D01*
X150142380Y-105885476D01*
X150142380Y-106075952D01*
X150094761Y-106171190D01*
X150047142Y-106218809D01*
X149951904Y-106266428D01*
X149713809Y-106266428D01*
X149618571Y-106218809D01*
X149570952Y-106171190D01*
X149523333Y-106075952D01*
X149523333Y-105885476D01*
X149570952Y-105790238D01*
X149618571Y-105742619D01*
X149713809Y-105695000D01*
X150142380Y-107123571D02*
X149618571Y-107123571D01*
X149523333Y-107075952D01*
X149475714Y-106980714D01*
X149475714Y-106790238D01*
X149523333Y-106695000D01*
X150094761Y-107123571D02*
X150142380Y-107028333D01*
X150142380Y-106790238D01*
X150094761Y-106695000D01*
X149999523Y-106647380D01*
X149904285Y-106647380D01*
X149809047Y-106695000D01*
X149761428Y-106790238D01*
X149761428Y-107028333D01*
X149713809Y-107123571D01*
X150523333Y-107504523D02*
X150475714Y-107552142D01*
X150332857Y-107647380D01*
X150237619Y-107695000D01*
X150094761Y-107742619D01*
X149856666Y-107790238D01*
X149666190Y-107790238D01*
X149428095Y-107742619D01*
X149285238Y-107695000D01*
X149190000Y-107647380D01*
X149047142Y-107552142D01*
X148999523Y-107504523D01*
X150752380Y-92123571D02*
X150752380Y-91647380D01*
X151228571Y-91599761D01*
X151180952Y-91647380D01*
X151133333Y-91742619D01*
X151133333Y-91980714D01*
X151180952Y-92075952D01*
X151228571Y-92123571D01*
X151323809Y-92171190D01*
X151561904Y-92171190D01*
X151657142Y-92123571D01*
X151704761Y-92075952D01*
X151752380Y-91980714D01*
X151752380Y-91742619D01*
X151704761Y-91647380D01*
X151657142Y-91599761D01*
X151657142Y-92599761D02*
X151704761Y-92647380D01*
X151752380Y-92599761D01*
X151704761Y-92552142D01*
X151657142Y-92599761D01*
X151752380Y-92599761D01*
X151752380Y-93599761D02*
X151752380Y-93028333D01*
X151752380Y-93314047D02*
X150752380Y-93314047D01*
X150895238Y-93218809D01*
X150990476Y-93123571D01*
X151038095Y-93028333D01*
X151371428Y-94028333D02*
X151371428Y-94790238D01*
X150752380Y-95171190D02*
X150752380Y-95790238D01*
X151133333Y-95456904D01*
X151133333Y-95599761D01*
X151180952Y-95695000D01*
X151228571Y-95742619D01*
X151323809Y-95790238D01*
X151561904Y-95790238D01*
X151657142Y-95742619D01*
X151704761Y-95695000D01*
X151752380Y-95599761D01*
X151752380Y-95314047D01*
X151704761Y-95218809D01*
X151657142Y-95171190D01*
X150752380Y-96647380D02*
X150752380Y-96456904D01*
X150800000Y-96361666D01*
X150847619Y-96314047D01*
X150990476Y-96218809D01*
X151180952Y-96171190D01*
X151561904Y-96171190D01*
X151657142Y-96218809D01*
X151704761Y-96266428D01*
X151752380Y-96361666D01*
X151752380Y-96552142D01*
X151704761Y-96647380D01*
X151657142Y-96695000D01*
X151561904Y-96742619D01*
X151323809Y-96742619D01*
X151228571Y-96695000D01*
X151180952Y-96647380D01*
X151133333Y-96552142D01*
X151133333Y-96361666D01*
X151180952Y-96266428D01*
X151228571Y-96218809D01*
X151323809Y-96171190D01*
X150752380Y-97028333D02*
X151752380Y-97361666D01*
X150752380Y-97695000D01*
X150752380Y-98647380D02*
X151752380Y-98980714D01*
X150752380Y-99314047D01*
X151752380Y-99647380D02*
X150752380Y-99647380D01*
X151752380Y-100123571D02*
X150752380Y-100123571D01*
X151752380Y-100695000D01*
X150752380Y-100695000D01*
X150752380Y-102409285D02*
X150752380Y-101933095D01*
X151228571Y-101885476D01*
X151180952Y-101933095D01*
X151133333Y-102028333D01*
X151133333Y-102266428D01*
X151180952Y-102361666D01*
X151228571Y-102409285D01*
X151323809Y-102456904D01*
X151561904Y-102456904D01*
X151657142Y-102409285D01*
X151704761Y-102361666D01*
X151752380Y-102266428D01*
X151752380Y-102028333D01*
X151704761Y-101933095D01*
X151657142Y-101885476D01*
X150752380Y-102742619D02*
X151752380Y-103075952D01*
X150752380Y-103409285D01*
X150752380Y-104361666D02*
X151752380Y-104695000D01*
X150752380Y-105028333D01*
X150752380Y-105552142D02*
X150752380Y-105742619D01*
X150800000Y-105837857D01*
X150895238Y-105933095D01*
X151085714Y-105980714D01*
X151419047Y-105980714D01*
X151609523Y-105933095D01*
X151704761Y-105837857D01*
X151752380Y-105742619D01*
X151752380Y-105552142D01*
X151704761Y-105456904D01*
X151609523Y-105361666D01*
X151419047Y-105314047D01*
X151085714Y-105314047D01*
X150895238Y-105361666D01*
X150800000Y-105456904D01*
X150752380Y-105552142D01*
X150752380Y-106409285D02*
X151561904Y-106409285D01*
X151657142Y-106456904D01*
X151704761Y-106504523D01*
X151752380Y-106599761D01*
X151752380Y-106790238D01*
X151704761Y-106885476D01*
X151657142Y-106933095D01*
X151561904Y-106980714D01*
X150752380Y-106980714D01*
X150752380Y-107314047D02*
X150752380Y-107885476D01*
X151752380Y-107599761D02*
X150752380Y-107599761D01*
X156932380Y-83913452D02*
X157932380Y-84246785D01*
X156932380Y-84580119D01*
X156932380Y-85103928D02*
X156932380Y-85294404D01*
X156980000Y-85389642D01*
X157075238Y-85484880D01*
X157265714Y-85532500D01*
X157599047Y-85532500D01*
X157789523Y-85484880D01*
X157884761Y-85389642D01*
X157932380Y-85294404D01*
X157932380Y-85103928D01*
X157884761Y-85008690D01*
X157789523Y-84913452D01*
X157599047Y-84865833D01*
X157265714Y-84865833D01*
X157075238Y-84913452D01*
X156980000Y-85008690D01*
X156932380Y-85103928D01*
X156932380Y-85961071D02*
X157741904Y-85961071D01*
X157837142Y-86008690D01*
X157884761Y-86056309D01*
X157932380Y-86151547D01*
X157932380Y-86342023D01*
X157884761Y-86437261D01*
X157837142Y-86484880D01*
X157741904Y-86532500D01*
X156932380Y-86532500D01*
X156932380Y-86865833D02*
X156932380Y-87437261D01*
X157932380Y-87151547D02*
X156932380Y-87151547D01*
X154440000Y-85246785D02*
X154392380Y-85151547D01*
X154392380Y-85008690D01*
X154440000Y-84865833D01*
X154535238Y-84770595D01*
X154630476Y-84722976D01*
X154820952Y-84675357D01*
X154963809Y-84675357D01*
X155154285Y-84722976D01*
X155249523Y-84770595D01*
X155344761Y-84865833D01*
X155392380Y-85008690D01*
X155392380Y-85103928D01*
X155344761Y-85246785D01*
X155297142Y-85294404D01*
X154963809Y-85294404D01*
X154963809Y-85103928D01*
X155392380Y-85722976D02*
X154392380Y-85722976D01*
X155392380Y-86294404D01*
X154392380Y-86294404D01*
X155392380Y-86770595D02*
X154392380Y-86770595D01*
X154392380Y-87008690D01*
X154440000Y-87151547D01*
X154535238Y-87246785D01*
X154630476Y-87294404D01*
X154820952Y-87342023D01*
X154963809Y-87342023D01*
X155154285Y-87294404D01*
X155249523Y-87246785D01*
X155344761Y-87151547D01*
X155392380Y-87008690D01*
X155392380Y-86770595D01*
X151852380Y-85246785D02*
X152852380Y-85580119D01*
X151852380Y-85913452D01*
X152852380Y-86246785D02*
X151852380Y-86246785D01*
X152852380Y-86722976D02*
X151852380Y-86722976D01*
X152852380Y-87294404D01*
X151852380Y-87294404D01*
X149030000Y-83484880D02*
X149030000Y-84437261D01*
X150264761Y-83675357D02*
X150312380Y-83818214D01*
X150312380Y-84056309D01*
X150264761Y-84151547D01*
X150217142Y-84199166D01*
X150121904Y-84246785D01*
X150026666Y-84246785D01*
X149931428Y-84199166D01*
X149883809Y-84151547D01*
X149836190Y-84056309D01*
X149788571Y-83865833D01*
X149740952Y-83770595D01*
X149693333Y-83722976D01*
X149598095Y-83675357D01*
X149502857Y-83675357D01*
X149407619Y-83722976D01*
X149360000Y-83770595D01*
X149312380Y-83865833D01*
X149312380Y-84103928D01*
X149360000Y-84246785D01*
X149030000Y-84437261D02*
X149030000Y-85484880D01*
X150312380Y-84675357D02*
X149312380Y-84675357D01*
X149788571Y-84675357D02*
X149788571Y-85246785D01*
X150312380Y-85246785D02*
X149312380Y-85246785D01*
X149030000Y-85484880D02*
X149030000Y-86484880D01*
X150312380Y-85722976D02*
X149312380Y-85722976D01*
X149312380Y-85961071D01*
X149360000Y-86103928D01*
X149455238Y-86199166D01*
X149550476Y-86246785D01*
X149740952Y-86294404D01*
X149883809Y-86294404D01*
X150074285Y-86246785D01*
X150169523Y-86199166D01*
X150264761Y-86103928D01*
X150312380Y-85961071D01*
X150312380Y-85722976D01*
X149030000Y-86484880D02*
X149030000Y-87532500D01*
X150312380Y-86722976D02*
X149312380Y-86722976D01*
X150312380Y-87294404D01*
X149312380Y-87294404D01*
M02*
