%TF.GenerationSoftware,KiCad,Pcbnew,(6.0.5-0)*%
%TF.CreationDate,2022-10-30T22:36:45-07:00*%
%TF.ProjectId,teensy-lc-reg-adpt,7465656e-7379-42d6-9c63-2d7265672d61,rev?*%
%TF.SameCoordinates,PX8a12ae0PY695f190*%
%TF.FileFunction,Legend,Top*%
%TF.FilePolarity,Positive*%
%FSLAX46Y46*%
G04 Gerber Fmt 4.6, Leading zero omitted, Abs format (unit mm)*
G04 Created by KiCad (PCBNEW (6.0.5-0)) date 2022-10-30 22:36:45*
%MOMM*%
%LPD*%
G01*
G04 APERTURE LIST*
%ADD10C,0.150000*%
%ADD11C,0.120000*%
G04 APERTURE END LIST*
D10*
X5910000Y27005120D02*
X5910000Y26052739D01*
X4675238Y26814643D02*
X4627619Y26671786D01*
X4627619Y26433691D01*
X4675238Y26338453D01*
X4722857Y26290834D01*
X4818095Y26243215D01*
X4913333Y26243215D01*
X5008571Y26290834D01*
X5056190Y26338453D01*
X5103809Y26433691D01*
X5151428Y26624167D01*
X5199047Y26719405D01*
X5246666Y26767024D01*
X5341904Y26814643D01*
X5437142Y26814643D01*
X5532380Y26767024D01*
X5580000Y26719405D01*
X5627619Y26624167D01*
X5627619Y26386072D01*
X5580000Y26243215D01*
X5910000Y26052739D02*
X5910000Y25005120D01*
X4627619Y25814643D02*
X5627619Y25814643D01*
X5151428Y25814643D02*
X5151428Y25243215D01*
X4627619Y25243215D02*
X5627619Y25243215D01*
X5910000Y25005120D02*
X5910000Y24005120D01*
X4627619Y24767024D02*
X5627619Y24767024D01*
X5627619Y24528929D01*
X5580000Y24386072D01*
X5484761Y24290834D01*
X5389523Y24243215D01*
X5199047Y24195596D01*
X5056190Y24195596D01*
X4865714Y24243215D01*
X4770476Y24290834D01*
X4675238Y24386072D01*
X4627619Y24528929D01*
X4627619Y24767024D01*
X5910000Y24005120D02*
X5910000Y22957500D01*
X4627619Y23767024D02*
X5627619Y23767024D01*
X4627619Y23195596D01*
X5627619Y23195596D01*
X8167619Y25243215D02*
X7167619Y24909881D01*
X8167619Y24576548D01*
X7167619Y24243215D02*
X8167619Y24243215D01*
X7167619Y23767024D02*
X8167619Y23767024D01*
X7167619Y23195596D01*
X8167619Y23195596D01*
X10690000Y25303215D02*
X10737619Y25398453D01*
X10737619Y25541310D01*
X10690000Y25684167D01*
X10594761Y25779405D01*
X10499523Y25827024D01*
X10309047Y25874643D01*
X10166190Y25874643D01*
X9975714Y25827024D01*
X9880476Y25779405D01*
X9785238Y25684167D01*
X9737619Y25541310D01*
X9737619Y25446072D01*
X9785238Y25303215D01*
X9832857Y25255596D01*
X10166190Y25255596D01*
X10166190Y25446072D01*
X9737619Y24827024D02*
X10737619Y24827024D01*
X9737619Y24255596D01*
X10737619Y24255596D01*
X9737619Y23779405D02*
X10737619Y23779405D01*
X10737619Y23541310D01*
X10690000Y23398453D01*
X10594761Y23303215D01*
X10499523Y23255596D01*
X10309047Y23207977D01*
X10166190Y23207977D01*
X9975714Y23255596D01*
X9880476Y23303215D01*
X9785238Y23398453D01*
X9737619Y23541310D01*
X9737619Y23779405D01*
X13247619Y26636548D02*
X12247619Y26303215D01*
X13247619Y25969881D01*
X13247619Y25446072D02*
X13247619Y25255596D01*
X13200000Y25160358D01*
X13104761Y25065120D01*
X12914285Y25017500D01*
X12580952Y25017500D01*
X12390476Y25065120D01*
X12295238Y25160358D01*
X12247619Y25255596D01*
X12247619Y25446072D01*
X12295238Y25541310D01*
X12390476Y25636548D01*
X12580952Y25684167D01*
X12914285Y25684167D01*
X13104761Y25636548D01*
X13200000Y25541310D01*
X13247619Y25446072D01*
X13247619Y24588929D02*
X12438095Y24588929D01*
X12342857Y24541310D01*
X12295238Y24493691D01*
X12247619Y24398453D01*
X12247619Y24207977D01*
X12295238Y24112739D01*
X12342857Y24065120D01*
X12438095Y24017500D01*
X13247619Y24017500D01*
X13247619Y23684167D02*
X13247619Y23112739D01*
X12247619Y23398453D02*
X13247619Y23398453D01*
X8802619Y18240239D02*
X7802619Y17906905D01*
X8802619Y17573572D01*
X7802619Y17240239D02*
X8802619Y17240239D01*
X7802619Y16764048D02*
X8802619Y16764048D01*
X7802619Y16192620D01*
X8802619Y16192620D01*
X5580000Y7746905D02*
X5627619Y7842143D01*
X5627619Y7985000D01*
X5580000Y8127858D01*
X5484761Y8223096D01*
X5389523Y8270715D01*
X5199047Y8318334D01*
X5056190Y8318334D01*
X4865714Y8270715D01*
X4770476Y8223096D01*
X4675238Y8127858D01*
X4627619Y7985000D01*
X4627619Y7889762D01*
X4675238Y7746905D01*
X4722857Y7699286D01*
X5056190Y7699286D01*
X5056190Y7889762D01*
X4627619Y7270715D02*
X5627619Y7270715D01*
X4627619Y6699286D01*
X5627619Y6699286D01*
X4627619Y6223096D02*
X5627619Y6223096D01*
X5627619Y5985000D01*
X5580000Y5842143D01*
X5484761Y5746905D01*
X5389523Y5699286D01*
X5199047Y5651667D01*
X5056190Y5651667D01*
X4865714Y5699286D01*
X4770476Y5746905D01*
X4675238Y5842143D01*
X4627619Y5985000D01*
X4627619Y6223096D01*
X11977619Y17191667D02*
X11977619Y16620239D01*
X10977619Y16905953D02*
X11977619Y16905953D01*
X11025238Y15905953D02*
X10977619Y16001191D01*
X10977619Y16191667D01*
X11025238Y16286905D01*
X11120476Y16334524D01*
X11501428Y16334524D01*
X11596666Y16286905D01*
X11644285Y16191667D01*
X11644285Y16001191D01*
X11596666Y15905953D01*
X11501428Y15858334D01*
X11406190Y15858334D01*
X11310952Y16334524D01*
X11025238Y15048810D02*
X10977619Y15144048D01*
X10977619Y15334524D01*
X11025238Y15429762D01*
X11120476Y15477381D01*
X11501428Y15477381D01*
X11596666Y15429762D01*
X11644285Y15334524D01*
X11644285Y15144048D01*
X11596666Y15048810D01*
X11501428Y15001191D01*
X11406190Y15001191D01*
X11310952Y15477381D01*
X11644285Y14572620D02*
X10977619Y14572620D01*
X11549047Y14572620D02*
X11596666Y14525000D01*
X11644285Y14429762D01*
X11644285Y14286905D01*
X11596666Y14191667D01*
X11501428Y14144048D01*
X10977619Y14144048D01*
X11025238Y13715477D02*
X10977619Y13620239D01*
X10977619Y13429762D01*
X11025238Y13334524D01*
X11120476Y13286905D01*
X11168095Y13286905D01*
X11263333Y13334524D01*
X11310952Y13429762D01*
X11310952Y13572620D01*
X11358571Y13667858D01*
X11453809Y13715477D01*
X11501428Y13715477D01*
X11596666Y13667858D01*
X11644285Y13572620D01*
X11644285Y13429762D01*
X11596666Y13334524D01*
X11644285Y12953572D02*
X10977619Y12715477D01*
X11644285Y12477381D02*
X10977619Y12715477D01*
X10739523Y12810715D01*
X10691904Y12858334D01*
X10644285Y12953572D01*
X11358571Y12096429D02*
X11358571Y11334524D01*
X10977619Y10382143D02*
X10977619Y10858334D01*
X11977619Y10858334D01*
X11072857Y9477381D02*
X11025238Y9525000D01*
X10977619Y9667858D01*
X10977619Y9763096D01*
X11025238Y9905953D01*
X11120476Y10001191D01*
X11215714Y10048810D01*
X11406190Y10096429D01*
X11549047Y10096429D01*
X11739523Y10048810D01*
X11834761Y10001191D01*
X11930000Y9905953D01*
X11977619Y9763096D01*
X11977619Y9667858D01*
X11930000Y9525000D01*
X11882380Y9477381D01*
X10977619Y7715477D02*
X11453809Y8048810D01*
X10977619Y8286905D02*
X11977619Y8286905D01*
X11977619Y7905953D01*
X11930000Y7810715D01*
X11882380Y7763096D01*
X11787142Y7715477D01*
X11644285Y7715477D01*
X11549047Y7763096D01*
X11501428Y7810715D01*
X11453809Y7905953D01*
X11453809Y8286905D01*
X11025238Y6905953D02*
X10977619Y7001191D01*
X10977619Y7191667D01*
X11025238Y7286905D01*
X11120476Y7334524D01*
X11501428Y7334524D01*
X11596666Y7286905D01*
X11644285Y7191667D01*
X11644285Y7001191D01*
X11596666Y6905953D01*
X11501428Y6858334D01*
X11406190Y6858334D01*
X11310952Y7334524D01*
X11644285Y6001191D02*
X10834761Y6001191D01*
X10739523Y6048810D01*
X10691904Y6096429D01*
X10644285Y6191667D01*
X10644285Y6334524D01*
X10691904Y6429762D01*
X11025238Y6001191D02*
X10977619Y6096429D01*
X10977619Y6286905D01*
X11025238Y6382143D01*
X11072857Y6429762D01*
X11168095Y6477381D01*
X11453809Y6477381D01*
X11549047Y6429762D01*
X11596666Y6382143D01*
X11644285Y6286905D01*
X11644285Y6096429D01*
X11596666Y6001191D01*
X11263333Y4810715D02*
X11263333Y4334524D01*
X10977619Y4905953D02*
X11977619Y4572620D01*
X10977619Y4239286D01*
X10977619Y3477381D02*
X11977619Y3477381D01*
X11025238Y3477381D02*
X10977619Y3572620D01*
X10977619Y3763096D01*
X11025238Y3858334D01*
X11072857Y3905953D01*
X11168095Y3953572D01*
X11453809Y3953572D01*
X11549047Y3905953D01*
X11596666Y3858334D01*
X11644285Y3763096D01*
X11644285Y3572620D01*
X11596666Y3477381D01*
X11644285Y3001191D02*
X10644285Y3001191D01*
X11596666Y3001191D02*
X11644285Y2905953D01*
X11644285Y2715477D01*
X11596666Y2620239D01*
X11549047Y2572620D01*
X11453809Y2525001D01*
X11168095Y2525001D01*
X11072857Y2572620D01*
X11025238Y2620239D01*
X10977619Y2715477D01*
X10977619Y2905953D01*
X11025238Y3001191D01*
X11644285Y2239286D02*
X11644285Y1858334D01*
X11977619Y2096429D02*
X11120476Y2096429D01*
X11025238Y2048810D01*
X10977619Y1953572D01*
X10977619Y1858334D01*
%TO.C,REF\u002A\u002A*%
X6420000Y4640000D02*
X8820000Y4640000D01*
X6420000Y440000D02*
X6420000Y4640000D01*
X8820000Y4640000D02*
X8820000Y440000D01*
X8820000Y440000D02*
X6420000Y440000D01*
X6420000Y8450000D02*
X8820000Y8450000D01*
X6420000Y4250000D02*
X6420000Y8450000D01*
X8820000Y8450000D02*
X8820000Y4250000D01*
X8820000Y4250000D02*
X6420000Y4250000D01*
X4515000Y14800000D02*
X6915000Y14800000D01*
X4515000Y10600000D02*
X4515000Y14800000D01*
X6915000Y14800000D02*
X6915000Y10600000D01*
X6915000Y10600000D02*
X4515000Y10600000D01*
X4515000Y18610000D02*
X6915000Y18610000D01*
X4515000Y14410000D02*
X4515000Y18610000D01*
X6915000Y18610000D02*
X6915000Y14410000D01*
X6915000Y14410000D02*
X4515000Y14410000D01*
D11*
X2480000Y2600000D02*
X3810000Y2600000D01*
X2480000Y0D02*
X5140000Y0D01*
X2480000Y-60000D02*
X5140000Y-60000D01*
X5140000Y0D02*
X5140000Y-60000D01*
X2480000Y0D02*
X2480000Y-60000D01*
X2480000Y1270000D02*
X2480000Y2600000D01*
X12640000Y3810000D02*
X12640000Y5140000D01*
X12640000Y-60000D02*
X15300000Y-60000D01*
X12640000Y2540000D02*
X12640000Y-60000D01*
X12640000Y2540000D02*
X15300000Y2540000D01*
X12640000Y5140000D02*
X13970000Y5140000D01*
X15300000Y2540000D02*
X15300000Y-60000D01*
X6350000Y22920000D02*
X14030000Y22920000D01*
X5080000Y20260000D02*
X3750000Y20260000D01*
X14030000Y20260000D02*
X14030000Y22920000D01*
X6350000Y20260000D02*
X6350000Y22920000D01*
X3750000Y20260000D02*
X3750000Y21590000D01*
X6350000Y20260000D02*
X14030000Y20260000D01*
%TD*%
M02*
