%TF.GenerationSoftware,KiCad,Pcbnew,(6.0.5-0)*%
%TF.CreationDate,2022-11-19T14:20:50-08:00*%
%TF.ProjectId,teensy-lc-reg-adpt,7465656e-7379-42d6-9c63-2d7265672d61,rev?*%
%TF.SameCoordinates,PX8a12ae0PY695f190*%
%TF.FileFunction,Copper,L2,Bot*%
%TF.FilePolarity,Positive*%
%FSLAX46Y46*%
G04 Gerber Fmt 4.6, Leading zero omitted, Abs format (unit mm)*
G04 Created by KiCad (PCBNEW (6.0.5-0)) date 2022-11-19 14:20:50*
%MOMM*%
%LPD*%
G01*
G04 APERTURE LIST*
%ADD10C,0.152400*%
%TA.AperFunction,NonConductor*%
%ADD11C,0.152400*%
%TD*%
%TA.AperFunction,ComponentPad*%
%ADD12R,1.700000X1.700000*%
%TD*%
%TA.AperFunction,ComponentPad*%
%ADD13O,1.700000X1.700000*%
%TD*%
%TA.AperFunction,ViaPad*%
%ADD14C,0.800000*%
%TD*%
%TA.AperFunction,Conductor*%
%ADD15C,0.203200*%
%TD*%
G04 APERTURE END LIST*
D10*
D11*
X11247380Y18326858D02*
X10771190Y18660191D01*
X11247380Y18898286D02*
X10247380Y18898286D01*
X10247380Y18517334D01*
X10295000Y18422096D01*
X10342619Y18374477D01*
X10437857Y18326858D01*
X10580714Y18326858D01*
X10675952Y18374477D01*
X10723571Y18422096D01*
X10771190Y18517334D01*
X10771190Y18898286D01*
X10342619Y17945905D02*
X10295000Y17898286D01*
X10247380Y17803048D01*
X10247380Y17564953D01*
X10295000Y17469715D01*
X10342619Y17422096D01*
X10437857Y17374477D01*
X10533095Y17374477D01*
X10675952Y17422096D01*
X11247380Y17993524D01*
X11247380Y17374477D01*
X10485476Y15374477D02*
X10437857Y15469715D01*
X10437857Y15660191D01*
X10485476Y15755429D01*
X10580714Y15850667D01*
X10675952Y15898286D01*
X10866428Y15898286D01*
X10961666Y15850667D01*
X11056904Y15755429D01*
X11104523Y15660191D01*
X11104523Y15469715D01*
X11056904Y15374477D01*
X10104523Y15564953D02*
X10152142Y15803048D01*
X10295000Y16041143D01*
X10533095Y16184000D01*
X10771190Y16231620D01*
X11009285Y16184000D01*
X11247380Y16041143D01*
X11390238Y15803048D01*
X11437857Y15564953D01*
X11390238Y15326858D01*
X11247380Y15088762D01*
X11009285Y14945905D01*
X10771190Y14898286D01*
X10533095Y14945905D01*
X10295000Y15088762D01*
X10152142Y15326858D01*
X10104523Y15564953D01*
X10342619Y14517334D02*
X10295000Y14469715D01*
X10247380Y14374477D01*
X10247380Y14136381D01*
X10295000Y14041143D01*
X10342619Y13993524D01*
X10437857Y13945905D01*
X10533095Y13945905D01*
X10675952Y13993524D01*
X11247380Y14564953D01*
X11247380Y13945905D01*
X10247380Y13326858D02*
X10247380Y13231620D01*
X10295000Y13136381D01*
X10342619Y13088762D01*
X10437857Y13041143D01*
X10628333Y12993524D01*
X10866428Y12993524D01*
X11056904Y13041143D01*
X11152142Y13088762D01*
X11199761Y13136381D01*
X11247380Y13231620D01*
X11247380Y13326858D01*
X11199761Y13422096D01*
X11152142Y13469715D01*
X11056904Y13517334D01*
X10866428Y13564953D01*
X10628333Y13564953D01*
X10437857Y13517334D01*
X10342619Y13469715D01*
X10295000Y13422096D01*
X10247380Y13326858D01*
X10342619Y12612572D02*
X10295000Y12564953D01*
X10247380Y12469715D01*
X10247380Y12231620D01*
X10295000Y12136381D01*
X10342619Y12088762D01*
X10437857Y12041143D01*
X10533095Y12041143D01*
X10675952Y12088762D01*
X11247380Y12660191D01*
X11247380Y12041143D01*
X10342619Y11660191D02*
X10295000Y11612572D01*
X10247380Y11517334D01*
X10247380Y11279239D01*
X10295000Y11184000D01*
X10342619Y11136381D01*
X10437857Y11088762D01*
X10533095Y11088762D01*
X10675952Y11136381D01*
X11247380Y11707810D01*
X11247380Y11088762D01*
X11247380Y9898286D02*
X10580714Y9898286D01*
X10247380Y9898286D02*
X10295000Y9945905D01*
X10342619Y9898286D01*
X10295000Y9850667D01*
X10247380Y9898286D01*
X10342619Y9898286D01*
X11247380Y9422096D02*
X10247380Y9422096D01*
X11247380Y8993524D02*
X10723571Y8993524D01*
X10628333Y9041143D01*
X10580714Y9136381D01*
X10580714Y9279239D01*
X10628333Y9374477D01*
X10675952Y9422096D01*
X11247380Y8088762D02*
X10723571Y8088762D01*
X10628333Y8136381D01*
X10580714Y8231620D01*
X10580714Y8422096D01*
X10628333Y8517334D01*
X11199761Y8088762D02*
X11247380Y8184000D01*
X11247380Y8422096D01*
X11199761Y8517334D01*
X11104523Y8564953D01*
X11009285Y8564953D01*
X10914047Y8517334D01*
X10866428Y8422096D01*
X10866428Y8184000D01*
X10818809Y8088762D01*
X11247380Y7612572D02*
X10580714Y7612572D01*
X10771190Y7612572D02*
X10675952Y7564953D01*
X10628333Y7517334D01*
X10580714Y7422096D01*
X10580714Y7326858D01*
X10580714Y7136381D02*
X10580714Y6755429D01*
X10247380Y6993524D02*
X11104523Y6993524D01*
X11199761Y6945905D01*
X11247380Y6850667D01*
X11247380Y6755429D01*
X10580714Y6517334D02*
X11247380Y6326858D01*
X10771190Y6136381D01*
X11247380Y5945905D01*
X10580714Y5755429D01*
X11247380Y5374477D02*
X10580714Y5374477D01*
X10247380Y5374477D02*
X10295000Y5422096D01*
X10342619Y5374477D01*
X10295000Y5326858D01*
X10247380Y5374477D01*
X10342619Y5374477D01*
X10580714Y4469715D02*
X11390238Y4469715D01*
X11485476Y4517334D01*
X11533095Y4564953D01*
X11580714Y4660191D01*
X11580714Y4803048D01*
X11533095Y4898286D01*
X11199761Y4469715D02*
X11247380Y4564953D01*
X11247380Y4755429D01*
X11199761Y4850667D01*
X11152142Y4898286D01*
X11056904Y4945905D01*
X10771190Y4945905D01*
X10675952Y4898286D01*
X10628333Y4850667D01*
X10580714Y4755429D01*
X10580714Y4564953D01*
X10628333Y4469715D01*
D12*
%TO.P,J4,1,Pin_1*%
%TO.N,/P12V_SENSE*%
X16510000Y21590000D03*
%TD*%
%TO.P,J2,1,Pin_1*%
%TO.N,unconnected-(J2-Pad1)*%
X5080000Y21590000D03*
D13*
%TO.P,J2,2,Pin_2*%
%TO.N,+12V*%
X7620000Y21590000D03*
%TO.P,J2,3,Pin_3*%
%TO.N,GND*%
X10160000Y21590000D03*
%TO.P,J2,4,Pin_4*%
%TO.N,+5V*%
X12700000Y21590000D03*
%TD*%
D12*
%TO.P,J3,1,Pin_1*%
%TO.N,/VBUS*%
X13970000Y3810000D03*
D13*
%TO.P,J3,2,Pin_2*%
X13970000Y1270000D03*
%TD*%
D12*
%TO.P,J1,1,Pin_1*%
%TO.N,GND*%
X3810000Y1270000D03*
%TD*%
D14*
%TO.N,GND*%
X13716000Y26416000D03*
%TD*%
D15*
%TO.N,GND*%
X11557000Y22987000D02*
X11557000Y25654000D01*
X13716000Y26416000D02*
X12319000Y26416000D01*
X12319000Y26416000D02*
X11557000Y25654000D01*
X10160000Y21590000D02*
X11557000Y22987000D01*
%TD*%
M02*
