%TF.GenerationSoftware,KiCad,Pcbnew,(6.0.5-0)*%
%TF.CreationDate,2022-10-30T22:36:45-07:00*%
%TF.ProjectId,teensy-lc-reg-adpt,7465656e-7379-42d6-9c63-2d7265672d61,rev?*%
%TF.SameCoordinates,PX8a12ae0PY695f190*%
%TF.FileFunction,Copper,L1,Top*%
%TF.FilePolarity,Positive*%
%FSLAX46Y46*%
G04 Gerber Fmt 4.6, Leading zero omitted, Abs format (unit mm)*
G04 Created by KiCad (PCBNEW (6.0.5-0)) date 2022-10-30 22:36:45*
%MOMM*%
%LPD*%
G01*
G04 APERTURE LIST*
%TA.AperFunction,SMDPad,CuDef*%
%ADD10R,2.000000X3.800000*%
%TD*%
%TA.AperFunction,ComponentPad*%
%ADD11R,1.700000X1.700000*%
%TD*%
%TA.AperFunction,ComponentPad*%
%ADD12O,1.700000X1.700000*%
%TD*%
%TA.AperFunction,Conductor*%
%ADD13C,1.700000*%
%TD*%
%TA.AperFunction,Conductor*%
%ADD14C,2.000000*%
%TD*%
G04 APERTURE END LIST*
D10*
%TO.P,REF\u002A\u002A,1*%
%TO.N,N/C*%
X7620000Y2540000D03*
%TD*%
%TO.P,REF\u002A\u002A,1*%
%TO.N,N/C*%
X7620000Y6350000D03*
%TD*%
%TO.P,REF\u002A\u002A,1*%
%TO.N,N/C*%
X5715000Y12700000D03*
%TD*%
%TO.P,REF\u002A\u002A,1*%
%TO.N,N/C*%
X5715000Y16510000D03*
%TD*%
D11*
%TO.P,REF\u002A\u002A,1*%
%TO.N,N/C*%
X3810000Y1270000D03*
%TD*%
%TO.P,REF\u002A\u002A,1*%
%TO.N,N/C*%
X13970000Y3810000D03*
D12*
%TO.P,REF\u002A\u002A,2*%
X13970000Y1270000D03*
%TD*%
D11*
%TO.P,REF\u002A\u002A,1*%
%TO.N,N/C*%
X5080000Y21590000D03*
D12*
%TO.P,REF\u002A\u002A,2*%
X7620000Y21590000D03*
%TO.P,REF\u002A\u002A,3*%
X10160000Y21590000D03*
%TO.P,REF\u002A\u002A,4*%
X12700000Y21590000D03*
%TD*%
D13*
%TO.N,*%
X8890000Y17780000D02*
X8890000Y9525000D01*
X8890000Y9525000D02*
X8890000Y7620000D01*
X8890000Y9525000D02*
X7620000Y8255000D01*
X5715000Y10160000D02*
X5715000Y12700000D01*
X11430000Y5080000D02*
X11430000Y2540000D01*
X11430000Y2540000D02*
X12700000Y1270000D01*
X12700000Y3810000D02*
X12700000Y1270000D01*
X12700000Y1270000D02*
X13119980Y1270000D01*
X11430000Y5080000D02*
X12700000Y3810000D01*
X12700000Y3810000D02*
X13119980Y3810000D01*
D14*
X6350000Y1270000D02*
X5080000Y1270000D01*
X7620000Y2540000D02*
X6350000Y1270000D01*
X5715000Y12700000D02*
X5715000Y17780000D01*
D13*
X5715000Y17780000D02*
X7620000Y19685000D01*
X7620000Y19685000D02*
X7620000Y21590000D01*
D14*
X7620000Y6350000D02*
X7620000Y2540000D01*
D13*
X10160000Y21590000D02*
X10160000Y19050000D01*
X10160000Y19050000D02*
X8890000Y17780000D01*
X8890000Y7620000D02*
X7620000Y6350000D01*
X12700000Y21590000D02*
X12700000Y18415000D01*
X12700000Y18415000D02*
X11430000Y17145000D01*
X11430000Y17145000D02*
X11430000Y5080000D01*
%TD*%
M02*
