%TF.GenerationSoftware,KiCad,Pcbnew,(6.0.5-0)*%
%TF.CreationDate,2022-10-30T22:36:45-07:00*%
%TF.ProjectId,teensy-lc-reg-adpt,7465656e-7379-42d6-9c63-2d7265672d61,rev?*%
%TF.SameCoordinates,PX8a12ae0PY695f190*%
%TF.FileFunction,Legend,Bot*%
%TF.FilePolarity,Positive*%
%FSLAX46Y46*%
G04 Gerber Fmt 4.6, Leading zero omitted, Abs format (unit mm)*
G04 Created by KiCad (PCBNEW (6.0.5-0)) date 2022-10-30 22:36:45*
%MOMM*%
%LPD*%
G01*
G04 APERTURE LIST*
%ADD10C,0.150000*%
G04 APERTURE END LIST*
D10*
X4695714Y18985477D02*
X5362380Y18795000D01*
X4886190Y18604524D01*
X5362380Y18414048D01*
X4695714Y18223572D01*
X4314761Y17128334D02*
X5600476Y17985477D01*
X5362380Y16033096D02*
X4362380Y16033096D01*
X4362380Y15795000D01*
X4410000Y15652143D01*
X4505238Y15556905D01*
X4600476Y15509286D01*
X4790952Y15461667D01*
X4933809Y15461667D01*
X5124285Y15509286D01*
X5219523Y15556905D01*
X5314761Y15652143D01*
X5362380Y15795000D01*
X5362380Y16033096D01*
X4457619Y15080715D02*
X4410000Y15033096D01*
X4362380Y14937858D01*
X4362380Y14699762D01*
X4410000Y14604524D01*
X4457619Y14556905D01*
X4552857Y14509286D01*
X4648095Y14509286D01*
X4790952Y14556905D01*
X5362380Y15128334D01*
X5362380Y14509286D01*
X4695714Y13652143D02*
X5362380Y13652143D01*
X4314761Y13890239D02*
X5029047Y14128334D01*
X5029047Y13509286D01*
X4362380Y13271191D02*
X5362380Y12937858D01*
X4362380Y12604524D01*
X4362380Y11795000D02*
X4362380Y12271191D01*
X4838571Y12318810D01*
X4790952Y12271191D01*
X4743333Y12175953D01*
X4743333Y11937858D01*
X4790952Y11842620D01*
X4838571Y11795000D01*
X4933809Y11747381D01*
X5171904Y11747381D01*
X5267142Y11795000D01*
X5314761Y11842620D01*
X5362380Y11937858D01*
X5362380Y12175953D01*
X5314761Y12271191D01*
X5267142Y12318810D01*
X4838571Y10985477D02*
X4838571Y11318810D01*
X5362380Y11318810D02*
X4362380Y11318810D01*
X4362380Y10842620D01*
X4362380Y9985477D02*
X4362380Y10461667D01*
X4838571Y10509286D01*
X4790952Y10461667D01*
X4743333Y10366429D01*
X4743333Y10128334D01*
X4790952Y10033096D01*
X4838571Y9985477D01*
X4933809Y9937858D01*
X5171904Y9937858D01*
X5267142Y9985477D01*
X5314761Y10033096D01*
X5362380Y10128334D01*
X5362380Y10366429D01*
X5314761Y10461667D01*
X5267142Y10509286D01*
X5743333Y8461667D02*
X5695714Y8509286D01*
X5552857Y8604524D01*
X5457619Y8652143D01*
X5314761Y8699762D01*
X5076666Y8747381D01*
X4886190Y8747381D01*
X4648095Y8699762D01*
X4505238Y8652143D01*
X4410000Y8604524D01*
X4267142Y8509286D01*
X4219523Y8461667D01*
X5362380Y8080715D02*
X4695714Y8080715D01*
X4886190Y8080715D02*
X4790952Y8033096D01*
X4743333Y7985477D01*
X4695714Y7890239D01*
X4695714Y7795000D01*
X5314761Y7080715D02*
X5362380Y7175953D01*
X5362380Y7366429D01*
X5314761Y7461667D01*
X5219523Y7509286D01*
X4838571Y7509286D01*
X4743333Y7461667D01*
X4695714Y7366429D01*
X4695714Y7175953D01*
X4743333Y7080715D01*
X4838571Y7033096D01*
X4933809Y7033096D01*
X5029047Y7509286D01*
X4695714Y6175953D02*
X5505238Y6175953D01*
X5600476Y6223572D01*
X5648095Y6271191D01*
X5695714Y6366429D01*
X5695714Y6509286D01*
X5648095Y6604524D01*
X5314761Y6175953D02*
X5362380Y6271191D01*
X5362380Y6461667D01*
X5314761Y6556905D01*
X5267142Y6604524D01*
X5171904Y6652143D01*
X4886190Y6652143D01*
X4790952Y6604524D01*
X4743333Y6556905D01*
X4695714Y6461667D01*
X4695714Y6271191D01*
X4743333Y6175953D01*
X5362380Y5175953D02*
X5362380Y5747381D01*
X5362380Y5461667D02*
X4362380Y5461667D01*
X4505238Y5556905D01*
X4600476Y5652143D01*
X4648095Y5747381D01*
X4362380Y4318810D02*
X4362380Y4509286D01*
X4410000Y4604524D01*
X4457619Y4652143D01*
X4600476Y4747381D01*
X4790952Y4795000D01*
X5171904Y4795000D01*
X5267142Y4747381D01*
X5314761Y4699762D01*
X5362380Y4604524D01*
X5362380Y4414048D01*
X5314761Y4318810D01*
X5267142Y4271191D01*
X5171904Y4223572D01*
X4933809Y4223572D01*
X4838571Y4271191D01*
X4790952Y4318810D01*
X4743333Y4414048D01*
X4743333Y4604524D01*
X4790952Y4699762D01*
X4838571Y4747381D01*
X4933809Y4795000D01*
X5362380Y3366429D02*
X4838571Y3366429D01*
X4743333Y3414048D01*
X4695714Y3509286D01*
X4695714Y3699762D01*
X4743333Y3795000D01*
X5314761Y3366429D02*
X5362380Y3461667D01*
X5362380Y3699762D01*
X5314761Y3795000D01*
X5219523Y3842620D01*
X5124285Y3842620D01*
X5029047Y3795000D01*
X4981428Y3699762D01*
X4981428Y3461667D01*
X4933809Y3366429D01*
X5743333Y2985477D02*
X5695714Y2937858D01*
X5552857Y2842620D01*
X5457619Y2795000D01*
X5314761Y2747381D01*
X5076666Y2699762D01*
X4886190Y2699762D01*
X4648095Y2747381D01*
X4505238Y2795000D01*
X4410000Y2842620D01*
X4267142Y2937858D01*
X4219523Y2985477D01*
X5972380Y18366429D02*
X5972380Y18842620D01*
X6448571Y18890239D01*
X6400952Y18842620D01*
X6353333Y18747381D01*
X6353333Y18509286D01*
X6400952Y18414048D01*
X6448571Y18366429D01*
X6543809Y18318810D01*
X6781904Y18318810D01*
X6877142Y18366429D01*
X6924761Y18414048D01*
X6972380Y18509286D01*
X6972380Y18747381D01*
X6924761Y18842620D01*
X6877142Y18890239D01*
X6877142Y17890239D02*
X6924761Y17842620D01*
X6972380Y17890239D01*
X6924761Y17937858D01*
X6877142Y17890239D01*
X6972380Y17890239D01*
X6972380Y16890239D02*
X6972380Y17461667D01*
X6972380Y17175953D02*
X5972380Y17175953D01*
X6115238Y17271191D01*
X6210476Y17366429D01*
X6258095Y17461667D01*
X6591428Y16461667D02*
X6591428Y15699762D01*
X5972380Y15318810D02*
X5972380Y14699762D01*
X6353333Y15033096D01*
X6353333Y14890239D01*
X6400952Y14795000D01*
X6448571Y14747381D01*
X6543809Y14699762D01*
X6781904Y14699762D01*
X6877142Y14747381D01*
X6924761Y14795000D01*
X6972380Y14890239D01*
X6972380Y15175953D01*
X6924761Y15271191D01*
X6877142Y15318810D01*
X5972380Y13842620D02*
X5972380Y14033096D01*
X6020000Y14128334D01*
X6067619Y14175953D01*
X6210476Y14271191D01*
X6400952Y14318810D01*
X6781904Y14318810D01*
X6877142Y14271191D01*
X6924761Y14223572D01*
X6972380Y14128334D01*
X6972380Y13937858D01*
X6924761Y13842620D01*
X6877142Y13795000D01*
X6781904Y13747381D01*
X6543809Y13747381D01*
X6448571Y13795000D01*
X6400952Y13842620D01*
X6353333Y13937858D01*
X6353333Y14128334D01*
X6400952Y14223572D01*
X6448571Y14271191D01*
X6543809Y14318810D01*
X5972380Y13461667D02*
X6972380Y13128334D01*
X5972380Y12795000D01*
X5972380Y11842620D02*
X6972380Y11509286D01*
X5972380Y11175953D01*
X6972380Y10842620D02*
X5972380Y10842620D01*
X6972380Y10366429D02*
X5972380Y10366429D01*
X6972380Y9795000D01*
X5972380Y9795000D01*
X5972380Y8080715D02*
X5972380Y8556905D01*
X6448571Y8604524D01*
X6400952Y8556905D01*
X6353333Y8461667D01*
X6353333Y8223572D01*
X6400952Y8128334D01*
X6448571Y8080715D01*
X6543809Y8033096D01*
X6781904Y8033096D01*
X6877142Y8080715D01*
X6924761Y8128334D01*
X6972380Y8223572D01*
X6972380Y8461667D01*
X6924761Y8556905D01*
X6877142Y8604524D01*
X5972380Y7747381D02*
X6972380Y7414048D01*
X5972380Y7080715D01*
X5972380Y6128334D02*
X6972380Y5795000D01*
X5972380Y5461667D01*
X5972380Y4937858D02*
X5972380Y4747381D01*
X6020000Y4652143D01*
X6115238Y4556905D01*
X6305714Y4509286D01*
X6639047Y4509286D01*
X6829523Y4556905D01*
X6924761Y4652143D01*
X6972380Y4747381D01*
X6972380Y4937858D01*
X6924761Y5033096D01*
X6829523Y5128334D01*
X6639047Y5175953D01*
X6305714Y5175953D01*
X6115238Y5128334D01*
X6020000Y5033096D01*
X5972380Y4937858D01*
X5972380Y4080715D02*
X6781904Y4080715D01*
X6877142Y4033096D01*
X6924761Y3985477D01*
X6972380Y3890239D01*
X6972380Y3699762D01*
X6924761Y3604524D01*
X6877142Y3556905D01*
X6781904Y3509286D01*
X5972380Y3509286D01*
X5972380Y3175953D02*
X5972380Y2604524D01*
X6972380Y2890239D02*
X5972380Y2890239D01*
X12152380Y26576548D02*
X13152380Y26243215D01*
X12152380Y25909881D01*
X12152380Y25386072D02*
X12152380Y25195596D01*
X12200000Y25100358D01*
X12295238Y25005120D01*
X12485714Y24957500D01*
X12819047Y24957500D01*
X13009523Y25005120D01*
X13104761Y25100358D01*
X13152380Y25195596D01*
X13152380Y25386072D01*
X13104761Y25481310D01*
X13009523Y25576548D01*
X12819047Y25624167D01*
X12485714Y25624167D01*
X12295238Y25576548D01*
X12200000Y25481310D01*
X12152380Y25386072D01*
X12152380Y24528929D02*
X12961904Y24528929D01*
X13057142Y24481310D01*
X13104761Y24433691D01*
X13152380Y24338453D01*
X13152380Y24147977D01*
X13104761Y24052739D01*
X13057142Y24005120D01*
X12961904Y23957500D01*
X12152380Y23957500D01*
X12152380Y23624167D02*
X12152380Y23052739D01*
X13152380Y23338453D02*
X12152380Y23338453D01*
X9660000Y25243215D02*
X9612380Y25338453D01*
X9612380Y25481310D01*
X9660000Y25624167D01*
X9755238Y25719405D01*
X9850476Y25767024D01*
X10040952Y25814643D01*
X10183809Y25814643D01*
X10374285Y25767024D01*
X10469523Y25719405D01*
X10564761Y25624167D01*
X10612380Y25481310D01*
X10612380Y25386072D01*
X10564761Y25243215D01*
X10517142Y25195596D01*
X10183809Y25195596D01*
X10183809Y25386072D01*
X10612380Y24767024D02*
X9612380Y24767024D01*
X10612380Y24195596D01*
X9612380Y24195596D01*
X10612380Y23719405D02*
X9612380Y23719405D01*
X9612380Y23481310D01*
X9660000Y23338453D01*
X9755238Y23243215D01*
X9850476Y23195596D01*
X10040952Y23147977D01*
X10183809Y23147977D01*
X10374285Y23195596D01*
X10469523Y23243215D01*
X10564761Y23338453D01*
X10612380Y23481310D01*
X10612380Y23719405D01*
X7072380Y25243215D02*
X8072380Y24909881D01*
X7072380Y24576548D01*
X8072380Y24243215D02*
X7072380Y24243215D01*
X8072380Y23767024D02*
X7072380Y23767024D01*
X8072380Y23195596D01*
X7072380Y23195596D01*
X4250000Y27005120D02*
X4250000Y26052739D01*
X5484761Y26814643D02*
X5532380Y26671786D01*
X5532380Y26433691D01*
X5484761Y26338453D01*
X5437142Y26290834D01*
X5341904Y26243215D01*
X5246666Y26243215D01*
X5151428Y26290834D01*
X5103809Y26338453D01*
X5056190Y26433691D01*
X5008571Y26624167D01*
X4960952Y26719405D01*
X4913333Y26767024D01*
X4818095Y26814643D01*
X4722857Y26814643D01*
X4627619Y26767024D01*
X4580000Y26719405D01*
X4532380Y26624167D01*
X4532380Y26386072D01*
X4580000Y26243215D01*
X4250000Y26052739D02*
X4250000Y25005120D01*
X5532380Y25814643D02*
X4532380Y25814643D01*
X5008571Y25814643D02*
X5008571Y25243215D01*
X5532380Y25243215D02*
X4532380Y25243215D01*
X4250000Y25005120D02*
X4250000Y24005120D01*
X5532380Y24767024D02*
X4532380Y24767024D01*
X4532380Y24528929D01*
X4580000Y24386072D01*
X4675238Y24290834D01*
X4770476Y24243215D01*
X4960952Y24195596D01*
X5103809Y24195596D01*
X5294285Y24243215D01*
X5389523Y24290834D01*
X5484761Y24386072D01*
X5532380Y24528929D01*
X5532380Y24767024D01*
X4250000Y24005120D02*
X4250000Y22957500D01*
X5532380Y23767024D02*
X4532380Y23767024D01*
X5532380Y23195596D01*
X4532380Y23195596D01*
M02*
