%TF.GenerationSoftware,KiCad,Pcbnew,(6.0.5-0)*%
%TF.CreationDate,2022-10-30T22:07:31-07:00*%
%TF.ProjectId,teensy-lc-reg-adpt,7465656e-7379-42d6-9c63-2d7265672d61,rev?*%
%TF.SameCoordinates,Original*%
%TF.FileFunction,Legend,Top*%
%TF.FilePolarity,Positive*%
%FSLAX46Y46*%
G04 Gerber Fmt 4.6, Leading zero omitted, Abs format (unit mm)*
G04 Created by KiCad (PCBNEW (6.0.5-0)) date 2022-10-30 22:07:31*
%MOMM*%
%LPD*%
G01*
G04 APERTURE LIST*
%ADD10C,0.150000*%
%ADD11C,0.120000*%
G04 APERTURE END LIST*
D10*
X150690000Y-83484880D02*
X150690000Y-84437261D01*
X149455238Y-83675357D02*
X149407619Y-83818214D01*
X149407619Y-84056309D01*
X149455238Y-84151547D01*
X149502857Y-84199166D01*
X149598095Y-84246785D01*
X149693333Y-84246785D01*
X149788571Y-84199166D01*
X149836190Y-84151547D01*
X149883809Y-84056309D01*
X149931428Y-83865833D01*
X149979047Y-83770595D01*
X150026666Y-83722976D01*
X150121904Y-83675357D01*
X150217142Y-83675357D01*
X150312380Y-83722976D01*
X150360000Y-83770595D01*
X150407619Y-83865833D01*
X150407619Y-84103928D01*
X150360000Y-84246785D01*
X150690000Y-84437261D02*
X150690000Y-85484880D01*
X149407619Y-84675357D02*
X150407619Y-84675357D01*
X149931428Y-84675357D02*
X149931428Y-85246785D01*
X149407619Y-85246785D02*
X150407619Y-85246785D01*
X150690000Y-85484880D02*
X150690000Y-86484880D01*
X149407619Y-85722976D02*
X150407619Y-85722976D01*
X150407619Y-85961071D01*
X150360000Y-86103928D01*
X150264761Y-86199166D01*
X150169523Y-86246785D01*
X149979047Y-86294404D01*
X149836190Y-86294404D01*
X149645714Y-86246785D01*
X149550476Y-86199166D01*
X149455238Y-86103928D01*
X149407619Y-85961071D01*
X149407619Y-85722976D01*
X150690000Y-86484880D02*
X150690000Y-87532500D01*
X149407619Y-86722976D02*
X150407619Y-86722976D01*
X149407619Y-87294404D01*
X150407619Y-87294404D01*
X152947619Y-85246785D02*
X151947619Y-85580119D01*
X152947619Y-85913452D01*
X151947619Y-86246785D02*
X152947619Y-86246785D01*
X151947619Y-86722976D02*
X152947619Y-86722976D01*
X151947619Y-87294404D01*
X152947619Y-87294404D01*
X155470000Y-85186785D02*
X155517619Y-85091547D01*
X155517619Y-84948690D01*
X155470000Y-84805833D01*
X155374761Y-84710595D01*
X155279523Y-84662976D01*
X155089047Y-84615357D01*
X154946190Y-84615357D01*
X154755714Y-84662976D01*
X154660476Y-84710595D01*
X154565238Y-84805833D01*
X154517619Y-84948690D01*
X154517619Y-85043928D01*
X154565238Y-85186785D01*
X154612857Y-85234404D01*
X154946190Y-85234404D01*
X154946190Y-85043928D01*
X154517619Y-85662976D02*
X155517619Y-85662976D01*
X154517619Y-86234404D01*
X155517619Y-86234404D01*
X154517619Y-86710595D02*
X155517619Y-86710595D01*
X155517619Y-86948690D01*
X155470000Y-87091547D01*
X155374761Y-87186785D01*
X155279523Y-87234404D01*
X155089047Y-87282023D01*
X154946190Y-87282023D01*
X154755714Y-87234404D01*
X154660476Y-87186785D01*
X154565238Y-87091547D01*
X154517619Y-86948690D01*
X154517619Y-86710595D01*
X158027619Y-83853452D02*
X157027619Y-84186785D01*
X158027619Y-84520119D01*
X158027619Y-85043928D02*
X158027619Y-85234404D01*
X157980000Y-85329642D01*
X157884761Y-85424880D01*
X157694285Y-85472500D01*
X157360952Y-85472500D01*
X157170476Y-85424880D01*
X157075238Y-85329642D01*
X157027619Y-85234404D01*
X157027619Y-85043928D01*
X157075238Y-84948690D01*
X157170476Y-84853452D01*
X157360952Y-84805833D01*
X157694285Y-84805833D01*
X157884761Y-84853452D01*
X157980000Y-84948690D01*
X158027619Y-85043928D01*
X158027619Y-85901071D02*
X157218095Y-85901071D01*
X157122857Y-85948690D01*
X157075238Y-85996309D01*
X157027619Y-86091547D01*
X157027619Y-86282023D01*
X157075238Y-86377261D01*
X157122857Y-86424880D01*
X157218095Y-86472500D01*
X158027619Y-86472500D01*
X158027619Y-86805833D02*
X158027619Y-87377261D01*
X157027619Y-87091547D02*
X158027619Y-87091547D01*
X153582619Y-92249761D02*
X152582619Y-92583095D01*
X153582619Y-92916428D01*
X152582619Y-93249761D02*
X153582619Y-93249761D01*
X152582619Y-93725952D02*
X153582619Y-93725952D01*
X152582619Y-94297380D01*
X153582619Y-94297380D01*
X150360000Y-102743095D02*
X150407619Y-102647857D01*
X150407619Y-102505000D01*
X150360000Y-102362142D01*
X150264761Y-102266904D01*
X150169523Y-102219285D01*
X149979047Y-102171666D01*
X149836190Y-102171666D01*
X149645714Y-102219285D01*
X149550476Y-102266904D01*
X149455238Y-102362142D01*
X149407619Y-102505000D01*
X149407619Y-102600238D01*
X149455238Y-102743095D01*
X149502857Y-102790714D01*
X149836190Y-102790714D01*
X149836190Y-102600238D01*
X149407619Y-103219285D02*
X150407619Y-103219285D01*
X149407619Y-103790714D01*
X150407619Y-103790714D01*
X149407619Y-104266904D02*
X150407619Y-104266904D01*
X150407619Y-104505000D01*
X150360000Y-104647857D01*
X150264761Y-104743095D01*
X150169523Y-104790714D01*
X149979047Y-104838333D01*
X149836190Y-104838333D01*
X149645714Y-104790714D01*
X149550476Y-104743095D01*
X149455238Y-104647857D01*
X149407619Y-104505000D01*
X149407619Y-104266904D01*
X156757619Y-93298333D02*
X156757619Y-93869761D01*
X155757619Y-93584047D02*
X156757619Y-93584047D01*
X155805238Y-94584047D02*
X155757619Y-94488809D01*
X155757619Y-94298333D01*
X155805238Y-94203095D01*
X155900476Y-94155476D01*
X156281428Y-94155476D01*
X156376666Y-94203095D01*
X156424285Y-94298333D01*
X156424285Y-94488809D01*
X156376666Y-94584047D01*
X156281428Y-94631666D01*
X156186190Y-94631666D01*
X156090952Y-94155476D01*
X155805238Y-95441190D02*
X155757619Y-95345952D01*
X155757619Y-95155476D01*
X155805238Y-95060238D01*
X155900476Y-95012619D01*
X156281428Y-95012619D01*
X156376666Y-95060238D01*
X156424285Y-95155476D01*
X156424285Y-95345952D01*
X156376666Y-95441190D01*
X156281428Y-95488809D01*
X156186190Y-95488809D01*
X156090952Y-95012619D01*
X156424285Y-95917380D02*
X155757619Y-95917380D01*
X156329047Y-95917380D02*
X156376666Y-95965000D01*
X156424285Y-96060238D01*
X156424285Y-96203095D01*
X156376666Y-96298333D01*
X156281428Y-96345952D01*
X155757619Y-96345952D01*
X155805238Y-96774523D02*
X155757619Y-96869761D01*
X155757619Y-97060238D01*
X155805238Y-97155476D01*
X155900476Y-97203095D01*
X155948095Y-97203095D01*
X156043333Y-97155476D01*
X156090952Y-97060238D01*
X156090952Y-96917380D01*
X156138571Y-96822142D01*
X156233809Y-96774523D01*
X156281428Y-96774523D01*
X156376666Y-96822142D01*
X156424285Y-96917380D01*
X156424285Y-97060238D01*
X156376666Y-97155476D01*
X156424285Y-97536428D02*
X155757619Y-97774523D01*
X156424285Y-98012619D02*
X155757619Y-97774523D01*
X155519523Y-97679285D01*
X155471904Y-97631666D01*
X155424285Y-97536428D01*
X156138571Y-98393571D02*
X156138571Y-99155476D01*
X155757619Y-100107857D02*
X155757619Y-99631666D01*
X156757619Y-99631666D01*
X155852857Y-101012619D02*
X155805238Y-100965000D01*
X155757619Y-100822142D01*
X155757619Y-100726904D01*
X155805238Y-100584047D01*
X155900476Y-100488809D01*
X155995714Y-100441190D01*
X156186190Y-100393571D01*
X156329047Y-100393571D01*
X156519523Y-100441190D01*
X156614761Y-100488809D01*
X156710000Y-100584047D01*
X156757619Y-100726904D01*
X156757619Y-100822142D01*
X156710000Y-100965000D01*
X156662380Y-101012619D01*
X155757619Y-102774523D02*
X156233809Y-102441190D01*
X155757619Y-102203095D02*
X156757619Y-102203095D01*
X156757619Y-102584047D01*
X156710000Y-102679285D01*
X156662380Y-102726904D01*
X156567142Y-102774523D01*
X156424285Y-102774523D01*
X156329047Y-102726904D01*
X156281428Y-102679285D01*
X156233809Y-102584047D01*
X156233809Y-102203095D01*
X155805238Y-103584047D02*
X155757619Y-103488809D01*
X155757619Y-103298333D01*
X155805238Y-103203095D01*
X155900476Y-103155476D01*
X156281428Y-103155476D01*
X156376666Y-103203095D01*
X156424285Y-103298333D01*
X156424285Y-103488809D01*
X156376666Y-103584047D01*
X156281428Y-103631666D01*
X156186190Y-103631666D01*
X156090952Y-103155476D01*
X156424285Y-104488809D02*
X155614761Y-104488809D01*
X155519523Y-104441190D01*
X155471904Y-104393571D01*
X155424285Y-104298333D01*
X155424285Y-104155476D01*
X155471904Y-104060238D01*
X155805238Y-104488809D02*
X155757619Y-104393571D01*
X155757619Y-104203095D01*
X155805238Y-104107857D01*
X155852857Y-104060238D01*
X155948095Y-104012619D01*
X156233809Y-104012619D01*
X156329047Y-104060238D01*
X156376666Y-104107857D01*
X156424285Y-104203095D01*
X156424285Y-104393571D01*
X156376666Y-104488809D01*
X156043333Y-105679285D02*
X156043333Y-106155476D01*
X155757619Y-105584047D02*
X156757619Y-105917380D01*
X155757619Y-106250714D01*
X155757619Y-107012619D02*
X156757619Y-107012619D01*
X155805238Y-107012619D02*
X155757619Y-106917380D01*
X155757619Y-106726904D01*
X155805238Y-106631666D01*
X155852857Y-106584047D01*
X155948095Y-106536428D01*
X156233809Y-106536428D01*
X156329047Y-106584047D01*
X156376666Y-106631666D01*
X156424285Y-106726904D01*
X156424285Y-106917380D01*
X156376666Y-107012619D01*
X156424285Y-107488809D02*
X155424285Y-107488809D01*
X156376666Y-107488809D02*
X156424285Y-107584047D01*
X156424285Y-107774523D01*
X156376666Y-107869761D01*
X156329047Y-107917380D01*
X156233809Y-107964999D01*
X155948095Y-107964999D01*
X155852857Y-107917380D01*
X155805238Y-107869761D01*
X155757619Y-107774523D01*
X155757619Y-107584047D01*
X155805238Y-107488809D01*
X156424285Y-108250714D02*
X156424285Y-108631666D01*
X156757619Y-108393571D02*
X155900476Y-108393571D01*
X155805238Y-108441190D01*
X155757619Y-108536428D01*
X155757619Y-108631666D01*
%TO.C,REF\u002A\u002A*%
X151200000Y-105850000D02*
X153600000Y-105850000D01*
X151200000Y-110050000D02*
X151200000Y-105850000D01*
X153600000Y-105850000D02*
X153600000Y-110050000D01*
X153600000Y-110050000D02*
X151200000Y-110050000D01*
X151200000Y-102040000D02*
X153600000Y-102040000D01*
X151200000Y-106240000D02*
X151200000Y-102040000D01*
X153600000Y-102040000D02*
X153600000Y-106240000D01*
X153600000Y-106240000D02*
X151200000Y-106240000D01*
X149295000Y-95690000D02*
X151695000Y-95690000D01*
X149295000Y-99890000D02*
X149295000Y-95690000D01*
X151695000Y-95690000D02*
X151695000Y-99890000D01*
X151695000Y-99890000D02*
X149295000Y-99890000D01*
X149295000Y-91880000D02*
X151695000Y-91880000D01*
X149295000Y-96080000D02*
X149295000Y-91880000D01*
X151695000Y-91880000D02*
X151695000Y-96080000D01*
X151695000Y-96080000D02*
X149295000Y-96080000D01*
D11*
X147260000Y-107890000D02*
X148590000Y-107890000D01*
X147260000Y-110490000D02*
X149920000Y-110490000D01*
X147260000Y-110550000D02*
X149920000Y-110550000D01*
X149920000Y-110490000D02*
X149920000Y-110550000D01*
X147260000Y-110490000D02*
X147260000Y-110550000D01*
X147260000Y-109220000D02*
X147260000Y-107890000D01*
X157420000Y-106680000D02*
X157420000Y-105350000D01*
X157420000Y-110550000D02*
X160080000Y-110550000D01*
X157420000Y-107950000D02*
X157420000Y-110550000D01*
X157420000Y-107950000D02*
X160080000Y-107950000D01*
X157420000Y-105350000D02*
X158750000Y-105350000D01*
X160080000Y-107950000D02*
X160080000Y-110550000D01*
X151130000Y-87570000D02*
X158810000Y-87570000D01*
X149860000Y-90230000D02*
X148530000Y-90230000D01*
X158810000Y-90230000D02*
X158810000Y-87570000D01*
X151130000Y-90230000D02*
X151130000Y-87570000D01*
X148530000Y-90230000D02*
X148530000Y-88900000D01*
X151130000Y-90230000D02*
X158810000Y-90230000D01*
%TD*%
M02*
