%TF.GenerationSoftware,KiCad,Pcbnew,(5.1.6-0)*%
%TF.CreationDate,2022-05-03T23:10:05-07:00*%
%TF.ProjectId,talonsrx-enc-limit-ftc,74616c6f-6e73-4727-982d-656e632d6c69,rev?*%
%TF.SameCoordinates,PX695f190PY69fa208*%
%TF.FileFunction,Copper,L2,Bot*%
%TF.FilePolarity,Positive*%
%FSLAX46Y46*%
G04 Gerber Fmt 4.6, Leading zero omitted, Abs format (unit mm)*
G04 Created by KiCad (PCBNEW (5.1.6-0)) date 2022-05-03 23:10:05*
%MOMM*%
%LPD*%
G01*
G04 APERTURE LIST*
%TA.AperFunction,NonConductor*%
%ADD10C,0.152400*%
%TD*%
%TA.AperFunction,EtchedComponent*%
%ADD11C,0.010000*%
%TD*%
%TA.AperFunction,ComponentPad*%
%ADD12R,1.000000X1.000000*%
%TD*%
%TA.AperFunction,ComponentPad*%
%ADD13O,1.000000X1.000000*%
%TD*%
%TA.AperFunction,ViaPad*%
%ADD14C,0.609600*%
%TD*%
%TA.AperFunction,Conductor*%
%ADD15C,0.254000*%
%TD*%
%TA.AperFunction,Conductor*%
%ADD16C,0.457200*%
%TD*%
G04 APERTURE END LIST*
D10*
X43483819Y9592274D02*
X43483819Y9992274D01*
X42483819Y9792274D02*
X43483819Y9792274D01*
X42483819Y10525607D02*
X43007628Y10525607D01*
X43102866Y10492274D01*
X43150485Y10425607D01*
X43150485Y10292274D01*
X43102866Y10225607D01*
X42531438Y10525607D02*
X42483819Y10458940D01*
X42483819Y10292274D01*
X42531438Y10225607D01*
X42626676Y10192274D01*
X42721914Y10192274D01*
X42817152Y10225607D01*
X42864771Y10292274D01*
X42864771Y10458940D01*
X42912390Y10525607D01*
X42483819Y10958940D02*
X42531438Y10892274D01*
X42626676Y10858940D01*
X43483819Y10858940D01*
X42483819Y11325607D02*
X42531438Y11258940D01*
X42579057Y11225607D01*
X42674295Y11192274D01*
X42960009Y11192274D01*
X43055247Y11225607D01*
X43102866Y11258940D01*
X43150485Y11325607D01*
X43150485Y11425607D01*
X43102866Y11492274D01*
X43055247Y11525607D01*
X42960009Y11558940D01*
X42674295Y11558940D01*
X42579057Y11525607D01*
X42531438Y11492274D01*
X42483819Y11425607D01*
X42483819Y11325607D01*
X43150485Y11858940D02*
X42483819Y11858940D01*
X43055247Y11858940D02*
X43102866Y11892274D01*
X43150485Y11958940D01*
X43150485Y12058940D01*
X43102866Y12125607D01*
X43007628Y12158940D01*
X42483819Y12158940D01*
X42531438Y12458940D02*
X42483819Y12558940D01*
X42483819Y12725607D01*
X42531438Y12792274D01*
X42579057Y12825607D01*
X42674295Y12858940D01*
X42769533Y12858940D01*
X42864771Y12825607D01*
X42912390Y12792274D01*
X42960009Y12725607D01*
X43007628Y12592274D01*
X43055247Y12525607D01*
X43102866Y12492274D01*
X43198104Y12458940D01*
X43293342Y12458940D01*
X43388580Y12492274D01*
X43436200Y12525607D01*
X43483819Y12592274D01*
X43483819Y12758940D01*
X43436200Y12858940D01*
X42483819Y13558940D02*
X42960009Y13325607D01*
X42483819Y13158940D02*
X43483819Y13158940D01*
X43483819Y13425607D01*
X43436200Y13492274D01*
X43388580Y13525607D01*
X43293342Y13558940D01*
X43150485Y13558940D01*
X43055247Y13525607D01*
X43007628Y13492274D01*
X42960009Y13425607D01*
X42960009Y13158940D01*
X43483819Y13792274D02*
X42483819Y14258940D01*
X43483819Y14258940D02*
X42483819Y13792274D01*
X43007628Y15058940D02*
X43007628Y15292274D01*
X42483819Y15392274D02*
X42483819Y15058940D01*
X43483819Y15058940D01*
X43483819Y15392274D01*
X43150485Y15692274D02*
X42483819Y15692274D01*
X43055247Y15692274D02*
X43102866Y15725607D01*
X43150485Y15792274D01*
X43150485Y15892274D01*
X43102866Y15958940D01*
X43007628Y15992274D01*
X42483819Y15992274D01*
X42531438Y16625607D02*
X42483819Y16558940D01*
X42483819Y16425607D01*
X42531438Y16358940D01*
X42579057Y16325607D01*
X42674295Y16292274D01*
X42960009Y16292274D01*
X43055247Y16325607D01*
X43102866Y16358940D01*
X43150485Y16425607D01*
X43150485Y16558940D01*
X43102866Y16625607D01*
X42864771Y16925607D02*
X42864771Y17458940D01*
X42483819Y17192274D02*
X43245723Y17192274D01*
X42483819Y18125607D02*
X42483819Y17792274D01*
X43483819Y17792274D01*
X42483819Y18358940D02*
X43150485Y18358940D01*
X43483819Y18358940D02*
X43436200Y18325607D01*
X43388580Y18358940D01*
X43436200Y18392274D01*
X43483819Y18358940D01*
X43388580Y18358940D01*
X42483819Y18692274D02*
X43150485Y18692274D01*
X43055247Y18692274D02*
X43102866Y18725607D01*
X43150485Y18792274D01*
X43150485Y18892274D01*
X43102866Y18958940D01*
X43007628Y18992274D01*
X42483819Y18992274D01*
X43007628Y18992274D02*
X43102866Y19025607D01*
X43150485Y19092274D01*
X43150485Y19192274D01*
X43102866Y19258940D01*
X43007628Y19292274D01*
X42483819Y19292274D01*
X40831419Y15458940D02*
X41307609Y15225607D01*
X40831419Y15058940D02*
X41831419Y15058940D01*
X41831419Y15325607D01*
X41783800Y15392274D01*
X41736180Y15425607D01*
X41640942Y15458940D01*
X41498085Y15458940D01*
X41402847Y15425607D01*
X41355228Y15392274D01*
X41307609Y15325607D01*
X41307609Y15058940D01*
X40831419Y16125607D02*
X40831419Y15725607D01*
X40831419Y15925607D02*
X41831419Y15925607D01*
X41688561Y15858940D01*
X41593323Y15792274D01*
X41545704Y15725607D01*
X41736180Y16925607D02*
X41783800Y16958940D01*
X41831419Y17025607D01*
X41831419Y17192274D01*
X41783800Y17258940D01*
X41736180Y17292274D01*
X41640942Y17325607D01*
X41545704Y17325607D01*
X41402847Y17292274D01*
X40831419Y16892274D01*
X40831419Y17325607D01*
X41831419Y17758940D02*
X41831419Y17825607D01*
X41783800Y17892274D01*
X41736180Y17925607D01*
X41640942Y17958940D01*
X41450466Y17992274D01*
X41212371Y17992274D01*
X41021895Y17958940D01*
X40926657Y17925607D01*
X40879038Y17892274D01*
X40831419Y17825607D01*
X40831419Y17758940D01*
X40879038Y17692274D01*
X40926657Y17658940D01*
X41021895Y17625607D01*
X41212371Y17592274D01*
X41450466Y17592274D01*
X41640942Y17625607D01*
X41736180Y17658940D01*
X41783800Y17692274D01*
X41831419Y17758940D01*
X41736180Y18258940D02*
X41783800Y18292274D01*
X41831419Y18358940D01*
X41831419Y18525607D01*
X41783800Y18592274D01*
X41736180Y18625607D01*
X41640942Y18658940D01*
X41545704Y18658940D01*
X41402847Y18625607D01*
X40831419Y18225607D01*
X40831419Y18658940D01*
X41736180Y18925607D02*
X41783800Y18958940D01*
X41831419Y19025607D01*
X41831419Y19192274D01*
X41783800Y19258940D01*
X41736180Y19292274D01*
X41640942Y19325607D01*
X41545704Y19325607D01*
X41402847Y19292274D01*
X40831419Y18892274D01*
X40831419Y19325607D01*
X4754619Y6271667D02*
X5421285Y6271667D01*
X5754619Y6271667D02*
X5707000Y6238334D01*
X5659380Y6271667D01*
X5707000Y6305000D01*
X5754619Y6271667D01*
X5659380Y6271667D01*
X4754619Y6605000D02*
X5754619Y6605000D01*
X4754619Y6905000D02*
X5278428Y6905000D01*
X5373666Y6871667D01*
X5421285Y6805000D01*
X5421285Y6705000D01*
X5373666Y6638334D01*
X5326047Y6605000D01*
X4754619Y7538334D02*
X5278428Y7538334D01*
X5373666Y7505000D01*
X5421285Y7438334D01*
X5421285Y7305000D01*
X5373666Y7238334D01*
X4802238Y7538334D02*
X4754619Y7471667D01*
X4754619Y7305000D01*
X4802238Y7238334D01*
X4897476Y7205000D01*
X4992714Y7205000D01*
X5087952Y7238334D01*
X5135571Y7305000D01*
X5135571Y7471667D01*
X5183190Y7538334D01*
X4754619Y7871667D02*
X5421285Y7871667D01*
X5230809Y7871667D02*
X5326047Y7905000D01*
X5373666Y7938334D01*
X5421285Y8005000D01*
X5421285Y8071667D01*
X5421285Y8205000D02*
X5421285Y8471667D01*
X5754619Y8305000D02*
X4897476Y8305000D01*
X4802238Y8338334D01*
X4754619Y8405000D01*
X4754619Y8471667D01*
X5421285Y8638334D02*
X4754619Y8771667D01*
X5230809Y8905000D01*
X4754619Y9038334D01*
X5421285Y9171667D01*
X4754619Y9438334D02*
X5421285Y9438334D01*
X5754619Y9438334D02*
X5707000Y9405000D01*
X5659380Y9438334D01*
X5707000Y9471667D01*
X5754619Y9438334D01*
X5659380Y9438334D01*
X5421285Y10071667D02*
X4611761Y10071667D01*
X4516523Y10038334D01*
X4468904Y10005000D01*
X4421285Y9938334D01*
X4421285Y9838334D01*
X4468904Y9771667D01*
X4802238Y10071667D02*
X4754619Y10005000D01*
X4754619Y9871667D01*
X4802238Y9805000D01*
X4849857Y9771667D01*
X4945095Y9738334D01*
X5230809Y9738334D01*
X5326047Y9771667D01*
X5373666Y9805000D01*
X5421285Y9871667D01*
X5421285Y10005000D01*
X5373666Y10071667D01*
X5230809Y11371667D02*
X5278428Y11338334D01*
X5326047Y11271667D01*
X5326047Y11205000D01*
X5278428Y11138334D01*
X5230809Y11105000D01*
X5135571Y11071667D01*
X5040333Y11071667D01*
X4945095Y11105000D01*
X4897476Y11138334D01*
X4849857Y11205000D01*
X4849857Y11271667D01*
X4897476Y11338334D01*
X4945095Y11371667D01*
X5326047Y11371667D02*
X4945095Y11371667D01*
X4897476Y11405000D01*
X4897476Y11438334D01*
X4945095Y11505000D01*
X5040333Y11538334D01*
X5278428Y11538334D01*
X5421285Y11471667D01*
X5516523Y11371667D01*
X5564142Y11238334D01*
X5516523Y11105000D01*
X5421285Y11005000D01*
X5278428Y10938334D01*
X5087952Y10905000D01*
X4897476Y10938334D01*
X4754619Y11005000D01*
X4659380Y11105000D01*
X4611761Y11238334D01*
X4659380Y11371667D01*
X4754619Y11471667D01*
X4754619Y16105000D02*
X5754619Y16105000D01*
X4754619Y16438334D02*
X5421285Y16438334D01*
X5230809Y16438334D02*
X5326047Y16471667D01*
X5373666Y16505000D01*
X5421285Y16571667D01*
X5421285Y16638334D01*
X4754619Y16971667D02*
X4802238Y16905000D01*
X4849857Y16871667D01*
X4945095Y16838334D01*
X5230809Y16838334D01*
X5326047Y16871667D01*
X5373666Y16905000D01*
X5421285Y16971667D01*
X5421285Y17071667D01*
X5373666Y17138334D01*
X5326047Y17171667D01*
X5230809Y17205000D01*
X4945095Y17205000D01*
X4849857Y17171667D01*
X4802238Y17138334D01*
X4754619Y17071667D01*
X4754619Y16971667D01*
X5421285Y17505000D02*
X4754619Y17505000D01*
X5326047Y17505000D02*
X5373666Y17538334D01*
X5421285Y17605000D01*
X5421285Y17705000D01*
X5373666Y17771667D01*
X5278428Y17805000D01*
X4754619Y17805000D01*
X4754619Y18671667D02*
X5754619Y18671667D01*
X5754619Y18938334D01*
X5707000Y19005000D01*
X5659380Y19038334D01*
X5564142Y19071667D01*
X5421285Y19071667D01*
X5326047Y19038334D01*
X5278428Y19005000D01*
X5230809Y18938334D01*
X5230809Y18671667D01*
X4754619Y19671667D02*
X5278428Y19671667D01*
X5373666Y19638334D01*
X5421285Y19571667D01*
X5421285Y19438334D01*
X5373666Y19371667D01*
X4802238Y19671667D02*
X4754619Y19605000D01*
X4754619Y19438334D01*
X4802238Y19371667D01*
X4897476Y19338334D01*
X4992714Y19338334D01*
X5087952Y19371667D01*
X5135571Y19438334D01*
X5135571Y19605000D01*
X5183190Y19671667D01*
X5421285Y20005000D02*
X4754619Y20005000D01*
X5326047Y20005000D02*
X5373666Y20038334D01*
X5421285Y20105000D01*
X5421285Y20205000D01*
X5373666Y20271667D01*
X5278428Y20305000D01*
X4754619Y20305000D01*
X5421285Y20538334D02*
X5421285Y20805000D01*
X5754619Y20638334D02*
X4897476Y20638334D01*
X4802238Y20671667D01*
X4754619Y20738334D01*
X4754619Y20805000D01*
X4754619Y21038334D02*
X5754619Y21038334D01*
X4754619Y21338334D02*
X5278428Y21338334D01*
X5373666Y21305000D01*
X5421285Y21238334D01*
X5421285Y21138334D01*
X5373666Y21071667D01*
X5326047Y21038334D01*
X4802238Y21938334D02*
X4754619Y21871667D01*
X4754619Y21738334D01*
X4802238Y21671667D01*
X4897476Y21638334D01*
X5278428Y21638334D01*
X5373666Y21671667D01*
X5421285Y21738334D01*
X5421285Y21871667D01*
X5373666Y21938334D01*
X5278428Y21971667D01*
X5183190Y21971667D01*
X5087952Y21638334D01*
X4754619Y22271667D02*
X5421285Y22271667D01*
X5230809Y22271667D02*
X5326047Y22305000D01*
X5373666Y22338334D01*
X5421285Y22405000D01*
X5421285Y22471667D01*
X4802238Y22671667D02*
X4754619Y22738334D01*
X4754619Y22871667D01*
X4802238Y22938334D01*
X4897476Y22971667D01*
X4945095Y22971667D01*
X5040333Y22938334D01*
X5087952Y22871667D01*
X5087952Y22771667D01*
X5135571Y22705000D01*
X5230809Y22671667D01*
X5278428Y22671667D01*
X5373666Y22705000D01*
X5421285Y22771667D01*
X5421285Y22871667D01*
X5373666Y22938334D01*
D11*
%TO.C,G\u002A\u002A\u002A*%
G36*
X5541249Y13909273D02*
G01*
X5536154Y13932789D01*
X5532247Y13940444D01*
X5522300Y13958538D01*
X5506629Y13986518D01*
X5485552Y14023831D01*
X5459386Y14069921D01*
X5428449Y14124236D01*
X5393057Y14186220D01*
X5353527Y14255320D01*
X5310177Y14330982D01*
X5263324Y14412651D01*
X5213285Y14499775D01*
X5160378Y14591798D01*
X5104918Y14688167D01*
X5047225Y14788327D01*
X4987614Y14891725D01*
X4936738Y14979900D01*
X4852117Y15126412D01*
X4773743Y15261906D01*
X4701597Y15386414D01*
X4635662Y15499965D01*
X4575920Y15602590D01*
X4522353Y15694319D01*
X4474944Y15775181D01*
X4433675Y15845209D01*
X4398528Y15904431D01*
X4369484Y15952878D01*
X4346527Y15990581D01*
X4329639Y16017569D01*
X4318802Y16033874D01*
X4315318Y16038405D01*
X4289059Y16063487D01*
X4261533Y16080072D01*
X4250921Y16084443D01*
X4246609Y16086014D01*
X4242068Y16087454D01*
X4236753Y16088768D01*
X4230115Y16089963D01*
X4221609Y16091043D01*
X4210688Y16092014D01*
X4196805Y16092883D01*
X4179413Y16093655D01*
X4157965Y16094336D01*
X4131915Y16094931D01*
X4100716Y16095447D01*
X4063821Y16095888D01*
X4020683Y16096261D01*
X3970756Y16096572D01*
X3913493Y16096825D01*
X3848347Y16097028D01*
X3774771Y16097185D01*
X3692218Y16097303D01*
X3600143Y16097387D01*
X3497997Y16097443D01*
X3385235Y16097476D01*
X3261309Y16097493D01*
X3125673Y16097499D01*
X3006825Y16097500D01*
X2861281Y16097498D01*
X2727891Y16097489D01*
X2606107Y16097468D01*
X2495383Y16097429D01*
X2395174Y16097365D01*
X2304931Y16097272D01*
X2224110Y16097144D01*
X2152162Y16096975D01*
X2088542Y16096760D01*
X2032703Y16096493D01*
X1984099Y16096168D01*
X1942183Y16095779D01*
X1906407Y16095322D01*
X1876227Y16094790D01*
X1851095Y16094178D01*
X1830465Y16093480D01*
X1813790Y16092691D01*
X1800524Y16091805D01*
X1790120Y16090815D01*
X1782031Y16089718D01*
X1775712Y16088506D01*
X1770614Y16087175D01*
X1766193Y16085719D01*
X1763383Y16084687D01*
X1731369Y16068081D01*
X1702922Y16045103D01*
X1702820Y16045000D01*
X1696622Y16036837D01*
X1685478Y16019914D01*
X1669291Y15994063D01*
X1647961Y15959116D01*
X1621390Y15914905D01*
X1589479Y15861264D01*
X1552131Y15798024D01*
X1509246Y15725017D01*
X1460725Y15642077D01*
X1406471Y15549035D01*
X1346384Y15445724D01*
X1280367Y15331976D01*
X1208320Y15207624D01*
X1130144Y15072499D01*
X1082129Y14989425D01*
X1020986Y14883554D01*
X961485Y14780430D01*
X903942Y14680607D01*
X848677Y14584640D01*
X796007Y14493085D01*
X746249Y14406496D01*
X699723Y14325428D01*
X656744Y14250437D01*
X617632Y14182076D01*
X582705Y14120903D01*
X552279Y14067471D01*
X526674Y14022335D01*
X506207Y13986051D01*
X491195Y13959173D01*
X481957Y13942257D01*
X478878Y13936114D01*
X470923Y13898964D01*
X470917Y13857958D01*
X478593Y13818817D01*
X485115Y13801975D01*
X491466Y13789773D01*
X503688Y13767535D01*
X521398Y13735920D01*
X544211Y13695591D01*
X571745Y13647208D01*
X603614Y13591434D01*
X639435Y13528929D01*
X678825Y13460356D01*
X721399Y13386375D01*
X766773Y13307647D01*
X814564Y13224835D01*
X864388Y13138600D01*
X915861Y13049604D01*
X968598Y12958506D01*
X1022217Y12865970D01*
X1076332Y12772656D01*
X1130561Y12679226D01*
X1184520Y12586342D01*
X1237824Y12494664D01*
X1290090Y12404855D01*
X1340933Y12317574D01*
X1389971Y12233485D01*
X1436818Y12153249D01*
X1481092Y12077526D01*
X1522408Y12006979D01*
X1560383Y11942268D01*
X1594631Y11884056D01*
X1624771Y11833003D01*
X1650418Y11789771D01*
X1671187Y11755021D01*
X1686695Y11729416D01*
X1696559Y11713615D01*
X1700151Y11708454D01*
X1719919Y11691687D01*
X1744140Y11675997D01*
X1755194Y11670354D01*
X1787625Y11655675D01*
X3013175Y11655675D01*
X3013175Y11992751D01*
X2956098Y11992873D01*
X2909497Y11993314D01*
X2871152Y11994189D01*
X2838840Y11995610D01*
X2810339Y11997691D01*
X2783430Y12000545D01*
X2755889Y12004285D01*
X2740125Y12006690D01*
X2583914Y12037350D01*
X2433036Y12079463D01*
X2287698Y12132930D01*
X2148101Y12197656D01*
X2014450Y12273542D01*
X1886950Y12360491D01*
X1765804Y12458407D01*
X1734587Y12486366D01*
X1625323Y12594817D01*
X1526095Y12710921D01*
X1437107Y12834291D01*
X1358563Y12964543D01*
X1290668Y13101290D01*
X1233625Y13244147D01*
X1187639Y13392728D01*
X1152912Y13546648D01*
X1142919Y13605125D01*
X1136888Y13649429D01*
X1134338Y13686740D01*
X1135376Y13722009D01*
X1140111Y13760189D01*
X1147158Y13798800D01*
X1172738Y13898011D01*
X1209879Y13998789D01*
X1257709Y14100087D01*
X1315362Y14200858D01*
X1381968Y14300056D01*
X1456659Y14396634D01*
X1538565Y14489545D01*
X1626818Y14577744D01*
X1720550Y14660182D01*
X1818891Y14735813D01*
X1920972Y14803592D01*
X2025926Y14862470D01*
X2033024Y14866064D01*
X2119856Y14905027D01*
X2217051Y14940218D01*
X2322752Y14971313D01*
X2435100Y14997986D01*
X2552235Y15019912D01*
X2672300Y15036766D01*
X2793434Y15048224D01*
X2913779Y15053961D01*
X3031476Y15053651D01*
X3091019Y15050993D01*
X3215599Y15040636D01*
X3334252Y15025017D01*
X3445535Y15004412D01*
X3548008Y14979098D01*
X3640228Y14949351D01*
X3659619Y14941996D01*
X3687039Y14931814D01*
X3710321Y14924174D01*
X3726847Y14919869D01*
X3733795Y14919509D01*
X3740155Y14929401D01*
X3735983Y14943723D01*
X3722303Y14961634D01*
X3700135Y14982290D01*
X3670501Y15004849D01*
X3634425Y15028470D01*
X3592928Y15052309D01*
X3547033Y15075525D01*
X3541113Y15078306D01*
X3418430Y15129225D01*
X3287494Y15171881D01*
X3149865Y15206073D01*
X3007103Y15231598D01*
X2860769Y15248256D01*
X2712422Y15255846D01*
X2563622Y15254165D01*
X2415931Y15243012D01*
X2340075Y15233401D01*
X2194982Y15206769D01*
X2057064Y15169830D01*
X1925689Y15122293D01*
X1800223Y15063867D01*
X1680035Y14994263D01*
X1564491Y14913188D01*
X1465385Y14831444D01*
X1408547Y14775347D01*
X1352464Y14708684D01*
X1298890Y14633551D01*
X1295667Y14628625D01*
X1278821Y14603104D01*
X1264424Y14581970D01*
X1253879Y14567232D01*
X1248589Y14560901D01*
X1248349Y14560800D01*
X1248827Y14566183D01*
X1254219Y14581164D01*
X1263744Y14603990D01*
X1276617Y14632911D01*
X1292057Y14666174D01*
X1309280Y14702026D01*
X1327504Y14738715D01*
X1330434Y14744495D01*
X1361402Y14801726D01*
X1397078Y14861396D01*
X1436272Y14921937D01*
X1477795Y14981785D01*
X1520455Y15039374D01*
X1563061Y15093137D01*
X1604425Y15141510D01*
X1643354Y15182926D01*
X1678659Y15215820D01*
X1703149Y15234713D01*
X1762857Y15271505D01*
X1832954Y15308209D01*
X1911153Y15343975D01*
X1995164Y15377952D01*
X2082700Y15409290D01*
X2171474Y15437137D01*
X2259196Y15460644D01*
X2343579Y15478960D01*
X2375089Y15484513D01*
X2425726Y15491189D01*
X2486241Y15496505D01*
X2553877Y15500361D01*
X2625874Y15502655D01*
X2699475Y15503289D01*
X2771921Y15502161D01*
X2815724Y15500502D01*
X2977878Y15489209D01*
X3129204Y15471281D01*
X3269702Y15446718D01*
X3399373Y15415520D01*
X3518218Y15377687D01*
X3626237Y15333218D01*
X3723431Y15282113D01*
X3809801Y15224371D01*
X3842297Y15198602D01*
X3863622Y15181336D01*
X3881683Y15167673D01*
X3894079Y15159378D01*
X3897969Y15157700D01*
X3906313Y15162110D01*
X3906366Y15174661D01*
X3898628Y15194328D01*
X3883601Y15220089D01*
X3861788Y15250919D01*
X3837209Y15281630D01*
X3777119Y15344090D01*
X3705752Y15402238D01*
X3623861Y15455823D01*
X3532203Y15504593D01*
X3431532Y15548299D01*
X3322605Y15586687D01*
X3206175Y15619509D01*
X3082999Y15646512D01*
X2953830Y15667446D01*
X2819426Y15682060D01*
X2680540Y15690102D01*
X2603600Y15691627D01*
X2564015Y15691942D01*
X2535860Y15692385D01*
X2517868Y15693103D01*
X2508768Y15694243D01*
X2507292Y15695950D01*
X2512171Y15698373D01*
X2520692Y15701205D01*
X2585055Y15718460D01*
X2659421Y15733307D01*
X2741270Y15745429D01*
X2828080Y15754508D01*
X2917327Y15760228D01*
X3006490Y15762272D01*
X3006825Y15762272D01*
X3120549Y15759843D01*
X3226341Y15752024D01*
X3327975Y15738357D01*
X3429220Y15718387D01*
X3487989Y15704065D01*
X3634417Y15659661D01*
X3775472Y15604045D01*
X3910649Y15537732D01*
X4039443Y15461240D01*
X4161346Y15375086D01*
X4275852Y15279788D01*
X4382457Y15175863D01*
X4480654Y15063828D01*
X4569936Y14944201D01*
X4649799Y14817498D01*
X4719735Y14684237D01*
X4779240Y14544935D01*
X4827806Y14400109D01*
X4851678Y14309975D01*
X4866848Y14242375D01*
X4878574Y14179860D01*
X4887223Y14119103D01*
X4893166Y14056777D01*
X4896772Y13989554D01*
X4898410Y13914109D01*
X4898579Y13887700D01*
X4898423Y13820859D01*
X4897285Y13763682D01*
X4894896Y13713152D01*
X4890990Y13666255D01*
X4885298Y13619974D01*
X4877552Y13571292D01*
X4867483Y13517195D01*
X4864147Y13500350D01*
X4828209Y13352395D01*
X4780800Y13209202D01*
X4722420Y13071291D01*
X4653567Y12939183D01*
X4574742Y12813397D01*
X4486444Y12694453D01*
X4389173Y12582872D01*
X4283428Y12479174D01*
X4169709Y12383878D01*
X4048516Y12297506D01*
X3920347Y12220576D01*
X3785702Y12153609D01*
X3645082Y12097126D01*
X3498985Y12051646D01*
X3464025Y12042639D01*
X3404173Y12028389D01*
X3350414Y12017034D01*
X3300016Y12008271D01*
X3250249Y12001797D01*
X3198381Y11997311D01*
X3141680Y11994511D01*
X3077414Y11993094D01*
X3013175Y11992751D01*
X3013175Y11655675D01*
X4226025Y11655675D01*
X4258457Y11670354D01*
X4282098Y11683647D01*
X4304911Y11700541D01*
X4313411Y11708454D01*
X4318613Y11716036D01*
X4329761Y11733968D01*
X4346470Y11761588D01*
X4368359Y11798237D01*
X4395044Y11843252D01*
X4426142Y11895973D01*
X4461270Y11955738D01*
X4500045Y12021887D01*
X4542084Y12093758D01*
X4587005Y12170690D01*
X4634424Y12252022D01*
X4683958Y12337092D01*
X4735225Y12425241D01*
X4787841Y12515806D01*
X4841424Y12608126D01*
X4895590Y12701541D01*
X4949957Y12795389D01*
X5004141Y12889009D01*
X5057760Y12981740D01*
X5110430Y13072921D01*
X5161769Y13161891D01*
X5211394Y13247988D01*
X5258922Y13330551D01*
X5303969Y13408920D01*
X5346153Y13482433D01*
X5385091Y13550430D01*
X5420400Y13612248D01*
X5451697Y13667227D01*
X5478598Y13714705D01*
X5500722Y13754022D01*
X5517685Y13784517D01*
X5529104Y13805528D01*
X5534596Y13816394D01*
X5534907Y13817171D01*
X5540955Y13844317D01*
X5543090Y13877042D01*
X5541249Y13909273D01*
G37*
X5541249Y13909273D02*
X5536154Y13932789D01*
X5532247Y13940444D01*
X5522300Y13958538D01*
X5506629Y13986518D01*
X5485552Y14023831D01*
X5459386Y14069921D01*
X5428449Y14124236D01*
X5393057Y14186220D01*
X5353527Y14255320D01*
X5310177Y14330982D01*
X5263324Y14412651D01*
X5213285Y14499775D01*
X5160378Y14591798D01*
X5104918Y14688167D01*
X5047225Y14788327D01*
X4987614Y14891725D01*
X4936738Y14979900D01*
X4852117Y15126412D01*
X4773743Y15261906D01*
X4701597Y15386414D01*
X4635662Y15499965D01*
X4575920Y15602590D01*
X4522353Y15694319D01*
X4474944Y15775181D01*
X4433675Y15845209D01*
X4398528Y15904431D01*
X4369484Y15952878D01*
X4346527Y15990581D01*
X4329639Y16017569D01*
X4318802Y16033874D01*
X4315318Y16038405D01*
X4289059Y16063487D01*
X4261533Y16080072D01*
X4250921Y16084443D01*
X4246609Y16086014D01*
X4242068Y16087454D01*
X4236753Y16088768D01*
X4230115Y16089963D01*
X4221609Y16091043D01*
X4210688Y16092014D01*
X4196805Y16092883D01*
X4179413Y16093655D01*
X4157965Y16094336D01*
X4131915Y16094931D01*
X4100716Y16095447D01*
X4063821Y16095888D01*
X4020683Y16096261D01*
X3970756Y16096572D01*
X3913493Y16096825D01*
X3848347Y16097028D01*
X3774771Y16097185D01*
X3692218Y16097303D01*
X3600143Y16097387D01*
X3497997Y16097443D01*
X3385235Y16097476D01*
X3261309Y16097493D01*
X3125673Y16097499D01*
X3006825Y16097500D01*
X2861281Y16097498D01*
X2727891Y16097489D01*
X2606107Y16097468D01*
X2495383Y16097429D01*
X2395174Y16097365D01*
X2304931Y16097272D01*
X2224110Y16097144D01*
X2152162Y16096975D01*
X2088542Y16096760D01*
X2032703Y16096493D01*
X1984099Y16096168D01*
X1942183Y16095779D01*
X1906407Y16095322D01*
X1876227Y16094790D01*
X1851095Y16094178D01*
X1830465Y16093480D01*
X1813790Y16092691D01*
X1800524Y16091805D01*
X1790120Y16090815D01*
X1782031Y16089718D01*
X1775712Y16088506D01*
X1770614Y16087175D01*
X1766193Y16085719D01*
X1763383Y16084687D01*
X1731369Y16068081D01*
X1702922Y16045103D01*
X1702820Y16045000D01*
X1696622Y16036837D01*
X1685478Y16019914D01*
X1669291Y15994063D01*
X1647961Y15959116D01*
X1621390Y15914905D01*
X1589479Y15861264D01*
X1552131Y15798024D01*
X1509246Y15725017D01*
X1460725Y15642077D01*
X1406471Y15549035D01*
X1346384Y15445724D01*
X1280367Y15331976D01*
X1208320Y15207624D01*
X1130144Y15072499D01*
X1082129Y14989425D01*
X1020986Y14883554D01*
X961485Y14780430D01*
X903942Y14680607D01*
X848677Y14584640D01*
X796007Y14493085D01*
X746249Y14406496D01*
X699723Y14325428D01*
X656744Y14250437D01*
X617632Y14182076D01*
X582705Y14120903D01*
X552279Y14067471D01*
X526674Y14022335D01*
X506207Y13986051D01*
X491195Y13959173D01*
X481957Y13942257D01*
X478878Y13936114D01*
X470923Y13898964D01*
X470917Y13857958D01*
X478593Y13818817D01*
X485115Y13801975D01*
X491466Y13789773D01*
X503688Y13767535D01*
X521398Y13735920D01*
X544211Y13695591D01*
X571745Y13647208D01*
X603614Y13591434D01*
X639435Y13528929D01*
X678825Y13460356D01*
X721399Y13386375D01*
X766773Y13307647D01*
X814564Y13224835D01*
X864388Y13138600D01*
X915861Y13049604D01*
X968598Y12958506D01*
X1022217Y12865970D01*
X1076332Y12772656D01*
X1130561Y12679226D01*
X1184520Y12586342D01*
X1237824Y12494664D01*
X1290090Y12404855D01*
X1340933Y12317574D01*
X1389971Y12233485D01*
X1436818Y12153249D01*
X1481092Y12077526D01*
X1522408Y12006979D01*
X1560383Y11942268D01*
X1594631Y11884056D01*
X1624771Y11833003D01*
X1650418Y11789771D01*
X1671187Y11755021D01*
X1686695Y11729416D01*
X1696559Y11713615D01*
X1700151Y11708454D01*
X1719919Y11691687D01*
X1744140Y11675997D01*
X1755194Y11670354D01*
X1787625Y11655675D01*
X3013175Y11655675D01*
X3013175Y11992751D01*
X2956098Y11992873D01*
X2909497Y11993314D01*
X2871152Y11994189D01*
X2838840Y11995610D01*
X2810339Y11997691D01*
X2783430Y12000545D01*
X2755889Y12004285D01*
X2740125Y12006690D01*
X2583914Y12037350D01*
X2433036Y12079463D01*
X2287698Y12132930D01*
X2148101Y12197656D01*
X2014450Y12273542D01*
X1886950Y12360491D01*
X1765804Y12458407D01*
X1734587Y12486366D01*
X1625323Y12594817D01*
X1526095Y12710921D01*
X1437107Y12834291D01*
X1358563Y12964543D01*
X1290668Y13101290D01*
X1233625Y13244147D01*
X1187639Y13392728D01*
X1152912Y13546648D01*
X1142919Y13605125D01*
X1136888Y13649429D01*
X1134338Y13686740D01*
X1135376Y13722009D01*
X1140111Y13760189D01*
X1147158Y13798800D01*
X1172738Y13898011D01*
X1209879Y13998789D01*
X1257709Y14100087D01*
X1315362Y14200858D01*
X1381968Y14300056D01*
X1456659Y14396634D01*
X1538565Y14489545D01*
X1626818Y14577744D01*
X1720550Y14660182D01*
X1818891Y14735813D01*
X1920972Y14803592D01*
X2025926Y14862470D01*
X2033024Y14866064D01*
X2119856Y14905027D01*
X2217051Y14940218D01*
X2322752Y14971313D01*
X2435100Y14997986D01*
X2552235Y15019912D01*
X2672300Y15036766D01*
X2793434Y15048224D01*
X2913779Y15053961D01*
X3031476Y15053651D01*
X3091019Y15050993D01*
X3215599Y15040636D01*
X3334252Y15025017D01*
X3445535Y15004412D01*
X3548008Y14979098D01*
X3640228Y14949351D01*
X3659619Y14941996D01*
X3687039Y14931814D01*
X3710321Y14924174D01*
X3726847Y14919869D01*
X3733795Y14919509D01*
X3740155Y14929401D01*
X3735983Y14943723D01*
X3722303Y14961634D01*
X3700135Y14982290D01*
X3670501Y15004849D01*
X3634425Y15028470D01*
X3592928Y15052309D01*
X3547033Y15075525D01*
X3541113Y15078306D01*
X3418430Y15129225D01*
X3287494Y15171881D01*
X3149865Y15206073D01*
X3007103Y15231598D01*
X2860769Y15248256D01*
X2712422Y15255846D01*
X2563622Y15254165D01*
X2415931Y15243012D01*
X2340075Y15233401D01*
X2194982Y15206769D01*
X2057064Y15169830D01*
X1925689Y15122293D01*
X1800223Y15063867D01*
X1680035Y14994263D01*
X1564491Y14913188D01*
X1465385Y14831444D01*
X1408547Y14775347D01*
X1352464Y14708684D01*
X1298890Y14633551D01*
X1295667Y14628625D01*
X1278821Y14603104D01*
X1264424Y14581970D01*
X1253879Y14567232D01*
X1248589Y14560901D01*
X1248349Y14560800D01*
X1248827Y14566183D01*
X1254219Y14581164D01*
X1263744Y14603990D01*
X1276617Y14632911D01*
X1292057Y14666174D01*
X1309280Y14702026D01*
X1327504Y14738715D01*
X1330434Y14744495D01*
X1361402Y14801726D01*
X1397078Y14861396D01*
X1436272Y14921937D01*
X1477795Y14981785D01*
X1520455Y15039374D01*
X1563061Y15093137D01*
X1604425Y15141510D01*
X1643354Y15182926D01*
X1678659Y15215820D01*
X1703149Y15234713D01*
X1762857Y15271505D01*
X1832954Y15308209D01*
X1911153Y15343975D01*
X1995164Y15377952D01*
X2082700Y15409290D01*
X2171474Y15437137D01*
X2259196Y15460644D01*
X2343579Y15478960D01*
X2375089Y15484513D01*
X2425726Y15491189D01*
X2486241Y15496505D01*
X2553877Y15500361D01*
X2625874Y15502655D01*
X2699475Y15503289D01*
X2771921Y15502161D01*
X2815724Y15500502D01*
X2977878Y15489209D01*
X3129204Y15471281D01*
X3269702Y15446718D01*
X3399373Y15415520D01*
X3518218Y15377687D01*
X3626237Y15333218D01*
X3723431Y15282113D01*
X3809801Y15224371D01*
X3842297Y15198602D01*
X3863622Y15181336D01*
X3881683Y15167673D01*
X3894079Y15159378D01*
X3897969Y15157700D01*
X3906313Y15162110D01*
X3906366Y15174661D01*
X3898628Y15194328D01*
X3883601Y15220089D01*
X3861788Y15250919D01*
X3837209Y15281630D01*
X3777119Y15344090D01*
X3705752Y15402238D01*
X3623861Y15455823D01*
X3532203Y15504593D01*
X3431532Y15548299D01*
X3322605Y15586687D01*
X3206175Y15619509D01*
X3082999Y15646512D01*
X2953830Y15667446D01*
X2819426Y15682060D01*
X2680540Y15690102D01*
X2603600Y15691627D01*
X2564015Y15691942D01*
X2535860Y15692385D01*
X2517868Y15693103D01*
X2508768Y15694243D01*
X2507292Y15695950D01*
X2512171Y15698373D01*
X2520692Y15701205D01*
X2585055Y15718460D01*
X2659421Y15733307D01*
X2741270Y15745429D01*
X2828080Y15754508D01*
X2917327Y15760228D01*
X3006490Y15762272D01*
X3006825Y15762272D01*
X3120549Y15759843D01*
X3226341Y15752024D01*
X3327975Y15738357D01*
X3429220Y15718387D01*
X3487989Y15704065D01*
X3634417Y15659661D01*
X3775472Y15604045D01*
X3910649Y15537732D01*
X4039443Y15461240D01*
X4161346Y15375086D01*
X4275852Y15279788D01*
X4382457Y15175863D01*
X4480654Y15063828D01*
X4569936Y14944201D01*
X4649799Y14817498D01*
X4719735Y14684237D01*
X4779240Y14544935D01*
X4827806Y14400109D01*
X4851678Y14309975D01*
X4866848Y14242375D01*
X4878574Y14179860D01*
X4887223Y14119103D01*
X4893166Y14056777D01*
X4896772Y13989554D01*
X4898410Y13914109D01*
X4898579Y13887700D01*
X4898423Y13820859D01*
X4897285Y13763682D01*
X4894896Y13713152D01*
X4890990Y13666255D01*
X4885298Y13619974D01*
X4877552Y13571292D01*
X4867483Y13517195D01*
X4864147Y13500350D01*
X4828209Y13352395D01*
X4780800Y13209202D01*
X4722420Y13071291D01*
X4653567Y12939183D01*
X4574742Y12813397D01*
X4486444Y12694453D01*
X4389173Y12582872D01*
X4283428Y12479174D01*
X4169709Y12383878D01*
X4048516Y12297506D01*
X3920347Y12220576D01*
X3785702Y12153609D01*
X3645082Y12097126D01*
X3498985Y12051646D01*
X3464025Y12042639D01*
X3404173Y12028389D01*
X3350414Y12017034D01*
X3300016Y12008271D01*
X3250249Y12001797D01*
X3198381Y11997311D01*
X3141680Y11994511D01*
X3077414Y11993094D01*
X3013175Y11992751D01*
X3013175Y11655675D01*
X4226025Y11655675D01*
X4258457Y11670354D01*
X4282098Y11683647D01*
X4304911Y11700541D01*
X4313411Y11708454D01*
X4318613Y11716036D01*
X4329761Y11733968D01*
X4346470Y11761588D01*
X4368359Y11798237D01*
X4395044Y11843252D01*
X4426142Y11895973D01*
X4461270Y11955738D01*
X4500045Y12021887D01*
X4542084Y12093758D01*
X4587005Y12170690D01*
X4634424Y12252022D01*
X4683958Y12337092D01*
X4735225Y12425241D01*
X4787841Y12515806D01*
X4841424Y12608126D01*
X4895590Y12701541D01*
X4949957Y12795389D01*
X5004141Y12889009D01*
X5057760Y12981740D01*
X5110430Y13072921D01*
X5161769Y13161891D01*
X5211394Y13247988D01*
X5258922Y13330551D01*
X5303969Y13408920D01*
X5346153Y13482433D01*
X5385091Y13550430D01*
X5420400Y13612248D01*
X5451697Y13667227D01*
X5478598Y13714705D01*
X5500722Y13754022D01*
X5517685Y13784517D01*
X5529104Y13805528D01*
X5534596Y13816394D01*
X5534907Y13817171D01*
X5540955Y13844317D01*
X5543090Y13877042D01*
X5541249Y13909273D01*
G36*
X4342862Y14776534D02*
G01*
X4332599Y14917426D01*
X4316797Y15049610D01*
X4309800Y15094268D01*
X4304151Y15122862D01*
X4297286Y15140589D01*
X4287075Y15148413D01*
X4271387Y15147300D01*
X4248092Y15138216D01*
X4230932Y15130008D01*
X4173507Y15098469D01*
X4115257Y15060439D01*
X4058462Y15017816D01*
X4005401Y14972501D01*
X3958356Y14926394D01*
X3919604Y14881393D01*
X3900705Y14854824D01*
X3877904Y14811837D01*
X3857602Y14757922D01*
X3840350Y14694699D01*
X3831090Y14649700D01*
X3825886Y14612773D01*
X3822183Y14569223D01*
X3819979Y14521797D01*
X3819270Y14473243D01*
X3820056Y14426308D01*
X3822333Y14383739D01*
X3826100Y14348286D01*
X3831354Y14322694D01*
X3831360Y14322675D01*
X3842617Y14293423D01*
X3855883Y14271333D01*
X3869716Y14258457D01*
X3878154Y14256000D01*
X3886958Y14260091D01*
X3901531Y14270793D01*
X3917947Y14285092D01*
X3944501Y14315869D01*
X3970474Y14357162D01*
X3994852Y14406795D01*
X4016621Y14462594D01*
X4034766Y14522381D01*
X4041503Y14550111D01*
X4045601Y14571954D01*
X4049276Y14597665D01*
X4052160Y14623639D01*
X4053884Y14646276D01*
X4054079Y14661975D01*
X4053399Y14666351D01*
X4044800Y14673925D01*
X4030593Y14672924D01*
X4017446Y14665809D01*
X4002270Y14659900D01*
X3989840Y14665237D01*
X3985284Y14672759D01*
X3986230Y14685782D01*
X3995304Y14708124D01*
X4012349Y14739479D01*
X4037207Y14779542D01*
X4051035Y14800532D01*
X4079079Y14840057D01*
X4102786Y14868052D01*
X4122570Y14884764D01*
X4138847Y14890441D01*
X4152028Y14885330D01*
X4162529Y14869681D01*
X4163362Y14867752D01*
X4172661Y14841426D01*
X4180094Y14810648D01*
X4185872Y14773748D01*
X4190206Y14729059D01*
X4193306Y14674912D01*
X4195261Y14614775D01*
X4196242Y14541493D01*
X4195071Y14478764D01*
X4191285Y14424552D01*
X4184422Y14376823D01*
X4174020Y14333542D01*
X4159616Y14292674D01*
X4140749Y14252184D01*
X4116957Y14210039D01*
X4095640Y14176177D01*
X4056977Y14115044D01*
X4026562Y14063111D01*
X4004238Y14020059D01*
X3989846Y13985568D01*
X3983228Y13959319D01*
X3982834Y13948414D01*
X3986877Y13929204D01*
X3995804Y13921070D01*
X4010294Y13923867D01*
X4031024Y13937451D01*
X4031685Y13937972D01*
X4052200Y13952162D01*
X4077157Y13966681D01*
X4090353Y13973314D01*
X4116734Y13984486D01*
X4135707Y13988957D01*
X4148280Y13985643D01*
X4155459Y13973461D01*
X4158253Y13951326D01*
X4157667Y13918155D01*
X4156734Y13901888D01*
X4152410Y13845568D01*
X4146302Y13782604D01*
X4138737Y13715344D01*
X4130043Y13646136D01*
X4120546Y13577328D01*
X4110574Y13511268D01*
X4100454Y13450305D01*
X4090515Y13396786D01*
X4081082Y13353059D01*
X4079069Y13344831D01*
X4056597Y13266855D01*
X4029433Y13194571D01*
X3996529Y13126340D01*
X3956832Y13060525D01*
X3909294Y12995488D01*
X3852864Y12929592D01*
X3786492Y12861198D01*
X3741402Y12818228D01*
X3694804Y12774145D01*
X3656097Y12735581D01*
X3623214Y12700177D01*
X3594086Y12665571D01*
X3566645Y12629403D01*
X3538823Y12589313D01*
X3532359Y12579600D01*
X3493857Y12522345D01*
X3459742Y12474133D01*
X3428181Y12432937D01*
X3397340Y12396728D01*
X3365386Y12363475D01*
X3330487Y12331151D01*
X3290809Y12297727D01*
X3244950Y12261508D01*
X3204295Y12230608D01*
X3172039Y12207333D01*
X3147041Y12190928D01*
X3128159Y12180637D01*
X3115750Y12176052D01*
X3104967Y12174676D01*
X3100087Y12178166D01*
X3101452Y12187689D01*
X3109401Y12204411D01*
X3124274Y12229500D01*
X3137293Y12250034D01*
X3154498Y12277459D01*
X3170431Y12304052D01*
X3182963Y12326198D01*
X3188558Y12337091D01*
X3201430Y12364457D01*
X3185094Y12385874D01*
X3169897Y12402912D01*
X3155536Y12410588D01*
X3138953Y12409174D01*
X3117087Y12398944D01*
X3106880Y12392878D01*
X3055308Y12367621D01*
X3003497Y12354894D01*
X2951887Y12354726D01*
X2900917Y12367149D01*
X2878464Y12376779D01*
X2839146Y12401267D01*
X2810457Y12431605D01*
X2791962Y12468614D01*
X2783226Y12513116D01*
X2783103Y12556762D01*
X2792141Y12615562D01*
X2811873Y12677159D01*
X2842551Y12742086D01*
X2884427Y12810878D01*
X2937754Y12884068D01*
X2937782Y12884103D01*
X2977923Y12937534D01*
X3009462Y12984482D01*
X3033487Y13026674D01*
X3049440Y13061652D01*
X3057068Y13088358D01*
X3062148Y13121671D01*
X3064620Y13158068D01*
X3064422Y13194027D01*
X3061495Y13226024D01*
X3055778Y13250537D01*
X3052804Y13257261D01*
X3039365Y13275550D01*
X3016672Y13299291D01*
X2986288Y13327287D01*
X2949779Y13358341D01*
X2908711Y13391255D01*
X2864647Y13424832D01*
X2819153Y13457875D01*
X2773795Y13489187D01*
X2730137Y13517570D01*
X2689744Y13541826D01*
X2659564Y13558096D01*
X2606200Y13581701D01*
X2558200Y13595763D01*
X2513247Y13600851D01*
X2489250Y13600054D01*
X2444241Y13593733D01*
X2406031Y13582129D01*
X2373241Y13564010D01*
X2344488Y13538145D01*
X2318392Y13503302D01*
X2293571Y13458251D01*
X2269705Y13404363D01*
X2253224Y13364523D01*
X2239972Y13334146D01*
X2228605Y13310848D01*
X2217779Y13292246D01*
X2206150Y13275954D01*
X2192374Y13259588D01*
X2181160Y13247272D01*
X2150204Y13217182D01*
X2121576Y13197445D01*
X2092503Y13186779D01*
X2060213Y13183906D01*
X2045507Y13184675D01*
X1991668Y13193987D01*
X1946673Y13212257D01*
X1910190Y13239662D01*
X1885383Y13270650D01*
X1872275Y13299113D01*
X1866681Y13329035D01*
X1869130Y13356160D01*
X1873408Y13367108D01*
X1881093Y13375428D01*
X1896950Y13388709D01*
X1918513Y13404981D01*
X1938496Y13419022D01*
X1966424Y13439706D01*
X1999476Y13466824D01*
X2034211Y13497434D01*
X2067187Y13528594D01*
X2070674Y13532044D01*
X2109976Y13572860D01*
X2145337Y13613672D01*
X2177709Y13656083D01*
X2208045Y13701697D01*
X2237298Y13752117D01*
X2266421Y13808947D01*
X2296366Y13873790D01*
X2328087Y13948251D01*
X2349882Y14002000D01*
X2367285Y14044773D01*
X2385391Y14087849D01*
X2402929Y14128303D01*
X2418630Y14163215D01*
X2431222Y14189662D01*
X2432835Y14192856D01*
X2458879Y14239281D01*
X2488952Y14283693D01*
X2524247Y14327339D01*
X2565955Y14371468D01*
X2615271Y14417328D01*
X2673386Y14466168D01*
X2741492Y14519235D01*
X2752825Y14527773D01*
X2818999Y14574594D01*
X2880845Y14611882D01*
X2941017Y14640713D01*
X3002166Y14662163D01*
X3066948Y14677310D01*
X3138014Y14687228D01*
X3148391Y14688240D01*
X3210258Y14690981D01*
X3280157Y14688926D01*
X3354533Y14682481D01*
X3429830Y14672050D01*
X3502494Y14658038D01*
X3568971Y14640850D01*
X3571667Y14640037D01*
X3590793Y14634775D01*
X3602061Y14633833D01*
X3609562Y14637229D01*
X3612835Y14640212D01*
X3618491Y14650445D01*
X3614733Y14661710D01*
X3600742Y14675124D01*
X3575701Y14691804D01*
X3574467Y14692549D01*
X3498803Y14731539D01*
X3414339Y14763213D01*
X3322803Y14787364D01*
X3225920Y14803781D01*
X3125416Y14812256D01*
X3023020Y14812579D01*
X2920456Y14804543D01*
X2819451Y14787938D01*
X2807542Y14785365D01*
X2735488Y14767195D01*
X2665860Y14744829D01*
X2594810Y14716879D01*
X2518488Y14681955D01*
X2511525Y14678568D01*
X2461077Y14652355D01*
X2407362Y14621684D01*
X2352426Y14587942D01*
X2298313Y14552518D01*
X2247069Y14516803D01*
X2200737Y14482183D01*
X2161363Y14450049D01*
X2130991Y14421789D01*
X2126416Y14416981D01*
X2109606Y14398875D01*
X2125835Y14338550D01*
X2132567Y14311671D01*
X2137208Y14287409D01*
X2140145Y14262164D01*
X2141764Y14232336D01*
X2142450Y14194326D01*
X2142522Y14182975D01*
X2142197Y14135806D01*
X2140304Y14096987D01*
X2136226Y14062201D01*
X2129347Y14027134D01*
X2119053Y13987470D01*
X2110348Y13957550D01*
X2097619Y13919112D01*
X2081248Y13875917D01*
X2062635Y13831158D01*
X2043180Y13788029D01*
X2024282Y13749722D01*
X2007342Y13719433D01*
X2003018Y13712640D01*
X1959679Y13657900D01*
X1905710Y13607611D01*
X1842718Y13562829D01*
X1772311Y13524609D01*
X1696098Y13494006D01*
X1648468Y13479798D01*
X1617933Y13471309D01*
X1597931Y13464206D01*
X1586519Y13457514D01*
X1581751Y13450261D01*
X1581250Y13446147D01*
X1584826Y13437857D01*
X1594474Y13422005D01*
X1608575Y13401135D01*
X1620149Y13385012D01*
X1673641Y13319654D01*
X1735852Y13256339D01*
X1803928Y13197492D01*
X1875013Y13145540D01*
X1946252Y13102909D01*
X1961125Y13095288D01*
X1991817Y13080742D01*
X2015661Y13071468D01*
X2036700Y13066205D01*
X2058974Y13063686D01*
X2062909Y13063454D01*
X2088631Y13062985D01*
X2108248Y13065792D01*
X2128212Y13073228D01*
X2142327Y13080111D01*
X2179528Y13099030D01*
X2226300Y13073802D01*
X2258670Y13058340D01*
X2282237Y13051704D01*
X2297299Y13053860D01*
X2304133Y13064667D01*
X2302496Y13075328D01*
X2296227Y13094186D01*
X2286447Y13118112D01*
X2279566Y13133168D01*
X2268425Y13157311D01*
X2260054Y13176807D01*
X2255517Y13189096D01*
X2255118Y13191996D01*
X2260869Y13189438D01*
X2274420Y13180683D01*
X2293491Y13167257D01*
X2307580Y13156887D01*
X2338516Y13134985D01*
X2368106Y13116264D01*
X2394368Y13101784D01*
X2415321Y13092602D01*
X2428983Y13089776D01*
X2431816Y13090568D01*
X2436609Y13095328D01*
X2437171Y13102536D01*
X2432724Y13113906D01*
X2422489Y13131155D01*
X2405686Y13156000D01*
X2395584Y13170385D01*
X2375890Y13199109D01*
X2356664Y13228640D01*
X2340513Y13254897D01*
X2332377Y13269250D01*
X2311979Y13307555D01*
X2333993Y13340243D01*
X2372157Y13387906D01*
X2415099Y13424084D01*
X2463691Y13449238D01*
X2518806Y13463824D01*
X2578200Y13468310D01*
X2632893Y13462258D01*
X2687827Y13444920D01*
X2741562Y13417601D01*
X2792657Y13381603D01*
X2839673Y13338229D01*
X2881168Y13288784D01*
X2915702Y13234569D01*
X2941835Y13176889D01*
X2956348Y13126196D01*
X2961274Y13088634D01*
X2959674Y13051405D01*
X2950997Y13012507D01*
X2934692Y12969938D01*
X2910210Y12921696D01*
X2891047Y12888665D01*
X2878666Y12869005D01*
X2869784Y12858372D01*
X2861868Y12854619D01*
X2852380Y12855600D01*
X2852076Y12855672D01*
X2824005Y12865303D01*
X2788242Y12882171D01*
X2746739Y12905248D01*
X2701447Y12933505D01*
X2690070Y12941050D01*
X2659034Y12961790D01*
X2636733Y12976219D01*
X2621369Y12985122D01*
X2611141Y12989282D01*
X2604252Y12989482D01*
X2598902Y12986505D01*
X2594724Y12982565D01*
X2588816Y12972686D01*
X2587481Y12958060D01*
X2590967Y12936866D01*
X2599518Y12907283D01*
X2608432Y12881225D01*
X2633024Y12820771D01*
X2664208Y12760363D01*
X2693346Y12712315D01*
X2707040Y12690415D01*
X2717624Y12672506D01*
X2723533Y12661283D01*
X2724250Y12659102D01*
X2718825Y12655487D01*
X2704260Y12656206D01*
X2683119Y12660667D01*
X2657968Y12668276D01*
X2631372Y12678443D01*
X2621377Y12682872D01*
X2595736Y12694095D01*
X2579120Y12699614D01*
X2569495Y12699978D01*
X2566064Y12697754D01*
X2565623Y12687771D01*
X2572855Y12669664D01*
X2586971Y12644779D01*
X2607182Y12614459D01*
X2632699Y12580050D01*
X2642435Y12567668D01*
X2659848Y12545493D01*
X2670785Y12529670D01*
X2676752Y12516673D01*
X2679253Y12502975D01*
X2679795Y12485051D01*
X2679800Y12480152D01*
X2681481Y12449913D01*
X2687503Y12423859D01*
X2699339Y12398243D01*
X2718462Y12369316D01*
X2728674Y12355727D01*
X2777093Y12297397D01*
X2827882Y12244697D01*
X2879675Y12198682D01*
X2931105Y12160409D01*
X2980806Y12130933D01*
X3027411Y12111313D01*
X3053436Y12104688D01*
X3082272Y12101218D01*
X3108024Y12102808D01*
X3133499Y12110386D01*
X3161503Y12124883D01*
X3194843Y12147226D01*
X3205480Y12154988D01*
X3296197Y12224816D01*
X3375032Y12291498D01*
X3442320Y12355354D01*
X3498399Y12416707D01*
X3543603Y12475878D01*
X3549670Y12484894D01*
X3570184Y12514337D01*
X3592991Y12544525D01*
X3614625Y12570969D01*
X3625225Y12582775D01*
X3647199Y12606551D01*
X3670276Y12632413D01*
X3689497Y12654799D01*
X3689660Y12654997D01*
X3705475Y12672053D01*
X3728388Y12694236D01*
X3755496Y12718844D01*
X3783897Y12743175D01*
X3787875Y12746458D01*
X3870098Y12818374D01*
X3940516Y12889634D01*
X3999923Y12961181D01*
X4049113Y13033956D01*
X4083310Y13097125D01*
X4101352Y13137308D01*
X4121467Y13187002D01*
X4142642Y13243400D01*
X4163864Y13303694D01*
X4184121Y13365075D01*
X4202399Y13424735D01*
X4206091Y13437478D01*
X4240195Y13569238D01*
X4269856Y13709792D01*
X4294953Y13857195D01*
X4315364Y14009502D01*
X4330966Y14164769D01*
X4341639Y14321050D01*
X4347260Y14476401D01*
X4347709Y14628877D01*
X4342862Y14776534D01*
G37*
X4342862Y14776534D02*
X4332599Y14917426D01*
X4316797Y15049610D01*
X4309800Y15094268D01*
X4304151Y15122862D01*
X4297286Y15140589D01*
X4287075Y15148413D01*
X4271387Y15147300D01*
X4248092Y15138216D01*
X4230932Y15130008D01*
X4173507Y15098469D01*
X4115257Y15060439D01*
X4058462Y15017816D01*
X4005401Y14972501D01*
X3958356Y14926394D01*
X3919604Y14881393D01*
X3900705Y14854824D01*
X3877904Y14811837D01*
X3857602Y14757922D01*
X3840350Y14694699D01*
X3831090Y14649700D01*
X3825886Y14612773D01*
X3822183Y14569223D01*
X3819979Y14521797D01*
X3819270Y14473243D01*
X3820056Y14426308D01*
X3822333Y14383739D01*
X3826100Y14348286D01*
X3831354Y14322694D01*
X3831360Y14322675D01*
X3842617Y14293423D01*
X3855883Y14271333D01*
X3869716Y14258457D01*
X3878154Y14256000D01*
X3886958Y14260091D01*
X3901531Y14270793D01*
X3917947Y14285092D01*
X3944501Y14315869D01*
X3970474Y14357162D01*
X3994852Y14406795D01*
X4016621Y14462594D01*
X4034766Y14522381D01*
X4041503Y14550111D01*
X4045601Y14571954D01*
X4049276Y14597665D01*
X4052160Y14623639D01*
X4053884Y14646276D01*
X4054079Y14661975D01*
X4053399Y14666351D01*
X4044800Y14673925D01*
X4030593Y14672924D01*
X4017446Y14665809D01*
X4002270Y14659900D01*
X3989840Y14665237D01*
X3985284Y14672759D01*
X3986230Y14685782D01*
X3995304Y14708124D01*
X4012349Y14739479D01*
X4037207Y14779542D01*
X4051035Y14800532D01*
X4079079Y14840057D01*
X4102786Y14868052D01*
X4122570Y14884764D01*
X4138847Y14890441D01*
X4152028Y14885330D01*
X4162529Y14869681D01*
X4163362Y14867752D01*
X4172661Y14841426D01*
X4180094Y14810648D01*
X4185872Y14773748D01*
X4190206Y14729059D01*
X4193306Y14674912D01*
X4195261Y14614775D01*
X4196242Y14541493D01*
X4195071Y14478764D01*
X4191285Y14424552D01*
X4184422Y14376823D01*
X4174020Y14333542D01*
X4159616Y14292674D01*
X4140749Y14252184D01*
X4116957Y14210039D01*
X4095640Y14176177D01*
X4056977Y14115044D01*
X4026562Y14063111D01*
X4004238Y14020059D01*
X3989846Y13985568D01*
X3983228Y13959319D01*
X3982834Y13948414D01*
X3986877Y13929204D01*
X3995804Y13921070D01*
X4010294Y13923867D01*
X4031024Y13937451D01*
X4031685Y13937972D01*
X4052200Y13952162D01*
X4077157Y13966681D01*
X4090353Y13973314D01*
X4116734Y13984486D01*
X4135707Y13988957D01*
X4148280Y13985643D01*
X4155459Y13973461D01*
X4158253Y13951326D01*
X4157667Y13918155D01*
X4156734Y13901888D01*
X4152410Y13845568D01*
X4146302Y13782604D01*
X4138737Y13715344D01*
X4130043Y13646136D01*
X4120546Y13577328D01*
X4110574Y13511268D01*
X4100454Y13450305D01*
X4090515Y13396786D01*
X4081082Y13353059D01*
X4079069Y13344831D01*
X4056597Y13266855D01*
X4029433Y13194571D01*
X3996529Y13126340D01*
X3956832Y13060525D01*
X3909294Y12995488D01*
X3852864Y12929592D01*
X3786492Y12861198D01*
X3741402Y12818228D01*
X3694804Y12774145D01*
X3656097Y12735581D01*
X3623214Y12700177D01*
X3594086Y12665571D01*
X3566645Y12629403D01*
X3538823Y12589313D01*
X3532359Y12579600D01*
X3493857Y12522345D01*
X3459742Y12474133D01*
X3428181Y12432937D01*
X3397340Y12396728D01*
X3365386Y12363475D01*
X3330487Y12331151D01*
X3290809Y12297727D01*
X3244950Y12261508D01*
X3204295Y12230608D01*
X3172039Y12207333D01*
X3147041Y12190928D01*
X3128159Y12180637D01*
X3115750Y12176052D01*
X3104967Y12174676D01*
X3100087Y12178166D01*
X3101452Y12187689D01*
X3109401Y12204411D01*
X3124274Y12229500D01*
X3137293Y12250034D01*
X3154498Y12277459D01*
X3170431Y12304052D01*
X3182963Y12326198D01*
X3188558Y12337091D01*
X3201430Y12364457D01*
X3185094Y12385874D01*
X3169897Y12402912D01*
X3155536Y12410588D01*
X3138953Y12409174D01*
X3117087Y12398944D01*
X3106880Y12392878D01*
X3055308Y12367621D01*
X3003497Y12354894D01*
X2951887Y12354726D01*
X2900917Y12367149D01*
X2878464Y12376779D01*
X2839146Y12401267D01*
X2810457Y12431605D01*
X2791962Y12468614D01*
X2783226Y12513116D01*
X2783103Y12556762D01*
X2792141Y12615562D01*
X2811873Y12677159D01*
X2842551Y12742086D01*
X2884427Y12810878D01*
X2937754Y12884068D01*
X2937782Y12884103D01*
X2977923Y12937534D01*
X3009462Y12984482D01*
X3033487Y13026674D01*
X3049440Y13061652D01*
X3057068Y13088358D01*
X3062148Y13121671D01*
X3064620Y13158068D01*
X3064422Y13194027D01*
X3061495Y13226024D01*
X3055778Y13250537D01*
X3052804Y13257261D01*
X3039365Y13275550D01*
X3016672Y13299291D01*
X2986288Y13327287D01*
X2949779Y13358341D01*
X2908711Y13391255D01*
X2864647Y13424832D01*
X2819153Y13457875D01*
X2773795Y13489187D01*
X2730137Y13517570D01*
X2689744Y13541826D01*
X2659564Y13558096D01*
X2606200Y13581701D01*
X2558200Y13595763D01*
X2513247Y13600851D01*
X2489250Y13600054D01*
X2444241Y13593733D01*
X2406031Y13582129D01*
X2373241Y13564010D01*
X2344488Y13538145D01*
X2318392Y13503302D01*
X2293571Y13458251D01*
X2269705Y13404363D01*
X2253224Y13364523D01*
X2239972Y13334146D01*
X2228605Y13310848D01*
X2217779Y13292246D01*
X2206150Y13275954D01*
X2192374Y13259588D01*
X2181160Y13247272D01*
X2150204Y13217182D01*
X2121576Y13197445D01*
X2092503Y13186779D01*
X2060213Y13183906D01*
X2045507Y13184675D01*
X1991668Y13193987D01*
X1946673Y13212257D01*
X1910190Y13239662D01*
X1885383Y13270650D01*
X1872275Y13299113D01*
X1866681Y13329035D01*
X1869130Y13356160D01*
X1873408Y13367108D01*
X1881093Y13375428D01*
X1896950Y13388709D01*
X1918513Y13404981D01*
X1938496Y13419022D01*
X1966424Y13439706D01*
X1999476Y13466824D01*
X2034211Y13497434D01*
X2067187Y13528594D01*
X2070674Y13532044D01*
X2109976Y13572860D01*
X2145337Y13613672D01*
X2177709Y13656083D01*
X2208045Y13701697D01*
X2237298Y13752117D01*
X2266421Y13808947D01*
X2296366Y13873790D01*
X2328087Y13948251D01*
X2349882Y14002000D01*
X2367285Y14044773D01*
X2385391Y14087849D01*
X2402929Y14128303D01*
X2418630Y14163215D01*
X2431222Y14189662D01*
X2432835Y14192856D01*
X2458879Y14239281D01*
X2488952Y14283693D01*
X2524247Y14327339D01*
X2565955Y14371468D01*
X2615271Y14417328D01*
X2673386Y14466168D01*
X2741492Y14519235D01*
X2752825Y14527773D01*
X2818999Y14574594D01*
X2880845Y14611882D01*
X2941017Y14640713D01*
X3002166Y14662163D01*
X3066948Y14677310D01*
X3138014Y14687228D01*
X3148391Y14688240D01*
X3210258Y14690981D01*
X3280157Y14688926D01*
X3354533Y14682481D01*
X3429830Y14672050D01*
X3502494Y14658038D01*
X3568971Y14640850D01*
X3571667Y14640037D01*
X3590793Y14634775D01*
X3602061Y14633833D01*
X3609562Y14637229D01*
X3612835Y14640212D01*
X3618491Y14650445D01*
X3614733Y14661710D01*
X3600742Y14675124D01*
X3575701Y14691804D01*
X3574467Y14692549D01*
X3498803Y14731539D01*
X3414339Y14763213D01*
X3322803Y14787364D01*
X3225920Y14803781D01*
X3125416Y14812256D01*
X3023020Y14812579D01*
X2920456Y14804543D01*
X2819451Y14787938D01*
X2807542Y14785365D01*
X2735488Y14767195D01*
X2665860Y14744829D01*
X2594810Y14716879D01*
X2518488Y14681955D01*
X2511525Y14678568D01*
X2461077Y14652355D01*
X2407362Y14621684D01*
X2352426Y14587942D01*
X2298313Y14552518D01*
X2247069Y14516803D01*
X2200737Y14482183D01*
X2161363Y14450049D01*
X2130991Y14421789D01*
X2126416Y14416981D01*
X2109606Y14398875D01*
X2125835Y14338550D01*
X2132567Y14311671D01*
X2137208Y14287409D01*
X2140145Y14262164D01*
X2141764Y14232336D01*
X2142450Y14194326D01*
X2142522Y14182975D01*
X2142197Y14135806D01*
X2140304Y14096987D01*
X2136226Y14062201D01*
X2129347Y14027134D01*
X2119053Y13987470D01*
X2110348Y13957550D01*
X2097619Y13919112D01*
X2081248Y13875917D01*
X2062635Y13831158D01*
X2043180Y13788029D01*
X2024282Y13749722D01*
X2007342Y13719433D01*
X2003018Y13712640D01*
X1959679Y13657900D01*
X1905710Y13607611D01*
X1842718Y13562829D01*
X1772311Y13524609D01*
X1696098Y13494006D01*
X1648468Y13479798D01*
X1617933Y13471309D01*
X1597931Y13464206D01*
X1586519Y13457514D01*
X1581751Y13450261D01*
X1581250Y13446147D01*
X1584826Y13437857D01*
X1594474Y13422005D01*
X1608575Y13401135D01*
X1620149Y13385012D01*
X1673641Y13319654D01*
X1735852Y13256339D01*
X1803928Y13197492D01*
X1875013Y13145540D01*
X1946252Y13102909D01*
X1961125Y13095288D01*
X1991817Y13080742D01*
X2015661Y13071468D01*
X2036700Y13066205D01*
X2058974Y13063686D01*
X2062909Y13063454D01*
X2088631Y13062985D01*
X2108248Y13065792D01*
X2128212Y13073228D01*
X2142327Y13080111D01*
X2179528Y13099030D01*
X2226300Y13073802D01*
X2258670Y13058340D01*
X2282237Y13051704D01*
X2297299Y13053860D01*
X2304133Y13064667D01*
X2302496Y13075328D01*
X2296227Y13094186D01*
X2286447Y13118112D01*
X2279566Y13133168D01*
X2268425Y13157311D01*
X2260054Y13176807D01*
X2255517Y13189096D01*
X2255118Y13191996D01*
X2260869Y13189438D01*
X2274420Y13180683D01*
X2293491Y13167257D01*
X2307580Y13156887D01*
X2338516Y13134985D01*
X2368106Y13116264D01*
X2394368Y13101784D01*
X2415321Y13092602D01*
X2428983Y13089776D01*
X2431816Y13090568D01*
X2436609Y13095328D01*
X2437171Y13102536D01*
X2432724Y13113906D01*
X2422489Y13131155D01*
X2405686Y13156000D01*
X2395584Y13170385D01*
X2375890Y13199109D01*
X2356664Y13228640D01*
X2340513Y13254897D01*
X2332377Y13269250D01*
X2311979Y13307555D01*
X2333993Y13340243D01*
X2372157Y13387906D01*
X2415099Y13424084D01*
X2463691Y13449238D01*
X2518806Y13463824D01*
X2578200Y13468310D01*
X2632893Y13462258D01*
X2687827Y13444920D01*
X2741562Y13417601D01*
X2792657Y13381603D01*
X2839673Y13338229D01*
X2881168Y13288784D01*
X2915702Y13234569D01*
X2941835Y13176889D01*
X2956348Y13126196D01*
X2961274Y13088634D01*
X2959674Y13051405D01*
X2950997Y13012507D01*
X2934692Y12969938D01*
X2910210Y12921696D01*
X2891047Y12888665D01*
X2878666Y12869005D01*
X2869784Y12858372D01*
X2861868Y12854619D01*
X2852380Y12855600D01*
X2852076Y12855672D01*
X2824005Y12865303D01*
X2788242Y12882171D01*
X2746739Y12905248D01*
X2701447Y12933505D01*
X2690070Y12941050D01*
X2659034Y12961790D01*
X2636733Y12976219D01*
X2621369Y12985122D01*
X2611141Y12989282D01*
X2604252Y12989482D01*
X2598902Y12986505D01*
X2594724Y12982565D01*
X2588816Y12972686D01*
X2587481Y12958060D01*
X2590967Y12936866D01*
X2599518Y12907283D01*
X2608432Y12881225D01*
X2633024Y12820771D01*
X2664208Y12760363D01*
X2693346Y12712315D01*
X2707040Y12690415D01*
X2717624Y12672506D01*
X2723533Y12661283D01*
X2724250Y12659102D01*
X2718825Y12655487D01*
X2704260Y12656206D01*
X2683119Y12660667D01*
X2657968Y12668276D01*
X2631372Y12678443D01*
X2621377Y12682872D01*
X2595736Y12694095D01*
X2579120Y12699614D01*
X2569495Y12699978D01*
X2566064Y12697754D01*
X2565623Y12687771D01*
X2572855Y12669664D01*
X2586971Y12644779D01*
X2607182Y12614459D01*
X2632699Y12580050D01*
X2642435Y12567668D01*
X2659848Y12545493D01*
X2670785Y12529670D01*
X2676752Y12516673D01*
X2679253Y12502975D01*
X2679795Y12485051D01*
X2679800Y12480152D01*
X2681481Y12449913D01*
X2687503Y12423859D01*
X2699339Y12398243D01*
X2718462Y12369316D01*
X2728674Y12355727D01*
X2777093Y12297397D01*
X2827882Y12244697D01*
X2879675Y12198682D01*
X2931105Y12160409D01*
X2980806Y12130933D01*
X3027411Y12111313D01*
X3053436Y12104688D01*
X3082272Y12101218D01*
X3108024Y12102808D01*
X3133499Y12110386D01*
X3161503Y12124883D01*
X3194843Y12147226D01*
X3205480Y12154988D01*
X3296197Y12224816D01*
X3375032Y12291498D01*
X3442320Y12355354D01*
X3498399Y12416707D01*
X3543603Y12475878D01*
X3549670Y12484894D01*
X3570184Y12514337D01*
X3592991Y12544525D01*
X3614625Y12570969D01*
X3625225Y12582775D01*
X3647199Y12606551D01*
X3670276Y12632413D01*
X3689497Y12654799D01*
X3689660Y12654997D01*
X3705475Y12672053D01*
X3728388Y12694236D01*
X3755496Y12718844D01*
X3783897Y12743175D01*
X3787875Y12746458D01*
X3870098Y12818374D01*
X3940516Y12889634D01*
X3999923Y12961181D01*
X4049113Y13033956D01*
X4083310Y13097125D01*
X4101352Y13137308D01*
X4121467Y13187002D01*
X4142642Y13243400D01*
X4163864Y13303694D01*
X4184121Y13365075D01*
X4202399Y13424735D01*
X4206091Y13437478D01*
X4240195Y13569238D01*
X4269856Y13709792D01*
X4294953Y13857195D01*
X4315364Y14009502D01*
X4330966Y14164769D01*
X4341639Y14321050D01*
X4347260Y14476401D01*
X4347709Y14628877D01*
X4342862Y14776534D01*
G36*
X3419695Y12826779D02*
G01*
X3411781Y12843267D01*
X3400891Y12863631D01*
X3388906Y12884427D01*
X3377706Y12902210D01*
X3372637Y12909362D01*
X3350275Y12933067D01*
X3320498Y12956972D01*
X3287815Y12977952D01*
X3256737Y12992883D01*
X3247734Y12995911D01*
X3220689Y13001415D01*
X3191502Y13003942D01*
X3180228Y13003807D01*
X3146525Y13001875D01*
X3179736Y12993383D01*
X3214565Y12980320D01*
X3250980Y12959797D01*
X3284118Y12934948D01*
X3307440Y12911076D01*
X3320494Y12892672D01*
X3334521Y12869898D01*
X3347737Y12846061D01*
X3358357Y12824468D01*
X3364598Y12808425D01*
X3365520Y12803437D01*
X3369738Y12796059D01*
X3372154Y12795500D01*
X3382466Y12797790D01*
X3397232Y12803291D01*
X3411746Y12809946D01*
X3421302Y12815697D01*
X3422750Y12817612D01*
X3419695Y12826779D01*
G37*
X3419695Y12826779D02*
X3411781Y12843267D01*
X3400891Y12863631D01*
X3388906Y12884427D01*
X3377706Y12902210D01*
X3372637Y12909362D01*
X3350275Y12933067D01*
X3320498Y12956972D01*
X3287815Y12977952D01*
X3256737Y12992883D01*
X3247734Y12995911D01*
X3220689Y13001415D01*
X3191502Y13003942D01*
X3180228Y13003807D01*
X3146525Y13001875D01*
X3179736Y12993383D01*
X3214565Y12980320D01*
X3250980Y12959797D01*
X3284118Y12934948D01*
X3307440Y12911076D01*
X3320494Y12892672D01*
X3334521Y12869898D01*
X3347737Y12846061D01*
X3358357Y12824468D01*
X3364598Y12808425D01*
X3365520Y12803437D01*
X3369738Y12796059D01*
X3372154Y12795500D01*
X3382466Y12797790D01*
X3397232Y12803291D01*
X3411746Y12809946D01*
X3421302Y12815697D01*
X3422750Y12817612D01*
X3419695Y12826779D01*
G36*
X3672258Y14085243D02*
G01*
X3665000Y14082339D01*
X3650380Y14073709D01*
X3627270Y14058786D01*
X3604897Y14043934D01*
X3569040Y14020362D01*
X3527146Y13993407D01*
X3484091Y13966176D01*
X3444753Y13941776D01*
X3439713Y13938698D01*
X3406485Y13918193D01*
X3382776Y13902792D01*
X3367079Y13891303D01*
X3357884Y13882533D01*
X3353683Y13875289D01*
X3352900Y13870084D01*
X3351298Y13853742D01*
X3346785Y13827048D01*
X3339805Y13791900D01*
X3330800Y13750196D01*
X3320212Y13703833D01*
X3308486Y13654710D01*
X3296062Y13604725D01*
X3283384Y13555774D01*
X3270895Y13509756D01*
X3259992Y13471775D01*
X3258837Y13463535D01*
X3262847Y13465425D01*
X3268219Y13473337D01*
X3277881Y13490110D01*
X3290438Y13513247D01*
X3303841Y13538960D01*
X3325313Y13584948D01*
X3346622Y13637769D01*
X3366337Y13693303D01*
X3383025Y13747427D01*
X3395252Y13796018D01*
X3398026Y13809930D01*
X3402696Y13833746D01*
X3407612Y13849064D01*
X3415293Y13859883D01*
X3428256Y13870202D01*
X3441594Y13879120D01*
X3482122Y13907296D01*
X3523718Y13938861D01*
X3564276Y13971995D01*
X3601694Y14004876D01*
X3633867Y14035681D01*
X3658690Y14062591D01*
X3669190Y14076123D01*
X3673279Y14082983D01*
X3672258Y14085243D01*
G37*
X3672258Y14085243D02*
X3665000Y14082339D01*
X3650380Y14073709D01*
X3627270Y14058786D01*
X3604897Y14043934D01*
X3569040Y14020362D01*
X3527146Y13993407D01*
X3484091Y13966176D01*
X3444753Y13941776D01*
X3439713Y13938698D01*
X3406485Y13918193D01*
X3382776Y13902792D01*
X3367079Y13891303D01*
X3357884Y13882533D01*
X3353683Y13875289D01*
X3352900Y13870084D01*
X3351298Y13853742D01*
X3346785Y13827048D01*
X3339805Y13791900D01*
X3330800Y13750196D01*
X3320212Y13703833D01*
X3308486Y13654710D01*
X3296062Y13604725D01*
X3283384Y13555774D01*
X3270895Y13509756D01*
X3259992Y13471775D01*
X3258837Y13463535D01*
X3262847Y13465425D01*
X3268219Y13473337D01*
X3277881Y13490110D01*
X3290438Y13513247D01*
X3303841Y13538960D01*
X3325313Y13584948D01*
X3346622Y13637769D01*
X3366337Y13693303D01*
X3383025Y13747427D01*
X3395252Y13796018D01*
X3398026Y13809930D01*
X3402696Y13833746D01*
X3407612Y13849064D01*
X3415293Y13859883D01*
X3428256Y13870202D01*
X3441594Y13879120D01*
X3482122Y13907296D01*
X3523718Y13938861D01*
X3564276Y13971995D01*
X3601694Y14004876D01*
X3633867Y14035681D01*
X3658690Y14062591D01*
X3669190Y14076123D01*
X3673279Y14082983D01*
X3672258Y14085243D01*
G36*
X3843412Y13359050D02*
G01*
X3829237Y13363955D01*
X3805648Y13360620D01*
X3793404Y13356902D01*
X3756072Y13340248D01*
X3718952Y13316755D01*
X3686978Y13289782D01*
X3674251Y13275777D01*
X3663353Y13261581D01*
X3647646Y13240221D01*
X3628709Y13213942D01*
X3608120Y13184985D01*
X3587458Y13155595D01*
X3568303Y13128014D01*
X3552232Y13104486D01*
X3540827Y13087253D01*
X3536204Y13079662D01*
X3533311Y13070714D01*
X3534898Y13068550D01*
X3542455Y13071884D01*
X3556321Y13080337D01*
X3564242Y13085666D01*
X3588942Y13102783D01*
X3609034Y13079890D01*
X3634650Y13055024D01*
X3660816Y13039811D01*
X3691854Y13031776D01*
X3693480Y13031537D01*
X3711616Y13028379D01*
X3721373Y13023200D01*
X3726670Y13012301D01*
X3730391Y12996700D01*
X3735334Y12979121D01*
X3740527Y12968128D01*
X3742989Y12966258D01*
X3745924Y12972121D01*
X3751545Y12988475D01*
X3759353Y13013515D01*
X3768850Y13045437D01*
X3779536Y13082437D01*
X3790912Y13122712D01*
X3802479Y13164457D01*
X3813739Y13205869D01*
X3824192Y13245144D01*
X3833339Y13280477D01*
X3840681Y13310065D01*
X3845720Y13332104D01*
X3847955Y13344790D01*
X3848021Y13345934D01*
X3843412Y13359050D01*
G37*
X3843412Y13359050D02*
X3829237Y13363955D01*
X3805648Y13360620D01*
X3793404Y13356902D01*
X3756072Y13340248D01*
X3718952Y13316755D01*
X3686978Y13289782D01*
X3674251Y13275777D01*
X3663353Y13261581D01*
X3647646Y13240221D01*
X3628709Y13213942D01*
X3608120Y13184985D01*
X3587458Y13155595D01*
X3568303Y13128014D01*
X3552232Y13104486D01*
X3540827Y13087253D01*
X3536204Y13079662D01*
X3533311Y13070714D01*
X3534898Y13068550D01*
X3542455Y13071884D01*
X3556321Y13080337D01*
X3564242Y13085666D01*
X3588942Y13102783D01*
X3609034Y13079890D01*
X3634650Y13055024D01*
X3660816Y13039811D01*
X3691854Y13031776D01*
X3693480Y13031537D01*
X3711616Y13028379D01*
X3721373Y13023200D01*
X3726670Y13012301D01*
X3730391Y12996700D01*
X3735334Y12979121D01*
X3740527Y12968128D01*
X3742989Y12966258D01*
X3745924Y12972121D01*
X3751545Y12988475D01*
X3759353Y13013515D01*
X3768850Y13045437D01*
X3779536Y13082437D01*
X3790912Y13122712D01*
X3802479Y13164457D01*
X3813739Y13205869D01*
X3824192Y13245144D01*
X3833339Y13280477D01*
X3840681Y13310065D01*
X3845720Y13332104D01*
X3847955Y13344790D01*
X3848021Y13345934D01*
X3843412Y13359050D01*
%TD*%
D12*
%TO.P,J1,1*%
%TO.N,/+3.3V*%
X38735000Y16510000D03*
D13*
%TO.P,J1,2*%
%TO.N,/+5V*%
X40005000Y16510000D03*
%TO.P,J1,3*%
%TO.N,/ANA_IN*%
X38735000Y15240000D03*
%TO.P,J1,4*%
%TO.N,/LIM_FWD*%
X40005000Y15240000D03*
%TO.P,J1,5*%
%TO.N,/ENC_B*%
X38735000Y13970000D03*
%TO.P,J1,6*%
%TO.N,Net-(J1-Pad6)*%
X40005000Y13970000D03*
%TO.P,J1,7*%
%TO.N,/ENC_A*%
X38735000Y12700000D03*
%TO.P,J1,8*%
%TO.N,/LIM_REV*%
X40005000Y12700000D03*
%TO.P,J1,9*%
%TO.N,/ENC_IDX*%
X38735000Y11430000D03*
%TO.P,J1,10*%
%TO.N,GND*%
X40005000Y11430000D03*
%TD*%
D14*
%TO.N,*%
X11049000Y11938000D03*
X11049000Y12700000D03*
X7239000Y11938000D03*
X7239000Y12700000D03*
X11049000Y15240000D03*
X11049000Y16002000D03*
X7239000Y16002000D03*
X7239000Y15240000D03*
X11049000Y25908000D03*
X7239000Y26670000D03*
X11049000Y26670000D03*
X7239000Y25908000D03*
X7239000Y1270000D03*
X11049000Y1270000D03*
X7239000Y2032000D03*
X11049000Y2032000D03*
X24003000Y4572000D03*
X24003000Y3810000D03*
X27813000Y4572000D03*
X27813000Y3810000D03*
X27813000Y15240000D03*
X24003000Y15240000D03*
X24003000Y14478000D03*
X27813000Y14478000D03*
%TO.N,/LIM_REV*%
X34417000Y11938000D03*
%TO.N,/LIM_FWD*%
X40886001Y9136001D03*
%TO.N,/+3.3V*%
X19812000Y15621000D03*
%TO.N,/+5V*%
X20828000Y17526000D03*
%TO.N,/ENC_B*%
X22733000Y15621000D03*
%TO.N,/ENC_A*%
X21971000Y15113000D03*
%TD*%
D15*
%TO.N,/LIM_REV*%
X40005000Y12700000D02*
X40640000Y12700000D01*
X40640000Y12700000D02*
X40894000Y12446000D01*
X40894000Y12446000D02*
X40894000Y10795000D01*
X35806001Y10548999D02*
X34417000Y11938000D01*
X40647999Y10548999D02*
X35806001Y10548999D01*
X40894000Y10795000D02*
X40647999Y10548999D01*
%TO.N,/LIM_FWD*%
X40005000Y15238767D02*
X41402000Y13841767D01*
X40005000Y15240000D02*
X40005000Y15238767D01*
X41402000Y9652000D02*
X40886001Y9136001D01*
X41402000Y13841767D02*
X41402000Y9652000D01*
D16*
%TO.N,/+3.3V*%
X19812000Y15621000D02*
X21336000Y15621000D01*
X21336000Y15621000D02*
X22225000Y16510000D01*
X38735000Y16510000D02*
X22225000Y16510000D01*
%TO.N,/+5V*%
X40005000Y17217106D02*
X39729505Y17492601D01*
X40005000Y16510000D02*
X40005000Y17217106D01*
X39729505Y17492601D02*
X22512399Y17492601D01*
X20861399Y17492601D02*
X20828000Y17526000D01*
X22512399Y17492601D02*
X20861399Y17492601D01*
X22512399Y17492601D02*
X20988399Y17492601D01*
D15*
%TO.N,/ENC_B*%
X23495000Y13970000D02*
X23749000Y13970000D01*
X38735000Y13970000D02*
X23749000Y13970000D01*
%TO.N,/ENC_A*%
X38735000Y12700000D02*
X26543000Y12700000D01*
X26543000Y12700000D02*
X26162000Y13081000D01*
D16*
%TO.N,/ENC_IDX*%
X38735000Y11430000D02*
X38608000Y11557000D01*
D15*
%TO.N,/ENC_B*%
X22733000Y14732000D02*
X23495000Y13970000D01*
X22733000Y15621000D02*
X22733000Y14732000D01*
%TO.N,/ENC_A*%
X21971000Y14224000D02*
X23114000Y13081000D01*
X21971000Y15113000D02*
X21971000Y14224000D01*
X26162000Y13081000D02*
X23114000Y13081000D01*
%TD*%
M02*
