%TF.GenerationSoftware,KiCad,Pcbnew,(5.1.6-0)*%
%TF.CreationDate,2022-04-21T00:04:20-07:00*%
%TF.ProjectId,talonsrx-enc-limit-ftc,74616c6f-6e73-4727-982d-656e632d6c69,rev?*%
%TF.SameCoordinates,PX695f190PY69fa208*%
%TF.FileFunction,Copper,L2,Bot*%
%TF.FilePolarity,Positive*%
%FSLAX46Y46*%
G04 Gerber Fmt 4.6, Leading zero omitted, Abs format (unit mm)*
G04 Created by KiCad (PCBNEW (5.1.6-0)) date 2022-04-21 00:04:20*
%MOMM*%
%LPD*%
G01*
G04 APERTURE LIST*
%TA.AperFunction,NonConductor*%
%ADD10C,0.150000*%
%TD*%
%TA.AperFunction,EtchedComponent*%
%ADD11C,0.010000*%
%TD*%
%TA.AperFunction,ComponentPad*%
%ADD12R,1.000000X1.000000*%
%TD*%
%TA.AperFunction,ComponentPad*%
%ADD13O,1.000000X1.000000*%
%TD*%
%TA.AperFunction,ViaPad*%
%ADD14C,0.609600*%
%TD*%
%TA.AperFunction,Conductor*%
%ADD15C,0.254000*%
%TD*%
%TA.AperFunction,Conductor*%
%ADD16C,0.457200*%
%TD*%
G04 APERTURE END LIST*
D10*
X43092619Y6970000D02*
X43092619Y7541429D01*
X42092619Y7255715D02*
X43092619Y7255715D01*
X42092619Y8303334D02*
X42616428Y8303334D01*
X42711666Y8255715D01*
X42759285Y8160477D01*
X42759285Y7970000D01*
X42711666Y7874762D01*
X42140238Y8303334D02*
X42092619Y8208096D01*
X42092619Y7970000D01*
X42140238Y7874762D01*
X42235476Y7827143D01*
X42330714Y7827143D01*
X42425952Y7874762D01*
X42473571Y7970000D01*
X42473571Y8208096D01*
X42521190Y8303334D01*
X42092619Y8922381D02*
X42140238Y8827143D01*
X42235476Y8779524D01*
X43092619Y8779524D01*
X42092619Y9446191D02*
X42140238Y9350953D01*
X42187857Y9303334D01*
X42283095Y9255715D01*
X42568809Y9255715D01*
X42664047Y9303334D01*
X42711666Y9350953D01*
X42759285Y9446191D01*
X42759285Y9589048D01*
X42711666Y9684286D01*
X42664047Y9731905D01*
X42568809Y9779524D01*
X42283095Y9779524D01*
X42187857Y9731905D01*
X42140238Y9684286D01*
X42092619Y9589048D01*
X42092619Y9446191D01*
X42759285Y10208096D02*
X42092619Y10208096D01*
X42664047Y10208096D02*
X42711666Y10255715D01*
X42759285Y10350953D01*
X42759285Y10493810D01*
X42711666Y10589048D01*
X42616428Y10636667D01*
X42092619Y10636667D01*
X42140238Y11065239D02*
X42092619Y11208096D01*
X42092619Y11446191D01*
X42140238Y11541429D01*
X42187857Y11589048D01*
X42283095Y11636667D01*
X42378333Y11636667D01*
X42473571Y11589048D01*
X42521190Y11541429D01*
X42568809Y11446191D01*
X42616428Y11255715D01*
X42664047Y11160477D01*
X42711666Y11112858D01*
X42806904Y11065239D01*
X42902142Y11065239D01*
X42997380Y11112858D01*
X43045000Y11160477D01*
X43092619Y11255715D01*
X43092619Y11493810D01*
X43045000Y11636667D01*
X42092619Y12636667D02*
X42568809Y12303334D01*
X42092619Y12065239D02*
X43092619Y12065239D01*
X43092619Y12446191D01*
X43045000Y12541429D01*
X42997380Y12589048D01*
X42902142Y12636667D01*
X42759285Y12636667D01*
X42664047Y12589048D01*
X42616428Y12541429D01*
X42568809Y12446191D01*
X42568809Y12065239D01*
X43092619Y12970000D02*
X42092619Y13636667D01*
X43092619Y13636667D02*
X42092619Y12970000D01*
X42616428Y14779524D02*
X42616428Y15112858D01*
X42092619Y15255715D02*
X42092619Y14779524D01*
X43092619Y14779524D01*
X43092619Y15255715D01*
X42759285Y15684286D02*
X42092619Y15684286D01*
X42664047Y15684286D02*
X42711666Y15731905D01*
X42759285Y15827143D01*
X42759285Y15970000D01*
X42711666Y16065239D01*
X42616428Y16112858D01*
X42092619Y16112858D01*
X42140238Y17017620D02*
X42092619Y16922381D01*
X42092619Y16731905D01*
X42140238Y16636667D01*
X42187857Y16589048D01*
X42283095Y16541429D01*
X42568809Y16541429D01*
X42664047Y16589048D01*
X42711666Y16636667D01*
X42759285Y16731905D01*
X42759285Y16922381D01*
X42711666Y17017620D01*
X42473571Y17446191D02*
X42473571Y18208096D01*
X42092619Y17827143D02*
X42854523Y17827143D01*
X42092619Y19160477D02*
X42092619Y18684286D01*
X43092619Y18684286D01*
X42092619Y19493810D02*
X42759285Y19493810D01*
X43092619Y19493810D02*
X43045000Y19446191D01*
X42997380Y19493810D01*
X43045000Y19541429D01*
X43092619Y19493810D01*
X42997380Y19493810D01*
X42092619Y19970000D02*
X42759285Y19970000D01*
X42664047Y19970000D02*
X42711666Y20017620D01*
X42759285Y20112858D01*
X42759285Y20255715D01*
X42711666Y20350953D01*
X42616428Y20398572D01*
X42092619Y20398572D01*
X42616428Y20398572D02*
X42711666Y20446191D01*
X42759285Y20541429D01*
X42759285Y20684286D01*
X42711666Y20779524D01*
X42616428Y20827143D01*
X42092619Y20827143D01*
X2404619Y11517620D02*
X2880809Y11184286D01*
X2404619Y10946191D02*
X3404619Y10946191D01*
X3404619Y11327143D01*
X3357000Y11422381D01*
X3309380Y11470000D01*
X3214142Y11517620D01*
X3071285Y11517620D01*
X2976047Y11470000D01*
X2928428Y11422381D01*
X2880809Y11327143D01*
X2880809Y10946191D01*
X2404619Y12470000D02*
X2404619Y11898572D01*
X2404619Y12184286D02*
X3404619Y12184286D01*
X3261761Y12089048D01*
X3166523Y11993810D01*
X3118904Y11898572D01*
X3309380Y13612858D02*
X3357000Y13660477D01*
X3404619Y13755715D01*
X3404619Y13993810D01*
X3357000Y14089048D01*
X3309380Y14136667D01*
X3214142Y14184286D01*
X3118904Y14184286D01*
X2976047Y14136667D01*
X2404619Y13565239D01*
X2404619Y14184286D01*
X3404619Y14803334D02*
X3404619Y14898572D01*
X3357000Y14993810D01*
X3309380Y15041429D01*
X3214142Y15089048D01*
X3023666Y15136667D01*
X2785571Y15136667D01*
X2595095Y15089048D01*
X2499857Y15041429D01*
X2452238Y14993810D01*
X2404619Y14898572D01*
X2404619Y14803334D01*
X2452238Y14708096D01*
X2499857Y14660477D01*
X2595095Y14612858D01*
X2785571Y14565239D01*
X3023666Y14565239D01*
X3214142Y14612858D01*
X3309380Y14660477D01*
X3357000Y14708096D01*
X3404619Y14803334D01*
X3309380Y15517620D02*
X3357000Y15565239D01*
X3404619Y15660477D01*
X3404619Y15898572D01*
X3357000Y15993810D01*
X3309380Y16041429D01*
X3214142Y16089048D01*
X3118904Y16089048D01*
X2976047Y16041429D01*
X2404619Y15470000D01*
X2404619Y16089048D01*
X3309380Y16470000D02*
X3357000Y16517620D01*
X3404619Y16612858D01*
X3404619Y16850953D01*
X3357000Y16946191D01*
X3309380Y16993810D01*
X3214142Y17041429D01*
X3118904Y17041429D01*
X2976047Y16993810D01*
X2404619Y16422381D01*
X2404619Y17041429D01*
X754619Y3993810D02*
X1754619Y3993810D01*
X754619Y4470000D02*
X1421285Y4470000D01*
X1230809Y4470000D02*
X1326047Y4517620D01*
X1373666Y4565239D01*
X1421285Y4660477D01*
X1421285Y4755715D01*
X754619Y5231905D02*
X802238Y5136667D01*
X849857Y5089048D01*
X945095Y5041429D01*
X1230809Y5041429D01*
X1326047Y5089048D01*
X1373666Y5136667D01*
X1421285Y5231905D01*
X1421285Y5374762D01*
X1373666Y5470000D01*
X1326047Y5517620D01*
X1230809Y5565239D01*
X945095Y5565239D01*
X849857Y5517620D01*
X802238Y5470000D01*
X754619Y5374762D01*
X754619Y5231905D01*
X1421285Y5993810D02*
X754619Y5993810D01*
X1326047Y5993810D02*
X1373666Y6041429D01*
X1421285Y6136667D01*
X1421285Y6279524D01*
X1373666Y6374762D01*
X1278428Y6422381D01*
X754619Y6422381D01*
X754619Y7660477D02*
X1754619Y7660477D01*
X1754619Y8041429D01*
X1707000Y8136667D01*
X1659380Y8184286D01*
X1564142Y8231905D01*
X1421285Y8231905D01*
X1326047Y8184286D01*
X1278428Y8136667D01*
X1230809Y8041429D01*
X1230809Y7660477D01*
X754619Y9089048D02*
X1278428Y9089048D01*
X1373666Y9041429D01*
X1421285Y8946191D01*
X1421285Y8755715D01*
X1373666Y8660477D01*
X802238Y9089048D02*
X754619Y8993810D01*
X754619Y8755715D01*
X802238Y8660477D01*
X897476Y8612858D01*
X992714Y8612858D01*
X1087952Y8660477D01*
X1135571Y8755715D01*
X1135571Y8993810D01*
X1183190Y9089048D01*
X1421285Y9565239D02*
X754619Y9565239D01*
X1326047Y9565239D02*
X1373666Y9612858D01*
X1421285Y9708096D01*
X1421285Y9850953D01*
X1373666Y9946191D01*
X1278428Y9993810D01*
X754619Y9993810D01*
X1421285Y10327143D02*
X1421285Y10708096D01*
X1754619Y10470000D02*
X897476Y10470000D01*
X802238Y10517620D01*
X754619Y10612858D01*
X754619Y10708096D01*
X754619Y11041429D02*
X1754619Y11041429D01*
X754619Y11470000D02*
X1278428Y11470000D01*
X1373666Y11422381D01*
X1421285Y11327143D01*
X1421285Y11184286D01*
X1373666Y11089048D01*
X1326047Y11041429D01*
X802238Y12327143D02*
X754619Y12231905D01*
X754619Y12041429D01*
X802238Y11946191D01*
X897476Y11898572D01*
X1278428Y11898572D01*
X1373666Y11946191D01*
X1421285Y12041429D01*
X1421285Y12231905D01*
X1373666Y12327143D01*
X1278428Y12374762D01*
X1183190Y12374762D01*
X1087952Y11898572D01*
X754619Y12803334D02*
X1421285Y12803334D01*
X1230809Y12803334D02*
X1326047Y12850953D01*
X1373666Y12898572D01*
X1421285Y12993810D01*
X1421285Y13089048D01*
X802238Y13374762D02*
X754619Y13470000D01*
X754619Y13660477D01*
X802238Y13755715D01*
X897476Y13803334D01*
X945095Y13803334D01*
X1040333Y13755715D01*
X1087952Y13660477D01*
X1087952Y13517620D01*
X1135571Y13422381D01*
X1230809Y13374762D01*
X1278428Y13374762D01*
X1373666Y13422381D01*
X1421285Y13517620D01*
X1421285Y13660477D01*
X1373666Y13755715D01*
X1135571Y14993810D02*
X1135571Y15755715D01*
X1278428Y17327143D02*
X1278428Y16993810D01*
X754619Y16993810D02*
X1754619Y16993810D01*
X1754619Y17470000D01*
X754619Y18422381D02*
X1230809Y18089048D01*
X754619Y17850953D02*
X1754619Y17850953D01*
X1754619Y18231905D01*
X1707000Y18327143D01*
X1659380Y18374762D01*
X1564142Y18422381D01*
X1421285Y18422381D01*
X1326047Y18374762D01*
X1278428Y18327143D01*
X1230809Y18231905D01*
X1230809Y17850953D01*
X849857Y19422381D02*
X802238Y19374762D01*
X754619Y19231905D01*
X754619Y19136667D01*
X802238Y18993810D01*
X897476Y18898572D01*
X992714Y18850953D01*
X1183190Y18803334D01*
X1326047Y18803334D01*
X1516523Y18850953D01*
X1611761Y18898572D01*
X1707000Y18993810D01*
X1754619Y19136667D01*
X1754619Y19231905D01*
X1707000Y19374762D01*
X1659380Y19422381D01*
X1754619Y21089048D02*
X1754619Y20612858D01*
X1278428Y20565239D01*
X1326047Y20612858D01*
X1373666Y20708096D01*
X1373666Y20946191D01*
X1326047Y21041429D01*
X1278428Y21089048D01*
X1183190Y21136667D01*
X945095Y21136667D01*
X849857Y21089048D01*
X802238Y21041429D01*
X754619Y20946191D01*
X754619Y20708096D01*
X802238Y20612858D01*
X849857Y20565239D01*
X1754619Y21755715D02*
X1754619Y21850953D01*
X1707000Y21946191D01*
X1659380Y21993810D01*
X1564142Y22041429D01*
X1373666Y22089048D01*
X1135571Y22089048D01*
X945095Y22041429D01*
X849857Y21993810D01*
X802238Y21946191D01*
X754619Y21850953D01*
X754619Y21755715D01*
X802238Y21660477D01*
X849857Y21612858D01*
X945095Y21565239D01*
X1135571Y21517620D01*
X1373666Y21517620D01*
X1564142Y21565239D01*
X1659380Y21612858D01*
X1707000Y21660477D01*
X1754619Y21755715D01*
X1659380Y22470000D02*
X1707000Y22517620D01*
X1754619Y22612858D01*
X1754619Y22850953D01*
X1707000Y22946191D01*
X1659380Y22993810D01*
X1564142Y23041429D01*
X1468904Y23041429D01*
X1326047Y22993810D01*
X754619Y22422381D01*
X754619Y23041429D01*
X1754619Y23898572D02*
X1754619Y23708096D01*
X1707000Y23612858D01*
X1659380Y23565239D01*
X1516523Y23470000D01*
X1326047Y23422381D01*
X945095Y23422381D01*
X849857Y23470000D01*
X802238Y23517620D01*
X754619Y23612858D01*
X754619Y23803334D01*
X802238Y23898572D01*
X849857Y23946191D01*
X945095Y23993810D01*
X1183190Y23993810D01*
X1278428Y23946191D01*
X1326047Y23898572D01*
X1373666Y23803334D01*
X1373666Y23612858D01*
X1326047Y23517620D01*
X1278428Y23470000D01*
X1183190Y23422381D01*
D11*
%TO.C,G\u002A\u002A\u002A*%
G36*
X9262249Y14004273D02*
G01*
X9257154Y14027789D01*
X9253247Y14035444D01*
X9243300Y14053538D01*
X9227629Y14081518D01*
X9206552Y14118831D01*
X9180386Y14164921D01*
X9149449Y14219236D01*
X9114057Y14281220D01*
X9074527Y14350320D01*
X9031177Y14425982D01*
X8984324Y14507651D01*
X8934285Y14594775D01*
X8881378Y14686798D01*
X8825918Y14783167D01*
X8768225Y14883327D01*
X8708614Y14986725D01*
X8657738Y15074900D01*
X8573117Y15221412D01*
X8494743Y15356906D01*
X8422597Y15481414D01*
X8356662Y15594965D01*
X8296920Y15697590D01*
X8243353Y15789319D01*
X8195944Y15870181D01*
X8154675Y15940209D01*
X8119528Y15999431D01*
X8090484Y16047878D01*
X8067527Y16085581D01*
X8050639Y16112569D01*
X8039802Y16128874D01*
X8036318Y16133405D01*
X8010059Y16158487D01*
X7982533Y16175072D01*
X7971921Y16179443D01*
X7967609Y16181014D01*
X7963068Y16182454D01*
X7957753Y16183768D01*
X7951115Y16184963D01*
X7942609Y16186043D01*
X7931688Y16187014D01*
X7917805Y16187883D01*
X7900413Y16188655D01*
X7878965Y16189336D01*
X7852915Y16189931D01*
X7821716Y16190447D01*
X7784821Y16190888D01*
X7741683Y16191261D01*
X7691756Y16191572D01*
X7634493Y16191825D01*
X7569347Y16192028D01*
X7495771Y16192185D01*
X7413218Y16192303D01*
X7321143Y16192387D01*
X7218997Y16192443D01*
X7106235Y16192476D01*
X6982309Y16192493D01*
X6846673Y16192499D01*
X6727825Y16192500D01*
X6582281Y16192498D01*
X6448891Y16192489D01*
X6327107Y16192468D01*
X6216383Y16192429D01*
X6116174Y16192365D01*
X6025931Y16192272D01*
X5945110Y16192144D01*
X5873162Y16191975D01*
X5809542Y16191760D01*
X5753703Y16191493D01*
X5705099Y16191168D01*
X5663183Y16190779D01*
X5627407Y16190322D01*
X5597227Y16189790D01*
X5572095Y16189178D01*
X5551465Y16188480D01*
X5534790Y16187691D01*
X5521524Y16186805D01*
X5511120Y16185815D01*
X5503031Y16184718D01*
X5496712Y16183506D01*
X5491614Y16182175D01*
X5487193Y16180719D01*
X5484383Y16179687D01*
X5452369Y16163081D01*
X5423922Y16140103D01*
X5423820Y16140000D01*
X5417622Y16131837D01*
X5406478Y16114914D01*
X5390291Y16089063D01*
X5368961Y16054116D01*
X5342390Y16009905D01*
X5310479Y15956264D01*
X5273131Y15893024D01*
X5230246Y15820017D01*
X5181725Y15737077D01*
X5127471Y15644035D01*
X5067384Y15540724D01*
X5001367Y15426976D01*
X4929320Y15302624D01*
X4851144Y15167499D01*
X4803129Y15084425D01*
X4741986Y14978554D01*
X4682485Y14875430D01*
X4624942Y14775607D01*
X4569677Y14679640D01*
X4517007Y14588085D01*
X4467249Y14501496D01*
X4420723Y14420428D01*
X4377744Y14345437D01*
X4338632Y14277076D01*
X4303705Y14215903D01*
X4273279Y14162471D01*
X4247674Y14117335D01*
X4227207Y14081051D01*
X4212195Y14054173D01*
X4202957Y14037257D01*
X4199878Y14031114D01*
X4191923Y13993964D01*
X4191917Y13952958D01*
X4199593Y13913817D01*
X4206115Y13896975D01*
X4212466Y13884773D01*
X4224688Y13862535D01*
X4242398Y13830920D01*
X4265211Y13790591D01*
X4292745Y13742208D01*
X4324614Y13686434D01*
X4360435Y13623929D01*
X4399825Y13555356D01*
X4442399Y13481375D01*
X4487773Y13402647D01*
X4535564Y13319835D01*
X4585388Y13233600D01*
X4636861Y13144604D01*
X4689598Y13053506D01*
X4743217Y12960970D01*
X4797332Y12867656D01*
X4851561Y12774226D01*
X4905520Y12681342D01*
X4958824Y12589664D01*
X5011090Y12499855D01*
X5061933Y12412574D01*
X5110971Y12328485D01*
X5157818Y12248249D01*
X5202092Y12172526D01*
X5243408Y12101979D01*
X5281383Y12037268D01*
X5315631Y11979056D01*
X5345771Y11928003D01*
X5371418Y11884771D01*
X5392187Y11850021D01*
X5407695Y11824416D01*
X5417559Y11808615D01*
X5421151Y11803454D01*
X5440919Y11786687D01*
X5465140Y11770997D01*
X5476194Y11765354D01*
X5508625Y11750675D01*
X6734175Y11750675D01*
X6734175Y12087751D01*
X6677098Y12087873D01*
X6630497Y12088314D01*
X6592152Y12089189D01*
X6559840Y12090610D01*
X6531339Y12092691D01*
X6504430Y12095545D01*
X6476889Y12099285D01*
X6461125Y12101690D01*
X6304914Y12132350D01*
X6154036Y12174463D01*
X6008698Y12227930D01*
X5869101Y12292656D01*
X5735450Y12368542D01*
X5607950Y12455491D01*
X5486804Y12553407D01*
X5455587Y12581366D01*
X5346323Y12689817D01*
X5247095Y12805921D01*
X5158107Y12929291D01*
X5079563Y13059543D01*
X5011668Y13196290D01*
X4954625Y13339147D01*
X4908639Y13487728D01*
X4873912Y13641648D01*
X4863919Y13700125D01*
X4857888Y13744429D01*
X4855338Y13781740D01*
X4856376Y13817009D01*
X4861111Y13855189D01*
X4868158Y13893800D01*
X4893738Y13993011D01*
X4930879Y14093789D01*
X4978709Y14195087D01*
X5036362Y14295858D01*
X5102968Y14395056D01*
X5177659Y14491634D01*
X5259565Y14584545D01*
X5347818Y14672744D01*
X5441550Y14755182D01*
X5539891Y14830813D01*
X5641972Y14898592D01*
X5746926Y14957470D01*
X5754024Y14961064D01*
X5840856Y15000027D01*
X5938051Y15035218D01*
X6043752Y15066313D01*
X6156100Y15092986D01*
X6273235Y15114912D01*
X6393300Y15131766D01*
X6514434Y15143224D01*
X6634779Y15148961D01*
X6752476Y15148651D01*
X6812019Y15145993D01*
X6936599Y15135636D01*
X7055252Y15120017D01*
X7166535Y15099412D01*
X7269008Y15074098D01*
X7361228Y15044351D01*
X7380619Y15036996D01*
X7408039Y15026814D01*
X7431321Y15019174D01*
X7447847Y15014869D01*
X7454795Y15014509D01*
X7461155Y15024401D01*
X7456983Y15038723D01*
X7443303Y15056634D01*
X7421135Y15077290D01*
X7391501Y15099849D01*
X7355425Y15123470D01*
X7313928Y15147309D01*
X7268033Y15170525D01*
X7262113Y15173306D01*
X7139430Y15224225D01*
X7008494Y15266881D01*
X6870865Y15301073D01*
X6728103Y15326598D01*
X6581769Y15343256D01*
X6433422Y15350846D01*
X6284622Y15349165D01*
X6136931Y15338012D01*
X6061075Y15328401D01*
X5915982Y15301769D01*
X5778064Y15264830D01*
X5646689Y15217293D01*
X5521223Y15158867D01*
X5401035Y15089263D01*
X5285491Y15008188D01*
X5186385Y14926444D01*
X5129547Y14870347D01*
X5073464Y14803684D01*
X5019890Y14728551D01*
X5016667Y14723625D01*
X4999821Y14698104D01*
X4985424Y14676970D01*
X4974879Y14662232D01*
X4969589Y14655901D01*
X4969349Y14655800D01*
X4969827Y14661183D01*
X4975219Y14676164D01*
X4984744Y14698990D01*
X4997617Y14727911D01*
X5013057Y14761174D01*
X5030280Y14797026D01*
X5048504Y14833715D01*
X5051434Y14839495D01*
X5082402Y14896726D01*
X5118078Y14956396D01*
X5157272Y15016937D01*
X5198795Y15076785D01*
X5241455Y15134374D01*
X5284061Y15188137D01*
X5325425Y15236510D01*
X5364354Y15277926D01*
X5399659Y15310820D01*
X5424149Y15329713D01*
X5483857Y15366505D01*
X5553954Y15403209D01*
X5632153Y15438975D01*
X5716164Y15472952D01*
X5803700Y15504290D01*
X5892474Y15532137D01*
X5980196Y15555644D01*
X6064579Y15573960D01*
X6096089Y15579513D01*
X6146726Y15586189D01*
X6207241Y15591505D01*
X6274877Y15595361D01*
X6346874Y15597655D01*
X6420475Y15598289D01*
X6492921Y15597161D01*
X6536724Y15595502D01*
X6698878Y15584209D01*
X6850204Y15566281D01*
X6990702Y15541718D01*
X7120373Y15510520D01*
X7239218Y15472687D01*
X7347237Y15428218D01*
X7444431Y15377113D01*
X7530801Y15319371D01*
X7563297Y15293602D01*
X7584622Y15276336D01*
X7602683Y15262673D01*
X7615079Y15254378D01*
X7618969Y15252700D01*
X7627313Y15257110D01*
X7627366Y15269661D01*
X7619628Y15289328D01*
X7604601Y15315089D01*
X7582788Y15345919D01*
X7558209Y15376630D01*
X7498119Y15439090D01*
X7426752Y15497238D01*
X7344861Y15550823D01*
X7253203Y15599593D01*
X7152532Y15643299D01*
X7043605Y15681687D01*
X6927175Y15714509D01*
X6803999Y15741512D01*
X6674830Y15762446D01*
X6540426Y15777060D01*
X6401540Y15785102D01*
X6324600Y15786627D01*
X6285015Y15786942D01*
X6256860Y15787385D01*
X6238868Y15788103D01*
X6229768Y15789243D01*
X6228292Y15790950D01*
X6233171Y15793373D01*
X6241692Y15796205D01*
X6306055Y15813460D01*
X6380421Y15828307D01*
X6462270Y15840429D01*
X6549080Y15849508D01*
X6638327Y15855228D01*
X6727490Y15857272D01*
X6727825Y15857272D01*
X6841549Y15854843D01*
X6947341Y15847024D01*
X7048975Y15833357D01*
X7150220Y15813387D01*
X7208989Y15799065D01*
X7355417Y15754661D01*
X7496472Y15699045D01*
X7631649Y15632732D01*
X7760443Y15556240D01*
X7882346Y15470086D01*
X7996852Y15374788D01*
X8103457Y15270863D01*
X8201654Y15158828D01*
X8290936Y15039201D01*
X8370799Y14912498D01*
X8440735Y14779237D01*
X8500240Y14639935D01*
X8548806Y14495109D01*
X8572678Y14404975D01*
X8587848Y14337375D01*
X8599574Y14274860D01*
X8608223Y14214103D01*
X8614166Y14151777D01*
X8617772Y14084554D01*
X8619410Y14009109D01*
X8619579Y13982700D01*
X8619423Y13915859D01*
X8618285Y13858682D01*
X8615896Y13808152D01*
X8611990Y13761255D01*
X8606298Y13714974D01*
X8598552Y13666292D01*
X8588483Y13612195D01*
X8585147Y13595350D01*
X8549209Y13447395D01*
X8501800Y13304202D01*
X8443420Y13166291D01*
X8374567Y13034183D01*
X8295742Y12908397D01*
X8207444Y12789453D01*
X8110173Y12677872D01*
X8004428Y12574174D01*
X7890709Y12478878D01*
X7769516Y12392506D01*
X7641347Y12315576D01*
X7506702Y12248609D01*
X7366082Y12192126D01*
X7219985Y12146646D01*
X7185025Y12137639D01*
X7125173Y12123389D01*
X7071414Y12112034D01*
X7021016Y12103271D01*
X6971249Y12096797D01*
X6919381Y12092311D01*
X6862680Y12089511D01*
X6798414Y12088094D01*
X6734175Y12087751D01*
X6734175Y11750675D01*
X7947025Y11750675D01*
X7979457Y11765354D01*
X8003098Y11778647D01*
X8025911Y11795541D01*
X8034411Y11803454D01*
X8039613Y11811036D01*
X8050761Y11828968D01*
X8067470Y11856588D01*
X8089359Y11893237D01*
X8116044Y11938252D01*
X8147142Y11990973D01*
X8182270Y12050738D01*
X8221045Y12116887D01*
X8263084Y12188758D01*
X8308005Y12265690D01*
X8355424Y12347022D01*
X8404958Y12432092D01*
X8456225Y12520241D01*
X8508841Y12610806D01*
X8562424Y12703126D01*
X8616590Y12796541D01*
X8670957Y12890389D01*
X8725141Y12984009D01*
X8778760Y13076740D01*
X8831430Y13167921D01*
X8882769Y13256891D01*
X8932394Y13342988D01*
X8979922Y13425551D01*
X9024969Y13503920D01*
X9067153Y13577433D01*
X9106091Y13645430D01*
X9141400Y13707248D01*
X9172697Y13762227D01*
X9199598Y13809705D01*
X9221722Y13849022D01*
X9238685Y13879517D01*
X9250104Y13900528D01*
X9255596Y13911394D01*
X9255907Y13912171D01*
X9261955Y13939317D01*
X9264090Y13972042D01*
X9262249Y14004273D01*
G37*
X9262249Y14004273D02*
X9257154Y14027789D01*
X9253247Y14035444D01*
X9243300Y14053538D01*
X9227629Y14081518D01*
X9206552Y14118831D01*
X9180386Y14164921D01*
X9149449Y14219236D01*
X9114057Y14281220D01*
X9074527Y14350320D01*
X9031177Y14425982D01*
X8984324Y14507651D01*
X8934285Y14594775D01*
X8881378Y14686798D01*
X8825918Y14783167D01*
X8768225Y14883327D01*
X8708614Y14986725D01*
X8657738Y15074900D01*
X8573117Y15221412D01*
X8494743Y15356906D01*
X8422597Y15481414D01*
X8356662Y15594965D01*
X8296920Y15697590D01*
X8243353Y15789319D01*
X8195944Y15870181D01*
X8154675Y15940209D01*
X8119528Y15999431D01*
X8090484Y16047878D01*
X8067527Y16085581D01*
X8050639Y16112569D01*
X8039802Y16128874D01*
X8036318Y16133405D01*
X8010059Y16158487D01*
X7982533Y16175072D01*
X7971921Y16179443D01*
X7967609Y16181014D01*
X7963068Y16182454D01*
X7957753Y16183768D01*
X7951115Y16184963D01*
X7942609Y16186043D01*
X7931688Y16187014D01*
X7917805Y16187883D01*
X7900413Y16188655D01*
X7878965Y16189336D01*
X7852915Y16189931D01*
X7821716Y16190447D01*
X7784821Y16190888D01*
X7741683Y16191261D01*
X7691756Y16191572D01*
X7634493Y16191825D01*
X7569347Y16192028D01*
X7495771Y16192185D01*
X7413218Y16192303D01*
X7321143Y16192387D01*
X7218997Y16192443D01*
X7106235Y16192476D01*
X6982309Y16192493D01*
X6846673Y16192499D01*
X6727825Y16192500D01*
X6582281Y16192498D01*
X6448891Y16192489D01*
X6327107Y16192468D01*
X6216383Y16192429D01*
X6116174Y16192365D01*
X6025931Y16192272D01*
X5945110Y16192144D01*
X5873162Y16191975D01*
X5809542Y16191760D01*
X5753703Y16191493D01*
X5705099Y16191168D01*
X5663183Y16190779D01*
X5627407Y16190322D01*
X5597227Y16189790D01*
X5572095Y16189178D01*
X5551465Y16188480D01*
X5534790Y16187691D01*
X5521524Y16186805D01*
X5511120Y16185815D01*
X5503031Y16184718D01*
X5496712Y16183506D01*
X5491614Y16182175D01*
X5487193Y16180719D01*
X5484383Y16179687D01*
X5452369Y16163081D01*
X5423922Y16140103D01*
X5423820Y16140000D01*
X5417622Y16131837D01*
X5406478Y16114914D01*
X5390291Y16089063D01*
X5368961Y16054116D01*
X5342390Y16009905D01*
X5310479Y15956264D01*
X5273131Y15893024D01*
X5230246Y15820017D01*
X5181725Y15737077D01*
X5127471Y15644035D01*
X5067384Y15540724D01*
X5001367Y15426976D01*
X4929320Y15302624D01*
X4851144Y15167499D01*
X4803129Y15084425D01*
X4741986Y14978554D01*
X4682485Y14875430D01*
X4624942Y14775607D01*
X4569677Y14679640D01*
X4517007Y14588085D01*
X4467249Y14501496D01*
X4420723Y14420428D01*
X4377744Y14345437D01*
X4338632Y14277076D01*
X4303705Y14215903D01*
X4273279Y14162471D01*
X4247674Y14117335D01*
X4227207Y14081051D01*
X4212195Y14054173D01*
X4202957Y14037257D01*
X4199878Y14031114D01*
X4191923Y13993964D01*
X4191917Y13952958D01*
X4199593Y13913817D01*
X4206115Y13896975D01*
X4212466Y13884773D01*
X4224688Y13862535D01*
X4242398Y13830920D01*
X4265211Y13790591D01*
X4292745Y13742208D01*
X4324614Y13686434D01*
X4360435Y13623929D01*
X4399825Y13555356D01*
X4442399Y13481375D01*
X4487773Y13402647D01*
X4535564Y13319835D01*
X4585388Y13233600D01*
X4636861Y13144604D01*
X4689598Y13053506D01*
X4743217Y12960970D01*
X4797332Y12867656D01*
X4851561Y12774226D01*
X4905520Y12681342D01*
X4958824Y12589664D01*
X5011090Y12499855D01*
X5061933Y12412574D01*
X5110971Y12328485D01*
X5157818Y12248249D01*
X5202092Y12172526D01*
X5243408Y12101979D01*
X5281383Y12037268D01*
X5315631Y11979056D01*
X5345771Y11928003D01*
X5371418Y11884771D01*
X5392187Y11850021D01*
X5407695Y11824416D01*
X5417559Y11808615D01*
X5421151Y11803454D01*
X5440919Y11786687D01*
X5465140Y11770997D01*
X5476194Y11765354D01*
X5508625Y11750675D01*
X6734175Y11750675D01*
X6734175Y12087751D01*
X6677098Y12087873D01*
X6630497Y12088314D01*
X6592152Y12089189D01*
X6559840Y12090610D01*
X6531339Y12092691D01*
X6504430Y12095545D01*
X6476889Y12099285D01*
X6461125Y12101690D01*
X6304914Y12132350D01*
X6154036Y12174463D01*
X6008698Y12227930D01*
X5869101Y12292656D01*
X5735450Y12368542D01*
X5607950Y12455491D01*
X5486804Y12553407D01*
X5455587Y12581366D01*
X5346323Y12689817D01*
X5247095Y12805921D01*
X5158107Y12929291D01*
X5079563Y13059543D01*
X5011668Y13196290D01*
X4954625Y13339147D01*
X4908639Y13487728D01*
X4873912Y13641648D01*
X4863919Y13700125D01*
X4857888Y13744429D01*
X4855338Y13781740D01*
X4856376Y13817009D01*
X4861111Y13855189D01*
X4868158Y13893800D01*
X4893738Y13993011D01*
X4930879Y14093789D01*
X4978709Y14195087D01*
X5036362Y14295858D01*
X5102968Y14395056D01*
X5177659Y14491634D01*
X5259565Y14584545D01*
X5347818Y14672744D01*
X5441550Y14755182D01*
X5539891Y14830813D01*
X5641972Y14898592D01*
X5746926Y14957470D01*
X5754024Y14961064D01*
X5840856Y15000027D01*
X5938051Y15035218D01*
X6043752Y15066313D01*
X6156100Y15092986D01*
X6273235Y15114912D01*
X6393300Y15131766D01*
X6514434Y15143224D01*
X6634779Y15148961D01*
X6752476Y15148651D01*
X6812019Y15145993D01*
X6936599Y15135636D01*
X7055252Y15120017D01*
X7166535Y15099412D01*
X7269008Y15074098D01*
X7361228Y15044351D01*
X7380619Y15036996D01*
X7408039Y15026814D01*
X7431321Y15019174D01*
X7447847Y15014869D01*
X7454795Y15014509D01*
X7461155Y15024401D01*
X7456983Y15038723D01*
X7443303Y15056634D01*
X7421135Y15077290D01*
X7391501Y15099849D01*
X7355425Y15123470D01*
X7313928Y15147309D01*
X7268033Y15170525D01*
X7262113Y15173306D01*
X7139430Y15224225D01*
X7008494Y15266881D01*
X6870865Y15301073D01*
X6728103Y15326598D01*
X6581769Y15343256D01*
X6433422Y15350846D01*
X6284622Y15349165D01*
X6136931Y15338012D01*
X6061075Y15328401D01*
X5915982Y15301769D01*
X5778064Y15264830D01*
X5646689Y15217293D01*
X5521223Y15158867D01*
X5401035Y15089263D01*
X5285491Y15008188D01*
X5186385Y14926444D01*
X5129547Y14870347D01*
X5073464Y14803684D01*
X5019890Y14728551D01*
X5016667Y14723625D01*
X4999821Y14698104D01*
X4985424Y14676970D01*
X4974879Y14662232D01*
X4969589Y14655901D01*
X4969349Y14655800D01*
X4969827Y14661183D01*
X4975219Y14676164D01*
X4984744Y14698990D01*
X4997617Y14727911D01*
X5013057Y14761174D01*
X5030280Y14797026D01*
X5048504Y14833715D01*
X5051434Y14839495D01*
X5082402Y14896726D01*
X5118078Y14956396D01*
X5157272Y15016937D01*
X5198795Y15076785D01*
X5241455Y15134374D01*
X5284061Y15188137D01*
X5325425Y15236510D01*
X5364354Y15277926D01*
X5399659Y15310820D01*
X5424149Y15329713D01*
X5483857Y15366505D01*
X5553954Y15403209D01*
X5632153Y15438975D01*
X5716164Y15472952D01*
X5803700Y15504290D01*
X5892474Y15532137D01*
X5980196Y15555644D01*
X6064579Y15573960D01*
X6096089Y15579513D01*
X6146726Y15586189D01*
X6207241Y15591505D01*
X6274877Y15595361D01*
X6346874Y15597655D01*
X6420475Y15598289D01*
X6492921Y15597161D01*
X6536724Y15595502D01*
X6698878Y15584209D01*
X6850204Y15566281D01*
X6990702Y15541718D01*
X7120373Y15510520D01*
X7239218Y15472687D01*
X7347237Y15428218D01*
X7444431Y15377113D01*
X7530801Y15319371D01*
X7563297Y15293602D01*
X7584622Y15276336D01*
X7602683Y15262673D01*
X7615079Y15254378D01*
X7618969Y15252700D01*
X7627313Y15257110D01*
X7627366Y15269661D01*
X7619628Y15289328D01*
X7604601Y15315089D01*
X7582788Y15345919D01*
X7558209Y15376630D01*
X7498119Y15439090D01*
X7426752Y15497238D01*
X7344861Y15550823D01*
X7253203Y15599593D01*
X7152532Y15643299D01*
X7043605Y15681687D01*
X6927175Y15714509D01*
X6803999Y15741512D01*
X6674830Y15762446D01*
X6540426Y15777060D01*
X6401540Y15785102D01*
X6324600Y15786627D01*
X6285015Y15786942D01*
X6256860Y15787385D01*
X6238868Y15788103D01*
X6229768Y15789243D01*
X6228292Y15790950D01*
X6233171Y15793373D01*
X6241692Y15796205D01*
X6306055Y15813460D01*
X6380421Y15828307D01*
X6462270Y15840429D01*
X6549080Y15849508D01*
X6638327Y15855228D01*
X6727490Y15857272D01*
X6727825Y15857272D01*
X6841549Y15854843D01*
X6947341Y15847024D01*
X7048975Y15833357D01*
X7150220Y15813387D01*
X7208989Y15799065D01*
X7355417Y15754661D01*
X7496472Y15699045D01*
X7631649Y15632732D01*
X7760443Y15556240D01*
X7882346Y15470086D01*
X7996852Y15374788D01*
X8103457Y15270863D01*
X8201654Y15158828D01*
X8290936Y15039201D01*
X8370799Y14912498D01*
X8440735Y14779237D01*
X8500240Y14639935D01*
X8548806Y14495109D01*
X8572678Y14404975D01*
X8587848Y14337375D01*
X8599574Y14274860D01*
X8608223Y14214103D01*
X8614166Y14151777D01*
X8617772Y14084554D01*
X8619410Y14009109D01*
X8619579Y13982700D01*
X8619423Y13915859D01*
X8618285Y13858682D01*
X8615896Y13808152D01*
X8611990Y13761255D01*
X8606298Y13714974D01*
X8598552Y13666292D01*
X8588483Y13612195D01*
X8585147Y13595350D01*
X8549209Y13447395D01*
X8501800Y13304202D01*
X8443420Y13166291D01*
X8374567Y13034183D01*
X8295742Y12908397D01*
X8207444Y12789453D01*
X8110173Y12677872D01*
X8004428Y12574174D01*
X7890709Y12478878D01*
X7769516Y12392506D01*
X7641347Y12315576D01*
X7506702Y12248609D01*
X7366082Y12192126D01*
X7219985Y12146646D01*
X7185025Y12137639D01*
X7125173Y12123389D01*
X7071414Y12112034D01*
X7021016Y12103271D01*
X6971249Y12096797D01*
X6919381Y12092311D01*
X6862680Y12089511D01*
X6798414Y12088094D01*
X6734175Y12087751D01*
X6734175Y11750675D01*
X7947025Y11750675D01*
X7979457Y11765354D01*
X8003098Y11778647D01*
X8025911Y11795541D01*
X8034411Y11803454D01*
X8039613Y11811036D01*
X8050761Y11828968D01*
X8067470Y11856588D01*
X8089359Y11893237D01*
X8116044Y11938252D01*
X8147142Y11990973D01*
X8182270Y12050738D01*
X8221045Y12116887D01*
X8263084Y12188758D01*
X8308005Y12265690D01*
X8355424Y12347022D01*
X8404958Y12432092D01*
X8456225Y12520241D01*
X8508841Y12610806D01*
X8562424Y12703126D01*
X8616590Y12796541D01*
X8670957Y12890389D01*
X8725141Y12984009D01*
X8778760Y13076740D01*
X8831430Y13167921D01*
X8882769Y13256891D01*
X8932394Y13342988D01*
X8979922Y13425551D01*
X9024969Y13503920D01*
X9067153Y13577433D01*
X9106091Y13645430D01*
X9141400Y13707248D01*
X9172697Y13762227D01*
X9199598Y13809705D01*
X9221722Y13849022D01*
X9238685Y13879517D01*
X9250104Y13900528D01*
X9255596Y13911394D01*
X9255907Y13912171D01*
X9261955Y13939317D01*
X9264090Y13972042D01*
X9262249Y14004273D01*
G36*
X8063862Y14871534D02*
G01*
X8053599Y15012426D01*
X8037797Y15144610D01*
X8030800Y15189268D01*
X8025151Y15217862D01*
X8018286Y15235589D01*
X8008075Y15243413D01*
X7992387Y15242300D01*
X7969092Y15233216D01*
X7951932Y15225008D01*
X7894507Y15193469D01*
X7836257Y15155439D01*
X7779462Y15112816D01*
X7726401Y15067501D01*
X7679356Y15021394D01*
X7640604Y14976393D01*
X7621705Y14949824D01*
X7598904Y14906837D01*
X7578602Y14852922D01*
X7561350Y14789699D01*
X7552090Y14744700D01*
X7546886Y14707773D01*
X7543183Y14664223D01*
X7540979Y14616797D01*
X7540270Y14568243D01*
X7541056Y14521308D01*
X7543333Y14478739D01*
X7547100Y14443286D01*
X7552354Y14417694D01*
X7552360Y14417675D01*
X7563617Y14388423D01*
X7576883Y14366333D01*
X7590716Y14353457D01*
X7599154Y14351000D01*
X7607958Y14355091D01*
X7622531Y14365793D01*
X7638947Y14380092D01*
X7665501Y14410869D01*
X7691474Y14452162D01*
X7715852Y14501795D01*
X7737621Y14557594D01*
X7755766Y14617381D01*
X7762503Y14645111D01*
X7766601Y14666954D01*
X7770276Y14692665D01*
X7773160Y14718639D01*
X7774884Y14741276D01*
X7775079Y14756975D01*
X7774399Y14761351D01*
X7765800Y14768925D01*
X7751593Y14767924D01*
X7738446Y14760809D01*
X7723270Y14754900D01*
X7710840Y14760237D01*
X7706284Y14767759D01*
X7707230Y14780782D01*
X7716304Y14803124D01*
X7733349Y14834479D01*
X7758207Y14874542D01*
X7772035Y14895532D01*
X7800079Y14935057D01*
X7823786Y14963052D01*
X7843570Y14979764D01*
X7859847Y14985441D01*
X7873028Y14980330D01*
X7883529Y14964681D01*
X7884362Y14962752D01*
X7893661Y14936426D01*
X7901094Y14905648D01*
X7906872Y14868748D01*
X7911206Y14824059D01*
X7914306Y14769912D01*
X7916261Y14709775D01*
X7917242Y14636493D01*
X7916071Y14573764D01*
X7912285Y14519552D01*
X7905422Y14471823D01*
X7895020Y14428542D01*
X7880616Y14387674D01*
X7861749Y14347184D01*
X7837957Y14305039D01*
X7816640Y14271177D01*
X7777977Y14210044D01*
X7747562Y14158111D01*
X7725238Y14115059D01*
X7710846Y14080568D01*
X7704228Y14054319D01*
X7703834Y14043414D01*
X7707877Y14024204D01*
X7716804Y14016070D01*
X7731294Y14018867D01*
X7752024Y14032451D01*
X7752685Y14032972D01*
X7773200Y14047162D01*
X7798157Y14061681D01*
X7811353Y14068314D01*
X7837734Y14079486D01*
X7856707Y14083957D01*
X7869280Y14080643D01*
X7876459Y14068461D01*
X7879253Y14046326D01*
X7878667Y14013155D01*
X7877734Y13996888D01*
X7873410Y13940568D01*
X7867302Y13877604D01*
X7859737Y13810344D01*
X7851043Y13741136D01*
X7841546Y13672328D01*
X7831574Y13606268D01*
X7821454Y13545305D01*
X7811515Y13491786D01*
X7802082Y13448059D01*
X7800069Y13439831D01*
X7777597Y13361855D01*
X7750433Y13289571D01*
X7717529Y13221340D01*
X7677832Y13155525D01*
X7630294Y13090488D01*
X7573864Y13024592D01*
X7507492Y12956198D01*
X7462402Y12913228D01*
X7415804Y12869145D01*
X7377097Y12830581D01*
X7344214Y12795177D01*
X7315086Y12760571D01*
X7287645Y12724403D01*
X7259823Y12684313D01*
X7253359Y12674600D01*
X7214857Y12617345D01*
X7180742Y12569133D01*
X7149181Y12527937D01*
X7118340Y12491728D01*
X7086386Y12458475D01*
X7051487Y12426151D01*
X7011809Y12392727D01*
X6965950Y12356508D01*
X6925295Y12325608D01*
X6893039Y12302333D01*
X6868041Y12285928D01*
X6849159Y12275637D01*
X6836750Y12271052D01*
X6825967Y12269676D01*
X6821087Y12273166D01*
X6822452Y12282689D01*
X6830401Y12299411D01*
X6845274Y12324500D01*
X6858293Y12345034D01*
X6875498Y12372459D01*
X6891431Y12399052D01*
X6903963Y12421198D01*
X6909558Y12432091D01*
X6922430Y12459457D01*
X6906094Y12480874D01*
X6890897Y12497912D01*
X6876536Y12505588D01*
X6859953Y12504174D01*
X6838087Y12493944D01*
X6827880Y12487878D01*
X6776308Y12462621D01*
X6724497Y12449894D01*
X6672887Y12449726D01*
X6621917Y12462149D01*
X6599464Y12471779D01*
X6560146Y12496267D01*
X6531457Y12526605D01*
X6512962Y12563614D01*
X6504226Y12608116D01*
X6504103Y12651762D01*
X6513141Y12710562D01*
X6532873Y12772159D01*
X6563551Y12837086D01*
X6605427Y12905878D01*
X6658754Y12979068D01*
X6658782Y12979103D01*
X6698923Y13032534D01*
X6730462Y13079482D01*
X6754487Y13121674D01*
X6770440Y13156652D01*
X6778068Y13183358D01*
X6783148Y13216671D01*
X6785620Y13253068D01*
X6785422Y13289027D01*
X6782495Y13321024D01*
X6776778Y13345537D01*
X6773804Y13352261D01*
X6760365Y13370550D01*
X6737672Y13394291D01*
X6707288Y13422287D01*
X6670779Y13453341D01*
X6629711Y13486255D01*
X6585647Y13519832D01*
X6540153Y13552875D01*
X6494795Y13584187D01*
X6451137Y13612570D01*
X6410744Y13636826D01*
X6380564Y13653096D01*
X6327200Y13676701D01*
X6279200Y13690763D01*
X6234247Y13695851D01*
X6210250Y13695054D01*
X6165241Y13688733D01*
X6127031Y13677129D01*
X6094241Y13659010D01*
X6065488Y13633145D01*
X6039392Y13598302D01*
X6014571Y13553251D01*
X5990705Y13499363D01*
X5974224Y13459523D01*
X5960972Y13429146D01*
X5949605Y13405848D01*
X5938779Y13387246D01*
X5927150Y13370954D01*
X5913374Y13354588D01*
X5902160Y13342272D01*
X5871204Y13312182D01*
X5842576Y13292445D01*
X5813503Y13281779D01*
X5781213Y13278906D01*
X5766507Y13279675D01*
X5712668Y13288987D01*
X5667673Y13307257D01*
X5631190Y13334662D01*
X5606383Y13365650D01*
X5593275Y13394113D01*
X5587681Y13424035D01*
X5590130Y13451160D01*
X5594408Y13462108D01*
X5602093Y13470428D01*
X5617950Y13483709D01*
X5639513Y13499981D01*
X5659496Y13514022D01*
X5687424Y13534706D01*
X5720476Y13561824D01*
X5755211Y13592434D01*
X5788187Y13623594D01*
X5791674Y13627044D01*
X5830976Y13667860D01*
X5866337Y13708672D01*
X5898709Y13751083D01*
X5929045Y13796697D01*
X5958298Y13847117D01*
X5987421Y13903947D01*
X6017366Y13968790D01*
X6049087Y14043251D01*
X6070882Y14097000D01*
X6088285Y14139773D01*
X6106391Y14182849D01*
X6123929Y14223303D01*
X6139630Y14258215D01*
X6152222Y14284662D01*
X6153835Y14287856D01*
X6179879Y14334281D01*
X6209952Y14378693D01*
X6245247Y14422339D01*
X6286955Y14466468D01*
X6336271Y14512328D01*
X6394386Y14561168D01*
X6462492Y14614235D01*
X6473825Y14622773D01*
X6539999Y14669594D01*
X6601845Y14706882D01*
X6662017Y14735713D01*
X6723166Y14757163D01*
X6787948Y14772310D01*
X6859014Y14782228D01*
X6869391Y14783240D01*
X6931258Y14785981D01*
X7001157Y14783926D01*
X7075533Y14777481D01*
X7150830Y14767050D01*
X7223494Y14753038D01*
X7289971Y14735850D01*
X7292667Y14735037D01*
X7311793Y14729775D01*
X7323061Y14728833D01*
X7330562Y14732229D01*
X7333835Y14735212D01*
X7339491Y14745445D01*
X7335733Y14756710D01*
X7321742Y14770124D01*
X7296701Y14786804D01*
X7295467Y14787549D01*
X7219803Y14826539D01*
X7135339Y14858213D01*
X7043803Y14882364D01*
X6946920Y14898781D01*
X6846416Y14907256D01*
X6744020Y14907579D01*
X6641456Y14899543D01*
X6540451Y14882938D01*
X6528542Y14880365D01*
X6456488Y14862195D01*
X6386860Y14839829D01*
X6315810Y14811879D01*
X6239488Y14776955D01*
X6232525Y14773568D01*
X6182077Y14747355D01*
X6128362Y14716684D01*
X6073426Y14682942D01*
X6019313Y14647518D01*
X5968069Y14611803D01*
X5921737Y14577183D01*
X5882363Y14545049D01*
X5851991Y14516789D01*
X5847416Y14511981D01*
X5830606Y14493875D01*
X5846835Y14433550D01*
X5853567Y14406671D01*
X5858208Y14382409D01*
X5861145Y14357164D01*
X5862764Y14327336D01*
X5863450Y14289326D01*
X5863522Y14277975D01*
X5863197Y14230806D01*
X5861304Y14191987D01*
X5857226Y14157201D01*
X5850347Y14122134D01*
X5840053Y14082470D01*
X5831348Y14052550D01*
X5818619Y14014112D01*
X5802248Y13970917D01*
X5783635Y13926158D01*
X5764180Y13883029D01*
X5745282Y13844722D01*
X5728342Y13814433D01*
X5724018Y13807640D01*
X5680679Y13752900D01*
X5626710Y13702611D01*
X5563718Y13657829D01*
X5493311Y13619609D01*
X5417098Y13589006D01*
X5369468Y13574798D01*
X5338933Y13566309D01*
X5318931Y13559206D01*
X5307519Y13552514D01*
X5302751Y13545261D01*
X5302250Y13541147D01*
X5305826Y13532857D01*
X5315474Y13517005D01*
X5329575Y13496135D01*
X5341149Y13480012D01*
X5394641Y13414654D01*
X5456852Y13351339D01*
X5524928Y13292492D01*
X5596013Y13240540D01*
X5667252Y13197909D01*
X5682125Y13190288D01*
X5712817Y13175742D01*
X5736661Y13166468D01*
X5757700Y13161205D01*
X5779974Y13158686D01*
X5783909Y13158454D01*
X5809631Y13157985D01*
X5829248Y13160792D01*
X5849212Y13168228D01*
X5863327Y13175111D01*
X5900528Y13194030D01*
X5947300Y13168802D01*
X5979670Y13153340D01*
X6003237Y13146704D01*
X6018299Y13148860D01*
X6025133Y13159667D01*
X6023496Y13170328D01*
X6017227Y13189186D01*
X6007447Y13213112D01*
X6000566Y13228168D01*
X5989425Y13252311D01*
X5981054Y13271807D01*
X5976517Y13284096D01*
X5976118Y13286996D01*
X5981869Y13284438D01*
X5995420Y13275683D01*
X6014491Y13262257D01*
X6028580Y13251887D01*
X6059516Y13229985D01*
X6089106Y13211264D01*
X6115368Y13196784D01*
X6136321Y13187602D01*
X6149983Y13184776D01*
X6152816Y13185568D01*
X6157609Y13190328D01*
X6158171Y13197536D01*
X6153724Y13208906D01*
X6143489Y13226155D01*
X6126686Y13251000D01*
X6116584Y13265385D01*
X6096890Y13294109D01*
X6077664Y13323640D01*
X6061513Y13349897D01*
X6053377Y13364250D01*
X6032979Y13402555D01*
X6054993Y13435243D01*
X6093157Y13482906D01*
X6136099Y13519084D01*
X6184691Y13544238D01*
X6239806Y13558824D01*
X6299200Y13563310D01*
X6353893Y13557258D01*
X6408827Y13539920D01*
X6462562Y13512601D01*
X6513657Y13476603D01*
X6560673Y13433229D01*
X6602168Y13383784D01*
X6636702Y13329569D01*
X6662835Y13271889D01*
X6677348Y13221196D01*
X6682274Y13183634D01*
X6680674Y13146405D01*
X6671997Y13107507D01*
X6655692Y13064938D01*
X6631210Y13016696D01*
X6612047Y12983665D01*
X6599666Y12964005D01*
X6590784Y12953372D01*
X6582868Y12949619D01*
X6573380Y12950600D01*
X6573076Y12950672D01*
X6545005Y12960303D01*
X6509242Y12977171D01*
X6467739Y13000248D01*
X6422447Y13028505D01*
X6411070Y13036050D01*
X6380034Y13056790D01*
X6357733Y13071219D01*
X6342369Y13080122D01*
X6332141Y13084282D01*
X6325252Y13084482D01*
X6319902Y13081505D01*
X6315724Y13077565D01*
X6309816Y13067686D01*
X6308481Y13053060D01*
X6311967Y13031866D01*
X6320518Y13002283D01*
X6329432Y12976225D01*
X6354024Y12915771D01*
X6385208Y12855363D01*
X6414346Y12807315D01*
X6428040Y12785415D01*
X6438624Y12767506D01*
X6444533Y12756283D01*
X6445250Y12754102D01*
X6439825Y12750487D01*
X6425260Y12751206D01*
X6404119Y12755667D01*
X6378968Y12763276D01*
X6352372Y12773443D01*
X6342377Y12777872D01*
X6316736Y12789095D01*
X6300120Y12794614D01*
X6290495Y12794978D01*
X6287064Y12792754D01*
X6286623Y12782771D01*
X6293855Y12764664D01*
X6307971Y12739779D01*
X6328182Y12709459D01*
X6353699Y12675050D01*
X6363435Y12662668D01*
X6380848Y12640493D01*
X6391785Y12624670D01*
X6397752Y12611673D01*
X6400253Y12597975D01*
X6400795Y12580051D01*
X6400800Y12575152D01*
X6402481Y12544913D01*
X6408503Y12518859D01*
X6420339Y12493243D01*
X6439462Y12464316D01*
X6449674Y12450727D01*
X6498093Y12392397D01*
X6548882Y12339697D01*
X6600675Y12293682D01*
X6652105Y12255409D01*
X6701806Y12225933D01*
X6748411Y12206313D01*
X6774436Y12199688D01*
X6803272Y12196218D01*
X6829024Y12197808D01*
X6854499Y12205386D01*
X6882503Y12219883D01*
X6915843Y12242226D01*
X6926480Y12249988D01*
X7017197Y12319816D01*
X7096032Y12386498D01*
X7163320Y12450354D01*
X7219399Y12511707D01*
X7264603Y12570878D01*
X7270670Y12579894D01*
X7291184Y12609337D01*
X7313991Y12639525D01*
X7335625Y12665969D01*
X7346225Y12677775D01*
X7368199Y12701551D01*
X7391276Y12727413D01*
X7410497Y12749799D01*
X7410660Y12749997D01*
X7426475Y12767053D01*
X7449388Y12789236D01*
X7476496Y12813844D01*
X7504897Y12838175D01*
X7508875Y12841458D01*
X7591098Y12913374D01*
X7661516Y12984634D01*
X7720923Y13056181D01*
X7770113Y13128956D01*
X7804310Y13192125D01*
X7822352Y13232308D01*
X7842467Y13282002D01*
X7863642Y13338400D01*
X7884864Y13398694D01*
X7905121Y13460075D01*
X7923399Y13519735D01*
X7927091Y13532478D01*
X7961195Y13664238D01*
X7990856Y13804792D01*
X8015953Y13952195D01*
X8036364Y14104502D01*
X8051966Y14259769D01*
X8062639Y14416050D01*
X8068260Y14571401D01*
X8068709Y14723877D01*
X8063862Y14871534D01*
G37*
X8063862Y14871534D02*
X8053599Y15012426D01*
X8037797Y15144610D01*
X8030800Y15189268D01*
X8025151Y15217862D01*
X8018286Y15235589D01*
X8008075Y15243413D01*
X7992387Y15242300D01*
X7969092Y15233216D01*
X7951932Y15225008D01*
X7894507Y15193469D01*
X7836257Y15155439D01*
X7779462Y15112816D01*
X7726401Y15067501D01*
X7679356Y15021394D01*
X7640604Y14976393D01*
X7621705Y14949824D01*
X7598904Y14906837D01*
X7578602Y14852922D01*
X7561350Y14789699D01*
X7552090Y14744700D01*
X7546886Y14707773D01*
X7543183Y14664223D01*
X7540979Y14616797D01*
X7540270Y14568243D01*
X7541056Y14521308D01*
X7543333Y14478739D01*
X7547100Y14443286D01*
X7552354Y14417694D01*
X7552360Y14417675D01*
X7563617Y14388423D01*
X7576883Y14366333D01*
X7590716Y14353457D01*
X7599154Y14351000D01*
X7607958Y14355091D01*
X7622531Y14365793D01*
X7638947Y14380092D01*
X7665501Y14410869D01*
X7691474Y14452162D01*
X7715852Y14501795D01*
X7737621Y14557594D01*
X7755766Y14617381D01*
X7762503Y14645111D01*
X7766601Y14666954D01*
X7770276Y14692665D01*
X7773160Y14718639D01*
X7774884Y14741276D01*
X7775079Y14756975D01*
X7774399Y14761351D01*
X7765800Y14768925D01*
X7751593Y14767924D01*
X7738446Y14760809D01*
X7723270Y14754900D01*
X7710840Y14760237D01*
X7706284Y14767759D01*
X7707230Y14780782D01*
X7716304Y14803124D01*
X7733349Y14834479D01*
X7758207Y14874542D01*
X7772035Y14895532D01*
X7800079Y14935057D01*
X7823786Y14963052D01*
X7843570Y14979764D01*
X7859847Y14985441D01*
X7873028Y14980330D01*
X7883529Y14964681D01*
X7884362Y14962752D01*
X7893661Y14936426D01*
X7901094Y14905648D01*
X7906872Y14868748D01*
X7911206Y14824059D01*
X7914306Y14769912D01*
X7916261Y14709775D01*
X7917242Y14636493D01*
X7916071Y14573764D01*
X7912285Y14519552D01*
X7905422Y14471823D01*
X7895020Y14428542D01*
X7880616Y14387674D01*
X7861749Y14347184D01*
X7837957Y14305039D01*
X7816640Y14271177D01*
X7777977Y14210044D01*
X7747562Y14158111D01*
X7725238Y14115059D01*
X7710846Y14080568D01*
X7704228Y14054319D01*
X7703834Y14043414D01*
X7707877Y14024204D01*
X7716804Y14016070D01*
X7731294Y14018867D01*
X7752024Y14032451D01*
X7752685Y14032972D01*
X7773200Y14047162D01*
X7798157Y14061681D01*
X7811353Y14068314D01*
X7837734Y14079486D01*
X7856707Y14083957D01*
X7869280Y14080643D01*
X7876459Y14068461D01*
X7879253Y14046326D01*
X7878667Y14013155D01*
X7877734Y13996888D01*
X7873410Y13940568D01*
X7867302Y13877604D01*
X7859737Y13810344D01*
X7851043Y13741136D01*
X7841546Y13672328D01*
X7831574Y13606268D01*
X7821454Y13545305D01*
X7811515Y13491786D01*
X7802082Y13448059D01*
X7800069Y13439831D01*
X7777597Y13361855D01*
X7750433Y13289571D01*
X7717529Y13221340D01*
X7677832Y13155525D01*
X7630294Y13090488D01*
X7573864Y13024592D01*
X7507492Y12956198D01*
X7462402Y12913228D01*
X7415804Y12869145D01*
X7377097Y12830581D01*
X7344214Y12795177D01*
X7315086Y12760571D01*
X7287645Y12724403D01*
X7259823Y12684313D01*
X7253359Y12674600D01*
X7214857Y12617345D01*
X7180742Y12569133D01*
X7149181Y12527937D01*
X7118340Y12491728D01*
X7086386Y12458475D01*
X7051487Y12426151D01*
X7011809Y12392727D01*
X6965950Y12356508D01*
X6925295Y12325608D01*
X6893039Y12302333D01*
X6868041Y12285928D01*
X6849159Y12275637D01*
X6836750Y12271052D01*
X6825967Y12269676D01*
X6821087Y12273166D01*
X6822452Y12282689D01*
X6830401Y12299411D01*
X6845274Y12324500D01*
X6858293Y12345034D01*
X6875498Y12372459D01*
X6891431Y12399052D01*
X6903963Y12421198D01*
X6909558Y12432091D01*
X6922430Y12459457D01*
X6906094Y12480874D01*
X6890897Y12497912D01*
X6876536Y12505588D01*
X6859953Y12504174D01*
X6838087Y12493944D01*
X6827880Y12487878D01*
X6776308Y12462621D01*
X6724497Y12449894D01*
X6672887Y12449726D01*
X6621917Y12462149D01*
X6599464Y12471779D01*
X6560146Y12496267D01*
X6531457Y12526605D01*
X6512962Y12563614D01*
X6504226Y12608116D01*
X6504103Y12651762D01*
X6513141Y12710562D01*
X6532873Y12772159D01*
X6563551Y12837086D01*
X6605427Y12905878D01*
X6658754Y12979068D01*
X6658782Y12979103D01*
X6698923Y13032534D01*
X6730462Y13079482D01*
X6754487Y13121674D01*
X6770440Y13156652D01*
X6778068Y13183358D01*
X6783148Y13216671D01*
X6785620Y13253068D01*
X6785422Y13289027D01*
X6782495Y13321024D01*
X6776778Y13345537D01*
X6773804Y13352261D01*
X6760365Y13370550D01*
X6737672Y13394291D01*
X6707288Y13422287D01*
X6670779Y13453341D01*
X6629711Y13486255D01*
X6585647Y13519832D01*
X6540153Y13552875D01*
X6494795Y13584187D01*
X6451137Y13612570D01*
X6410744Y13636826D01*
X6380564Y13653096D01*
X6327200Y13676701D01*
X6279200Y13690763D01*
X6234247Y13695851D01*
X6210250Y13695054D01*
X6165241Y13688733D01*
X6127031Y13677129D01*
X6094241Y13659010D01*
X6065488Y13633145D01*
X6039392Y13598302D01*
X6014571Y13553251D01*
X5990705Y13499363D01*
X5974224Y13459523D01*
X5960972Y13429146D01*
X5949605Y13405848D01*
X5938779Y13387246D01*
X5927150Y13370954D01*
X5913374Y13354588D01*
X5902160Y13342272D01*
X5871204Y13312182D01*
X5842576Y13292445D01*
X5813503Y13281779D01*
X5781213Y13278906D01*
X5766507Y13279675D01*
X5712668Y13288987D01*
X5667673Y13307257D01*
X5631190Y13334662D01*
X5606383Y13365650D01*
X5593275Y13394113D01*
X5587681Y13424035D01*
X5590130Y13451160D01*
X5594408Y13462108D01*
X5602093Y13470428D01*
X5617950Y13483709D01*
X5639513Y13499981D01*
X5659496Y13514022D01*
X5687424Y13534706D01*
X5720476Y13561824D01*
X5755211Y13592434D01*
X5788187Y13623594D01*
X5791674Y13627044D01*
X5830976Y13667860D01*
X5866337Y13708672D01*
X5898709Y13751083D01*
X5929045Y13796697D01*
X5958298Y13847117D01*
X5987421Y13903947D01*
X6017366Y13968790D01*
X6049087Y14043251D01*
X6070882Y14097000D01*
X6088285Y14139773D01*
X6106391Y14182849D01*
X6123929Y14223303D01*
X6139630Y14258215D01*
X6152222Y14284662D01*
X6153835Y14287856D01*
X6179879Y14334281D01*
X6209952Y14378693D01*
X6245247Y14422339D01*
X6286955Y14466468D01*
X6336271Y14512328D01*
X6394386Y14561168D01*
X6462492Y14614235D01*
X6473825Y14622773D01*
X6539999Y14669594D01*
X6601845Y14706882D01*
X6662017Y14735713D01*
X6723166Y14757163D01*
X6787948Y14772310D01*
X6859014Y14782228D01*
X6869391Y14783240D01*
X6931258Y14785981D01*
X7001157Y14783926D01*
X7075533Y14777481D01*
X7150830Y14767050D01*
X7223494Y14753038D01*
X7289971Y14735850D01*
X7292667Y14735037D01*
X7311793Y14729775D01*
X7323061Y14728833D01*
X7330562Y14732229D01*
X7333835Y14735212D01*
X7339491Y14745445D01*
X7335733Y14756710D01*
X7321742Y14770124D01*
X7296701Y14786804D01*
X7295467Y14787549D01*
X7219803Y14826539D01*
X7135339Y14858213D01*
X7043803Y14882364D01*
X6946920Y14898781D01*
X6846416Y14907256D01*
X6744020Y14907579D01*
X6641456Y14899543D01*
X6540451Y14882938D01*
X6528542Y14880365D01*
X6456488Y14862195D01*
X6386860Y14839829D01*
X6315810Y14811879D01*
X6239488Y14776955D01*
X6232525Y14773568D01*
X6182077Y14747355D01*
X6128362Y14716684D01*
X6073426Y14682942D01*
X6019313Y14647518D01*
X5968069Y14611803D01*
X5921737Y14577183D01*
X5882363Y14545049D01*
X5851991Y14516789D01*
X5847416Y14511981D01*
X5830606Y14493875D01*
X5846835Y14433550D01*
X5853567Y14406671D01*
X5858208Y14382409D01*
X5861145Y14357164D01*
X5862764Y14327336D01*
X5863450Y14289326D01*
X5863522Y14277975D01*
X5863197Y14230806D01*
X5861304Y14191987D01*
X5857226Y14157201D01*
X5850347Y14122134D01*
X5840053Y14082470D01*
X5831348Y14052550D01*
X5818619Y14014112D01*
X5802248Y13970917D01*
X5783635Y13926158D01*
X5764180Y13883029D01*
X5745282Y13844722D01*
X5728342Y13814433D01*
X5724018Y13807640D01*
X5680679Y13752900D01*
X5626710Y13702611D01*
X5563718Y13657829D01*
X5493311Y13619609D01*
X5417098Y13589006D01*
X5369468Y13574798D01*
X5338933Y13566309D01*
X5318931Y13559206D01*
X5307519Y13552514D01*
X5302751Y13545261D01*
X5302250Y13541147D01*
X5305826Y13532857D01*
X5315474Y13517005D01*
X5329575Y13496135D01*
X5341149Y13480012D01*
X5394641Y13414654D01*
X5456852Y13351339D01*
X5524928Y13292492D01*
X5596013Y13240540D01*
X5667252Y13197909D01*
X5682125Y13190288D01*
X5712817Y13175742D01*
X5736661Y13166468D01*
X5757700Y13161205D01*
X5779974Y13158686D01*
X5783909Y13158454D01*
X5809631Y13157985D01*
X5829248Y13160792D01*
X5849212Y13168228D01*
X5863327Y13175111D01*
X5900528Y13194030D01*
X5947300Y13168802D01*
X5979670Y13153340D01*
X6003237Y13146704D01*
X6018299Y13148860D01*
X6025133Y13159667D01*
X6023496Y13170328D01*
X6017227Y13189186D01*
X6007447Y13213112D01*
X6000566Y13228168D01*
X5989425Y13252311D01*
X5981054Y13271807D01*
X5976517Y13284096D01*
X5976118Y13286996D01*
X5981869Y13284438D01*
X5995420Y13275683D01*
X6014491Y13262257D01*
X6028580Y13251887D01*
X6059516Y13229985D01*
X6089106Y13211264D01*
X6115368Y13196784D01*
X6136321Y13187602D01*
X6149983Y13184776D01*
X6152816Y13185568D01*
X6157609Y13190328D01*
X6158171Y13197536D01*
X6153724Y13208906D01*
X6143489Y13226155D01*
X6126686Y13251000D01*
X6116584Y13265385D01*
X6096890Y13294109D01*
X6077664Y13323640D01*
X6061513Y13349897D01*
X6053377Y13364250D01*
X6032979Y13402555D01*
X6054993Y13435243D01*
X6093157Y13482906D01*
X6136099Y13519084D01*
X6184691Y13544238D01*
X6239806Y13558824D01*
X6299200Y13563310D01*
X6353893Y13557258D01*
X6408827Y13539920D01*
X6462562Y13512601D01*
X6513657Y13476603D01*
X6560673Y13433229D01*
X6602168Y13383784D01*
X6636702Y13329569D01*
X6662835Y13271889D01*
X6677348Y13221196D01*
X6682274Y13183634D01*
X6680674Y13146405D01*
X6671997Y13107507D01*
X6655692Y13064938D01*
X6631210Y13016696D01*
X6612047Y12983665D01*
X6599666Y12964005D01*
X6590784Y12953372D01*
X6582868Y12949619D01*
X6573380Y12950600D01*
X6573076Y12950672D01*
X6545005Y12960303D01*
X6509242Y12977171D01*
X6467739Y13000248D01*
X6422447Y13028505D01*
X6411070Y13036050D01*
X6380034Y13056790D01*
X6357733Y13071219D01*
X6342369Y13080122D01*
X6332141Y13084282D01*
X6325252Y13084482D01*
X6319902Y13081505D01*
X6315724Y13077565D01*
X6309816Y13067686D01*
X6308481Y13053060D01*
X6311967Y13031866D01*
X6320518Y13002283D01*
X6329432Y12976225D01*
X6354024Y12915771D01*
X6385208Y12855363D01*
X6414346Y12807315D01*
X6428040Y12785415D01*
X6438624Y12767506D01*
X6444533Y12756283D01*
X6445250Y12754102D01*
X6439825Y12750487D01*
X6425260Y12751206D01*
X6404119Y12755667D01*
X6378968Y12763276D01*
X6352372Y12773443D01*
X6342377Y12777872D01*
X6316736Y12789095D01*
X6300120Y12794614D01*
X6290495Y12794978D01*
X6287064Y12792754D01*
X6286623Y12782771D01*
X6293855Y12764664D01*
X6307971Y12739779D01*
X6328182Y12709459D01*
X6353699Y12675050D01*
X6363435Y12662668D01*
X6380848Y12640493D01*
X6391785Y12624670D01*
X6397752Y12611673D01*
X6400253Y12597975D01*
X6400795Y12580051D01*
X6400800Y12575152D01*
X6402481Y12544913D01*
X6408503Y12518859D01*
X6420339Y12493243D01*
X6439462Y12464316D01*
X6449674Y12450727D01*
X6498093Y12392397D01*
X6548882Y12339697D01*
X6600675Y12293682D01*
X6652105Y12255409D01*
X6701806Y12225933D01*
X6748411Y12206313D01*
X6774436Y12199688D01*
X6803272Y12196218D01*
X6829024Y12197808D01*
X6854499Y12205386D01*
X6882503Y12219883D01*
X6915843Y12242226D01*
X6926480Y12249988D01*
X7017197Y12319816D01*
X7096032Y12386498D01*
X7163320Y12450354D01*
X7219399Y12511707D01*
X7264603Y12570878D01*
X7270670Y12579894D01*
X7291184Y12609337D01*
X7313991Y12639525D01*
X7335625Y12665969D01*
X7346225Y12677775D01*
X7368199Y12701551D01*
X7391276Y12727413D01*
X7410497Y12749799D01*
X7410660Y12749997D01*
X7426475Y12767053D01*
X7449388Y12789236D01*
X7476496Y12813844D01*
X7504897Y12838175D01*
X7508875Y12841458D01*
X7591098Y12913374D01*
X7661516Y12984634D01*
X7720923Y13056181D01*
X7770113Y13128956D01*
X7804310Y13192125D01*
X7822352Y13232308D01*
X7842467Y13282002D01*
X7863642Y13338400D01*
X7884864Y13398694D01*
X7905121Y13460075D01*
X7923399Y13519735D01*
X7927091Y13532478D01*
X7961195Y13664238D01*
X7990856Y13804792D01*
X8015953Y13952195D01*
X8036364Y14104502D01*
X8051966Y14259769D01*
X8062639Y14416050D01*
X8068260Y14571401D01*
X8068709Y14723877D01*
X8063862Y14871534D01*
G36*
X7140695Y12921779D02*
G01*
X7132781Y12938267D01*
X7121891Y12958631D01*
X7109906Y12979427D01*
X7098706Y12997210D01*
X7093637Y13004362D01*
X7071275Y13028067D01*
X7041498Y13051972D01*
X7008815Y13072952D01*
X6977737Y13087883D01*
X6968734Y13090911D01*
X6941689Y13096415D01*
X6912502Y13098942D01*
X6901228Y13098807D01*
X6867525Y13096875D01*
X6900736Y13088383D01*
X6935565Y13075320D01*
X6971980Y13054797D01*
X7005118Y13029948D01*
X7028440Y13006076D01*
X7041494Y12987672D01*
X7055521Y12964898D01*
X7068737Y12941061D01*
X7079357Y12919468D01*
X7085598Y12903425D01*
X7086520Y12898437D01*
X7090738Y12891059D01*
X7093154Y12890500D01*
X7103466Y12892790D01*
X7118232Y12898291D01*
X7132746Y12904946D01*
X7142302Y12910697D01*
X7143750Y12912612D01*
X7140695Y12921779D01*
G37*
X7140695Y12921779D02*
X7132781Y12938267D01*
X7121891Y12958631D01*
X7109906Y12979427D01*
X7098706Y12997210D01*
X7093637Y13004362D01*
X7071275Y13028067D01*
X7041498Y13051972D01*
X7008815Y13072952D01*
X6977737Y13087883D01*
X6968734Y13090911D01*
X6941689Y13096415D01*
X6912502Y13098942D01*
X6901228Y13098807D01*
X6867525Y13096875D01*
X6900736Y13088383D01*
X6935565Y13075320D01*
X6971980Y13054797D01*
X7005118Y13029948D01*
X7028440Y13006076D01*
X7041494Y12987672D01*
X7055521Y12964898D01*
X7068737Y12941061D01*
X7079357Y12919468D01*
X7085598Y12903425D01*
X7086520Y12898437D01*
X7090738Y12891059D01*
X7093154Y12890500D01*
X7103466Y12892790D01*
X7118232Y12898291D01*
X7132746Y12904946D01*
X7142302Y12910697D01*
X7143750Y12912612D01*
X7140695Y12921779D01*
G36*
X7393258Y14180243D02*
G01*
X7386000Y14177339D01*
X7371380Y14168709D01*
X7348270Y14153786D01*
X7325897Y14138934D01*
X7290040Y14115362D01*
X7248146Y14088407D01*
X7205091Y14061176D01*
X7165753Y14036776D01*
X7160713Y14033698D01*
X7127485Y14013193D01*
X7103776Y13997792D01*
X7088079Y13986303D01*
X7078884Y13977533D01*
X7074683Y13970289D01*
X7073900Y13965084D01*
X7072298Y13948742D01*
X7067785Y13922048D01*
X7060805Y13886900D01*
X7051800Y13845196D01*
X7041212Y13798833D01*
X7029486Y13749710D01*
X7017062Y13699725D01*
X7004384Y13650774D01*
X6991895Y13604756D01*
X6980992Y13566775D01*
X6979837Y13558535D01*
X6983847Y13560425D01*
X6989219Y13568337D01*
X6998881Y13585110D01*
X7011438Y13608247D01*
X7024841Y13633960D01*
X7046313Y13679948D01*
X7067622Y13732769D01*
X7087337Y13788303D01*
X7104025Y13842427D01*
X7116252Y13891018D01*
X7119026Y13904930D01*
X7123696Y13928746D01*
X7128612Y13944064D01*
X7136293Y13954883D01*
X7149256Y13965202D01*
X7162594Y13974120D01*
X7203122Y14002296D01*
X7244718Y14033861D01*
X7285276Y14066995D01*
X7322694Y14099876D01*
X7354867Y14130681D01*
X7379690Y14157591D01*
X7390190Y14171123D01*
X7394279Y14177983D01*
X7393258Y14180243D01*
G37*
X7393258Y14180243D02*
X7386000Y14177339D01*
X7371380Y14168709D01*
X7348270Y14153786D01*
X7325897Y14138934D01*
X7290040Y14115362D01*
X7248146Y14088407D01*
X7205091Y14061176D01*
X7165753Y14036776D01*
X7160713Y14033698D01*
X7127485Y14013193D01*
X7103776Y13997792D01*
X7088079Y13986303D01*
X7078884Y13977533D01*
X7074683Y13970289D01*
X7073900Y13965084D01*
X7072298Y13948742D01*
X7067785Y13922048D01*
X7060805Y13886900D01*
X7051800Y13845196D01*
X7041212Y13798833D01*
X7029486Y13749710D01*
X7017062Y13699725D01*
X7004384Y13650774D01*
X6991895Y13604756D01*
X6980992Y13566775D01*
X6979837Y13558535D01*
X6983847Y13560425D01*
X6989219Y13568337D01*
X6998881Y13585110D01*
X7011438Y13608247D01*
X7024841Y13633960D01*
X7046313Y13679948D01*
X7067622Y13732769D01*
X7087337Y13788303D01*
X7104025Y13842427D01*
X7116252Y13891018D01*
X7119026Y13904930D01*
X7123696Y13928746D01*
X7128612Y13944064D01*
X7136293Y13954883D01*
X7149256Y13965202D01*
X7162594Y13974120D01*
X7203122Y14002296D01*
X7244718Y14033861D01*
X7285276Y14066995D01*
X7322694Y14099876D01*
X7354867Y14130681D01*
X7379690Y14157591D01*
X7390190Y14171123D01*
X7394279Y14177983D01*
X7393258Y14180243D01*
G36*
X7564412Y13454050D02*
G01*
X7550237Y13458955D01*
X7526648Y13455620D01*
X7514404Y13451902D01*
X7477072Y13435248D01*
X7439952Y13411755D01*
X7407978Y13384782D01*
X7395251Y13370777D01*
X7384353Y13356581D01*
X7368646Y13335221D01*
X7349709Y13308942D01*
X7329120Y13279985D01*
X7308458Y13250595D01*
X7289303Y13223014D01*
X7273232Y13199486D01*
X7261827Y13182253D01*
X7257204Y13174662D01*
X7254311Y13165714D01*
X7255898Y13163550D01*
X7263455Y13166884D01*
X7277321Y13175337D01*
X7285242Y13180666D01*
X7309942Y13197783D01*
X7330034Y13174890D01*
X7355650Y13150024D01*
X7381816Y13134811D01*
X7412854Y13126776D01*
X7414480Y13126537D01*
X7432616Y13123379D01*
X7442373Y13118200D01*
X7447670Y13107301D01*
X7451391Y13091700D01*
X7456334Y13074121D01*
X7461527Y13063128D01*
X7463989Y13061258D01*
X7466924Y13067121D01*
X7472545Y13083475D01*
X7480353Y13108515D01*
X7489850Y13140437D01*
X7500536Y13177437D01*
X7511912Y13217712D01*
X7523479Y13259457D01*
X7534739Y13300869D01*
X7545192Y13340144D01*
X7554339Y13375477D01*
X7561681Y13405065D01*
X7566720Y13427104D01*
X7568955Y13439790D01*
X7569021Y13440934D01*
X7564412Y13454050D01*
G37*
X7564412Y13454050D02*
X7550237Y13458955D01*
X7526648Y13455620D01*
X7514404Y13451902D01*
X7477072Y13435248D01*
X7439952Y13411755D01*
X7407978Y13384782D01*
X7395251Y13370777D01*
X7384353Y13356581D01*
X7368646Y13335221D01*
X7349709Y13308942D01*
X7329120Y13279985D01*
X7308458Y13250595D01*
X7289303Y13223014D01*
X7273232Y13199486D01*
X7261827Y13182253D01*
X7257204Y13174662D01*
X7254311Y13165714D01*
X7255898Y13163550D01*
X7263455Y13166884D01*
X7277321Y13175337D01*
X7285242Y13180666D01*
X7309942Y13197783D01*
X7330034Y13174890D01*
X7355650Y13150024D01*
X7381816Y13134811D01*
X7412854Y13126776D01*
X7414480Y13126537D01*
X7432616Y13123379D01*
X7442373Y13118200D01*
X7447670Y13107301D01*
X7451391Y13091700D01*
X7456334Y13074121D01*
X7461527Y13063128D01*
X7463989Y13061258D01*
X7466924Y13067121D01*
X7472545Y13083475D01*
X7480353Y13108515D01*
X7489850Y13140437D01*
X7500536Y13177437D01*
X7511912Y13217712D01*
X7523479Y13259457D01*
X7534739Y13300869D01*
X7545192Y13340144D01*
X7554339Y13375477D01*
X7561681Y13405065D01*
X7566720Y13427104D01*
X7568955Y13439790D01*
X7569021Y13440934D01*
X7564412Y13454050D01*
%TD*%
D12*
%TO.P,J1,1*%
%TO.N,/+3.3V*%
X38735000Y11430000D03*
D13*
%TO.P,J1,2*%
%TO.N,/+5V*%
X40005000Y11430000D03*
%TO.P,J1,3*%
%TO.N,/ANA_IN*%
X38735000Y12700000D03*
%TO.P,J1,4*%
%TO.N,/LIM_FWD*%
X40005000Y12700000D03*
%TO.P,J1,5*%
%TO.N,/ENC_B*%
X38735000Y13970000D03*
%TO.P,J1,6*%
%TO.N,Net-(J1-Pad6)*%
X40005000Y13970000D03*
%TO.P,J1,7*%
%TO.N,/ENC_A*%
X38735000Y15240000D03*
%TO.P,J1,8*%
%TO.N,/LIM_REV*%
X40005000Y15240000D03*
%TO.P,J1,9*%
%TO.N,/ENC_IDX*%
X38735000Y16510000D03*
%TO.P,J1,10*%
%TO.N,GND*%
X40005000Y16510000D03*
%TD*%
D14*
%TO.N,/LIM_REV*%
X34036000Y17399000D03*
%TO.N,/LIM_FWD*%
X25654000Y12319000D03*
X24257000Y12319000D03*
%TO.N,/+3.3V*%
X17272000Y11430000D03*
%TO.N,/+5V*%
X21717000Y10287000D03*
%TO.N,/ENC_B*%
X23241000Y15748000D03*
%TO.N,/ENC_A*%
X22174190Y16475012D03*
%TD*%
D15*
%TO.N,/LIM_REV*%
X40005000Y15240000D02*
X40767000Y15240000D01*
X40767000Y15240000D02*
X40886001Y15359001D01*
X40886001Y15359001D02*
X41275000Y15748000D01*
X41275000Y15748000D02*
X41275000Y16543882D01*
X41275000Y16543882D02*
X41275000Y16637000D01*
X40520999Y17391001D02*
X37838001Y17391001D01*
X41275000Y16637000D02*
X40520999Y17391001D01*
X37830002Y17399000D02*
X34036000Y17399000D01*
X37838001Y17391001D02*
X37830002Y17399000D01*
%TO.N,/LIM_FWD*%
X25654000Y12319000D02*
X24257000Y12319000D01*
D16*
%TO.N,/+3.3V*%
X38735000Y11430000D02*
X38608000Y11557000D01*
X38735000Y11430000D02*
X17272000Y11430000D01*
%TO.N,/+5V*%
X40005000Y10722894D02*
X39569106Y10287000D01*
X40005000Y11430000D02*
X40005000Y10722894D01*
X39569106Y10287000D02*
X21717000Y10287000D01*
D15*
%TO.N,/ENC_B*%
X23368000Y15875000D02*
X23241000Y15748000D01*
X36830000Y15875000D02*
X23368000Y15875000D01*
X38735000Y13970000D02*
X36830000Y15875000D01*
%TO.N,/ENC_A*%
X38735000Y15240000D02*
X37499988Y16475012D01*
X37499988Y16475012D02*
X22174190Y16475012D01*
%TD*%
M02*
