%TF.GenerationSoftware,KiCad,Pcbnew,(5.1.6-0)*%
%TF.CreationDate,2022-04-21T00:04:20-07:00*%
%TF.ProjectId,talonsrx-enc-limit-ftc,74616c6f-6e73-4727-982d-656e632d6c69,rev?*%
%TF.SameCoordinates,PX695f190PY69fa208*%
%TF.FileFunction,Soldermask,Top*%
%TF.FilePolarity,Negative*%
%FSLAX46Y46*%
G04 Gerber Fmt 4.6, Leading zero omitted, Abs format (unit mm)*
G04 Created by KiCad (PCBNEW (5.1.6-0)) date 2022-04-21 00:04:20*
%MOMM*%
%LPD*%
G01*
G04 APERTURE LIST*
%ADD10C,3.300000*%
%ADD11R,1.100000X1.100000*%
%ADD12O,1.100000X1.100000*%
%ADD13R,1.600000X1.100000*%
%ADD14C,6.900000*%
G04 APERTURE END LIST*
%TO.C,J4*%
G36*
G01*
X31600000Y5975000D02*
X26550000Y5975000D01*
G75*
G02*
X26275000Y6250000I0J275000D01*
G01*
X26275000Y6800000D01*
G75*
G02*
X26550000Y7075000I275000J0D01*
G01*
X31600000Y7075000D01*
G75*
G02*
X31875000Y6800000I0J-275000D01*
G01*
X31875000Y6250000D01*
G75*
G02*
X31600000Y5975000I-275000J0D01*
G01*
G37*
G36*
G01*
X31600000Y7975000D02*
X26550000Y7975000D01*
G75*
G02*
X26275000Y8250000I0J275000D01*
G01*
X26275000Y8800000D01*
G75*
G02*
X26550000Y9075000I275000J0D01*
G01*
X31600000Y9075000D01*
G75*
G02*
X31875000Y8800000I0J-275000D01*
G01*
X31875000Y8250000D01*
G75*
G02*
X31600000Y7975000I-275000J0D01*
G01*
G37*
G36*
G01*
X31600000Y9975000D02*
X26550000Y9975000D01*
G75*
G02*
X26275000Y10250000I0J275000D01*
G01*
X26275000Y10800000D01*
G75*
G02*
X26550000Y11075000I275000J0D01*
G01*
X31600000Y11075000D01*
G75*
G02*
X31875000Y10800000I0J-275000D01*
G01*
X31875000Y10250000D01*
G75*
G02*
X31600000Y9975000I-275000J0D01*
G01*
G37*
G36*
G01*
X31600000Y11975000D02*
X26550000Y11975000D01*
G75*
G02*
X26275000Y12250000I0J275000D01*
G01*
X26275000Y12800000D01*
G75*
G02*
X26550000Y13075000I275000J0D01*
G01*
X31600000Y13075000D01*
G75*
G02*
X31875000Y12800000I0J-275000D01*
G01*
X31875000Y12250000D01*
G75*
G02*
X31600000Y11975000I-275000J0D01*
G01*
G37*
G36*
G01*
X28109375Y3275000D02*
X25540625Y3275000D01*
G75*
G02*
X25275000Y3540625I0J265625D01*
G01*
X25275000Y4709375D01*
G75*
G02*
X25540625Y4975000I265625J0D01*
G01*
X28109375Y4975000D01*
G75*
G02*
X28375000Y4709375I0J-265625D01*
G01*
X28375000Y3540625D01*
G75*
G02*
X28109375Y3275000I-265625J0D01*
G01*
G37*
G36*
G01*
X28109375Y14075000D02*
X25540625Y14075000D01*
G75*
G02*
X25275000Y14340625I0J265625D01*
G01*
X25275000Y15509375D01*
G75*
G02*
X25540625Y15775000I265625J0D01*
G01*
X28109375Y15775000D01*
G75*
G02*
X28375000Y15509375I0J-265625D01*
G01*
X28375000Y14340625D01*
G75*
G02*
X28109375Y14075000I-265625J0D01*
G01*
G37*
%TD*%
D10*
%TO.C,REF\u002A\u002A*%
X4445000Y23495000D03*
%TD*%
%TO.C,REF\u002A\u002A*%
X4445000Y4445000D03*
%TD*%
%TO.C,REF\u002A\u002A*%
X34290000Y23495000D03*
%TD*%
%TO.C,D1*%
G36*
G01*
X30326250Y19450000D02*
X29363750Y19450000D01*
G75*
G02*
X29095000Y19718750I0J268750D01*
G01*
X29095000Y20256250D01*
G75*
G02*
X29363750Y20525000I268750J0D01*
G01*
X30326250Y20525000D01*
G75*
G02*
X30595000Y20256250I0J-268750D01*
G01*
X30595000Y19718750D01*
G75*
G02*
X30326250Y19450000I-268750J0D01*
G01*
G37*
G36*
G01*
X30326250Y17575000D02*
X29363750Y17575000D01*
G75*
G02*
X29095000Y17843750I0J268750D01*
G01*
X29095000Y18381250D01*
G75*
G02*
X29363750Y18650000I268750J0D01*
G01*
X30326250Y18650000D01*
G75*
G02*
X30595000Y18381250I0J-268750D01*
G01*
X30595000Y17843750D01*
G75*
G02*
X30326250Y17575000I-268750J0D01*
G01*
G37*
%TD*%
%TO.C,D2*%
G36*
G01*
X26516250Y17575000D02*
X25553750Y17575000D01*
G75*
G02*
X25285000Y17843750I0J268750D01*
G01*
X25285000Y18381250D01*
G75*
G02*
X25553750Y18650000I268750J0D01*
G01*
X26516250Y18650000D01*
G75*
G02*
X26785000Y18381250I0J-268750D01*
G01*
X26785000Y17843750D01*
G75*
G02*
X26516250Y17575000I-268750J0D01*
G01*
G37*
G36*
G01*
X26516250Y19450000D02*
X25553750Y19450000D01*
G75*
G02*
X25285000Y19718750I0J268750D01*
G01*
X25285000Y20256250D01*
G75*
G02*
X25553750Y20525000I268750J0D01*
G01*
X26516250Y20525000D01*
G75*
G02*
X26785000Y20256250I0J-268750D01*
G01*
X26785000Y19718750D01*
G75*
G02*
X26516250Y19450000I-268750J0D01*
G01*
G37*
%TD*%
D11*
%TO.C,J1*%
X38735000Y11430000D03*
D12*
X40005000Y11430000D03*
X38735000Y12700000D03*
X40005000Y12700000D03*
X38735000Y13970000D03*
X40005000Y13970000D03*
X38735000Y15240000D03*
X40005000Y15240000D03*
X38735000Y16510000D03*
X40005000Y16510000D03*
%TD*%
D13*
%TO.C,JP1*%
X19050000Y22860000D03*
X19050000Y24160000D03*
X19050000Y21560000D03*
%TD*%
%TO.C,JP2*%
X19050000Y3780000D03*
X19050000Y6380000D03*
X19050000Y5080000D03*
%TD*%
%TO.C,R1*%
G36*
G01*
X29363750Y22460000D02*
X30326250Y22460000D01*
G75*
G02*
X30595000Y22191250I0J-268750D01*
G01*
X30595000Y21653750D01*
G75*
G02*
X30326250Y21385000I-268750J0D01*
G01*
X29363750Y21385000D01*
G75*
G02*
X29095000Y21653750I0J268750D01*
G01*
X29095000Y22191250D01*
G75*
G02*
X29363750Y22460000I268750J0D01*
G01*
G37*
G36*
G01*
X29363750Y24335000D02*
X30326250Y24335000D01*
G75*
G02*
X30595000Y24066250I0J-268750D01*
G01*
X30595000Y23528750D01*
G75*
G02*
X30326250Y23260000I-268750J0D01*
G01*
X29363750Y23260000D01*
G75*
G02*
X29095000Y23528750I0J268750D01*
G01*
X29095000Y24066250D01*
G75*
G02*
X29363750Y24335000I268750J0D01*
G01*
G37*
%TD*%
%TO.C,R2*%
G36*
G01*
X25553750Y24335000D02*
X26516250Y24335000D01*
G75*
G02*
X26785000Y24066250I0J-268750D01*
G01*
X26785000Y23528750D01*
G75*
G02*
X26516250Y23260000I-268750J0D01*
G01*
X25553750Y23260000D01*
G75*
G02*
X25285000Y23528750I0J268750D01*
G01*
X25285000Y24066250D01*
G75*
G02*
X25553750Y24335000I268750J0D01*
G01*
G37*
G36*
G01*
X25553750Y22460000D02*
X26516250Y22460000D01*
G75*
G02*
X26785000Y22191250I0J-268750D01*
G01*
X26785000Y21653750D01*
G75*
G02*
X26516250Y21385000I-268750J0D01*
G01*
X25553750Y21385000D01*
G75*
G02*
X25285000Y21653750I0J268750D01*
G01*
X25285000Y22191250D01*
G75*
G02*
X25553750Y22460000I268750J0D01*
G01*
G37*
%TD*%
%TO.C,J2*%
G36*
G01*
X15725000Y17405000D02*
X10675000Y17405000D01*
G75*
G02*
X10400000Y17680000I0J275000D01*
G01*
X10400000Y18230000D01*
G75*
G02*
X10675000Y18505000I275000J0D01*
G01*
X15725000Y18505000D01*
G75*
G02*
X16000000Y18230000I0J-275000D01*
G01*
X16000000Y17680000D01*
G75*
G02*
X15725000Y17405000I-275000J0D01*
G01*
G37*
G36*
G01*
X15725000Y19405000D02*
X10675000Y19405000D01*
G75*
G02*
X10400000Y19680000I0J275000D01*
G01*
X10400000Y20230000D01*
G75*
G02*
X10675000Y20505000I275000J0D01*
G01*
X15725000Y20505000D01*
G75*
G02*
X16000000Y20230000I0J-275000D01*
G01*
X16000000Y19680000D01*
G75*
G02*
X15725000Y19405000I-275000J0D01*
G01*
G37*
G36*
G01*
X15725000Y21405000D02*
X10675000Y21405000D01*
G75*
G02*
X10400000Y21680000I0J275000D01*
G01*
X10400000Y22230000D01*
G75*
G02*
X10675000Y22505000I275000J0D01*
G01*
X15725000Y22505000D01*
G75*
G02*
X16000000Y22230000I0J-275000D01*
G01*
X16000000Y21680000D01*
G75*
G02*
X15725000Y21405000I-275000J0D01*
G01*
G37*
G36*
G01*
X15725000Y23405000D02*
X10675000Y23405000D01*
G75*
G02*
X10400000Y23680000I0J275000D01*
G01*
X10400000Y24230000D01*
G75*
G02*
X10675000Y24505000I275000J0D01*
G01*
X15725000Y24505000D01*
G75*
G02*
X16000000Y24230000I0J-275000D01*
G01*
X16000000Y23680000D01*
G75*
G02*
X15725000Y23405000I-275000J0D01*
G01*
G37*
G36*
G01*
X12234375Y14705000D02*
X9665625Y14705000D01*
G75*
G02*
X9400000Y14970625I0J265625D01*
G01*
X9400000Y16139375D01*
G75*
G02*
X9665625Y16405000I265625J0D01*
G01*
X12234375Y16405000D01*
G75*
G02*
X12500000Y16139375I0J-265625D01*
G01*
X12500000Y14970625D01*
G75*
G02*
X12234375Y14705000I-265625J0D01*
G01*
G37*
G36*
G01*
X12234375Y25505000D02*
X9665625Y25505000D01*
G75*
G02*
X9400000Y25770625I0J265625D01*
G01*
X9400000Y26939375D01*
G75*
G02*
X9665625Y27205000I265625J0D01*
G01*
X12234375Y27205000D01*
G75*
G02*
X12500000Y26939375I0J-265625D01*
G01*
X12500000Y25770625D01*
G75*
G02*
X12234375Y25505000I-265625J0D01*
G01*
G37*
%TD*%
%TO.C,J3*%
G36*
G01*
X12234375Y11535000D02*
X9665625Y11535000D01*
G75*
G02*
X9400000Y11800625I0J265625D01*
G01*
X9400000Y12969375D01*
G75*
G02*
X9665625Y13235000I265625J0D01*
G01*
X12234375Y13235000D01*
G75*
G02*
X12500000Y12969375I0J-265625D01*
G01*
X12500000Y11800625D01*
G75*
G02*
X12234375Y11535000I-265625J0D01*
G01*
G37*
G36*
G01*
X12234375Y735000D02*
X9665625Y735000D01*
G75*
G02*
X9400000Y1000625I0J265625D01*
G01*
X9400000Y2169375D01*
G75*
G02*
X9665625Y2435000I265625J0D01*
G01*
X12234375Y2435000D01*
G75*
G02*
X12500000Y2169375I0J-265625D01*
G01*
X12500000Y1000625D01*
G75*
G02*
X12234375Y735000I-265625J0D01*
G01*
G37*
G36*
G01*
X15725000Y9435000D02*
X10675000Y9435000D01*
G75*
G02*
X10400000Y9710000I0J275000D01*
G01*
X10400000Y10260000D01*
G75*
G02*
X10675000Y10535000I275000J0D01*
G01*
X15725000Y10535000D01*
G75*
G02*
X16000000Y10260000I0J-275000D01*
G01*
X16000000Y9710000D01*
G75*
G02*
X15725000Y9435000I-275000J0D01*
G01*
G37*
G36*
G01*
X15725000Y7435000D02*
X10675000Y7435000D01*
G75*
G02*
X10400000Y7710000I0J275000D01*
G01*
X10400000Y8260000D01*
G75*
G02*
X10675000Y8535000I275000J0D01*
G01*
X15725000Y8535000D01*
G75*
G02*
X16000000Y8260000I0J-275000D01*
G01*
X16000000Y7710000D01*
G75*
G02*
X15725000Y7435000I-275000J0D01*
G01*
G37*
G36*
G01*
X15725000Y5435000D02*
X10675000Y5435000D01*
G75*
G02*
X10400000Y5710000I0J275000D01*
G01*
X10400000Y6260000D01*
G75*
G02*
X10675000Y6535000I275000J0D01*
G01*
X15725000Y6535000D01*
G75*
G02*
X16000000Y6260000I0J-275000D01*
G01*
X16000000Y5710000D01*
G75*
G02*
X15725000Y5435000I-275000J0D01*
G01*
G37*
G36*
G01*
X15725000Y3435000D02*
X10675000Y3435000D01*
G75*
G02*
X10400000Y3710000I0J275000D01*
G01*
X10400000Y4260000D01*
G75*
G02*
X10675000Y4535000I275000J0D01*
G01*
X15725000Y4535000D01*
G75*
G02*
X16000000Y4260000I0J-275000D01*
G01*
X16000000Y3710000D01*
G75*
G02*
X15725000Y3435000I-275000J0D01*
G01*
G37*
%TD*%
D14*
%TO.C,H1*%
X39370000Y23495000D03*
%TD*%
%TO.C,H2*%
X39370000Y4445000D03*
%TD*%
M02*
