M48
; DRILL file {KiCad (5.1.6-0)} date Tuesday, May 03, 2022 at 11:10:07 PM
; FORMAT={-:-/ absolute / metric / decimal}
; #@! TF.CreationDate,2022-05-03T23:10:07-07:00
; #@! TF.GenerationSoftware,Kicad,Pcbnew,(5.1.6-0)
; #@! TF.FileFunction,Plated,1,2,PTH
FMAT,2
METRIC
T1C0.305
T2C0.650
%
G90
G05
T1
X7.239Y26.67
X7.239Y25.908
X7.239Y16.002
X7.239Y15.24
X7.239Y12.7
X7.239Y11.938
X7.239Y2.032
X7.239Y1.27
X11.049Y26.67
X11.049Y25.908
X11.049Y16.002
X11.049Y15.24
X11.049Y12.7
X11.049Y11.938
X11.049Y2.032
X11.049Y1.27
X19.812Y15.621
X20.828Y17.526
X21.971Y15.113
X22.733Y15.621
X24.003Y15.24
X24.003Y14.478
X24.003Y4.572
X24.003Y3.81
X27.813Y15.24
X27.813Y14.478
X27.813Y4.572
X27.813Y3.81
X34.417Y11.938
X40.886Y9.136
T2
X38.735Y16.51
X38.735Y15.24
X38.735Y13.97
X38.735Y12.7
X38.735Y11.43
X40.005Y16.51
X40.005Y15.24
X40.005Y13.97
X40.005Y12.7
X40.005Y11.43
T0
M30
