M48
; DRILL file {KiCad (5.1.6-0)} date Monday, May 02, 2022 at 10:38:50 PM
; FORMAT={-:-/ absolute / metric / decimal}
; #@! TF.CreationDate,2022-05-02T22:38:50-07:00
; #@! TF.GenerationSoftware,Kicad,Pcbnew,(5.1.6-0)
; #@! TF.FileFunction,Plated,1,2,PTH
FMAT,2
METRIC
T1C0.750
T2C1.000
T3C1.100
%
G90
G05
T1
X16.51Y10.16
X18.51Y10.16
X20.51Y10.16
X22.51Y10.16
X16.51Y2.54
X18.51Y2.54
X20.51Y2.54
X22.51Y2.54
T2
X2.54Y11.43
X5.08Y11.43
X7.62Y11.43
X10.16Y11.43
X12.7Y11.43
X2.54Y8.89
X5.08Y8.89
X7.62Y8.89
X10.16Y8.89
X12.7Y8.89
X2.54Y16.51
X5.08Y16.51
X7.62Y16.51
X10.16Y16.51
X12.7Y16.51
X2.54Y19.05
X5.08Y19.05
X7.62Y19.05
X10.16Y19.05
X12.7Y19.05
X2.54Y1.27
X5.08Y1.27
X7.62Y1.27
X10.16Y1.27
X12.7Y1.27
X2.54Y13.97
X5.08Y13.97
X7.62Y13.97
X10.16Y13.97
X12.7Y13.97
X2.54Y3.81
X5.08Y3.81
X7.62Y3.81
X10.16Y3.81
X12.7Y3.81
X2.54Y6.35
X5.08Y6.35
X7.62Y6.35
X10.16Y6.35
X12.7Y6.35
X2.54Y21.59
X5.08Y21.59
X7.62Y21.59
X10.16Y21.59
X12.7Y21.59
X2.54Y24.13
X5.08Y24.13
X7.62Y24.13
X10.16Y24.13
X12.7Y24.13
X2.54Y29.21
X5.08Y29.21
X7.62Y29.21
X10.16Y29.21
X12.7Y29.21
X2.54Y26.67
X5.08Y26.67
X7.62Y26.67
X10.16Y26.67
X12.7Y26.67
T3
X19.05Y22.86
X22.55Y17.86
T0
M30
