%TF.GenerationSoftware,KiCad,Pcbnew,(5.1.6-0)*%
%TF.CreationDate,2022-05-02T22:38:42-07:00*%
%TF.ProjectId,rio-proto,72696f2d-7072-46f7-946f-2e6b69636164,rev?*%
%TF.SameCoordinates,PX87a6900PY757baf0*%
%TF.FileFunction,Copper,L2,Bot*%
%TF.FilePolarity,Positive*%
%FSLAX46Y46*%
G04 Gerber Fmt 4.6, Leading zero omitted, Abs format (unit mm)*
G04 Created by KiCad (PCBNEW (5.1.6-0)) date 2022-05-02 22:38:42*
%MOMM*%
%LPD*%
G01*
G04 APERTURE LIST*
%TA.AperFunction,NonConductor*%
%ADD10C,0.125000*%
%TD*%
%TA.AperFunction,EtchedComponent*%
%ADD11C,0.010000*%
%TD*%
%TA.AperFunction,SMDPad,CuDef*%
%ADD12C,0.100000*%
%TD*%
%TA.AperFunction,SMDPad,CuDef*%
%ADD13R,1.500000X1.000000*%
%TD*%
%TA.AperFunction,ComponentPad*%
%ADD14O,1.200000X1.750000*%
%TD*%
%TA.AperFunction,ComponentPad*%
%ADD15O,1.700000X1.700000*%
%TD*%
%TA.AperFunction,ComponentPad*%
%ADD16C,1.650000*%
%TD*%
%TA.AperFunction,Conductor*%
%ADD17C,0.254000*%
%TD*%
G04 APERTURE END LIST*
D10*
X14025619Y744750D02*
X14501809Y511417D01*
X14025619Y344750D02*
X15025619Y344750D01*
X15025619Y611417D01*
X14978000Y678084D01*
X14930380Y711417D01*
X14835142Y744750D01*
X14692285Y744750D01*
X14597047Y711417D01*
X14549428Y678084D01*
X14501809Y611417D01*
X14501809Y344750D01*
X14025619Y1411417D02*
X14025619Y1011417D01*
X14025619Y1211417D02*
X15025619Y1211417D01*
X14882761Y1144750D01*
X14787523Y1078084D01*
X14739904Y1011417D01*
X14930380Y2211417D02*
X14978000Y2244750D01*
X15025619Y2311417D01*
X15025619Y2478084D01*
X14978000Y2544750D01*
X14930380Y2578084D01*
X14835142Y2611417D01*
X14739904Y2611417D01*
X14597047Y2578084D01*
X14025619Y2178084D01*
X14025619Y2611417D01*
X15025619Y3044750D02*
X15025619Y3111417D01*
X14978000Y3178084D01*
X14930380Y3211417D01*
X14835142Y3244750D01*
X14644666Y3278084D01*
X14406571Y3278084D01*
X14216095Y3244750D01*
X14120857Y3211417D01*
X14073238Y3178084D01*
X14025619Y3111417D01*
X14025619Y3044750D01*
X14073238Y2978084D01*
X14120857Y2944750D01*
X14216095Y2911417D01*
X14406571Y2878084D01*
X14644666Y2878084D01*
X14835142Y2911417D01*
X14930380Y2944750D01*
X14978000Y2978084D01*
X15025619Y3044750D01*
X14930380Y3544750D02*
X14978000Y3578084D01*
X15025619Y3644750D01*
X15025619Y3811417D01*
X14978000Y3878084D01*
X14930380Y3911417D01*
X14835142Y3944750D01*
X14739904Y3944750D01*
X14597047Y3911417D01*
X14025619Y3511417D01*
X14025619Y3944750D01*
X14930380Y4211417D02*
X14978000Y4244750D01*
X15025619Y4311417D01*
X15025619Y4478084D01*
X14978000Y4544750D01*
X14930380Y4578084D01*
X14835142Y4611417D01*
X14739904Y4611417D01*
X14597047Y4578084D01*
X14025619Y4178084D01*
X14025619Y4611417D01*
X20121619Y26675084D02*
X20788285Y26675084D01*
X21121619Y26675084D02*
X21074000Y26641750D01*
X21026380Y26675084D01*
X21074000Y26708417D01*
X21121619Y26675084D01*
X21026380Y26675084D01*
X20121619Y27008417D02*
X21121619Y27008417D01*
X20121619Y27308417D02*
X20645428Y27308417D01*
X20740666Y27275084D01*
X20788285Y27208417D01*
X20788285Y27108417D01*
X20740666Y27041750D01*
X20693047Y27008417D01*
X20121619Y27941750D02*
X20645428Y27941750D01*
X20740666Y27908417D01*
X20788285Y27841750D01*
X20788285Y27708417D01*
X20740666Y27641750D01*
X20169238Y27941750D02*
X20121619Y27875084D01*
X20121619Y27708417D01*
X20169238Y27641750D01*
X20264476Y27608417D01*
X20359714Y27608417D01*
X20454952Y27641750D01*
X20502571Y27708417D01*
X20502571Y27875084D01*
X20550190Y27941750D01*
X20121619Y28275084D02*
X20788285Y28275084D01*
X20597809Y28275084D02*
X20693047Y28308417D01*
X20740666Y28341750D01*
X20788285Y28408417D01*
X20788285Y28475084D01*
X20788285Y28608417D02*
X20788285Y28875084D01*
X21121619Y28708417D02*
X20264476Y28708417D01*
X20169238Y28741750D01*
X20121619Y28808417D01*
X20121619Y28875084D01*
X20788285Y29041750D02*
X20121619Y29175084D01*
X20597809Y29308417D01*
X20121619Y29441750D01*
X20788285Y29575084D01*
X20121619Y29841750D02*
X20788285Y29841750D01*
X21121619Y29841750D02*
X21074000Y29808417D01*
X21026380Y29841750D01*
X21074000Y29875084D01*
X21121619Y29841750D01*
X21026380Y29841750D01*
X20788285Y30475084D02*
X19978761Y30475084D01*
X19883523Y30441750D01*
X19835904Y30408417D01*
X19788285Y30341750D01*
X19788285Y30241750D01*
X19835904Y30175084D01*
X20169238Y30475084D02*
X20121619Y30408417D01*
X20121619Y30275084D01*
X20169238Y30208417D01*
X20216857Y30175084D01*
X20312095Y30141750D01*
X20597809Y30141750D01*
X20693047Y30175084D01*
X20740666Y30208417D01*
X20788285Y30275084D01*
X20788285Y30408417D01*
X20740666Y30475084D01*
X20597809Y31241750D02*
X20645428Y31208417D01*
X20693047Y31141750D01*
X20693047Y31075084D01*
X20645428Y31008417D01*
X20597809Y30975084D01*
X20502571Y30941750D01*
X20407333Y30941750D01*
X20312095Y30975084D01*
X20264476Y31008417D01*
X20216857Y31075084D01*
X20216857Y31141750D01*
X20264476Y31208417D01*
X20312095Y31241750D01*
X20693047Y31241750D02*
X20312095Y31241750D01*
X20264476Y31275084D01*
X20264476Y31308417D01*
X20312095Y31375084D01*
X20407333Y31408417D01*
X20645428Y31408417D01*
X20788285Y31341750D01*
X20883523Y31241750D01*
X20931142Y31108417D01*
X20883523Y30975084D01*
X20788285Y30875084D01*
X20645428Y30808417D01*
X20454952Y30775084D01*
X20264476Y30808417D01*
X20121619Y30875084D01*
X20026380Y30975084D01*
X19978761Y31108417D01*
X20026380Y31241750D01*
X20121619Y31341750D01*
X18851619Y24287750D02*
X19851619Y24287750D01*
X18851619Y24621084D02*
X19518285Y24621084D01*
X19327809Y24621084D02*
X19423047Y24654417D01*
X19470666Y24687750D01*
X19518285Y24754417D01*
X19518285Y24821084D01*
X18851619Y25154417D02*
X18899238Y25087750D01*
X18946857Y25054417D01*
X19042095Y25021084D01*
X19327809Y25021084D01*
X19423047Y25054417D01*
X19470666Y25087750D01*
X19518285Y25154417D01*
X19518285Y25254417D01*
X19470666Y25321084D01*
X19423047Y25354417D01*
X19327809Y25387750D01*
X19042095Y25387750D01*
X18946857Y25354417D01*
X18899238Y25321084D01*
X18851619Y25254417D01*
X18851619Y25154417D01*
X19518285Y25687750D02*
X18851619Y25687750D01*
X19423047Y25687750D02*
X19470666Y25721084D01*
X19518285Y25787750D01*
X19518285Y25887750D01*
X19470666Y25954417D01*
X19375428Y25987750D01*
X18851619Y25987750D01*
X18851619Y26854417D02*
X19851619Y26854417D01*
X19851619Y27121084D01*
X19804000Y27187750D01*
X19756380Y27221084D01*
X19661142Y27254417D01*
X19518285Y27254417D01*
X19423047Y27221084D01*
X19375428Y27187750D01*
X19327809Y27121084D01*
X19327809Y26854417D01*
X18851619Y27854417D02*
X19375428Y27854417D01*
X19470666Y27821084D01*
X19518285Y27754417D01*
X19518285Y27621084D01*
X19470666Y27554417D01*
X18899238Y27854417D02*
X18851619Y27787750D01*
X18851619Y27621084D01*
X18899238Y27554417D01*
X18994476Y27521084D01*
X19089714Y27521084D01*
X19184952Y27554417D01*
X19232571Y27621084D01*
X19232571Y27787750D01*
X19280190Y27854417D01*
X19518285Y28187750D02*
X18851619Y28187750D01*
X19423047Y28187750D02*
X19470666Y28221084D01*
X19518285Y28287750D01*
X19518285Y28387750D01*
X19470666Y28454417D01*
X19375428Y28487750D01*
X18851619Y28487750D01*
X19518285Y28721084D02*
X19518285Y28987750D01*
X19851619Y28821084D02*
X18994476Y28821084D01*
X18899238Y28854417D01*
X18851619Y28921084D01*
X18851619Y28987750D01*
X18851619Y29221084D02*
X19851619Y29221084D01*
X18851619Y29521084D02*
X19375428Y29521084D01*
X19470666Y29487750D01*
X19518285Y29421084D01*
X19518285Y29321084D01*
X19470666Y29254417D01*
X19423047Y29221084D01*
X18899238Y30121084D02*
X18851619Y30054417D01*
X18851619Y29921084D01*
X18899238Y29854417D01*
X18994476Y29821084D01*
X19375428Y29821084D01*
X19470666Y29854417D01*
X19518285Y29921084D01*
X19518285Y30054417D01*
X19470666Y30121084D01*
X19375428Y30154417D01*
X19280190Y30154417D01*
X19184952Y29821084D01*
X18851619Y30454417D02*
X19518285Y30454417D01*
X19327809Y30454417D02*
X19423047Y30487750D01*
X19470666Y30521084D01*
X19518285Y30587750D01*
X19518285Y30654417D01*
X18899238Y30854417D02*
X18851619Y30921084D01*
X18851619Y31054417D01*
X18899238Y31121084D01*
X18994476Y31154417D01*
X19042095Y31154417D01*
X19137333Y31121084D01*
X19184952Y31054417D01*
X19184952Y30954417D01*
X19232571Y30887750D01*
X19327809Y30854417D01*
X19375428Y30854417D01*
X19470666Y30887750D01*
X19518285Y30954417D01*
X19518285Y31054417D01*
X19470666Y31121084D01*
D11*
%TO.C,G\u002A\u002A\u002A*%
G36*
X25264249Y24672273D02*
G01*
X25259154Y24695789D01*
X25255247Y24703444D01*
X25245300Y24721538D01*
X25229629Y24749518D01*
X25208552Y24786831D01*
X25182386Y24832921D01*
X25151449Y24887236D01*
X25116057Y24949220D01*
X25076527Y25018320D01*
X25033177Y25093982D01*
X24986324Y25175651D01*
X24936285Y25262775D01*
X24883378Y25354798D01*
X24827918Y25451167D01*
X24770225Y25551327D01*
X24710614Y25654725D01*
X24659738Y25742900D01*
X24575117Y25889412D01*
X24496743Y26024906D01*
X24424597Y26149414D01*
X24358662Y26262965D01*
X24298920Y26365590D01*
X24245353Y26457319D01*
X24197944Y26538181D01*
X24156675Y26608209D01*
X24121528Y26667431D01*
X24092484Y26715878D01*
X24069527Y26753581D01*
X24052639Y26780569D01*
X24041802Y26796874D01*
X24038318Y26801405D01*
X24012059Y26826487D01*
X23984533Y26843072D01*
X23973921Y26847443D01*
X23969609Y26849014D01*
X23965068Y26850454D01*
X23959753Y26851768D01*
X23953115Y26852963D01*
X23944609Y26854043D01*
X23933688Y26855014D01*
X23919805Y26855883D01*
X23902413Y26856655D01*
X23880965Y26857336D01*
X23854915Y26857931D01*
X23823716Y26858447D01*
X23786821Y26858888D01*
X23743683Y26859261D01*
X23693756Y26859572D01*
X23636493Y26859825D01*
X23571347Y26860028D01*
X23497771Y26860185D01*
X23415218Y26860303D01*
X23323143Y26860387D01*
X23220997Y26860443D01*
X23108235Y26860476D01*
X22984309Y26860493D01*
X22848673Y26860499D01*
X22729825Y26860500D01*
X22584281Y26860498D01*
X22450891Y26860489D01*
X22329107Y26860468D01*
X22218383Y26860429D01*
X22118174Y26860365D01*
X22027931Y26860272D01*
X21947110Y26860144D01*
X21875162Y26859975D01*
X21811542Y26859760D01*
X21755703Y26859493D01*
X21707099Y26859168D01*
X21665183Y26858779D01*
X21629407Y26858322D01*
X21599227Y26857790D01*
X21574095Y26857178D01*
X21553465Y26856480D01*
X21536790Y26855691D01*
X21523524Y26854805D01*
X21513120Y26853815D01*
X21505031Y26852718D01*
X21498712Y26851506D01*
X21493614Y26850175D01*
X21489193Y26848719D01*
X21486383Y26847687D01*
X21454369Y26831081D01*
X21425922Y26808103D01*
X21425820Y26808000D01*
X21419622Y26799837D01*
X21408478Y26782914D01*
X21392291Y26757063D01*
X21370961Y26722116D01*
X21344390Y26677905D01*
X21312479Y26624264D01*
X21275131Y26561024D01*
X21232246Y26488017D01*
X21183725Y26405077D01*
X21129471Y26312035D01*
X21069384Y26208724D01*
X21003367Y26094976D01*
X20931320Y25970624D01*
X20853144Y25835499D01*
X20805129Y25752425D01*
X20743986Y25646554D01*
X20684485Y25543430D01*
X20626942Y25443607D01*
X20571677Y25347640D01*
X20519007Y25256085D01*
X20469249Y25169496D01*
X20422723Y25088428D01*
X20379744Y25013437D01*
X20340632Y24945076D01*
X20305705Y24883903D01*
X20275279Y24830471D01*
X20249674Y24785335D01*
X20229207Y24749051D01*
X20214195Y24722173D01*
X20204957Y24705257D01*
X20201878Y24699114D01*
X20193923Y24661964D01*
X20193917Y24620958D01*
X20201593Y24581817D01*
X20208115Y24564975D01*
X20214466Y24552773D01*
X20226688Y24530535D01*
X20244398Y24498920D01*
X20267211Y24458591D01*
X20294745Y24410208D01*
X20326614Y24354434D01*
X20362435Y24291929D01*
X20401825Y24223356D01*
X20444399Y24149375D01*
X20489773Y24070647D01*
X20537564Y23987835D01*
X20587388Y23901600D01*
X20638861Y23812604D01*
X20691598Y23721506D01*
X20745217Y23628970D01*
X20799332Y23535656D01*
X20853561Y23442226D01*
X20907520Y23349342D01*
X20960824Y23257664D01*
X21013090Y23167855D01*
X21063933Y23080574D01*
X21112971Y22996485D01*
X21159818Y22916249D01*
X21204092Y22840526D01*
X21245408Y22769979D01*
X21283383Y22705268D01*
X21317631Y22647056D01*
X21347771Y22596003D01*
X21373418Y22552771D01*
X21394187Y22518021D01*
X21409695Y22492416D01*
X21419559Y22476615D01*
X21423151Y22471454D01*
X21442919Y22454687D01*
X21467140Y22438997D01*
X21478194Y22433354D01*
X21510625Y22418675D01*
X22736175Y22418675D01*
X22736175Y22755751D01*
X22679098Y22755873D01*
X22632497Y22756314D01*
X22594152Y22757189D01*
X22561840Y22758610D01*
X22533339Y22760691D01*
X22506430Y22763545D01*
X22478889Y22767285D01*
X22463125Y22769690D01*
X22306914Y22800350D01*
X22156036Y22842463D01*
X22010698Y22895930D01*
X21871101Y22960656D01*
X21737450Y23036542D01*
X21609950Y23123491D01*
X21488804Y23221407D01*
X21457587Y23249366D01*
X21348323Y23357817D01*
X21249095Y23473921D01*
X21160107Y23597291D01*
X21081563Y23727543D01*
X21013668Y23864290D01*
X20956625Y24007147D01*
X20910639Y24155728D01*
X20875912Y24309648D01*
X20865919Y24368125D01*
X20859888Y24412429D01*
X20857338Y24449740D01*
X20858376Y24485009D01*
X20863111Y24523189D01*
X20870158Y24561800D01*
X20895738Y24661011D01*
X20932879Y24761789D01*
X20980709Y24863087D01*
X21038362Y24963858D01*
X21104968Y25063056D01*
X21179659Y25159634D01*
X21261565Y25252545D01*
X21349818Y25340744D01*
X21443550Y25423182D01*
X21541891Y25498813D01*
X21643972Y25566592D01*
X21748926Y25625470D01*
X21756024Y25629064D01*
X21842856Y25668027D01*
X21940051Y25703218D01*
X22045752Y25734313D01*
X22158100Y25760986D01*
X22275235Y25782912D01*
X22395300Y25799766D01*
X22516434Y25811224D01*
X22636779Y25816961D01*
X22754476Y25816651D01*
X22814019Y25813993D01*
X22938599Y25803636D01*
X23057252Y25788017D01*
X23168535Y25767412D01*
X23271008Y25742098D01*
X23363228Y25712351D01*
X23382619Y25704996D01*
X23410039Y25694814D01*
X23433321Y25687174D01*
X23449847Y25682869D01*
X23456795Y25682509D01*
X23463155Y25692401D01*
X23458983Y25706723D01*
X23445303Y25724634D01*
X23423135Y25745290D01*
X23393501Y25767849D01*
X23357425Y25791470D01*
X23315928Y25815309D01*
X23270033Y25838525D01*
X23264113Y25841306D01*
X23141430Y25892225D01*
X23010494Y25934881D01*
X22872865Y25969073D01*
X22730103Y25994598D01*
X22583769Y26011256D01*
X22435422Y26018846D01*
X22286622Y26017165D01*
X22138931Y26006012D01*
X22063075Y25996401D01*
X21917982Y25969769D01*
X21780064Y25932830D01*
X21648689Y25885293D01*
X21523223Y25826867D01*
X21403035Y25757263D01*
X21287491Y25676188D01*
X21188385Y25594444D01*
X21131547Y25538347D01*
X21075464Y25471684D01*
X21021890Y25396551D01*
X21018667Y25391625D01*
X21001821Y25366104D01*
X20987424Y25344970D01*
X20976879Y25330232D01*
X20971589Y25323901D01*
X20971349Y25323800D01*
X20971827Y25329183D01*
X20977219Y25344164D01*
X20986744Y25366990D01*
X20999617Y25395911D01*
X21015057Y25429174D01*
X21032280Y25465026D01*
X21050504Y25501715D01*
X21053434Y25507495D01*
X21084402Y25564726D01*
X21120078Y25624396D01*
X21159272Y25684937D01*
X21200795Y25744785D01*
X21243455Y25802374D01*
X21286061Y25856137D01*
X21327425Y25904510D01*
X21366354Y25945926D01*
X21401659Y25978820D01*
X21426149Y25997713D01*
X21485857Y26034505D01*
X21555954Y26071209D01*
X21634153Y26106975D01*
X21718164Y26140952D01*
X21805700Y26172290D01*
X21894474Y26200137D01*
X21982196Y26223644D01*
X22066579Y26241960D01*
X22098089Y26247513D01*
X22148726Y26254189D01*
X22209241Y26259505D01*
X22276877Y26263361D01*
X22348874Y26265655D01*
X22422475Y26266289D01*
X22494921Y26265161D01*
X22538724Y26263502D01*
X22700878Y26252209D01*
X22852204Y26234281D01*
X22992702Y26209718D01*
X23122373Y26178520D01*
X23241218Y26140687D01*
X23349237Y26096218D01*
X23446431Y26045113D01*
X23532801Y25987371D01*
X23565297Y25961602D01*
X23586622Y25944336D01*
X23604683Y25930673D01*
X23617079Y25922378D01*
X23620969Y25920700D01*
X23629313Y25925110D01*
X23629366Y25937661D01*
X23621628Y25957328D01*
X23606601Y25983089D01*
X23584788Y26013919D01*
X23560209Y26044630D01*
X23500119Y26107090D01*
X23428752Y26165238D01*
X23346861Y26218823D01*
X23255203Y26267593D01*
X23154532Y26311299D01*
X23045605Y26349687D01*
X22929175Y26382509D01*
X22805999Y26409512D01*
X22676830Y26430446D01*
X22542426Y26445060D01*
X22403540Y26453102D01*
X22326600Y26454627D01*
X22287015Y26454942D01*
X22258860Y26455385D01*
X22240868Y26456103D01*
X22231768Y26457243D01*
X22230292Y26458950D01*
X22235171Y26461373D01*
X22243692Y26464205D01*
X22308055Y26481460D01*
X22382421Y26496307D01*
X22464270Y26508429D01*
X22551080Y26517508D01*
X22640327Y26523228D01*
X22729490Y26525272D01*
X22729825Y26525272D01*
X22843549Y26522843D01*
X22949341Y26515024D01*
X23050975Y26501357D01*
X23152220Y26481387D01*
X23210989Y26467065D01*
X23357417Y26422661D01*
X23498472Y26367045D01*
X23633649Y26300732D01*
X23762443Y26224240D01*
X23884346Y26138086D01*
X23998852Y26042788D01*
X24105457Y25938863D01*
X24203654Y25826828D01*
X24292936Y25707201D01*
X24372799Y25580498D01*
X24442735Y25447237D01*
X24502240Y25307935D01*
X24550806Y25163109D01*
X24574678Y25072975D01*
X24589848Y25005375D01*
X24601574Y24942860D01*
X24610223Y24882103D01*
X24616166Y24819777D01*
X24619772Y24752554D01*
X24621410Y24677109D01*
X24621579Y24650700D01*
X24621423Y24583859D01*
X24620285Y24526682D01*
X24617896Y24476152D01*
X24613990Y24429255D01*
X24608298Y24382974D01*
X24600552Y24334292D01*
X24590483Y24280195D01*
X24587147Y24263350D01*
X24551209Y24115395D01*
X24503800Y23972202D01*
X24445420Y23834291D01*
X24376567Y23702183D01*
X24297742Y23576397D01*
X24209444Y23457453D01*
X24112173Y23345872D01*
X24006428Y23242174D01*
X23892709Y23146878D01*
X23771516Y23060506D01*
X23643347Y22983576D01*
X23508702Y22916609D01*
X23368082Y22860126D01*
X23221985Y22814646D01*
X23187025Y22805639D01*
X23127173Y22791389D01*
X23073414Y22780034D01*
X23023016Y22771271D01*
X22973249Y22764797D01*
X22921381Y22760311D01*
X22864680Y22757511D01*
X22800414Y22756094D01*
X22736175Y22755751D01*
X22736175Y22418675D01*
X23949025Y22418675D01*
X23981457Y22433354D01*
X24005098Y22446647D01*
X24027911Y22463541D01*
X24036411Y22471454D01*
X24041613Y22479036D01*
X24052761Y22496968D01*
X24069470Y22524588D01*
X24091359Y22561237D01*
X24118044Y22606252D01*
X24149142Y22658973D01*
X24184270Y22718738D01*
X24223045Y22784887D01*
X24265084Y22856758D01*
X24310005Y22933690D01*
X24357424Y23015022D01*
X24406958Y23100092D01*
X24458225Y23188241D01*
X24510841Y23278806D01*
X24564424Y23371126D01*
X24618590Y23464541D01*
X24672957Y23558389D01*
X24727141Y23652009D01*
X24780760Y23744740D01*
X24833430Y23835921D01*
X24884769Y23924891D01*
X24934394Y24010988D01*
X24981922Y24093551D01*
X25026969Y24171920D01*
X25069153Y24245433D01*
X25108091Y24313430D01*
X25143400Y24375248D01*
X25174697Y24430227D01*
X25201598Y24477705D01*
X25223722Y24517022D01*
X25240685Y24547517D01*
X25252104Y24568528D01*
X25257596Y24579394D01*
X25257907Y24580171D01*
X25263955Y24607317D01*
X25266090Y24640042D01*
X25264249Y24672273D01*
G37*
X25264249Y24672273D02*
X25259154Y24695789D01*
X25255247Y24703444D01*
X25245300Y24721538D01*
X25229629Y24749518D01*
X25208552Y24786831D01*
X25182386Y24832921D01*
X25151449Y24887236D01*
X25116057Y24949220D01*
X25076527Y25018320D01*
X25033177Y25093982D01*
X24986324Y25175651D01*
X24936285Y25262775D01*
X24883378Y25354798D01*
X24827918Y25451167D01*
X24770225Y25551327D01*
X24710614Y25654725D01*
X24659738Y25742900D01*
X24575117Y25889412D01*
X24496743Y26024906D01*
X24424597Y26149414D01*
X24358662Y26262965D01*
X24298920Y26365590D01*
X24245353Y26457319D01*
X24197944Y26538181D01*
X24156675Y26608209D01*
X24121528Y26667431D01*
X24092484Y26715878D01*
X24069527Y26753581D01*
X24052639Y26780569D01*
X24041802Y26796874D01*
X24038318Y26801405D01*
X24012059Y26826487D01*
X23984533Y26843072D01*
X23973921Y26847443D01*
X23969609Y26849014D01*
X23965068Y26850454D01*
X23959753Y26851768D01*
X23953115Y26852963D01*
X23944609Y26854043D01*
X23933688Y26855014D01*
X23919805Y26855883D01*
X23902413Y26856655D01*
X23880965Y26857336D01*
X23854915Y26857931D01*
X23823716Y26858447D01*
X23786821Y26858888D01*
X23743683Y26859261D01*
X23693756Y26859572D01*
X23636493Y26859825D01*
X23571347Y26860028D01*
X23497771Y26860185D01*
X23415218Y26860303D01*
X23323143Y26860387D01*
X23220997Y26860443D01*
X23108235Y26860476D01*
X22984309Y26860493D01*
X22848673Y26860499D01*
X22729825Y26860500D01*
X22584281Y26860498D01*
X22450891Y26860489D01*
X22329107Y26860468D01*
X22218383Y26860429D01*
X22118174Y26860365D01*
X22027931Y26860272D01*
X21947110Y26860144D01*
X21875162Y26859975D01*
X21811542Y26859760D01*
X21755703Y26859493D01*
X21707099Y26859168D01*
X21665183Y26858779D01*
X21629407Y26858322D01*
X21599227Y26857790D01*
X21574095Y26857178D01*
X21553465Y26856480D01*
X21536790Y26855691D01*
X21523524Y26854805D01*
X21513120Y26853815D01*
X21505031Y26852718D01*
X21498712Y26851506D01*
X21493614Y26850175D01*
X21489193Y26848719D01*
X21486383Y26847687D01*
X21454369Y26831081D01*
X21425922Y26808103D01*
X21425820Y26808000D01*
X21419622Y26799837D01*
X21408478Y26782914D01*
X21392291Y26757063D01*
X21370961Y26722116D01*
X21344390Y26677905D01*
X21312479Y26624264D01*
X21275131Y26561024D01*
X21232246Y26488017D01*
X21183725Y26405077D01*
X21129471Y26312035D01*
X21069384Y26208724D01*
X21003367Y26094976D01*
X20931320Y25970624D01*
X20853144Y25835499D01*
X20805129Y25752425D01*
X20743986Y25646554D01*
X20684485Y25543430D01*
X20626942Y25443607D01*
X20571677Y25347640D01*
X20519007Y25256085D01*
X20469249Y25169496D01*
X20422723Y25088428D01*
X20379744Y25013437D01*
X20340632Y24945076D01*
X20305705Y24883903D01*
X20275279Y24830471D01*
X20249674Y24785335D01*
X20229207Y24749051D01*
X20214195Y24722173D01*
X20204957Y24705257D01*
X20201878Y24699114D01*
X20193923Y24661964D01*
X20193917Y24620958D01*
X20201593Y24581817D01*
X20208115Y24564975D01*
X20214466Y24552773D01*
X20226688Y24530535D01*
X20244398Y24498920D01*
X20267211Y24458591D01*
X20294745Y24410208D01*
X20326614Y24354434D01*
X20362435Y24291929D01*
X20401825Y24223356D01*
X20444399Y24149375D01*
X20489773Y24070647D01*
X20537564Y23987835D01*
X20587388Y23901600D01*
X20638861Y23812604D01*
X20691598Y23721506D01*
X20745217Y23628970D01*
X20799332Y23535656D01*
X20853561Y23442226D01*
X20907520Y23349342D01*
X20960824Y23257664D01*
X21013090Y23167855D01*
X21063933Y23080574D01*
X21112971Y22996485D01*
X21159818Y22916249D01*
X21204092Y22840526D01*
X21245408Y22769979D01*
X21283383Y22705268D01*
X21317631Y22647056D01*
X21347771Y22596003D01*
X21373418Y22552771D01*
X21394187Y22518021D01*
X21409695Y22492416D01*
X21419559Y22476615D01*
X21423151Y22471454D01*
X21442919Y22454687D01*
X21467140Y22438997D01*
X21478194Y22433354D01*
X21510625Y22418675D01*
X22736175Y22418675D01*
X22736175Y22755751D01*
X22679098Y22755873D01*
X22632497Y22756314D01*
X22594152Y22757189D01*
X22561840Y22758610D01*
X22533339Y22760691D01*
X22506430Y22763545D01*
X22478889Y22767285D01*
X22463125Y22769690D01*
X22306914Y22800350D01*
X22156036Y22842463D01*
X22010698Y22895930D01*
X21871101Y22960656D01*
X21737450Y23036542D01*
X21609950Y23123491D01*
X21488804Y23221407D01*
X21457587Y23249366D01*
X21348323Y23357817D01*
X21249095Y23473921D01*
X21160107Y23597291D01*
X21081563Y23727543D01*
X21013668Y23864290D01*
X20956625Y24007147D01*
X20910639Y24155728D01*
X20875912Y24309648D01*
X20865919Y24368125D01*
X20859888Y24412429D01*
X20857338Y24449740D01*
X20858376Y24485009D01*
X20863111Y24523189D01*
X20870158Y24561800D01*
X20895738Y24661011D01*
X20932879Y24761789D01*
X20980709Y24863087D01*
X21038362Y24963858D01*
X21104968Y25063056D01*
X21179659Y25159634D01*
X21261565Y25252545D01*
X21349818Y25340744D01*
X21443550Y25423182D01*
X21541891Y25498813D01*
X21643972Y25566592D01*
X21748926Y25625470D01*
X21756024Y25629064D01*
X21842856Y25668027D01*
X21940051Y25703218D01*
X22045752Y25734313D01*
X22158100Y25760986D01*
X22275235Y25782912D01*
X22395300Y25799766D01*
X22516434Y25811224D01*
X22636779Y25816961D01*
X22754476Y25816651D01*
X22814019Y25813993D01*
X22938599Y25803636D01*
X23057252Y25788017D01*
X23168535Y25767412D01*
X23271008Y25742098D01*
X23363228Y25712351D01*
X23382619Y25704996D01*
X23410039Y25694814D01*
X23433321Y25687174D01*
X23449847Y25682869D01*
X23456795Y25682509D01*
X23463155Y25692401D01*
X23458983Y25706723D01*
X23445303Y25724634D01*
X23423135Y25745290D01*
X23393501Y25767849D01*
X23357425Y25791470D01*
X23315928Y25815309D01*
X23270033Y25838525D01*
X23264113Y25841306D01*
X23141430Y25892225D01*
X23010494Y25934881D01*
X22872865Y25969073D01*
X22730103Y25994598D01*
X22583769Y26011256D01*
X22435422Y26018846D01*
X22286622Y26017165D01*
X22138931Y26006012D01*
X22063075Y25996401D01*
X21917982Y25969769D01*
X21780064Y25932830D01*
X21648689Y25885293D01*
X21523223Y25826867D01*
X21403035Y25757263D01*
X21287491Y25676188D01*
X21188385Y25594444D01*
X21131547Y25538347D01*
X21075464Y25471684D01*
X21021890Y25396551D01*
X21018667Y25391625D01*
X21001821Y25366104D01*
X20987424Y25344970D01*
X20976879Y25330232D01*
X20971589Y25323901D01*
X20971349Y25323800D01*
X20971827Y25329183D01*
X20977219Y25344164D01*
X20986744Y25366990D01*
X20999617Y25395911D01*
X21015057Y25429174D01*
X21032280Y25465026D01*
X21050504Y25501715D01*
X21053434Y25507495D01*
X21084402Y25564726D01*
X21120078Y25624396D01*
X21159272Y25684937D01*
X21200795Y25744785D01*
X21243455Y25802374D01*
X21286061Y25856137D01*
X21327425Y25904510D01*
X21366354Y25945926D01*
X21401659Y25978820D01*
X21426149Y25997713D01*
X21485857Y26034505D01*
X21555954Y26071209D01*
X21634153Y26106975D01*
X21718164Y26140952D01*
X21805700Y26172290D01*
X21894474Y26200137D01*
X21982196Y26223644D01*
X22066579Y26241960D01*
X22098089Y26247513D01*
X22148726Y26254189D01*
X22209241Y26259505D01*
X22276877Y26263361D01*
X22348874Y26265655D01*
X22422475Y26266289D01*
X22494921Y26265161D01*
X22538724Y26263502D01*
X22700878Y26252209D01*
X22852204Y26234281D01*
X22992702Y26209718D01*
X23122373Y26178520D01*
X23241218Y26140687D01*
X23349237Y26096218D01*
X23446431Y26045113D01*
X23532801Y25987371D01*
X23565297Y25961602D01*
X23586622Y25944336D01*
X23604683Y25930673D01*
X23617079Y25922378D01*
X23620969Y25920700D01*
X23629313Y25925110D01*
X23629366Y25937661D01*
X23621628Y25957328D01*
X23606601Y25983089D01*
X23584788Y26013919D01*
X23560209Y26044630D01*
X23500119Y26107090D01*
X23428752Y26165238D01*
X23346861Y26218823D01*
X23255203Y26267593D01*
X23154532Y26311299D01*
X23045605Y26349687D01*
X22929175Y26382509D01*
X22805999Y26409512D01*
X22676830Y26430446D01*
X22542426Y26445060D01*
X22403540Y26453102D01*
X22326600Y26454627D01*
X22287015Y26454942D01*
X22258860Y26455385D01*
X22240868Y26456103D01*
X22231768Y26457243D01*
X22230292Y26458950D01*
X22235171Y26461373D01*
X22243692Y26464205D01*
X22308055Y26481460D01*
X22382421Y26496307D01*
X22464270Y26508429D01*
X22551080Y26517508D01*
X22640327Y26523228D01*
X22729490Y26525272D01*
X22729825Y26525272D01*
X22843549Y26522843D01*
X22949341Y26515024D01*
X23050975Y26501357D01*
X23152220Y26481387D01*
X23210989Y26467065D01*
X23357417Y26422661D01*
X23498472Y26367045D01*
X23633649Y26300732D01*
X23762443Y26224240D01*
X23884346Y26138086D01*
X23998852Y26042788D01*
X24105457Y25938863D01*
X24203654Y25826828D01*
X24292936Y25707201D01*
X24372799Y25580498D01*
X24442735Y25447237D01*
X24502240Y25307935D01*
X24550806Y25163109D01*
X24574678Y25072975D01*
X24589848Y25005375D01*
X24601574Y24942860D01*
X24610223Y24882103D01*
X24616166Y24819777D01*
X24619772Y24752554D01*
X24621410Y24677109D01*
X24621579Y24650700D01*
X24621423Y24583859D01*
X24620285Y24526682D01*
X24617896Y24476152D01*
X24613990Y24429255D01*
X24608298Y24382974D01*
X24600552Y24334292D01*
X24590483Y24280195D01*
X24587147Y24263350D01*
X24551209Y24115395D01*
X24503800Y23972202D01*
X24445420Y23834291D01*
X24376567Y23702183D01*
X24297742Y23576397D01*
X24209444Y23457453D01*
X24112173Y23345872D01*
X24006428Y23242174D01*
X23892709Y23146878D01*
X23771516Y23060506D01*
X23643347Y22983576D01*
X23508702Y22916609D01*
X23368082Y22860126D01*
X23221985Y22814646D01*
X23187025Y22805639D01*
X23127173Y22791389D01*
X23073414Y22780034D01*
X23023016Y22771271D01*
X22973249Y22764797D01*
X22921381Y22760311D01*
X22864680Y22757511D01*
X22800414Y22756094D01*
X22736175Y22755751D01*
X22736175Y22418675D01*
X23949025Y22418675D01*
X23981457Y22433354D01*
X24005098Y22446647D01*
X24027911Y22463541D01*
X24036411Y22471454D01*
X24041613Y22479036D01*
X24052761Y22496968D01*
X24069470Y22524588D01*
X24091359Y22561237D01*
X24118044Y22606252D01*
X24149142Y22658973D01*
X24184270Y22718738D01*
X24223045Y22784887D01*
X24265084Y22856758D01*
X24310005Y22933690D01*
X24357424Y23015022D01*
X24406958Y23100092D01*
X24458225Y23188241D01*
X24510841Y23278806D01*
X24564424Y23371126D01*
X24618590Y23464541D01*
X24672957Y23558389D01*
X24727141Y23652009D01*
X24780760Y23744740D01*
X24833430Y23835921D01*
X24884769Y23924891D01*
X24934394Y24010988D01*
X24981922Y24093551D01*
X25026969Y24171920D01*
X25069153Y24245433D01*
X25108091Y24313430D01*
X25143400Y24375248D01*
X25174697Y24430227D01*
X25201598Y24477705D01*
X25223722Y24517022D01*
X25240685Y24547517D01*
X25252104Y24568528D01*
X25257596Y24579394D01*
X25257907Y24580171D01*
X25263955Y24607317D01*
X25266090Y24640042D01*
X25264249Y24672273D01*
G36*
X24065862Y25539534D02*
G01*
X24055599Y25680426D01*
X24039797Y25812610D01*
X24032800Y25857268D01*
X24027151Y25885862D01*
X24020286Y25903589D01*
X24010075Y25911413D01*
X23994387Y25910300D01*
X23971092Y25901216D01*
X23953932Y25893008D01*
X23896507Y25861469D01*
X23838257Y25823439D01*
X23781462Y25780816D01*
X23728401Y25735501D01*
X23681356Y25689394D01*
X23642604Y25644393D01*
X23623705Y25617824D01*
X23600904Y25574837D01*
X23580602Y25520922D01*
X23563350Y25457699D01*
X23554090Y25412700D01*
X23548886Y25375773D01*
X23545183Y25332223D01*
X23542979Y25284797D01*
X23542270Y25236243D01*
X23543056Y25189308D01*
X23545333Y25146739D01*
X23549100Y25111286D01*
X23554354Y25085694D01*
X23554360Y25085675D01*
X23565617Y25056423D01*
X23578883Y25034333D01*
X23592716Y25021457D01*
X23601154Y25019000D01*
X23609958Y25023091D01*
X23624531Y25033793D01*
X23640947Y25048092D01*
X23667501Y25078869D01*
X23693474Y25120162D01*
X23717852Y25169795D01*
X23739621Y25225594D01*
X23757766Y25285381D01*
X23764503Y25313111D01*
X23768601Y25334954D01*
X23772276Y25360665D01*
X23775160Y25386639D01*
X23776884Y25409276D01*
X23777079Y25424975D01*
X23776399Y25429351D01*
X23767800Y25436925D01*
X23753593Y25435924D01*
X23740446Y25428809D01*
X23725270Y25422900D01*
X23712840Y25428237D01*
X23708284Y25435759D01*
X23709230Y25448782D01*
X23718304Y25471124D01*
X23735349Y25502479D01*
X23760207Y25542542D01*
X23774035Y25563532D01*
X23802079Y25603057D01*
X23825786Y25631052D01*
X23845570Y25647764D01*
X23861847Y25653441D01*
X23875028Y25648330D01*
X23885529Y25632681D01*
X23886362Y25630752D01*
X23895661Y25604426D01*
X23903094Y25573648D01*
X23908872Y25536748D01*
X23913206Y25492059D01*
X23916306Y25437912D01*
X23918261Y25377775D01*
X23919242Y25304493D01*
X23918071Y25241764D01*
X23914285Y25187552D01*
X23907422Y25139823D01*
X23897020Y25096542D01*
X23882616Y25055674D01*
X23863749Y25015184D01*
X23839957Y24973039D01*
X23818640Y24939177D01*
X23779977Y24878044D01*
X23749562Y24826111D01*
X23727238Y24783059D01*
X23712846Y24748568D01*
X23706228Y24722319D01*
X23705834Y24711414D01*
X23709877Y24692204D01*
X23718804Y24684070D01*
X23733294Y24686867D01*
X23754024Y24700451D01*
X23754685Y24700972D01*
X23775200Y24715162D01*
X23800157Y24729681D01*
X23813353Y24736314D01*
X23839734Y24747486D01*
X23858707Y24751957D01*
X23871280Y24748643D01*
X23878459Y24736461D01*
X23881253Y24714326D01*
X23880667Y24681155D01*
X23879734Y24664888D01*
X23875410Y24608568D01*
X23869302Y24545604D01*
X23861737Y24478344D01*
X23853043Y24409136D01*
X23843546Y24340328D01*
X23833574Y24274268D01*
X23823454Y24213305D01*
X23813515Y24159786D01*
X23804082Y24116059D01*
X23802069Y24107831D01*
X23779597Y24029855D01*
X23752433Y23957571D01*
X23719529Y23889340D01*
X23679832Y23823525D01*
X23632294Y23758488D01*
X23575864Y23692592D01*
X23509492Y23624198D01*
X23464402Y23581228D01*
X23417804Y23537145D01*
X23379097Y23498581D01*
X23346214Y23463177D01*
X23317086Y23428571D01*
X23289645Y23392403D01*
X23261823Y23352313D01*
X23255359Y23342600D01*
X23216857Y23285345D01*
X23182742Y23237133D01*
X23151181Y23195937D01*
X23120340Y23159728D01*
X23088386Y23126475D01*
X23053487Y23094151D01*
X23013809Y23060727D01*
X22967950Y23024508D01*
X22927295Y22993608D01*
X22895039Y22970333D01*
X22870041Y22953928D01*
X22851159Y22943637D01*
X22838750Y22939052D01*
X22827967Y22937676D01*
X22823087Y22941166D01*
X22824452Y22950689D01*
X22832401Y22967411D01*
X22847274Y22992500D01*
X22860293Y23013034D01*
X22877498Y23040459D01*
X22893431Y23067052D01*
X22905963Y23089198D01*
X22911558Y23100091D01*
X22924430Y23127457D01*
X22908094Y23148874D01*
X22892897Y23165912D01*
X22878536Y23173588D01*
X22861953Y23172174D01*
X22840087Y23161944D01*
X22829880Y23155878D01*
X22778308Y23130621D01*
X22726497Y23117894D01*
X22674887Y23117726D01*
X22623917Y23130149D01*
X22601464Y23139779D01*
X22562146Y23164267D01*
X22533457Y23194605D01*
X22514962Y23231614D01*
X22506226Y23276116D01*
X22506103Y23319762D01*
X22515141Y23378562D01*
X22534873Y23440159D01*
X22565551Y23505086D01*
X22607427Y23573878D01*
X22660754Y23647068D01*
X22660782Y23647103D01*
X22700923Y23700534D01*
X22732462Y23747482D01*
X22756487Y23789674D01*
X22772440Y23824652D01*
X22780068Y23851358D01*
X22785148Y23884671D01*
X22787620Y23921068D01*
X22787422Y23957027D01*
X22784495Y23989024D01*
X22778778Y24013537D01*
X22775804Y24020261D01*
X22762365Y24038550D01*
X22739672Y24062291D01*
X22709288Y24090287D01*
X22672779Y24121341D01*
X22631711Y24154255D01*
X22587647Y24187832D01*
X22542153Y24220875D01*
X22496795Y24252187D01*
X22453137Y24280570D01*
X22412744Y24304826D01*
X22382564Y24321096D01*
X22329200Y24344701D01*
X22281200Y24358763D01*
X22236247Y24363851D01*
X22212250Y24363054D01*
X22167241Y24356733D01*
X22129031Y24345129D01*
X22096241Y24327010D01*
X22067488Y24301145D01*
X22041392Y24266302D01*
X22016571Y24221251D01*
X21992705Y24167363D01*
X21976224Y24127523D01*
X21962972Y24097146D01*
X21951605Y24073848D01*
X21940779Y24055246D01*
X21929150Y24038954D01*
X21915374Y24022588D01*
X21904160Y24010272D01*
X21873204Y23980182D01*
X21844576Y23960445D01*
X21815503Y23949779D01*
X21783213Y23946906D01*
X21768507Y23947675D01*
X21714668Y23956987D01*
X21669673Y23975257D01*
X21633190Y24002662D01*
X21608383Y24033650D01*
X21595275Y24062113D01*
X21589681Y24092035D01*
X21592130Y24119160D01*
X21596408Y24130108D01*
X21604093Y24138428D01*
X21619950Y24151709D01*
X21641513Y24167981D01*
X21661496Y24182022D01*
X21689424Y24202706D01*
X21722476Y24229824D01*
X21757211Y24260434D01*
X21790187Y24291594D01*
X21793674Y24295044D01*
X21832976Y24335860D01*
X21868337Y24376672D01*
X21900709Y24419083D01*
X21931045Y24464697D01*
X21960298Y24515117D01*
X21989421Y24571947D01*
X22019366Y24636790D01*
X22051087Y24711251D01*
X22072882Y24765000D01*
X22090285Y24807773D01*
X22108391Y24850849D01*
X22125929Y24891303D01*
X22141630Y24926215D01*
X22154222Y24952662D01*
X22155835Y24955856D01*
X22181879Y25002281D01*
X22211952Y25046693D01*
X22247247Y25090339D01*
X22288955Y25134468D01*
X22338271Y25180328D01*
X22396386Y25229168D01*
X22464492Y25282235D01*
X22475825Y25290773D01*
X22541999Y25337594D01*
X22603845Y25374882D01*
X22664017Y25403713D01*
X22725166Y25425163D01*
X22789948Y25440310D01*
X22861014Y25450228D01*
X22871391Y25451240D01*
X22933258Y25453981D01*
X23003157Y25451926D01*
X23077533Y25445481D01*
X23152830Y25435050D01*
X23225494Y25421038D01*
X23291971Y25403850D01*
X23294667Y25403037D01*
X23313793Y25397775D01*
X23325061Y25396833D01*
X23332562Y25400229D01*
X23335835Y25403212D01*
X23341491Y25413445D01*
X23337733Y25424710D01*
X23323742Y25438124D01*
X23298701Y25454804D01*
X23297467Y25455549D01*
X23221803Y25494539D01*
X23137339Y25526213D01*
X23045803Y25550364D01*
X22948920Y25566781D01*
X22848416Y25575256D01*
X22746020Y25575579D01*
X22643456Y25567543D01*
X22542451Y25550938D01*
X22530542Y25548365D01*
X22458488Y25530195D01*
X22388860Y25507829D01*
X22317810Y25479879D01*
X22241488Y25444955D01*
X22234525Y25441568D01*
X22184077Y25415355D01*
X22130362Y25384684D01*
X22075426Y25350942D01*
X22021313Y25315518D01*
X21970069Y25279803D01*
X21923737Y25245183D01*
X21884363Y25213049D01*
X21853991Y25184789D01*
X21849416Y25179981D01*
X21832606Y25161875D01*
X21848835Y25101550D01*
X21855567Y25074671D01*
X21860208Y25050409D01*
X21863145Y25025164D01*
X21864764Y24995336D01*
X21865450Y24957326D01*
X21865522Y24945975D01*
X21865197Y24898806D01*
X21863304Y24859987D01*
X21859226Y24825201D01*
X21852347Y24790134D01*
X21842053Y24750470D01*
X21833348Y24720550D01*
X21820619Y24682112D01*
X21804248Y24638917D01*
X21785635Y24594158D01*
X21766180Y24551029D01*
X21747282Y24512722D01*
X21730342Y24482433D01*
X21726018Y24475640D01*
X21682679Y24420900D01*
X21628710Y24370611D01*
X21565718Y24325829D01*
X21495311Y24287609D01*
X21419098Y24257006D01*
X21371468Y24242798D01*
X21340933Y24234309D01*
X21320931Y24227206D01*
X21309519Y24220514D01*
X21304751Y24213261D01*
X21304250Y24209147D01*
X21307826Y24200857D01*
X21317474Y24185005D01*
X21331575Y24164135D01*
X21343149Y24148012D01*
X21396641Y24082654D01*
X21458852Y24019339D01*
X21526928Y23960492D01*
X21598013Y23908540D01*
X21669252Y23865909D01*
X21684125Y23858288D01*
X21714817Y23843742D01*
X21738661Y23834468D01*
X21759700Y23829205D01*
X21781974Y23826686D01*
X21785909Y23826454D01*
X21811631Y23825985D01*
X21831248Y23828792D01*
X21851212Y23836228D01*
X21865327Y23843111D01*
X21902528Y23862030D01*
X21949300Y23836802D01*
X21981670Y23821340D01*
X22005237Y23814704D01*
X22020299Y23816860D01*
X22027133Y23827667D01*
X22025496Y23838328D01*
X22019227Y23857186D01*
X22009447Y23881112D01*
X22002566Y23896168D01*
X21991425Y23920311D01*
X21983054Y23939807D01*
X21978517Y23952096D01*
X21978118Y23954996D01*
X21983869Y23952438D01*
X21997420Y23943683D01*
X22016491Y23930257D01*
X22030580Y23919887D01*
X22061516Y23897985D01*
X22091106Y23879264D01*
X22117368Y23864784D01*
X22138321Y23855602D01*
X22151983Y23852776D01*
X22154816Y23853568D01*
X22159609Y23858328D01*
X22160171Y23865536D01*
X22155724Y23876906D01*
X22145489Y23894155D01*
X22128686Y23919000D01*
X22118584Y23933385D01*
X22098890Y23962109D01*
X22079664Y23991640D01*
X22063513Y24017897D01*
X22055377Y24032250D01*
X22034979Y24070555D01*
X22056993Y24103243D01*
X22095157Y24150906D01*
X22138099Y24187084D01*
X22186691Y24212238D01*
X22241806Y24226824D01*
X22301200Y24231310D01*
X22355893Y24225258D01*
X22410827Y24207920D01*
X22464562Y24180601D01*
X22515657Y24144603D01*
X22562673Y24101229D01*
X22604168Y24051784D01*
X22638702Y23997569D01*
X22664835Y23939889D01*
X22679348Y23889196D01*
X22684274Y23851634D01*
X22682674Y23814405D01*
X22673997Y23775507D01*
X22657692Y23732938D01*
X22633210Y23684696D01*
X22614047Y23651665D01*
X22601666Y23632005D01*
X22592784Y23621372D01*
X22584868Y23617619D01*
X22575380Y23618600D01*
X22575076Y23618672D01*
X22547005Y23628303D01*
X22511242Y23645171D01*
X22469739Y23668248D01*
X22424447Y23696505D01*
X22413070Y23704050D01*
X22382034Y23724790D01*
X22359733Y23739219D01*
X22344369Y23748122D01*
X22334141Y23752282D01*
X22327252Y23752482D01*
X22321902Y23749505D01*
X22317724Y23745565D01*
X22311816Y23735686D01*
X22310481Y23721060D01*
X22313967Y23699866D01*
X22322518Y23670283D01*
X22331432Y23644225D01*
X22356024Y23583771D01*
X22387208Y23523363D01*
X22416346Y23475315D01*
X22430040Y23453415D01*
X22440624Y23435506D01*
X22446533Y23424283D01*
X22447250Y23422102D01*
X22441825Y23418487D01*
X22427260Y23419206D01*
X22406119Y23423667D01*
X22380968Y23431276D01*
X22354372Y23441443D01*
X22344377Y23445872D01*
X22318736Y23457095D01*
X22302120Y23462614D01*
X22292495Y23462978D01*
X22289064Y23460754D01*
X22288623Y23450771D01*
X22295855Y23432664D01*
X22309971Y23407779D01*
X22330182Y23377459D01*
X22355699Y23343050D01*
X22365435Y23330668D01*
X22382848Y23308493D01*
X22393785Y23292670D01*
X22399752Y23279673D01*
X22402253Y23265975D01*
X22402795Y23248051D01*
X22402800Y23243152D01*
X22404481Y23212913D01*
X22410503Y23186859D01*
X22422339Y23161243D01*
X22441462Y23132316D01*
X22451674Y23118727D01*
X22500093Y23060397D01*
X22550882Y23007697D01*
X22602675Y22961682D01*
X22654105Y22923409D01*
X22703806Y22893933D01*
X22750411Y22874313D01*
X22776436Y22867688D01*
X22805272Y22864218D01*
X22831024Y22865808D01*
X22856499Y22873386D01*
X22884503Y22887883D01*
X22917843Y22910226D01*
X22928480Y22917988D01*
X23019197Y22987816D01*
X23098032Y23054498D01*
X23165320Y23118354D01*
X23221399Y23179707D01*
X23266603Y23238878D01*
X23272670Y23247894D01*
X23293184Y23277337D01*
X23315991Y23307525D01*
X23337625Y23333969D01*
X23348225Y23345775D01*
X23370199Y23369551D01*
X23393276Y23395413D01*
X23412497Y23417799D01*
X23412660Y23417997D01*
X23428475Y23435053D01*
X23451388Y23457236D01*
X23478496Y23481844D01*
X23506897Y23506175D01*
X23510875Y23509458D01*
X23593098Y23581374D01*
X23663516Y23652634D01*
X23722923Y23724181D01*
X23772113Y23796956D01*
X23806310Y23860125D01*
X23824352Y23900308D01*
X23844467Y23950002D01*
X23865642Y24006400D01*
X23886864Y24066694D01*
X23907121Y24128075D01*
X23925399Y24187735D01*
X23929091Y24200478D01*
X23963195Y24332238D01*
X23992856Y24472792D01*
X24017953Y24620195D01*
X24038364Y24772502D01*
X24053966Y24927769D01*
X24064639Y25084050D01*
X24070260Y25239401D01*
X24070709Y25391877D01*
X24065862Y25539534D01*
G37*
X24065862Y25539534D02*
X24055599Y25680426D01*
X24039797Y25812610D01*
X24032800Y25857268D01*
X24027151Y25885862D01*
X24020286Y25903589D01*
X24010075Y25911413D01*
X23994387Y25910300D01*
X23971092Y25901216D01*
X23953932Y25893008D01*
X23896507Y25861469D01*
X23838257Y25823439D01*
X23781462Y25780816D01*
X23728401Y25735501D01*
X23681356Y25689394D01*
X23642604Y25644393D01*
X23623705Y25617824D01*
X23600904Y25574837D01*
X23580602Y25520922D01*
X23563350Y25457699D01*
X23554090Y25412700D01*
X23548886Y25375773D01*
X23545183Y25332223D01*
X23542979Y25284797D01*
X23542270Y25236243D01*
X23543056Y25189308D01*
X23545333Y25146739D01*
X23549100Y25111286D01*
X23554354Y25085694D01*
X23554360Y25085675D01*
X23565617Y25056423D01*
X23578883Y25034333D01*
X23592716Y25021457D01*
X23601154Y25019000D01*
X23609958Y25023091D01*
X23624531Y25033793D01*
X23640947Y25048092D01*
X23667501Y25078869D01*
X23693474Y25120162D01*
X23717852Y25169795D01*
X23739621Y25225594D01*
X23757766Y25285381D01*
X23764503Y25313111D01*
X23768601Y25334954D01*
X23772276Y25360665D01*
X23775160Y25386639D01*
X23776884Y25409276D01*
X23777079Y25424975D01*
X23776399Y25429351D01*
X23767800Y25436925D01*
X23753593Y25435924D01*
X23740446Y25428809D01*
X23725270Y25422900D01*
X23712840Y25428237D01*
X23708284Y25435759D01*
X23709230Y25448782D01*
X23718304Y25471124D01*
X23735349Y25502479D01*
X23760207Y25542542D01*
X23774035Y25563532D01*
X23802079Y25603057D01*
X23825786Y25631052D01*
X23845570Y25647764D01*
X23861847Y25653441D01*
X23875028Y25648330D01*
X23885529Y25632681D01*
X23886362Y25630752D01*
X23895661Y25604426D01*
X23903094Y25573648D01*
X23908872Y25536748D01*
X23913206Y25492059D01*
X23916306Y25437912D01*
X23918261Y25377775D01*
X23919242Y25304493D01*
X23918071Y25241764D01*
X23914285Y25187552D01*
X23907422Y25139823D01*
X23897020Y25096542D01*
X23882616Y25055674D01*
X23863749Y25015184D01*
X23839957Y24973039D01*
X23818640Y24939177D01*
X23779977Y24878044D01*
X23749562Y24826111D01*
X23727238Y24783059D01*
X23712846Y24748568D01*
X23706228Y24722319D01*
X23705834Y24711414D01*
X23709877Y24692204D01*
X23718804Y24684070D01*
X23733294Y24686867D01*
X23754024Y24700451D01*
X23754685Y24700972D01*
X23775200Y24715162D01*
X23800157Y24729681D01*
X23813353Y24736314D01*
X23839734Y24747486D01*
X23858707Y24751957D01*
X23871280Y24748643D01*
X23878459Y24736461D01*
X23881253Y24714326D01*
X23880667Y24681155D01*
X23879734Y24664888D01*
X23875410Y24608568D01*
X23869302Y24545604D01*
X23861737Y24478344D01*
X23853043Y24409136D01*
X23843546Y24340328D01*
X23833574Y24274268D01*
X23823454Y24213305D01*
X23813515Y24159786D01*
X23804082Y24116059D01*
X23802069Y24107831D01*
X23779597Y24029855D01*
X23752433Y23957571D01*
X23719529Y23889340D01*
X23679832Y23823525D01*
X23632294Y23758488D01*
X23575864Y23692592D01*
X23509492Y23624198D01*
X23464402Y23581228D01*
X23417804Y23537145D01*
X23379097Y23498581D01*
X23346214Y23463177D01*
X23317086Y23428571D01*
X23289645Y23392403D01*
X23261823Y23352313D01*
X23255359Y23342600D01*
X23216857Y23285345D01*
X23182742Y23237133D01*
X23151181Y23195937D01*
X23120340Y23159728D01*
X23088386Y23126475D01*
X23053487Y23094151D01*
X23013809Y23060727D01*
X22967950Y23024508D01*
X22927295Y22993608D01*
X22895039Y22970333D01*
X22870041Y22953928D01*
X22851159Y22943637D01*
X22838750Y22939052D01*
X22827967Y22937676D01*
X22823087Y22941166D01*
X22824452Y22950689D01*
X22832401Y22967411D01*
X22847274Y22992500D01*
X22860293Y23013034D01*
X22877498Y23040459D01*
X22893431Y23067052D01*
X22905963Y23089198D01*
X22911558Y23100091D01*
X22924430Y23127457D01*
X22908094Y23148874D01*
X22892897Y23165912D01*
X22878536Y23173588D01*
X22861953Y23172174D01*
X22840087Y23161944D01*
X22829880Y23155878D01*
X22778308Y23130621D01*
X22726497Y23117894D01*
X22674887Y23117726D01*
X22623917Y23130149D01*
X22601464Y23139779D01*
X22562146Y23164267D01*
X22533457Y23194605D01*
X22514962Y23231614D01*
X22506226Y23276116D01*
X22506103Y23319762D01*
X22515141Y23378562D01*
X22534873Y23440159D01*
X22565551Y23505086D01*
X22607427Y23573878D01*
X22660754Y23647068D01*
X22660782Y23647103D01*
X22700923Y23700534D01*
X22732462Y23747482D01*
X22756487Y23789674D01*
X22772440Y23824652D01*
X22780068Y23851358D01*
X22785148Y23884671D01*
X22787620Y23921068D01*
X22787422Y23957027D01*
X22784495Y23989024D01*
X22778778Y24013537D01*
X22775804Y24020261D01*
X22762365Y24038550D01*
X22739672Y24062291D01*
X22709288Y24090287D01*
X22672779Y24121341D01*
X22631711Y24154255D01*
X22587647Y24187832D01*
X22542153Y24220875D01*
X22496795Y24252187D01*
X22453137Y24280570D01*
X22412744Y24304826D01*
X22382564Y24321096D01*
X22329200Y24344701D01*
X22281200Y24358763D01*
X22236247Y24363851D01*
X22212250Y24363054D01*
X22167241Y24356733D01*
X22129031Y24345129D01*
X22096241Y24327010D01*
X22067488Y24301145D01*
X22041392Y24266302D01*
X22016571Y24221251D01*
X21992705Y24167363D01*
X21976224Y24127523D01*
X21962972Y24097146D01*
X21951605Y24073848D01*
X21940779Y24055246D01*
X21929150Y24038954D01*
X21915374Y24022588D01*
X21904160Y24010272D01*
X21873204Y23980182D01*
X21844576Y23960445D01*
X21815503Y23949779D01*
X21783213Y23946906D01*
X21768507Y23947675D01*
X21714668Y23956987D01*
X21669673Y23975257D01*
X21633190Y24002662D01*
X21608383Y24033650D01*
X21595275Y24062113D01*
X21589681Y24092035D01*
X21592130Y24119160D01*
X21596408Y24130108D01*
X21604093Y24138428D01*
X21619950Y24151709D01*
X21641513Y24167981D01*
X21661496Y24182022D01*
X21689424Y24202706D01*
X21722476Y24229824D01*
X21757211Y24260434D01*
X21790187Y24291594D01*
X21793674Y24295044D01*
X21832976Y24335860D01*
X21868337Y24376672D01*
X21900709Y24419083D01*
X21931045Y24464697D01*
X21960298Y24515117D01*
X21989421Y24571947D01*
X22019366Y24636790D01*
X22051087Y24711251D01*
X22072882Y24765000D01*
X22090285Y24807773D01*
X22108391Y24850849D01*
X22125929Y24891303D01*
X22141630Y24926215D01*
X22154222Y24952662D01*
X22155835Y24955856D01*
X22181879Y25002281D01*
X22211952Y25046693D01*
X22247247Y25090339D01*
X22288955Y25134468D01*
X22338271Y25180328D01*
X22396386Y25229168D01*
X22464492Y25282235D01*
X22475825Y25290773D01*
X22541999Y25337594D01*
X22603845Y25374882D01*
X22664017Y25403713D01*
X22725166Y25425163D01*
X22789948Y25440310D01*
X22861014Y25450228D01*
X22871391Y25451240D01*
X22933258Y25453981D01*
X23003157Y25451926D01*
X23077533Y25445481D01*
X23152830Y25435050D01*
X23225494Y25421038D01*
X23291971Y25403850D01*
X23294667Y25403037D01*
X23313793Y25397775D01*
X23325061Y25396833D01*
X23332562Y25400229D01*
X23335835Y25403212D01*
X23341491Y25413445D01*
X23337733Y25424710D01*
X23323742Y25438124D01*
X23298701Y25454804D01*
X23297467Y25455549D01*
X23221803Y25494539D01*
X23137339Y25526213D01*
X23045803Y25550364D01*
X22948920Y25566781D01*
X22848416Y25575256D01*
X22746020Y25575579D01*
X22643456Y25567543D01*
X22542451Y25550938D01*
X22530542Y25548365D01*
X22458488Y25530195D01*
X22388860Y25507829D01*
X22317810Y25479879D01*
X22241488Y25444955D01*
X22234525Y25441568D01*
X22184077Y25415355D01*
X22130362Y25384684D01*
X22075426Y25350942D01*
X22021313Y25315518D01*
X21970069Y25279803D01*
X21923737Y25245183D01*
X21884363Y25213049D01*
X21853991Y25184789D01*
X21849416Y25179981D01*
X21832606Y25161875D01*
X21848835Y25101550D01*
X21855567Y25074671D01*
X21860208Y25050409D01*
X21863145Y25025164D01*
X21864764Y24995336D01*
X21865450Y24957326D01*
X21865522Y24945975D01*
X21865197Y24898806D01*
X21863304Y24859987D01*
X21859226Y24825201D01*
X21852347Y24790134D01*
X21842053Y24750470D01*
X21833348Y24720550D01*
X21820619Y24682112D01*
X21804248Y24638917D01*
X21785635Y24594158D01*
X21766180Y24551029D01*
X21747282Y24512722D01*
X21730342Y24482433D01*
X21726018Y24475640D01*
X21682679Y24420900D01*
X21628710Y24370611D01*
X21565718Y24325829D01*
X21495311Y24287609D01*
X21419098Y24257006D01*
X21371468Y24242798D01*
X21340933Y24234309D01*
X21320931Y24227206D01*
X21309519Y24220514D01*
X21304751Y24213261D01*
X21304250Y24209147D01*
X21307826Y24200857D01*
X21317474Y24185005D01*
X21331575Y24164135D01*
X21343149Y24148012D01*
X21396641Y24082654D01*
X21458852Y24019339D01*
X21526928Y23960492D01*
X21598013Y23908540D01*
X21669252Y23865909D01*
X21684125Y23858288D01*
X21714817Y23843742D01*
X21738661Y23834468D01*
X21759700Y23829205D01*
X21781974Y23826686D01*
X21785909Y23826454D01*
X21811631Y23825985D01*
X21831248Y23828792D01*
X21851212Y23836228D01*
X21865327Y23843111D01*
X21902528Y23862030D01*
X21949300Y23836802D01*
X21981670Y23821340D01*
X22005237Y23814704D01*
X22020299Y23816860D01*
X22027133Y23827667D01*
X22025496Y23838328D01*
X22019227Y23857186D01*
X22009447Y23881112D01*
X22002566Y23896168D01*
X21991425Y23920311D01*
X21983054Y23939807D01*
X21978517Y23952096D01*
X21978118Y23954996D01*
X21983869Y23952438D01*
X21997420Y23943683D01*
X22016491Y23930257D01*
X22030580Y23919887D01*
X22061516Y23897985D01*
X22091106Y23879264D01*
X22117368Y23864784D01*
X22138321Y23855602D01*
X22151983Y23852776D01*
X22154816Y23853568D01*
X22159609Y23858328D01*
X22160171Y23865536D01*
X22155724Y23876906D01*
X22145489Y23894155D01*
X22128686Y23919000D01*
X22118584Y23933385D01*
X22098890Y23962109D01*
X22079664Y23991640D01*
X22063513Y24017897D01*
X22055377Y24032250D01*
X22034979Y24070555D01*
X22056993Y24103243D01*
X22095157Y24150906D01*
X22138099Y24187084D01*
X22186691Y24212238D01*
X22241806Y24226824D01*
X22301200Y24231310D01*
X22355893Y24225258D01*
X22410827Y24207920D01*
X22464562Y24180601D01*
X22515657Y24144603D01*
X22562673Y24101229D01*
X22604168Y24051784D01*
X22638702Y23997569D01*
X22664835Y23939889D01*
X22679348Y23889196D01*
X22684274Y23851634D01*
X22682674Y23814405D01*
X22673997Y23775507D01*
X22657692Y23732938D01*
X22633210Y23684696D01*
X22614047Y23651665D01*
X22601666Y23632005D01*
X22592784Y23621372D01*
X22584868Y23617619D01*
X22575380Y23618600D01*
X22575076Y23618672D01*
X22547005Y23628303D01*
X22511242Y23645171D01*
X22469739Y23668248D01*
X22424447Y23696505D01*
X22413070Y23704050D01*
X22382034Y23724790D01*
X22359733Y23739219D01*
X22344369Y23748122D01*
X22334141Y23752282D01*
X22327252Y23752482D01*
X22321902Y23749505D01*
X22317724Y23745565D01*
X22311816Y23735686D01*
X22310481Y23721060D01*
X22313967Y23699866D01*
X22322518Y23670283D01*
X22331432Y23644225D01*
X22356024Y23583771D01*
X22387208Y23523363D01*
X22416346Y23475315D01*
X22430040Y23453415D01*
X22440624Y23435506D01*
X22446533Y23424283D01*
X22447250Y23422102D01*
X22441825Y23418487D01*
X22427260Y23419206D01*
X22406119Y23423667D01*
X22380968Y23431276D01*
X22354372Y23441443D01*
X22344377Y23445872D01*
X22318736Y23457095D01*
X22302120Y23462614D01*
X22292495Y23462978D01*
X22289064Y23460754D01*
X22288623Y23450771D01*
X22295855Y23432664D01*
X22309971Y23407779D01*
X22330182Y23377459D01*
X22355699Y23343050D01*
X22365435Y23330668D01*
X22382848Y23308493D01*
X22393785Y23292670D01*
X22399752Y23279673D01*
X22402253Y23265975D01*
X22402795Y23248051D01*
X22402800Y23243152D01*
X22404481Y23212913D01*
X22410503Y23186859D01*
X22422339Y23161243D01*
X22441462Y23132316D01*
X22451674Y23118727D01*
X22500093Y23060397D01*
X22550882Y23007697D01*
X22602675Y22961682D01*
X22654105Y22923409D01*
X22703806Y22893933D01*
X22750411Y22874313D01*
X22776436Y22867688D01*
X22805272Y22864218D01*
X22831024Y22865808D01*
X22856499Y22873386D01*
X22884503Y22887883D01*
X22917843Y22910226D01*
X22928480Y22917988D01*
X23019197Y22987816D01*
X23098032Y23054498D01*
X23165320Y23118354D01*
X23221399Y23179707D01*
X23266603Y23238878D01*
X23272670Y23247894D01*
X23293184Y23277337D01*
X23315991Y23307525D01*
X23337625Y23333969D01*
X23348225Y23345775D01*
X23370199Y23369551D01*
X23393276Y23395413D01*
X23412497Y23417799D01*
X23412660Y23417997D01*
X23428475Y23435053D01*
X23451388Y23457236D01*
X23478496Y23481844D01*
X23506897Y23506175D01*
X23510875Y23509458D01*
X23593098Y23581374D01*
X23663516Y23652634D01*
X23722923Y23724181D01*
X23772113Y23796956D01*
X23806310Y23860125D01*
X23824352Y23900308D01*
X23844467Y23950002D01*
X23865642Y24006400D01*
X23886864Y24066694D01*
X23907121Y24128075D01*
X23925399Y24187735D01*
X23929091Y24200478D01*
X23963195Y24332238D01*
X23992856Y24472792D01*
X24017953Y24620195D01*
X24038364Y24772502D01*
X24053966Y24927769D01*
X24064639Y25084050D01*
X24070260Y25239401D01*
X24070709Y25391877D01*
X24065862Y25539534D01*
G36*
X23142695Y23589779D02*
G01*
X23134781Y23606267D01*
X23123891Y23626631D01*
X23111906Y23647427D01*
X23100706Y23665210D01*
X23095637Y23672362D01*
X23073275Y23696067D01*
X23043498Y23719972D01*
X23010815Y23740952D01*
X22979737Y23755883D01*
X22970734Y23758911D01*
X22943689Y23764415D01*
X22914502Y23766942D01*
X22903228Y23766807D01*
X22869525Y23764875D01*
X22902736Y23756383D01*
X22937565Y23743320D01*
X22973980Y23722797D01*
X23007118Y23697948D01*
X23030440Y23674076D01*
X23043494Y23655672D01*
X23057521Y23632898D01*
X23070737Y23609061D01*
X23081357Y23587468D01*
X23087598Y23571425D01*
X23088520Y23566437D01*
X23092738Y23559059D01*
X23095154Y23558500D01*
X23105466Y23560790D01*
X23120232Y23566291D01*
X23134746Y23572946D01*
X23144302Y23578697D01*
X23145750Y23580612D01*
X23142695Y23589779D01*
G37*
X23142695Y23589779D02*
X23134781Y23606267D01*
X23123891Y23626631D01*
X23111906Y23647427D01*
X23100706Y23665210D01*
X23095637Y23672362D01*
X23073275Y23696067D01*
X23043498Y23719972D01*
X23010815Y23740952D01*
X22979737Y23755883D01*
X22970734Y23758911D01*
X22943689Y23764415D01*
X22914502Y23766942D01*
X22903228Y23766807D01*
X22869525Y23764875D01*
X22902736Y23756383D01*
X22937565Y23743320D01*
X22973980Y23722797D01*
X23007118Y23697948D01*
X23030440Y23674076D01*
X23043494Y23655672D01*
X23057521Y23632898D01*
X23070737Y23609061D01*
X23081357Y23587468D01*
X23087598Y23571425D01*
X23088520Y23566437D01*
X23092738Y23559059D01*
X23095154Y23558500D01*
X23105466Y23560790D01*
X23120232Y23566291D01*
X23134746Y23572946D01*
X23144302Y23578697D01*
X23145750Y23580612D01*
X23142695Y23589779D01*
G36*
X23395258Y24848243D02*
G01*
X23388000Y24845339D01*
X23373380Y24836709D01*
X23350270Y24821786D01*
X23327897Y24806934D01*
X23292040Y24783362D01*
X23250146Y24756407D01*
X23207091Y24729176D01*
X23167753Y24704776D01*
X23162713Y24701698D01*
X23129485Y24681193D01*
X23105776Y24665792D01*
X23090079Y24654303D01*
X23080884Y24645533D01*
X23076683Y24638289D01*
X23075900Y24633084D01*
X23074298Y24616742D01*
X23069785Y24590048D01*
X23062805Y24554900D01*
X23053800Y24513196D01*
X23043212Y24466833D01*
X23031486Y24417710D01*
X23019062Y24367725D01*
X23006384Y24318774D01*
X22993895Y24272756D01*
X22982992Y24234775D01*
X22981837Y24226535D01*
X22985847Y24228425D01*
X22991219Y24236337D01*
X23000881Y24253110D01*
X23013438Y24276247D01*
X23026841Y24301960D01*
X23048313Y24347948D01*
X23069622Y24400769D01*
X23089337Y24456303D01*
X23106025Y24510427D01*
X23118252Y24559018D01*
X23121026Y24572930D01*
X23125696Y24596746D01*
X23130612Y24612064D01*
X23138293Y24622883D01*
X23151256Y24633202D01*
X23164594Y24642120D01*
X23205122Y24670296D01*
X23246718Y24701861D01*
X23287276Y24734995D01*
X23324694Y24767876D01*
X23356867Y24798681D01*
X23381690Y24825591D01*
X23392190Y24839123D01*
X23396279Y24845983D01*
X23395258Y24848243D01*
G37*
X23395258Y24848243D02*
X23388000Y24845339D01*
X23373380Y24836709D01*
X23350270Y24821786D01*
X23327897Y24806934D01*
X23292040Y24783362D01*
X23250146Y24756407D01*
X23207091Y24729176D01*
X23167753Y24704776D01*
X23162713Y24701698D01*
X23129485Y24681193D01*
X23105776Y24665792D01*
X23090079Y24654303D01*
X23080884Y24645533D01*
X23076683Y24638289D01*
X23075900Y24633084D01*
X23074298Y24616742D01*
X23069785Y24590048D01*
X23062805Y24554900D01*
X23053800Y24513196D01*
X23043212Y24466833D01*
X23031486Y24417710D01*
X23019062Y24367725D01*
X23006384Y24318774D01*
X22993895Y24272756D01*
X22982992Y24234775D01*
X22981837Y24226535D01*
X22985847Y24228425D01*
X22991219Y24236337D01*
X23000881Y24253110D01*
X23013438Y24276247D01*
X23026841Y24301960D01*
X23048313Y24347948D01*
X23069622Y24400769D01*
X23089337Y24456303D01*
X23106025Y24510427D01*
X23118252Y24559018D01*
X23121026Y24572930D01*
X23125696Y24596746D01*
X23130612Y24612064D01*
X23138293Y24622883D01*
X23151256Y24633202D01*
X23164594Y24642120D01*
X23205122Y24670296D01*
X23246718Y24701861D01*
X23287276Y24734995D01*
X23324694Y24767876D01*
X23356867Y24798681D01*
X23381690Y24825591D01*
X23392190Y24839123D01*
X23396279Y24845983D01*
X23395258Y24848243D01*
G36*
X23566412Y24122050D02*
G01*
X23552237Y24126955D01*
X23528648Y24123620D01*
X23516404Y24119902D01*
X23479072Y24103248D01*
X23441952Y24079755D01*
X23409978Y24052782D01*
X23397251Y24038777D01*
X23386353Y24024581D01*
X23370646Y24003221D01*
X23351709Y23976942D01*
X23331120Y23947985D01*
X23310458Y23918595D01*
X23291303Y23891014D01*
X23275232Y23867486D01*
X23263827Y23850253D01*
X23259204Y23842662D01*
X23256311Y23833714D01*
X23257898Y23831550D01*
X23265455Y23834884D01*
X23279321Y23843337D01*
X23287242Y23848666D01*
X23311942Y23865783D01*
X23332034Y23842890D01*
X23357650Y23818024D01*
X23383816Y23802811D01*
X23414854Y23794776D01*
X23416480Y23794537D01*
X23434616Y23791379D01*
X23444373Y23786200D01*
X23449670Y23775301D01*
X23453391Y23759700D01*
X23458334Y23742121D01*
X23463527Y23731128D01*
X23465989Y23729258D01*
X23468924Y23735121D01*
X23474545Y23751475D01*
X23482353Y23776515D01*
X23491850Y23808437D01*
X23502536Y23845437D01*
X23513912Y23885712D01*
X23525479Y23927457D01*
X23536739Y23968869D01*
X23547192Y24008144D01*
X23556339Y24043477D01*
X23563681Y24073065D01*
X23568720Y24095104D01*
X23570955Y24107790D01*
X23571021Y24108934D01*
X23566412Y24122050D01*
G37*
X23566412Y24122050D02*
X23552237Y24126955D01*
X23528648Y24123620D01*
X23516404Y24119902D01*
X23479072Y24103248D01*
X23441952Y24079755D01*
X23409978Y24052782D01*
X23397251Y24038777D01*
X23386353Y24024581D01*
X23370646Y24003221D01*
X23351709Y23976942D01*
X23331120Y23947985D01*
X23310458Y23918595D01*
X23291303Y23891014D01*
X23275232Y23867486D01*
X23263827Y23850253D01*
X23259204Y23842662D01*
X23256311Y23833714D01*
X23257898Y23831550D01*
X23265455Y23834884D01*
X23279321Y23843337D01*
X23287242Y23848666D01*
X23311942Y23865783D01*
X23332034Y23842890D01*
X23357650Y23818024D01*
X23383816Y23802811D01*
X23414854Y23794776D01*
X23416480Y23794537D01*
X23434616Y23791379D01*
X23444373Y23786200D01*
X23449670Y23775301D01*
X23453391Y23759700D01*
X23458334Y23742121D01*
X23463527Y23731128D01*
X23465989Y23729258D01*
X23468924Y23735121D01*
X23474545Y23751475D01*
X23482353Y23776515D01*
X23491850Y23808437D01*
X23502536Y23845437D01*
X23513912Y23885712D01*
X23525479Y23927457D01*
X23536739Y23968869D01*
X23547192Y24008144D01*
X23556339Y24043477D01*
X23563681Y24073065D01*
X23568720Y24095104D01*
X23570955Y24107790D01*
X23571021Y24108934D01*
X23566412Y24122050D01*
%TD*%
%TA.AperFunction,SMDPad,CuDef*%
D12*
%TO.P,REF\u002A\u002A,1*%
%TO.N,N/C*%
G36*
X23853000Y1790000D02*
G01*
X23353000Y1790000D01*
X23353000Y1790602D01*
X23328466Y1790602D01*
X23279635Y1795412D01*
X23231510Y1804984D01*
X23184555Y1819228D01*
X23139222Y1838005D01*
X23095949Y1861136D01*
X23055150Y1888396D01*
X23017221Y1919524D01*
X22982524Y1954221D01*
X22951396Y1992150D01*
X22924136Y2032949D01*
X22901005Y2076222D01*
X22882228Y2121555D01*
X22867984Y2168510D01*
X22858412Y2216635D01*
X22853602Y2265466D01*
X22853602Y2290000D01*
X22853000Y2290000D01*
X22853000Y2790000D01*
X22853602Y2790000D01*
X22853602Y2814534D01*
X22858412Y2863365D01*
X22867984Y2911490D01*
X22882228Y2958445D01*
X22901005Y3003778D01*
X22924136Y3047051D01*
X22951396Y3087850D01*
X22982524Y3125779D01*
X23017221Y3160476D01*
X23055150Y3191604D01*
X23095949Y3218864D01*
X23139222Y3241995D01*
X23184555Y3260772D01*
X23231510Y3275016D01*
X23279635Y3284588D01*
X23328466Y3289398D01*
X23353000Y3289398D01*
X23353000Y3290000D01*
X23853000Y3290000D01*
X23853000Y1790000D01*
G37*
%TD.AperFunction*%
%TA.AperFunction,SMDPad,CuDef*%
%TO.P,REF\u002A\u002A,2*%
G36*
X24653000Y3289398D02*
G01*
X24677534Y3289398D01*
X24726365Y3284588D01*
X24774490Y3275016D01*
X24821445Y3260772D01*
X24866778Y3241995D01*
X24910051Y3218864D01*
X24950850Y3191604D01*
X24988779Y3160476D01*
X25023476Y3125779D01*
X25054604Y3087850D01*
X25081864Y3047051D01*
X25104995Y3003778D01*
X25123772Y2958445D01*
X25138016Y2911490D01*
X25147588Y2863365D01*
X25152398Y2814534D01*
X25152398Y2790000D01*
X25153000Y2790000D01*
X25153000Y2290000D01*
X25152398Y2290000D01*
X25152398Y2265466D01*
X25147588Y2216635D01*
X25138016Y2168510D01*
X25123772Y2121555D01*
X25104995Y2076222D01*
X25081864Y2032949D01*
X25054604Y1992150D01*
X25023476Y1954221D01*
X24988779Y1919524D01*
X24950850Y1888396D01*
X24910051Y1861136D01*
X24866778Y1838005D01*
X24821445Y1819228D01*
X24774490Y1804984D01*
X24726365Y1795412D01*
X24677534Y1790602D01*
X24653000Y1790602D01*
X24653000Y1790000D01*
X24153000Y1790000D01*
X24153000Y3290000D01*
X24653000Y3290000D01*
X24653000Y3289398D01*
G37*
%TD.AperFunction*%
%TD*%
%TA.AperFunction,SMDPad,CuDef*%
%TO.P,REF\u002A\u002A,2*%
%TO.N,N/C*%
G36*
X24653000Y10909398D02*
G01*
X24677534Y10909398D01*
X24726365Y10904588D01*
X24774490Y10895016D01*
X24821445Y10880772D01*
X24866778Y10861995D01*
X24910051Y10838864D01*
X24950850Y10811604D01*
X24988779Y10780476D01*
X25023476Y10745779D01*
X25054604Y10707850D01*
X25081864Y10667051D01*
X25104995Y10623778D01*
X25123772Y10578445D01*
X25138016Y10531490D01*
X25147588Y10483365D01*
X25152398Y10434534D01*
X25152398Y10410000D01*
X25153000Y10410000D01*
X25153000Y9910000D01*
X25152398Y9910000D01*
X25152398Y9885466D01*
X25147588Y9836635D01*
X25138016Y9788510D01*
X25123772Y9741555D01*
X25104995Y9696222D01*
X25081864Y9652949D01*
X25054604Y9612150D01*
X25023476Y9574221D01*
X24988779Y9539524D01*
X24950850Y9508396D01*
X24910051Y9481136D01*
X24866778Y9458005D01*
X24821445Y9439228D01*
X24774490Y9424984D01*
X24726365Y9415412D01*
X24677534Y9410602D01*
X24653000Y9410602D01*
X24653000Y9410000D01*
X24153000Y9410000D01*
X24153000Y10910000D01*
X24653000Y10910000D01*
X24653000Y10909398D01*
G37*
%TD.AperFunction*%
%TA.AperFunction,SMDPad,CuDef*%
%TO.P,REF\u002A\u002A,1*%
G36*
X23853000Y9410000D02*
G01*
X23353000Y9410000D01*
X23353000Y9410602D01*
X23328466Y9410602D01*
X23279635Y9415412D01*
X23231510Y9424984D01*
X23184555Y9439228D01*
X23139222Y9458005D01*
X23095949Y9481136D01*
X23055150Y9508396D01*
X23017221Y9539524D01*
X22982524Y9574221D01*
X22951396Y9612150D01*
X22924136Y9652949D01*
X22901005Y9696222D01*
X22882228Y9741555D01*
X22867984Y9788510D01*
X22858412Y9836635D01*
X22853602Y9885466D01*
X22853602Y9910000D01*
X22853000Y9910000D01*
X22853000Y10410000D01*
X22853602Y10410000D01*
X22853602Y10434534D01*
X22858412Y10483365D01*
X22867984Y10531490D01*
X22882228Y10578445D01*
X22901005Y10623778D01*
X22924136Y10667051D01*
X22951396Y10707850D01*
X22982524Y10745779D01*
X23017221Y10780476D01*
X23055150Y10811604D01*
X23095949Y10838864D01*
X23139222Y10861995D01*
X23184555Y10880772D01*
X23231510Y10895016D01*
X23279635Y10904588D01*
X23328466Y10909398D01*
X23353000Y10909398D01*
X23353000Y10910000D01*
X23853000Y10910000D01*
X23853000Y9410000D01*
G37*
%TD.AperFunction*%
%TD*%
%TA.AperFunction,SMDPad,CuDef*%
%TO.P,REF\u002A\u002A,1*%
%TO.N,N/C*%
G36*
X20459000Y18530000D02*
G01*
X20459000Y19080000D01*
X20459602Y19080000D01*
X20459602Y19104534D01*
X20464412Y19153365D01*
X20473984Y19201490D01*
X20488228Y19248445D01*
X20507005Y19293778D01*
X20530136Y19337051D01*
X20557396Y19377850D01*
X20588524Y19415779D01*
X20623221Y19450476D01*
X20661150Y19481604D01*
X20701949Y19508864D01*
X20745222Y19531995D01*
X20790555Y19550772D01*
X20837510Y19565016D01*
X20885635Y19574588D01*
X20934466Y19579398D01*
X20959000Y19579398D01*
X20959000Y19580000D01*
X21459000Y19580000D01*
X21459000Y19579398D01*
X21483534Y19579398D01*
X21532365Y19574588D01*
X21580490Y19565016D01*
X21627445Y19550772D01*
X21672778Y19531995D01*
X21716051Y19508864D01*
X21756850Y19481604D01*
X21794779Y19450476D01*
X21829476Y19415779D01*
X21860604Y19377850D01*
X21887864Y19337051D01*
X21910995Y19293778D01*
X21929772Y19248445D01*
X21944016Y19201490D01*
X21953588Y19153365D01*
X21958398Y19104534D01*
X21958398Y19080000D01*
X21959000Y19080000D01*
X21959000Y18530000D01*
X20459000Y18530000D01*
G37*
%TD.AperFunction*%
%TA.AperFunction,SMDPad,CuDef*%
%TO.P,REF\u002A\u002A,3*%
G36*
X21958398Y16480000D02*
G01*
X21958398Y16455466D01*
X21953588Y16406635D01*
X21944016Y16358510D01*
X21929772Y16311555D01*
X21910995Y16266222D01*
X21887864Y16222949D01*
X21860604Y16182150D01*
X21829476Y16144221D01*
X21794779Y16109524D01*
X21756850Y16078396D01*
X21716051Y16051136D01*
X21672778Y16028005D01*
X21627445Y16009228D01*
X21580490Y15994984D01*
X21532365Y15985412D01*
X21483534Y15980602D01*
X21459000Y15980602D01*
X21459000Y15980000D01*
X20959000Y15980000D01*
X20959000Y15980602D01*
X20934466Y15980602D01*
X20885635Y15985412D01*
X20837510Y15994984D01*
X20790555Y16009228D01*
X20745222Y16028005D01*
X20701949Y16051136D01*
X20661150Y16078396D01*
X20623221Y16109524D01*
X20588524Y16144221D01*
X20557396Y16182150D01*
X20530136Y16222949D01*
X20507005Y16266222D01*
X20488228Y16311555D01*
X20473984Y16358510D01*
X20464412Y16406635D01*
X20459602Y16455466D01*
X20459602Y16480000D01*
X20459000Y16480000D01*
X20459000Y17030000D01*
X21959000Y17030000D01*
X21959000Y16480000D01*
X21958398Y16480000D01*
G37*
%TD.AperFunction*%
D13*
%TO.P,REF\u002A\u002A,2*%
X21209000Y17780000D03*
%TD*%
%TA.AperFunction,SMDPad,CuDef*%
D12*
%TO.P,REF\u002A\u002A,1*%
%TO.N,N/C*%
G36*
X17245000Y11534000D02*
G01*
X17245000Y11034000D01*
X17244398Y11034000D01*
X17244398Y11009466D01*
X17239588Y10960635D01*
X17230016Y10912510D01*
X17215772Y10865555D01*
X17196995Y10820222D01*
X17173864Y10776949D01*
X17146604Y10736150D01*
X17115476Y10698221D01*
X17080779Y10663524D01*
X17042850Y10632396D01*
X17002051Y10605136D01*
X16958778Y10582005D01*
X16913445Y10563228D01*
X16866490Y10548984D01*
X16818365Y10539412D01*
X16769534Y10534602D01*
X16745000Y10534602D01*
X16745000Y10534000D01*
X16245000Y10534000D01*
X16245000Y10534602D01*
X16220466Y10534602D01*
X16171635Y10539412D01*
X16123510Y10548984D01*
X16076555Y10563228D01*
X16031222Y10582005D01*
X15987949Y10605136D01*
X15947150Y10632396D01*
X15909221Y10663524D01*
X15874524Y10698221D01*
X15843396Y10736150D01*
X15816136Y10776949D01*
X15793005Y10820222D01*
X15774228Y10865555D01*
X15759984Y10912510D01*
X15750412Y10960635D01*
X15745602Y11009466D01*
X15745602Y11034000D01*
X15745000Y11034000D01*
X15745000Y11534000D01*
X17245000Y11534000D01*
G37*
%TD.AperFunction*%
%TA.AperFunction,SMDPad,CuDef*%
%TO.P,REF\u002A\u002A,2*%
G36*
X15745602Y12334000D02*
G01*
X15745602Y12358534D01*
X15750412Y12407365D01*
X15759984Y12455490D01*
X15774228Y12502445D01*
X15793005Y12547778D01*
X15816136Y12591051D01*
X15843396Y12631850D01*
X15874524Y12669779D01*
X15909221Y12704476D01*
X15947150Y12735604D01*
X15987949Y12762864D01*
X16031222Y12785995D01*
X16076555Y12804772D01*
X16123510Y12819016D01*
X16171635Y12828588D01*
X16220466Y12833398D01*
X16245000Y12833398D01*
X16245000Y12834000D01*
X16745000Y12834000D01*
X16745000Y12833398D01*
X16769534Y12833398D01*
X16818365Y12828588D01*
X16866490Y12819016D01*
X16913445Y12804772D01*
X16958778Y12785995D01*
X17002051Y12762864D01*
X17042850Y12735604D01*
X17080779Y12704476D01*
X17115476Y12669779D01*
X17146604Y12631850D01*
X17173864Y12591051D01*
X17196995Y12547778D01*
X17215772Y12502445D01*
X17230016Y12455490D01*
X17239588Y12407365D01*
X17244398Y12358534D01*
X17244398Y12334000D01*
X17245000Y12334000D01*
X17245000Y11834000D01*
X15745000Y11834000D01*
X15745000Y12334000D01*
X15745602Y12334000D01*
G37*
%TD.AperFunction*%
%TD*%
%TA.AperFunction,SMDPad,CuDef*%
%TO.P,REF\u002A\u002A,2*%
%TO.N,N/C*%
G36*
X17665602Y12334000D02*
G01*
X17665602Y12358534D01*
X17670412Y12407365D01*
X17679984Y12455490D01*
X17694228Y12502445D01*
X17713005Y12547778D01*
X17736136Y12591051D01*
X17763396Y12631850D01*
X17794524Y12669779D01*
X17829221Y12704476D01*
X17867150Y12735604D01*
X17907949Y12762864D01*
X17951222Y12785995D01*
X17996555Y12804772D01*
X18043510Y12819016D01*
X18091635Y12828588D01*
X18140466Y12833398D01*
X18165000Y12833398D01*
X18165000Y12834000D01*
X18665000Y12834000D01*
X18665000Y12833398D01*
X18689534Y12833398D01*
X18738365Y12828588D01*
X18786490Y12819016D01*
X18833445Y12804772D01*
X18878778Y12785995D01*
X18922051Y12762864D01*
X18962850Y12735604D01*
X19000779Y12704476D01*
X19035476Y12669779D01*
X19066604Y12631850D01*
X19093864Y12591051D01*
X19116995Y12547778D01*
X19135772Y12502445D01*
X19150016Y12455490D01*
X19159588Y12407365D01*
X19164398Y12358534D01*
X19164398Y12334000D01*
X19165000Y12334000D01*
X19165000Y11834000D01*
X17665000Y11834000D01*
X17665000Y12334000D01*
X17665602Y12334000D01*
G37*
%TD.AperFunction*%
%TA.AperFunction,SMDPad,CuDef*%
%TO.P,REF\u002A\u002A,1*%
G36*
X19165000Y11534000D02*
G01*
X19165000Y11034000D01*
X19164398Y11034000D01*
X19164398Y11009466D01*
X19159588Y10960635D01*
X19150016Y10912510D01*
X19135772Y10865555D01*
X19116995Y10820222D01*
X19093864Y10776949D01*
X19066604Y10736150D01*
X19035476Y10698221D01*
X19000779Y10663524D01*
X18962850Y10632396D01*
X18922051Y10605136D01*
X18878778Y10582005D01*
X18833445Y10563228D01*
X18786490Y10548984D01*
X18738365Y10539412D01*
X18689534Y10534602D01*
X18665000Y10534602D01*
X18665000Y10534000D01*
X18165000Y10534000D01*
X18165000Y10534602D01*
X18140466Y10534602D01*
X18091635Y10539412D01*
X18043510Y10548984D01*
X17996555Y10563228D01*
X17951222Y10582005D01*
X17907949Y10605136D01*
X17867150Y10632396D01*
X17829221Y10663524D01*
X17794524Y10698221D01*
X17763396Y10736150D01*
X17736136Y10776949D01*
X17713005Y10820222D01*
X17694228Y10865555D01*
X17679984Y10912510D01*
X17670412Y10960635D01*
X17665602Y11009466D01*
X17665602Y11034000D01*
X17665000Y11034000D01*
X17665000Y11534000D01*
X19165000Y11534000D01*
G37*
%TD.AperFunction*%
%TD*%
%TA.AperFunction,SMDPad,CuDef*%
%TO.P,REF\u002A\u002A,1*%
%TO.N,N/C*%
G36*
X21197000Y11534000D02*
G01*
X21197000Y11034000D01*
X21196398Y11034000D01*
X21196398Y11009466D01*
X21191588Y10960635D01*
X21182016Y10912510D01*
X21167772Y10865555D01*
X21148995Y10820222D01*
X21125864Y10776949D01*
X21098604Y10736150D01*
X21067476Y10698221D01*
X21032779Y10663524D01*
X20994850Y10632396D01*
X20954051Y10605136D01*
X20910778Y10582005D01*
X20865445Y10563228D01*
X20818490Y10548984D01*
X20770365Y10539412D01*
X20721534Y10534602D01*
X20697000Y10534602D01*
X20697000Y10534000D01*
X20197000Y10534000D01*
X20197000Y10534602D01*
X20172466Y10534602D01*
X20123635Y10539412D01*
X20075510Y10548984D01*
X20028555Y10563228D01*
X19983222Y10582005D01*
X19939949Y10605136D01*
X19899150Y10632396D01*
X19861221Y10663524D01*
X19826524Y10698221D01*
X19795396Y10736150D01*
X19768136Y10776949D01*
X19745005Y10820222D01*
X19726228Y10865555D01*
X19711984Y10912510D01*
X19702412Y10960635D01*
X19697602Y11009466D01*
X19697602Y11034000D01*
X19697000Y11034000D01*
X19697000Y11534000D01*
X21197000Y11534000D01*
G37*
%TD.AperFunction*%
%TA.AperFunction,SMDPad,CuDef*%
%TO.P,REF\u002A\u002A,2*%
G36*
X19697602Y12334000D02*
G01*
X19697602Y12358534D01*
X19702412Y12407365D01*
X19711984Y12455490D01*
X19726228Y12502445D01*
X19745005Y12547778D01*
X19768136Y12591051D01*
X19795396Y12631850D01*
X19826524Y12669779D01*
X19861221Y12704476D01*
X19899150Y12735604D01*
X19939949Y12762864D01*
X19983222Y12785995D01*
X20028555Y12804772D01*
X20075510Y12819016D01*
X20123635Y12828588D01*
X20172466Y12833398D01*
X20197000Y12833398D01*
X20197000Y12834000D01*
X20697000Y12834000D01*
X20697000Y12833398D01*
X20721534Y12833398D01*
X20770365Y12828588D01*
X20818490Y12819016D01*
X20865445Y12804772D01*
X20910778Y12785995D01*
X20954051Y12762864D01*
X20994850Y12735604D01*
X21032779Y12704476D01*
X21067476Y12669779D01*
X21098604Y12631850D01*
X21125864Y12591051D01*
X21148995Y12547778D01*
X21167772Y12502445D01*
X21182016Y12455490D01*
X21191588Y12407365D01*
X21196398Y12358534D01*
X21196398Y12334000D01*
X21197000Y12334000D01*
X21197000Y11834000D01*
X19697000Y11834000D01*
X19697000Y12334000D01*
X19697602Y12334000D01*
G37*
%TD.AperFunction*%
%TD*%
%TA.AperFunction,SMDPad,CuDef*%
%TO.P,REF\u002A\u002A,2*%
%TO.N,N/C*%
G36*
X19697602Y4714000D02*
G01*
X19697602Y4738534D01*
X19702412Y4787365D01*
X19711984Y4835490D01*
X19726228Y4882445D01*
X19745005Y4927778D01*
X19768136Y4971051D01*
X19795396Y5011850D01*
X19826524Y5049779D01*
X19861221Y5084476D01*
X19899150Y5115604D01*
X19939949Y5142864D01*
X19983222Y5165995D01*
X20028555Y5184772D01*
X20075510Y5199016D01*
X20123635Y5208588D01*
X20172466Y5213398D01*
X20197000Y5213398D01*
X20197000Y5214000D01*
X20697000Y5214000D01*
X20697000Y5213398D01*
X20721534Y5213398D01*
X20770365Y5208588D01*
X20818490Y5199016D01*
X20865445Y5184772D01*
X20910778Y5165995D01*
X20954051Y5142864D01*
X20994850Y5115604D01*
X21032779Y5084476D01*
X21067476Y5049779D01*
X21098604Y5011850D01*
X21125864Y4971051D01*
X21148995Y4927778D01*
X21167772Y4882445D01*
X21182016Y4835490D01*
X21191588Y4787365D01*
X21196398Y4738534D01*
X21196398Y4714000D01*
X21197000Y4714000D01*
X21197000Y4214000D01*
X19697000Y4214000D01*
X19697000Y4714000D01*
X19697602Y4714000D01*
G37*
%TD.AperFunction*%
%TA.AperFunction,SMDPad,CuDef*%
%TO.P,REF\u002A\u002A,1*%
G36*
X21197000Y3914000D02*
G01*
X21197000Y3414000D01*
X21196398Y3414000D01*
X21196398Y3389466D01*
X21191588Y3340635D01*
X21182016Y3292510D01*
X21167772Y3245555D01*
X21148995Y3200222D01*
X21125864Y3156949D01*
X21098604Y3116150D01*
X21067476Y3078221D01*
X21032779Y3043524D01*
X20994850Y3012396D01*
X20954051Y2985136D01*
X20910778Y2962005D01*
X20865445Y2943228D01*
X20818490Y2928984D01*
X20770365Y2919412D01*
X20721534Y2914602D01*
X20697000Y2914602D01*
X20697000Y2914000D01*
X20197000Y2914000D01*
X20197000Y2914602D01*
X20172466Y2914602D01*
X20123635Y2919412D01*
X20075510Y2928984D01*
X20028555Y2943228D01*
X19983222Y2962005D01*
X19939949Y2985136D01*
X19899150Y3012396D01*
X19861221Y3043524D01*
X19826524Y3078221D01*
X19795396Y3116150D01*
X19768136Y3156949D01*
X19745005Y3200222D01*
X19726228Y3245555D01*
X19711984Y3292510D01*
X19702412Y3340635D01*
X19697602Y3389466D01*
X19697602Y3414000D01*
X19697000Y3414000D01*
X19697000Y3914000D01*
X21197000Y3914000D01*
G37*
%TD.AperFunction*%
%TD*%
%TA.AperFunction,SMDPad,CuDef*%
%TO.P,REF\u002A\u002A,1*%
%TO.N,N/C*%
G36*
X19165000Y3914000D02*
G01*
X19165000Y3414000D01*
X19164398Y3414000D01*
X19164398Y3389466D01*
X19159588Y3340635D01*
X19150016Y3292510D01*
X19135772Y3245555D01*
X19116995Y3200222D01*
X19093864Y3156949D01*
X19066604Y3116150D01*
X19035476Y3078221D01*
X19000779Y3043524D01*
X18962850Y3012396D01*
X18922051Y2985136D01*
X18878778Y2962005D01*
X18833445Y2943228D01*
X18786490Y2928984D01*
X18738365Y2919412D01*
X18689534Y2914602D01*
X18665000Y2914602D01*
X18665000Y2914000D01*
X18165000Y2914000D01*
X18165000Y2914602D01*
X18140466Y2914602D01*
X18091635Y2919412D01*
X18043510Y2928984D01*
X17996555Y2943228D01*
X17951222Y2962005D01*
X17907949Y2985136D01*
X17867150Y3012396D01*
X17829221Y3043524D01*
X17794524Y3078221D01*
X17763396Y3116150D01*
X17736136Y3156949D01*
X17713005Y3200222D01*
X17694228Y3245555D01*
X17679984Y3292510D01*
X17670412Y3340635D01*
X17665602Y3389466D01*
X17665602Y3414000D01*
X17665000Y3414000D01*
X17665000Y3914000D01*
X19165000Y3914000D01*
G37*
%TD.AperFunction*%
%TA.AperFunction,SMDPad,CuDef*%
%TO.P,REF\u002A\u002A,2*%
G36*
X17665602Y4714000D02*
G01*
X17665602Y4738534D01*
X17670412Y4787365D01*
X17679984Y4835490D01*
X17694228Y4882445D01*
X17713005Y4927778D01*
X17736136Y4971051D01*
X17763396Y5011850D01*
X17794524Y5049779D01*
X17829221Y5084476D01*
X17867150Y5115604D01*
X17907949Y5142864D01*
X17951222Y5165995D01*
X17996555Y5184772D01*
X18043510Y5199016D01*
X18091635Y5208588D01*
X18140466Y5213398D01*
X18165000Y5213398D01*
X18165000Y5214000D01*
X18665000Y5214000D01*
X18665000Y5213398D01*
X18689534Y5213398D01*
X18738365Y5208588D01*
X18786490Y5199016D01*
X18833445Y5184772D01*
X18878778Y5165995D01*
X18922051Y5142864D01*
X18962850Y5115604D01*
X19000779Y5084476D01*
X19035476Y5049779D01*
X19066604Y5011850D01*
X19093864Y4971051D01*
X19116995Y4927778D01*
X19135772Y4882445D01*
X19150016Y4835490D01*
X19159588Y4787365D01*
X19164398Y4738534D01*
X19164398Y4714000D01*
X19165000Y4714000D01*
X19165000Y4214000D01*
X17665000Y4214000D01*
X17665000Y4714000D01*
X17665602Y4714000D01*
G37*
%TD.AperFunction*%
%TD*%
%TA.AperFunction,SMDPad,CuDef*%
%TO.P,REF\u002A\u002A,2*%
%TO.N,N/C*%
G36*
X15745602Y4714000D02*
G01*
X15745602Y4738534D01*
X15750412Y4787365D01*
X15759984Y4835490D01*
X15774228Y4882445D01*
X15793005Y4927778D01*
X15816136Y4971051D01*
X15843396Y5011850D01*
X15874524Y5049779D01*
X15909221Y5084476D01*
X15947150Y5115604D01*
X15987949Y5142864D01*
X16031222Y5165995D01*
X16076555Y5184772D01*
X16123510Y5199016D01*
X16171635Y5208588D01*
X16220466Y5213398D01*
X16245000Y5213398D01*
X16245000Y5214000D01*
X16745000Y5214000D01*
X16745000Y5213398D01*
X16769534Y5213398D01*
X16818365Y5208588D01*
X16866490Y5199016D01*
X16913445Y5184772D01*
X16958778Y5165995D01*
X17002051Y5142864D01*
X17042850Y5115604D01*
X17080779Y5084476D01*
X17115476Y5049779D01*
X17146604Y5011850D01*
X17173864Y4971051D01*
X17196995Y4927778D01*
X17215772Y4882445D01*
X17230016Y4835490D01*
X17239588Y4787365D01*
X17244398Y4738534D01*
X17244398Y4714000D01*
X17245000Y4714000D01*
X17245000Y4214000D01*
X15745000Y4214000D01*
X15745000Y4714000D01*
X15745602Y4714000D01*
G37*
%TD.AperFunction*%
%TA.AperFunction,SMDPad,CuDef*%
%TO.P,REF\u002A\u002A,1*%
G36*
X17245000Y3914000D02*
G01*
X17245000Y3414000D01*
X17244398Y3414000D01*
X17244398Y3389466D01*
X17239588Y3340635D01*
X17230016Y3292510D01*
X17215772Y3245555D01*
X17196995Y3200222D01*
X17173864Y3156949D01*
X17146604Y3116150D01*
X17115476Y3078221D01*
X17080779Y3043524D01*
X17042850Y3012396D01*
X17002051Y2985136D01*
X16958778Y2962005D01*
X16913445Y2943228D01*
X16866490Y2928984D01*
X16818365Y2919412D01*
X16769534Y2914602D01*
X16745000Y2914602D01*
X16745000Y2914000D01*
X16245000Y2914000D01*
X16245000Y2914602D01*
X16220466Y2914602D01*
X16171635Y2919412D01*
X16123510Y2928984D01*
X16076555Y2943228D01*
X16031222Y2962005D01*
X15987949Y2985136D01*
X15947150Y3012396D01*
X15909221Y3043524D01*
X15874524Y3078221D01*
X15843396Y3116150D01*
X15816136Y3156949D01*
X15793005Y3200222D01*
X15774228Y3245555D01*
X15759984Y3292510D01*
X15750412Y3340635D01*
X15745602Y3389466D01*
X15745602Y3414000D01*
X15745000Y3414000D01*
X15745000Y3914000D01*
X17245000Y3914000D01*
G37*
%TD.AperFunction*%
%TD*%
D13*
%TO.P,REF\u002A\u002A,2*%
%TO.N,N/C*%
X17653000Y22860000D03*
%TA.AperFunction,SMDPad,CuDef*%
D12*
%TO.P,REF\u002A\u002A,3*%
G36*
X18402398Y21560000D02*
G01*
X18402398Y21535466D01*
X18397588Y21486635D01*
X18388016Y21438510D01*
X18373772Y21391555D01*
X18354995Y21346222D01*
X18331864Y21302949D01*
X18304604Y21262150D01*
X18273476Y21224221D01*
X18238779Y21189524D01*
X18200850Y21158396D01*
X18160051Y21131136D01*
X18116778Y21108005D01*
X18071445Y21089228D01*
X18024490Y21074984D01*
X17976365Y21065412D01*
X17927534Y21060602D01*
X17903000Y21060602D01*
X17903000Y21060000D01*
X17403000Y21060000D01*
X17403000Y21060602D01*
X17378466Y21060602D01*
X17329635Y21065412D01*
X17281510Y21074984D01*
X17234555Y21089228D01*
X17189222Y21108005D01*
X17145949Y21131136D01*
X17105150Y21158396D01*
X17067221Y21189524D01*
X17032524Y21224221D01*
X17001396Y21262150D01*
X16974136Y21302949D01*
X16951005Y21346222D01*
X16932228Y21391555D01*
X16917984Y21438510D01*
X16908412Y21486635D01*
X16903602Y21535466D01*
X16903602Y21560000D01*
X16903000Y21560000D01*
X16903000Y22110000D01*
X18403000Y22110000D01*
X18403000Y21560000D01*
X18402398Y21560000D01*
G37*
%TD.AperFunction*%
%TA.AperFunction,SMDPad,CuDef*%
%TO.P,REF\u002A\u002A,1*%
G36*
X16903000Y23610000D02*
G01*
X16903000Y24160000D01*
X16903602Y24160000D01*
X16903602Y24184534D01*
X16908412Y24233365D01*
X16917984Y24281490D01*
X16932228Y24328445D01*
X16951005Y24373778D01*
X16974136Y24417051D01*
X17001396Y24457850D01*
X17032524Y24495779D01*
X17067221Y24530476D01*
X17105150Y24561604D01*
X17145949Y24588864D01*
X17189222Y24611995D01*
X17234555Y24630772D01*
X17281510Y24645016D01*
X17329635Y24654588D01*
X17378466Y24659398D01*
X17403000Y24659398D01*
X17403000Y24660000D01*
X17903000Y24660000D01*
X17903000Y24659398D01*
X17927534Y24659398D01*
X17976365Y24654588D01*
X18024490Y24645016D01*
X18071445Y24630772D01*
X18116778Y24611995D01*
X18160051Y24588864D01*
X18200850Y24561604D01*
X18238779Y24530476D01*
X18273476Y24495779D01*
X18304604Y24457850D01*
X18331864Y24417051D01*
X18354995Y24373778D01*
X18373772Y24328445D01*
X18388016Y24281490D01*
X18397588Y24233365D01*
X18402398Y24184534D01*
X18402398Y24160000D01*
X18403000Y24160000D01*
X18403000Y23610000D01*
X16903000Y23610000D01*
G37*
%TD.AperFunction*%
%TD*%
%TO.P,REF\u002A\u002A,1*%
%TO.N,N/C*%
%TA.AperFunction,ComponentPad*%
G36*
G01*
X15910000Y9534999D02*
X15910000Y10785001D01*
G75*
G02*
X16159999Y11035000I249999J0D01*
G01*
X16860001Y11035000D01*
G75*
G02*
X17110000Y10785001I0J-249999D01*
G01*
X17110000Y9534999D01*
G75*
G02*
X16860001Y9285000I-249999J0D01*
G01*
X16159999Y9285000D01*
G75*
G02*
X15910000Y9534999I0J249999D01*
G01*
G37*
%TD.AperFunction*%
D14*
%TO.P,REF\u002A\u002A,2*%
X18510000Y10160000D03*
%TO.P,REF\u002A\u002A,3*%
X20510000Y10160000D03*
%TO.P,REF\u002A\u002A,4*%
X22510000Y10160000D03*
%TD*%
%TO.P,REF\u002A\u002A,4*%
%TO.N,N/C*%
X22510000Y2540000D03*
%TO.P,REF\u002A\u002A,3*%
X20510000Y2540000D03*
%TO.P,REF\u002A\u002A,2*%
X18510000Y2540000D03*
%TO.P,REF\u002A\u002A,1*%
%TA.AperFunction,ComponentPad*%
G36*
G01*
X15910000Y1914999D02*
X15910000Y3165001D01*
G75*
G02*
X16159999Y3415000I249999J0D01*
G01*
X16860001Y3415000D01*
G75*
G02*
X17110000Y3165001I0J-249999D01*
G01*
X17110000Y1914999D01*
G75*
G02*
X16860001Y1665000I-249999J0D01*
G01*
X16159999Y1665000D01*
G75*
G02*
X15910000Y1914999I0J249999D01*
G01*
G37*
%TD.AperFunction*%
%TD*%
D15*
%TO.P,REF\u002A\u002A,1*%
%TO.N,N/C*%
X2540000Y24130000D03*
%TO.P,REF\u002A\u002A,2*%
X5080000Y24130000D03*
%TO.P,REF\u002A\u002A,3*%
X7620000Y24130000D03*
%TO.P,REF\u002A\u002A,4*%
X10160000Y24130000D03*
%TO.P,REF\u002A\u002A,5*%
X12700000Y24130000D03*
%TD*%
%TO.P,0,5*%
%TO.N,N/C*%
X12700000Y26670000D03*
%TO.P,0,4*%
X10160000Y26670000D03*
%TO.P,0,3*%
X7620000Y26670000D03*
%TO.P,0,2*%
X5080000Y26670000D03*
%TO.P,0,1*%
X2540000Y26670000D03*
%TD*%
%TO.P,REF\u002A\u002A,1*%
%TO.N,N/C*%
X2540000Y29210000D03*
%TO.P,REF\u002A\u002A,2*%
X5080000Y29210000D03*
%TO.P,REF\u002A\u002A,3*%
X7620000Y29210000D03*
%TO.P,REF\u002A\u002A,4*%
X10160000Y29210000D03*
%TO.P,REF\u002A\u002A,5*%
X12700000Y29210000D03*
%TD*%
%TO.P,REF\u002A\u002A,5*%
%TO.N,N/C*%
X12700000Y21590000D03*
%TO.P,REF\u002A\u002A,4*%
X10160000Y21590000D03*
%TO.P,REF\u002A\u002A,3*%
X7620000Y21590000D03*
%TO.P,REF\u002A\u002A,2*%
X5080000Y21590000D03*
%TO.P,REF\u002A\u002A,1*%
X2540000Y21590000D03*
%TD*%
%TO.P,1,1*%
%TO.N,N/C*%
X2540000Y19050000D03*
%TO.P,1,2*%
X5080000Y19050000D03*
%TO.P,1,3*%
X7620000Y19050000D03*
%TO.P,1,4*%
X10160000Y19050000D03*
%TO.P,1,5*%
X12700000Y19050000D03*
%TD*%
%TO.P,REF\u002A\u002A,5*%
%TO.N,N/C*%
X12700000Y16510000D03*
%TO.P,REF\u002A\u002A,4*%
X10160000Y16510000D03*
%TO.P,REF\u002A\u002A,3*%
X7620000Y16510000D03*
%TO.P,REF\u002A\u002A,2*%
X5080000Y16510000D03*
%TO.P,REF\u002A\u002A,1*%
X2540000Y16510000D03*
%TD*%
%TO.P,REF\u002A\u002A,1*%
%TO.N,N/C*%
X2540000Y13970000D03*
%TO.P,REF\u002A\u002A,2*%
X5080000Y13970000D03*
%TO.P,REF\u002A\u002A,3*%
X7620000Y13970000D03*
%TO.P,REF\u002A\u002A,4*%
X10160000Y13970000D03*
%TO.P,REF\u002A\u002A,5*%
X12700000Y13970000D03*
%TD*%
%TO.P,REF\u002A\u002A,1*%
%TO.N,N/C*%
X2540000Y8890000D03*
%TO.P,REF\u002A\u002A,2*%
X5080000Y8890000D03*
%TO.P,REF\u002A\u002A,3*%
X7620000Y8890000D03*
%TO.P,REF\u002A\u002A,4*%
X10160000Y8890000D03*
%TO.P,REF\u002A\u002A,5*%
X12700000Y8890000D03*
%TD*%
%TO.P,2,5*%
%TO.N,N/C*%
X12700000Y11430000D03*
%TO.P,2,4*%
X10160000Y11430000D03*
%TO.P,2,3*%
X7620000Y11430000D03*
%TO.P,2,2*%
X5080000Y11430000D03*
%TO.P,2,1*%
X2540000Y11430000D03*
%TD*%
%TO.P,REF\u002A\u002A,5*%
%TO.N,N/C*%
X12700000Y6350000D03*
%TO.P,REF\u002A\u002A,4*%
X10160000Y6350000D03*
%TO.P,REF\u002A\u002A,3*%
X7620000Y6350000D03*
%TO.P,REF\u002A\u002A,2*%
X5080000Y6350000D03*
%TO.P,REF\u002A\u002A,1*%
X2540000Y6350000D03*
%TD*%
%TO.P,3,1*%
%TO.N,N/C*%
X2540000Y3810000D03*
%TO.P,3,2*%
X5080000Y3810000D03*
%TO.P,3,3*%
X7620000Y3810000D03*
%TO.P,3,4*%
X10160000Y3810000D03*
%TO.P,3,5*%
X12700000Y3810000D03*
%TD*%
%TO.P,REF\u002A\u002A,5*%
%TO.N,N/C*%
X12700000Y1270000D03*
%TO.P,REF\u002A\u002A,4*%
X10160000Y1270000D03*
%TO.P,REF\u002A\u002A,3*%
X7620000Y1270000D03*
%TO.P,REF\u002A\u002A,2*%
X5080000Y1270000D03*
%TO.P,REF\u002A\u002A,1*%
X2540000Y1270000D03*
%TD*%
D16*
%TO.P,J1,1*%
%TO.N,GND*%
X19050000Y22860000D03*
%TO.P,J1,2*%
%TO.N,/12V_CONN*%
X22550000Y17860000D03*
%TD*%
D17*
%TO.N,*%
X16495000Y12334000D02*
X16495000Y13985000D01*
X16495000Y13985000D02*
X15240000Y15240000D01*
X15240000Y15240000D02*
X9652000Y15240000D01*
X9652000Y15240000D02*
X8890000Y16002000D01*
X8890000Y22860000D02*
X10160000Y24130000D01*
X8890000Y16002000D02*
X8890000Y22860000D01*
X18415000Y14351000D02*
X18415000Y12334000D01*
X16256000Y16510000D02*
X18415000Y14351000D01*
X18415000Y5588000D02*
X18415000Y4714000D01*
X17653000Y6350000D02*
X18415000Y5588000D01*
X16495000Y4714000D02*
X15352000Y4714000D01*
X15352000Y4714000D02*
X14986000Y5080000D01*
X14986000Y5080000D02*
X9525000Y5080000D01*
X9525000Y5080000D02*
X8890000Y5715000D01*
X8890000Y7620000D02*
X10160000Y8890000D01*
X8890000Y5715000D02*
X8890000Y7620000D01*
X10160000Y19050000D02*
X11430000Y17780000D01*
X14986000Y17780000D02*
X16256000Y16510000D01*
X11430000Y17780000D02*
X14986000Y17780000D01*
X10160000Y6350000D02*
X11430000Y7620000D01*
X16383000Y7620000D02*
X17653000Y6350000D01*
X11430000Y7620000D02*
X16383000Y7620000D01*
X17653000Y21560000D02*
X16921000Y21560000D01*
X16921000Y21560000D02*
X15875000Y22606000D01*
X15875000Y22606000D02*
X15875000Y26543000D01*
X15875000Y26543000D02*
X14351000Y28067000D01*
X14351000Y28067000D02*
X14351000Y29718000D01*
X14351000Y29718000D02*
X13462000Y30607000D01*
X6477000Y30607000D02*
X5080000Y29210000D01*
X13462000Y30607000D02*
X6477000Y30607000D01*
X17653000Y24160000D02*
X17653000Y25400000D01*
X17653000Y25400000D02*
X14859000Y28194000D01*
X14859000Y28194000D02*
X14859000Y29845000D01*
X14859000Y29845000D02*
X13589000Y31115000D01*
X4445000Y31115000D02*
X2540000Y29210000D01*
X13589000Y31115000D02*
X4445000Y31115000D01*
X21209000Y16480000D02*
X18953000Y16480000D01*
X18953000Y16480000D02*
X14097000Y21336000D01*
X14097000Y21336000D02*
X14097000Y24638000D01*
X14097000Y24638000D02*
X13335000Y25400000D01*
X3810000Y25400000D02*
X2540000Y24130000D01*
X13335000Y25400000D02*
X3810000Y25400000D01*
X21209000Y19080000D02*
X17877000Y19080000D01*
X17877000Y19080000D02*
X14986000Y21971000D01*
X14986000Y21971000D02*
X14986000Y25400000D01*
X13716000Y26670000D02*
X12700000Y26670000D01*
X14986000Y25400000D02*
X13716000Y26670000D01*
X6350000Y15240000D02*
X7620000Y16510000D01*
X21590000Y12065000D02*
X21590000Y9398000D01*
X6350000Y13208000D02*
X6350000Y15240000D01*
X6858000Y12700000D02*
X6350000Y13208000D01*
X14351000Y12700000D02*
X6858000Y12700000D01*
X14859000Y12192000D02*
X14351000Y12700000D01*
X15748000Y8890000D02*
X14859000Y9779000D01*
X21082000Y8890000D02*
X15748000Y8890000D01*
X21590000Y9398000D02*
X21082000Y8890000D01*
X14859000Y9779000D02*
X14859000Y12192000D01*
X21321000Y12334000D02*
X21590000Y12065000D01*
X20447000Y12334000D02*
X21321000Y12334000D01*
X20447000Y4714000D02*
X20447000Y6223000D01*
X20447000Y6223000D02*
X18415000Y8255000D01*
X18415000Y8255000D02*
X15367000Y8255000D01*
X15367000Y8255000D02*
X13462000Y10160000D01*
X13462000Y10160000D02*
X6858000Y10160000D01*
X6858000Y10160000D02*
X6350000Y9652000D01*
X6350000Y7620000D02*
X7620000Y6350000D01*
X6350000Y9652000D02*
X6350000Y7620000D01*
X24892000Y2779000D02*
X24653000Y2540000D01*
X24892000Y20701000D02*
X24892000Y2779000D01*
X24033000Y21560000D02*
X24892000Y20701000D01*
X17653000Y21560000D02*
X24033000Y21560000D01*
%TD*%
M02*
