%TF.GenerationSoftware,KiCad,Pcbnew,(5.1.6-0)*%
%TF.CreationDate,2022-05-02T22:38:42-07:00*%
%TF.ProjectId,rio-proto,72696f2d-7072-46f7-946f-2e6b69636164,rev?*%
%TF.SameCoordinates,PX87a6900PY757baf0*%
%TF.FileFunction,Legend,Top*%
%TF.FilePolarity,Positive*%
%FSLAX46Y46*%
G04 Gerber Fmt 4.6, Leading zero omitted, Abs format (unit mm)*
G04 Created by KiCad (PCBNEW (5.1.6-0)) date 2022-05-02 22:38:42*
%MOMM*%
%LPD*%
G01*
G04 APERTURE LIST*
%ADD10C,0.100000*%
%ADD11C,0.300000*%
%ADD12C,0.150000*%
%ADD13C,0.120000*%
%ADD14C,0.010000*%
G04 APERTURE END LIST*
D10*
G36*
X1397000Y1143000D02*
G01*
X127000Y1143000D01*
X127000Y7112000D01*
X1397000Y7112000D01*
X1397000Y1143000D01*
G37*
X1397000Y1143000D02*
X127000Y1143000D01*
X127000Y7112000D01*
X1397000Y7112000D01*
X1397000Y1143000D01*
G36*
X1397000Y8128000D02*
G01*
X127000Y8128000D01*
X127000Y14732000D01*
X1397000Y14732000D01*
X1397000Y8128000D01*
G37*
X1397000Y8128000D02*
X127000Y8128000D01*
X127000Y14732000D01*
X1397000Y14732000D01*
X1397000Y8128000D01*
G36*
X1397000Y15748000D02*
G01*
X127000Y15748000D01*
X127000Y22352000D01*
X1397000Y22352000D01*
X1397000Y15748000D01*
G37*
X1397000Y15748000D02*
X127000Y15748000D01*
X127000Y22352000D01*
X1397000Y22352000D01*
X1397000Y15748000D01*
G36*
X1397000Y23368000D02*
G01*
X127000Y23368000D01*
X127000Y29972000D01*
X1397000Y29972000D01*
X1397000Y23368000D01*
G37*
X1397000Y23368000D02*
X127000Y23368000D01*
X127000Y29972000D01*
X1397000Y29972000D01*
X1397000Y23368000D01*
G36*
X21082000Y4953000D02*
G01*
X14478000Y4953000D01*
X14478000Y6858000D01*
X21082000Y6858000D01*
X21082000Y4953000D01*
G37*
X21082000Y4953000D02*
X14478000Y4953000D01*
X14478000Y6858000D01*
X21082000Y6858000D01*
X21082000Y4953000D01*
G36*
X24130000Y30226000D02*
G01*
X1651000Y30226000D01*
X1651000Y31623000D01*
X24130000Y31623000D01*
X24130000Y30226000D01*
G37*
X24130000Y30226000D02*
X1651000Y30226000D01*
X1651000Y31623000D01*
X24130000Y31623000D01*
X24130000Y30226000D01*
D11*
X12700000Y1270000D02*
X12700000Y6350000D01*
X10160000Y1270000D02*
X10160000Y6350000D01*
X7620000Y1270000D02*
X7620000Y6350000D01*
X5080000Y1270000D02*
X5080000Y6350000D01*
X2540000Y1270000D02*
X2540000Y6350000D01*
X12700000Y8890000D02*
X12700000Y13970000D01*
X10160000Y8890000D02*
X10160000Y13970000D01*
X7620000Y8890000D02*
X7620000Y13970000D01*
X5080000Y8890000D02*
X5080000Y13970000D01*
X2540000Y8890000D02*
X2540000Y13970000D01*
X2540000Y16510000D02*
X2540000Y21590000D01*
X5080000Y16510000D02*
X5080000Y21590000D01*
X7620000Y16510000D02*
X7620000Y21590000D01*
X10160000Y16510000D02*
X10160000Y21590000D01*
X12700000Y16510000D02*
X12700000Y21590000D01*
X12700000Y24130000D02*
X12700000Y29210000D01*
X10160000Y24130000D02*
X10160000Y29210000D01*
X7620000Y24130000D02*
X7620000Y29210000D01*
X2540000Y24130000D02*
X2540000Y29210000D01*
X5080000Y24130000D02*
X5080000Y29210000D01*
D12*
X14279619Y28066048D02*
X14946285Y28066048D01*
X14755809Y28066048D02*
X14851047Y28018429D01*
X14898666Y27970810D01*
X14946285Y27875572D01*
X14946285Y27780334D01*
X14279619Y27304143D02*
X14327238Y27399381D01*
X14374857Y27447000D01*
X14470095Y27494620D01*
X14755809Y27494620D01*
X14851047Y27447000D01*
X14898666Y27399381D01*
X14946285Y27304143D01*
X14946285Y27161286D01*
X14898666Y27066048D01*
X14851047Y27018429D01*
X14755809Y26970810D01*
X14470095Y26970810D01*
X14374857Y27018429D01*
X14327238Y27066048D01*
X14279619Y27161286D01*
X14279619Y27304143D01*
X14279619Y26542239D02*
X15279619Y26542239D01*
X14898666Y26542239D02*
X14946285Y26447000D01*
X14946285Y26256524D01*
X14898666Y26161286D01*
X14851047Y26113667D01*
X14755809Y26066048D01*
X14470095Y26066048D01*
X14374857Y26113667D01*
X14327238Y26161286D01*
X14279619Y26256524D01*
X14279619Y26447000D01*
X14327238Y26542239D01*
X14279619Y25494620D02*
X14327238Y25589858D01*
X14374857Y25637477D01*
X14470095Y25685096D01*
X14755809Y25685096D01*
X14851047Y25637477D01*
X14898666Y25589858D01*
X14946285Y25494620D01*
X14946285Y25351762D01*
X14898666Y25256524D01*
X14851047Y25208905D01*
X14755809Y25161286D01*
X14470095Y25161286D01*
X14374857Y25208905D01*
X14327238Y25256524D01*
X14279619Y25351762D01*
X14279619Y25494620D01*
X14279619Y24161286D02*
X14755809Y24494620D01*
X14279619Y24732715D02*
X15279619Y24732715D01*
X15279619Y24351762D01*
X15232000Y24256524D01*
X15184380Y24208905D01*
X15089142Y24161286D01*
X14946285Y24161286D01*
X14851047Y24208905D01*
X14803428Y24256524D01*
X14755809Y24351762D01*
X14755809Y24732715D01*
X14279619Y23732715D02*
X15279619Y23732715D01*
X15279619Y23066048D02*
X15279619Y22875572D01*
X15232000Y22780334D01*
X15136761Y22685096D01*
X14946285Y22637477D01*
X14612952Y22637477D01*
X14422476Y22685096D01*
X14327238Y22780334D01*
X14279619Y22875572D01*
X14279619Y23066048D01*
X14327238Y23161286D01*
X14422476Y23256524D01*
X14612952Y23304143D01*
X14946285Y23304143D01*
X15136761Y23256524D01*
X15232000Y23161286D01*
X15279619Y23066048D01*
X14279619Y21447000D02*
X15279619Y21447000D01*
X15279619Y21066048D01*
X15232000Y20970810D01*
X15184380Y20923191D01*
X15089142Y20875572D01*
X14946285Y20875572D01*
X14851047Y20923191D01*
X14803428Y20970810D01*
X14755809Y21066048D01*
X14755809Y21447000D01*
X14279619Y20447000D02*
X14946285Y20447000D01*
X14755809Y20447000D02*
X14851047Y20399381D01*
X14898666Y20351762D01*
X14946285Y20256524D01*
X14946285Y20161286D01*
X14279619Y19685096D02*
X14327238Y19780334D01*
X14374857Y19827953D01*
X14470095Y19875572D01*
X14755809Y19875572D01*
X14851047Y19827953D01*
X14898666Y19780334D01*
X14946285Y19685096D01*
X14946285Y19542239D01*
X14898666Y19447000D01*
X14851047Y19399381D01*
X14755809Y19351762D01*
X14470095Y19351762D01*
X14374857Y19399381D01*
X14327238Y19447000D01*
X14279619Y19542239D01*
X14279619Y19685096D01*
X14946285Y19066048D02*
X14946285Y18685096D01*
X15279619Y18923191D02*
X14422476Y18923191D01*
X14327238Y18875572D01*
X14279619Y18780334D01*
X14279619Y18685096D01*
X14279619Y18208905D02*
X14327238Y18304143D01*
X14374857Y18351762D01*
X14470095Y18399381D01*
X14755809Y18399381D01*
X14851047Y18351762D01*
X14898666Y18304143D01*
X14946285Y18208905D01*
X14946285Y18066048D01*
X14898666Y17970810D01*
X14851047Y17923191D01*
X14755809Y17875572D01*
X14470095Y17875572D01*
X14374857Y17923191D01*
X14327238Y17970810D01*
X14279619Y18066048D01*
X14279619Y18208905D01*
X14803428Y16351762D02*
X14755809Y16208905D01*
X14708190Y16161286D01*
X14612952Y16113667D01*
X14470095Y16113667D01*
X14374857Y16161286D01*
X14327238Y16208905D01*
X14279619Y16304143D01*
X14279619Y16685096D01*
X15279619Y16685096D01*
X15279619Y16351762D01*
X15232000Y16256524D01*
X15184380Y16208905D01*
X15089142Y16161286D01*
X14993904Y16161286D01*
X14898666Y16208905D01*
X14851047Y16256524D01*
X14803428Y16351762D01*
X14803428Y16685096D01*
X14279619Y15542239D02*
X14327238Y15637477D01*
X14374857Y15685096D01*
X14470095Y15732715D01*
X14755809Y15732715D01*
X14851047Y15685096D01*
X14898666Y15637477D01*
X14946285Y15542239D01*
X14946285Y15399381D01*
X14898666Y15304143D01*
X14851047Y15256524D01*
X14755809Y15208905D01*
X14470095Y15208905D01*
X14374857Y15256524D01*
X14327238Y15304143D01*
X14279619Y15399381D01*
X14279619Y15542239D01*
X14279619Y14351762D02*
X14803428Y14351762D01*
X14898666Y14399381D01*
X14946285Y14494620D01*
X14946285Y14685096D01*
X14898666Y14780334D01*
X14327238Y14351762D02*
X14279619Y14447000D01*
X14279619Y14685096D01*
X14327238Y14780334D01*
X14422476Y14827953D01*
X14517714Y14827953D01*
X14612952Y14780334D01*
X14660571Y14685096D01*
X14660571Y14447000D01*
X14708190Y14351762D01*
X14279619Y13875572D02*
X14946285Y13875572D01*
X14755809Y13875572D02*
X14851047Y13827953D01*
X14898666Y13780334D01*
X14946285Y13685096D01*
X14946285Y13589858D01*
X14279619Y12827953D02*
X15279619Y12827953D01*
X14327238Y12827953D02*
X14279619Y12923191D01*
X14279619Y13113667D01*
X14327238Y13208905D01*
X14374857Y13256524D01*
X14470095Y13304143D01*
X14755809Y13304143D01*
X14851047Y13256524D01*
X14898666Y13208905D01*
X14946285Y13113667D01*
X14946285Y12923191D01*
X14898666Y12827953D01*
D13*
%TO.C,REF\u002A\u002A*%
X13000000Y6220000D02*
X12400000Y6220000D01*
X13700000Y8320000D02*
X13700000Y6920000D01*
X12400000Y9020000D02*
X13000000Y9020000D01*
X11700000Y6920000D02*
X11700000Y8320000D01*
X11700000Y8320000D02*
G75*
G02*
X12400000Y9020000I700000J0D01*
G01*
X13000000Y9020000D02*
G75*
G02*
X13700000Y8320000I0J-700000D01*
G01*
X13700000Y6920000D02*
G75*
G02*
X13000000Y6220000I-700000J0D01*
G01*
X12400000Y6220000D02*
G75*
G02*
X11700000Y6920000I0J700000D01*
G01*
X9160000Y6920000D02*
X9160000Y8320000D01*
X9860000Y9020000D02*
X10460000Y9020000D01*
X11160000Y8320000D02*
X11160000Y6920000D01*
X10460000Y6220000D02*
X9860000Y6220000D01*
X9860000Y6220000D02*
G75*
G02*
X9160000Y6920000I0J700000D01*
G01*
X11160000Y6920000D02*
G75*
G02*
X10460000Y6220000I-700000J0D01*
G01*
X10460000Y9020000D02*
G75*
G02*
X11160000Y8320000I0J-700000D01*
G01*
X9160000Y8320000D02*
G75*
G02*
X9860000Y9020000I700000J0D01*
G01*
X7920000Y6220000D02*
X7320000Y6220000D01*
X8620000Y8320000D02*
X8620000Y6920000D01*
X7320000Y9020000D02*
X7920000Y9020000D01*
X6620000Y6920000D02*
X6620000Y8320000D01*
X6620000Y8320000D02*
G75*
G02*
X7320000Y9020000I700000J0D01*
G01*
X7920000Y9020000D02*
G75*
G02*
X8620000Y8320000I0J-700000D01*
G01*
X8620000Y6920000D02*
G75*
G02*
X7920000Y6220000I-700000J0D01*
G01*
X7320000Y6220000D02*
G75*
G02*
X6620000Y6920000I0J700000D01*
G01*
X4080000Y6920000D02*
X4080000Y8320000D01*
X4780000Y9020000D02*
X5380000Y9020000D01*
X6080000Y8320000D02*
X6080000Y6920000D01*
X5380000Y6220000D02*
X4780000Y6220000D01*
X4780000Y6220000D02*
G75*
G02*
X4080000Y6920000I0J700000D01*
G01*
X6080000Y6920000D02*
G75*
G02*
X5380000Y6220000I-700000J0D01*
G01*
X5380000Y9020000D02*
G75*
G02*
X6080000Y8320000I0J-700000D01*
G01*
X4080000Y8320000D02*
G75*
G02*
X4780000Y9020000I700000J0D01*
G01*
X2840000Y6220000D02*
X2240000Y6220000D01*
X3540000Y8320000D02*
X3540000Y6920000D01*
X2240000Y9020000D02*
X2840000Y9020000D01*
X1540000Y6920000D02*
X1540000Y8320000D01*
X1540000Y8320000D02*
G75*
G02*
X2240000Y9020000I700000J0D01*
G01*
X2840000Y9020000D02*
G75*
G02*
X3540000Y8320000I0J-700000D01*
G01*
X3540000Y6920000D02*
G75*
G02*
X2840000Y6220000I-700000J0D01*
G01*
X2240000Y6220000D02*
G75*
G02*
X1540000Y6920000I0J700000D01*
G01*
X11700000Y14540000D02*
X11700000Y15940000D01*
X12400000Y16640000D02*
X13000000Y16640000D01*
X13700000Y15940000D02*
X13700000Y14540000D01*
X13000000Y13840000D02*
X12400000Y13840000D01*
X12400000Y13840000D02*
G75*
G02*
X11700000Y14540000I0J700000D01*
G01*
X13700000Y14540000D02*
G75*
G02*
X13000000Y13840000I-700000J0D01*
G01*
X13000000Y16640000D02*
G75*
G02*
X13700000Y15940000I0J-700000D01*
G01*
X11700000Y15940000D02*
G75*
G02*
X12400000Y16640000I700000J0D01*
G01*
X10460000Y13840000D02*
X9860000Y13840000D01*
X11160000Y15940000D02*
X11160000Y14540000D01*
X9860000Y16640000D02*
X10460000Y16640000D01*
X9160000Y14540000D02*
X9160000Y15940000D01*
X9160000Y15940000D02*
G75*
G02*
X9860000Y16640000I700000J0D01*
G01*
X10460000Y16640000D02*
G75*
G02*
X11160000Y15940000I0J-700000D01*
G01*
X11160000Y14540000D02*
G75*
G02*
X10460000Y13840000I-700000J0D01*
G01*
X9860000Y13840000D02*
G75*
G02*
X9160000Y14540000I0J700000D01*
G01*
X6620000Y14540000D02*
X6620000Y15940000D01*
X7320000Y16640000D02*
X7920000Y16640000D01*
X8620000Y15940000D02*
X8620000Y14540000D01*
X7920000Y13840000D02*
X7320000Y13840000D01*
X7320000Y13840000D02*
G75*
G02*
X6620000Y14540000I0J700000D01*
G01*
X8620000Y14540000D02*
G75*
G02*
X7920000Y13840000I-700000J0D01*
G01*
X7920000Y16640000D02*
G75*
G02*
X8620000Y15940000I0J-700000D01*
G01*
X6620000Y15940000D02*
G75*
G02*
X7320000Y16640000I700000J0D01*
G01*
X5380000Y13840000D02*
X4780000Y13840000D01*
X6080000Y15940000D02*
X6080000Y14540000D01*
X4780000Y16640000D02*
X5380000Y16640000D01*
X4080000Y14540000D02*
X4080000Y15940000D01*
X4080000Y15940000D02*
G75*
G02*
X4780000Y16640000I700000J0D01*
G01*
X5380000Y16640000D02*
G75*
G02*
X6080000Y15940000I0J-700000D01*
G01*
X6080000Y14540000D02*
G75*
G02*
X5380000Y13840000I-700000J0D01*
G01*
X4780000Y13840000D02*
G75*
G02*
X4080000Y14540000I0J700000D01*
G01*
X1540000Y14540000D02*
X1540000Y15940000D01*
X2240000Y16640000D02*
X2840000Y16640000D01*
X3540000Y15940000D02*
X3540000Y14540000D01*
X2840000Y13840000D02*
X2240000Y13840000D01*
X2240000Y13840000D02*
G75*
G02*
X1540000Y14540000I0J700000D01*
G01*
X3540000Y14540000D02*
G75*
G02*
X2840000Y13840000I-700000J0D01*
G01*
X2840000Y16640000D02*
G75*
G02*
X3540000Y15940000I0J-700000D01*
G01*
X1540000Y15940000D02*
G75*
G02*
X2240000Y16640000I700000J0D01*
G01*
X13000000Y21460000D02*
X12400000Y21460000D01*
X13700000Y23560000D02*
X13700000Y22160000D01*
X12400000Y24260000D02*
X13000000Y24260000D01*
X11700000Y22160000D02*
X11700000Y23560000D01*
X11700000Y23560000D02*
G75*
G02*
X12400000Y24260000I700000J0D01*
G01*
X13000000Y24260000D02*
G75*
G02*
X13700000Y23560000I0J-700000D01*
G01*
X13700000Y22160000D02*
G75*
G02*
X13000000Y21460000I-700000J0D01*
G01*
X12400000Y21460000D02*
G75*
G02*
X11700000Y22160000I0J700000D01*
G01*
X9160000Y22160000D02*
X9160000Y23560000D01*
X9860000Y24260000D02*
X10460000Y24260000D01*
X11160000Y23560000D02*
X11160000Y22160000D01*
X10460000Y21460000D02*
X9860000Y21460000D01*
X9860000Y21460000D02*
G75*
G02*
X9160000Y22160000I0J700000D01*
G01*
X11160000Y22160000D02*
G75*
G02*
X10460000Y21460000I-700000J0D01*
G01*
X10460000Y24260000D02*
G75*
G02*
X11160000Y23560000I0J-700000D01*
G01*
X9160000Y23560000D02*
G75*
G02*
X9860000Y24260000I700000J0D01*
G01*
X7920000Y21460000D02*
X7320000Y21460000D01*
X8620000Y23560000D02*
X8620000Y22160000D01*
X7320000Y24260000D02*
X7920000Y24260000D01*
X6620000Y22160000D02*
X6620000Y23560000D01*
X6620000Y23560000D02*
G75*
G02*
X7320000Y24260000I700000J0D01*
G01*
X7920000Y24260000D02*
G75*
G02*
X8620000Y23560000I0J-700000D01*
G01*
X8620000Y22160000D02*
G75*
G02*
X7920000Y21460000I-700000J0D01*
G01*
X7320000Y21460000D02*
G75*
G02*
X6620000Y22160000I0J700000D01*
G01*
X5380000Y21460000D02*
X4780000Y21460000D01*
X6080000Y23560000D02*
X6080000Y22160000D01*
X4780000Y24260000D02*
X5380000Y24260000D01*
X4080000Y22160000D02*
X4080000Y23560000D01*
X4080000Y23560000D02*
G75*
G02*
X4780000Y24260000I700000J0D01*
G01*
X5380000Y24260000D02*
G75*
G02*
X6080000Y23560000I0J-700000D01*
G01*
X6080000Y22160000D02*
G75*
G02*
X5380000Y21460000I-700000J0D01*
G01*
X4780000Y21460000D02*
G75*
G02*
X4080000Y22160000I0J700000D01*
G01*
X1540000Y22160000D02*
X1540000Y23560000D01*
X2240000Y24260000D02*
X2840000Y24260000D01*
X3540000Y23560000D02*
X3540000Y22160000D01*
X2840000Y21460000D02*
X2240000Y21460000D01*
X2240000Y21460000D02*
G75*
G02*
X1540000Y22160000I0J700000D01*
G01*
X3540000Y22160000D02*
G75*
G02*
X2840000Y21460000I-700000J0D01*
G01*
X2840000Y24260000D02*
G75*
G02*
X3540000Y23560000I0J-700000D01*
G01*
X1540000Y23560000D02*
G75*
G02*
X2240000Y24260000I700000J0D01*
G01*
D14*
%TO.C,G\u002A\u002A\u002A*%
G36*
X19375412Y14231950D02*
G01*
X19361237Y14227045D01*
X19337648Y14230380D01*
X19325404Y14234098D01*
X19288072Y14250752D01*
X19250952Y14274245D01*
X19218978Y14301218D01*
X19206251Y14315223D01*
X19195353Y14329419D01*
X19179646Y14350779D01*
X19160709Y14377058D01*
X19140120Y14406015D01*
X19119458Y14435405D01*
X19100303Y14462986D01*
X19084232Y14486514D01*
X19072827Y14503747D01*
X19068204Y14511338D01*
X19065311Y14520286D01*
X19066898Y14522450D01*
X19074455Y14519116D01*
X19088321Y14510663D01*
X19096242Y14505334D01*
X19120942Y14488217D01*
X19141034Y14511110D01*
X19166650Y14535976D01*
X19192816Y14551189D01*
X19223854Y14559224D01*
X19225480Y14559463D01*
X19243616Y14562621D01*
X19253373Y14567800D01*
X19258670Y14578699D01*
X19262391Y14594300D01*
X19267334Y14611879D01*
X19272527Y14622872D01*
X19274989Y14624742D01*
X19277924Y14618879D01*
X19283545Y14602525D01*
X19291353Y14577485D01*
X19300850Y14545563D01*
X19311536Y14508563D01*
X19322912Y14468288D01*
X19334479Y14426543D01*
X19345739Y14385131D01*
X19356192Y14345856D01*
X19365339Y14310523D01*
X19372681Y14280935D01*
X19377720Y14258896D01*
X19379955Y14246210D01*
X19380021Y14245066D01*
X19375412Y14231950D01*
G37*
X19375412Y14231950D02*
X19361237Y14227045D01*
X19337648Y14230380D01*
X19325404Y14234098D01*
X19288072Y14250752D01*
X19250952Y14274245D01*
X19218978Y14301218D01*
X19206251Y14315223D01*
X19195353Y14329419D01*
X19179646Y14350779D01*
X19160709Y14377058D01*
X19140120Y14406015D01*
X19119458Y14435405D01*
X19100303Y14462986D01*
X19084232Y14486514D01*
X19072827Y14503747D01*
X19068204Y14511338D01*
X19065311Y14520286D01*
X19066898Y14522450D01*
X19074455Y14519116D01*
X19088321Y14510663D01*
X19096242Y14505334D01*
X19120942Y14488217D01*
X19141034Y14511110D01*
X19166650Y14535976D01*
X19192816Y14551189D01*
X19223854Y14559224D01*
X19225480Y14559463D01*
X19243616Y14562621D01*
X19253373Y14567800D01*
X19258670Y14578699D01*
X19262391Y14594300D01*
X19267334Y14611879D01*
X19272527Y14622872D01*
X19274989Y14624742D01*
X19277924Y14618879D01*
X19283545Y14602525D01*
X19291353Y14577485D01*
X19300850Y14545563D01*
X19311536Y14508563D01*
X19322912Y14468288D01*
X19334479Y14426543D01*
X19345739Y14385131D01*
X19356192Y14345856D01*
X19365339Y14310523D01*
X19372681Y14280935D01*
X19377720Y14258896D01*
X19379955Y14246210D01*
X19380021Y14245066D01*
X19375412Y14231950D01*
G36*
X19204258Y13505757D02*
G01*
X19197000Y13508661D01*
X19182380Y13517291D01*
X19159270Y13532214D01*
X19136897Y13547066D01*
X19101040Y13570638D01*
X19059146Y13597593D01*
X19016091Y13624824D01*
X18976753Y13649224D01*
X18971713Y13652302D01*
X18938485Y13672807D01*
X18914776Y13688208D01*
X18899079Y13699697D01*
X18889884Y13708467D01*
X18885683Y13715711D01*
X18884900Y13720916D01*
X18883298Y13737258D01*
X18878785Y13763952D01*
X18871805Y13799100D01*
X18862800Y13840804D01*
X18852212Y13887167D01*
X18840486Y13936290D01*
X18828062Y13986275D01*
X18815384Y14035226D01*
X18802895Y14081244D01*
X18791992Y14119225D01*
X18790837Y14127465D01*
X18794847Y14125575D01*
X18800219Y14117663D01*
X18809881Y14100890D01*
X18822438Y14077753D01*
X18835841Y14052040D01*
X18857313Y14006052D01*
X18878622Y13953231D01*
X18898337Y13897697D01*
X18915025Y13843573D01*
X18927252Y13794982D01*
X18930026Y13781070D01*
X18934696Y13757254D01*
X18939612Y13741936D01*
X18947293Y13731117D01*
X18960256Y13720798D01*
X18973594Y13711880D01*
X19014122Y13683704D01*
X19055718Y13652139D01*
X19096276Y13619005D01*
X19133694Y13586124D01*
X19165867Y13555319D01*
X19190690Y13528409D01*
X19201190Y13514877D01*
X19205279Y13508017D01*
X19204258Y13505757D01*
G37*
X19204258Y13505757D02*
X19197000Y13508661D01*
X19182380Y13517291D01*
X19159270Y13532214D01*
X19136897Y13547066D01*
X19101040Y13570638D01*
X19059146Y13597593D01*
X19016091Y13624824D01*
X18976753Y13649224D01*
X18971713Y13652302D01*
X18938485Y13672807D01*
X18914776Y13688208D01*
X18899079Y13699697D01*
X18889884Y13708467D01*
X18885683Y13715711D01*
X18884900Y13720916D01*
X18883298Y13737258D01*
X18878785Y13763952D01*
X18871805Y13799100D01*
X18862800Y13840804D01*
X18852212Y13887167D01*
X18840486Y13936290D01*
X18828062Y13986275D01*
X18815384Y14035226D01*
X18802895Y14081244D01*
X18791992Y14119225D01*
X18790837Y14127465D01*
X18794847Y14125575D01*
X18800219Y14117663D01*
X18809881Y14100890D01*
X18822438Y14077753D01*
X18835841Y14052040D01*
X18857313Y14006052D01*
X18878622Y13953231D01*
X18898337Y13897697D01*
X18915025Y13843573D01*
X18927252Y13794982D01*
X18930026Y13781070D01*
X18934696Y13757254D01*
X18939612Y13741936D01*
X18947293Y13731117D01*
X18960256Y13720798D01*
X18973594Y13711880D01*
X19014122Y13683704D01*
X19055718Y13652139D01*
X19096276Y13619005D01*
X19133694Y13586124D01*
X19165867Y13555319D01*
X19190690Y13528409D01*
X19201190Y13514877D01*
X19205279Y13508017D01*
X19204258Y13505757D01*
G36*
X18951695Y14764221D02*
G01*
X18943781Y14747733D01*
X18932891Y14727369D01*
X18920906Y14706573D01*
X18909706Y14688790D01*
X18904637Y14681638D01*
X18882275Y14657933D01*
X18852498Y14634028D01*
X18819815Y14613048D01*
X18788737Y14598117D01*
X18779734Y14595089D01*
X18752689Y14589585D01*
X18723502Y14587058D01*
X18712228Y14587193D01*
X18678525Y14589125D01*
X18711736Y14597617D01*
X18746565Y14610680D01*
X18782980Y14631203D01*
X18816118Y14656052D01*
X18839440Y14679924D01*
X18852494Y14698328D01*
X18866521Y14721102D01*
X18879737Y14744939D01*
X18890357Y14766532D01*
X18896598Y14782575D01*
X18897520Y14787563D01*
X18901738Y14794941D01*
X18904154Y14795500D01*
X18914466Y14793210D01*
X18929232Y14787709D01*
X18943746Y14781054D01*
X18953302Y14775303D01*
X18954750Y14773388D01*
X18951695Y14764221D01*
G37*
X18951695Y14764221D02*
X18943781Y14747733D01*
X18932891Y14727369D01*
X18920906Y14706573D01*
X18909706Y14688790D01*
X18904637Y14681638D01*
X18882275Y14657933D01*
X18852498Y14634028D01*
X18819815Y14613048D01*
X18788737Y14598117D01*
X18779734Y14595089D01*
X18752689Y14589585D01*
X18723502Y14587058D01*
X18712228Y14587193D01*
X18678525Y14589125D01*
X18711736Y14597617D01*
X18746565Y14610680D01*
X18782980Y14631203D01*
X18816118Y14656052D01*
X18839440Y14679924D01*
X18852494Y14698328D01*
X18866521Y14721102D01*
X18879737Y14744939D01*
X18890357Y14766532D01*
X18896598Y14782575D01*
X18897520Y14787563D01*
X18901738Y14794941D01*
X18904154Y14795500D01*
X18914466Y14793210D01*
X18929232Y14787709D01*
X18943746Y14781054D01*
X18953302Y14775303D01*
X18954750Y14773388D01*
X18951695Y14764221D01*
G36*
X19874862Y12814466D02*
G01*
X19864599Y12673574D01*
X19848797Y12541390D01*
X19841800Y12496732D01*
X19836151Y12468138D01*
X19829286Y12450411D01*
X19819075Y12442587D01*
X19803387Y12443700D01*
X19780092Y12452784D01*
X19762932Y12460992D01*
X19705507Y12492531D01*
X19647257Y12530561D01*
X19590462Y12573184D01*
X19537401Y12618499D01*
X19490356Y12664606D01*
X19451604Y12709607D01*
X19432705Y12736176D01*
X19409904Y12779163D01*
X19389602Y12833078D01*
X19372350Y12896301D01*
X19363090Y12941300D01*
X19357886Y12978227D01*
X19354183Y13021777D01*
X19351979Y13069203D01*
X19351270Y13117757D01*
X19352056Y13164692D01*
X19354333Y13207261D01*
X19358100Y13242714D01*
X19363354Y13268306D01*
X19363360Y13268325D01*
X19374617Y13297577D01*
X19387883Y13319667D01*
X19401716Y13332543D01*
X19410154Y13335000D01*
X19418958Y13330909D01*
X19433531Y13320207D01*
X19449947Y13305908D01*
X19476501Y13275131D01*
X19502474Y13233838D01*
X19526852Y13184205D01*
X19548621Y13128406D01*
X19566766Y13068619D01*
X19573503Y13040889D01*
X19577601Y13019046D01*
X19581276Y12993335D01*
X19584160Y12967361D01*
X19585884Y12944724D01*
X19586079Y12929025D01*
X19585399Y12924649D01*
X19576800Y12917075D01*
X19562593Y12918076D01*
X19549446Y12925191D01*
X19534270Y12931100D01*
X19521840Y12925763D01*
X19517284Y12918241D01*
X19518230Y12905218D01*
X19527304Y12882876D01*
X19544349Y12851521D01*
X19569207Y12811458D01*
X19583035Y12790468D01*
X19611079Y12750943D01*
X19634786Y12722948D01*
X19654570Y12706236D01*
X19670847Y12700559D01*
X19684028Y12705670D01*
X19694529Y12721319D01*
X19695362Y12723248D01*
X19704661Y12749574D01*
X19712094Y12780352D01*
X19717872Y12817252D01*
X19722206Y12861941D01*
X19725306Y12916088D01*
X19727261Y12976225D01*
X19728242Y13049507D01*
X19727071Y13112236D01*
X19723285Y13166448D01*
X19716422Y13214177D01*
X19706020Y13257458D01*
X19691616Y13298326D01*
X19672749Y13338816D01*
X19648957Y13380961D01*
X19627640Y13414823D01*
X19588977Y13475956D01*
X19558562Y13527889D01*
X19536238Y13570941D01*
X19521846Y13605432D01*
X19515228Y13631681D01*
X19514834Y13642586D01*
X19518877Y13661796D01*
X19527804Y13669930D01*
X19542294Y13667133D01*
X19563024Y13653549D01*
X19563685Y13653028D01*
X19584200Y13638838D01*
X19609157Y13624319D01*
X19622353Y13617686D01*
X19648734Y13606514D01*
X19667707Y13602043D01*
X19680280Y13605357D01*
X19687459Y13617539D01*
X19690253Y13639674D01*
X19689667Y13672845D01*
X19688734Y13689112D01*
X19684410Y13745432D01*
X19678302Y13808396D01*
X19670737Y13875656D01*
X19662043Y13944864D01*
X19652546Y14013672D01*
X19642574Y14079732D01*
X19632454Y14140695D01*
X19622515Y14194214D01*
X19613082Y14237941D01*
X19611069Y14246169D01*
X19588597Y14324145D01*
X19561433Y14396429D01*
X19528529Y14464660D01*
X19488832Y14530475D01*
X19441294Y14595512D01*
X19384864Y14661408D01*
X19318492Y14729802D01*
X19273402Y14772772D01*
X19226804Y14816855D01*
X19188097Y14855419D01*
X19155214Y14890823D01*
X19126086Y14925429D01*
X19098645Y14961597D01*
X19070823Y15001687D01*
X19064359Y15011400D01*
X19025857Y15068655D01*
X18991742Y15116867D01*
X18960181Y15158063D01*
X18929340Y15194272D01*
X18897386Y15227525D01*
X18862487Y15259849D01*
X18822809Y15293273D01*
X18776950Y15329492D01*
X18736295Y15360392D01*
X18704039Y15383667D01*
X18679041Y15400072D01*
X18660159Y15410363D01*
X18647750Y15414948D01*
X18636967Y15416324D01*
X18632087Y15412834D01*
X18633452Y15403311D01*
X18641401Y15386589D01*
X18656274Y15361500D01*
X18669293Y15340966D01*
X18686498Y15313541D01*
X18702431Y15286948D01*
X18714963Y15264802D01*
X18720558Y15253909D01*
X18733430Y15226543D01*
X18717094Y15205126D01*
X18701897Y15188088D01*
X18687536Y15180412D01*
X18670953Y15181826D01*
X18649087Y15192056D01*
X18638880Y15198122D01*
X18587308Y15223379D01*
X18535497Y15236106D01*
X18483887Y15236274D01*
X18432917Y15223851D01*
X18410464Y15214221D01*
X18371146Y15189733D01*
X18342457Y15159395D01*
X18323962Y15122386D01*
X18315226Y15077884D01*
X18315103Y15034238D01*
X18324141Y14975438D01*
X18343873Y14913841D01*
X18374551Y14848914D01*
X18416427Y14780122D01*
X18469754Y14706932D01*
X18469782Y14706897D01*
X18509923Y14653466D01*
X18541462Y14606518D01*
X18565487Y14564326D01*
X18581440Y14529348D01*
X18589068Y14502642D01*
X18594148Y14469329D01*
X18596620Y14432932D01*
X18596422Y14396973D01*
X18593495Y14364976D01*
X18587778Y14340463D01*
X18584804Y14333739D01*
X18571365Y14315450D01*
X18548672Y14291709D01*
X18518288Y14263713D01*
X18481779Y14232659D01*
X18440711Y14199745D01*
X18396647Y14166168D01*
X18351153Y14133125D01*
X18305795Y14101813D01*
X18262137Y14073430D01*
X18221744Y14049174D01*
X18191564Y14032904D01*
X18138200Y14009299D01*
X18090200Y13995237D01*
X18045247Y13990149D01*
X18021250Y13990946D01*
X17976241Y13997267D01*
X17938031Y14008871D01*
X17905241Y14026990D01*
X17876488Y14052855D01*
X17850392Y14087698D01*
X17825571Y14132749D01*
X17801705Y14186637D01*
X17785224Y14226477D01*
X17771972Y14256854D01*
X17760605Y14280152D01*
X17749779Y14298754D01*
X17738150Y14315046D01*
X17724374Y14331412D01*
X17713160Y14343728D01*
X17682204Y14373818D01*
X17653576Y14393555D01*
X17624503Y14404221D01*
X17592213Y14407094D01*
X17577507Y14406325D01*
X17523668Y14397013D01*
X17478673Y14378743D01*
X17442190Y14351338D01*
X17417383Y14320350D01*
X17404275Y14291887D01*
X17398681Y14261965D01*
X17401130Y14234840D01*
X17405408Y14223892D01*
X17413093Y14215572D01*
X17428950Y14202291D01*
X17450513Y14186019D01*
X17470496Y14171978D01*
X17498424Y14151294D01*
X17531476Y14124176D01*
X17566211Y14093566D01*
X17599187Y14062406D01*
X17602674Y14058956D01*
X17641976Y14018140D01*
X17677337Y13977328D01*
X17709709Y13934917D01*
X17740045Y13889303D01*
X17769298Y13838883D01*
X17798421Y13782053D01*
X17828366Y13717210D01*
X17860087Y13642749D01*
X17881882Y13589000D01*
X17899285Y13546227D01*
X17917391Y13503151D01*
X17934929Y13462697D01*
X17950630Y13427785D01*
X17963222Y13401338D01*
X17964835Y13398144D01*
X17990879Y13351719D01*
X18020952Y13307307D01*
X18056247Y13263661D01*
X18097955Y13219532D01*
X18147271Y13173672D01*
X18205386Y13124832D01*
X18273492Y13071765D01*
X18284825Y13063227D01*
X18350999Y13016406D01*
X18412845Y12979118D01*
X18473017Y12950287D01*
X18534166Y12928837D01*
X18598948Y12913690D01*
X18670014Y12903772D01*
X18680391Y12902760D01*
X18742258Y12900019D01*
X18812157Y12902074D01*
X18886533Y12908519D01*
X18961830Y12918950D01*
X19034494Y12932962D01*
X19100971Y12950150D01*
X19103667Y12950963D01*
X19122793Y12956225D01*
X19134061Y12957167D01*
X19141562Y12953771D01*
X19144835Y12950788D01*
X19150491Y12940555D01*
X19146733Y12929290D01*
X19132742Y12915876D01*
X19107701Y12899196D01*
X19106467Y12898451D01*
X19030803Y12859461D01*
X18946339Y12827787D01*
X18854803Y12803636D01*
X18757920Y12787219D01*
X18657416Y12778744D01*
X18555020Y12778421D01*
X18452456Y12786457D01*
X18351451Y12803062D01*
X18339542Y12805635D01*
X18267488Y12823805D01*
X18197860Y12846171D01*
X18126810Y12874121D01*
X18050488Y12909045D01*
X18043525Y12912432D01*
X17993077Y12938645D01*
X17939362Y12969316D01*
X17884426Y13003058D01*
X17830313Y13038482D01*
X17779069Y13074197D01*
X17732737Y13108817D01*
X17693363Y13140951D01*
X17662991Y13169211D01*
X17658416Y13174019D01*
X17641606Y13192125D01*
X17657835Y13252450D01*
X17664567Y13279329D01*
X17669208Y13303591D01*
X17672145Y13328836D01*
X17673764Y13358664D01*
X17674450Y13396674D01*
X17674522Y13408025D01*
X17674197Y13455194D01*
X17672304Y13494013D01*
X17668226Y13528799D01*
X17661347Y13563866D01*
X17651053Y13603530D01*
X17642348Y13633450D01*
X17629619Y13671888D01*
X17613248Y13715083D01*
X17594635Y13759842D01*
X17575180Y13802971D01*
X17556282Y13841278D01*
X17539342Y13871567D01*
X17535018Y13878360D01*
X17491679Y13933100D01*
X17437710Y13983389D01*
X17374718Y14028171D01*
X17304311Y14066391D01*
X17228098Y14096994D01*
X17180468Y14111202D01*
X17149933Y14119691D01*
X17129931Y14126794D01*
X17118519Y14133486D01*
X17113751Y14140739D01*
X17113250Y14144853D01*
X17116826Y14153143D01*
X17126474Y14168995D01*
X17140575Y14189865D01*
X17152149Y14205988D01*
X17205641Y14271346D01*
X17267852Y14334661D01*
X17335928Y14393508D01*
X17407013Y14445460D01*
X17478252Y14488091D01*
X17493125Y14495712D01*
X17523817Y14510258D01*
X17547661Y14519532D01*
X17568700Y14524795D01*
X17590974Y14527314D01*
X17594909Y14527546D01*
X17620631Y14528015D01*
X17640248Y14525208D01*
X17660212Y14517772D01*
X17674327Y14510889D01*
X17711528Y14491970D01*
X17758300Y14517198D01*
X17790670Y14532660D01*
X17814237Y14539296D01*
X17829299Y14537140D01*
X17836133Y14526333D01*
X17834496Y14515672D01*
X17828227Y14496814D01*
X17818447Y14472888D01*
X17811566Y14457832D01*
X17800425Y14433689D01*
X17792054Y14414193D01*
X17787517Y14401904D01*
X17787118Y14399004D01*
X17792869Y14401562D01*
X17806420Y14410317D01*
X17825491Y14423743D01*
X17839580Y14434113D01*
X17870516Y14456015D01*
X17900106Y14474736D01*
X17926368Y14489216D01*
X17947321Y14498398D01*
X17960983Y14501224D01*
X17963816Y14500432D01*
X17968609Y14495672D01*
X17969171Y14488464D01*
X17964724Y14477094D01*
X17954489Y14459845D01*
X17937686Y14435000D01*
X17927584Y14420615D01*
X17907890Y14391891D01*
X17888664Y14362360D01*
X17872513Y14336103D01*
X17864377Y14321750D01*
X17843979Y14283445D01*
X17865993Y14250757D01*
X17904157Y14203094D01*
X17947099Y14166916D01*
X17995691Y14141762D01*
X18050806Y14127176D01*
X18110200Y14122690D01*
X18164893Y14128742D01*
X18219827Y14146080D01*
X18273562Y14173399D01*
X18324657Y14209397D01*
X18371673Y14252771D01*
X18413168Y14302216D01*
X18447702Y14356431D01*
X18473835Y14414111D01*
X18488348Y14464804D01*
X18493274Y14502366D01*
X18491674Y14539595D01*
X18482997Y14578493D01*
X18466692Y14621062D01*
X18442210Y14669304D01*
X18423047Y14702335D01*
X18410666Y14721995D01*
X18401784Y14732628D01*
X18393868Y14736381D01*
X18384380Y14735400D01*
X18384076Y14735328D01*
X18356005Y14725697D01*
X18320242Y14708829D01*
X18278739Y14685752D01*
X18233447Y14657495D01*
X18222070Y14649950D01*
X18191034Y14629210D01*
X18168733Y14614781D01*
X18153369Y14605878D01*
X18143141Y14601718D01*
X18136252Y14601518D01*
X18130902Y14604495D01*
X18126724Y14608435D01*
X18120816Y14618314D01*
X18119481Y14632940D01*
X18122967Y14654134D01*
X18131518Y14683717D01*
X18140432Y14709775D01*
X18165024Y14770229D01*
X18196208Y14830637D01*
X18225346Y14878685D01*
X18239040Y14900585D01*
X18249624Y14918494D01*
X18255533Y14929717D01*
X18256250Y14931898D01*
X18250825Y14935513D01*
X18236260Y14934794D01*
X18215119Y14930333D01*
X18189968Y14922724D01*
X18163372Y14912557D01*
X18153377Y14908128D01*
X18127736Y14896905D01*
X18111120Y14891386D01*
X18101495Y14891022D01*
X18098064Y14893246D01*
X18097623Y14903229D01*
X18104855Y14921336D01*
X18118971Y14946221D01*
X18139182Y14976541D01*
X18164699Y15010950D01*
X18174435Y15023332D01*
X18191848Y15045507D01*
X18202785Y15061330D01*
X18208752Y15074327D01*
X18211253Y15088025D01*
X18211795Y15105949D01*
X18211800Y15110848D01*
X18213481Y15141087D01*
X18219503Y15167141D01*
X18231339Y15192757D01*
X18250462Y15221684D01*
X18260674Y15235273D01*
X18309093Y15293603D01*
X18359882Y15346303D01*
X18411675Y15392318D01*
X18463105Y15430591D01*
X18512806Y15460067D01*
X18559411Y15479687D01*
X18585436Y15486312D01*
X18614272Y15489782D01*
X18640024Y15488192D01*
X18665499Y15480614D01*
X18693503Y15466117D01*
X18726843Y15443774D01*
X18737480Y15436012D01*
X18828197Y15366184D01*
X18907032Y15299502D01*
X18974320Y15235646D01*
X19030399Y15174293D01*
X19075603Y15115122D01*
X19081670Y15106106D01*
X19102184Y15076663D01*
X19124991Y15046475D01*
X19146625Y15020031D01*
X19157225Y15008225D01*
X19179199Y14984449D01*
X19202276Y14958587D01*
X19221497Y14936201D01*
X19221660Y14936003D01*
X19237475Y14918947D01*
X19260388Y14896764D01*
X19287496Y14872156D01*
X19315897Y14847825D01*
X19319875Y14844542D01*
X19402098Y14772626D01*
X19472516Y14701366D01*
X19531923Y14629819D01*
X19581113Y14557044D01*
X19615310Y14493875D01*
X19633352Y14453692D01*
X19653467Y14403998D01*
X19674642Y14347600D01*
X19695864Y14287306D01*
X19716121Y14225925D01*
X19734399Y14166265D01*
X19738091Y14153522D01*
X19772195Y14021762D01*
X19801856Y13881208D01*
X19826953Y13733805D01*
X19847364Y13581498D01*
X19862966Y13426231D01*
X19873639Y13269950D01*
X19879260Y13114599D01*
X19879709Y12962123D01*
X19874862Y12814466D01*
G37*
X19874862Y12814466D02*
X19864599Y12673574D01*
X19848797Y12541390D01*
X19841800Y12496732D01*
X19836151Y12468138D01*
X19829286Y12450411D01*
X19819075Y12442587D01*
X19803387Y12443700D01*
X19780092Y12452784D01*
X19762932Y12460992D01*
X19705507Y12492531D01*
X19647257Y12530561D01*
X19590462Y12573184D01*
X19537401Y12618499D01*
X19490356Y12664606D01*
X19451604Y12709607D01*
X19432705Y12736176D01*
X19409904Y12779163D01*
X19389602Y12833078D01*
X19372350Y12896301D01*
X19363090Y12941300D01*
X19357886Y12978227D01*
X19354183Y13021777D01*
X19351979Y13069203D01*
X19351270Y13117757D01*
X19352056Y13164692D01*
X19354333Y13207261D01*
X19358100Y13242714D01*
X19363354Y13268306D01*
X19363360Y13268325D01*
X19374617Y13297577D01*
X19387883Y13319667D01*
X19401716Y13332543D01*
X19410154Y13335000D01*
X19418958Y13330909D01*
X19433531Y13320207D01*
X19449947Y13305908D01*
X19476501Y13275131D01*
X19502474Y13233838D01*
X19526852Y13184205D01*
X19548621Y13128406D01*
X19566766Y13068619D01*
X19573503Y13040889D01*
X19577601Y13019046D01*
X19581276Y12993335D01*
X19584160Y12967361D01*
X19585884Y12944724D01*
X19586079Y12929025D01*
X19585399Y12924649D01*
X19576800Y12917075D01*
X19562593Y12918076D01*
X19549446Y12925191D01*
X19534270Y12931100D01*
X19521840Y12925763D01*
X19517284Y12918241D01*
X19518230Y12905218D01*
X19527304Y12882876D01*
X19544349Y12851521D01*
X19569207Y12811458D01*
X19583035Y12790468D01*
X19611079Y12750943D01*
X19634786Y12722948D01*
X19654570Y12706236D01*
X19670847Y12700559D01*
X19684028Y12705670D01*
X19694529Y12721319D01*
X19695362Y12723248D01*
X19704661Y12749574D01*
X19712094Y12780352D01*
X19717872Y12817252D01*
X19722206Y12861941D01*
X19725306Y12916088D01*
X19727261Y12976225D01*
X19728242Y13049507D01*
X19727071Y13112236D01*
X19723285Y13166448D01*
X19716422Y13214177D01*
X19706020Y13257458D01*
X19691616Y13298326D01*
X19672749Y13338816D01*
X19648957Y13380961D01*
X19627640Y13414823D01*
X19588977Y13475956D01*
X19558562Y13527889D01*
X19536238Y13570941D01*
X19521846Y13605432D01*
X19515228Y13631681D01*
X19514834Y13642586D01*
X19518877Y13661796D01*
X19527804Y13669930D01*
X19542294Y13667133D01*
X19563024Y13653549D01*
X19563685Y13653028D01*
X19584200Y13638838D01*
X19609157Y13624319D01*
X19622353Y13617686D01*
X19648734Y13606514D01*
X19667707Y13602043D01*
X19680280Y13605357D01*
X19687459Y13617539D01*
X19690253Y13639674D01*
X19689667Y13672845D01*
X19688734Y13689112D01*
X19684410Y13745432D01*
X19678302Y13808396D01*
X19670737Y13875656D01*
X19662043Y13944864D01*
X19652546Y14013672D01*
X19642574Y14079732D01*
X19632454Y14140695D01*
X19622515Y14194214D01*
X19613082Y14237941D01*
X19611069Y14246169D01*
X19588597Y14324145D01*
X19561433Y14396429D01*
X19528529Y14464660D01*
X19488832Y14530475D01*
X19441294Y14595512D01*
X19384864Y14661408D01*
X19318492Y14729802D01*
X19273402Y14772772D01*
X19226804Y14816855D01*
X19188097Y14855419D01*
X19155214Y14890823D01*
X19126086Y14925429D01*
X19098645Y14961597D01*
X19070823Y15001687D01*
X19064359Y15011400D01*
X19025857Y15068655D01*
X18991742Y15116867D01*
X18960181Y15158063D01*
X18929340Y15194272D01*
X18897386Y15227525D01*
X18862487Y15259849D01*
X18822809Y15293273D01*
X18776950Y15329492D01*
X18736295Y15360392D01*
X18704039Y15383667D01*
X18679041Y15400072D01*
X18660159Y15410363D01*
X18647750Y15414948D01*
X18636967Y15416324D01*
X18632087Y15412834D01*
X18633452Y15403311D01*
X18641401Y15386589D01*
X18656274Y15361500D01*
X18669293Y15340966D01*
X18686498Y15313541D01*
X18702431Y15286948D01*
X18714963Y15264802D01*
X18720558Y15253909D01*
X18733430Y15226543D01*
X18717094Y15205126D01*
X18701897Y15188088D01*
X18687536Y15180412D01*
X18670953Y15181826D01*
X18649087Y15192056D01*
X18638880Y15198122D01*
X18587308Y15223379D01*
X18535497Y15236106D01*
X18483887Y15236274D01*
X18432917Y15223851D01*
X18410464Y15214221D01*
X18371146Y15189733D01*
X18342457Y15159395D01*
X18323962Y15122386D01*
X18315226Y15077884D01*
X18315103Y15034238D01*
X18324141Y14975438D01*
X18343873Y14913841D01*
X18374551Y14848914D01*
X18416427Y14780122D01*
X18469754Y14706932D01*
X18469782Y14706897D01*
X18509923Y14653466D01*
X18541462Y14606518D01*
X18565487Y14564326D01*
X18581440Y14529348D01*
X18589068Y14502642D01*
X18594148Y14469329D01*
X18596620Y14432932D01*
X18596422Y14396973D01*
X18593495Y14364976D01*
X18587778Y14340463D01*
X18584804Y14333739D01*
X18571365Y14315450D01*
X18548672Y14291709D01*
X18518288Y14263713D01*
X18481779Y14232659D01*
X18440711Y14199745D01*
X18396647Y14166168D01*
X18351153Y14133125D01*
X18305795Y14101813D01*
X18262137Y14073430D01*
X18221744Y14049174D01*
X18191564Y14032904D01*
X18138200Y14009299D01*
X18090200Y13995237D01*
X18045247Y13990149D01*
X18021250Y13990946D01*
X17976241Y13997267D01*
X17938031Y14008871D01*
X17905241Y14026990D01*
X17876488Y14052855D01*
X17850392Y14087698D01*
X17825571Y14132749D01*
X17801705Y14186637D01*
X17785224Y14226477D01*
X17771972Y14256854D01*
X17760605Y14280152D01*
X17749779Y14298754D01*
X17738150Y14315046D01*
X17724374Y14331412D01*
X17713160Y14343728D01*
X17682204Y14373818D01*
X17653576Y14393555D01*
X17624503Y14404221D01*
X17592213Y14407094D01*
X17577507Y14406325D01*
X17523668Y14397013D01*
X17478673Y14378743D01*
X17442190Y14351338D01*
X17417383Y14320350D01*
X17404275Y14291887D01*
X17398681Y14261965D01*
X17401130Y14234840D01*
X17405408Y14223892D01*
X17413093Y14215572D01*
X17428950Y14202291D01*
X17450513Y14186019D01*
X17470496Y14171978D01*
X17498424Y14151294D01*
X17531476Y14124176D01*
X17566211Y14093566D01*
X17599187Y14062406D01*
X17602674Y14058956D01*
X17641976Y14018140D01*
X17677337Y13977328D01*
X17709709Y13934917D01*
X17740045Y13889303D01*
X17769298Y13838883D01*
X17798421Y13782053D01*
X17828366Y13717210D01*
X17860087Y13642749D01*
X17881882Y13589000D01*
X17899285Y13546227D01*
X17917391Y13503151D01*
X17934929Y13462697D01*
X17950630Y13427785D01*
X17963222Y13401338D01*
X17964835Y13398144D01*
X17990879Y13351719D01*
X18020952Y13307307D01*
X18056247Y13263661D01*
X18097955Y13219532D01*
X18147271Y13173672D01*
X18205386Y13124832D01*
X18273492Y13071765D01*
X18284825Y13063227D01*
X18350999Y13016406D01*
X18412845Y12979118D01*
X18473017Y12950287D01*
X18534166Y12928837D01*
X18598948Y12913690D01*
X18670014Y12903772D01*
X18680391Y12902760D01*
X18742258Y12900019D01*
X18812157Y12902074D01*
X18886533Y12908519D01*
X18961830Y12918950D01*
X19034494Y12932962D01*
X19100971Y12950150D01*
X19103667Y12950963D01*
X19122793Y12956225D01*
X19134061Y12957167D01*
X19141562Y12953771D01*
X19144835Y12950788D01*
X19150491Y12940555D01*
X19146733Y12929290D01*
X19132742Y12915876D01*
X19107701Y12899196D01*
X19106467Y12898451D01*
X19030803Y12859461D01*
X18946339Y12827787D01*
X18854803Y12803636D01*
X18757920Y12787219D01*
X18657416Y12778744D01*
X18555020Y12778421D01*
X18452456Y12786457D01*
X18351451Y12803062D01*
X18339542Y12805635D01*
X18267488Y12823805D01*
X18197860Y12846171D01*
X18126810Y12874121D01*
X18050488Y12909045D01*
X18043525Y12912432D01*
X17993077Y12938645D01*
X17939362Y12969316D01*
X17884426Y13003058D01*
X17830313Y13038482D01*
X17779069Y13074197D01*
X17732737Y13108817D01*
X17693363Y13140951D01*
X17662991Y13169211D01*
X17658416Y13174019D01*
X17641606Y13192125D01*
X17657835Y13252450D01*
X17664567Y13279329D01*
X17669208Y13303591D01*
X17672145Y13328836D01*
X17673764Y13358664D01*
X17674450Y13396674D01*
X17674522Y13408025D01*
X17674197Y13455194D01*
X17672304Y13494013D01*
X17668226Y13528799D01*
X17661347Y13563866D01*
X17651053Y13603530D01*
X17642348Y13633450D01*
X17629619Y13671888D01*
X17613248Y13715083D01*
X17594635Y13759842D01*
X17575180Y13802971D01*
X17556282Y13841278D01*
X17539342Y13871567D01*
X17535018Y13878360D01*
X17491679Y13933100D01*
X17437710Y13983389D01*
X17374718Y14028171D01*
X17304311Y14066391D01*
X17228098Y14096994D01*
X17180468Y14111202D01*
X17149933Y14119691D01*
X17129931Y14126794D01*
X17118519Y14133486D01*
X17113751Y14140739D01*
X17113250Y14144853D01*
X17116826Y14153143D01*
X17126474Y14168995D01*
X17140575Y14189865D01*
X17152149Y14205988D01*
X17205641Y14271346D01*
X17267852Y14334661D01*
X17335928Y14393508D01*
X17407013Y14445460D01*
X17478252Y14488091D01*
X17493125Y14495712D01*
X17523817Y14510258D01*
X17547661Y14519532D01*
X17568700Y14524795D01*
X17590974Y14527314D01*
X17594909Y14527546D01*
X17620631Y14528015D01*
X17640248Y14525208D01*
X17660212Y14517772D01*
X17674327Y14510889D01*
X17711528Y14491970D01*
X17758300Y14517198D01*
X17790670Y14532660D01*
X17814237Y14539296D01*
X17829299Y14537140D01*
X17836133Y14526333D01*
X17834496Y14515672D01*
X17828227Y14496814D01*
X17818447Y14472888D01*
X17811566Y14457832D01*
X17800425Y14433689D01*
X17792054Y14414193D01*
X17787517Y14401904D01*
X17787118Y14399004D01*
X17792869Y14401562D01*
X17806420Y14410317D01*
X17825491Y14423743D01*
X17839580Y14434113D01*
X17870516Y14456015D01*
X17900106Y14474736D01*
X17926368Y14489216D01*
X17947321Y14498398D01*
X17960983Y14501224D01*
X17963816Y14500432D01*
X17968609Y14495672D01*
X17969171Y14488464D01*
X17964724Y14477094D01*
X17954489Y14459845D01*
X17937686Y14435000D01*
X17927584Y14420615D01*
X17907890Y14391891D01*
X17888664Y14362360D01*
X17872513Y14336103D01*
X17864377Y14321750D01*
X17843979Y14283445D01*
X17865993Y14250757D01*
X17904157Y14203094D01*
X17947099Y14166916D01*
X17995691Y14141762D01*
X18050806Y14127176D01*
X18110200Y14122690D01*
X18164893Y14128742D01*
X18219827Y14146080D01*
X18273562Y14173399D01*
X18324657Y14209397D01*
X18371673Y14252771D01*
X18413168Y14302216D01*
X18447702Y14356431D01*
X18473835Y14414111D01*
X18488348Y14464804D01*
X18493274Y14502366D01*
X18491674Y14539595D01*
X18482997Y14578493D01*
X18466692Y14621062D01*
X18442210Y14669304D01*
X18423047Y14702335D01*
X18410666Y14721995D01*
X18401784Y14732628D01*
X18393868Y14736381D01*
X18384380Y14735400D01*
X18384076Y14735328D01*
X18356005Y14725697D01*
X18320242Y14708829D01*
X18278739Y14685752D01*
X18233447Y14657495D01*
X18222070Y14649950D01*
X18191034Y14629210D01*
X18168733Y14614781D01*
X18153369Y14605878D01*
X18143141Y14601718D01*
X18136252Y14601518D01*
X18130902Y14604495D01*
X18126724Y14608435D01*
X18120816Y14618314D01*
X18119481Y14632940D01*
X18122967Y14654134D01*
X18131518Y14683717D01*
X18140432Y14709775D01*
X18165024Y14770229D01*
X18196208Y14830637D01*
X18225346Y14878685D01*
X18239040Y14900585D01*
X18249624Y14918494D01*
X18255533Y14929717D01*
X18256250Y14931898D01*
X18250825Y14935513D01*
X18236260Y14934794D01*
X18215119Y14930333D01*
X18189968Y14922724D01*
X18163372Y14912557D01*
X18153377Y14908128D01*
X18127736Y14896905D01*
X18111120Y14891386D01*
X18101495Y14891022D01*
X18098064Y14893246D01*
X18097623Y14903229D01*
X18104855Y14921336D01*
X18118971Y14946221D01*
X18139182Y14976541D01*
X18164699Y15010950D01*
X18174435Y15023332D01*
X18191848Y15045507D01*
X18202785Y15061330D01*
X18208752Y15074327D01*
X18211253Y15088025D01*
X18211795Y15105949D01*
X18211800Y15110848D01*
X18213481Y15141087D01*
X18219503Y15167141D01*
X18231339Y15192757D01*
X18250462Y15221684D01*
X18260674Y15235273D01*
X18309093Y15293603D01*
X18359882Y15346303D01*
X18411675Y15392318D01*
X18463105Y15430591D01*
X18512806Y15460067D01*
X18559411Y15479687D01*
X18585436Y15486312D01*
X18614272Y15489782D01*
X18640024Y15488192D01*
X18665499Y15480614D01*
X18693503Y15466117D01*
X18726843Y15443774D01*
X18737480Y15436012D01*
X18828197Y15366184D01*
X18907032Y15299502D01*
X18974320Y15235646D01*
X19030399Y15174293D01*
X19075603Y15115122D01*
X19081670Y15106106D01*
X19102184Y15076663D01*
X19124991Y15046475D01*
X19146625Y15020031D01*
X19157225Y15008225D01*
X19179199Y14984449D01*
X19202276Y14958587D01*
X19221497Y14936201D01*
X19221660Y14936003D01*
X19237475Y14918947D01*
X19260388Y14896764D01*
X19287496Y14872156D01*
X19315897Y14847825D01*
X19319875Y14844542D01*
X19402098Y14772626D01*
X19472516Y14701366D01*
X19531923Y14629819D01*
X19581113Y14557044D01*
X19615310Y14493875D01*
X19633352Y14453692D01*
X19653467Y14403998D01*
X19674642Y14347600D01*
X19695864Y14287306D01*
X19716121Y14225925D01*
X19734399Y14166265D01*
X19738091Y14153522D01*
X19772195Y14021762D01*
X19801856Y13881208D01*
X19826953Y13733805D01*
X19847364Y13581498D01*
X19862966Y13426231D01*
X19873639Y13269950D01*
X19879260Y13114599D01*
X19879709Y12962123D01*
X19874862Y12814466D01*
G36*
X21073249Y13681727D02*
G01*
X21068154Y13658211D01*
X21064247Y13650556D01*
X21054300Y13632462D01*
X21038629Y13604482D01*
X21017552Y13567169D01*
X20991386Y13521079D01*
X20960449Y13466764D01*
X20925057Y13404780D01*
X20885527Y13335680D01*
X20842177Y13260018D01*
X20795324Y13178349D01*
X20745285Y13091225D01*
X20692378Y12999202D01*
X20636918Y12902833D01*
X20579225Y12802673D01*
X20519614Y12699275D01*
X20468738Y12611100D01*
X20384117Y12464588D01*
X20305743Y12329094D01*
X20233597Y12204586D01*
X20167662Y12091035D01*
X20107920Y11988410D01*
X20054353Y11896681D01*
X20006944Y11815819D01*
X19965675Y11745791D01*
X19930528Y11686569D01*
X19901484Y11638122D01*
X19878527Y11600419D01*
X19861639Y11573431D01*
X19850802Y11557126D01*
X19847318Y11552595D01*
X19821059Y11527513D01*
X19793533Y11510928D01*
X19782921Y11506557D01*
X19778609Y11504986D01*
X19774068Y11503546D01*
X19768753Y11502232D01*
X19762115Y11501037D01*
X19753609Y11499957D01*
X19742688Y11498986D01*
X19728805Y11498117D01*
X19711413Y11497345D01*
X19689965Y11496664D01*
X19663915Y11496069D01*
X19632716Y11495553D01*
X19595821Y11495112D01*
X19552683Y11494739D01*
X19502756Y11494428D01*
X19445493Y11494175D01*
X19380347Y11493972D01*
X19306771Y11493815D01*
X19224218Y11493697D01*
X19132143Y11493613D01*
X19029997Y11493557D01*
X18917235Y11493524D01*
X18793309Y11493507D01*
X18657673Y11493501D01*
X18538825Y11493500D01*
X18393281Y11493502D01*
X18259891Y11493511D01*
X18138107Y11493532D01*
X18027383Y11493571D01*
X17927174Y11493635D01*
X17836931Y11493728D01*
X17756110Y11493856D01*
X17684162Y11494025D01*
X17620542Y11494240D01*
X17564703Y11494507D01*
X17516099Y11494832D01*
X17474183Y11495221D01*
X17438407Y11495678D01*
X17408227Y11496210D01*
X17383095Y11496822D01*
X17362465Y11497520D01*
X17345790Y11498309D01*
X17332524Y11499195D01*
X17322120Y11500185D01*
X17314031Y11501282D01*
X17307712Y11502494D01*
X17302614Y11503825D01*
X17298193Y11505281D01*
X17295383Y11506313D01*
X17263369Y11522919D01*
X17234922Y11545897D01*
X17234820Y11546000D01*
X17228622Y11554163D01*
X17217478Y11571086D01*
X17201291Y11596937D01*
X17179961Y11631884D01*
X17153390Y11676095D01*
X17121479Y11729736D01*
X17084131Y11792976D01*
X17041246Y11865983D01*
X16992725Y11948923D01*
X16938471Y12041965D01*
X16878384Y12145276D01*
X16812367Y12259024D01*
X16740320Y12383376D01*
X16662144Y12518501D01*
X16614129Y12601575D01*
X16552986Y12707446D01*
X16493485Y12810570D01*
X16435942Y12910393D01*
X16380677Y13006360D01*
X16328007Y13097915D01*
X16278249Y13184504D01*
X16231723Y13265572D01*
X16188744Y13340563D01*
X16149632Y13408924D01*
X16114705Y13470097D01*
X16084279Y13523529D01*
X16058674Y13568665D01*
X16038207Y13604949D01*
X16023195Y13631827D01*
X16013957Y13648743D01*
X16010878Y13654886D01*
X16002923Y13692036D01*
X16002917Y13733042D01*
X16010593Y13772183D01*
X16017115Y13789025D01*
X16023466Y13801227D01*
X16035688Y13823465D01*
X16053398Y13855080D01*
X16076211Y13895409D01*
X16103745Y13943792D01*
X16135614Y13999566D01*
X16171435Y14062071D01*
X16210825Y14130644D01*
X16253399Y14204625D01*
X16298773Y14283353D01*
X16346564Y14366165D01*
X16396388Y14452400D01*
X16447861Y14541396D01*
X16500598Y14632494D01*
X16554217Y14725030D01*
X16608332Y14818344D01*
X16662561Y14911774D01*
X16716520Y15004658D01*
X16769824Y15096336D01*
X16822090Y15186145D01*
X16872933Y15273426D01*
X16921971Y15357515D01*
X16968818Y15437751D01*
X17013092Y15513474D01*
X17054408Y15584021D01*
X17092383Y15648732D01*
X17126631Y15706944D01*
X17156771Y15757997D01*
X17182418Y15801229D01*
X17203187Y15835979D01*
X17218695Y15861584D01*
X17228559Y15877385D01*
X17232151Y15882546D01*
X17251919Y15899313D01*
X17276140Y15915003D01*
X17287194Y15920646D01*
X17319625Y15935325D01*
X18545175Y15935325D01*
X18545175Y15598249D01*
X18488098Y15598127D01*
X18441497Y15597686D01*
X18403152Y15596811D01*
X18370840Y15595390D01*
X18342339Y15593309D01*
X18315430Y15590455D01*
X18287889Y15586715D01*
X18272125Y15584310D01*
X18115914Y15553650D01*
X17965036Y15511537D01*
X17819698Y15458070D01*
X17680101Y15393344D01*
X17546450Y15317458D01*
X17418950Y15230509D01*
X17297804Y15132593D01*
X17266587Y15104634D01*
X17157323Y14996183D01*
X17058095Y14880079D01*
X16969107Y14756709D01*
X16890563Y14626457D01*
X16822668Y14489710D01*
X16765625Y14346853D01*
X16719639Y14198272D01*
X16684912Y14044352D01*
X16674919Y13985875D01*
X16668888Y13941571D01*
X16666338Y13904260D01*
X16667376Y13868991D01*
X16672111Y13830811D01*
X16679158Y13792200D01*
X16704738Y13692989D01*
X16741879Y13592211D01*
X16789709Y13490913D01*
X16847362Y13390142D01*
X16913968Y13290944D01*
X16988659Y13194366D01*
X17070565Y13101455D01*
X17158818Y13013256D01*
X17252550Y12930818D01*
X17350891Y12855187D01*
X17452972Y12787408D01*
X17557926Y12728530D01*
X17565024Y12724936D01*
X17651856Y12685973D01*
X17749051Y12650782D01*
X17854752Y12619687D01*
X17967100Y12593014D01*
X18084235Y12571088D01*
X18204300Y12554234D01*
X18325434Y12542776D01*
X18445779Y12537039D01*
X18563476Y12537349D01*
X18623019Y12540007D01*
X18747599Y12550364D01*
X18866252Y12565983D01*
X18977535Y12586588D01*
X19080008Y12611902D01*
X19172228Y12641649D01*
X19191619Y12649004D01*
X19219039Y12659186D01*
X19242321Y12666826D01*
X19258847Y12671131D01*
X19265795Y12671491D01*
X19272155Y12661599D01*
X19267983Y12647277D01*
X19254303Y12629366D01*
X19232135Y12608710D01*
X19202501Y12586151D01*
X19166425Y12562530D01*
X19124928Y12538691D01*
X19079033Y12515475D01*
X19073113Y12512694D01*
X18950430Y12461775D01*
X18819494Y12419119D01*
X18681865Y12384927D01*
X18539103Y12359402D01*
X18392769Y12342744D01*
X18244422Y12335154D01*
X18095622Y12336835D01*
X17947931Y12347988D01*
X17872075Y12357599D01*
X17726982Y12384231D01*
X17589064Y12421170D01*
X17457689Y12468707D01*
X17332223Y12527133D01*
X17212035Y12596737D01*
X17096491Y12677812D01*
X16997385Y12759556D01*
X16940547Y12815653D01*
X16884464Y12882316D01*
X16830890Y12957449D01*
X16827667Y12962375D01*
X16810821Y12987896D01*
X16796424Y13009030D01*
X16785879Y13023768D01*
X16780589Y13030099D01*
X16780349Y13030200D01*
X16780827Y13024817D01*
X16786219Y13009836D01*
X16795744Y12987010D01*
X16808617Y12958089D01*
X16824057Y12924826D01*
X16841280Y12888974D01*
X16859504Y12852285D01*
X16862434Y12846505D01*
X16893402Y12789274D01*
X16929078Y12729604D01*
X16968272Y12669063D01*
X17009795Y12609215D01*
X17052455Y12551626D01*
X17095061Y12497863D01*
X17136425Y12449490D01*
X17175354Y12408074D01*
X17210659Y12375180D01*
X17235149Y12356287D01*
X17294857Y12319495D01*
X17364954Y12282791D01*
X17443153Y12247025D01*
X17527164Y12213048D01*
X17614700Y12181710D01*
X17703474Y12153863D01*
X17791196Y12130356D01*
X17875579Y12112040D01*
X17907089Y12106487D01*
X17957726Y12099811D01*
X18018241Y12094495D01*
X18085877Y12090639D01*
X18157874Y12088345D01*
X18231475Y12087711D01*
X18303921Y12088839D01*
X18347724Y12090498D01*
X18509878Y12101791D01*
X18661204Y12119719D01*
X18801702Y12144282D01*
X18931373Y12175480D01*
X19050218Y12213313D01*
X19158237Y12257782D01*
X19255431Y12308887D01*
X19341801Y12366629D01*
X19374297Y12392398D01*
X19395622Y12409664D01*
X19413683Y12423327D01*
X19426079Y12431622D01*
X19429969Y12433300D01*
X19438313Y12428890D01*
X19438366Y12416339D01*
X19430628Y12396672D01*
X19415601Y12370911D01*
X19393788Y12340081D01*
X19369209Y12309370D01*
X19309119Y12246910D01*
X19237752Y12188762D01*
X19155861Y12135177D01*
X19064203Y12086407D01*
X18963532Y12042701D01*
X18854605Y12004313D01*
X18738175Y11971491D01*
X18614999Y11944488D01*
X18485830Y11923554D01*
X18351426Y11908940D01*
X18212540Y11900898D01*
X18135600Y11899373D01*
X18096015Y11899058D01*
X18067860Y11898615D01*
X18049868Y11897897D01*
X18040768Y11896757D01*
X18039292Y11895050D01*
X18044171Y11892627D01*
X18052692Y11889795D01*
X18117055Y11872540D01*
X18191421Y11857693D01*
X18273270Y11845571D01*
X18360080Y11836492D01*
X18449327Y11830772D01*
X18538490Y11828728D01*
X18538825Y11828728D01*
X18652549Y11831157D01*
X18758341Y11838976D01*
X18859975Y11852643D01*
X18961220Y11872613D01*
X19019989Y11886935D01*
X19166417Y11931339D01*
X19307472Y11986955D01*
X19442649Y12053268D01*
X19571443Y12129760D01*
X19693346Y12215914D01*
X19807852Y12311212D01*
X19914457Y12415137D01*
X20012654Y12527172D01*
X20101936Y12646799D01*
X20181799Y12773502D01*
X20251735Y12906763D01*
X20311240Y13046065D01*
X20359806Y13190891D01*
X20383678Y13281025D01*
X20398848Y13348625D01*
X20410574Y13411140D01*
X20419223Y13471897D01*
X20425166Y13534223D01*
X20428772Y13601446D01*
X20430410Y13676891D01*
X20430579Y13703300D01*
X20430423Y13770141D01*
X20429285Y13827318D01*
X20426896Y13877848D01*
X20422990Y13924745D01*
X20417298Y13971026D01*
X20409552Y14019708D01*
X20399483Y14073805D01*
X20396147Y14090650D01*
X20360209Y14238605D01*
X20312800Y14381798D01*
X20254420Y14519709D01*
X20185567Y14651817D01*
X20106742Y14777603D01*
X20018444Y14896547D01*
X19921173Y15008128D01*
X19815428Y15111826D01*
X19701709Y15207122D01*
X19580516Y15293494D01*
X19452347Y15370424D01*
X19317702Y15437391D01*
X19177082Y15493874D01*
X19030985Y15539354D01*
X18996025Y15548361D01*
X18936173Y15562611D01*
X18882414Y15573966D01*
X18832016Y15582729D01*
X18782249Y15589203D01*
X18730381Y15593689D01*
X18673680Y15596489D01*
X18609414Y15597906D01*
X18545175Y15598249D01*
X18545175Y15935325D01*
X19758025Y15935325D01*
X19790457Y15920646D01*
X19814098Y15907353D01*
X19836911Y15890459D01*
X19845411Y15882546D01*
X19850613Y15874964D01*
X19861761Y15857032D01*
X19878470Y15829412D01*
X19900359Y15792763D01*
X19927044Y15747748D01*
X19958142Y15695027D01*
X19993270Y15635262D01*
X20032045Y15569113D01*
X20074084Y15497242D01*
X20119005Y15420310D01*
X20166424Y15338978D01*
X20215958Y15253908D01*
X20267225Y15165759D01*
X20319841Y15075194D01*
X20373424Y14982874D01*
X20427590Y14889459D01*
X20481957Y14795611D01*
X20536141Y14701991D01*
X20589760Y14609260D01*
X20642430Y14518079D01*
X20693769Y14429109D01*
X20743394Y14343012D01*
X20790922Y14260449D01*
X20835969Y14182080D01*
X20878153Y14108567D01*
X20917091Y14040570D01*
X20952400Y13978752D01*
X20983697Y13923773D01*
X21010598Y13876295D01*
X21032722Y13836978D01*
X21049685Y13806483D01*
X21061104Y13785472D01*
X21066596Y13774606D01*
X21066907Y13773829D01*
X21072955Y13746683D01*
X21075090Y13713958D01*
X21073249Y13681727D01*
G37*
X21073249Y13681727D02*
X21068154Y13658211D01*
X21064247Y13650556D01*
X21054300Y13632462D01*
X21038629Y13604482D01*
X21017552Y13567169D01*
X20991386Y13521079D01*
X20960449Y13466764D01*
X20925057Y13404780D01*
X20885527Y13335680D01*
X20842177Y13260018D01*
X20795324Y13178349D01*
X20745285Y13091225D01*
X20692378Y12999202D01*
X20636918Y12902833D01*
X20579225Y12802673D01*
X20519614Y12699275D01*
X20468738Y12611100D01*
X20384117Y12464588D01*
X20305743Y12329094D01*
X20233597Y12204586D01*
X20167662Y12091035D01*
X20107920Y11988410D01*
X20054353Y11896681D01*
X20006944Y11815819D01*
X19965675Y11745791D01*
X19930528Y11686569D01*
X19901484Y11638122D01*
X19878527Y11600419D01*
X19861639Y11573431D01*
X19850802Y11557126D01*
X19847318Y11552595D01*
X19821059Y11527513D01*
X19793533Y11510928D01*
X19782921Y11506557D01*
X19778609Y11504986D01*
X19774068Y11503546D01*
X19768753Y11502232D01*
X19762115Y11501037D01*
X19753609Y11499957D01*
X19742688Y11498986D01*
X19728805Y11498117D01*
X19711413Y11497345D01*
X19689965Y11496664D01*
X19663915Y11496069D01*
X19632716Y11495553D01*
X19595821Y11495112D01*
X19552683Y11494739D01*
X19502756Y11494428D01*
X19445493Y11494175D01*
X19380347Y11493972D01*
X19306771Y11493815D01*
X19224218Y11493697D01*
X19132143Y11493613D01*
X19029997Y11493557D01*
X18917235Y11493524D01*
X18793309Y11493507D01*
X18657673Y11493501D01*
X18538825Y11493500D01*
X18393281Y11493502D01*
X18259891Y11493511D01*
X18138107Y11493532D01*
X18027383Y11493571D01*
X17927174Y11493635D01*
X17836931Y11493728D01*
X17756110Y11493856D01*
X17684162Y11494025D01*
X17620542Y11494240D01*
X17564703Y11494507D01*
X17516099Y11494832D01*
X17474183Y11495221D01*
X17438407Y11495678D01*
X17408227Y11496210D01*
X17383095Y11496822D01*
X17362465Y11497520D01*
X17345790Y11498309D01*
X17332524Y11499195D01*
X17322120Y11500185D01*
X17314031Y11501282D01*
X17307712Y11502494D01*
X17302614Y11503825D01*
X17298193Y11505281D01*
X17295383Y11506313D01*
X17263369Y11522919D01*
X17234922Y11545897D01*
X17234820Y11546000D01*
X17228622Y11554163D01*
X17217478Y11571086D01*
X17201291Y11596937D01*
X17179961Y11631884D01*
X17153390Y11676095D01*
X17121479Y11729736D01*
X17084131Y11792976D01*
X17041246Y11865983D01*
X16992725Y11948923D01*
X16938471Y12041965D01*
X16878384Y12145276D01*
X16812367Y12259024D01*
X16740320Y12383376D01*
X16662144Y12518501D01*
X16614129Y12601575D01*
X16552986Y12707446D01*
X16493485Y12810570D01*
X16435942Y12910393D01*
X16380677Y13006360D01*
X16328007Y13097915D01*
X16278249Y13184504D01*
X16231723Y13265572D01*
X16188744Y13340563D01*
X16149632Y13408924D01*
X16114705Y13470097D01*
X16084279Y13523529D01*
X16058674Y13568665D01*
X16038207Y13604949D01*
X16023195Y13631827D01*
X16013957Y13648743D01*
X16010878Y13654886D01*
X16002923Y13692036D01*
X16002917Y13733042D01*
X16010593Y13772183D01*
X16017115Y13789025D01*
X16023466Y13801227D01*
X16035688Y13823465D01*
X16053398Y13855080D01*
X16076211Y13895409D01*
X16103745Y13943792D01*
X16135614Y13999566D01*
X16171435Y14062071D01*
X16210825Y14130644D01*
X16253399Y14204625D01*
X16298773Y14283353D01*
X16346564Y14366165D01*
X16396388Y14452400D01*
X16447861Y14541396D01*
X16500598Y14632494D01*
X16554217Y14725030D01*
X16608332Y14818344D01*
X16662561Y14911774D01*
X16716520Y15004658D01*
X16769824Y15096336D01*
X16822090Y15186145D01*
X16872933Y15273426D01*
X16921971Y15357515D01*
X16968818Y15437751D01*
X17013092Y15513474D01*
X17054408Y15584021D01*
X17092383Y15648732D01*
X17126631Y15706944D01*
X17156771Y15757997D01*
X17182418Y15801229D01*
X17203187Y15835979D01*
X17218695Y15861584D01*
X17228559Y15877385D01*
X17232151Y15882546D01*
X17251919Y15899313D01*
X17276140Y15915003D01*
X17287194Y15920646D01*
X17319625Y15935325D01*
X18545175Y15935325D01*
X18545175Y15598249D01*
X18488098Y15598127D01*
X18441497Y15597686D01*
X18403152Y15596811D01*
X18370840Y15595390D01*
X18342339Y15593309D01*
X18315430Y15590455D01*
X18287889Y15586715D01*
X18272125Y15584310D01*
X18115914Y15553650D01*
X17965036Y15511537D01*
X17819698Y15458070D01*
X17680101Y15393344D01*
X17546450Y15317458D01*
X17418950Y15230509D01*
X17297804Y15132593D01*
X17266587Y15104634D01*
X17157323Y14996183D01*
X17058095Y14880079D01*
X16969107Y14756709D01*
X16890563Y14626457D01*
X16822668Y14489710D01*
X16765625Y14346853D01*
X16719639Y14198272D01*
X16684912Y14044352D01*
X16674919Y13985875D01*
X16668888Y13941571D01*
X16666338Y13904260D01*
X16667376Y13868991D01*
X16672111Y13830811D01*
X16679158Y13792200D01*
X16704738Y13692989D01*
X16741879Y13592211D01*
X16789709Y13490913D01*
X16847362Y13390142D01*
X16913968Y13290944D01*
X16988659Y13194366D01*
X17070565Y13101455D01*
X17158818Y13013256D01*
X17252550Y12930818D01*
X17350891Y12855187D01*
X17452972Y12787408D01*
X17557926Y12728530D01*
X17565024Y12724936D01*
X17651856Y12685973D01*
X17749051Y12650782D01*
X17854752Y12619687D01*
X17967100Y12593014D01*
X18084235Y12571088D01*
X18204300Y12554234D01*
X18325434Y12542776D01*
X18445779Y12537039D01*
X18563476Y12537349D01*
X18623019Y12540007D01*
X18747599Y12550364D01*
X18866252Y12565983D01*
X18977535Y12586588D01*
X19080008Y12611902D01*
X19172228Y12641649D01*
X19191619Y12649004D01*
X19219039Y12659186D01*
X19242321Y12666826D01*
X19258847Y12671131D01*
X19265795Y12671491D01*
X19272155Y12661599D01*
X19267983Y12647277D01*
X19254303Y12629366D01*
X19232135Y12608710D01*
X19202501Y12586151D01*
X19166425Y12562530D01*
X19124928Y12538691D01*
X19079033Y12515475D01*
X19073113Y12512694D01*
X18950430Y12461775D01*
X18819494Y12419119D01*
X18681865Y12384927D01*
X18539103Y12359402D01*
X18392769Y12342744D01*
X18244422Y12335154D01*
X18095622Y12336835D01*
X17947931Y12347988D01*
X17872075Y12357599D01*
X17726982Y12384231D01*
X17589064Y12421170D01*
X17457689Y12468707D01*
X17332223Y12527133D01*
X17212035Y12596737D01*
X17096491Y12677812D01*
X16997385Y12759556D01*
X16940547Y12815653D01*
X16884464Y12882316D01*
X16830890Y12957449D01*
X16827667Y12962375D01*
X16810821Y12987896D01*
X16796424Y13009030D01*
X16785879Y13023768D01*
X16780589Y13030099D01*
X16780349Y13030200D01*
X16780827Y13024817D01*
X16786219Y13009836D01*
X16795744Y12987010D01*
X16808617Y12958089D01*
X16824057Y12924826D01*
X16841280Y12888974D01*
X16859504Y12852285D01*
X16862434Y12846505D01*
X16893402Y12789274D01*
X16929078Y12729604D01*
X16968272Y12669063D01*
X17009795Y12609215D01*
X17052455Y12551626D01*
X17095061Y12497863D01*
X17136425Y12449490D01*
X17175354Y12408074D01*
X17210659Y12375180D01*
X17235149Y12356287D01*
X17294857Y12319495D01*
X17364954Y12282791D01*
X17443153Y12247025D01*
X17527164Y12213048D01*
X17614700Y12181710D01*
X17703474Y12153863D01*
X17791196Y12130356D01*
X17875579Y12112040D01*
X17907089Y12106487D01*
X17957726Y12099811D01*
X18018241Y12094495D01*
X18085877Y12090639D01*
X18157874Y12088345D01*
X18231475Y12087711D01*
X18303921Y12088839D01*
X18347724Y12090498D01*
X18509878Y12101791D01*
X18661204Y12119719D01*
X18801702Y12144282D01*
X18931373Y12175480D01*
X19050218Y12213313D01*
X19158237Y12257782D01*
X19255431Y12308887D01*
X19341801Y12366629D01*
X19374297Y12392398D01*
X19395622Y12409664D01*
X19413683Y12423327D01*
X19426079Y12431622D01*
X19429969Y12433300D01*
X19438313Y12428890D01*
X19438366Y12416339D01*
X19430628Y12396672D01*
X19415601Y12370911D01*
X19393788Y12340081D01*
X19369209Y12309370D01*
X19309119Y12246910D01*
X19237752Y12188762D01*
X19155861Y12135177D01*
X19064203Y12086407D01*
X18963532Y12042701D01*
X18854605Y12004313D01*
X18738175Y11971491D01*
X18614999Y11944488D01*
X18485830Y11923554D01*
X18351426Y11908940D01*
X18212540Y11900898D01*
X18135600Y11899373D01*
X18096015Y11899058D01*
X18067860Y11898615D01*
X18049868Y11897897D01*
X18040768Y11896757D01*
X18039292Y11895050D01*
X18044171Y11892627D01*
X18052692Y11889795D01*
X18117055Y11872540D01*
X18191421Y11857693D01*
X18273270Y11845571D01*
X18360080Y11836492D01*
X18449327Y11830772D01*
X18538490Y11828728D01*
X18538825Y11828728D01*
X18652549Y11831157D01*
X18758341Y11838976D01*
X18859975Y11852643D01*
X18961220Y11872613D01*
X19019989Y11886935D01*
X19166417Y11931339D01*
X19307472Y11986955D01*
X19442649Y12053268D01*
X19571443Y12129760D01*
X19693346Y12215914D01*
X19807852Y12311212D01*
X19914457Y12415137D01*
X20012654Y12527172D01*
X20101936Y12646799D01*
X20181799Y12773502D01*
X20251735Y12906763D01*
X20311240Y13046065D01*
X20359806Y13190891D01*
X20383678Y13281025D01*
X20398848Y13348625D01*
X20410574Y13411140D01*
X20419223Y13471897D01*
X20425166Y13534223D01*
X20428772Y13601446D01*
X20430410Y13676891D01*
X20430579Y13703300D01*
X20430423Y13770141D01*
X20429285Y13827318D01*
X20426896Y13877848D01*
X20422990Y13924745D01*
X20417298Y13971026D01*
X20409552Y14019708D01*
X20399483Y14073805D01*
X20396147Y14090650D01*
X20360209Y14238605D01*
X20312800Y14381798D01*
X20254420Y14519709D01*
X20185567Y14651817D01*
X20106742Y14777603D01*
X20018444Y14896547D01*
X19921173Y15008128D01*
X19815428Y15111826D01*
X19701709Y15207122D01*
X19580516Y15293494D01*
X19452347Y15370424D01*
X19317702Y15437391D01*
X19177082Y15493874D01*
X19030985Y15539354D01*
X18996025Y15548361D01*
X18936173Y15562611D01*
X18882414Y15573966D01*
X18832016Y15582729D01*
X18782249Y15589203D01*
X18730381Y15593689D01*
X18673680Y15596489D01*
X18609414Y15597906D01*
X18545175Y15598249D01*
X18545175Y15935325D01*
X19758025Y15935325D01*
X19790457Y15920646D01*
X19814098Y15907353D01*
X19836911Y15890459D01*
X19845411Y15882546D01*
X19850613Y15874964D01*
X19861761Y15857032D01*
X19878470Y15829412D01*
X19900359Y15792763D01*
X19927044Y15747748D01*
X19958142Y15695027D01*
X19993270Y15635262D01*
X20032045Y15569113D01*
X20074084Y15497242D01*
X20119005Y15420310D01*
X20166424Y15338978D01*
X20215958Y15253908D01*
X20267225Y15165759D01*
X20319841Y15075194D01*
X20373424Y14982874D01*
X20427590Y14889459D01*
X20481957Y14795611D01*
X20536141Y14701991D01*
X20589760Y14609260D01*
X20642430Y14518079D01*
X20693769Y14429109D01*
X20743394Y14343012D01*
X20790922Y14260449D01*
X20835969Y14182080D01*
X20878153Y14108567D01*
X20917091Y14040570D01*
X20952400Y13978752D01*
X20983697Y13923773D01*
X21010598Y13876295D01*
X21032722Y13836978D01*
X21049685Y13806483D01*
X21061104Y13785472D01*
X21066596Y13774606D01*
X21066907Y13773829D01*
X21072955Y13746683D01*
X21075090Y13713958D01*
X21073249Y13681727D01*
D13*
%TO.C,REF\u002A\u002A*%
X14450000Y11970000D02*
X14450000Y7250000D01*
X14450000Y7250000D02*
X24570000Y7250000D01*
X24570000Y7250000D02*
X24570000Y11970000D01*
X24570000Y11970000D02*
X14450000Y11970000D01*
X16210000Y11970000D02*
X16210000Y12170000D01*
X16210000Y12170000D02*
X15910000Y12170000D01*
X15910000Y12170000D02*
X15910000Y11970000D01*
X16210000Y12070000D02*
X15910000Y12070000D01*
X17010000Y11970000D02*
X17010000Y11360000D01*
X17010000Y11360000D02*
X15060000Y11360000D01*
X15060000Y11360000D02*
X15060000Y7860000D01*
X15060000Y7860000D02*
X23960000Y7860000D01*
X23960000Y7860000D02*
X23960000Y11360000D01*
X23960000Y11360000D02*
X22010000Y11360000D01*
X22010000Y11360000D02*
X22010000Y11970000D01*
X14450000Y10660000D02*
X15060000Y10660000D01*
X14450000Y9360000D02*
X15060000Y9360000D01*
X24570000Y10660000D02*
X23960000Y10660000D01*
X24570000Y9360000D02*
X23960000Y9360000D01*
X17410000Y7860000D02*
X17410000Y8360000D01*
X17410000Y8360000D02*
X17610000Y8360000D01*
X17610000Y8360000D02*
X17610000Y7860000D01*
X17510000Y7860000D02*
X17510000Y8360000D01*
X19410000Y7860000D02*
X19410000Y8360000D01*
X19410000Y8360000D02*
X19610000Y8360000D01*
X19610000Y8360000D02*
X19610000Y7860000D01*
X19510000Y7860000D02*
X19510000Y8360000D01*
X21410000Y7860000D02*
X21410000Y8360000D01*
X21410000Y8360000D02*
X21610000Y8360000D01*
X21610000Y8360000D02*
X21610000Y7860000D01*
X21510000Y7860000D02*
X21510000Y8360000D01*
X15400000Y12270000D02*
X14150000Y12270000D01*
X14150000Y12270000D02*
X14150000Y11020000D01*
X14150000Y4650000D02*
X14150000Y3400000D01*
X15400000Y4650000D02*
X14150000Y4650000D01*
X21510000Y240000D02*
X21510000Y740000D01*
X21610000Y740000D02*
X21610000Y240000D01*
X21410000Y740000D02*
X21610000Y740000D01*
X21410000Y240000D02*
X21410000Y740000D01*
X19510000Y240000D02*
X19510000Y740000D01*
X19610000Y740000D02*
X19610000Y240000D01*
X19410000Y740000D02*
X19610000Y740000D01*
X19410000Y240000D02*
X19410000Y740000D01*
X17510000Y240000D02*
X17510000Y740000D01*
X17610000Y740000D02*
X17610000Y240000D01*
X17410000Y740000D02*
X17610000Y740000D01*
X17410000Y240000D02*
X17410000Y740000D01*
X24570000Y1740000D02*
X23960000Y1740000D01*
X24570000Y3040000D02*
X23960000Y3040000D01*
X14450000Y1740000D02*
X15060000Y1740000D01*
X14450000Y3040000D02*
X15060000Y3040000D01*
X22010000Y3740000D02*
X22010000Y4350000D01*
X23960000Y3740000D02*
X22010000Y3740000D01*
X23960000Y240000D02*
X23960000Y3740000D01*
X15060000Y240000D02*
X23960000Y240000D01*
X15060000Y3740000D02*
X15060000Y240000D01*
X17010000Y3740000D02*
X15060000Y3740000D01*
X17010000Y4350000D02*
X17010000Y3740000D01*
X16210000Y4450000D02*
X15910000Y4450000D01*
X15910000Y4550000D02*
X15910000Y4350000D01*
X16210000Y4550000D02*
X15910000Y4550000D01*
X16210000Y4350000D02*
X16210000Y4550000D01*
X24570000Y4350000D02*
X14450000Y4350000D01*
X24570000Y-370000D02*
X24570000Y4350000D01*
X14450000Y-370000D02*
X24570000Y-370000D01*
X14450000Y4350000D02*
X14450000Y-370000D01*
D10*
%TO.C,J1*%
X16550000Y27560000D02*
X16550000Y15560000D01*
X25050000Y27560000D02*
X16550000Y27560000D01*
X25050000Y15560000D02*
X25050000Y27560000D01*
X16550000Y15560000D02*
X25050000Y15560000D01*
D12*
X24304666Y28868620D02*
X24304666Y28154334D01*
X24257047Y28011477D01*
X24161809Y27916239D01*
X24018952Y27868620D01*
X23923714Y27868620D01*
X25304666Y27868620D02*
X24733238Y27868620D01*
X25018952Y27868620D02*
X25018952Y28868620D01*
X24923714Y28725762D01*
X24828476Y28630524D01*
X24733238Y28582905D01*
%TD*%
M02*
