%TF.GenerationSoftware,KiCad,Pcbnew,(5.1.6-0)*%
%TF.CreationDate,2022-05-02T22:38:42-07:00*%
%TF.ProjectId,rio-proto,72696f2d-7072-46f7-946f-2e6b69636164,rev?*%
%TF.SameCoordinates,PX87a6900PY757baf0*%
%TF.FileFunction,Legend,Bot*%
%TF.FilePolarity,Positive*%
%FSLAX46Y46*%
G04 Gerber Fmt 4.6, Leading zero omitted, Abs format (unit mm)*
G04 Created by KiCad (PCBNEW (5.1.6-0)) date 2022-05-02 22:38:42*
%MOMM*%
%LPD*%
G01*
G04 APERTURE LIST*
%ADD10C,0.100000*%
%ADD11C,0.150000*%
%ADD12C,0.120000*%
G04 APERTURE END LIST*
D10*
G36*
X1397000Y23368000D02*
G01*
X127000Y23368000D01*
X127000Y29972000D01*
X1397000Y29972000D01*
X1397000Y23368000D01*
G37*
X1397000Y23368000D02*
X127000Y23368000D01*
X127000Y29972000D01*
X1397000Y29972000D01*
X1397000Y23368000D01*
G36*
X1397000Y15748000D02*
G01*
X127000Y15748000D01*
X127000Y22352000D01*
X1397000Y22352000D01*
X1397000Y15748000D01*
G37*
X1397000Y15748000D02*
X127000Y15748000D01*
X127000Y22352000D01*
X1397000Y22352000D01*
X1397000Y15748000D01*
G36*
X1397000Y8128000D02*
G01*
X127000Y8128000D01*
X127000Y14732000D01*
X1397000Y14732000D01*
X1397000Y8128000D01*
G37*
X1397000Y8128000D02*
X127000Y8128000D01*
X127000Y14732000D01*
X1397000Y14732000D01*
X1397000Y8128000D01*
G36*
X1397000Y1143000D02*
G01*
X127000Y1143000D01*
X127000Y7112000D01*
X1397000Y7112000D01*
X1397000Y1143000D01*
G37*
X1397000Y1143000D02*
X127000Y1143000D01*
X127000Y7112000D01*
X1397000Y7112000D01*
X1397000Y1143000D01*
D11*
X22979000Y8808405D02*
X23026619Y8713167D01*
X23026619Y8570310D01*
X22979000Y8427453D01*
X22883761Y8332215D01*
X22788523Y8284596D01*
X22598047Y8236977D01*
X22455190Y8236977D01*
X22264714Y8284596D01*
X22169476Y8332215D01*
X22074238Y8427453D01*
X22026619Y8570310D01*
X22026619Y8665548D01*
X22074238Y8808405D01*
X22121857Y8856024D01*
X22455190Y8856024D01*
X22455190Y8665548D01*
X20994619Y8157596D02*
X19994619Y8490929D01*
X20994619Y8824262D01*
X16581428Y8617929D02*
X16533809Y8760786D01*
X16486190Y8808405D01*
X16390952Y8856024D01*
X16248095Y8856024D01*
X16152857Y8808405D01*
X16105238Y8760786D01*
X16057619Y8665548D01*
X16057619Y8284596D01*
X17057619Y8284596D01*
X17057619Y8617929D01*
X17010000Y8713167D01*
X16962380Y8760786D01*
X16867142Y8808405D01*
X16771904Y8808405D01*
X16676666Y8760786D01*
X16629047Y8713167D01*
X16581428Y8617929D01*
X16581428Y8284596D01*
X18248333Y8252834D02*
X18248333Y8729024D01*
X17962619Y8157596D02*
X18962619Y8490929D01*
X17962619Y8824262D01*
X16581428Y997929D02*
X16533809Y1140786D01*
X16486190Y1188405D01*
X16390952Y1236024D01*
X16248095Y1236024D01*
X16152857Y1188405D01*
X16105238Y1140786D01*
X16057619Y1045548D01*
X16057619Y664596D01*
X17057619Y664596D01*
X17057619Y997929D01*
X17010000Y1093167D01*
X16962380Y1140786D01*
X16867142Y1188405D01*
X16771904Y1188405D01*
X16676666Y1140786D01*
X16629047Y1093167D01*
X16581428Y997929D01*
X16581428Y664596D01*
X18248333Y632834D02*
X18248333Y1109024D01*
X17962619Y537596D02*
X18962619Y870929D01*
X17962619Y1204262D01*
X20994619Y537596D02*
X19994619Y870929D01*
X20994619Y1204262D01*
X22979000Y1188405D02*
X23026619Y1093167D01*
X23026619Y950310D01*
X22979000Y807453D01*
X22883761Y712215D01*
X22788523Y664596D01*
X22598047Y616977D01*
X22455190Y616977D01*
X22264714Y664596D01*
X22169476Y712215D01*
X22074238Y807453D01*
X22026619Y950310D01*
X22026619Y1045548D01*
X22074238Y1188405D01*
X22121857Y1236024D01*
X22455190Y1236024D01*
X22455190Y1045548D01*
X23677619Y16573667D02*
X24677619Y16573667D01*
X24677619Y16954620D01*
X24630000Y17049858D01*
X24582380Y17097477D01*
X24487142Y17145096D01*
X24344285Y17145096D01*
X24249047Y17097477D01*
X24201428Y17049858D01*
X24153809Y16954620D01*
X24153809Y16573667D01*
X24677619Y17478429D02*
X23677619Y17716524D01*
X24391904Y17907000D01*
X23677619Y18097477D01*
X24677619Y18335572D01*
X23677619Y19287953D02*
X24153809Y18954620D01*
X23677619Y18716524D02*
X24677619Y18716524D01*
X24677619Y19097477D01*
X24630000Y19192715D01*
X24582380Y19240334D01*
X24487142Y19287953D01*
X24344285Y19287953D01*
X24249047Y19240334D01*
X24201428Y19192715D01*
X24153809Y19097477D01*
X24153809Y18716524D01*
X21201000Y22098096D02*
X21248619Y22002858D01*
X21248619Y21860000D01*
X21201000Y21717143D01*
X21105761Y21621905D01*
X21010523Y21574286D01*
X20820047Y21526667D01*
X20677190Y21526667D01*
X20486714Y21574286D01*
X20391476Y21621905D01*
X20296238Y21717143D01*
X20248619Y21860000D01*
X20248619Y21955239D01*
X20296238Y22098096D01*
X20343857Y22145715D01*
X20677190Y22145715D01*
X20677190Y21955239D01*
X20248619Y22574286D02*
X21248619Y22574286D01*
X20248619Y23145715D01*
X21248619Y23145715D01*
X20248619Y23621905D02*
X21248619Y23621905D01*
X21248619Y23860000D01*
X21201000Y24002858D01*
X21105761Y24098096D01*
X21010523Y24145715D01*
X20820047Y24193334D01*
X20677190Y24193334D01*
X20486714Y24145715D01*
X20391476Y24098096D01*
X20296238Y24002858D01*
X20248619Y23860000D01*
X20248619Y23621905D01*
D12*
%TO.C,REF\u002A\u002A*%
X22603000Y2840000D02*
X22603000Y2240000D01*
X24703000Y3540000D02*
X23303000Y3540000D01*
X25403000Y2240000D02*
X25403000Y2840000D01*
X23303000Y1540000D02*
X24703000Y1540000D01*
X24703000Y1540000D02*
G75*
G03*
X25403000Y2240000I0J700000D01*
G01*
X25403000Y2840000D02*
G75*
G03*
X24703000Y3540000I-700000J0D01*
G01*
X23303000Y3540000D02*
G75*
G03*
X22603000Y2840000I0J-700000D01*
G01*
X22603000Y2240000D02*
G75*
G03*
X23303000Y1540000I700000J0D01*
G01*
X23303000Y9160000D02*
X24703000Y9160000D01*
X25403000Y9860000D02*
X25403000Y10460000D01*
X24703000Y11160000D02*
X23303000Y11160000D01*
X22603000Y10460000D02*
X22603000Y9860000D01*
X22603000Y9860000D02*
G75*
G03*
X23303000Y9160000I700000J0D01*
G01*
X23303000Y11160000D02*
G75*
G03*
X22603000Y10460000I0J-700000D01*
G01*
X25403000Y10460000D02*
G75*
G03*
X24703000Y11160000I-700000J0D01*
G01*
X24703000Y9160000D02*
G75*
G03*
X25403000Y9860000I0J700000D01*
G01*
X22409000Y18980000D02*
X22709000Y18680000D01*
X22709000Y19280000D02*
X22709000Y18680000D01*
X22409000Y18980000D02*
X22709000Y19280000D01*
X21509000Y19830000D02*
X20909000Y19830000D01*
X22209000Y16380000D02*
X22209000Y19180000D01*
X20909000Y15730000D02*
X21509000Y15730000D01*
X20209000Y19180000D02*
X20209000Y16380000D01*
X20209000Y16430000D02*
G75*
G03*
X20909000Y15730000I700000J0D01*
G01*
X21509000Y15730000D02*
G75*
G03*
X22209000Y16430000I0J700000D01*
G01*
X22209000Y19130000D02*
G75*
G03*
X21509000Y19830000I-700000J0D01*
G01*
X20909000Y19830000D02*
G75*
G03*
X20209000Y19130000I0J-700000D01*
G01*
X16195000Y10284000D02*
X16795000Y10284000D01*
X15495000Y12384000D02*
X15495000Y10984000D01*
X16795000Y13084000D02*
X16195000Y13084000D01*
X17495000Y10984000D02*
X17495000Y12384000D01*
X17495000Y12384000D02*
G75*
G03*
X16795000Y13084000I-700000J0D01*
G01*
X16195000Y13084000D02*
G75*
G03*
X15495000Y12384000I0J-700000D01*
G01*
X15495000Y10984000D02*
G75*
G03*
X16195000Y10284000I700000J0D01*
G01*
X16795000Y10284000D02*
G75*
G03*
X17495000Y10984000I0J700000D01*
G01*
X19415000Y10984000D02*
X19415000Y12384000D01*
X18715000Y13084000D02*
X18115000Y13084000D01*
X17415000Y12384000D02*
X17415000Y10984000D01*
X18115000Y10284000D02*
X18715000Y10284000D01*
X18715000Y10284000D02*
G75*
G03*
X19415000Y10984000I0J700000D01*
G01*
X17415000Y10984000D02*
G75*
G03*
X18115000Y10284000I700000J0D01*
G01*
X18115000Y13084000D02*
G75*
G03*
X17415000Y12384000I0J-700000D01*
G01*
X19415000Y12384000D02*
G75*
G03*
X18715000Y13084000I-700000J0D01*
G01*
X20147000Y10284000D02*
X20747000Y10284000D01*
X19447000Y12384000D02*
X19447000Y10984000D01*
X20747000Y13084000D02*
X20147000Y13084000D01*
X21447000Y10984000D02*
X21447000Y12384000D01*
X21447000Y12384000D02*
G75*
G03*
X20747000Y13084000I-700000J0D01*
G01*
X20147000Y13084000D02*
G75*
G03*
X19447000Y12384000I0J-700000D01*
G01*
X19447000Y10984000D02*
G75*
G03*
X20147000Y10284000I700000J0D01*
G01*
X20747000Y10284000D02*
G75*
G03*
X21447000Y10984000I0J700000D01*
G01*
X21447000Y3364000D02*
X21447000Y4764000D01*
X20747000Y5464000D02*
X20147000Y5464000D01*
X19447000Y4764000D02*
X19447000Y3364000D01*
X20147000Y2664000D02*
X20747000Y2664000D01*
X20747000Y2664000D02*
G75*
G03*
X21447000Y3364000I0J700000D01*
G01*
X19447000Y3364000D02*
G75*
G03*
X20147000Y2664000I700000J0D01*
G01*
X20147000Y5464000D02*
G75*
G03*
X19447000Y4764000I0J-700000D01*
G01*
X21447000Y4764000D02*
G75*
G03*
X20747000Y5464000I-700000J0D01*
G01*
X18115000Y2664000D02*
X18715000Y2664000D01*
X17415000Y4764000D02*
X17415000Y3364000D01*
X18715000Y5464000D02*
X18115000Y5464000D01*
X19415000Y3364000D02*
X19415000Y4764000D01*
X19415000Y4764000D02*
G75*
G03*
X18715000Y5464000I-700000J0D01*
G01*
X18115000Y5464000D02*
G75*
G03*
X17415000Y4764000I0J-700000D01*
G01*
X17415000Y3364000D02*
G75*
G03*
X18115000Y2664000I700000J0D01*
G01*
X18715000Y2664000D02*
G75*
G03*
X19415000Y3364000I0J700000D01*
G01*
X17495000Y3364000D02*
X17495000Y4764000D01*
X16795000Y5464000D02*
X16195000Y5464000D01*
X15495000Y4764000D02*
X15495000Y3364000D01*
X16195000Y2664000D02*
X16795000Y2664000D01*
X16795000Y2664000D02*
G75*
G03*
X17495000Y3364000I0J700000D01*
G01*
X15495000Y3364000D02*
G75*
G03*
X16195000Y2664000I700000J0D01*
G01*
X16195000Y5464000D02*
G75*
G03*
X15495000Y4764000I0J-700000D01*
G01*
X17495000Y4764000D02*
G75*
G03*
X16795000Y5464000I-700000J0D01*
G01*
X16653000Y24260000D02*
X16653000Y21460000D01*
X17353000Y20810000D02*
X17953000Y20810000D01*
X18653000Y21460000D02*
X18653000Y24260000D01*
X17953000Y24910000D02*
X17353000Y24910000D01*
X18853000Y24060000D02*
X19153000Y24360000D01*
X19153000Y24360000D02*
X19153000Y23760000D01*
X18853000Y24060000D02*
X19153000Y23760000D01*
X17353000Y24910000D02*
G75*
G03*
X16653000Y24210000I0J-700000D01*
G01*
X18653000Y24210000D02*
G75*
G03*
X17953000Y24910000I-700000J0D01*
G01*
X17953000Y20810000D02*
G75*
G03*
X18653000Y21510000I0J700000D01*
G01*
X16653000Y21510000D02*
G75*
G03*
X17353000Y20810000I700000J0D01*
G01*
%TD*%
M02*
