%TF.GenerationSoftware,KiCad,Pcbnew,(5.1.6-0)*%
%TF.CreationDate,2022-05-03T23:10:05-07:00*%
%TF.ProjectId,talonsrx-enc-limit-ftc,74616c6f-6e73-4727-982d-656e632d6c69,rev?*%
%TF.SameCoordinates,PX695f190PY69fa208*%
%TF.FileFunction,Legend,Top*%
%TF.FilePolarity,Positive*%
%FSLAX46Y46*%
G04 Gerber Fmt 4.6, Leading zero omitted, Abs format (unit mm)*
G04 Created by KiCad (PCBNEW (5.1.6-0)) date 2022-05-03 23:10:05*
%MOMM*%
%LPD*%
G01*
G04 APERTURE LIST*
%ADD10C,0.120000*%
%ADD11C,0.150000*%
%ADD12C,0.100000*%
%ADD13C,0.010000*%
G04 APERTURE END LIST*
D10*
X17780000Y5080000D02*
X18034000Y5080000D01*
X17399000Y5461000D02*
X17780000Y5080000D01*
X17399000Y7366000D02*
X17399000Y5461000D01*
X16891000Y7874000D02*
X17399000Y7366000D01*
D11*
X17716571Y9453620D02*
X17383238Y9929810D01*
X17145142Y9453620D02*
X17145142Y10453620D01*
X17526095Y10453620D01*
X17621333Y10406000D01*
X17668952Y10358381D01*
X17716571Y10263143D01*
X17716571Y10120286D01*
X17668952Y10025048D01*
X17621333Y9977429D01*
X17526095Y9929810D01*
X17145142Y9929810D01*
X18145142Y9977429D02*
X18478476Y9977429D01*
X18621333Y9453620D02*
X18145142Y9453620D01*
X18145142Y10453620D01*
X18621333Y10453620D01*
X18907047Y10453620D02*
X19240380Y9453620D01*
X19573714Y10453620D01*
D10*
X21717000Y10033000D02*
X20066000Y10033000D01*
X20066000Y10033000D02*
X20066000Y14605000D01*
X20066000Y14605000D02*
X21717000Y14605000D01*
D12*
G36*
X22098000Y11938000D02*
G01*
X21717000Y11938000D01*
X21717000Y12700000D01*
X22098000Y12700000D01*
X22098000Y11938000D01*
G37*
X22098000Y11938000D02*
X21717000Y11938000D01*
X21717000Y12700000D01*
X22098000Y12700000D01*
X22098000Y11938000D01*
D10*
X21717000Y14605000D02*
X21717000Y10033000D01*
D12*
G36*
X4699000Y10414000D02*
G01*
X4318000Y10414000D01*
X4318000Y11176000D01*
X4699000Y11176000D01*
X4699000Y10414000D01*
G37*
X4699000Y10414000D02*
X4318000Y10414000D01*
X4318000Y11176000D01*
X4699000Y11176000D01*
X4699000Y10414000D01*
D10*
X4318000Y8509000D02*
X2667000Y8509000D01*
X2667000Y13081000D02*
X4318000Y13081000D01*
X4318000Y13081000D02*
X4318000Y8509000D01*
X2667000Y8509000D02*
X2667000Y13081000D01*
D12*
G36*
X4699000Y16891000D02*
G01*
X4318000Y16891000D01*
X4318000Y17653000D01*
X4699000Y17653000D01*
X4699000Y16891000D01*
G37*
X4699000Y16891000D02*
X4318000Y16891000D01*
X4318000Y17653000D01*
X4699000Y17653000D01*
X4699000Y16891000D01*
D10*
X2667000Y14986000D02*
X2667000Y19558000D01*
X4318000Y14986000D02*
X2667000Y14986000D01*
X4318000Y19558000D02*
X4318000Y14986000D01*
X2667000Y19558000D02*
X4318000Y19558000D01*
D11*
X20375619Y13902334D02*
X20851809Y14135667D01*
X20375619Y14302334D02*
X21375619Y14302334D01*
X21375619Y14035667D01*
X21328000Y13969000D01*
X21280380Y13935667D01*
X21185142Y13902334D01*
X21042285Y13902334D01*
X20947047Y13935667D01*
X20899428Y13969000D01*
X20851809Y14035667D01*
X20851809Y14302334D01*
X21328000Y12702334D02*
X21375619Y12769000D01*
X21375619Y12869000D01*
X21328000Y12969000D01*
X21232761Y13035667D01*
X21137523Y13069000D01*
X20947047Y13102334D01*
X20804190Y13102334D01*
X20613714Y13069000D01*
X20518476Y13035667D01*
X20423238Y12969000D01*
X20375619Y12869000D01*
X20375619Y12802334D01*
X20423238Y12702334D01*
X20470857Y12669000D01*
X20804190Y12669000D01*
X20804190Y12802334D01*
X21328000Y11469000D02*
X21375619Y11535667D01*
X21375619Y11635667D01*
X21328000Y11735667D01*
X21232761Y11802334D01*
X21137523Y11835667D01*
X20947047Y11869000D01*
X20804190Y11869000D01*
X20613714Y11835667D01*
X20518476Y11802334D01*
X20423238Y11735667D01*
X20375619Y11635667D01*
X20375619Y11569000D01*
X20423238Y11469000D01*
X20470857Y11435667D01*
X20804190Y11435667D01*
X20804190Y11569000D01*
X20899428Y10369000D02*
X20899428Y10602334D01*
X20375619Y10602334D02*
X21375619Y10602334D01*
X21375619Y10269000D01*
X3500428Y18972000D02*
X3452809Y18872000D01*
X3405190Y18838667D01*
X3309952Y18805334D01*
X3167095Y18805334D01*
X3071857Y18838667D01*
X3024238Y18872000D01*
X2976619Y18938667D01*
X2976619Y19205334D01*
X3976619Y19205334D01*
X3976619Y18972000D01*
X3929000Y18905334D01*
X3881380Y18872000D01*
X3786142Y18838667D01*
X3690904Y18838667D01*
X3595666Y18872000D01*
X3548047Y18905334D01*
X3500428Y18972000D01*
X3500428Y19205334D01*
X3262333Y18005334D02*
X3262333Y17672000D01*
X2976619Y18072000D02*
X3976619Y17838667D01*
X2976619Y17605334D01*
X3976619Y16938667D02*
X2976619Y16705334D01*
X3976619Y16472000D01*
X3929000Y15338667D02*
X3976619Y15405334D01*
X3976619Y15505334D01*
X3929000Y15605334D01*
X3833761Y15672000D01*
X3738523Y15705334D01*
X3548047Y15738667D01*
X3405190Y15738667D01*
X3214714Y15705334D01*
X3119476Y15672000D01*
X3024238Y15605334D01*
X2976619Y15505334D01*
X2976619Y15438667D01*
X3024238Y15338667D01*
X3071857Y15305334D01*
X3405190Y15305334D01*
X3405190Y15438667D01*
X3976619Y12611667D02*
X3976619Y12545000D01*
X3929000Y12478334D01*
X3881380Y12445000D01*
X3786142Y12411667D01*
X3595666Y12378334D01*
X3357571Y12378334D01*
X3167095Y12411667D01*
X3071857Y12445000D01*
X3024238Y12478334D01*
X2976619Y12545000D01*
X2976619Y12611667D01*
X3024238Y12678334D01*
X3071857Y12711667D01*
X3167095Y12745000D01*
X3357571Y12778334D01*
X3595666Y12778334D01*
X3786142Y12745000D01*
X3881380Y12711667D01*
X3929000Y12678334D01*
X3976619Y12611667D01*
X2976619Y11178334D02*
X2976619Y11578334D01*
X2976619Y11378334D02*
X3976619Y11378334D01*
X3833761Y11445000D01*
X3738523Y11511667D01*
X3690904Y11578334D01*
X3976619Y10445000D02*
X2976619Y10211667D01*
X3976619Y9978334D01*
X3929000Y8845000D02*
X3976619Y8911667D01*
X3976619Y9011667D01*
X3929000Y9111667D01*
X3833761Y9178334D01*
X3738523Y9211667D01*
X3548047Y9245000D01*
X3405190Y9245000D01*
X3214714Y9211667D01*
X3119476Y9178334D01*
X3024238Y9111667D01*
X2976619Y9011667D01*
X2976619Y8945000D01*
X3024238Y8845000D01*
X3071857Y8811667D01*
X3405190Y8811667D01*
X3405190Y8945000D01*
X30670619Y27058429D02*
X30813476Y27010810D01*
X30861095Y26963191D01*
X30908714Y26867953D01*
X30908714Y26725096D01*
X30861095Y26629858D01*
X30813476Y26582239D01*
X30718238Y26534620D01*
X30337285Y26534620D01*
X30337285Y27534620D01*
X30670619Y27534620D01*
X30765857Y27487000D01*
X30813476Y27439381D01*
X30861095Y27344143D01*
X30861095Y27248905D01*
X30813476Y27153667D01*
X30765857Y27106048D01*
X30670619Y27058429D01*
X30337285Y27058429D01*
X32051571Y27582239D02*
X31194428Y26296524D01*
X32956333Y26629858D02*
X32908714Y26582239D01*
X32765857Y26534620D01*
X32670619Y26534620D01*
X32527761Y26582239D01*
X32432523Y26677477D01*
X32384904Y26772715D01*
X32337285Y26963191D01*
X32337285Y27106048D01*
X32384904Y27296524D01*
X32432523Y27391762D01*
X32527761Y27487000D01*
X32670619Y27534620D01*
X32765857Y27534620D01*
X32908714Y27487000D01*
X32956333Y27439381D01*
X31099190Y24979858D02*
X31051571Y24932239D01*
X30908714Y24884620D01*
X30813476Y24884620D01*
X30670619Y24932239D01*
X30575380Y25027477D01*
X30527761Y25122715D01*
X30480142Y25313191D01*
X30480142Y25456048D01*
X30527761Y25646524D01*
X30575380Y25741762D01*
X30670619Y25837000D01*
X30813476Y25884620D01*
X30908714Y25884620D01*
X31051571Y25837000D01*
X31099190Y25789381D01*
X31480142Y25170334D02*
X31956333Y25170334D01*
X31384904Y24884620D02*
X31718238Y25884620D01*
X32051571Y24884620D01*
X32861095Y24884620D02*
X32384904Y24884620D01*
X32384904Y25884620D01*
X29273571Y16057620D02*
X28940238Y16533810D01*
X28702142Y16057620D02*
X28702142Y17057620D01*
X29083095Y17057620D01*
X29178333Y17010000D01*
X29225952Y16962381D01*
X29273571Y16867143D01*
X29273571Y16724286D01*
X29225952Y16629048D01*
X29178333Y16581429D01*
X29083095Y16533810D01*
X28702142Y16533810D01*
X29702142Y16581429D02*
X30035476Y16581429D01*
X30178333Y16057620D02*
X29702142Y16057620D01*
X29702142Y17057620D01*
X30178333Y17057620D01*
X30464047Y17057620D02*
X30797380Y16057620D01*
X31130714Y17057620D01*
X25106428Y16581429D02*
X24773095Y16581429D01*
X24773095Y16057620D02*
X24773095Y17057620D01*
X25249285Y17057620D01*
X25535000Y17057620D02*
X25773095Y16057620D01*
X25963571Y16771905D01*
X26154047Y16057620D01*
X26392142Y17057620D01*
X26773095Y16057620D02*
X26773095Y17057620D01*
X27011190Y17057620D01*
X27154047Y17010000D01*
X27249285Y16914762D01*
X27296904Y16819524D01*
X27344523Y16629048D01*
X27344523Y16486191D01*
X27296904Y16295715D01*
X27249285Y16200477D01*
X27154047Y16105239D01*
X27011190Y16057620D01*
X26773095Y16057620D01*
X43092619Y20970000D02*
X43092619Y20398572D01*
X42092619Y20684286D02*
X43092619Y20684286D01*
X42092619Y19636667D02*
X42616428Y19636667D01*
X42711666Y19684286D01*
X42759285Y19779524D01*
X42759285Y19970000D01*
X42711666Y20065239D01*
X42140238Y19636667D02*
X42092619Y19731905D01*
X42092619Y19970000D01*
X42140238Y20065239D01*
X42235476Y20112858D01*
X42330714Y20112858D01*
X42425952Y20065239D01*
X42473571Y19970000D01*
X42473571Y19731905D01*
X42521190Y19636667D01*
X42092619Y19017620D02*
X42140238Y19112858D01*
X42235476Y19160477D01*
X43092619Y19160477D01*
X42092619Y18493810D02*
X42140238Y18589048D01*
X42187857Y18636667D01*
X42283095Y18684286D01*
X42568809Y18684286D01*
X42664047Y18636667D01*
X42711666Y18589048D01*
X42759285Y18493810D01*
X42759285Y18350953D01*
X42711666Y18255715D01*
X42664047Y18208096D01*
X42568809Y18160477D01*
X42283095Y18160477D01*
X42187857Y18208096D01*
X42140238Y18255715D01*
X42092619Y18350953D01*
X42092619Y18493810D01*
X42759285Y17731905D02*
X42092619Y17731905D01*
X42664047Y17731905D02*
X42711666Y17684286D01*
X42759285Y17589048D01*
X42759285Y17446191D01*
X42711666Y17350953D01*
X42616428Y17303334D01*
X42092619Y17303334D01*
X42140238Y16874762D02*
X42092619Y16731905D01*
X42092619Y16493810D01*
X42140238Y16398572D01*
X42187857Y16350953D01*
X42283095Y16303334D01*
X42378333Y16303334D01*
X42473571Y16350953D01*
X42521190Y16398572D01*
X42568809Y16493810D01*
X42616428Y16684286D01*
X42664047Y16779524D01*
X42711666Y16827143D01*
X42806904Y16874762D01*
X42902142Y16874762D01*
X42997380Y16827143D01*
X43045000Y16779524D01*
X43092619Y16684286D01*
X43092619Y16446191D01*
X43045000Y16303334D01*
X42092619Y15303334D02*
X42568809Y15636667D01*
X42092619Y15874762D02*
X43092619Y15874762D01*
X43092619Y15493810D01*
X43045000Y15398572D01*
X42997380Y15350953D01*
X42902142Y15303334D01*
X42759285Y15303334D01*
X42664047Y15350953D01*
X42616428Y15398572D01*
X42568809Y15493810D01*
X42568809Y15874762D01*
X43092619Y14970000D02*
X42092619Y14303334D01*
X43092619Y14303334D02*
X42092619Y14970000D01*
X42616428Y13160477D02*
X42616428Y12827143D01*
X42092619Y12684286D02*
X42092619Y13160477D01*
X43092619Y13160477D01*
X43092619Y12684286D01*
X42759285Y12255715D02*
X42092619Y12255715D01*
X42664047Y12255715D02*
X42711666Y12208096D01*
X42759285Y12112858D01*
X42759285Y11970000D01*
X42711666Y11874762D01*
X42616428Y11827143D01*
X42092619Y11827143D01*
X42140238Y10922381D02*
X42092619Y11017620D01*
X42092619Y11208096D01*
X42140238Y11303334D01*
X42187857Y11350953D01*
X42283095Y11398572D01*
X42568809Y11398572D01*
X42664047Y11350953D01*
X42711666Y11303334D01*
X42759285Y11208096D01*
X42759285Y11017620D01*
X42711666Y10922381D01*
X42473571Y10493810D02*
X42473571Y9731905D01*
X42092619Y10112858D02*
X42854523Y10112858D01*
X42092619Y8779524D02*
X42092619Y9255715D01*
X43092619Y9255715D01*
X42092619Y8446191D02*
X42759285Y8446191D01*
X43092619Y8446191D02*
X43045000Y8493810D01*
X42997380Y8446191D01*
X43045000Y8398572D01*
X43092619Y8446191D01*
X42997380Y8446191D01*
X42092619Y7970000D02*
X42759285Y7970000D01*
X42664047Y7970000D02*
X42711666Y7922381D01*
X42759285Y7827143D01*
X42759285Y7684286D01*
X42711666Y7589048D01*
X42616428Y7541429D01*
X42092619Y7541429D01*
X42616428Y7541429D02*
X42711666Y7493810D01*
X42759285Y7398572D01*
X42759285Y7255715D01*
X42711666Y7160477D01*
X42616428Y7112858D01*
X42092619Y7112858D01*
X18859523Y26582620D02*
X18383333Y26582620D01*
X18335714Y26106429D01*
X18383333Y26154048D01*
X18478571Y26201667D01*
X18716666Y26201667D01*
X18811904Y26154048D01*
X18859523Y26106429D01*
X18907142Y26011191D01*
X18907142Y25773096D01*
X18859523Y25677858D01*
X18811904Y25630239D01*
X18716666Y25582620D01*
X18478571Y25582620D01*
X18383333Y25630239D01*
X18335714Y25677858D01*
X19192857Y26582620D02*
X19526190Y25582620D01*
X19859523Y26582620D01*
X17811904Y20232620D02*
X18430952Y20232620D01*
X18097619Y19851667D01*
X18240476Y19851667D01*
X18335714Y19804048D01*
X18383333Y19756429D01*
X18430952Y19661191D01*
X18430952Y19423096D01*
X18383333Y19327858D01*
X18335714Y19280239D01*
X18240476Y19232620D01*
X17954761Y19232620D01*
X17859523Y19280239D01*
X17811904Y19327858D01*
X18716666Y20232620D02*
X19050000Y19232620D01*
X19383333Y20232620D01*
X19621428Y20232620D02*
X20240476Y20232620D01*
X19907142Y19851667D01*
X20050000Y19851667D01*
X20145238Y19804048D01*
X20192857Y19756429D01*
X20240476Y19661191D01*
X20240476Y19423096D01*
X20192857Y19327858D01*
X20145238Y19280239D01*
X20050000Y19232620D01*
X19764285Y19232620D01*
X19669047Y19280239D01*
X19621428Y19327858D01*
X18351571Y7675620D02*
X18018238Y8151810D01*
X17780142Y7675620D02*
X17780142Y8675620D01*
X18161095Y8675620D01*
X18256333Y8628000D01*
X18303952Y8580381D01*
X18351571Y8485143D01*
X18351571Y8342286D01*
X18303952Y8247048D01*
X18256333Y8199429D01*
X18161095Y8151810D01*
X17780142Y8151810D01*
X18780142Y8199429D02*
X19113476Y8199429D01*
X19256333Y7675620D02*
X18780142Y7675620D01*
X18780142Y8675620D01*
X19256333Y8675620D01*
X19542047Y8675620D02*
X19875380Y7675620D01*
X20208714Y8675620D01*
X18121428Y1976429D02*
X17788095Y1976429D01*
X17788095Y1452620D02*
X17788095Y2452620D01*
X18264285Y2452620D01*
X18550000Y2452620D02*
X18788095Y1452620D01*
X18978571Y2166905D01*
X19169047Y1452620D01*
X19407142Y2452620D01*
X19788095Y1452620D02*
X19788095Y2452620D01*
X20026190Y2452620D01*
X20169047Y2405000D01*
X20264285Y2309762D01*
X20311904Y2214524D01*
X20359523Y2024048D01*
X20359523Y1881191D01*
X20311904Y1690715D01*
X20264285Y1595477D01*
X20169047Y1500239D01*
X20026190Y1452620D01*
X19788095Y1452620D01*
X5389619Y23415143D02*
X5865809Y23748477D01*
X5389619Y23986572D02*
X6389619Y23986572D01*
X6389619Y23605620D01*
X6342000Y23510381D01*
X6294380Y23462762D01*
X6199142Y23415143D01*
X6056285Y23415143D01*
X5961047Y23462762D01*
X5913428Y23510381D01*
X5865809Y23605620D01*
X5865809Y23986572D01*
X5437238Y22605620D02*
X5389619Y22700858D01*
X5389619Y22891334D01*
X5437238Y22986572D01*
X5532476Y23034191D01*
X5913428Y23034191D01*
X6008666Y22986572D01*
X6056285Y22891334D01*
X6056285Y22700858D01*
X6008666Y22605620D01*
X5913428Y22558000D01*
X5818190Y22558000D01*
X5722952Y23034191D01*
X6056285Y22224667D02*
X5389619Y21986572D01*
X6056285Y21748477D01*
X5913428Y20605620D02*
X5913428Y20272286D01*
X5389619Y20129429D02*
X5389619Y20605620D01*
X6389619Y20605620D01*
X6389619Y20129429D01*
X6056285Y19700858D02*
X5389619Y19700858D01*
X5961047Y19700858D02*
X6008666Y19653239D01*
X6056285Y19558000D01*
X6056285Y19415143D01*
X6008666Y19319905D01*
X5913428Y19272286D01*
X5389619Y19272286D01*
X5437238Y18367524D02*
X5389619Y18462762D01*
X5389619Y18653239D01*
X5437238Y18748477D01*
X5484857Y18796096D01*
X5580095Y18843715D01*
X5865809Y18843715D01*
X5961047Y18796096D01*
X6008666Y18748477D01*
X6056285Y18653239D01*
X6056285Y18462762D01*
X6008666Y18367524D01*
X5389619Y17796096D02*
X5437238Y17891334D01*
X5484857Y17938953D01*
X5580095Y17986572D01*
X5865809Y17986572D01*
X5961047Y17938953D01*
X6008666Y17891334D01*
X6056285Y17796096D01*
X6056285Y17653239D01*
X6008666Y17558000D01*
X5961047Y17510381D01*
X5865809Y17462762D01*
X5580095Y17462762D01*
X5484857Y17510381D01*
X5437238Y17558000D01*
X5389619Y17653239D01*
X5389619Y17796096D01*
X5389619Y16605620D02*
X6389619Y16605620D01*
X5437238Y16605620D02*
X5389619Y16700858D01*
X5389619Y16891334D01*
X5437238Y16986572D01*
X5484857Y17034191D01*
X5580095Y17081810D01*
X5865809Y17081810D01*
X5961047Y17034191D01*
X6008666Y16986572D01*
X6056285Y16891334D01*
X6056285Y16700858D01*
X6008666Y16605620D01*
X5437238Y15748477D02*
X5389619Y15843715D01*
X5389619Y16034191D01*
X5437238Y16129429D01*
X5532476Y16177048D01*
X5913428Y16177048D01*
X6008666Y16129429D01*
X6056285Y16034191D01*
X6056285Y15843715D01*
X6008666Y15748477D01*
X5913428Y15700858D01*
X5818190Y15700858D01*
X5722952Y16177048D01*
X5389619Y15272286D02*
X6056285Y15272286D01*
X5865809Y15272286D02*
X5961047Y15224667D01*
X6008666Y15177048D01*
X6056285Y15081810D01*
X6056285Y14986572D01*
X5389619Y12516905D02*
X5865809Y12850239D01*
X5389619Y13088334D02*
X6389619Y13088334D01*
X6389619Y12707381D01*
X6342000Y12612143D01*
X6294380Y12564524D01*
X6199142Y12516905D01*
X6056285Y12516905D01*
X5961047Y12564524D01*
X5913428Y12612143D01*
X5865809Y12707381D01*
X5865809Y13088334D01*
X5437238Y11707381D02*
X5389619Y11802620D01*
X5389619Y11993096D01*
X5437238Y12088334D01*
X5532476Y12135953D01*
X5913428Y12135953D01*
X6008666Y12088334D01*
X6056285Y11993096D01*
X6056285Y11802620D01*
X6008666Y11707381D01*
X5913428Y11659762D01*
X5818190Y11659762D01*
X5722952Y12135953D01*
X6056285Y11326429D02*
X5389619Y11088334D01*
X6056285Y10850239D01*
X5389619Y9707381D02*
X6389619Y9707381D01*
X6389619Y9040715D02*
X6389619Y8850239D01*
X6342000Y8755000D01*
X6246761Y8659762D01*
X6056285Y8612143D01*
X5722952Y8612143D01*
X5532476Y8659762D01*
X5437238Y8755000D01*
X5389619Y8850239D01*
X5389619Y9040715D01*
X5437238Y9135953D01*
X5532476Y9231191D01*
X5722952Y9278810D01*
X6056285Y9278810D01*
X6246761Y9231191D01*
X6342000Y9135953D01*
X6389619Y9040715D01*
X5389619Y6945477D02*
X5389619Y7421667D01*
X6389619Y7421667D01*
X5389619Y6612143D02*
X6056285Y6612143D01*
X6389619Y6612143D02*
X6342000Y6659762D01*
X6294380Y6612143D01*
X6342000Y6564524D01*
X6389619Y6612143D01*
X6294380Y6612143D01*
X5389619Y6135953D02*
X6056285Y6135953D01*
X5961047Y6135953D02*
X6008666Y6088334D01*
X6056285Y5993096D01*
X6056285Y5850239D01*
X6008666Y5755000D01*
X5913428Y5707381D01*
X5389619Y5707381D01*
X5913428Y5707381D02*
X6008666Y5659762D01*
X6056285Y5564524D01*
X6056285Y5421667D01*
X6008666Y5326429D01*
X5913428Y5278810D01*
X5389619Y5278810D01*
X5389619Y4802620D02*
X6056285Y4802620D01*
X6389619Y4802620D02*
X6342000Y4850239D01*
X6294380Y4802620D01*
X6342000Y4755000D01*
X6389619Y4802620D01*
X6294380Y4802620D01*
X6056285Y4469286D02*
X6056285Y4088334D01*
X6389619Y4326429D02*
X5532476Y4326429D01*
X5437238Y4278810D01*
X5389619Y4183572D01*
X5389619Y4088334D01*
X5437238Y3802620D02*
X5389619Y3707381D01*
X5389619Y3516905D01*
X5437238Y3421667D01*
X5532476Y3374048D01*
X5580095Y3374048D01*
X5675333Y3421667D01*
X5722952Y3516905D01*
X5722952Y3659762D01*
X5770571Y3755000D01*
X5865809Y3802620D01*
X5913428Y3802620D01*
X6008666Y3755000D01*
X6056285Y3659762D01*
X6056285Y3516905D01*
X6008666Y3421667D01*
X22931428Y14048810D02*
X22931428Y14382143D01*
X22407619Y14382143D02*
X23407619Y14382143D01*
X23407619Y13905953D01*
X22407619Y13096429D02*
X22931428Y13096429D01*
X23026666Y13144048D01*
X23074285Y13239286D01*
X23074285Y13429762D01*
X23026666Y13525000D01*
X22455238Y13096429D02*
X22407619Y13191667D01*
X22407619Y13429762D01*
X22455238Y13525000D01*
X22550476Y13572620D01*
X22645714Y13572620D01*
X22740952Y13525000D01*
X22788571Y13429762D01*
X22788571Y13191667D01*
X22836190Y13096429D01*
X22407619Y12477381D02*
X22455238Y12572620D01*
X22550476Y12620239D01*
X23407619Y12620239D01*
X22455238Y11667858D02*
X22407619Y11763096D01*
X22407619Y11953572D01*
X22455238Y12048810D01*
X22502857Y12096429D01*
X22598095Y12144048D01*
X22883809Y12144048D01*
X22979047Y12096429D01*
X23026666Y12048810D01*
X23074285Y11953572D01*
X23074285Y11763096D01*
X23026666Y11667858D01*
X22407619Y11096429D02*
X22455238Y11191667D01*
X22502857Y11239286D01*
X22598095Y11286905D01*
X22883809Y11286905D01*
X22979047Y11239286D01*
X23026666Y11191667D01*
X23074285Y11096429D01*
X23074285Y10953572D01*
X23026666Y10858334D01*
X22979047Y10810715D01*
X22883809Y10763096D01*
X22598095Y10763096D01*
X22502857Y10810715D01*
X22455238Y10858334D01*
X22407619Y10953572D01*
X22407619Y11096429D01*
X23074285Y10334524D02*
X22407619Y10334524D01*
X22979047Y10334524D02*
X23026666Y10286905D01*
X23074285Y10191667D01*
X23074285Y10048810D01*
X23026666Y9953572D01*
X22931428Y9905953D01*
X22407619Y9905953D01*
X22407619Y8191667D02*
X22407619Y8667858D01*
X23407619Y8667858D01*
X22407619Y7858334D02*
X23074285Y7858334D01*
X23407619Y7858334D02*
X23360000Y7905953D01*
X23312380Y7858334D01*
X23360000Y7810715D01*
X23407619Y7858334D01*
X23312380Y7858334D01*
X22407619Y7382143D02*
X23074285Y7382143D01*
X22979047Y7382143D02*
X23026666Y7334524D01*
X23074285Y7239286D01*
X23074285Y7096429D01*
X23026666Y7001191D01*
X22931428Y6953572D01*
X22407619Y6953572D01*
X22931428Y6953572D02*
X23026666Y6905953D01*
X23074285Y6810715D01*
X23074285Y6667858D01*
X23026666Y6572620D01*
X22931428Y6525000D01*
X22407619Y6525000D01*
X22407619Y6048810D02*
X23074285Y6048810D01*
X23407619Y6048810D02*
X23360000Y6096429D01*
X23312380Y6048810D01*
X23360000Y6001191D01*
X23407619Y6048810D01*
X23312380Y6048810D01*
X23074285Y5715477D02*
X23074285Y5334524D01*
X23407619Y5572620D02*
X22550476Y5572620D01*
X22455238Y5525000D01*
X22407619Y5429762D01*
X22407619Y5334524D01*
X22455238Y5048810D02*
X22407619Y4953572D01*
X22407619Y4763096D01*
X22455238Y4667858D01*
X22550476Y4620239D01*
X22598095Y4620239D01*
X22693333Y4667858D01*
X22740952Y4763096D01*
X22740952Y4905953D01*
X22788571Y5001191D01*
X22883809Y5048810D01*
X22931428Y5048810D01*
X23026666Y5001191D01*
X23074285Y4905953D01*
X23074285Y4763096D01*
X23026666Y4667858D01*
D13*
%TO.C,G\u002A\u002A\u002A*%
G36*
X37576899Y15173977D02*
G01*
X37571804Y15150461D01*
X37567897Y15142806D01*
X37557950Y15124712D01*
X37542279Y15096732D01*
X37521202Y15059419D01*
X37495036Y15013329D01*
X37464099Y14959014D01*
X37428707Y14897030D01*
X37389177Y14827930D01*
X37345827Y14752268D01*
X37298974Y14670599D01*
X37248935Y14583475D01*
X37196028Y14491452D01*
X37140568Y14395083D01*
X37082875Y14294923D01*
X37023264Y14191525D01*
X36972388Y14103350D01*
X36887767Y13956838D01*
X36809393Y13821344D01*
X36737247Y13696836D01*
X36671312Y13583285D01*
X36611570Y13480660D01*
X36558003Y13388931D01*
X36510594Y13308069D01*
X36469325Y13238041D01*
X36434178Y13178819D01*
X36405134Y13130372D01*
X36382177Y13092669D01*
X36365289Y13065681D01*
X36354452Y13049376D01*
X36350968Y13044845D01*
X36324709Y13019763D01*
X36297183Y13003178D01*
X36286571Y12998807D01*
X36282259Y12997236D01*
X36277718Y12995796D01*
X36272403Y12994482D01*
X36265765Y12993287D01*
X36257259Y12992207D01*
X36246338Y12991236D01*
X36232455Y12990367D01*
X36215063Y12989595D01*
X36193615Y12988914D01*
X36167565Y12988319D01*
X36136366Y12987803D01*
X36099471Y12987362D01*
X36056333Y12986989D01*
X36006406Y12986678D01*
X35949143Y12986425D01*
X35883997Y12986222D01*
X35810421Y12986065D01*
X35727868Y12985947D01*
X35635793Y12985863D01*
X35533647Y12985807D01*
X35420885Y12985774D01*
X35296959Y12985757D01*
X35161323Y12985751D01*
X35042475Y12985750D01*
X34896931Y12985752D01*
X34763541Y12985761D01*
X34641757Y12985782D01*
X34531033Y12985821D01*
X34430824Y12985885D01*
X34340581Y12985978D01*
X34259760Y12986106D01*
X34187812Y12986275D01*
X34124192Y12986490D01*
X34068353Y12986757D01*
X34019749Y12987082D01*
X33977833Y12987471D01*
X33942057Y12987928D01*
X33911877Y12988460D01*
X33886745Y12989072D01*
X33866115Y12989770D01*
X33849440Y12990559D01*
X33836174Y12991445D01*
X33825770Y12992435D01*
X33817681Y12993532D01*
X33811362Y12994744D01*
X33806264Y12996075D01*
X33801843Y12997531D01*
X33799033Y12998563D01*
X33767019Y13015169D01*
X33738572Y13038147D01*
X33738470Y13038250D01*
X33732272Y13046413D01*
X33721128Y13063336D01*
X33704941Y13089187D01*
X33683611Y13124134D01*
X33657040Y13168345D01*
X33625129Y13221986D01*
X33587781Y13285226D01*
X33544896Y13358233D01*
X33496375Y13441173D01*
X33442121Y13534215D01*
X33382034Y13637526D01*
X33316017Y13751274D01*
X33243970Y13875626D01*
X33165794Y14010751D01*
X33117779Y14093825D01*
X33056636Y14199696D01*
X32997135Y14302820D01*
X32939592Y14402643D01*
X32884327Y14498610D01*
X32831657Y14590165D01*
X32781899Y14676754D01*
X32735373Y14757822D01*
X32692394Y14832813D01*
X32653282Y14901174D01*
X32618355Y14962347D01*
X32587929Y15015779D01*
X32562324Y15060915D01*
X32541857Y15097199D01*
X32526845Y15124077D01*
X32517607Y15140993D01*
X32514528Y15147136D01*
X32506573Y15184286D01*
X32506567Y15225292D01*
X32514243Y15264433D01*
X32520765Y15281275D01*
X32527116Y15293477D01*
X32539338Y15315715D01*
X32557048Y15347330D01*
X32579861Y15387659D01*
X32607395Y15436042D01*
X32639264Y15491816D01*
X32675085Y15554321D01*
X32714475Y15622894D01*
X32757049Y15696875D01*
X32802423Y15775603D01*
X32850214Y15858415D01*
X32900038Y15944650D01*
X32951511Y16033646D01*
X33004248Y16124744D01*
X33057867Y16217280D01*
X33111982Y16310594D01*
X33166211Y16404024D01*
X33220170Y16496908D01*
X33273474Y16588586D01*
X33325740Y16678395D01*
X33376583Y16765676D01*
X33425621Y16849765D01*
X33472468Y16930001D01*
X33516742Y17005724D01*
X33558058Y17076271D01*
X33596033Y17140982D01*
X33630281Y17199194D01*
X33660421Y17250247D01*
X33686068Y17293479D01*
X33706837Y17328229D01*
X33722345Y17353834D01*
X33732209Y17369635D01*
X33735801Y17374796D01*
X33755569Y17391563D01*
X33779790Y17407253D01*
X33790844Y17412896D01*
X33823275Y17427575D01*
X35048825Y17427575D01*
X35048825Y17090499D01*
X34991748Y17090377D01*
X34945147Y17089936D01*
X34906802Y17089061D01*
X34874490Y17087640D01*
X34845989Y17085559D01*
X34819080Y17082705D01*
X34791539Y17078965D01*
X34775775Y17076560D01*
X34619564Y17045900D01*
X34468686Y17003787D01*
X34323348Y16950320D01*
X34183751Y16885594D01*
X34050100Y16809708D01*
X33922600Y16722759D01*
X33801454Y16624843D01*
X33770237Y16596884D01*
X33660973Y16488433D01*
X33561745Y16372329D01*
X33472757Y16248959D01*
X33394213Y16118707D01*
X33326318Y15981960D01*
X33269275Y15839103D01*
X33223289Y15690522D01*
X33188562Y15536602D01*
X33178569Y15478125D01*
X33172538Y15433821D01*
X33169988Y15396510D01*
X33171026Y15361241D01*
X33175761Y15323061D01*
X33182808Y15284450D01*
X33208388Y15185239D01*
X33245529Y15084461D01*
X33293359Y14983163D01*
X33351012Y14882392D01*
X33417618Y14783194D01*
X33492309Y14686616D01*
X33574215Y14593705D01*
X33662468Y14505506D01*
X33756200Y14423068D01*
X33854541Y14347437D01*
X33956622Y14279658D01*
X34061576Y14220780D01*
X34068674Y14217186D01*
X34155506Y14178223D01*
X34252701Y14143032D01*
X34358402Y14111937D01*
X34470750Y14085264D01*
X34587885Y14063338D01*
X34707950Y14046484D01*
X34829084Y14035026D01*
X34949429Y14029289D01*
X35067126Y14029599D01*
X35126669Y14032257D01*
X35251249Y14042614D01*
X35369902Y14058233D01*
X35481185Y14078838D01*
X35583658Y14104152D01*
X35675878Y14133899D01*
X35695269Y14141254D01*
X35722689Y14151436D01*
X35745971Y14159076D01*
X35762497Y14163381D01*
X35769445Y14163741D01*
X35775805Y14153849D01*
X35771633Y14139527D01*
X35757953Y14121616D01*
X35735785Y14100960D01*
X35706151Y14078401D01*
X35670075Y14054780D01*
X35628578Y14030941D01*
X35582683Y14007725D01*
X35576763Y14004944D01*
X35454080Y13954025D01*
X35323144Y13911369D01*
X35185515Y13877177D01*
X35042753Y13851652D01*
X34896419Y13834994D01*
X34748072Y13827404D01*
X34599272Y13829085D01*
X34451581Y13840238D01*
X34375725Y13849849D01*
X34230632Y13876481D01*
X34092714Y13913420D01*
X33961339Y13960957D01*
X33835873Y14019383D01*
X33715685Y14088987D01*
X33600141Y14170062D01*
X33501035Y14251806D01*
X33444197Y14307903D01*
X33388114Y14374566D01*
X33334540Y14449699D01*
X33331317Y14454625D01*
X33314471Y14480146D01*
X33300074Y14501280D01*
X33289529Y14516018D01*
X33284239Y14522349D01*
X33283999Y14522450D01*
X33284477Y14517067D01*
X33289869Y14502086D01*
X33299394Y14479260D01*
X33312267Y14450339D01*
X33327707Y14417076D01*
X33344930Y14381224D01*
X33363154Y14344535D01*
X33366084Y14338755D01*
X33397052Y14281524D01*
X33432728Y14221854D01*
X33471922Y14161313D01*
X33513445Y14101465D01*
X33556105Y14043876D01*
X33598711Y13990113D01*
X33640075Y13941740D01*
X33679004Y13900324D01*
X33714309Y13867430D01*
X33738799Y13848537D01*
X33798507Y13811745D01*
X33868604Y13775041D01*
X33946803Y13739275D01*
X34030814Y13705298D01*
X34118350Y13673960D01*
X34207124Y13646113D01*
X34294846Y13622606D01*
X34379229Y13604290D01*
X34410739Y13598737D01*
X34461376Y13592061D01*
X34521891Y13586745D01*
X34589527Y13582889D01*
X34661524Y13580595D01*
X34735125Y13579961D01*
X34807571Y13581089D01*
X34851374Y13582748D01*
X35013528Y13594041D01*
X35164854Y13611969D01*
X35305352Y13636532D01*
X35435023Y13667730D01*
X35553868Y13705563D01*
X35661887Y13750032D01*
X35759081Y13801137D01*
X35845451Y13858879D01*
X35877947Y13884648D01*
X35899272Y13901914D01*
X35917333Y13915577D01*
X35929729Y13923872D01*
X35933619Y13925550D01*
X35941963Y13921140D01*
X35942016Y13908589D01*
X35934278Y13888922D01*
X35919251Y13863161D01*
X35897438Y13832331D01*
X35872859Y13801620D01*
X35812769Y13739160D01*
X35741402Y13681012D01*
X35659511Y13627427D01*
X35567853Y13578657D01*
X35467182Y13534951D01*
X35358255Y13496563D01*
X35241825Y13463741D01*
X35118649Y13436738D01*
X34989480Y13415804D01*
X34855076Y13401190D01*
X34716190Y13393148D01*
X34639250Y13391623D01*
X34599665Y13391308D01*
X34571510Y13390865D01*
X34553518Y13390147D01*
X34544418Y13389007D01*
X34542942Y13387300D01*
X34547821Y13384877D01*
X34556342Y13382045D01*
X34620705Y13364790D01*
X34695071Y13349943D01*
X34776920Y13337821D01*
X34863730Y13328742D01*
X34952977Y13323022D01*
X35042140Y13320978D01*
X35042475Y13320978D01*
X35156199Y13323407D01*
X35261991Y13331226D01*
X35363625Y13344893D01*
X35464870Y13364863D01*
X35523639Y13379185D01*
X35670067Y13423589D01*
X35811122Y13479205D01*
X35946299Y13545518D01*
X36075093Y13622010D01*
X36196996Y13708164D01*
X36311502Y13803462D01*
X36418107Y13907387D01*
X36516304Y14019422D01*
X36605586Y14139049D01*
X36685449Y14265752D01*
X36755385Y14399013D01*
X36814890Y14538315D01*
X36863456Y14683141D01*
X36887328Y14773275D01*
X36902498Y14840875D01*
X36914224Y14903390D01*
X36922873Y14964147D01*
X36928816Y15026473D01*
X36932422Y15093696D01*
X36934060Y15169141D01*
X36934229Y15195550D01*
X36934073Y15262391D01*
X36932935Y15319568D01*
X36930546Y15370098D01*
X36926640Y15416995D01*
X36920948Y15463276D01*
X36913202Y15511958D01*
X36903133Y15566055D01*
X36899797Y15582900D01*
X36863859Y15730855D01*
X36816450Y15874048D01*
X36758070Y16011959D01*
X36689217Y16144067D01*
X36610392Y16269853D01*
X36522094Y16388797D01*
X36424823Y16500378D01*
X36319078Y16604076D01*
X36205359Y16699372D01*
X36084166Y16785744D01*
X35955997Y16862674D01*
X35821352Y16929641D01*
X35680732Y16986124D01*
X35534635Y17031604D01*
X35499675Y17040611D01*
X35439823Y17054861D01*
X35386064Y17066216D01*
X35335666Y17074979D01*
X35285899Y17081453D01*
X35234031Y17085939D01*
X35177330Y17088739D01*
X35113064Y17090156D01*
X35048825Y17090499D01*
X35048825Y17427575D01*
X36261675Y17427575D01*
X36294107Y17412896D01*
X36317748Y17399603D01*
X36340561Y17382709D01*
X36349061Y17374796D01*
X36354263Y17367214D01*
X36365411Y17349282D01*
X36382120Y17321662D01*
X36404009Y17285013D01*
X36430694Y17239998D01*
X36461792Y17187277D01*
X36496920Y17127512D01*
X36535695Y17061363D01*
X36577734Y16989492D01*
X36622655Y16912560D01*
X36670074Y16831228D01*
X36719608Y16746158D01*
X36770875Y16658009D01*
X36823491Y16567444D01*
X36877074Y16475124D01*
X36931240Y16381709D01*
X36985607Y16287861D01*
X37039791Y16194241D01*
X37093410Y16101510D01*
X37146080Y16010329D01*
X37197419Y15921359D01*
X37247044Y15835262D01*
X37294572Y15752699D01*
X37339619Y15674330D01*
X37381803Y15600817D01*
X37420741Y15532820D01*
X37456050Y15471002D01*
X37487347Y15416023D01*
X37514248Y15368545D01*
X37536372Y15329228D01*
X37553335Y15298733D01*
X37564754Y15277722D01*
X37570246Y15266856D01*
X37570557Y15266079D01*
X37576605Y15238933D01*
X37578740Y15206208D01*
X37576899Y15173977D01*
G37*
X37576899Y15173977D02*
X37571804Y15150461D01*
X37567897Y15142806D01*
X37557950Y15124712D01*
X37542279Y15096732D01*
X37521202Y15059419D01*
X37495036Y15013329D01*
X37464099Y14959014D01*
X37428707Y14897030D01*
X37389177Y14827930D01*
X37345827Y14752268D01*
X37298974Y14670599D01*
X37248935Y14583475D01*
X37196028Y14491452D01*
X37140568Y14395083D01*
X37082875Y14294923D01*
X37023264Y14191525D01*
X36972388Y14103350D01*
X36887767Y13956838D01*
X36809393Y13821344D01*
X36737247Y13696836D01*
X36671312Y13583285D01*
X36611570Y13480660D01*
X36558003Y13388931D01*
X36510594Y13308069D01*
X36469325Y13238041D01*
X36434178Y13178819D01*
X36405134Y13130372D01*
X36382177Y13092669D01*
X36365289Y13065681D01*
X36354452Y13049376D01*
X36350968Y13044845D01*
X36324709Y13019763D01*
X36297183Y13003178D01*
X36286571Y12998807D01*
X36282259Y12997236D01*
X36277718Y12995796D01*
X36272403Y12994482D01*
X36265765Y12993287D01*
X36257259Y12992207D01*
X36246338Y12991236D01*
X36232455Y12990367D01*
X36215063Y12989595D01*
X36193615Y12988914D01*
X36167565Y12988319D01*
X36136366Y12987803D01*
X36099471Y12987362D01*
X36056333Y12986989D01*
X36006406Y12986678D01*
X35949143Y12986425D01*
X35883997Y12986222D01*
X35810421Y12986065D01*
X35727868Y12985947D01*
X35635793Y12985863D01*
X35533647Y12985807D01*
X35420885Y12985774D01*
X35296959Y12985757D01*
X35161323Y12985751D01*
X35042475Y12985750D01*
X34896931Y12985752D01*
X34763541Y12985761D01*
X34641757Y12985782D01*
X34531033Y12985821D01*
X34430824Y12985885D01*
X34340581Y12985978D01*
X34259760Y12986106D01*
X34187812Y12986275D01*
X34124192Y12986490D01*
X34068353Y12986757D01*
X34019749Y12987082D01*
X33977833Y12987471D01*
X33942057Y12987928D01*
X33911877Y12988460D01*
X33886745Y12989072D01*
X33866115Y12989770D01*
X33849440Y12990559D01*
X33836174Y12991445D01*
X33825770Y12992435D01*
X33817681Y12993532D01*
X33811362Y12994744D01*
X33806264Y12996075D01*
X33801843Y12997531D01*
X33799033Y12998563D01*
X33767019Y13015169D01*
X33738572Y13038147D01*
X33738470Y13038250D01*
X33732272Y13046413D01*
X33721128Y13063336D01*
X33704941Y13089187D01*
X33683611Y13124134D01*
X33657040Y13168345D01*
X33625129Y13221986D01*
X33587781Y13285226D01*
X33544896Y13358233D01*
X33496375Y13441173D01*
X33442121Y13534215D01*
X33382034Y13637526D01*
X33316017Y13751274D01*
X33243970Y13875626D01*
X33165794Y14010751D01*
X33117779Y14093825D01*
X33056636Y14199696D01*
X32997135Y14302820D01*
X32939592Y14402643D01*
X32884327Y14498610D01*
X32831657Y14590165D01*
X32781899Y14676754D01*
X32735373Y14757822D01*
X32692394Y14832813D01*
X32653282Y14901174D01*
X32618355Y14962347D01*
X32587929Y15015779D01*
X32562324Y15060915D01*
X32541857Y15097199D01*
X32526845Y15124077D01*
X32517607Y15140993D01*
X32514528Y15147136D01*
X32506573Y15184286D01*
X32506567Y15225292D01*
X32514243Y15264433D01*
X32520765Y15281275D01*
X32527116Y15293477D01*
X32539338Y15315715D01*
X32557048Y15347330D01*
X32579861Y15387659D01*
X32607395Y15436042D01*
X32639264Y15491816D01*
X32675085Y15554321D01*
X32714475Y15622894D01*
X32757049Y15696875D01*
X32802423Y15775603D01*
X32850214Y15858415D01*
X32900038Y15944650D01*
X32951511Y16033646D01*
X33004248Y16124744D01*
X33057867Y16217280D01*
X33111982Y16310594D01*
X33166211Y16404024D01*
X33220170Y16496908D01*
X33273474Y16588586D01*
X33325740Y16678395D01*
X33376583Y16765676D01*
X33425621Y16849765D01*
X33472468Y16930001D01*
X33516742Y17005724D01*
X33558058Y17076271D01*
X33596033Y17140982D01*
X33630281Y17199194D01*
X33660421Y17250247D01*
X33686068Y17293479D01*
X33706837Y17328229D01*
X33722345Y17353834D01*
X33732209Y17369635D01*
X33735801Y17374796D01*
X33755569Y17391563D01*
X33779790Y17407253D01*
X33790844Y17412896D01*
X33823275Y17427575D01*
X35048825Y17427575D01*
X35048825Y17090499D01*
X34991748Y17090377D01*
X34945147Y17089936D01*
X34906802Y17089061D01*
X34874490Y17087640D01*
X34845989Y17085559D01*
X34819080Y17082705D01*
X34791539Y17078965D01*
X34775775Y17076560D01*
X34619564Y17045900D01*
X34468686Y17003787D01*
X34323348Y16950320D01*
X34183751Y16885594D01*
X34050100Y16809708D01*
X33922600Y16722759D01*
X33801454Y16624843D01*
X33770237Y16596884D01*
X33660973Y16488433D01*
X33561745Y16372329D01*
X33472757Y16248959D01*
X33394213Y16118707D01*
X33326318Y15981960D01*
X33269275Y15839103D01*
X33223289Y15690522D01*
X33188562Y15536602D01*
X33178569Y15478125D01*
X33172538Y15433821D01*
X33169988Y15396510D01*
X33171026Y15361241D01*
X33175761Y15323061D01*
X33182808Y15284450D01*
X33208388Y15185239D01*
X33245529Y15084461D01*
X33293359Y14983163D01*
X33351012Y14882392D01*
X33417618Y14783194D01*
X33492309Y14686616D01*
X33574215Y14593705D01*
X33662468Y14505506D01*
X33756200Y14423068D01*
X33854541Y14347437D01*
X33956622Y14279658D01*
X34061576Y14220780D01*
X34068674Y14217186D01*
X34155506Y14178223D01*
X34252701Y14143032D01*
X34358402Y14111937D01*
X34470750Y14085264D01*
X34587885Y14063338D01*
X34707950Y14046484D01*
X34829084Y14035026D01*
X34949429Y14029289D01*
X35067126Y14029599D01*
X35126669Y14032257D01*
X35251249Y14042614D01*
X35369902Y14058233D01*
X35481185Y14078838D01*
X35583658Y14104152D01*
X35675878Y14133899D01*
X35695269Y14141254D01*
X35722689Y14151436D01*
X35745971Y14159076D01*
X35762497Y14163381D01*
X35769445Y14163741D01*
X35775805Y14153849D01*
X35771633Y14139527D01*
X35757953Y14121616D01*
X35735785Y14100960D01*
X35706151Y14078401D01*
X35670075Y14054780D01*
X35628578Y14030941D01*
X35582683Y14007725D01*
X35576763Y14004944D01*
X35454080Y13954025D01*
X35323144Y13911369D01*
X35185515Y13877177D01*
X35042753Y13851652D01*
X34896419Y13834994D01*
X34748072Y13827404D01*
X34599272Y13829085D01*
X34451581Y13840238D01*
X34375725Y13849849D01*
X34230632Y13876481D01*
X34092714Y13913420D01*
X33961339Y13960957D01*
X33835873Y14019383D01*
X33715685Y14088987D01*
X33600141Y14170062D01*
X33501035Y14251806D01*
X33444197Y14307903D01*
X33388114Y14374566D01*
X33334540Y14449699D01*
X33331317Y14454625D01*
X33314471Y14480146D01*
X33300074Y14501280D01*
X33289529Y14516018D01*
X33284239Y14522349D01*
X33283999Y14522450D01*
X33284477Y14517067D01*
X33289869Y14502086D01*
X33299394Y14479260D01*
X33312267Y14450339D01*
X33327707Y14417076D01*
X33344930Y14381224D01*
X33363154Y14344535D01*
X33366084Y14338755D01*
X33397052Y14281524D01*
X33432728Y14221854D01*
X33471922Y14161313D01*
X33513445Y14101465D01*
X33556105Y14043876D01*
X33598711Y13990113D01*
X33640075Y13941740D01*
X33679004Y13900324D01*
X33714309Y13867430D01*
X33738799Y13848537D01*
X33798507Y13811745D01*
X33868604Y13775041D01*
X33946803Y13739275D01*
X34030814Y13705298D01*
X34118350Y13673960D01*
X34207124Y13646113D01*
X34294846Y13622606D01*
X34379229Y13604290D01*
X34410739Y13598737D01*
X34461376Y13592061D01*
X34521891Y13586745D01*
X34589527Y13582889D01*
X34661524Y13580595D01*
X34735125Y13579961D01*
X34807571Y13581089D01*
X34851374Y13582748D01*
X35013528Y13594041D01*
X35164854Y13611969D01*
X35305352Y13636532D01*
X35435023Y13667730D01*
X35553868Y13705563D01*
X35661887Y13750032D01*
X35759081Y13801137D01*
X35845451Y13858879D01*
X35877947Y13884648D01*
X35899272Y13901914D01*
X35917333Y13915577D01*
X35929729Y13923872D01*
X35933619Y13925550D01*
X35941963Y13921140D01*
X35942016Y13908589D01*
X35934278Y13888922D01*
X35919251Y13863161D01*
X35897438Y13832331D01*
X35872859Y13801620D01*
X35812769Y13739160D01*
X35741402Y13681012D01*
X35659511Y13627427D01*
X35567853Y13578657D01*
X35467182Y13534951D01*
X35358255Y13496563D01*
X35241825Y13463741D01*
X35118649Y13436738D01*
X34989480Y13415804D01*
X34855076Y13401190D01*
X34716190Y13393148D01*
X34639250Y13391623D01*
X34599665Y13391308D01*
X34571510Y13390865D01*
X34553518Y13390147D01*
X34544418Y13389007D01*
X34542942Y13387300D01*
X34547821Y13384877D01*
X34556342Y13382045D01*
X34620705Y13364790D01*
X34695071Y13349943D01*
X34776920Y13337821D01*
X34863730Y13328742D01*
X34952977Y13323022D01*
X35042140Y13320978D01*
X35042475Y13320978D01*
X35156199Y13323407D01*
X35261991Y13331226D01*
X35363625Y13344893D01*
X35464870Y13364863D01*
X35523639Y13379185D01*
X35670067Y13423589D01*
X35811122Y13479205D01*
X35946299Y13545518D01*
X36075093Y13622010D01*
X36196996Y13708164D01*
X36311502Y13803462D01*
X36418107Y13907387D01*
X36516304Y14019422D01*
X36605586Y14139049D01*
X36685449Y14265752D01*
X36755385Y14399013D01*
X36814890Y14538315D01*
X36863456Y14683141D01*
X36887328Y14773275D01*
X36902498Y14840875D01*
X36914224Y14903390D01*
X36922873Y14964147D01*
X36928816Y15026473D01*
X36932422Y15093696D01*
X36934060Y15169141D01*
X36934229Y15195550D01*
X36934073Y15262391D01*
X36932935Y15319568D01*
X36930546Y15370098D01*
X36926640Y15416995D01*
X36920948Y15463276D01*
X36913202Y15511958D01*
X36903133Y15566055D01*
X36899797Y15582900D01*
X36863859Y15730855D01*
X36816450Y15874048D01*
X36758070Y16011959D01*
X36689217Y16144067D01*
X36610392Y16269853D01*
X36522094Y16388797D01*
X36424823Y16500378D01*
X36319078Y16604076D01*
X36205359Y16699372D01*
X36084166Y16785744D01*
X35955997Y16862674D01*
X35821352Y16929641D01*
X35680732Y16986124D01*
X35534635Y17031604D01*
X35499675Y17040611D01*
X35439823Y17054861D01*
X35386064Y17066216D01*
X35335666Y17074979D01*
X35285899Y17081453D01*
X35234031Y17085939D01*
X35177330Y17088739D01*
X35113064Y17090156D01*
X35048825Y17090499D01*
X35048825Y17427575D01*
X36261675Y17427575D01*
X36294107Y17412896D01*
X36317748Y17399603D01*
X36340561Y17382709D01*
X36349061Y17374796D01*
X36354263Y17367214D01*
X36365411Y17349282D01*
X36382120Y17321662D01*
X36404009Y17285013D01*
X36430694Y17239998D01*
X36461792Y17187277D01*
X36496920Y17127512D01*
X36535695Y17061363D01*
X36577734Y16989492D01*
X36622655Y16912560D01*
X36670074Y16831228D01*
X36719608Y16746158D01*
X36770875Y16658009D01*
X36823491Y16567444D01*
X36877074Y16475124D01*
X36931240Y16381709D01*
X36985607Y16287861D01*
X37039791Y16194241D01*
X37093410Y16101510D01*
X37146080Y16010329D01*
X37197419Y15921359D01*
X37247044Y15835262D01*
X37294572Y15752699D01*
X37339619Y15674330D01*
X37381803Y15600817D01*
X37420741Y15532820D01*
X37456050Y15471002D01*
X37487347Y15416023D01*
X37514248Y15368545D01*
X37536372Y15329228D01*
X37553335Y15298733D01*
X37564754Y15277722D01*
X37570246Y15266856D01*
X37570557Y15266079D01*
X37576605Y15238933D01*
X37578740Y15206208D01*
X37576899Y15173977D01*
G36*
X34267775Y20869275D02*
G01*
X34266038Y20978838D01*
X34264300Y21088401D01*
X35040738Y21086788D01*
X35817175Y21085175D01*
X35817175Y20869275D01*
X34267775Y20869275D01*
G37*
X34267775Y20869275D02*
X34266038Y20978838D01*
X34264300Y21088401D01*
X35040738Y21086788D01*
X35817175Y21085175D01*
X35817175Y20869275D01*
X34267775Y20869275D01*
G36*
X35820238Y20343813D02*
G01*
X35820058Y20286844D01*
X35819595Y20231627D01*
X35818886Y20179986D01*
X35817966Y20133745D01*
X35816873Y20094728D01*
X35815642Y20064759D01*
X35814309Y20045663D01*
X35814307Y20045639D01*
X35804436Y19990187D01*
X35787281Y19944860D01*
X35762357Y19909052D01*
X35729179Y19882163D01*
X35687264Y19863590D01*
X35662875Y19857233D01*
X35646637Y19855227D01*
X35619500Y19853540D01*
X35583156Y19852169D01*
X35539296Y19851110D01*
X35489611Y19850358D01*
X35435791Y19849909D01*
X35379526Y19849759D01*
X35322508Y19849905D01*
X35266428Y19850341D01*
X35212975Y19851065D01*
X35163842Y19852070D01*
X35120718Y19853355D01*
X35085293Y19854914D01*
X35059260Y19856743D01*
X35044714Y19858740D01*
X34997607Y19874842D01*
X34960020Y19899073D01*
X34931176Y19932125D01*
X34910301Y19974690D01*
X34908283Y19980506D01*
X34902108Y19998575D01*
X34897653Y20010821D01*
X34896336Y20013841D01*
X34890323Y20011961D01*
X34873576Y20005887D01*
X34847191Y19996038D01*
X34812268Y19982831D01*
X34769905Y19966684D01*
X34721200Y19948015D01*
X34667251Y19927242D01*
X34609156Y19904782D01*
X34583351Y19894778D01*
X34523724Y19871671D01*
X34467701Y19850013D01*
X34416392Y19830228D01*
X34370907Y19812742D01*
X34332354Y19797981D01*
X34301844Y19786370D01*
X34280486Y19778335D01*
X34269389Y19774300D01*
X34268056Y19773900D01*
X34266970Y19779921D01*
X34266193Y19796671D01*
X34265755Y19822184D01*
X34265692Y19854491D01*
X34266037Y19891626D01*
X34266048Y19892389D01*
X34267775Y20010877D01*
X34890075Y20241949D01*
X34893709Y20364331D01*
X34267775Y20367625D01*
X34266038Y20477163D01*
X34264301Y20586700D01*
X35636200Y20586700D01*
X35636200Y20364450D01*
X35070338Y20364450D01*
X35072282Y20231313D01*
X35073043Y20186253D01*
X35073939Y20152176D01*
X35075127Y20127365D01*
X35076766Y20110105D01*
X35079012Y20098679D01*
X35082025Y20091370D01*
X35085565Y20086851D01*
X35089131Y20084027D01*
X35094428Y20081713D01*
X35102653Y20079859D01*
X35115001Y20078415D01*
X35132668Y20077330D01*
X35156851Y20076553D01*
X35188747Y20076035D01*
X35229551Y20075725D01*
X35280459Y20075572D01*
X35342669Y20075526D01*
X35354413Y20075525D01*
X35611923Y20075525D01*
X35624062Y20090516D01*
X35628192Y20096580D01*
X35631269Y20104353D01*
X35633446Y20115651D01*
X35634875Y20132292D01*
X35635708Y20156090D01*
X35636099Y20188863D01*
X35636200Y20232426D01*
X35636200Y20364450D01*
X35636200Y20586700D01*
X35820350Y20586700D01*
X35820238Y20343813D01*
G37*
X35820238Y20343813D02*
X35820058Y20286844D01*
X35819595Y20231627D01*
X35818886Y20179986D01*
X35817966Y20133745D01*
X35816873Y20094728D01*
X35815642Y20064759D01*
X35814309Y20045663D01*
X35814307Y20045639D01*
X35804436Y19990187D01*
X35787281Y19944860D01*
X35762357Y19909052D01*
X35729179Y19882163D01*
X35687264Y19863590D01*
X35662875Y19857233D01*
X35646637Y19855227D01*
X35619500Y19853540D01*
X35583156Y19852169D01*
X35539296Y19851110D01*
X35489611Y19850358D01*
X35435791Y19849909D01*
X35379526Y19849759D01*
X35322508Y19849905D01*
X35266428Y19850341D01*
X35212975Y19851065D01*
X35163842Y19852070D01*
X35120718Y19853355D01*
X35085293Y19854914D01*
X35059260Y19856743D01*
X35044714Y19858740D01*
X34997607Y19874842D01*
X34960020Y19899073D01*
X34931176Y19932125D01*
X34910301Y19974690D01*
X34908283Y19980506D01*
X34902108Y19998575D01*
X34897653Y20010821D01*
X34896336Y20013841D01*
X34890323Y20011961D01*
X34873576Y20005887D01*
X34847191Y19996038D01*
X34812268Y19982831D01*
X34769905Y19966684D01*
X34721200Y19948015D01*
X34667251Y19927242D01*
X34609156Y19904782D01*
X34583351Y19894778D01*
X34523724Y19871671D01*
X34467701Y19850013D01*
X34416392Y19830228D01*
X34370907Y19812742D01*
X34332354Y19797981D01*
X34301844Y19786370D01*
X34280486Y19778335D01*
X34269389Y19774300D01*
X34268056Y19773900D01*
X34266970Y19779921D01*
X34266193Y19796671D01*
X34265755Y19822184D01*
X34265692Y19854491D01*
X34266037Y19891626D01*
X34266048Y19892389D01*
X34267775Y20010877D01*
X34890075Y20241949D01*
X34893709Y20364331D01*
X34267775Y20367625D01*
X34266038Y20477163D01*
X34264301Y20586700D01*
X35636200Y20586700D01*
X35636200Y20364450D01*
X35070338Y20364450D01*
X35072282Y20231313D01*
X35073043Y20186253D01*
X35073939Y20152176D01*
X35075127Y20127365D01*
X35076766Y20110105D01*
X35079012Y20098679D01*
X35082025Y20091370D01*
X35085565Y20086851D01*
X35089131Y20084027D01*
X35094428Y20081713D01*
X35102653Y20079859D01*
X35115001Y20078415D01*
X35132668Y20077330D01*
X35156851Y20076553D01*
X35188747Y20076035D01*
X35229551Y20075725D01*
X35280459Y20075572D01*
X35342669Y20075526D01*
X35354413Y20075525D01*
X35611923Y20075525D01*
X35624062Y20090516D01*
X35628192Y20096580D01*
X35631269Y20104353D01*
X35633446Y20115651D01*
X35634875Y20132292D01*
X35635708Y20156090D01*
X35636099Y20188863D01*
X35636200Y20232426D01*
X35636200Y20364450D01*
X35636200Y20586700D01*
X35820350Y20586700D01*
X35820238Y20343813D01*
G36*
X35817093Y19192997D02*
G01*
X35816795Y19147104D01*
X35816206Y19110781D01*
X35815252Y19082464D01*
X35813857Y19060589D01*
X35811947Y19043592D01*
X35809447Y19029909D01*
X35806281Y19017974D01*
X35806008Y19017085D01*
X35786334Y18972348D01*
X35757654Y18936509D01*
X35719733Y18909284D01*
X35715752Y18907191D01*
X35678373Y18888075D01*
X34406578Y18888075D01*
X34369199Y18907191D01*
X34330125Y18933934D01*
X34300296Y18969337D01*
X34279999Y19013058D01*
X34279771Y19013768D01*
X34276480Y19026238D01*
X34273853Y19041820D01*
X34271795Y19062100D01*
X34270213Y19088665D01*
X34269015Y19123101D01*
X34268107Y19166994D01*
X34267395Y19221930D01*
X34267367Y19224625D01*
X34267073Y19273203D01*
X34267186Y19319657D01*
X34267671Y19361871D01*
X34268492Y19397727D01*
X34269615Y19425109D01*
X34270995Y19441850D01*
X34283162Y19494037D01*
X34303962Y19536931D01*
X34333558Y19570702D01*
X34372114Y19595521D01*
X34419793Y19611557D01*
X34436927Y19614849D01*
X34450600Y19616013D01*
X34475830Y19617066D01*
X34511473Y19618008D01*
X34556385Y19618839D01*
X34609425Y19619560D01*
X34669449Y19620170D01*
X34735313Y19620669D01*
X34805875Y19621059D01*
X34879991Y19621338D01*
X34956518Y19621507D01*
X35034314Y19621566D01*
X35073100Y19621542D01*
X35073100Y19392900D01*
X35042475Y19392900D01*
X34944613Y19392895D01*
X34858658Y19392869D01*
X34783817Y19392803D01*
X34719299Y19392681D01*
X34664312Y19392485D01*
X34618061Y19392198D01*
X34579756Y19391803D01*
X34548603Y19391283D01*
X34523810Y19390619D01*
X34504585Y19389795D01*
X34490135Y19388794D01*
X34479667Y19387598D01*
X34472389Y19386189D01*
X34467508Y19384551D01*
X34464232Y19382666D01*
X34461769Y19380517D01*
X34461450Y19380200D01*
X34456939Y19374856D01*
X34453639Y19367911D01*
X34451364Y19357458D01*
X34449926Y19341590D01*
X34449136Y19318400D01*
X34448808Y19285978D01*
X34448750Y19251239D01*
X34449050Y19204997D01*
X34450000Y19170254D01*
X34451675Y19145820D01*
X34454152Y19130508D01*
X34456858Y19123890D01*
X34468072Y19115352D01*
X34485655Y19108148D01*
X34490196Y19106953D01*
X34500851Y19105957D01*
X34523040Y19105054D01*
X34555598Y19104247D01*
X34597360Y19103533D01*
X34647160Y19102914D01*
X34703834Y19102390D01*
X34766217Y19101961D01*
X34833143Y19101627D01*
X34903447Y19101388D01*
X34975966Y19101245D01*
X35049532Y19101197D01*
X35122982Y19101245D01*
X35195150Y19101388D01*
X35264872Y19101628D01*
X35330982Y19101964D01*
X35392314Y19102396D01*
X35447706Y19102924D01*
X35495990Y19103549D01*
X35536002Y19104271D01*
X35566577Y19105090D01*
X35586550Y19106005D01*
X35594114Y19106808D01*
X35611776Y19112223D01*
X35624337Y19118396D01*
X35625864Y19119659D01*
X35628850Y19129149D01*
X35631333Y19150885D01*
X35633281Y19184421D01*
X35634664Y19229310D01*
X35634994Y19246772D01*
X35635613Y19288744D01*
X35635789Y19319897D01*
X35635365Y19342112D01*
X35634185Y19357267D01*
X35632092Y19367240D01*
X35628928Y19373911D01*
X35624537Y19379158D01*
X35623882Y19379819D01*
X35621467Y19382071D01*
X35618486Y19384049D01*
X35614144Y19385769D01*
X35607649Y19387251D01*
X35598207Y19388512D01*
X35585027Y19389570D01*
X35567314Y19390443D01*
X35544275Y19391148D01*
X35515119Y19391703D01*
X35479051Y19392127D01*
X35435279Y19392436D01*
X35383010Y19392650D01*
X35321451Y19392785D01*
X35249808Y19392860D01*
X35167289Y19392893D01*
X35073100Y19392900D01*
X35073100Y19621542D01*
X35112234Y19621516D01*
X35189137Y19621356D01*
X35263878Y19621086D01*
X35335314Y19620706D01*
X35402303Y19620217D01*
X35463702Y19619619D01*
X35518366Y19618912D01*
X35565154Y19618096D01*
X35602921Y19617171D01*
X35630525Y19616137D01*
X35646823Y19614994D01*
X35648761Y19614731D01*
X35698891Y19601143D01*
X35740665Y19578137D01*
X35773786Y19545960D01*
X35797957Y19504861D01*
X35806008Y19482966D01*
X35809228Y19471101D01*
X35811777Y19457607D01*
X35813730Y19440920D01*
X35815161Y19419476D01*
X35816147Y19391710D01*
X35816761Y19356057D01*
X35817078Y19310955D01*
X35817175Y19254837D01*
X35817175Y19250025D01*
X35817093Y19192997D01*
G37*
X35817093Y19192997D02*
X35816795Y19147104D01*
X35816206Y19110781D01*
X35815252Y19082464D01*
X35813857Y19060589D01*
X35811947Y19043592D01*
X35809447Y19029909D01*
X35806281Y19017974D01*
X35806008Y19017085D01*
X35786334Y18972348D01*
X35757654Y18936509D01*
X35719733Y18909284D01*
X35715752Y18907191D01*
X35678373Y18888075D01*
X34406578Y18888075D01*
X34369199Y18907191D01*
X34330125Y18933934D01*
X34300296Y18969337D01*
X34279999Y19013058D01*
X34279771Y19013768D01*
X34276480Y19026238D01*
X34273853Y19041820D01*
X34271795Y19062100D01*
X34270213Y19088665D01*
X34269015Y19123101D01*
X34268107Y19166994D01*
X34267395Y19221930D01*
X34267367Y19224625D01*
X34267073Y19273203D01*
X34267186Y19319657D01*
X34267671Y19361871D01*
X34268492Y19397727D01*
X34269615Y19425109D01*
X34270995Y19441850D01*
X34283162Y19494037D01*
X34303962Y19536931D01*
X34333558Y19570702D01*
X34372114Y19595521D01*
X34419793Y19611557D01*
X34436927Y19614849D01*
X34450600Y19616013D01*
X34475830Y19617066D01*
X34511473Y19618008D01*
X34556385Y19618839D01*
X34609425Y19619560D01*
X34669449Y19620170D01*
X34735313Y19620669D01*
X34805875Y19621059D01*
X34879991Y19621338D01*
X34956518Y19621507D01*
X35034314Y19621566D01*
X35073100Y19621542D01*
X35073100Y19392900D01*
X35042475Y19392900D01*
X34944613Y19392895D01*
X34858658Y19392869D01*
X34783817Y19392803D01*
X34719299Y19392681D01*
X34664312Y19392485D01*
X34618061Y19392198D01*
X34579756Y19391803D01*
X34548603Y19391283D01*
X34523810Y19390619D01*
X34504585Y19389795D01*
X34490135Y19388794D01*
X34479667Y19387598D01*
X34472389Y19386189D01*
X34467508Y19384551D01*
X34464232Y19382666D01*
X34461769Y19380517D01*
X34461450Y19380200D01*
X34456939Y19374856D01*
X34453639Y19367911D01*
X34451364Y19357458D01*
X34449926Y19341590D01*
X34449136Y19318400D01*
X34448808Y19285978D01*
X34448750Y19251239D01*
X34449050Y19204997D01*
X34450000Y19170254D01*
X34451675Y19145820D01*
X34454152Y19130508D01*
X34456858Y19123890D01*
X34468072Y19115352D01*
X34485655Y19108148D01*
X34490196Y19106953D01*
X34500851Y19105957D01*
X34523040Y19105054D01*
X34555598Y19104247D01*
X34597360Y19103533D01*
X34647160Y19102914D01*
X34703834Y19102390D01*
X34766217Y19101961D01*
X34833143Y19101627D01*
X34903447Y19101388D01*
X34975966Y19101245D01*
X35049532Y19101197D01*
X35122982Y19101245D01*
X35195150Y19101388D01*
X35264872Y19101628D01*
X35330982Y19101964D01*
X35392314Y19102396D01*
X35447706Y19102924D01*
X35495990Y19103549D01*
X35536002Y19104271D01*
X35566577Y19105090D01*
X35586550Y19106005D01*
X35594114Y19106808D01*
X35611776Y19112223D01*
X35624337Y19118396D01*
X35625864Y19119659D01*
X35628850Y19129149D01*
X35631333Y19150885D01*
X35633281Y19184421D01*
X35634664Y19229310D01*
X35634994Y19246772D01*
X35635613Y19288744D01*
X35635789Y19319897D01*
X35635365Y19342112D01*
X35634185Y19357267D01*
X35632092Y19367240D01*
X35628928Y19373911D01*
X35624537Y19379158D01*
X35623882Y19379819D01*
X35621467Y19382071D01*
X35618486Y19384049D01*
X35614144Y19385769D01*
X35607649Y19387251D01*
X35598207Y19388512D01*
X35585027Y19389570D01*
X35567314Y19390443D01*
X35544275Y19391148D01*
X35515119Y19391703D01*
X35479051Y19392127D01*
X35435279Y19392436D01*
X35383010Y19392650D01*
X35321451Y19392785D01*
X35249808Y19392860D01*
X35167289Y19392893D01*
X35073100Y19392900D01*
X35073100Y19621542D01*
X35112234Y19621516D01*
X35189137Y19621356D01*
X35263878Y19621086D01*
X35335314Y19620706D01*
X35402303Y19620217D01*
X35463702Y19619619D01*
X35518366Y19618912D01*
X35565154Y19618096D01*
X35602921Y19617171D01*
X35630525Y19616137D01*
X35646823Y19614994D01*
X35648761Y19614731D01*
X35698891Y19601143D01*
X35740665Y19578137D01*
X35773786Y19545960D01*
X35797957Y19504861D01*
X35806008Y19482966D01*
X35809228Y19471101D01*
X35811777Y19457607D01*
X35813730Y19440920D01*
X35815161Y19419476D01*
X35816147Y19391710D01*
X35816761Y19356057D01*
X35817078Y19310955D01*
X35817175Y19254837D01*
X35817175Y19250025D01*
X35817093Y19192997D01*
G36*
X35818924Y17978438D02*
G01*
X35817175Y17878425D01*
X34267775Y17878425D01*
X34267775Y18100646D01*
X34822670Y18262586D01*
X35377565Y18424525D01*
X34267775Y18430875D01*
X34266027Y18530888D01*
X34264278Y18630900D01*
X35820637Y18630900D01*
X35818906Y18515013D01*
X35817175Y18399125D01*
X35282423Y18243256D01*
X35202704Y18219984D01*
X35126481Y18197664D01*
X35054634Y18176558D01*
X34988045Y18156928D01*
X34927597Y18139035D01*
X34874170Y18123143D01*
X34828646Y18109513D01*
X34791907Y18098408D01*
X34764835Y18090089D01*
X34748311Y18084819D01*
X34743202Y18082919D01*
X34748713Y18082245D01*
X34766014Y18081602D01*
X34794192Y18080997D01*
X34832338Y18080438D01*
X34879539Y18079933D01*
X34934886Y18079490D01*
X34997468Y18079115D01*
X35066372Y18078816D01*
X35140689Y18078601D01*
X35219507Y18078478D01*
X35279703Y18078450D01*
X35820673Y18078450D01*
X35818924Y17978438D01*
G37*
X35818924Y17978438D02*
X35817175Y17878425D01*
X34267775Y17878425D01*
X34267775Y18100646D01*
X34822670Y18262586D01*
X35377565Y18424525D01*
X34267775Y18430875D01*
X34266027Y18530888D01*
X34264278Y18630900D01*
X35820637Y18630900D01*
X35818906Y18515013D01*
X35817175Y18399125D01*
X35282423Y18243256D01*
X35202704Y18219984D01*
X35126481Y18197664D01*
X35054634Y18176558D01*
X34988045Y18156928D01*
X34927597Y18139035D01*
X34874170Y18123143D01*
X34828646Y18109513D01*
X34791907Y18098408D01*
X34764835Y18090089D01*
X34748311Y18084819D01*
X34743202Y18082919D01*
X34748713Y18082245D01*
X34766014Y18081602D01*
X34794192Y18080997D01*
X34832338Y18080438D01*
X34879539Y18079933D01*
X34934886Y18079490D01*
X34997468Y18079115D01*
X35066372Y18078816D01*
X35140689Y18078601D01*
X35219507Y18078478D01*
X35279703Y18078450D01*
X35820673Y18078450D01*
X35818924Y17978438D01*
G36*
X35820302Y12288838D02*
G01*
X35820132Y12212793D01*
X35819599Y12148247D01*
X35818623Y12094004D01*
X35817122Y12048867D01*
X35815015Y12011637D01*
X35812221Y11981119D01*
X35808659Y11956114D01*
X35804248Y11935426D01*
X35798906Y11917857D01*
X35794380Y11906332D01*
X35773447Y11872150D01*
X35743246Y11842180D01*
X35707155Y11819486D01*
X35691258Y11812931D01*
X35682882Y11810309D01*
X35673318Y11808117D01*
X35661415Y11806318D01*
X35646021Y11804872D01*
X35625984Y11803743D01*
X35600154Y11802892D01*
X35567377Y11802280D01*
X35526503Y11801871D01*
X35476379Y11801626D01*
X35415853Y11801507D01*
X35344100Y11801475D01*
X35269392Y11801495D01*
X35206226Y11801623D01*
X35153447Y11801967D01*
X35109897Y11802634D01*
X35074419Y11803729D01*
X35045856Y11805359D01*
X35023052Y11807631D01*
X35004849Y11810650D01*
X34990091Y11814524D01*
X34977620Y11819359D01*
X34966280Y11825261D01*
X34954914Y11832336D01*
X34946278Y11838074D01*
X34926225Y11853904D01*
X34910121Y11873176D01*
X34894458Y11900153D01*
X34893302Y11902412D01*
X34871025Y11946198D01*
X34869003Y12129362D01*
X34866980Y12312527D01*
X34567378Y12314176D01*
X34267775Y12315825D01*
X34266038Y12425363D01*
X34264301Y12534900D01*
X35636200Y12534900D01*
X35636200Y12312650D01*
X35045650Y12312650D01*
X35045650Y12182475D01*
X35045729Y12138361D01*
X35046069Y12105170D01*
X35046822Y12081127D01*
X35048143Y12064456D01*
X35050186Y12053383D01*
X35053105Y12046131D01*
X35057053Y12040924D01*
X35057996Y12039955D01*
X35073145Y12029980D01*
X35091334Y12023768D01*
X35102229Y12022963D01*
X35124312Y12022312D01*
X35156072Y12021825D01*
X35195997Y12021513D01*
X35242576Y12021387D01*
X35294297Y12021458D01*
X35349650Y12021736D01*
X35362129Y12021826D01*
X35611933Y12023725D01*
X35624067Y12038716D01*
X35628195Y12044781D01*
X35631271Y12052559D01*
X35633447Y12063865D01*
X35634876Y12080516D01*
X35635709Y12104328D01*
X35636100Y12137117D01*
X35636200Y12180699D01*
X35636200Y12312650D01*
X35636200Y12534900D01*
X35820350Y12534900D01*
X35820302Y12288838D01*
G37*
X35820302Y12288838D02*
X35820132Y12212793D01*
X35819599Y12148247D01*
X35818623Y12094004D01*
X35817122Y12048867D01*
X35815015Y12011637D01*
X35812221Y11981119D01*
X35808659Y11956114D01*
X35804248Y11935426D01*
X35798906Y11917857D01*
X35794380Y11906332D01*
X35773447Y11872150D01*
X35743246Y11842180D01*
X35707155Y11819486D01*
X35691258Y11812931D01*
X35682882Y11810309D01*
X35673318Y11808117D01*
X35661415Y11806318D01*
X35646021Y11804872D01*
X35625984Y11803743D01*
X35600154Y11802892D01*
X35567377Y11802280D01*
X35526503Y11801871D01*
X35476379Y11801626D01*
X35415853Y11801507D01*
X35344100Y11801475D01*
X35269392Y11801495D01*
X35206226Y11801623D01*
X35153447Y11801967D01*
X35109897Y11802634D01*
X35074419Y11803729D01*
X35045856Y11805359D01*
X35023052Y11807631D01*
X35004849Y11810650D01*
X34990091Y11814524D01*
X34977620Y11819359D01*
X34966280Y11825261D01*
X34954914Y11832336D01*
X34946278Y11838074D01*
X34926225Y11853904D01*
X34910121Y11873176D01*
X34894458Y11900153D01*
X34893302Y11902412D01*
X34871025Y11946198D01*
X34869003Y12129362D01*
X34866980Y12312527D01*
X34567378Y12314176D01*
X34267775Y12315825D01*
X34266038Y12425363D01*
X34264301Y12534900D01*
X35636200Y12534900D01*
X35636200Y12312650D01*
X35045650Y12312650D01*
X35045650Y12182475D01*
X35045729Y12138361D01*
X35046069Y12105170D01*
X35046822Y12081127D01*
X35048143Y12064456D01*
X35050186Y12053383D01*
X35053105Y12046131D01*
X35057053Y12040924D01*
X35057996Y12039955D01*
X35073145Y12029980D01*
X35091334Y12023768D01*
X35102229Y12022963D01*
X35124312Y12022312D01*
X35156072Y12021825D01*
X35195997Y12021513D01*
X35242576Y12021387D01*
X35294297Y12021458D01*
X35349650Y12021736D01*
X35362129Y12021826D01*
X35611933Y12023725D01*
X35624067Y12038716D01*
X35628195Y12044781D01*
X35631271Y12052559D01*
X35633447Y12063865D01*
X35634876Y12080516D01*
X35635709Y12104328D01*
X35636100Y12137117D01*
X35636200Y12180699D01*
X35636200Y12312650D01*
X35636200Y12534900D01*
X35820350Y12534900D01*
X35820302Y12288838D01*
G36*
X35820108Y11215718D02*
G01*
X35819413Y11173952D01*
X35818309Y11140738D01*
X35816844Y11117285D01*
X35815063Y11104800D01*
X35814213Y11103107D01*
X35807571Y11101607D01*
X35789353Y11097910D01*
X35760461Y11092186D01*
X35721796Y11084609D01*
X35674260Y11075353D01*
X35618754Y11064588D01*
X35556180Y11052489D01*
X35487438Y11039228D01*
X35413430Y11024977D01*
X35335058Y11009910D01*
X35253222Y10994199D01*
X35168825Y10978017D01*
X35082767Y10961536D01*
X34995950Y10944930D01*
X34909274Y10928371D01*
X34823643Y10912031D01*
X34739956Y10896084D01*
X34659115Y10880702D01*
X34582022Y10866058D01*
X34509577Y10852325D01*
X34442683Y10839675D01*
X34382240Y10828281D01*
X34329150Y10818316D01*
X34288413Y10810714D01*
X34264600Y10806287D01*
X34264600Y11028941D01*
X34282063Y11032512D01*
X34293137Y11034570D01*
X34314738Y11038407D01*
X34344869Y11043676D01*
X34381536Y11050028D01*
X34422744Y11057117D01*
X34448750Y11061567D01*
X34491493Y11068903D01*
X34530675Y11075696D01*
X34564352Y11081603D01*
X34590583Y11086282D01*
X34607423Y11089391D01*
X34612263Y11090372D01*
X34626550Y11093692D01*
X34626550Y11421017D01*
X34447163Y11449321D01*
X34267775Y11477625D01*
X34266038Y11587163D01*
X34265608Y11629634D01*
X34265902Y11660623D01*
X34266983Y11681330D01*
X34268917Y11692954D01*
X34271767Y11696697D01*
X34271868Y11696700D01*
X34278849Y11695619D01*
X34297401Y11692484D01*
X34326589Y11687461D01*
X34365478Y11680714D01*
X34413135Y11672409D01*
X34468626Y11662709D01*
X34531016Y11651781D01*
X34599370Y11639788D01*
X34672755Y11626896D01*
X34750236Y11613270D01*
X34809113Y11602906D01*
X34809113Y11392044D01*
X34807698Y11385959D01*
X34806451Y11369033D01*
X34805437Y11343122D01*
X34804722Y11310085D01*
X34804374Y11271780D01*
X34804350Y11258550D01*
X34804418Y11214082D01*
X34804712Y11180729D01*
X34805365Y11156909D01*
X34806514Y11141037D01*
X34808291Y11131530D01*
X34810831Y11126803D01*
X34814270Y11125274D01*
X34815675Y11125200D01*
X34823595Y11126253D01*
X34842707Y11129260D01*
X34871695Y11133997D01*
X34909249Y11140237D01*
X34954054Y11147756D01*
X35004798Y11156329D01*
X35060168Y11165729D01*
X35118851Y11175732D01*
X35179533Y11186112D01*
X35240903Y11196645D01*
X35301646Y11207103D01*
X35360451Y11217263D01*
X35416003Y11226899D01*
X35466990Y11235785D01*
X35512100Y11243696D01*
X35550018Y11250407D01*
X35579433Y11255693D01*
X35599031Y11259327D01*
X35607499Y11261085D01*
X35607625Y11261127D01*
X35608544Y11264683D01*
X35604450Y11266884D01*
X35596974Y11268338D01*
X35578257Y11271530D01*
X35549609Y11276254D01*
X35512341Y11282305D01*
X35467761Y11289475D01*
X35417181Y11297559D01*
X35361909Y11306351D01*
X35303255Y11315645D01*
X35242530Y11325234D01*
X35181043Y11334912D01*
X35120104Y11344474D01*
X35061023Y11353713D01*
X35005109Y11362422D01*
X34953672Y11370397D01*
X34908023Y11377430D01*
X34869471Y11383316D01*
X34839326Y11387848D01*
X34818897Y11390821D01*
X34809495Y11392028D01*
X34809113Y11392044D01*
X34809113Y11602906D01*
X34830878Y11599074D01*
X34913749Y11584472D01*
X34997912Y11569631D01*
X35082435Y11554715D01*
X35166382Y11539888D01*
X35248820Y11525316D01*
X35328813Y11511163D01*
X35405428Y11497594D01*
X35477731Y11484774D01*
X35544787Y11472868D01*
X35605662Y11462041D01*
X35659422Y11452457D01*
X35705131Y11444281D01*
X35741857Y11437679D01*
X35768664Y11432815D01*
X35784619Y11429853D01*
X35787013Y11429387D01*
X35820350Y11422750D01*
X35820350Y11264825D01*
X35820108Y11215718D01*
G37*
X35820108Y11215718D02*
X35819413Y11173952D01*
X35818309Y11140738D01*
X35816844Y11117285D01*
X35815063Y11104800D01*
X35814213Y11103107D01*
X35807571Y11101607D01*
X35789353Y11097910D01*
X35760461Y11092186D01*
X35721796Y11084609D01*
X35674260Y11075353D01*
X35618754Y11064588D01*
X35556180Y11052489D01*
X35487438Y11039228D01*
X35413430Y11024977D01*
X35335058Y11009910D01*
X35253222Y10994199D01*
X35168825Y10978017D01*
X35082767Y10961536D01*
X34995950Y10944930D01*
X34909274Y10928371D01*
X34823643Y10912031D01*
X34739956Y10896084D01*
X34659115Y10880702D01*
X34582022Y10866058D01*
X34509577Y10852325D01*
X34442683Y10839675D01*
X34382240Y10828281D01*
X34329150Y10818316D01*
X34288413Y10810714D01*
X34264600Y10806287D01*
X34264600Y11028941D01*
X34282063Y11032512D01*
X34293137Y11034570D01*
X34314738Y11038407D01*
X34344869Y11043676D01*
X34381536Y11050028D01*
X34422744Y11057117D01*
X34448750Y11061567D01*
X34491493Y11068903D01*
X34530675Y11075696D01*
X34564352Y11081603D01*
X34590583Y11086282D01*
X34607423Y11089391D01*
X34612263Y11090372D01*
X34626550Y11093692D01*
X34626550Y11421017D01*
X34447163Y11449321D01*
X34267775Y11477625D01*
X34266038Y11587163D01*
X34265608Y11629634D01*
X34265902Y11660623D01*
X34266983Y11681330D01*
X34268917Y11692954D01*
X34271767Y11696697D01*
X34271868Y11696700D01*
X34278849Y11695619D01*
X34297401Y11692484D01*
X34326589Y11687461D01*
X34365478Y11680714D01*
X34413135Y11672409D01*
X34468626Y11662709D01*
X34531016Y11651781D01*
X34599370Y11639788D01*
X34672755Y11626896D01*
X34750236Y11613270D01*
X34809113Y11602906D01*
X34809113Y11392044D01*
X34807698Y11385959D01*
X34806451Y11369033D01*
X34805437Y11343122D01*
X34804722Y11310085D01*
X34804374Y11271780D01*
X34804350Y11258550D01*
X34804418Y11214082D01*
X34804712Y11180729D01*
X34805365Y11156909D01*
X34806514Y11141037D01*
X34808291Y11131530D01*
X34810831Y11126803D01*
X34814270Y11125274D01*
X34815675Y11125200D01*
X34823595Y11126253D01*
X34842707Y11129260D01*
X34871695Y11133997D01*
X34909249Y11140237D01*
X34954054Y11147756D01*
X35004798Y11156329D01*
X35060168Y11165729D01*
X35118851Y11175732D01*
X35179533Y11186112D01*
X35240903Y11196645D01*
X35301646Y11207103D01*
X35360451Y11217263D01*
X35416003Y11226899D01*
X35466990Y11235785D01*
X35512100Y11243696D01*
X35550018Y11250407D01*
X35579433Y11255693D01*
X35599031Y11259327D01*
X35607499Y11261085D01*
X35607625Y11261127D01*
X35608544Y11264683D01*
X35604450Y11266884D01*
X35596974Y11268338D01*
X35578257Y11271530D01*
X35549609Y11276254D01*
X35512341Y11282305D01*
X35467761Y11289475D01*
X35417181Y11297559D01*
X35361909Y11306351D01*
X35303255Y11315645D01*
X35242530Y11325234D01*
X35181043Y11334912D01*
X35120104Y11344474D01*
X35061023Y11353713D01*
X35005109Y11362422D01*
X34953672Y11370397D01*
X34908023Y11377430D01*
X34869471Y11383316D01*
X34839326Y11387848D01*
X34818897Y11390821D01*
X34809495Y11392028D01*
X34809113Y11392044D01*
X34809113Y11602906D01*
X34830878Y11599074D01*
X34913749Y11584472D01*
X34997912Y11569631D01*
X35082435Y11554715D01*
X35166382Y11539888D01*
X35248820Y11525316D01*
X35328813Y11511163D01*
X35405428Y11497594D01*
X35477731Y11484774D01*
X35544787Y11472868D01*
X35605662Y11462041D01*
X35659422Y11452457D01*
X35705131Y11444281D01*
X35741857Y11437679D01*
X35768664Y11432815D01*
X35784619Y11429853D01*
X35787013Y11429387D01*
X35820350Y11422750D01*
X35820350Y11264825D01*
X35820108Y11215718D01*
G36*
X35280957Y10255936D02*
G01*
X34744738Y10099675D01*
X35280957Y10096500D01*
X35817175Y10093325D01*
X35817175Y9890125D01*
X34267775Y9890125D01*
X34266039Y9999360D01*
X34265509Y10039295D01*
X34265482Y10068376D01*
X34266111Y10088447D01*
X34267548Y10101348D01*
X34269946Y10108923D01*
X34273459Y10113012D01*
X34275564Y10114268D01*
X34283213Y10116851D01*
X34302169Y10122713D01*
X34331541Y10131590D01*
X34370442Y10143221D01*
X34417980Y10157341D01*
X34473267Y10173688D01*
X34535413Y10191998D01*
X34603528Y10212009D01*
X34676724Y10233457D01*
X34754110Y10256080D01*
X34829541Y10278083D01*
X35372257Y10436225D01*
X34267775Y10442575D01*
X34266026Y10542725D01*
X34265577Y10582807D01*
X34265904Y10611690D01*
X34267099Y10630859D01*
X34269252Y10641797D01*
X34272376Y10645959D01*
X34279642Y10646338D01*
X34298825Y10646678D01*
X34329139Y10646975D01*
X34369803Y10647231D01*
X34420031Y10647441D01*
X34479041Y10647607D01*
X34546048Y10647724D01*
X34620269Y10647794D01*
X34700920Y10647813D01*
X34787216Y10647780D01*
X34878376Y10647695D01*
X34973614Y10647555D01*
X35048825Y10647409D01*
X35817175Y10645775D01*
X35817175Y10412196D01*
X35280957Y10255936D01*
G37*
X35280957Y10255936D02*
X34744738Y10099675D01*
X35280957Y10096500D01*
X35817175Y10093325D01*
X35817175Y9890125D01*
X34267775Y9890125D01*
X34266039Y9999360D01*
X34265509Y10039295D01*
X34265482Y10068376D01*
X34266111Y10088447D01*
X34267548Y10101348D01*
X34269946Y10108923D01*
X34273459Y10113012D01*
X34275564Y10114268D01*
X34283213Y10116851D01*
X34302169Y10122713D01*
X34331541Y10131590D01*
X34370442Y10143221D01*
X34417980Y10157341D01*
X34473267Y10173688D01*
X34535413Y10191998D01*
X34603528Y10212009D01*
X34676724Y10233457D01*
X34754110Y10256080D01*
X34829541Y10278083D01*
X35372257Y10436225D01*
X34267775Y10442575D01*
X34266026Y10542725D01*
X34265577Y10582807D01*
X34265904Y10611690D01*
X34267099Y10630859D01*
X34269252Y10641797D01*
X34272376Y10645959D01*
X34279642Y10646338D01*
X34298825Y10646678D01*
X34329139Y10646975D01*
X34369803Y10647231D01*
X34420031Y10647441D01*
X34479041Y10647607D01*
X34546048Y10647724D01*
X34620269Y10647794D01*
X34700920Y10647813D01*
X34787216Y10647780D01*
X34878376Y10647695D01*
X34973614Y10647555D01*
X35048825Y10647409D01*
X35817175Y10645775D01*
X35817175Y10412196D01*
X35280957Y10255936D01*
G36*
X35726688Y9005714D02*
G01*
X35636200Y9003952D01*
X35636200Y9264594D01*
X34951988Y9266210D01*
X34267775Y9267825D01*
X34266038Y9377363D01*
X34264301Y9486900D01*
X35636200Y9486900D01*
X35636200Y9747599D01*
X35726688Y9745837D01*
X35817175Y9744075D01*
X35817175Y9007475D01*
X35726688Y9005714D01*
G37*
X35726688Y9005714D02*
X35636200Y9003952D01*
X35636200Y9264594D01*
X34951988Y9266210D01*
X34267775Y9267825D01*
X34266038Y9377363D01*
X34264301Y9486900D01*
X35636200Y9486900D01*
X35636200Y9747599D01*
X35726688Y9745837D01*
X35817175Y9744075D01*
X35817175Y9007475D01*
X35726688Y9005714D01*
G36*
X34264301Y8089900D02*
G01*
X34266038Y8199438D01*
X34267775Y8308975D01*
X34609088Y8310618D01*
X34950400Y8312261D01*
X34950400Y8642350D01*
X34264600Y8642350D01*
X34264600Y8750500D01*
X34264860Y8792979D01*
X34265699Y8824053D01*
X34267210Y8845007D01*
X34269484Y8857127D01*
X34272538Y8861671D01*
X34279783Y8862042D01*
X34298945Y8862374D01*
X34329240Y8862665D01*
X34369883Y8862913D01*
X34420093Y8863118D01*
X34479085Y8863277D01*
X34546076Y8863390D01*
X34620282Y8863454D01*
X34700920Y8863469D01*
X34787205Y8863434D01*
X34878356Y8863346D01*
X34973587Y8863205D01*
X35048825Y8863059D01*
X35817175Y8861425D01*
X35818913Y8751888D01*
X35820650Y8642350D01*
X35128200Y8642350D01*
X35128200Y8312260D01*
X35472688Y8310618D01*
X35817175Y8308975D01*
X35818913Y8199438D01*
X35820650Y8089900D01*
X34264301Y8089900D01*
G37*
X34264301Y8089900D02*
X34266038Y8199438D01*
X34267775Y8308975D01*
X34609088Y8310618D01*
X34950400Y8312261D01*
X34950400Y8642350D01*
X34264600Y8642350D01*
X34264600Y8750500D01*
X34264860Y8792979D01*
X34265699Y8824053D01*
X34267210Y8845007D01*
X34269484Y8857127D01*
X34272538Y8861671D01*
X34279783Y8862042D01*
X34298945Y8862374D01*
X34329240Y8862665D01*
X34369883Y8862913D01*
X34420093Y8863118D01*
X34479085Y8863277D01*
X34546076Y8863390D01*
X34620282Y8863454D01*
X34700920Y8863469D01*
X34787205Y8863434D01*
X34878356Y8863346D01*
X34973587Y8863205D01*
X35048825Y8863059D01*
X35817175Y8861425D01*
X35818913Y8751888D01*
X35820650Y8642350D01*
X35128200Y8642350D01*
X35128200Y8312260D01*
X35472688Y8310618D01*
X35817175Y8308975D01*
X35818913Y8199438D01*
X35820650Y8089900D01*
X34264301Y8089900D01*
G36*
X35636200Y7175500D02*
G01*
X35636200Y7607300D01*
X35159950Y7607300D01*
X35159950Y7251700D01*
X34975800Y7251700D01*
X34975800Y7607300D01*
X34448750Y7607300D01*
X34448750Y7156102D01*
X34358263Y7157864D01*
X34267775Y7159625D01*
X34266132Y7494613D01*
X34264488Y7829601D01*
X35040832Y7827988D01*
X35817175Y7826375D01*
X35818821Y7500938D01*
X35820466Y7175500D01*
X35636200Y7175500D01*
G37*
X35636200Y7175500D02*
X35636200Y7607300D01*
X35159950Y7607300D01*
X35159950Y7251700D01*
X34975800Y7251700D01*
X34975800Y7607300D01*
X34448750Y7607300D01*
X34448750Y7156102D01*
X34358263Y7157864D01*
X34267775Y7159625D01*
X34266132Y7494613D01*
X34264488Y7829601D01*
X35040832Y7827988D01*
X35817175Y7826375D01*
X35818821Y7500938D01*
X35820466Y7175500D01*
X35636200Y7175500D01*
G36*
X35820302Y6732588D02*
G01*
X35820134Y6675433D01*
X35819676Y6620182D01*
X35818964Y6568615D01*
X35818035Y6522514D01*
X35816925Y6483662D01*
X35815671Y6453840D01*
X35814307Y6434831D01*
X35814224Y6434080D01*
X35803778Y6379128D01*
X35785967Y6334265D01*
X35760317Y6298913D01*
X35726356Y6272494D01*
X35683608Y6254428D01*
X35662875Y6249183D01*
X35646637Y6247177D01*
X35619500Y6245490D01*
X35583156Y6244119D01*
X35539296Y6243060D01*
X35489611Y6242308D01*
X35435791Y6241859D01*
X35379526Y6241709D01*
X35322508Y6241855D01*
X35266428Y6242291D01*
X35212975Y6243015D01*
X35163842Y6244020D01*
X35120718Y6245305D01*
X35085293Y6246864D01*
X35059260Y6248693D01*
X35044714Y6250690D01*
X34997607Y6266792D01*
X34960020Y6291023D01*
X34931176Y6324075D01*
X34910301Y6366640D01*
X34908283Y6372456D01*
X34902114Y6390517D01*
X34897674Y6402749D01*
X34896368Y6405759D01*
X34890361Y6403879D01*
X34873638Y6397811D01*
X34847317Y6387981D01*
X34812517Y6374814D01*
X34770354Y6358735D01*
X34721946Y6340169D01*
X34668410Y6319542D01*
X34610864Y6297277D01*
X34594076Y6290765D01*
X34535066Y6267885D01*
X34479325Y6246311D01*
X34428035Y6226498D01*
X34382381Y6208903D01*
X34343545Y6193980D01*
X34312711Y6182184D01*
X34291061Y6173972D01*
X34279781Y6169798D01*
X34278746Y6169447D01*
X34264317Y6164905D01*
X34267775Y6402835D01*
X34890075Y6633633D01*
X34893709Y6756281D01*
X34267775Y6759575D01*
X34266038Y6869113D01*
X34264301Y6978650D01*
X35636200Y6978650D01*
X35636200Y6756400D01*
X35070338Y6756400D01*
X35072282Y6623263D01*
X35073043Y6578203D01*
X35073939Y6544126D01*
X35075127Y6519315D01*
X35076766Y6502055D01*
X35079012Y6490629D01*
X35082025Y6483320D01*
X35085565Y6478801D01*
X35089131Y6475977D01*
X35094428Y6473663D01*
X35102653Y6471809D01*
X35115001Y6470365D01*
X35132668Y6469280D01*
X35156851Y6468503D01*
X35188747Y6467985D01*
X35229551Y6467675D01*
X35280459Y6467522D01*
X35342669Y6467476D01*
X35354413Y6467475D01*
X35611923Y6467475D01*
X35624062Y6482466D01*
X35628192Y6488530D01*
X35631269Y6496303D01*
X35633446Y6507601D01*
X35634875Y6524242D01*
X35635708Y6548040D01*
X35636099Y6580813D01*
X35636200Y6624376D01*
X35636200Y6756400D01*
X35636200Y6978650D01*
X35820350Y6978650D01*
X35820302Y6732588D01*
G37*
X35820302Y6732588D02*
X35820134Y6675433D01*
X35819676Y6620182D01*
X35818964Y6568615D01*
X35818035Y6522514D01*
X35816925Y6483662D01*
X35815671Y6453840D01*
X35814307Y6434831D01*
X35814224Y6434080D01*
X35803778Y6379128D01*
X35785967Y6334265D01*
X35760317Y6298913D01*
X35726356Y6272494D01*
X35683608Y6254428D01*
X35662875Y6249183D01*
X35646637Y6247177D01*
X35619500Y6245490D01*
X35583156Y6244119D01*
X35539296Y6243060D01*
X35489611Y6242308D01*
X35435791Y6241859D01*
X35379526Y6241709D01*
X35322508Y6241855D01*
X35266428Y6242291D01*
X35212975Y6243015D01*
X35163842Y6244020D01*
X35120718Y6245305D01*
X35085293Y6246864D01*
X35059260Y6248693D01*
X35044714Y6250690D01*
X34997607Y6266792D01*
X34960020Y6291023D01*
X34931176Y6324075D01*
X34910301Y6366640D01*
X34908283Y6372456D01*
X34902114Y6390517D01*
X34897674Y6402749D01*
X34896368Y6405759D01*
X34890361Y6403879D01*
X34873638Y6397811D01*
X34847317Y6387981D01*
X34812517Y6374814D01*
X34770354Y6358735D01*
X34721946Y6340169D01*
X34668410Y6319542D01*
X34610864Y6297277D01*
X34594076Y6290765D01*
X34535066Y6267885D01*
X34479325Y6246311D01*
X34428035Y6226498D01*
X34382381Y6208903D01*
X34343545Y6193980D01*
X34312711Y6182184D01*
X34291061Y6173972D01*
X34279781Y6169798D01*
X34278746Y6169447D01*
X34264317Y6164905D01*
X34267775Y6402835D01*
X34890075Y6633633D01*
X34893709Y6756281D01*
X34267775Y6759575D01*
X34266038Y6869113D01*
X34264301Y6978650D01*
X35636200Y6978650D01*
X35636200Y6756400D01*
X35070338Y6756400D01*
X35072282Y6623263D01*
X35073043Y6578203D01*
X35073939Y6544126D01*
X35075127Y6519315D01*
X35076766Y6502055D01*
X35079012Y6490629D01*
X35082025Y6483320D01*
X35085565Y6478801D01*
X35089131Y6475977D01*
X35094428Y6473663D01*
X35102653Y6471809D01*
X35115001Y6470365D01*
X35132668Y6469280D01*
X35156851Y6468503D01*
X35188747Y6467985D01*
X35229551Y6467675D01*
X35280459Y6467522D01*
X35342669Y6467476D01*
X35354413Y6467475D01*
X35611923Y6467475D01*
X35624062Y6482466D01*
X35628192Y6488530D01*
X35631269Y6496303D01*
X35633446Y6507601D01*
X35634875Y6524242D01*
X35635708Y6548040D01*
X35636099Y6580813D01*
X35636200Y6624376D01*
X35636200Y6756400D01*
X35636200Y6978650D01*
X35820350Y6978650D01*
X35820302Y6732588D01*
G36*
X35816974Y5625681D02*
G01*
X35816588Y5582312D01*
X35815854Y5548297D01*
X35814686Y5521962D01*
X35812996Y5501634D01*
X35810696Y5485641D01*
X35807700Y5472310D01*
X35805933Y5466185D01*
X35786344Y5421488D01*
X35757684Y5385635D01*
X35719752Y5358380D01*
X35715781Y5356291D01*
X35678431Y5337175D01*
X35527141Y5335173D01*
X35375850Y5333170D01*
X35375850Y5556250D01*
X35490439Y5556250D01*
X35531182Y5556301D01*
X35561189Y5556607D01*
X35582428Y5557406D01*
X35596863Y5558933D01*
X35606459Y5561423D01*
X35613182Y5565110D01*
X35618998Y5570232D01*
X35620614Y5571837D01*
X35626623Y5578350D01*
X35630848Y5585360D01*
X35633604Y5595089D01*
X35635203Y5609761D01*
X35635959Y5631596D01*
X35636187Y5662818D01*
X35636200Y5682258D01*
X35636035Y5719661D01*
X35635376Y5746574D01*
X35633980Y5765202D01*
X35631603Y5777754D01*
X35628001Y5786435D01*
X35624068Y5792085D01*
X35611936Y5807075D01*
X35409756Y5809053D01*
X35347439Y5809563D01*
X35296583Y5809651D01*
X35255952Y5809165D01*
X35224309Y5807951D01*
X35200418Y5805857D01*
X35183043Y5802731D01*
X35170947Y5798419D01*
X35162895Y5792769D01*
X35157650Y5785628D01*
X35154195Y5777476D01*
X35151762Y5763934D01*
X35149763Y5739592D01*
X35148289Y5706349D01*
X35147433Y5666101D01*
X35147250Y5634990D01*
X35146749Y5579065D01*
X35145094Y5533952D01*
X35142063Y5497800D01*
X35137432Y5468756D01*
X35130976Y5444967D01*
X35122472Y5424580D01*
X35121625Y5422900D01*
X35098806Y5390746D01*
X35066484Y5362781D01*
X35036125Y5345438D01*
X35028264Y5341937D01*
X35020467Y5339037D01*
X35011500Y5336671D01*
X35000128Y5334774D01*
X34985117Y5333281D01*
X34965230Y5332127D01*
X34939235Y5331246D01*
X34905895Y5330572D01*
X34863975Y5330040D01*
X34812242Y5329586D01*
X34749459Y5329142D01*
X34725620Y5328983D01*
X34644055Y5328627D01*
X34574354Y5328713D01*
X34516674Y5329238D01*
X34471171Y5330199D01*
X34438000Y5331594D01*
X34417318Y5333421D01*
X34413479Y5334073D01*
X34375565Y5347014D01*
X34340669Y5368243D01*
X34312968Y5395048D01*
X34307192Y5402999D01*
X34296285Y5420711D01*
X34287637Y5438365D01*
X34280969Y5457732D01*
X34276000Y5480583D01*
X34272451Y5508690D01*
X34270039Y5543824D01*
X34268486Y5587756D01*
X34267511Y5642258D01*
X34267360Y5654675D01*
X34267075Y5700981D01*
X34267260Y5745452D01*
X34267872Y5785745D01*
X34268864Y5819522D01*
X34270193Y5844440D01*
X34271199Y5854657D01*
X34281981Y5899761D01*
X34300525Y5940300D01*
X34325265Y5973260D01*
X34339559Y5986027D01*
X34356866Y5998174D01*
X34374373Y6007637D01*
X34393938Y6014740D01*
X34417418Y6019804D01*
X34446670Y6023153D01*
X34483550Y6025109D01*
X34529916Y6025995D01*
X34570553Y6026150D01*
X34709100Y6026150D01*
X34709100Y5803900D01*
X34594512Y5803900D01*
X34553769Y5803850D01*
X34523762Y5803544D01*
X34502523Y5802745D01*
X34488088Y5801218D01*
X34478492Y5798728D01*
X34471769Y5795041D01*
X34465953Y5789919D01*
X34464337Y5788314D01*
X34458271Y5781726D01*
X34454025Y5774627D01*
X34451275Y5764762D01*
X34449697Y5749876D01*
X34448967Y5727715D01*
X34448760Y5696022D01*
X34448750Y5679947D01*
X34449176Y5646017D01*
X34450347Y5615925D01*
X34452101Y5592294D01*
X34454277Y5577748D01*
X34455175Y5575161D01*
X34460151Y5568586D01*
X34468152Y5563235D01*
X34480390Y5558989D01*
X34498078Y5555727D01*
X34522428Y5553330D01*
X34554653Y5551675D01*
X34595966Y5550644D01*
X34647579Y5550117D01*
X34709100Y5549971D01*
X34772157Y5550131D01*
X34823711Y5550686D01*
X34864959Y5551748D01*
X34897095Y5553433D01*
X34921315Y5555852D01*
X34938814Y5559120D01*
X34950786Y5563349D01*
X34958427Y5568653D01*
X34962356Y5573991D01*
X34964121Y5583250D01*
X34965910Y5603257D01*
X34967617Y5632058D01*
X34969136Y5667703D01*
X34970361Y5708239D01*
X34970852Y5730875D01*
X34972279Y5787445D01*
X34974486Y5833090D01*
X34977894Y5869580D01*
X34982920Y5898686D01*
X34989984Y5922176D01*
X34999504Y5941822D01*
X35011899Y5959393D01*
X35027587Y5976660D01*
X35029445Y5978530D01*
X35041287Y5990108D01*
X35052433Y5999760D01*
X35064129Y6007670D01*
X35077619Y6014026D01*
X35094147Y6019012D01*
X35114960Y6022814D01*
X35141300Y6025619D01*
X35174414Y6027613D01*
X35215545Y6028981D01*
X35265939Y6029909D01*
X35326839Y6030583D01*
X35381038Y6031041D01*
X35447387Y6031519D01*
X35502320Y6031764D01*
X35547116Y6031738D01*
X35583057Y6031409D01*
X35611425Y6030740D01*
X35633500Y6029698D01*
X35650564Y6028246D01*
X35663898Y6026349D01*
X35674783Y6023974D01*
X35678621Y6022916D01*
X35722236Y6005728D01*
X35756340Y5981579D01*
X35782420Y5948971D01*
X35801966Y5906407D01*
X35805676Y5895109D01*
X35809150Y5882405D01*
X35811858Y5868331D01*
X35813892Y5851191D01*
X35815340Y5829287D01*
X35816293Y5800925D01*
X35816842Y5764408D01*
X35817075Y5718040D01*
X35817101Y5680075D01*
X35816974Y5625681D01*
G37*
X35816974Y5625681D02*
X35816588Y5582312D01*
X35815854Y5548297D01*
X35814686Y5521962D01*
X35812996Y5501634D01*
X35810696Y5485641D01*
X35807700Y5472310D01*
X35805933Y5466185D01*
X35786344Y5421488D01*
X35757684Y5385635D01*
X35719752Y5358380D01*
X35715781Y5356291D01*
X35678431Y5337175D01*
X35527141Y5335173D01*
X35375850Y5333170D01*
X35375850Y5556250D01*
X35490439Y5556250D01*
X35531182Y5556301D01*
X35561189Y5556607D01*
X35582428Y5557406D01*
X35596863Y5558933D01*
X35606459Y5561423D01*
X35613182Y5565110D01*
X35618998Y5570232D01*
X35620614Y5571837D01*
X35626623Y5578350D01*
X35630848Y5585360D01*
X35633604Y5595089D01*
X35635203Y5609761D01*
X35635959Y5631596D01*
X35636187Y5662818D01*
X35636200Y5682258D01*
X35636035Y5719661D01*
X35635376Y5746574D01*
X35633980Y5765202D01*
X35631603Y5777754D01*
X35628001Y5786435D01*
X35624068Y5792085D01*
X35611936Y5807075D01*
X35409756Y5809053D01*
X35347439Y5809563D01*
X35296583Y5809651D01*
X35255952Y5809165D01*
X35224309Y5807951D01*
X35200418Y5805857D01*
X35183043Y5802731D01*
X35170947Y5798419D01*
X35162895Y5792769D01*
X35157650Y5785628D01*
X35154195Y5777476D01*
X35151762Y5763934D01*
X35149763Y5739592D01*
X35148289Y5706349D01*
X35147433Y5666101D01*
X35147250Y5634990D01*
X35146749Y5579065D01*
X35145094Y5533952D01*
X35142063Y5497800D01*
X35137432Y5468756D01*
X35130976Y5444967D01*
X35122472Y5424580D01*
X35121625Y5422900D01*
X35098806Y5390746D01*
X35066484Y5362781D01*
X35036125Y5345438D01*
X35028264Y5341937D01*
X35020467Y5339037D01*
X35011500Y5336671D01*
X35000128Y5334774D01*
X34985117Y5333281D01*
X34965230Y5332127D01*
X34939235Y5331246D01*
X34905895Y5330572D01*
X34863975Y5330040D01*
X34812242Y5329586D01*
X34749459Y5329142D01*
X34725620Y5328983D01*
X34644055Y5328627D01*
X34574354Y5328713D01*
X34516674Y5329238D01*
X34471171Y5330199D01*
X34438000Y5331594D01*
X34417318Y5333421D01*
X34413479Y5334073D01*
X34375565Y5347014D01*
X34340669Y5368243D01*
X34312968Y5395048D01*
X34307192Y5402999D01*
X34296285Y5420711D01*
X34287637Y5438365D01*
X34280969Y5457732D01*
X34276000Y5480583D01*
X34272451Y5508690D01*
X34270039Y5543824D01*
X34268486Y5587756D01*
X34267511Y5642258D01*
X34267360Y5654675D01*
X34267075Y5700981D01*
X34267260Y5745452D01*
X34267872Y5785745D01*
X34268864Y5819522D01*
X34270193Y5844440D01*
X34271199Y5854657D01*
X34281981Y5899761D01*
X34300525Y5940300D01*
X34325265Y5973260D01*
X34339559Y5986027D01*
X34356866Y5998174D01*
X34374373Y6007637D01*
X34393938Y6014740D01*
X34417418Y6019804D01*
X34446670Y6023153D01*
X34483550Y6025109D01*
X34529916Y6025995D01*
X34570553Y6026150D01*
X34709100Y6026150D01*
X34709100Y5803900D01*
X34594512Y5803900D01*
X34553769Y5803850D01*
X34523762Y5803544D01*
X34502523Y5802745D01*
X34488088Y5801218D01*
X34478492Y5798728D01*
X34471769Y5795041D01*
X34465953Y5789919D01*
X34464337Y5788314D01*
X34458271Y5781726D01*
X34454025Y5774627D01*
X34451275Y5764762D01*
X34449697Y5749876D01*
X34448967Y5727715D01*
X34448760Y5696022D01*
X34448750Y5679947D01*
X34449176Y5646017D01*
X34450347Y5615925D01*
X34452101Y5592294D01*
X34454277Y5577748D01*
X34455175Y5575161D01*
X34460151Y5568586D01*
X34468152Y5563235D01*
X34480390Y5558989D01*
X34498078Y5555727D01*
X34522428Y5553330D01*
X34554653Y5551675D01*
X34595966Y5550644D01*
X34647579Y5550117D01*
X34709100Y5549971D01*
X34772157Y5550131D01*
X34823711Y5550686D01*
X34864959Y5551748D01*
X34897095Y5553433D01*
X34921315Y5555852D01*
X34938814Y5559120D01*
X34950786Y5563349D01*
X34958427Y5568653D01*
X34962356Y5573991D01*
X34964121Y5583250D01*
X34965910Y5603257D01*
X34967617Y5632058D01*
X34969136Y5667703D01*
X34970361Y5708239D01*
X34970852Y5730875D01*
X34972279Y5787445D01*
X34974486Y5833090D01*
X34977894Y5869580D01*
X34982920Y5898686D01*
X34989984Y5922176D01*
X34999504Y5941822D01*
X35011899Y5959393D01*
X35027587Y5976660D01*
X35029445Y5978530D01*
X35041287Y5990108D01*
X35052433Y5999760D01*
X35064129Y6007670D01*
X35077619Y6014026D01*
X35094147Y6019012D01*
X35114960Y6022814D01*
X35141300Y6025619D01*
X35174414Y6027613D01*
X35215545Y6028981D01*
X35265939Y6029909D01*
X35326839Y6030583D01*
X35381038Y6031041D01*
X35447387Y6031519D01*
X35502320Y6031764D01*
X35547116Y6031738D01*
X35583057Y6031409D01*
X35611425Y6030740D01*
X35633500Y6029698D01*
X35650564Y6028246D01*
X35663898Y6026349D01*
X35674783Y6023974D01*
X35678621Y6022916D01*
X35722236Y6005728D01*
X35756340Y5981579D01*
X35782420Y5948971D01*
X35801966Y5906407D01*
X35805676Y5895109D01*
X35809150Y5882405D01*
X35811858Y5868331D01*
X35813892Y5851191D01*
X35815340Y5829287D01*
X35816293Y5800925D01*
X35816842Y5764408D01*
X35817075Y5718040D01*
X35817101Y5680075D01*
X35816974Y5625681D01*
G36*
X36378512Y14306716D02*
G01*
X36368249Y14165824D01*
X36352447Y14033640D01*
X36345450Y13988982D01*
X36339801Y13960388D01*
X36332936Y13942661D01*
X36322725Y13934837D01*
X36307037Y13935950D01*
X36283742Y13945034D01*
X36266582Y13953242D01*
X36209157Y13984781D01*
X36150907Y14022811D01*
X36094112Y14065434D01*
X36041051Y14110749D01*
X35994006Y14156856D01*
X35955254Y14201857D01*
X35936355Y14228426D01*
X35913554Y14271413D01*
X35893252Y14325328D01*
X35876000Y14388551D01*
X35866740Y14433550D01*
X35861536Y14470477D01*
X35857833Y14514027D01*
X35855629Y14561453D01*
X35854920Y14610007D01*
X35855706Y14656942D01*
X35857983Y14699511D01*
X35861750Y14734964D01*
X35867004Y14760556D01*
X35867010Y14760575D01*
X35878267Y14789827D01*
X35891533Y14811917D01*
X35905366Y14824793D01*
X35913804Y14827250D01*
X35922608Y14823159D01*
X35937181Y14812457D01*
X35953597Y14798158D01*
X35980151Y14767381D01*
X36006124Y14726088D01*
X36030502Y14676455D01*
X36052271Y14620656D01*
X36070416Y14560869D01*
X36077153Y14533139D01*
X36081251Y14511296D01*
X36084926Y14485585D01*
X36087810Y14459611D01*
X36089534Y14436974D01*
X36089729Y14421275D01*
X36089049Y14416899D01*
X36080450Y14409325D01*
X36066243Y14410326D01*
X36053096Y14417441D01*
X36037920Y14423350D01*
X36025490Y14418013D01*
X36020934Y14410491D01*
X36021880Y14397468D01*
X36030954Y14375126D01*
X36047999Y14343771D01*
X36072857Y14303708D01*
X36086685Y14282718D01*
X36114729Y14243193D01*
X36138436Y14215198D01*
X36158220Y14198486D01*
X36174497Y14192809D01*
X36187678Y14197920D01*
X36198179Y14213569D01*
X36199012Y14215498D01*
X36208311Y14241824D01*
X36215744Y14272602D01*
X36221522Y14309502D01*
X36225856Y14354191D01*
X36228956Y14408338D01*
X36230911Y14468475D01*
X36231892Y14541757D01*
X36230721Y14604486D01*
X36226935Y14658698D01*
X36220072Y14706427D01*
X36209670Y14749708D01*
X36195266Y14790576D01*
X36176399Y14831066D01*
X36152607Y14873211D01*
X36131290Y14907073D01*
X36092627Y14968206D01*
X36062212Y15020139D01*
X36039888Y15063191D01*
X36025496Y15097682D01*
X36018878Y15123931D01*
X36018484Y15134836D01*
X36022527Y15154046D01*
X36031454Y15162180D01*
X36045944Y15159383D01*
X36066674Y15145799D01*
X36067335Y15145278D01*
X36087850Y15131088D01*
X36112807Y15116569D01*
X36126003Y15109936D01*
X36152384Y15098764D01*
X36171357Y15094293D01*
X36183930Y15097607D01*
X36191109Y15109789D01*
X36193903Y15131924D01*
X36193317Y15165095D01*
X36192384Y15181362D01*
X36188060Y15237682D01*
X36181952Y15300646D01*
X36174387Y15367906D01*
X36165693Y15437114D01*
X36156196Y15505922D01*
X36146224Y15571982D01*
X36136104Y15632945D01*
X36126165Y15686464D01*
X36116732Y15730191D01*
X36114719Y15738419D01*
X36092247Y15816395D01*
X36065083Y15888679D01*
X36032179Y15956910D01*
X35992482Y16022725D01*
X35944944Y16087762D01*
X35888514Y16153658D01*
X35822142Y16222052D01*
X35777052Y16265022D01*
X35730454Y16309105D01*
X35691747Y16347669D01*
X35658864Y16383073D01*
X35629736Y16417679D01*
X35602295Y16453847D01*
X35574473Y16493937D01*
X35568009Y16503650D01*
X35529507Y16560905D01*
X35495392Y16609117D01*
X35463831Y16650313D01*
X35432990Y16686522D01*
X35401036Y16719775D01*
X35366137Y16752099D01*
X35326459Y16785523D01*
X35280600Y16821742D01*
X35239945Y16852642D01*
X35207689Y16875917D01*
X35182691Y16892322D01*
X35163809Y16902613D01*
X35151400Y16907198D01*
X35140617Y16908574D01*
X35135737Y16905084D01*
X35137102Y16895561D01*
X35145051Y16878839D01*
X35159924Y16853750D01*
X35172943Y16833216D01*
X35190148Y16805791D01*
X35206081Y16779198D01*
X35218613Y16757052D01*
X35224208Y16746159D01*
X35237080Y16718793D01*
X35220744Y16697376D01*
X35205547Y16680338D01*
X35191186Y16672662D01*
X35174603Y16674076D01*
X35152737Y16684306D01*
X35142530Y16690372D01*
X35090958Y16715629D01*
X35039147Y16728356D01*
X34987537Y16728524D01*
X34936567Y16716101D01*
X34914114Y16706471D01*
X34874796Y16681983D01*
X34846107Y16651645D01*
X34827612Y16614636D01*
X34818876Y16570134D01*
X34818753Y16526488D01*
X34827791Y16467688D01*
X34847523Y16406091D01*
X34878201Y16341164D01*
X34920077Y16272372D01*
X34973404Y16199182D01*
X34973432Y16199147D01*
X35013573Y16145716D01*
X35045112Y16098768D01*
X35069137Y16056576D01*
X35085090Y16021598D01*
X35092718Y15994892D01*
X35097798Y15961579D01*
X35100270Y15925182D01*
X35100072Y15889223D01*
X35097145Y15857226D01*
X35091428Y15832713D01*
X35088454Y15825989D01*
X35075015Y15807700D01*
X35052322Y15783959D01*
X35021938Y15755963D01*
X34985429Y15724909D01*
X34944361Y15691995D01*
X34900297Y15658418D01*
X34854803Y15625375D01*
X34809445Y15594063D01*
X34765787Y15565680D01*
X34725394Y15541424D01*
X34695214Y15525154D01*
X34641850Y15501549D01*
X34593850Y15487487D01*
X34548897Y15482399D01*
X34524900Y15483196D01*
X34479891Y15489517D01*
X34441681Y15501121D01*
X34408891Y15519240D01*
X34380138Y15545105D01*
X34354042Y15579948D01*
X34329221Y15624999D01*
X34305355Y15678887D01*
X34288874Y15718727D01*
X34275622Y15749104D01*
X34264255Y15772402D01*
X34253429Y15791004D01*
X34241800Y15807296D01*
X34228024Y15823662D01*
X34216810Y15835978D01*
X34185854Y15866068D01*
X34157226Y15885805D01*
X34128153Y15896471D01*
X34095863Y15899344D01*
X34081157Y15898575D01*
X34027318Y15889263D01*
X33982323Y15870993D01*
X33945840Y15843588D01*
X33921033Y15812600D01*
X33907925Y15784137D01*
X33902331Y15754215D01*
X33904780Y15727090D01*
X33909058Y15716142D01*
X33916743Y15707822D01*
X33932600Y15694541D01*
X33954163Y15678269D01*
X33974146Y15664228D01*
X34002074Y15643544D01*
X34035126Y15616426D01*
X34069861Y15585816D01*
X34102837Y15554656D01*
X34106324Y15551206D01*
X34145626Y15510390D01*
X34180987Y15469578D01*
X34213359Y15427167D01*
X34243695Y15381553D01*
X34272948Y15331133D01*
X34302071Y15274303D01*
X34332016Y15209460D01*
X34363737Y15134999D01*
X34385532Y15081250D01*
X34402935Y15038477D01*
X34421041Y14995401D01*
X34438579Y14954947D01*
X34454280Y14920035D01*
X34466872Y14893588D01*
X34468485Y14890394D01*
X34494529Y14843969D01*
X34524602Y14799557D01*
X34559897Y14755911D01*
X34601605Y14711782D01*
X34650921Y14665922D01*
X34709036Y14617082D01*
X34777142Y14564015D01*
X34788475Y14555477D01*
X34854649Y14508656D01*
X34916495Y14471368D01*
X34976667Y14442537D01*
X35037816Y14421087D01*
X35102598Y14405940D01*
X35173664Y14396022D01*
X35184041Y14395010D01*
X35245908Y14392269D01*
X35315807Y14394324D01*
X35390183Y14400769D01*
X35465480Y14411200D01*
X35538144Y14425212D01*
X35604621Y14442400D01*
X35607317Y14443213D01*
X35626443Y14448475D01*
X35637711Y14449417D01*
X35645212Y14446021D01*
X35648485Y14443038D01*
X35654141Y14432805D01*
X35650383Y14421540D01*
X35636392Y14408126D01*
X35611351Y14391446D01*
X35610117Y14390701D01*
X35534453Y14351711D01*
X35449989Y14320037D01*
X35358453Y14295886D01*
X35261570Y14279469D01*
X35161066Y14270994D01*
X35058670Y14270671D01*
X34956106Y14278707D01*
X34855101Y14295312D01*
X34843192Y14297885D01*
X34771138Y14316055D01*
X34701510Y14338421D01*
X34630460Y14366371D01*
X34554138Y14401295D01*
X34547175Y14404682D01*
X34496727Y14430895D01*
X34443012Y14461566D01*
X34388076Y14495308D01*
X34333963Y14530732D01*
X34282719Y14566447D01*
X34236387Y14601067D01*
X34197013Y14633201D01*
X34166641Y14661461D01*
X34162066Y14666269D01*
X34145256Y14684375D01*
X34161485Y14744700D01*
X34168217Y14771579D01*
X34172858Y14795841D01*
X34175795Y14821086D01*
X34177414Y14850914D01*
X34178100Y14888924D01*
X34178172Y14900275D01*
X34177847Y14947444D01*
X34175954Y14986263D01*
X34171876Y15021049D01*
X34164997Y15056116D01*
X34154703Y15095780D01*
X34145998Y15125700D01*
X34133269Y15164138D01*
X34116898Y15207333D01*
X34098285Y15252092D01*
X34078830Y15295221D01*
X34059932Y15333528D01*
X34042992Y15363817D01*
X34038668Y15370610D01*
X33995329Y15425350D01*
X33941360Y15475639D01*
X33878368Y15520421D01*
X33807961Y15558641D01*
X33731748Y15589244D01*
X33684118Y15603452D01*
X33653583Y15611941D01*
X33633581Y15619044D01*
X33622169Y15625736D01*
X33617401Y15632989D01*
X33616900Y15637103D01*
X33620476Y15645393D01*
X33630124Y15661245D01*
X33644225Y15682115D01*
X33655799Y15698238D01*
X33709291Y15763596D01*
X33771502Y15826911D01*
X33839578Y15885758D01*
X33910663Y15937710D01*
X33981902Y15980341D01*
X33996775Y15987962D01*
X34027467Y16002508D01*
X34051311Y16011782D01*
X34072350Y16017045D01*
X34094624Y16019564D01*
X34098559Y16019796D01*
X34124281Y16020265D01*
X34143898Y16017458D01*
X34163862Y16010022D01*
X34177977Y16003139D01*
X34215178Y15984220D01*
X34261950Y16009448D01*
X34294320Y16024910D01*
X34317887Y16031546D01*
X34332949Y16029390D01*
X34339783Y16018583D01*
X34338146Y16007922D01*
X34331877Y15989064D01*
X34322097Y15965138D01*
X34315216Y15950082D01*
X34304075Y15925939D01*
X34295704Y15906443D01*
X34291167Y15894154D01*
X34290768Y15891254D01*
X34296519Y15893812D01*
X34310070Y15902567D01*
X34329141Y15915993D01*
X34343230Y15926363D01*
X34374166Y15948265D01*
X34403756Y15966986D01*
X34430018Y15981466D01*
X34450971Y15990648D01*
X34464633Y15993474D01*
X34467466Y15992682D01*
X34472259Y15987922D01*
X34472821Y15980714D01*
X34468374Y15969344D01*
X34458139Y15952095D01*
X34441336Y15927250D01*
X34431234Y15912865D01*
X34411540Y15884141D01*
X34392314Y15854610D01*
X34376163Y15828353D01*
X34368027Y15814000D01*
X34347629Y15775695D01*
X34369643Y15743007D01*
X34407807Y15695344D01*
X34450749Y15659166D01*
X34499341Y15634012D01*
X34554456Y15619426D01*
X34613850Y15614940D01*
X34668543Y15620992D01*
X34723477Y15638330D01*
X34777212Y15665649D01*
X34828307Y15701647D01*
X34875323Y15745021D01*
X34916818Y15794466D01*
X34951352Y15848681D01*
X34977485Y15906361D01*
X34991998Y15957054D01*
X34996924Y15994616D01*
X34995324Y16031845D01*
X34986647Y16070743D01*
X34970342Y16113312D01*
X34945860Y16161554D01*
X34926697Y16194585D01*
X34914316Y16214245D01*
X34905434Y16224878D01*
X34897518Y16228631D01*
X34888030Y16227650D01*
X34887726Y16227578D01*
X34859655Y16217947D01*
X34823892Y16201079D01*
X34782389Y16178002D01*
X34737097Y16149745D01*
X34725720Y16142200D01*
X34694684Y16121460D01*
X34672383Y16107031D01*
X34657019Y16098128D01*
X34646791Y16093968D01*
X34639902Y16093768D01*
X34634552Y16096745D01*
X34630374Y16100685D01*
X34624466Y16110564D01*
X34623131Y16125190D01*
X34626617Y16146384D01*
X34635168Y16175967D01*
X34644082Y16202025D01*
X34668674Y16262479D01*
X34699858Y16322887D01*
X34728996Y16370935D01*
X34742690Y16392835D01*
X34753274Y16410744D01*
X34759183Y16421967D01*
X34759900Y16424148D01*
X34754475Y16427763D01*
X34739910Y16427044D01*
X34718769Y16422583D01*
X34693618Y16414974D01*
X34667022Y16404807D01*
X34657027Y16400378D01*
X34631386Y16389155D01*
X34614770Y16383636D01*
X34605145Y16383272D01*
X34601714Y16385496D01*
X34601273Y16395479D01*
X34608505Y16413586D01*
X34622621Y16438471D01*
X34642832Y16468791D01*
X34668349Y16503200D01*
X34678085Y16515582D01*
X34695498Y16537757D01*
X34706435Y16553580D01*
X34712402Y16566577D01*
X34714903Y16580275D01*
X34715445Y16598199D01*
X34715450Y16603098D01*
X34717131Y16633337D01*
X34723153Y16659391D01*
X34734989Y16685007D01*
X34754112Y16713934D01*
X34764324Y16727523D01*
X34812743Y16785853D01*
X34863532Y16838553D01*
X34915325Y16884568D01*
X34966755Y16922841D01*
X35016456Y16952317D01*
X35063061Y16971937D01*
X35089086Y16978562D01*
X35117922Y16982032D01*
X35143674Y16980442D01*
X35169149Y16972864D01*
X35197153Y16958367D01*
X35230493Y16936024D01*
X35241130Y16928262D01*
X35331847Y16858434D01*
X35410682Y16791752D01*
X35477970Y16727896D01*
X35534049Y16666543D01*
X35579253Y16607372D01*
X35585320Y16598356D01*
X35605834Y16568913D01*
X35628641Y16538725D01*
X35650275Y16512281D01*
X35660875Y16500475D01*
X35682849Y16476699D01*
X35705926Y16450837D01*
X35725147Y16428451D01*
X35725310Y16428253D01*
X35741125Y16411197D01*
X35764038Y16389014D01*
X35791146Y16364406D01*
X35819547Y16340075D01*
X35823525Y16336792D01*
X35905748Y16264876D01*
X35976166Y16193616D01*
X36035573Y16122069D01*
X36084763Y16049294D01*
X36118960Y15986125D01*
X36137002Y15945942D01*
X36157117Y15896248D01*
X36178292Y15839850D01*
X36199514Y15779556D01*
X36219771Y15718175D01*
X36238049Y15658515D01*
X36241741Y15645772D01*
X36275845Y15514012D01*
X36305506Y15373458D01*
X36330603Y15226055D01*
X36351014Y15073748D01*
X36366616Y14918481D01*
X36377289Y14762200D01*
X36382910Y14606849D01*
X36383359Y14454373D01*
X36378512Y14306716D01*
G37*
X36378512Y14306716D02*
X36368249Y14165824D01*
X36352447Y14033640D01*
X36345450Y13988982D01*
X36339801Y13960388D01*
X36332936Y13942661D01*
X36322725Y13934837D01*
X36307037Y13935950D01*
X36283742Y13945034D01*
X36266582Y13953242D01*
X36209157Y13984781D01*
X36150907Y14022811D01*
X36094112Y14065434D01*
X36041051Y14110749D01*
X35994006Y14156856D01*
X35955254Y14201857D01*
X35936355Y14228426D01*
X35913554Y14271413D01*
X35893252Y14325328D01*
X35876000Y14388551D01*
X35866740Y14433550D01*
X35861536Y14470477D01*
X35857833Y14514027D01*
X35855629Y14561453D01*
X35854920Y14610007D01*
X35855706Y14656942D01*
X35857983Y14699511D01*
X35861750Y14734964D01*
X35867004Y14760556D01*
X35867010Y14760575D01*
X35878267Y14789827D01*
X35891533Y14811917D01*
X35905366Y14824793D01*
X35913804Y14827250D01*
X35922608Y14823159D01*
X35937181Y14812457D01*
X35953597Y14798158D01*
X35980151Y14767381D01*
X36006124Y14726088D01*
X36030502Y14676455D01*
X36052271Y14620656D01*
X36070416Y14560869D01*
X36077153Y14533139D01*
X36081251Y14511296D01*
X36084926Y14485585D01*
X36087810Y14459611D01*
X36089534Y14436974D01*
X36089729Y14421275D01*
X36089049Y14416899D01*
X36080450Y14409325D01*
X36066243Y14410326D01*
X36053096Y14417441D01*
X36037920Y14423350D01*
X36025490Y14418013D01*
X36020934Y14410491D01*
X36021880Y14397468D01*
X36030954Y14375126D01*
X36047999Y14343771D01*
X36072857Y14303708D01*
X36086685Y14282718D01*
X36114729Y14243193D01*
X36138436Y14215198D01*
X36158220Y14198486D01*
X36174497Y14192809D01*
X36187678Y14197920D01*
X36198179Y14213569D01*
X36199012Y14215498D01*
X36208311Y14241824D01*
X36215744Y14272602D01*
X36221522Y14309502D01*
X36225856Y14354191D01*
X36228956Y14408338D01*
X36230911Y14468475D01*
X36231892Y14541757D01*
X36230721Y14604486D01*
X36226935Y14658698D01*
X36220072Y14706427D01*
X36209670Y14749708D01*
X36195266Y14790576D01*
X36176399Y14831066D01*
X36152607Y14873211D01*
X36131290Y14907073D01*
X36092627Y14968206D01*
X36062212Y15020139D01*
X36039888Y15063191D01*
X36025496Y15097682D01*
X36018878Y15123931D01*
X36018484Y15134836D01*
X36022527Y15154046D01*
X36031454Y15162180D01*
X36045944Y15159383D01*
X36066674Y15145799D01*
X36067335Y15145278D01*
X36087850Y15131088D01*
X36112807Y15116569D01*
X36126003Y15109936D01*
X36152384Y15098764D01*
X36171357Y15094293D01*
X36183930Y15097607D01*
X36191109Y15109789D01*
X36193903Y15131924D01*
X36193317Y15165095D01*
X36192384Y15181362D01*
X36188060Y15237682D01*
X36181952Y15300646D01*
X36174387Y15367906D01*
X36165693Y15437114D01*
X36156196Y15505922D01*
X36146224Y15571982D01*
X36136104Y15632945D01*
X36126165Y15686464D01*
X36116732Y15730191D01*
X36114719Y15738419D01*
X36092247Y15816395D01*
X36065083Y15888679D01*
X36032179Y15956910D01*
X35992482Y16022725D01*
X35944944Y16087762D01*
X35888514Y16153658D01*
X35822142Y16222052D01*
X35777052Y16265022D01*
X35730454Y16309105D01*
X35691747Y16347669D01*
X35658864Y16383073D01*
X35629736Y16417679D01*
X35602295Y16453847D01*
X35574473Y16493937D01*
X35568009Y16503650D01*
X35529507Y16560905D01*
X35495392Y16609117D01*
X35463831Y16650313D01*
X35432990Y16686522D01*
X35401036Y16719775D01*
X35366137Y16752099D01*
X35326459Y16785523D01*
X35280600Y16821742D01*
X35239945Y16852642D01*
X35207689Y16875917D01*
X35182691Y16892322D01*
X35163809Y16902613D01*
X35151400Y16907198D01*
X35140617Y16908574D01*
X35135737Y16905084D01*
X35137102Y16895561D01*
X35145051Y16878839D01*
X35159924Y16853750D01*
X35172943Y16833216D01*
X35190148Y16805791D01*
X35206081Y16779198D01*
X35218613Y16757052D01*
X35224208Y16746159D01*
X35237080Y16718793D01*
X35220744Y16697376D01*
X35205547Y16680338D01*
X35191186Y16672662D01*
X35174603Y16674076D01*
X35152737Y16684306D01*
X35142530Y16690372D01*
X35090958Y16715629D01*
X35039147Y16728356D01*
X34987537Y16728524D01*
X34936567Y16716101D01*
X34914114Y16706471D01*
X34874796Y16681983D01*
X34846107Y16651645D01*
X34827612Y16614636D01*
X34818876Y16570134D01*
X34818753Y16526488D01*
X34827791Y16467688D01*
X34847523Y16406091D01*
X34878201Y16341164D01*
X34920077Y16272372D01*
X34973404Y16199182D01*
X34973432Y16199147D01*
X35013573Y16145716D01*
X35045112Y16098768D01*
X35069137Y16056576D01*
X35085090Y16021598D01*
X35092718Y15994892D01*
X35097798Y15961579D01*
X35100270Y15925182D01*
X35100072Y15889223D01*
X35097145Y15857226D01*
X35091428Y15832713D01*
X35088454Y15825989D01*
X35075015Y15807700D01*
X35052322Y15783959D01*
X35021938Y15755963D01*
X34985429Y15724909D01*
X34944361Y15691995D01*
X34900297Y15658418D01*
X34854803Y15625375D01*
X34809445Y15594063D01*
X34765787Y15565680D01*
X34725394Y15541424D01*
X34695214Y15525154D01*
X34641850Y15501549D01*
X34593850Y15487487D01*
X34548897Y15482399D01*
X34524900Y15483196D01*
X34479891Y15489517D01*
X34441681Y15501121D01*
X34408891Y15519240D01*
X34380138Y15545105D01*
X34354042Y15579948D01*
X34329221Y15624999D01*
X34305355Y15678887D01*
X34288874Y15718727D01*
X34275622Y15749104D01*
X34264255Y15772402D01*
X34253429Y15791004D01*
X34241800Y15807296D01*
X34228024Y15823662D01*
X34216810Y15835978D01*
X34185854Y15866068D01*
X34157226Y15885805D01*
X34128153Y15896471D01*
X34095863Y15899344D01*
X34081157Y15898575D01*
X34027318Y15889263D01*
X33982323Y15870993D01*
X33945840Y15843588D01*
X33921033Y15812600D01*
X33907925Y15784137D01*
X33902331Y15754215D01*
X33904780Y15727090D01*
X33909058Y15716142D01*
X33916743Y15707822D01*
X33932600Y15694541D01*
X33954163Y15678269D01*
X33974146Y15664228D01*
X34002074Y15643544D01*
X34035126Y15616426D01*
X34069861Y15585816D01*
X34102837Y15554656D01*
X34106324Y15551206D01*
X34145626Y15510390D01*
X34180987Y15469578D01*
X34213359Y15427167D01*
X34243695Y15381553D01*
X34272948Y15331133D01*
X34302071Y15274303D01*
X34332016Y15209460D01*
X34363737Y15134999D01*
X34385532Y15081250D01*
X34402935Y15038477D01*
X34421041Y14995401D01*
X34438579Y14954947D01*
X34454280Y14920035D01*
X34466872Y14893588D01*
X34468485Y14890394D01*
X34494529Y14843969D01*
X34524602Y14799557D01*
X34559897Y14755911D01*
X34601605Y14711782D01*
X34650921Y14665922D01*
X34709036Y14617082D01*
X34777142Y14564015D01*
X34788475Y14555477D01*
X34854649Y14508656D01*
X34916495Y14471368D01*
X34976667Y14442537D01*
X35037816Y14421087D01*
X35102598Y14405940D01*
X35173664Y14396022D01*
X35184041Y14395010D01*
X35245908Y14392269D01*
X35315807Y14394324D01*
X35390183Y14400769D01*
X35465480Y14411200D01*
X35538144Y14425212D01*
X35604621Y14442400D01*
X35607317Y14443213D01*
X35626443Y14448475D01*
X35637711Y14449417D01*
X35645212Y14446021D01*
X35648485Y14443038D01*
X35654141Y14432805D01*
X35650383Y14421540D01*
X35636392Y14408126D01*
X35611351Y14391446D01*
X35610117Y14390701D01*
X35534453Y14351711D01*
X35449989Y14320037D01*
X35358453Y14295886D01*
X35261570Y14279469D01*
X35161066Y14270994D01*
X35058670Y14270671D01*
X34956106Y14278707D01*
X34855101Y14295312D01*
X34843192Y14297885D01*
X34771138Y14316055D01*
X34701510Y14338421D01*
X34630460Y14366371D01*
X34554138Y14401295D01*
X34547175Y14404682D01*
X34496727Y14430895D01*
X34443012Y14461566D01*
X34388076Y14495308D01*
X34333963Y14530732D01*
X34282719Y14566447D01*
X34236387Y14601067D01*
X34197013Y14633201D01*
X34166641Y14661461D01*
X34162066Y14666269D01*
X34145256Y14684375D01*
X34161485Y14744700D01*
X34168217Y14771579D01*
X34172858Y14795841D01*
X34175795Y14821086D01*
X34177414Y14850914D01*
X34178100Y14888924D01*
X34178172Y14900275D01*
X34177847Y14947444D01*
X34175954Y14986263D01*
X34171876Y15021049D01*
X34164997Y15056116D01*
X34154703Y15095780D01*
X34145998Y15125700D01*
X34133269Y15164138D01*
X34116898Y15207333D01*
X34098285Y15252092D01*
X34078830Y15295221D01*
X34059932Y15333528D01*
X34042992Y15363817D01*
X34038668Y15370610D01*
X33995329Y15425350D01*
X33941360Y15475639D01*
X33878368Y15520421D01*
X33807961Y15558641D01*
X33731748Y15589244D01*
X33684118Y15603452D01*
X33653583Y15611941D01*
X33633581Y15619044D01*
X33622169Y15625736D01*
X33617401Y15632989D01*
X33616900Y15637103D01*
X33620476Y15645393D01*
X33630124Y15661245D01*
X33644225Y15682115D01*
X33655799Y15698238D01*
X33709291Y15763596D01*
X33771502Y15826911D01*
X33839578Y15885758D01*
X33910663Y15937710D01*
X33981902Y15980341D01*
X33996775Y15987962D01*
X34027467Y16002508D01*
X34051311Y16011782D01*
X34072350Y16017045D01*
X34094624Y16019564D01*
X34098559Y16019796D01*
X34124281Y16020265D01*
X34143898Y16017458D01*
X34163862Y16010022D01*
X34177977Y16003139D01*
X34215178Y15984220D01*
X34261950Y16009448D01*
X34294320Y16024910D01*
X34317887Y16031546D01*
X34332949Y16029390D01*
X34339783Y16018583D01*
X34338146Y16007922D01*
X34331877Y15989064D01*
X34322097Y15965138D01*
X34315216Y15950082D01*
X34304075Y15925939D01*
X34295704Y15906443D01*
X34291167Y15894154D01*
X34290768Y15891254D01*
X34296519Y15893812D01*
X34310070Y15902567D01*
X34329141Y15915993D01*
X34343230Y15926363D01*
X34374166Y15948265D01*
X34403756Y15966986D01*
X34430018Y15981466D01*
X34450971Y15990648D01*
X34464633Y15993474D01*
X34467466Y15992682D01*
X34472259Y15987922D01*
X34472821Y15980714D01*
X34468374Y15969344D01*
X34458139Y15952095D01*
X34441336Y15927250D01*
X34431234Y15912865D01*
X34411540Y15884141D01*
X34392314Y15854610D01*
X34376163Y15828353D01*
X34368027Y15814000D01*
X34347629Y15775695D01*
X34369643Y15743007D01*
X34407807Y15695344D01*
X34450749Y15659166D01*
X34499341Y15634012D01*
X34554456Y15619426D01*
X34613850Y15614940D01*
X34668543Y15620992D01*
X34723477Y15638330D01*
X34777212Y15665649D01*
X34828307Y15701647D01*
X34875323Y15745021D01*
X34916818Y15794466D01*
X34951352Y15848681D01*
X34977485Y15906361D01*
X34991998Y15957054D01*
X34996924Y15994616D01*
X34995324Y16031845D01*
X34986647Y16070743D01*
X34970342Y16113312D01*
X34945860Y16161554D01*
X34926697Y16194585D01*
X34914316Y16214245D01*
X34905434Y16224878D01*
X34897518Y16228631D01*
X34888030Y16227650D01*
X34887726Y16227578D01*
X34859655Y16217947D01*
X34823892Y16201079D01*
X34782389Y16178002D01*
X34737097Y16149745D01*
X34725720Y16142200D01*
X34694684Y16121460D01*
X34672383Y16107031D01*
X34657019Y16098128D01*
X34646791Y16093968D01*
X34639902Y16093768D01*
X34634552Y16096745D01*
X34630374Y16100685D01*
X34624466Y16110564D01*
X34623131Y16125190D01*
X34626617Y16146384D01*
X34635168Y16175967D01*
X34644082Y16202025D01*
X34668674Y16262479D01*
X34699858Y16322887D01*
X34728996Y16370935D01*
X34742690Y16392835D01*
X34753274Y16410744D01*
X34759183Y16421967D01*
X34759900Y16424148D01*
X34754475Y16427763D01*
X34739910Y16427044D01*
X34718769Y16422583D01*
X34693618Y16414974D01*
X34667022Y16404807D01*
X34657027Y16400378D01*
X34631386Y16389155D01*
X34614770Y16383636D01*
X34605145Y16383272D01*
X34601714Y16385496D01*
X34601273Y16395479D01*
X34608505Y16413586D01*
X34622621Y16438471D01*
X34642832Y16468791D01*
X34668349Y16503200D01*
X34678085Y16515582D01*
X34695498Y16537757D01*
X34706435Y16553580D01*
X34712402Y16566577D01*
X34714903Y16580275D01*
X34715445Y16598199D01*
X34715450Y16603098D01*
X34717131Y16633337D01*
X34723153Y16659391D01*
X34734989Y16685007D01*
X34754112Y16713934D01*
X34764324Y16727523D01*
X34812743Y16785853D01*
X34863532Y16838553D01*
X34915325Y16884568D01*
X34966755Y16922841D01*
X35016456Y16952317D01*
X35063061Y16971937D01*
X35089086Y16978562D01*
X35117922Y16982032D01*
X35143674Y16980442D01*
X35169149Y16972864D01*
X35197153Y16958367D01*
X35230493Y16936024D01*
X35241130Y16928262D01*
X35331847Y16858434D01*
X35410682Y16791752D01*
X35477970Y16727896D01*
X35534049Y16666543D01*
X35579253Y16607372D01*
X35585320Y16598356D01*
X35605834Y16568913D01*
X35628641Y16538725D01*
X35650275Y16512281D01*
X35660875Y16500475D01*
X35682849Y16476699D01*
X35705926Y16450837D01*
X35725147Y16428451D01*
X35725310Y16428253D01*
X35741125Y16411197D01*
X35764038Y16389014D01*
X35791146Y16364406D01*
X35819547Y16340075D01*
X35823525Y16336792D01*
X35905748Y16264876D01*
X35976166Y16193616D01*
X36035573Y16122069D01*
X36084763Y16049294D01*
X36118960Y15986125D01*
X36137002Y15945942D01*
X36157117Y15896248D01*
X36178292Y15839850D01*
X36199514Y15779556D01*
X36219771Y15718175D01*
X36238049Y15658515D01*
X36241741Y15645772D01*
X36275845Y15514012D01*
X36305506Y15373458D01*
X36330603Y15226055D01*
X36351014Y15073748D01*
X36366616Y14918481D01*
X36377289Y14762200D01*
X36382910Y14606849D01*
X36383359Y14454373D01*
X36378512Y14306716D01*
G36*
X35455345Y16256471D02*
G01*
X35447431Y16239983D01*
X35436541Y16219619D01*
X35424556Y16198823D01*
X35413356Y16181040D01*
X35408287Y16173888D01*
X35385925Y16150183D01*
X35356148Y16126278D01*
X35323465Y16105298D01*
X35292387Y16090367D01*
X35283384Y16087339D01*
X35256339Y16081835D01*
X35227152Y16079308D01*
X35215878Y16079443D01*
X35182175Y16081375D01*
X35215386Y16089867D01*
X35250215Y16102930D01*
X35286630Y16123453D01*
X35319768Y16148302D01*
X35343090Y16172174D01*
X35356144Y16190578D01*
X35370171Y16213352D01*
X35383387Y16237189D01*
X35394007Y16258782D01*
X35400248Y16274825D01*
X35401170Y16279813D01*
X35405388Y16287191D01*
X35407804Y16287750D01*
X35418116Y16285460D01*
X35432882Y16279959D01*
X35447396Y16273304D01*
X35456952Y16267553D01*
X35458400Y16265638D01*
X35455345Y16256471D01*
G37*
X35455345Y16256471D02*
X35447431Y16239983D01*
X35436541Y16219619D01*
X35424556Y16198823D01*
X35413356Y16181040D01*
X35408287Y16173888D01*
X35385925Y16150183D01*
X35356148Y16126278D01*
X35323465Y16105298D01*
X35292387Y16090367D01*
X35283384Y16087339D01*
X35256339Y16081835D01*
X35227152Y16079308D01*
X35215878Y16079443D01*
X35182175Y16081375D01*
X35215386Y16089867D01*
X35250215Y16102930D01*
X35286630Y16123453D01*
X35319768Y16148302D01*
X35343090Y16172174D01*
X35356144Y16190578D01*
X35370171Y16213352D01*
X35383387Y16237189D01*
X35394007Y16258782D01*
X35400248Y16274825D01*
X35401170Y16279813D01*
X35405388Y16287191D01*
X35407804Y16287750D01*
X35418116Y16285460D01*
X35432882Y16279959D01*
X35447396Y16273304D01*
X35456952Y16267553D01*
X35458400Y16265638D01*
X35455345Y16256471D01*
G36*
X35707908Y14998007D02*
G01*
X35700650Y15000911D01*
X35686030Y15009541D01*
X35662920Y15024464D01*
X35640547Y15039316D01*
X35604690Y15062888D01*
X35562796Y15089843D01*
X35519741Y15117074D01*
X35480403Y15141474D01*
X35475363Y15144552D01*
X35442135Y15165057D01*
X35418426Y15180458D01*
X35402729Y15191947D01*
X35393534Y15200717D01*
X35389333Y15207961D01*
X35388550Y15213166D01*
X35386948Y15229508D01*
X35382435Y15256202D01*
X35375455Y15291350D01*
X35366450Y15333054D01*
X35355862Y15379417D01*
X35344136Y15428540D01*
X35331712Y15478525D01*
X35319034Y15527476D01*
X35306545Y15573494D01*
X35295642Y15611475D01*
X35294487Y15619715D01*
X35298497Y15617825D01*
X35303869Y15609913D01*
X35313531Y15593140D01*
X35326088Y15570003D01*
X35339491Y15544290D01*
X35360963Y15498302D01*
X35382272Y15445481D01*
X35401987Y15389947D01*
X35418675Y15335823D01*
X35430902Y15287232D01*
X35433676Y15273320D01*
X35438346Y15249504D01*
X35443262Y15234186D01*
X35450943Y15223367D01*
X35463906Y15213048D01*
X35477244Y15204130D01*
X35517772Y15175954D01*
X35559368Y15144389D01*
X35599926Y15111255D01*
X35637344Y15078374D01*
X35669517Y15047569D01*
X35694340Y15020659D01*
X35704840Y15007127D01*
X35708929Y15000267D01*
X35707908Y14998007D01*
G37*
X35707908Y14998007D02*
X35700650Y15000911D01*
X35686030Y15009541D01*
X35662920Y15024464D01*
X35640547Y15039316D01*
X35604690Y15062888D01*
X35562796Y15089843D01*
X35519741Y15117074D01*
X35480403Y15141474D01*
X35475363Y15144552D01*
X35442135Y15165057D01*
X35418426Y15180458D01*
X35402729Y15191947D01*
X35393534Y15200717D01*
X35389333Y15207961D01*
X35388550Y15213166D01*
X35386948Y15229508D01*
X35382435Y15256202D01*
X35375455Y15291350D01*
X35366450Y15333054D01*
X35355862Y15379417D01*
X35344136Y15428540D01*
X35331712Y15478525D01*
X35319034Y15527476D01*
X35306545Y15573494D01*
X35295642Y15611475D01*
X35294487Y15619715D01*
X35298497Y15617825D01*
X35303869Y15609913D01*
X35313531Y15593140D01*
X35326088Y15570003D01*
X35339491Y15544290D01*
X35360963Y15498302D01*
X35382272Y15445481D01*
X35401987Y15389947D01*
X35418675Y15335823D01*
X35430902Y15287232D01*
X35433676Y15273320D01*
X35438346Y15249504D01*
X35443262Y15234186D01*
X35450943Y15223367D01*
X35463906Y15213048D01*
X35477244Y15204130D01*
X35517772Y15175954D01*
X35559368Y15144389D01*
X35599926Y15111255D01*
X35637344Y15078374D01*
X35669517Y15047569D01*
X35694340Y15020659D01*
X35704840Y15007127D01*
X35708929Y15000267D01*
X35707908Y14998007D01*
G36*
X35879062Y15724200D02*
G01*
X35864887Y15719295D01*
X35841298Y15722630D01*
X35829054Y15726348D01*
X35791722Y15743002D01*
X35754602Y15766495D01*
X35722628Y15793468D01*
X35709901Y15807473D01*
X35699003Y15821669D01*
X35683296Y15843029D01*
X35664359Y15869308D01*
X35643770Y15898265D01*
X35623108Y15927655D01*
X35603953Y15955236D01*
X35587882Y15978764D01*
X35576477Y15995997D01*
X35571854Y16003588D01*
X35568961Y16012536D01*
X35570548Y16014700D01*
X35578105Y16011366D01*
X35591971Y16002913D01*
X35599892Y15997584D01*
X35624592Y15980467D01*
X35644684Y16003360D01*
X35670300Y16028226D01*
X35696466Y16043439D01*
X35727504Y16051474D01*
X35729130Y16051713D01*
X35747266Y16054871D01*
X35757023Y16060050D01*
X35762320Y16070949D01*
X35766041Y16086550D01*
X35770984Y16104129D01*
X35776177Y16115122D01*
X35778639Y16116992D01*
X35781574Y16111129D01*
X35787195Y16094775D01*
X35795003Y16069735D01*
X35804500Y16037813D01*
X35815186Y16000813D01*
X35826562Y15960538D01*
X35838129Y15918793D01*
X35849389Y15877381D01*
X35859842Y15838106D01*
X35868989Y15802773D01*
X35876331Y15773185D01*
X35881370Y15751146D01*
X35883605Y15738460D01*
X35883671Y15737316D01*
X35879062Y15724200D01*
G37*
X35879062Y15724200D02*
X35864887Y15719295D01*
X35841298Y15722630D01*
X35829054Y15726348D01*
X35791722Y15743002D01*
X35754602Y15766495D01*
X35722628Y15793468D01*
X35709901Y15807473D01*
X35699003Y15821669D01*
X35683296Y15843029D01*
X35664359Y15869308D01*
X35643770Y15898265D01*
X35623108Y15927655D01*
X35603953Y15955236D01*
X35587882Y15978764D01*
X35576477Y15995997D01*
X35571854Y16003588D01*
X35568961Y16012536D01*
X35570548Y16014700D01*
X35578105Y16011366D01*
X35591971Y16002913D01*
X35599892Y15997584D01*
X35624592Y15980467D01*
X35644684Y16003360D01*
X35670300Y16028226D01*
X35696466Y16043439D01*
X35727504Y16051474D01*
X35729130Y16051713D01*
X35747266Y16054871D01*
X35757023Y16060050D01*
X35762320Y16070949D01*
X35766041Y16086550D01*
X35770984Y16104129D01*
X35776177Y16115122D01*
X35778639Y16116992D01*
X35781574Y16111129D01*
X35787195Y16094775D01*
X35795003Y16069735D01*
X35804500Y16037813D01*
X35815186Y16000813D01*
X35826562Y15960538D01*
X35838129Y15918793D01*
X35849389Y15877381D01*
X35859842Y15838106D01*
X35868989Y15802773D01*
X35876331Y15773185D01*
X35881370Y15751146D01*
X35883605Y15738460D01*
X35883671Y15737316D01*
X35879062Y15724200D01*
D10*
%TO.C,D1*%
X30805000Y17365000D02*
X30805000Y20050000D01*
X28885000Y17365000D02*
X30805000Y17365000D01*
X28885000Y20050000D02*
X28885000Y17365000D01*
%TO.C,D2*%
X25075000Y20050000D02*
X25075000Y17365000D01*
X25075000Y17365000D02*
X26995000Y17365000D01*
X26995000Y17365000D02*
X26995000Y20050000D01*
%TO.C,JP1*%
X18050000Y20810000D02*
X18050000Y24910000D01*
X18050000Y24910000D02*
X20050000Y24910000D01*
X20050000Y24910000D02*
X20050000Y20810000D01*
X20050000Y20810000D02*
X18050000Y20810000D01*
X20250000Y21560000D02*
X20550000Y21260000D01*
X20550000Y21260000D02*
X20550000Y21860000D01*
X20250000Y21560000D02*
X20550000Y21860000D01*
%TO.C,JP2*%
X20250000Y3780000D02*
X20550000Y4080000D01*
X20550000Y3480000D02*
X20550000Y4080000D01*
X20250000Y3780000D02*
X20550000Y3480000D01*
X20050000Y3030000D02*
X18050000Y3030000D01*
X20050000Y7130000D02*
X20050000Y3030000D01*
X18050000Y7130000D02*
X20050000Y7130000D01*
X18050000Y3030000D02*
X18050000Y7130000D01*
%TO.C,R1*%
X29135000Y23118578D02*
X29135000Y22601422D01*
X30555000Y23118578D02*
X30555000Y22601422D01*
%TO.C,R2*%
X26745000Y23118578D02*
X26745000Y22601422D01*
X25325000Y23118578D02*
X25325000Y22601422D01*
%TO.C,J1*%
X37605000Y17270000D02*
X38735000Y17270000D01*
X37605000Y16510000D02*
X37605000Y17270000D01*
X40312530Y17205000D02*
X41135000Y17205000D01*
X39495000Y17205000D02*
X39697470Y17205000D01*
X39495000Y17073471D02*
X39495000Y17205000D01*
X39495000Y15803471D02*
X39495000Y15946529D01*
X39298471Y15750000D02*
X39441529Y15750000D01*
X37605000Y15750000D02*
X38171529Y15750000D01*
X41135000Y17205000D02*
X41135000Y10735000D01*
X37605000Y15750000D02*
X37605000Y10735000D01*
X39042530Y10735000D02*
X39697470Y10735000D01*
X40312530Y10735000D02*
X41135000Y10735000D01*
X37605000Y10735000D02*
X38427470Y10735000D01*
%TO.C,J2*%
X7555000Y25295000D02*
X7555000Y16615000D01*
X13775000Y15915000D02*
X13775000Y17195000D01*
X15375000Y15915000D02*
X13775000Y15915000D01*
X15375000Y14895000D02*
X15375000Y15915000D01*
X11125000Y14895000D02*
X15375000Y14895000D01*
X13775000Y24715000D02*
X16665000Y24715000D01*
X13775000Y25995000D02*
X13775000Y24715000D01*
X15375000Y25995000D02*
X13775000Y25995000D01*
X15375000Y27015000D02*
X15375000Y25995000D01*
X11125000Y27015000D02*
X15375000Y27015000D01*
%TO.C,J3*%
X11125000Y13045000D02*
X15375000Y13045000D01*
X15375000Y13045000D02*
X15375000Y12025000D01*
X15375000Y12025000D02*
X13775000Y12025000D01*
X13775000Y12025000D02*
X13775000Y10745000D01*
X13775000Y10745000D02*
X16665000Y10745000D01*
X11125000Y925000D02*
X15375000Y925000D01*
X15375000Y925000D02*
X15375000Y1945000D01*
X15375000Y1945000D02*
X13775000Y1945000D01*
X13775000Y1945000D02*
X13775000Y3225000D01*
X7555000Y11325000D02*
X7555000Y2645000D01*
%TO.C,J4*%
X24319000Y13865000D02*
X24319000Y5185000D01*
X30539000Y4485000D02*
X30539000Y5765000D01*
X32139000Y4485000D02*
X30539000Y4485000D01*
X32139000Y3465000D02*
X32139000Y4485000D01*
X27889000Y3465000D02*
X32139000Y3465000D01*
X30539000Y13285000D02*
X33429000Y13285000D01*
X30539000Y14565000D02*
X30539000Y13285000D01*
X32139000Y14565000D02*
X30539000Y14565000D01*
X32139000Y15585000D02*
X32139000Y14565000D01*
X27889000Y15585000D02*
X32139000Y15585000D01*
%TO.C,D1*%
D11*
X27742619Y19788096D02*
X28742619Y19788096D01*
X28742619Y19550000D01*
X28695000Y19407143D01*
X28599761Y19311905D01*
X28504523Y19264286D01*
X28314047Y19216667D01*
X28171190Y19216667D01*
X27980714Y19264286D01*
X27885476Y19311905D01*
X27790238Y19407143D01*
X27742619Y19550000D01*
X27742619Y19788096D01*
X27742619Y18264286D02*
X27742619Y18835715D01*
X27742619Y18550000D02*
X28742619Y18550000D01*
X28599761Y18645239D01*
X28504523Y18740477D01*
X28456904Y18835715D01*
%TO.C,D2*%
X23932619Y19788096D02*
X24932619Y19788096D01*
X24932619Y19550000D01*
X24885000Y19407143D01*
X24789761Y19311905D01*
X24694523Y19264286D01*
X24504047Y19216667D01*
X24361190Y19216667D01*
X24170714Y19264286D01*
X24075476Y19311905D01*
X23980238Y19407143D01*
X23932619Y19550000D01*
X23932619Y19788096D01*
X24837380Y18835715D02*
X24885000Y18788096D01*
X24932619Y18692858D01*
X24932619Y18454762D01*
X24885000Y18359524D01*
X24837380Y18311905D01*
X24742142Y18264286D01*
X24646904Y18264286D01*
X24504047Y18311905D01*
X23932619Y18883334D01*
X23932619Y18264286D01*
%TO.C,JP1*%
X21502619Y24328334D02*
X20788333Y24328334D01*
X20645476Y24375953D01*
X20550238Y24471191D01*
X20502619Y24614048D01*
X20502619Y24709286D01*
X20502619Y23852143D02*
X21502619Y23852143D01*
X21502619Y23471191D01*
X21455000Y23375953D01*
X21407380Y23328334D01*
X21312142Y23280715D01*
X21169285Y23280715D01*
X21074047Y23328334D01*
X21026428Y23375953D01*
X20978809Y23471191D01*
X20978809Y23852143D01*
X20502619Y22328334D02*
X20502619Y22899762D01*
X20502619Y22614048D02*
X21502619Y22614048D01*
X21359761Y22709286D01*
X21264523Y22804524D01*
X21216904Y22899762D01*
%TO.C,JP2*%
X21502619Y6675334D02*
X20788333Y6675334D01*
X20645476Y6722953D01*
X20550238Y6818191D01*
X20502619Y6961048D01*
X20502619Y7056286D01*
X20502619Y6199143D02*
X21502619Y6199143D01*
X21502619Y5818191D01*
X21455000Y5722953D01*
X21407380Y5675334D01*
X21312142Y5627715D01*
X21169285Y5627715D01*
X21074047Y5675334D01*
X21026428Y5722953D01*
X20978809Y5818191D01*
X20978809Y6199143D01*
X21407380Y5246762D02*
X21455000Y5199143D01*
X21502619Y5103905D01*
X21502619Y4865810D01*
X21455000Y4770572D01*
X21407380Y4722953D01*
X21312142Y4675334D01*
X21216904Y4675334D01*
X21074047Y4722953D01*
X20502619Y5294381D01*
X20502619Y4675334D01*
%TO.C,R1*%
X27741619Y23026667D02*
X28217809Y23360000D01*
X27741619Y23598096D02*
X28741619Y23598096D01*
X28741619Y23217143D01*
X28694000Y23121905D01*
X28646380Y23074286D01*
X28551142Y23026667D01*
X28408285Y23026667D01*
X28313047Y23074286D01*
X28265428Y23121905D01*
X28217809Y23217143D01*
X28217809Y23598096D01*
X27741619Y22074286D02*
X27741619Y22645715D01*
X27741619Y22360000D02*
X28741619Y22360000D01*
X28598761Y22455239D01*
X28503523Y22550477D01*
X28455904Y22645715D01*
%TO.C,R2*%
X23931619Y23026667D02*
X24407809Y23360000D01*
X23931619Y23598096D02*
X24931619Y23598096D01*
X24931619Y23217143D01*
X24884000Y23121905D01*
X24836380Y23074286D01*
X24741142Y23026667D01*
X24598285Y23026667D01*
X24503047Y23074286D01*
X24455428Y23121905D01*
X24407809Y23217143D01*
X24407809Y23598096D01*
X24836380Y22645715D02*
X24884000Y22598096D01*
X24931619Y22502858D01*
X24931619Y22264762D01*
X24884000Y22169524D01*
X24836380Y22121905D01*
X24741142Y22074286D01*
X24645904Y22074286D01*
X24503047Y22121905D01*
X23931619Y22693334D01*
X23931619Y22074286D01*
%TO.C,J1*%
X39036666Y18752620D02*
X39036666Y18038334D01*
X38989047Y17895477D01*
X38893809Y17800239D01*
X38750952Y17752620D01*
X38655714Y17752620D01*
X40036666Y17752620D02*
X39465238Y17752620D01*
X39750952Y17752620D02*
X39750952Y18752620D01*
X39655714Y18609762D01*
X39560476Y18514524D01*
X39465238Y18466905D01*
%TO.C,J2*%
X16049666Y26963620D02*
X16049666Y26249334D01*
X16002047Y26106477D01*
X15906809Y26011239D01*
X15763952Y25963620D01*
X15668714Y25963620D01*
X16478238Y26868381D02*
X16525857Y26916000D01*
X16621095Y26963620D01*
X16859190Y26963620D01*
X16954428Y26916000D01*
X17002047Y26868381D01*
X17049666Y26773143D01*
X17049666Y26677905D01*
X17002047Y26535048D01*
X16430619Y25963620D01*
X17049666Y25963620D01*
%TO.C,J3*%
X16049666Y1944620D02*
X16049666Y1230334D01*
X16002047Y1087477D01*
X15906809Y992239D01*
X15763952Y944620D01*
X15668714Y944620D01*
X16430619Y1944620D02*
X17049666Y1944620D01*
X16716333Y1563667D01*
X16859190Y1563667D01*
X16954428Y1516048D01*
X17002047Y1468429D01*
X17049666Y1373191D01*
X17049666Y1135096D01*
X17002047Y1039858D01*
X16954428Y992239D01*
X16859190Y944620D01*
X16573476Y944620D01*
X16478238Y992239D01*
X16430619Y1039858D01*
%TO.C,J4*%
X32813666Y4484620D02*
X32813666Y3770334D01*
X32766047Y3627477D01*
X32670809Y3532239D01*
X32527952Y3484620D01*
X32432714Y3484620D01*
X33718428Y4151286D02*
X33718428Y3484620D01*
X33480333Y4532239D02*
X33242238Y3817953D01*
X33861285Y3817953D01*
%TD*%
M02*
