%TF.GenerationSoftware,KiCad,Pcbnew,(5.1.6-0)*%
%TF.CreationDate,2022-05-03T23:10:05-07:00*%
%TF.ProjectId,talonsrx-enc-limit-ftc,74616c6f-6e73-4727-982d-656e632d6c69,rev?*%
%TF.SameCoordinates,PX695f190PY69fa208*%
%TF.FileFunction,Soldermask,Top*%
%TF.FilePolarity,Negative*%
%FSLAX46Y46*%
G04 Gerber Fmt 4.6, Leading zero omitted, Abs format (unit mm)*
G04 Created by KiCad (PCBNEW (5.1.6-0)) date 2022-05-03 23:10:05*
%MOMM*%
%LPD*%
G01*
G04 APERTURE LIST*
%ADD10C,0.100000*%
G04 APERTURE END LIST*
D10*
G36*
X35241599Y2022021D02*
G01*
X35359887Y1973024D01*
X35359890Y1973022D01*
X35466351Y1901888D01*
X35556888Y1811351D01*
X35628022Y1704890D01*
X35628024Y1704887D01*
X35677021Y1586599D01*
X35702000Y1461020D01*
X35702000Y1332980D01*
X35677021Y1207401D01*
X35628024Y1089113D01*
X35628022Y1089110D01*
X35556888Y982649D01*
X35466351Y892112D01*
X35386594Y838821D01*
X35359887Y820976D01*
X35241599Y771979D01*
X35116020Y747000D01*
X34987980Y747000D01*
X34862401Y771979D01*
X34744113Y820976D01*
X34717406Y838821D01*
X34637649Y892112D01*
X34547112Y982649D01*
X34475978Y1089110D01*
X34475976Y1089113D01*
X34426979Y1207401D01*
X34402000Y1332980D01*
X34402000Y1461020D01*
X34426979Y1586599D01*
X34475976Y1704887D01*
X34475978Y1704890D01*
X34547112Y1811351D01*
X34637649Y1901888D01*
X34744110Y1973022D01*
X34744113Y1973024D01*
X34862401Y2022021D01*
X34987980Y2047000D01*
X35116020Y2047000D01*
X35241599Y2022021D01*
G37*
G36*
X10721715Y2431179D02*
G01*
X10766949Y2417457D01*
X10808639Y2395174D01*
X10845183Y2365183D01*
X10875174Y2328639D01*
X10897457Y2286949D01*
X10911179Y2241715D01*
X10916000Y2192770D01*
X10916000Y1077230D01*
X10911179Y1028285D01*
X10897457Y983051D01*
X10875174Y941361D01*
X10845183Y904817D01*
X10808639Y874826D01*
X10766949Y852543D01*
X10721715Y838821D01*
X10672770Y834000D01*
X7657230Y834000D01*
X7608285Y838821D01*
X7563051Y852543D01*
X7521361Y874826D01*
X7484817Y904817D01*
X7454826Y941361D01*
X7432543Y983051D01*
X7418821Y1028285D01*
X7414000Y1077230D01*
X7414000Y2192770D01*
X7418821Y2241715D01*
X7432543Y2286949D01*
X7454826Y2328639D01*
X7484817Y2365183D01*
X7521361Y2395174D01*
X7563051Y2417457D01*
X7608285Y2431179D01*
X7657230Y2436000D01*
X10672770Y2436000D01*
X10721715Y2431179D01*
G37*
G36*
X40376329Y7762419D02*
G01*
X40787124Y7592261D01*
X41004188Y7502350D01*
X41569247Y7124790D01*
X42049790Y6644247D01*
X42427350Y6079188D01*
X42439777Y6049186D01*
X42687419Y5451329D01*
X42820000Y4784796D01*
X42820000Y4105204D01*
X42687419Y3438671D01*
X42465437Y2902762D01*
X42427350Y2810812D01*
X42049790Y2245753D01*
X41569247Y1765210D01*
X41004188Y1387650D01*
X40912238Y1349563D01*
X40376329Y1127581D01*
X39709796Y995000D01*
X39030204Y995000D01*
X38363671Y1127581D01*
X37827762Y1349563D01*
X37735812Y1387650D01*
X37170753Y1765210D01*
X36690210Y2245753D01*
X36312650Y2810812D01*
X36274563Y2902762D01*
X36052581Y3438671D01*
X35920000Y4105204D01*
X35920000Y4784796D01*
X36052581Y5451329D01*
X36300223Y6049186D01*
X36312650Y6079188D01*
X36690210Y6644247D01*
X37170753Y7124790D01*
X37735812Y7502350D01*
X37952876Y7592261D01*
X38363671Y7762419D01*
X39030204Y7895000D01*
X39709796Y7895000D01*
X40376329Y7762419D01*
G37*
G36*
X19851000Y3229000D02*
G01*
X18249000Y3229000D01*
X18249000Y4331000D01*
X19851000Y4331000D01*
X19851000Y3229000D01*
G37*
G36*
X27485715Y4971179D02*
G01*
X27530949Y4957457D01*
X27572639Y4935174D01*
X27609183Y4905183D01*
X27639174Y4868639D01*
X27661457Y4826949D01*
X27675179Y4781715D01*
X27680000Y4732770D01*
X27680000Y3617230D01*
X27675179Y3568285D01*
X27661457Y3523051D01*
X27639174Y3481361D01*
X27609183Y3444817D01*
X27572639Y3414826D01*
X27530949Y3392543D01*
X27485715Y3378821D01*
X27436770Y3374000D01*
X24421230Y3374000D01*
X24372285Y3378821D01*
X24327051Y3392543D01*
X24285361Y3414826D01*
X24248817Y3444817D01*
X24218826Y3481361D01*
X24196543Y3523051D01*
X24182821Y3568285D01*
X24178000Y3617230D01*
X24178000Y4732770D01*
X24182821Y4781715D01*
X24196543Y4826949D01*
X24218826Y4868639D01*
X24248817Y4905183D01*
X24285361Y4935174D01*
X24327051Y4957457D01*
X24372285Y4971179D01*
X24421230Y4976000D01*
X27436770Y4976000D01*
X27485715Y4971179D01*
G37*
G36*
X16509710Y4530892D02*
G01*
X16557739Y4516324D01*
X16602011Y4492659D01*
X16640814Y4460814D01*
X16672659Y4422011D01*
X16696324Y4377739D01*
X16710892Y4329710D01*
X16716000Y4277854D01*
X16716000Y3692146D01*
X16710892Y3640290D01*
X16696324Y3592261D01*
X16672659Y3547989D01*
X16640814Y3509186D01*
X16602011Y3477341D01*
X16557739Y3453676D01*
X16509710Y3439108D01*
X16457854Y3434000D01*
X13372146Y3434000D01*
X13320290Y3439108D01*
X13272261Y3453676D01*
X13227989Y3477341D01*
X13189186Y3509186D01*
X13157341Y3547989D01*
X13133676Y3592261D01*
X13119108Y3640290D01*
X13114000Y3692146D01*
X13114000Y4277854D01*
X13119108Y4329710D01*
X13133676Y4377739D01*
X13157341Y4422011D01*
X13189186Y4460814D01*
X13227989Y4492659D01*
X13272261Y4516324D01*
X13320290Y4530892D01*
X13372146Y4536000D01*
X16457854Y4536000D01*
X16509710Y4530892D01*
G37*
G36*
X19851000Y4529000D02*
G01*
X18249000Y4529000D01*
X18249000Y5631000D01*
X19851000Y5631000D01*
X19851000Y4529000D01*
G37*
G36*
X3021580Y7937554D02*
G01*
X3322039Y7813099D01*
X3592452Y7632415D01*
X3822415Y7402452D01*
X4003099Y7132039D01*
X4127554Y6831580D01*
X4191000Y6512610D01*
X4191000Y6187390D01*
X4127554Y5868420D01*
X4003099Y5567961D01*
X3822415Y5297548D01*
X3592452Y5067585D01*
X3322039Y4886901D01*
X3021580Y4762446D01*
X2702610Y4699000D01*
X2377390Y4699000D01*
X2058420Y4762446D01*
X1757961Y4886901D01*
X1487548Y5067585D01*
X1257585Y5297548D01*
X1076901Y5567961D01*
X952446Y5868420D01*
X889000Y6187390D01*
X889000Y6512610D01*
X952446Y6831580D01*
X1076901Y7132039D01*
X1257585Y7402452D01*
X1487548Y7632415D01*
X1757961Y7813099D01*
X2058420Y7937554D01*
X2377390Y8001000D01*
X2702610Y8001000D01*
X3021580Y7937554D01*
G37*
G36*
X16509710Y6530892D02*
G01*
X16557739Y6516324D01*
X16602011Y6492659D01*
X16640814Y6460814D01*
X16672659Y6422011D01*
X16696324Y6377739D01*
X16710892Y6329710D01*
X16716000Y6277854D01*
X16716000Y5692146D01*
X16710892Y5640290D01*
X16696324Y5592261D01*
X16672659Y5547989D01*
X16640814Y5509186D01*
X16602011Y5477341D01*
X16557739Y5453676D01*
X16509710Y5439108D01*
X16457854Y5434000D01*
X13372146Y5434000D01*
X13320290Y5439108D01*
X13272261Y5453676D01*
X13227989Y5477341D01*
X13189186Y5509186D01*
X13157341Y5547989D01*
X13133676Y5592261D01*
X13119108Y5640290D01*
X13114000Y5692146D01*
X13114000Y6277854D01*
X13119108Y6329710D01*
X13133676Y6377739D01*
X13157341Y6422011D01*
X13189186Y6460814D01*
X13227989Y6492659D01*
X13272261Y6516324D01*
X13320290Y6530892D01*
X13372146Y6536000D01*
X16457854Y6536000D01*
X16509710Y6530892D01*
G37*
G36*
X19851000Y5829000D02*
G01*
X18249000Y5829000D01*
X18249000Y6931000D01*
X19851000Y6931000D01*
X19851000Y5829000D01*
G37*
G36*
X33273710Y7070892D02*
G01*
X33321739Y7056324D01*
X33366011Y7032659D01*
X33404814Y7000814D01*
X33436659Y6962011D01*
X33460324Y6917739D01*
X33474892Y6869710D01*
X33480000Y6817854D01*
X33480000Y6232146D01*
X33474892Y6180290D01*
X33460324Y6132261D01*
X33436659Y6087989D01*
X33404814Y6049186D01*
X33366011Y6017341D01*
X33321739Y5993676D01*
X33273710Y5979108D01*
X33221854Y5974000D01*
X30136146Y5974000D01*
X30084290Y5979108D01*
X30036261Y5993676D01*
X29991989Y6017341D01*
X29953186Y6049186D01*
X29921341Y6087989D01*
X29897676Y6132261D01*
X29883108Y6180290D01*
X29878000Y6232146D01*
X29878000Y6817854D01*
X29883108Y6869710D01*
X29897676Y6917739D01*
X29921341Y6962011D01*
X29953186Y7000814D01*
X29991989Y7032659D01*
X30036261Y7056324D01*
X30084290Y7070892D01*
X30136146Y7076000D01*
X33221854Y7076000D01*
X33273710Y7070892D01*
G37*
G36*
X16509710Y8530892D02*
G01*
X16557739Y8516324D01*
X16602011Y8492659D01*
X16640814Y8460814D01*
X16672659Y8422011D01*
X16696324Y8377739D01*
X16710892Y8329710D01*
X16716000Y8277854D01*
X16716000Y7692146D01*
X16710892Y7640290D01*
X16696324Y7592261D01*
X16672659Y7547989D01*
X16640814Y7509186D01*
X16602011Y7477341D01*
X16557739Y7453676D01*
X16509710Y7439108D01*
X16457854Y7434000D01*
X13372146Y7434000D01*
X13320290Y7439108D01*
X13272261Y7453676D01*
X13227989Y7477341D01*
X13189186Y7509186D01*
X13157341Y7547989D01*
X13133676Y7592261D01*
X13119108Y7640290D01*
X13114000Y7692146D01*
X13114000Y8277854D01*
X13119108Y8329710D01*
X13133676Y8377739D01*
X13157341Y8422011D01*
X13189186Y8460814D01*
X13227989Y8492659D01*
X13272261Y8516324D01*
X13320290Y8530892D01*
X13372146Y8536000D01*
X16457854Y8536000D01*
X16509710Y8530892D01*
G37*
G36*
X33273710Y9070892D02*
G01*
X33321739Y9056324D01*
X33366011Y9032659D01*
X33404814Y9000814D01*
X33436659Y8962011D01*
X33460324Y8917739D01*
X33474892Y8869710D01*
X33480000Y8817854D01*
X33480000Y8232146D01*
X33474892Y8180290D01*
X33460324Y8132261D01*
X33436659Y8087989D01*
X33404814Y8049186D01*
X33366011Y8017341D01*
X33321739Y7993676D01*
X33273710Y7979108D01*
X33221854Y7974000D01*
X30136146Y7974000D01*
X30084290Y7979108D01*
X30036261Y7993676D01*
X29991989Y8017341D01*
X29953186Y8049186D01*
X29921341Y8087989D01*
X29897676Y8132261D01*
X29883108Y8180290D01*
X29878000Y8232146D01*
X29878000Y8817854D01*
X29883108Y8869710D01*
X29897676Y8917739D01*
X29921341Y8962011D01*
X29953186Y9000814D01*
X29991989Y9032659D01*
X30036261Y9056324D01*
X30084290Y9070892D01*
X30136146Y9076000D01*
X33221854Y9076000D01*
X33273710Y9070892D01*
G37*
G36*
X16509710Y10530892D02*
G01*
X16557739Y10516324D01*
X16602011Y10492659D01*
X16640814Y10460814D01*
X16672659Y10422011D01*
X16696324Y10377739D01*
X16710892Y10329710D01*
X16716000Y10277854D01*
X16716000Y9692146D01*
X16710892Y9640290D01*
X16696324Y9592261D01*
X16672659Y9547989D01*
X16640814Y9509186D01*
X16602011Y9477341D01*
X16557739Y9453676D01*
X16509710Y9439108D01*
X16457854Y9434000D01*
X13372146Y9434000D01*
X13320290Y9439108D01*
X13272261Y9453676D01*
X13227989Y9477341D01*
X13189186Y9509186D01*
X13157341Y9547989D01*
X13133676Y9592261D01*
X13119108Y9640290D01*
X13114000Y9692146D01*
X13114000Y10277854D01*
X13119108Y10329710D01*
X13133676Y10377739D01*
X13157341Y10422011D01*
X13189186Y10460814D01*
X13227989Y10492659D01*
X13272261Y10516324D01*
X13320290Y10530892D01*
X13372146Y10536000D01*
X16457854Y10536000D01*
X16509710Y10530892D01*
G37*
G36*
X33273710Y11070892D02*
G01*
X33321739Y11056324D01*
X33366011Y11032659D01*
X33404814Y11000814D01*
X33436659Y10962011D01*
X33460324Y10917739D01*
X33474892Y10869710D01*
X33480000Y10817854D01*
X33480000Y10232146D01*
X33474892Y10180290D01*
X33460324Y10132261D01*
X33436659Y10087989D01*
X33404814Y10049186D01*
X33366011Y10017341D01*
X33321739Y9993676D01*
X33273710Y9979108D01*
X33221854Y9974000D01*
X30136146Y9974000D01*
X30084290Y9979108D01*
X30036261Y9993676D01*
X29991989Y10017341D01*
X29953186Y10049186D01*
X29921341Y10087989D01*
X29897676Y10132261D01*
X29883108Y10180290D01*
X29878000Y10232146D01*
X29878000Y10817854D01*
X29883108Y10869710D01*
X29897676Y10917739D01*
X29921341Y10962011D01*
X29953186Y11000814D01*
X29991989Y11032659D01*
X30036261Y11056324D01*
X30084290Y11070892D01*
X30136146Y11076000D01*
X33221854Y11076000D01*
X33273710Y11070892D01*
G37*
G36*
X40165721Y11959826D02*
G01*
X40246414Y11926401D01*
X40265996Y11918290D01*
X40356242Y11857990D01*
X40432990Y11781242D01*
X40493290Y11690996D01*
X40493291Y11690993D01*
X40534826Y11590721D01*
X40556000Y11484270D01*
X40556000Y11375730D01*
X40534826Y11269279D01*
X40501401Y11188586D01*
X40493290Y11169004D01*
X40432990Y11078758D01*
X40356242Y11002010D01*
X40265996Y10941710D01*
X40246414Y10933599D01*
X40165721Y10900174D01*
X40059270Y10879000D01*
X39950730Y10879000D01*
X39844279Y10900174D01*
X39763586Y10933599D01*
X39744004Y10941710D01*
X39653758Y11002010D01*
X39577010Y11078758D01*
X39516710Y11169004D01*
X39508599Y11188586D01*
X39475174Y11269279D01*
X39454000Y11375730D01*
X39454000Y11484270D01*
X39475174Y11590721D01*
X39516709Y11690993D01*
X39516710Y11690996D01*
X39577010Y11781242D01*
X39653758Y11857990D01*
X39744004Y11918290D01*
X39763586Y11926401D01*
X39844279Y11959826D01*
X39950730Y11981000D01*
X40059270Y11981000D01*
X40165721Y11959826D01*
G37*
G36*
X38895721Y11959826D02*
G01*
X38976414Y11926401D01*
X38995996Y11918290D01*
X39086242Y11857990D01*
X39162990Y11781242D01*
X39223290Y11690996D01*
X39223291Y11690993D01*
X39264826Y11590721D01*
X39286000Y11484270D01*
X39286000Y11375730D01*
X39264826Y11269279D01*
X39231401Y11188586D01*
X39223290Y11169004D01*
X39162990Y11078758D01*
X39086242Y11002010D01*
X38995996Y10941710D01*
X38976414Y10933599D01*
X38895721Y10900174D01*
X38789270Y10879000D01*
X38680730Y10879000D01*
X38574279Y10900174D01*
X38493586Y10933599D01*
X38474004Y10941710D01*
X38383758Y11002010D01*
X38307010Y11078758D01*
X38246710Y11169004D01*
X38238599Y11188586D01*
X38205174Y11269279D01*
X38184000Y11375730D01*
X38184000Y11484270D01*
X38205174Y11590721D01*
X38246709Y11690993D01*
X38246710Y11690996D01*
X38307010Y11781242D01*
X38383758Y11857990D01*
X38474004Y11918290D01*
X38493586Y11926401D01*
X38574279Y11959826D01*
X38680730Y11981000D01*
X38789270Y11981000D01*
X38895721Y11959826D01*
G37*
G36*
X10721715Y13131179D02*
G01*
X10766949Y13117457D01*
X10808639Y13095174D01*
X10845183Y13065183D01*
X10875174Y13028639D01*
X10897457Y12986949D01*
X10911179Y12941715D01*
X10916000Y12892770D01*
X10916000Y11777230D01*
X10911179Y11728285D01*
X10897457Y11683051D01*
X10875174Y11641361D01*
X10845183Y11604817D01*
X10808639Y11574826D01*
X10766949Y11552543D01*
X10721715Y11538821D01*
X10672770Y11534000D01*
X7657230Y11534000D01*
X7608285Y11538821D01*
X7563051Y11552543D01*
X7521361Y11574826D01*
X7484817Y11604817D01*
X7454826Y11641361D01*
X7432543Y11683051D01*
X7418821Y11728285D01*
X7414000Y11777230D01*
X7414000Y12892770D01*
X7418821Y12941715D01*
X7432543Y12986949D01*
X7454826Y13028639D01*
X7484817Y13065183D01*
X7521361Y13095174D01*
X7563051Y13117457D01*
X7608285Y13131179D01*
X7657230Y13136000D01*
X10672770Y13136000D01*
X10721715Y13131179D01*
G37*
G36*
X33273710Y13070892D02*
G01*
X33321739Y13056324D01*
X33366011Y13032659D01*
X33404814Y13000814D01*
X33436659Y12962011D01*
X33460324Y12917739D01*
X33474892Y12869710D01*
X33480000Y12817854D01*
X33480000Y12232146D01*
X33474892Y12180290D01*
X33460324Y12132261D01*
X33436659Y12087989D01*
X33404814Y12049186D01*
X33366011Y12017341D01*
X33321739Y11993676D01*
X33273710Y11979108D01*
X33221854Y11974000D01*
X30136146Y11974000D01*
X30084290Y11979108D01*
X30036261Y11993676D01*
X29991989Y12017341D01*
X29953186Y12049186D01*
X29921341Y12087989D01*
X29897676Y12132261D01*
X29883108Y12180290D01*
X29878000Y12232146D01*
X29878000Y12817854D01*
X29883108Y12869710D01*
X29897676Y12917739D01*
X29921341Y12962011D01*
X29953186Y13000814D01*
X29991989Y13032659D01*
X30036261Y13056324D01*
X30084290Y13070892D01*
X30136146Y13076000D01*
X33221854Y13076000D01*
X33273710Y13070892D01*
G37*
G36*
X40165721Y13229826D02*
G01*
X40246414Y13196401D01*
X40265996Y13188290D01*
X40356242Y13127990D01*
X40432990Y13051242D01*
X40493290Y12960996D01*
X40493291Y12960993D01*
X40534826Y12860721D01*
X40556000Y12754270D01*
X40556000Y12645730D01*
X40534826Y12539279D01*
X40501401Y12458586D01*
X40493290Y12439004D01*
X40432990Y12348758D01*
X40356242Y12272010D01*
X40265996Y12211710D01*
X40246414Y12203599D01*
X40165721Y12170174D01*
X40059270Y12149000D01*
X39950730Y12149000D01*
X39844279Y12170174D01*
X39763586Y12203599D01*
X39744004Y12211710D01*
X39653758Y12272010D01*
X39577010Y12348758D01*
X39516710Y12439004D01*
X39508599Y12458586D01*
X39475174Y12539279D01*
X39454000Y12645730D01*
X39454000Y12754270D01*
X39475174Y12860721D01*
X39516709Y12960993D01*
X39516710Y12960996D01*
X39577010Y13051242D01*
X39653758Y13127990D01*
X39744004Y13188290D01*
X39763586Y13196401D01*
X39844279Y13229826D01*
X39950730Y13251000D01*
X40059270Y13251000D01*
X40165721Y13229826D01*
G37*
G36*
X38895721Y13229826D02*
G01*
X38976414Y13196401D01*
X38995996Y13188290D01*
X39086242Y13127990D01*
X39162990Y13051242D01*
X39223290Y12960996D01*
X39223291Y12960993D01*
X39264826Y12860721D01*
X39286000Y12754270D01*
X39286000Y12645730D01*
X39264826Y12539279D01*
X39231401Y12458586D01*
X39223290Y12439004D01*
X39162990Y12348758D01*
X39086242Y12272010D01*
X38995996Y12211710D01*
X38976414Y12203599D01*
X38895721Y12170174D01*
X38789270Y12149000D01*
X38680730Y12149000D01*
X38574279Y12170174D01*
X38493586Y12203599D01*
X38474004Y12211710D01*
X38383758Y12272010D01*
X38307010Y12348758D01*
X38246710Y12439004D01*
X38238599Y12458586D01*
X38205174Y12539279D01*
X38184000Y12645730D01*
X38184000Y12754270D01*
X38205174Y12860721D01*
X38246709Y12960993D01*
X38246710Y12960996D01*
X38307010Y13051242D01*
X38383758Y13127990D01*
X38474004Y13188290D01*
X38493586Y13196401D01*
X38574279Y13229826D01*
X38680730Y13251000D01*
X38789270Y13251000D01*
X38895721Y13229826D01*
G37*
G36*
X40165721Y14499826D02*
G01*
X40246414Y14466401D01*
X40265996Y14458290D01*
X40356242Y14397990D01*
X40432990Y14321242D01*
X40493290Y14230996D01*
X40493291Y14230993D01*
X40534826Y14130721D01*
X40556000Y14024270D01*
X40556000Y13915730D01*
X40534826Y13809279D01*
X40501401Y13728586D01*
X40493290Y13709004D01*
X40432990Y13618758D01*
X40356242Y13542010D01*
X40265996Y13481710D01*
X40246414Y13473599D01*
X40165721Y13440174D01*
X40059270Y13419000D01*
X39950730Y13419000D01*
X39844279Y13440174D01*
X39763586Y13473599D01*
X39744004Y13481710D01*
X39653758Y13542010D01*
X39577010Y13618758D01*
X39516710Y13709004D01*
X39508599Y13728586D01*
X39475174Y13809279D01*
X39454000Y13915730D01*
X39454000Y14024270D01*
X39475174Y14130721D01*
X39516709Y14230993D01*
X39516710Y14230996D01*
X39577010Y14321242D01*
X39653758Y14397990D01*
X39744004Y14458290D01*
X39763586Y14466401D01*
X39844279Y14499826D01*
X39950730Y14521000D01*
X40059270Y14521000D01*
X40165721Y14499826D01*
G37*
G36*
X38895721Y14499826D02*
G01*
X38976414Y14466401D01*
X38995996Y14458290D01*
X39086242Y14397990D01*
X39162990Y14321242D01*
X39223290Y14230996D01*
X39223291Y14230993D01*
X39264826Y14130721D01*
X39286000Y14024270D01*
X39286000Y13915730D01*
X39264826Y13809279D01*
X39231401Y13728586D01*
X39223290Y13709004D01*
X39162990Y13618758D01*
X39086242Y13542010D01*
X38995996Y13481710D01*
X38976414Y13473599D01*
X38895721Y13440174D01*
X38789270Y13419000D01*
X38680730Y13419000D01*
X38574279Y13440174D01*
X38493586Y13473599D01*
X38474004Y13481710D01*
X38383758Y13542010D01*
X38307010Y13618758D01*
X38246710Y13709004D01*
X38238599Y13728586D01*
X38205174Y13809279D01*
X38184000Y13915730D01*
X38184000Y14024270D01*
X38205174Y14130721D01*
X38246709Y14230993D01*
X38246710Y14230996D01*
X38307010Y14321242D01*
X38383758Y14397990D01*
X38474004Y14458290D01*
X38493586Y14466401D01*
X38574279Y14499826D01*
X38680730Y14521000D01*
X38789270Y14521000D01*
X38895721Y14499826D01*
G37*
G36*
X27485715Y15671179D02*
G01*
X27530949Y15657457D01*
X27572639Y15635174D01*
X27609183Y15605183D01*
X27639174Y15568639D01*
X27661457Y15526949D01*
X27675179Y15481715D01*
X27680000Y15432770D01*
X27680000Y14317230D01*
X27675179Y14268285D01*
X27661457Y14223051D01*
X27639174Y14181361D01*
X27609183Y14144817D01*
X27572639Y14114826D01*
X27530949Y14092543D01*
X27485715Y14078821D01*
X27436770Y14074000D01*
X24421230Y14074000D01*
X24372285Y14078821D01*
X24327051Y14092543D01*
X24285361Y14114826D01*
X24248817Y14144817D01*
X24218826Y14181361D01*
X24196543Y14223051D01*
X24182821Y14268285D01*
X24178000Y14317230D01*
X24178000Y15432770D01*
X24182821Y15481715D01*
X24196543Y15526949D01*
X24218826Y15568639D01*
X24248817Y15605183D01*
X24285361Y15635174D01*
X24327051Y15657457D01*
X24372285Y15671179D01*
X24421230Y15676000D01*
X27436770Y15676000D01*
X27485715Y15671179D01*
G37*
G36*
X38895721Y15769826D02*
G01*
X38976414Y15736401D01*
X38995996Y15728290D01*
X39086242Y15667990D01*
X39162990Y15591242D01*
X39223290Y15500996D01*
X39223291Y15500993D01*
X39264826Y15400721D01*
X39286000Y15294270D01*
X39286000Y15185730D01*
X39264826Y15079279D01*
X39239820Y15018911D01*
X39223290Y14979004D01*
X39162990Y14888758D01*
X39086242Y14812010D01*
X38995996Y14751710D01*
X38976414Y14743599D01*
X38895721Y14710174D01*
X38789270Y14689000D01*
X38680730Y14689000D01*
X38574279Y14710174D01*
X38493586Y14743599D01*
X38474004Y14751710D01*
X38383758Y14812010D01*
X38307010Y14888758D01*
X38246710Y14979004D01*
X38230180Y15018911D01*
X38205174Y15079279D01*
X38184000Y15185730D01*
X38184000Y15294270D01*
X38205174Y15400721D01*
X38246709Y15500993D01*
X38246710Y15500996D01*
X38307010Y15591242D01*
X38383758Y15667990D01*
X38474004Y15728290D01*
X38493586Y15736401D01*
X38574279Y15769826D01*
X38680730Y15791000D01*
X38789270Y15791000D01*
X38895721Y15769826D01*
G37*
G36*
X40165721Y15769826D02*
G01*
X40246414Y15736401D01*
X40265996Y15728290D01*
X40356242Y15667990D01*
X40432990Y15591242D01*
X40493290Y15500996D01*
X40493291Y15500993D01*
X40534826Y15400721D01*
X40556000Y15294270D01*
X40556000Y15185730D01*
X40534826Y15079279D01*
X40509820Y15018911D01*
X40493290Y14979004D01*
X40432990Y14888758D01*
X40356242Y14812010D01*
X40265996Y14751710D01*
X40246414Y14743599D01*
X40165721Y14710174D01*
X40059270Y14689000D01*
X39950730Y14689000D01*
X39844279Y14710174D01*
X39763586Y14743599D01*
X39744004Y14751710D01*
X39653758Y14812010D01*
X39577010Y14888758D01*
X39516710Y14979004D01*
X39500180Y15018911D01*
X39475174Y15079279D01*
X39454000Y15185730D01*
X39454000Y15294270D01*
X39475174Y15400721D01*
X39516709Y15500993D01*
X39516710Y15500996D01*
X39577010Y15591242D01*
X39653758Y15667990D01*
X39744004Y15728290D01*
X39763586Y15736401D01*
X39844279Y15769826D01*
X39950730Y15791000D01*
X40059270Y15791000D01*
X40165721Y15769826D01*
G37*
G36*
X10721715Y16401179D02*
G01*
X10766949Y16387457D01*
X10808639Y16365174D01*
X10845183Y16335183D01*
X10875174Y16298639D01*
X10897457Y16256949D01*
X10911179Y16211715D01*
X10916000Y16162770D01*
X10916000Y15047230D01*
X10911179Y14998285D01*
X10897457Y14953051D01*
X10875174Y14911361D01*
X10845183Y14874817D01*
X10808639Y14844826D01*
X10766949Y14822543D01*
X10721715Y14808821D01*
X10672770Y14804000D01*
X7657230Y14804000D01*
X7608285Y14808821D01*
X7563051Y14822543D01*
X7521361Y14844826D01*
X7484817Y14874817D01*
X7454826Y14911361D01*
X7432543Y14953051D01*
X7418821Y14998285D01*
X7414000Y15047230D01*
X7414000Y16162770D01*
X7418821Y16211715D01*
X7432543Y16256949D01*
X7454826Y16298639D01*
X7484817Y16335183D01*
X7521361Y16365174D01*
X7563051Y16387457D01*
X7608285Y16401179D01*
X7657230Y16406000D01*
X10672770Y16406000D01*
X10721715Y16401179D01*
G37*
G36*
X39286000Y15959000D02*
G01*
X38184000Y15959000D01*
X38184000Y17061000D01*
X39286000Y17061000D01*
X39286000Y15959000D01*
G37*
G36*
X40165721Y17039826D02*
G01*
X40246414Y17006401D01*
X40265996Y16998290D01*
X40356242Y16937990D01*
X40432990Y16861242D01*
X40493290Y16770996D01*
X40493291Y16770993D01*
X40534826Y16670721D01*
X40556000Y16564270D01*
X40556000Y16455730D01*
X40534826Y16349279D01*
X40509168Y16287337D01*
X40493290Y16249004D01*
X40432990Y16158758D01*
X40356242Y16082010D01*
X40265996Y16021710D01*
X40246414Y16013599D01*
X40165721Y15980174D01*
X40059270Y15959000D01*
X39950730Y15959000D01*
X39844279Y15980174D01*
X39763586Y16013599D01*
X39744004Y16021710D01*
X39653758Y16082010D01*
X39577010Y16158758D01*
X39516710Y16249004D01*
X39500832Y16287337D01*
X39475174Y16349279D01*
X39454000Y16455730D01*
X39454000Y16564270D01*
X39475174Y16670721D01*
X39516709Y16770993D01*
X39516710Y16770996D01*
X39577010Y16861242D01*
X39653758Y16937990D01*
X39744004Y16998290D01*
X39763586Y17006401D01*
X39844279Y17039826D01*
X39950730Y17061000D01*
X40059270Y17061000D01*
X40165721Y17039826D01*
G37*
G36*
X16509710Y18500892D02*
G01*
X16557739Y18486324D01*
X16602011Y18462659D01*
X16640814Y18430814D01*
X16672659Y18392011D01*
X16696324Y18347739D01*
X16710892Y18299710D01*
X16716000Y18247854D01*
X16716000Y17662146D01*
X16710892Y17610290D01*
X16696324Y17562261D01*
X16672659Y17517989D01*
X16640814Y17479186D01*
X16602011Y17447341D01*
X16557739Y17423676D01*
X16509710Y17409108D01*
X16457854Y17404000D01*
X13372146Y17404000D01*
X13320290Y17409108D01*
X13272261Y17423676D01*
X13227989Y17447341D01*
X13189186Y17479186D01*
X13157341Y17517989D01*
X13133676Y17562261D01*
X13119108Y17610290D01*
X13114000Y17662146D01*
X13114000Y18247854D01*
X13119108Y18299710D01*
X13133676Y18347739D01*
X13157341Y18392011D01*
X13189186Y18430814D01*
X13227989Y18462659D01*
X13272261Y18486324D01*
X13320290Y18500892D01*
X13372146Y18506000D01*
X16457854Y18506000D01*
X16509710Y18500892D01*
G37*
G36*
X1713599Y18786021D02*
G01*
X1831887Y18737024D01*
X1831890Y18737022D01*
X1938351Y18665888D01*
X2028888Y18575351D01*
X2081507Y18496600D01*
X2100024Y18468887D01*
X2149021Y18350599D01*
X2174000Y18225020D01*
X2174000Y18096980D01*
X2149021Y17971401D01*
X2100024Y17853113D01*
X2100022Y17853110D01*
X2028888Y17746649D01*
X1938351Y17656112D01*
X1846133Y17594495D01*
X1831887Y17584976D01*
X1713599Y17535979D01*
X1588020Y17511000D01*
X1459980Y17511000D01*
X1334401Y17535979D01*
X1216113Y17584976D01*
X1201867Y17594495D01*
X1109649Y17656112D01*
X1019112Y17746649D01*
X947978Y17853110D01*
X947976Y17853113D01*
X898979Y17971401D01*
X874000Y18096980D01*
X874000Y18225020D01*
X898979Y18350599D01*
X947976Y18468887D01*
X966493Y18496600D01*
X1019112Y18575351D01*
X1109649Y18665888D01*
X1216110Y18737022D01*
X1216113Y18737024D01*
X1334401Y18786021D01*
X1459980Y18811000D01*
X1588020Y18811000D01*
X1713599Y18786021D01*
G37*
G36*
X26584738Y18646013D02*
G01*
X26631600Y18631798D01*
X26674786Y18608714D01*
X26712645Y18577645D01*
X26743714Y18539786D01*
X26766798Y18496600D01*
X26781013Y18449738D01*
X26786000Y18399105D01*
X26786000Y17825895D01*
X26781013Y17775262D01*
X26766798Y17728400D01*
X26743714Y17685214D01*
X26712645Y17647355D01*
X26674786Y17616286D01*
X26631600Y17593202D01*
X26584738Y17578987D01*
X26534105Y17574000D01*
X25535895Y17574000D01*
X25485262Y17578987D01*
X25438400Y17593202D01*
X25395214Y17616286D01*
X25357355Y17647355D01*
X25326286Y17685214D01*
X25303202Y17728400D01*
X25288987Y17775262D01*
X25284000Y17825895D01*
X25284000Y18399105D01*
X25288987Y18449738D01*
X25303202Y18496600D01*
X25326286Y18539786D01*
X25357355Y18577645D01*
X25395214Y18608714D01*
X25438400Y18631798D01*
X25485262Y18646013D01*
X25535895Y18651000D01*
X26534105Y18651000D01*
X26584738Y18646013D01*
G37*
G36*
X30394738Y18646013D02*
G01*
X30441600Y18631798D01*
X30484786Y18608714D01*
X30522645Y18577645D01*
X30553714Y18539786D01*
X30576798Y18496600D01*
X30591013Y18449738D01*
X30596000Y18399105D01*
X30596000Y17825895D01*
X30591013Y17775262D01*
X30576798Y17728400D01*
X30553714Y17685214D01*
X30522645Y17647355D01*
X30484786Y17616286D01*
X30441600Y17593202D01*
X30394738Y17578987D01*
X30344105Y17574000D01*
X29345895Y17574000D01*
X29295262Y17578987D01*
X29248400Y17593202D01*
X29205214Y17616286D01*
X29167355Y17647355D01*
X29136286Y17685214D01*
X29113202Y17728400D01*
X29098987Y17775262D01*
X29094000Y17825895D01*
X29094000Y18399105D01*
X29098987Y18449738D01*
X29113202Y18496600D01*
X29136286Y18539786D01*
X29167355Y18577645D01*
X29205214Y18608714D01*
X29248400Y18631798D01*
X29295262Y18646013D01*
X29345895Y18651000D01*
X30344105Y18651000D01*
X30394738Y18646013D01*
G37*
G36*
X16509710Y20500892D02*
G01*
X16557739Y20486324D01*
X16602011Y20462659D01*
X16640814Y20430814D01*
X16672659Y20392011D01*
X16696324Y20347739D01*
X16710892Y20299710D01*
X16716000Y20247854D01*
X16716000Y19662146D01*
X16710892Y19610290D01*
X16696324Y19562261D01*
X16672659Y19517989D01*
X16640814Y19479186D01*
X16602011Y19447341D01*
X16557739Y19423676D01*
X16509710Y19409108D01*
X16457854Y19404000D01*
X13372146Y19404000D01*
X13320290Y19409108D01*
X13272261Y19423676D01*
X13227989Y19447341D01*
X13189186Y19479186D01*
X13157341Y19517989D01*
X13133676Y19562261D01*
X13119108Y19610290D01*
X13114000Y19662146D01*
X13114000Y20247854D01*
X13119108Y20299710D01*
X13133676Y20347739D01*
X13157341Y20392011D01*
X13189186Y20430814D01*
X13227989Y20462659D01*
X13272261Y20486324D01*
X13320290Y20500892D01*
X13372146Y20506000D01*
X16457854Y20506000D01*
X16509710Y20500892D01*
G37*
G36*
X26584738Y20521013D02*
G01*
X26631600Y20506798D01*
X26674786Y20483714D01*
X26712645Y20452645D01*
X26743714Y20414786D01*
X26766798Y20371600D01*
X26781013Y20324738D01*
X26786000Y20274105D01*
X26786000Y19700895D01*
X26781013Y19650262D01*
X26766798Y19603400D01*
X26743714Y19560214D01*
X26712645Y19522355D01*
X26674786Y19491286D01*
X26631600Y19468202D01*
X26584738Y19453987D01*
X26534105Y19449000D01*
X25535895Y19449000D01*
X25485262Y19453987D01*
X25438400Y19468202D01*
X25395214Y19491286D01*
X25357355Y19522355D01*
X25326286Y19560214D01*
X25303202Y19603400D01*
X25288987Y19650262D01*
X25284000Y19700895D01*
X25284000Y20274105D01*
X25288987Y20324738D01*
X25303202Y20371600D01*
X25326286Y20414786D01*
X25357355Y20452645D01*
X25395214Y20483714D01*
X25438400Y20506798D01*
X25485262Y20521013D01*
X25535895Y20526000D01*
X26534105Y20526000D01*
X26584738Y20521013D01*
G37*
G36*
X30394738Y20521013D02*
G01*
X30441600Y20506798D01*
X30484786Y20483714D01*
X30522645Y20452645D01*
X30553714Y20414786D01*
X30576798Y20371600D01*
X30591013Y20324738D01*
X30596000Y20274105D01*
X30596000Y19700895D01*
X30591013Y19650262D01*
X30576798Y19603400D01*
X30553714Y19560214D01*
X30522645Y19522355D01*
X30484786Y19491286D01*
X30441600Y19468202D01*
X30394738Y19453987D01*
X30344105Y19449000D01*
X29345895Y19449000D01*
X29295262Y19453987D01*
X29248400Y19468202D01*
X29205214Y19491286D01*
X29167355Y19522355D01*
X29136286Y19560214D01*
X29113202Y19603400D01*
X29098987Y19650262D01*
X29094000Y19700895D01*
X29094000Y20274105D01*
X29098987Y20324738D01*
X29113202Y20371600D01*
X29136286Y20414786D01*
X29167355Y20452645D01*
X29205214Y20483714D01*
X29248400Y20506798D01*
X29295262Y20521013D01*
X29345895Y20526000D01*
X30344105Y20526000D01*
X30394738Y20521013D01*
G37*
G36*
X3021580Y23177554D02*
G01*
X3322039Y23053099D01*
X3592452Y22872415D01*
X3822415Y22642452D01*
X4003099Y22372039D01*
X4127554Y22071580D01*
X4191000Y21752610D01*
X4191000Y21427390D01*
X4127554Y21108420D01*
X4003099Y20807961D01*
X3822415Y20537548D01*
X3592452Y20307585D01*
X3322039Y20126901D01*
X3021580Y20002446D01*
X2702610Y19939000D01*
X2377390Y19939000D01*
X2058420Y20002446D01*
X1757961Y20126901D01*
X1487548Y20307585D01*
X1257585Y20537548D01*
X1076901Y20807961D01*
X952446Y21108420D01*
X889000Y21427390D01*
X889000Y21752610D01*
X952446Y22071580D01*
X1076901Y22372039D01*
X1257585Y22642452D01*
X1487548Y22872415D01*
X1757961Y23053099D01*
X2058420Y23177554D01*
X2377390Y23241000D01*
X2702610Y23241000D01*
X3021580Y23177554D01*
G37*
G36*
X40376329Y26812419D02*
G01*
X40912238Y26590437D01*
X41004188Y26552350D01*
X41569247Y26174790D01*
X42049790Y25694247D01*
X42427350Y25129188D01*
X42427351Y25129185D01*
X42687419Y24501329D01*
X42820000Y23834796D01*
X42820000Y23155204D01*
X42687419Y22488671D01*
X42465437Y21952762D01*
X42427350Y21860812D01*
X42049790Y21295753D01*
X41569247Y20815210D01*
X41004188Y20437650D01*
X40948989Y20414786D01*
X40376329Y20177581D01*
X39709796Y20045000D01*
X39030204Y20045000D01*
X38363671Y20177581D01*
X37791011Y20414786D01*
X37735812Y20437650D01*
X37170753Y20815210D01*
X36690210Y21295753D01*
X36312650Y21860812D01*
X36274563Y21952762D01*
X36052581Y22488671D01*
X35950042Y23004173D01*
X35947851Y23011395D01*
X35944294Y23018051D01*
X35939506Y23023885D01*
X35933672Y23028673D01*
X35927016Y23032230D01*
X35919794Y23034421D01*
X35912283Y23035161D01*
X35904772Y23034421D01*
X35897550Y23032230D01*
X35890894Y23028673D01*
X35885060Y23023885D01*
X35880272Y23018051D01*
X35876715Y23011395D01*
X35753099Y22712961D01*
X35572415Y22442548D01*
X35342452Y22212585D01*
X35072039Y22031901D01*
X34771580Y21907446D01*
X34452610Y21844000D01*
X34127390Y21844000D01*
X33808420Y21907446D01*
X33507961Y22031901D01*
X33237548Y22212585D01*
X33007585Y22442548D01*
X32826901Y22712961D01*
X32702446Y23013420D01*
X32639000Y23332390D01*
X32639000Y23657610D01*
X32702446Y23976580D01*
X32826901Y24277039D01*
X33007585Y24547452D01*
X33237548Y24777415D01*
X33507961Y24958099D01*
X33808420Y25082554D01*
X34127390Y25146000D01*
X34452610Y25146000D01*
X34771580Y25082554D01*
X35072039Y24958099D01*
X35342452Y24777415D01*
X35572415Y24547452D01*
X35753099Y24277039D01*
X35876715Y23978605D01*
X35880272Y23971949D01*
X35885060Y23966115D01*
X35890894Y23961327D01*
X35897550Y23957770D01*
X35904772Y23955579D01*
X35912283Y23954839D01*
X35919794Y23955579D01*
X35927016Y23957770D01*
X35933672Y23961327D01*
X35939506Y23966115D01*
X35944294Y23971949D01*
X35947851Y23978605D01*
X35950042Y23985827D01*
X36052581Y24501329D01*
X36312649Y25129185D01*
X36312650Y25129188D01*
X36690210Y25694247D01*
X37170753Y26174790D01*
X37735812Y26552350D01*
X37827762Y26590437D01*
X38363671Y26812419D01*
X39030204Y26945000D01*
X39709796Y26945000D01*
X40376329Y26812419D01*
G37*
G36*
X19851000Y21009000D02*
G01*
X18249000Y21009000D01*
X18249000Y22111000D01*
X19851000Y22111000D01*
X19851000Y21009000D01*
G37*
G36*
X26584738Y22456013D02*
G01*
X26631600Y22441798D01*
X26674786Y22418714D01*
X26712645Y22387645D01*
X26743714Y22349786D01*
X26766798Y22306600D01*
X26781013Y22259738D01*
X26786000Y22209105D01*
X26786000Y21635895D01*
X26781013Y21585262D01*
X26766798Y21538400D01*
X26743714Y21495214D01*
X26712645Y21457355D01*
X26674786Y21426286D01*
X26631600Y21403202D01*
X26584738Y21388987D01*
X26534105Y21384000D01*
X25535895Y21384000D01*
X25485262Y21388987D01*
X25438400Y21403202D01*
X25395214Y21426286D01*
X25357355Y21457355D01*
X25326286Y21495214D01*
X25303202Y21538400D01*
X25288987Y21585262D01*
X25284000Y21635895D01*
X25284000Y22209105D01*
X25288987Y22259738D01*
X25303202Y22306600D01*
X25326286Y22349786D01*
X25357355Y22387645D01*
X25395214Y22418714D01*
X25438400Y22441798D01*
X25485262Y22456013D01*
X25535895Y22461000D01*
X26534105Y22461000D01*
X26584738Y22456013D01*
G37*
G36*
X30394738Y22456013D02*
G01*
X30441600Y22441798D01*
X30484786Y22418714D01*
X30522645Y22387645D01*
X30553714Y22349786D01*
X30576798Y22306600D01*
X30591013Y22259738D01*
X30596000Y22209105D01*
X30596000Y21635895D01*
X30591013Y21585262D01*
X30576798Y21538400D01*
X30553714Y21495214D01*
X30522645Y21457355D01*
X30484786Y21426286D01*
X30441600Y21403202D01*
X30394738Y21388987D01*
X30344105Y21384000D01*
X29345895Y21384000D01*
X29295262Y21388987D01*
X29248400Y21403202D01*
X29205214Y21426286D01*
X29167355Y21457355D01*
X29136286Y21495214D01*
X29113202Y21538400D01*
X29098987Y21585262D01*
X29094000Y21635895D01*
X29094000Y22209105D01*
X29098987Y22259738D01*
X29113202Y22306600D01*
X29136286Y22349786D01*
X29167355Y22387645D01*
X29205214Y22418714D01*
X29248400Y22441798D01*
X29295262Y22456013D01*
X29345895Y22461000D01*
X30344105Y22461000D01*
X30394738Y22456013D01*
G37*
G36*
X16509710Y22500892D02*
G01*
X16557739Y22486324D01*
X16602011Y22462659D01*
X16640814Y22430814D01*
X16672659Y22392011D01*
X16696324Y22347739D01*
X16710892Y22299710D01*
X16716000Y22247854D01*
X16716000Y21662146D01*
X16710892Y21610290D01*
X16696324Y21562261D01*
X16672659Y21517989D01*
X16640814Y21479186D01*
X16602011Y21447341D01*
X16557739Y21423676D01*
X16509710Y21409108D01*
X16457854Y21404000D01*
X13372146Y21404000D01*
X13320290Y21409108D01*
X13272261Y21423676D01*
X13227989Y21447341D01*
X13189186Y21479186D01*
X13157341Y21517989D01*
X13133676Y21562261D01*
X13119108Y21610290D01*
X13114000Y21662146D01*
X13114000Y22247854D01*
X13119108Y22299710D01*
X13133676Y22347739D01*
X13157341Y22392011D01*
X13189186Y22430814D01*
X13227989Y22462659D01*
X13272261Y22486324D01*
X13320290Y22500892D01*
X13372146Y22506000D01*
X16457854Y22506000D01*
X16509710Y22500892D01*
G37*
G36*
X19851000Y22309000D02*
G01*
X18249000Y22309000D01*
X18249000Y23411000D01*
X19851000Y23411000D01*
X19851000Y22309000D01*
G37*
G36*
X26584738Y24331013D02*
G01*
X26631600Y24316798D01*
X26674786Y24293714D01*
X26712645Y24262645D01*
X26743714Y24224786D01*
X26766798Y24181600D01*
X26781013Y24134738D01*
X26786000Y24084105D01*
X26786000Y23510895D01*
X26781013Y23460262D01*
X26766798Y23413400D01*
X26743714Y23370214D01*
X26712645Y23332355D01*
X26674786Y23301286D01*
X26631600Y23278202D01*
X26584738Y23263987D01*
X26534105Y23259000D01*
X25535895Y23259000D01*
X25485262Y23263987D01*
X25438400Y23278202D01*
X25395214Y23301286D01*
X25357355Y23332355D01*
X25326286Y23370214D01*
X25303202Y23413400D01*
X25288987Y23460262D01*
X25284000Y23510895D01*
X25284000Y24084105D01*
X25288987Y24134738D01*
X25303202Y24181600D01*
X25326286Y24224786D01*
X25357355Y24262645D01*
X25395214Y24293714D01*
X25438400Y24316798D01*
X25485262Y24331013D01*
X25535895Y24336000D01*
X26534105Y24336000D01*
X26584738Y24331013D01*
G37*
G36*
X30394738Y24331013D02*
G01*
X30441600Y24316798D01*
X30484786Y24293714D01*
X30522645Y24262645D01*
X30553714Y24224786D01*
X30576798Y24181600D01*
X30591013Y24134738D01*
X30596000Y24084105D01*
X30596000Y23510895D01*
X30591013Y23460262D01*
X30576798Y23413400D01*
X30553714Y23370214D01*
X30522645Y23332355D01*
X30484786Y23301286D01*
X30441600Y23278202D01*
X30394738Y23263987D01*
X30344105Y23259000D01*
X29345895Y23259000D01*
X29295262Y23263987D01*
X29248400Y23278202D01*
X29205214Y23301286D01*
X29167355Y23332355D01*
X29136286Y23370214D01*
X29113202Y23413400D01*
X29098987Y23460262D01*
X29094000Y23510895D01*
X29094000Y24084105D01*
X29098987Y24134738D01*
X29113202Y24181600D01*
X29136286Y24224786D01*
X29167355Y24262645D01*
X29205214Y24293714D01*
X29248400Y24316798D01*
X29295262Y24331013D01*
X29345895Y24336000D01*
X30344105Y24336000D01*
X30394738Y24331013D01*
G37*
G36*
X16509710Y24500892D02*
G01*
X16557739Y24486324D01*
X16602011Y24462659D01*
X16640814Y24430814D01*
X16672659Y24392011D01*
X16696324Y24347739D01*
X16710892Y24299710D01*
X16716000Y24247854D01*
X16716000Y23662146D01*
X16710892Y23610290D01*
X16696324Y23562261D01*
X16672659Y23517989D01*
X16640814Y23479186D01*
X16602011Y23447341D01*
X16557739Y23423676D01*
X16509710Y23409108D01*
X16457854Y23404000D01*
X13372146Y23404000D01*
X13320290Y23409108D01*
X13272261Y23423676D01*
X13227989Y23447341D01*
X13189186Y23479186D01*
X13157341Y23517989D01*
X13133676Y23562261D01*
X13119108Y23610290D01*
X13114000Y23662146D01*
X13114000Y24247854D01*
X13119108Y24299710D01*
X13133676Y24347739D01*
X13157341Y24392011D01*
X13189186Y24430814D01*
X13227989Y24462659D01*
X13272261Y24486324D01*
X13320290Y24500892D01*
X13372146Y24506000D01*
X16457854Y24506000D01*
X16509710Y24500892D01*
G37*
G36*
X19851000Y23609000D02*
G01*
X18249000Y23609000D01*
X18249000Y24711000D01*
X19851000Y24711000D01*
X19851000Y23609000D01*
G37*
G36*
X10721715Y27101179D02*
G01*
X10766949Y27087457D01*
X10808639Y27065174D01*
X10845183Y27035183D01*
X10875174Y26998639D01*
X10897457Y26956949D01*
X10911179Y26911715D01*
X10916000Y26862770D01*
X10916000Y25747230D01*
X10911179Y25698285D01*
X10897457Y25653051D01*
X10875174Y25611361D01*
X10845183Y25574817D01*
X10808639Y25544826D01*
X10766949Y25522543D01*
X10721715Y25508821D01*
X10672770Y25504000D01*
X7657230Y25504000D01*
X7608285Y25508821D01*
X7563051Y25522543D01*
X7521361Y25544826D01*
X7484817Y25574817D01*
X7454826Y25611361D01*
X7432543Y25653051D01*
X7418821Y25698285D01*
X7414000Y25747230D01*
X7414000Y26862770D01*
X7418821Y26911715D01*
X7432543Y26956949D01*
X7454826Y26998639D01*
X7484817Y27035183D01*
X7521361Y27065174D01*
X7563051Y27087457D01*
X7608285Y27101179D01*
X7657230Y27106000D01*
X10672770Y27106000D01*
X10721715Y27101179D01*
G37*
G36*
X35241599Y27168021D02*
G01*
X35359887Y27119024D01*
X35359890Y27119022D01*
X35466351Y27047888D01*
X35556888Y26957351D01*
X35601162Y26891089D01*
X35628024Y26850887D01*
X35677021Y26732599D01*
X35702000Y26607020D01*
X35702000Y26478980D01*
X35677021Y26353401D01*
X35628024Y26235113D01*
X35628022Y26235110D01*
X35556888Y26128649D01*
X35466351Y26038112D01*
X35359890Y25966978D01*
X35359887Y25966976D01*
X35241599Y25917979D01*
X35116020Y25893000D01*
X34987980Y25893000D01*
X34862401Y25917979D01*
X34744113Y25966976D01*
X34744110Y25966978D01*
X34637649Y26038112D01*
X34547112Y26128649D01*
X34475978Y26235110D01*
X34475976Y26235113D01*
X34426979Y26353401D01*
X34402000Y26478980D01*
X34402000Y26607020D01*
X34426979Y26732599D01*
X34475976Y26850887D01*
X34502838Y26891089D01*
X34547112Y26957351D01*
X34637649Y27047888D01*
X34744110Y27119022D01*
X34744113Y27119024D01*
X34862401Y27168021D01*
X34987980Y27193000D01*
X35116020Y27193000D01*
X35241599Y27168021D01*
G37*
M02*
