%TF.GenerationSoftware,KiCad,Pcbnew,(6.0.5-0)*%
%TF.CreationDate,2022-12-27T15:40:18-08:00*%
%TF.ProjectId,talonsrx-enc-aeat-6600,74616c6f-6e73-4727-982d-656e632d6165,rev?*%
%TF.SameCoordinates,PX9157080PY6d01460*%
%TF.FileFunction,Copper,L2,Bot*%
%TF.FilePolarity,Positive*%
%FSLAX46Y46*%
G04 Gerber Fmt 4.6, Leading zero omitted, Abs format (unit mm)*
G04 Created by KiCad (PCBNEW (6.0.5-0)) date 2022-12-27 15:40:18*
%MOMM*%
%LPD*%
G01*
G04 APERTURE LIST*
G04 Aperture macros list*
%AMRoundRect*
0 Rectangle with rounded corners*
0 $1 Rounding radius*
0 $2 $3 $4 $5 $6 $7 $8 $9 X,Y pos of 4 corners*
0 Add a 4 corners polygon primitive as box body*
4,1,4,$2,$3,$4,$5,$6,$7,$8,$9,$2,$3,0*
0 Add four circle primitives for the rounded corners*
1,1,$1+$1,$2,$3*
1,1,$1+$1,$4,$5*
1,1,$1+$1,$6,$7*
1,1,$1+$1,$8,$9*
0 Add four rect primitives between the rounded corners*
20,1,$1+$1,$2,$3,$4,$5,0*
20,1,$1+$1,$4,$5,$6,$7,0*
20,1,$1+$1,$6,$7,$8,$9,0*
20,1,$1+$1,$8,$9,$2,$3,0*%
G04 Aperture macros list end*
%ADD10C,0.152400*%
%TA.AperFunction,NonConductor*%
%ADD11C,0.152400*%
%TD*%
%TA.AperFunction,SMDPad,CuDef*%
%ADD12RoundRect,0.160000X-0.222500X-0.160000X0.222500X-0.160000X0.222500X0.160000X-0.222500X0.160000X0*%
%TD*%
%TA.AperFunction,SMDPad,CuDef*%
%ADD13RoundRect,0.160000X0.222500X0.160000X-0.222500X0.160000X-0.222500X-0.160000X0.222500X-0.160000X0*%
%TD*%
%TA.AperFunction,ComponentPad*%
%ADD14O,1.700000X1.700000*%
%TD*%
%TA.AperFunction,ComponentPad*%
%ADD15R,1.700000X1.700000*%
%TD*%
%TA.AperFunction,SMDPad,CuDef*%
%ADD16RoundRect,0.250000X-0.250000X-0.475000X0.250000X-0.475000X0.250000X0.475000X-0.250000X0.475000X0*%
%TD*%
%TA.AperFunction,SMDPad,CuDef*%
%ADD17R,1.475000X0.450000*%
%TD*%
%TA.AperFunction,ComponentPad*%
%ADD18R,1.000000X1.000000*%
%TD*%
%TA.AperFunction,ComponentPad*%
%ADD19O,1.000000X1.000000*%
%TD*%
%TA.AperFunction,SMDPad,CuDef*%
%ADD20R,0.800000X0.500000*%
%TD*%
%TA.AperFunction,SMDPad,CuDef*%
%ADD21R,0.800000X0.400000*%
%TD*%
%TA.AperFunction,SMDPad,CuDef*%
%ADD22RoundRect,0.250000X0.250000X0.475000X-0.250000X0.475000X-0.250000X-0.475000X0.250000X-0.475000X0*%
%TD*%
%TA.AperFunction,SMDPad,CuDef*%
%ADD23RoundRect,0.143750X-0.143750X-0.331250X0.143750X-0.331250X0.143750X0.331250X-0.143750X0.331250X0*%
%TD*%
%TA.AperFunction,ConnectorPad*%
%ADD24C,0.784860*%
%TD*%
%TA.AperFunction,SMDPad,CuDef*%
%ADD25RoundRect,0.250000X-0.262500X-0.450000X0.262500X-0.450000X0.262500X0.450000X-0.262500X0.450000X0*%
%TD*%
%TA.AperFunction,ViaPad*%
%ADD26C,0.609600*%
%TD*%
%TA.AperFunction,Conductor*%
%ADD27C,0.203200*%
%TD*%
G04 APERTURE END LIST*
D10*
D11*
X3400869Y1806096D02*
X3667536Y2187048D01*
X3858012Y1806096D02*
X3858012Y2606096D01*
X3553250Y2606096D01*
X3477060Y2568000D01*
X3438964Y2529905D01*
X3400869Y2453715D01*
X3400869Y2339429D01*
X3438964Y2263239D01*
X3477060Y2225143D01*
X3553250Y2187048D01*
X3858012Y2187048D01*
X2638964Y1806096D02*
X3096107Y1806096D01*
X2867536Y1806096D02*
X2867536Y2606096D01*
X2943726Y2491810D01*
X3019917Y2415620D01*
X3096107Y2377524D01*
X10067536Y518096D02*
X10067536Y1051429D01*
X10067536Y1318096D02*
X10105631Y1280000D01*
X10067536Y1241905D01*
X10029440Y1280000D01*
X10067536Y1318096D01*
X10067536Y1241905D01*
X9686583Y518096D02*
X9686583Y1318096D01*
X9343726Y518096D02*
X9343726Y937143D01*
X9381821Y1013334D01*
X9458012Y1051429D01*
X9572298Y1051429D01*
X9648488Y1013334D01*
X9686583Y975239D01*
X8619917Y518096D02*
X8619917Y937143D01*
X8658012Y1013334D01*
X8734202Y1051429D01*
X8886583Y1051429D01*
X8962774Y1013334D01*
X8619917Y556191D02*
X8696107Y518096D01*
X8886583Y518096D01*
X8962774Y556191D01*
X9000869Y632381D01*
X9000869Y708572D01*
X8962774Y784762D01*
X8886583Y822858D01*
X8696107Y822858D01*
X8619917Y860953D01*
X8238964Y518096D02*
X8238964Y1051429D01*
X8238964Y899048D02*
X8200869Y975239D01*
X8162774Y1013334D01*
X8086583Y1051429D01*
X8010393Y1051429D01*
X7858012Y1051429D02*
X7553250Y1051429D01*
X7743726Y1318096D02*
X7743726Y632381D01*
X7705631Y556191D01*
X7629440Y518096D01*
X7553250Y518096D01*
X7362774Y1051429D02*
X7210393Y518096D01*
X7058012Y899048D01*
X6905631Y518096D01*
X6753250Y1051429D01*
X6448488Y518096D02*
X6448488Y1051429D01*
X6448488Y1318096D02*
X6486583Y1280000D01*
X6448488Y1241905D01*
X6410393Y1280000D01*
X6448488Y1318096D01*
X6448488Y1241905D01*
X5724679Y1051429D02*
X5724679Y403810D01*
X5762774Y327620D01*
X5800869Y289524D01*
X5877060Y251429D01*
X5991345Y251429D01*
X6067536Y289524D01*
X5724679Y556191D02*
X5800869Y518096D01*
X5953250Y518096D01*
X6029440Y556191D01*
X6067536Y594286D01*
X6105631Y670477D01*
X6105631Y899048D01*
X6067536Y975239D01*
X6029440Y1013334D01*
X5953250Y1051429D01*
X5800869Y1051429D01*
X5724679Y1013334D01*
X4772298Y1241905D02*
X4734202Y1280000D01*
X4658012Y1318096D01*
X4467536Y1318096D01*
X4391345Y1280000D01*
X4353250Y1241905D01*
X4315155Y1165715D01*
X4315155Y1089524D01*
X4353250Y975239D01*
X4810393Y518096D01*
X4315155Y518096D01*
X3819917Y1318096D02*
X3743726Y1318096D01*
X3667536Y1280000D01*
X3629440Y1241905D01*
X3591345Y1165715D01*
X3553250Y1013334D01*
X3553250Y822858D01*
X3591345Y670477D01*
X3629440Y594286D01*
X3667536Y556191D01*
X3743726Y518096D01*
X3819917Y518096D01*
X3896107Y556191D01*
X3934202Y594286D01*
X3972298Y670477D01*
X4010393Y822858D01*
X4010393Y1013334D01*
X3972298Y1165715D01*
X3934202Y1241905D01*
X3896107Y1280000D01*
X3819917Y1318096D01*
X3248488Y1241905D02*
X3210393Y1280000D01*
X3134202Y1318096D01*
X2943726Y1318096D01*
X2867536Y1280000D01*
X2829440Y1241905D01*
X2791345Y1165715D01*
X2791345Y1089524D01*
X2829440Y975239D01*
X3286583Y518096D01*
X2791345Y518096D01*
X2486583Y1241905D02*
X2448488Y1280000D01*
X2372298Y1318096D01*
X2181821Y1318096D01*
X2105631Y1280000D01*
X2067536Y1241905D01*
X2029440Y1165715D01*
X2029440Y1089524D01*
X2067536Y975239D01*
X2524679Y518096D01*
X2029440Y518096D01*
D12*
%TO.P,D9,2,A2*%
%TO.N,GND*%
X13145500Y2540000D03*
%TO.P,D9,1,A1*%
%TO.N,+5V*%
X12000500Y2540000D03*
%TD*%
D13*
%TO.P,D8,1,A1*%
%TO.N,/ANA_IN*%
X4001500Y4826000D03*
%TO.P,D8,2,A2*%
%TO.N,GND*%
X2856500Y4826000D03*
%TD*%
D12*
%TO.P,D7,1,A1*%
%TO.N,+3V3*%
X12000500Y4191000D03*
%TO.P,D7,2,A2*%
%TO.N,GND*%
X13145500Y4191000D03*
%TD*%
%TO.P,D6,1,A1*%
%TO.N,/ENC_A*%
X6158500Y6096000D03*
%TO.P,D6,2,A2*%
%TO.N,GND*%
X7303500Y6096000D03*
%TD*%
D13*
%TO.P,D5,1,A1*%
%TO.N,/ENC_B*%
X9716500Y6096000D03*
%TO.P,D5,2,A2*%
%TO.N,GND*%
X8571500Y6096000D03*
%TD*%
D12*
%TO.P,D4,1,A1*%
%TO.N,/ENC_IDX*%
X12000500Y5842000D03*
%TO.P,D4,2,A2*%
%TO.N,GND*%
X13145500Y5842000D03*
%TD*%
D14*
%TO.P,J3,3,Pin_3*%
%TO.N,+5V*%
X2222500Y12700000D03*
%TO.P,J3,2,Pin_2*%
%TO.N,/ANA_IN*%
X2222500Y15240000D03*
D15*
%TO.P,J3,1,Pin_1*%
%TO.N,GND*%
X2222500Y17780000D03*
%TD*%
D16*
%TO.P,C2,1*%
%TO.N,/ANA_IN*%
X11432500Y11112500D03*
%TO.P,C2,2*%
%TO.N,GND*%
X13332500Y11112500D03*
%TD*%
D17*
%TO.P,U1,16,DO/DI*%
%TO.N,/SSI_DIO*%
X4999500Y17832500D03*
%TO.P,U1,15,CLK*%
%TO.N,/SSI_CLK*%
X4999500Y17182500D03*
%TO.P,U1,14,NCS*%
%TO.N,/SSI_NCS*%
X4999500Y16532500D03*
%TO.P,U1,13,PROG*%
%TO.N,/PROG*%
X4999500Y15882500D03*
%TO.P,U1,12,VPP*%
%TO.N,/VPP*%
X4999500Y15232500D03*
%TO.P,U1,11,PWRDOWN*%
%TO.N,/PWRDOWN*%
X4999500Y14582500D03*
%TO.P,U1,10,VDD_F*%
%TO.N,/VDD_F*%
X4999500Y13932500D03*
%TO.P,U1,9,VDD*%
%TO.N,/VDD*%
X4999500Y13282500D03*
%TO.P,U1,8,PWM*%
%TO.N,/ANA_IN*%
X10875500Y13282500D03*
%TO.P,U1,7,ALIGN*%
%TO.N,/ALIGN*%
X10875500Y13932500D03*
%TO.P,U1,6,GND*%
%TO.N,GND*%
X10875500Y14582500D03*
%TO.P,U1,5,MAG_LO/OTP_PROG_STAT*%
%TO.N,/MAG_LO*%
X10875500Y15232500D03*
%TO.P,U1,4,MAG_HI/OTP_ERR*%
%TO.N,/MAG_HI*%
X10875500Y15882500D03*
%TO.P,U1,3,I/W*%
%TO.N,/ENC_IDX*%
X10875500Y16532500D03*
%TO.P,U1,2,B/V*%
%TO.N,/ENC_B*%
X10875500Y17182500D03*
%TO.P,U1,1,A/U*%
%TO.N,/ENC_A*%
X10875500Y17832500D03*
%TD*%
D18*
%TO.P,J1,1,Pin_1*%
%TO.N,+3V3*%
X10477500Y4117500D03*
D19*
%TO.P,J1,2,Pin_2*%
%TO.N,+5V*%
X10477500Y2847500D03*
%TO.P,J1,3,Pin_3*%
%TO.N,/ENC_IDX*%
X9207500Y4117500D03*
%TO.P,J1,4,Pin_4*%
%TO.N,/LIM_FWD*%
X9207500Y2847500D03*
%TO.P,J1,5,Pin_5*%
%TO.N,/ENC_B*%
X7937500Y4117500D03*
%TO.P,J1,6,Pin_6*%
%TO.N,unconnected-(J1-Pad6)*%
X7937500Y2847500D03*
%TO.P,J1,7,Pin_7*%
%TO.N,/ENC_A*%
X6667500Y4117500D03*
%TO.P,J1,8,Pin_8*%
%TO.N,/LIM_REV*%
X6667500Y2847500D03*
%TO.P,J1,9,Pin_9*%
%TO.N,/ANA_IN*%
X5397500Y4117500D03*
%TO.P,J1,10,Pin_10*%
%TO.N,GND*%
X5397500Y2847500D03*
%TD*%
D20*
%TO.P,RN1,1,R1.1*%
%TO.N,GND*%
X12012500Y21202500D03*
D21*
%TO.P,RN1,2,R1.1*%
%TO.N,/MAG_LO_A*%
X12012500Y20402500D03*
%TO.P,RN1,3,R1.1*%
%TO.N,/VDD_A*%
X12012500Y19602500D03*
D20*
%TO.P,RN1,4,R1.1*%
%TO.N,/MAG_HI_A*%
X12012500Y18802500D03*
%TO.P,RN1,5,R1.2*%
%TO.N,/MAG_HI*%
X10212500Y18802500D03*
D21*
%TO.P,RN1,6,R1.2*%
%TO.N,/VDD*%
X10212500Y19602500D03*
%TO.P,RN1,7,R1.2*%
%TO.N,/MAG_LO*%
X10212500Y20402500D03*
D20*
%TO.P,RN1,8,R1.2*%
%TO.N,/PWRDOWN*%
X10212500Y21202500D03*
%TD*%
D22*
%TO.P,C1,2*%
%TO.N,GND*%
X2542500Y7937500D03*
%TO.P,C1,1*%
%TO.N,/VDD*%
X4442500Y7937500D03*
%TD*%
D23*
%TO.P,D3,1,K*%
%TO.N,GND*%
X12982500Y15557500D03*
%TO.P,D3,2,A*%
%TO.N,/VDD_A*%
X14957500Y15557500D03*
%TD*%
%TO.P,D2,1,K*%
%TO.N,GND*%
X12982500Y17462500D03*
%TO.P,D2,2,A*%
%TO.N,/MAG_LO_A*%
X14957500Y17462500D03*
%TD*%
D24*
%TO.P,J2,6,Pin_6*%
%TO.N,/SSI_NCS*%
X7302500Y20002500D03*
%TO.P,J2,5,Pin_5*%
%TO.N,GND*%
X7302500Y21272500D03*
%TO.P,J2,4,Pin_4*%
%TO.N,/SSI_CLK*%
X6032500Y20002500D03*
%TO.P,J2,3,Pin_3*%
%TO.N,/VPP*%
X6032500Y21272500D03*
%TO.P,J2,2,Pin_2*%
%TO.N,/SSI_DIO*%
X4762500Y20002500D03*
%TO.P,J2,1,Pin_1*%
%TO.N,/PROG*%
X4762500Y21272500D03*
%TD*%
D25*
%TO.P,R3,1*%
%TO.N,/ALIGN*%
X11470000Y7937500D03*
%TO.P,R3,2*%
%TO.N,GND*%
X13295000Y7937500D03*
%TD*%
D23*
%TO.P,D1,1,K*%
%TO.N,GND*%
X12982500Y13652500D03*
%TO.P,D1,2,A*%
%TO.N,/MAG_HI_A*%
X14957500Y13652500D03*
%TD*%
D26*
%TO.N,GND*%
X13716000Y1905000D03*
X7366000Y5207000D03*
%TO.N,/VPP*%
X7300000Y19000000D03*
%TO.N,/PWRDOWN*%
X8500000Y18200000D03*
%TO.N,GND*%
X11200000Y21400000D03*
%TO.N,/MAG_HI*%
X11000000Y18800000D03*
%TO.N,/MAG_LO*%
X11055342Y20142488D03*
X12137292Y15197423D03*
%TO.N,/MAG_HI*%
X12171302Y16648226D03*
%TO.N,/MAG_HI_A*%
X13000000Y18800000D03*
%TO.N,/VDD_A*%
X15401572Y16496678D03*
%TO.N,/MAG_HI_A*%
X15313618Y14557090D03*
%TO.N,GND*%
X13600000Y12400000D03*
X13600000Y6600000D03*
X13600000Y9800000D03*
%TO.N,/PWRDOWN*%
X9150000Y20650000D03*
%TO.N,/VPP*%
X7950000Y20650000D03*
%TO.N,/VDD_F*%
X3500000Y11500000D03*
%TO.N,/VDD*%
X4100000Y6100000D03*
%TO.N,/ANA_IN*%
X5397500Y12382500D03*
X10184900Y12382500D03*
%TO.N,/VDD_A*%
X13652500Y19367500D03*
%TD*%
D27*
%TO.N,GND*%
X13145500Y2540000D02*
X13145500Y2475500D01*
X13145500Y2475500D02*
X13716000Y1905000D01*
X13145500Y4191000D02*
X13145500Y2540000D01*
%TO.N,+3V3*%
X10477500Y4117500D02*
X11927000Y4117500D01*
X11927000Y4117500D02*
X12000500Y4191000D01*
%TO.N,+5V*%
X10477500Y2847500D02*
X11693000Y2847500D01*
X11693000Y2847500D02*
X12000500Y2540000D01*
%TO.N,GND*%
X13145500Y4445000D02*
X13145500Y5842000D01*
X13145500Y5842000D02*
X13208000Y5842000D01*
X13208000Y5842000D02*
X13600000Y6234000D01*
X13600000Y6234000D02*
X13600000Y6600000D01*
X8571500Y6096000D02*
X8571500Y5650500D01*
X8571500Y5650500D02*
X8128000Y5207000D01*
X8128000Y5207000D02*
X7366000Y5207000D01*
X7303500Y6096000D02*
X7303500Y5269500D01*
%TO.N,/ENC_B*%
X9682489Y6096000D02*
X9716500Y6096000D01*
X7937500Y4117500D02*
X8437499Y4617499D01*
X8437499Y4851010D02*
X9682489Y6096000D01*
X8437499Y4617499D02*
X8437499Y4851010D01*
%TO.N,GND*%
X7303500Y5269500D02*
X7366000Y5207000D01*
%TO.N,/ENC_A*%
X9852778Y17832500D02*
X10875500Y17832500D01*
X6667500Y5132500D02*
X5900000Y5900000D01*
X8500000Y16479722D02*
X9852778Y17832500D01*
X8500000Y14400000D02*
X8500000Y16479722D01*
X5900000Y11800000D02*
X8500000Y14400000D01*
X5900000Y5900000D02*
X5900000Y11800000D01*
X6667500Y4117500D02*
X6667500Y5132500D01*
%TO.N,/ENC_B*%
X9716500Y6096000D02*
X9716500Y6916500D01*
X9716500Y6916500D02*
X10000000Y7200000D01*
%TO.N,/ENC_IDX*%
X10477500Y5524500D02*
X10477500Y5905500D01*
X10477500Y5905500D02*
X10477500Y10477500D01*
X10795000Y5842000D02*
X10541000Y5842000D01*
X10541000Y5842000D02*
X10477500Y5905500D01*
X12000500Y5842000D02*
X10795000Y5842000D01*
X10795000Y5842000D02*
X10477500Y5524500D01*
X9207500Y4117500D02*
X9207500Y4824606D01*
X9207500Y4824606D02*
X9355505Y4972611D01*
X9355505Y4972611D02*
X9925611Y4972611D01*
X9525000Y11430000D02*
X9525000Y16204722D01*
X9925611Y4972611D02*
X10477500Y5524500D01*
X10477500Y10477500D02*
X9525000Y11430000D01*
X9525000Y16204722D02*
X9852778Y16532500D01*
X9852778Y16532500D02*
X10875500Y16532500D01*
%TO.N,/ANA_IN*%
X4001500Y4826000D02*
X4689000Y4826000D01*
X4689000Y4826000D02*
X5397500Y4117500D01*
X5397500Y4117500D02*
X5397500Y12382500D01*
%TO.N,GND*%
X12600000Y13400000D02*
X12600000Y14000000D01*
X10945389Y14512611D02*
X12087389Y14512611D01*
X10875500Y14582500D02*
X10945389Y14512611D01*
X12087389Y14512611D02*
X12600000Y14000000D01*
%TO.N,/VPP*%
X7300000Y18250000D02*
X7300000Y19000000D01*
%TO.N,/PWRDOWN*%
X7500000Y17200000D02*
X7500000Y16060278D01*
X7500000Y16060278D02*
X6022222Y14582500D01*
X8500000Y18200000D02*
X7500000Y17200000D01*
X6022222Y14582500D02*
X4999500Y14582500D01*
%TO.N,GND*%
X11200000Y21400000D02*
X11200000Y22100000D01*
X11200000Y22100000D02*
X11029387Y22270613D01*
X12012500Y21202500D02*
X11397500Y21202500D01*
X11397500Y21202500D02*
X11200000Y21400000D01*
%TO.N,/ALIGN*%
X11898222Y13932500D02*
X10875500Y13932500D01*
X12143290Y13687432D02*
X11898222Y13932500D01*
%TO.N,GND*%
X12982500Y13017500D02*
X12600000Y13400000D01*
%TO.N,/ALIGN*%
X12143290Y13210824D02*
X12143290Y13687432D01*
X12287620Y8755120D02*
X12287620Y13066494D01*
X12287620Y13066494D02*
X12143290Y13210824D01*
X11470000Y7937500D02*
X12287620Y8755120D01*
%TO.N,GND*%
X12982500Y15557500D02*
X12982500Y13652500D01*
X12982500Y17462500D02*
X12982500Y15557500D01*
%TO.N,/MAG_HI*%
X11000000Y18800000D02*
X10215000Y18800000D01*
X10215000Y18800000D02*
X10212500Y18802500D01*
%TO.N,/MAG_LO*%
X10212500Y20402500D02*
X10795330Y20402500D01*
X10795330Y20402500D02*
X11055342Y20142488D01*
X10875500Y15232500D02*
X12102215Y15232500D01*
X12102215Y15232500D02*
X12137292Y15197423D01*
%TO.N,/MAG_HI*%
X12171302Y16155580D02*
X12171302Y16648226D01*
X11898222Y15882500D02*
X12171302Y16155580D01*
X10875500Y15882500D02*
X11898222Y15882500D01*
%TO.N,/MAG_HI_A*%
X12015000Y18800000D02*
X12012500Y18802500D01*
X13000000Y18800000D02*
X12015000Y18800000D01*
%TO.N,/VDD_A*%
X14957500Y15557500D02*
X14957500Y16052606D01*
X14957500Y16052606D02*
X15401572Y16496678D01*
%TO.N,/MAG_HI_A*%
X14957500Y13652500D02*
X14957500Y14200972D01*
X14957500Y14200972D02*
X15313618Y14557090D01*
%TO.N,GND*%
X12982500Y13652500D02*
X12982500Y13017500D01*
X12982500Y13017500D02*
X13600000Y12400000D01*
X11029387Y22270613D02*
X9629387Y22270613D01*
X7300000Y21829979D02*
X7302500Y21827479D01*
X9629387Y22270613D02*
X9200000Y22700000D01*
X9200000Y22700000D02*
X7800000Y22700000D01*
X7800000Y22700000D02*
X7300000Y22200000D01*
X7302500Y21827479D02*
X7302500Y21272500D01*
X7300000Y22200000D02*
X7300000Y21829979D01*
X13332500Y11112500D02*
X13332500Y12132500D01*
X13332500Y12132500D02*
X13600000Y12400000D01*
X13332500Y11112500D02*
X13332500Y10067500D01*
X13332500Y10067500D02*
X13600000Y9800000D01*
X13295000Y7937500D02*
X13295000Y6905000D01*
X13295000Y6905000D02*
X13600000Y6600000D01*
%TO.N,/PWRDOWN*%
X9702500Y21202500D02*
X9150000Y20650000D01*
X10212500Y21202500D02*
X9702500Y21202500D01*
%TO.N,/VPP*%
X6032500Y21272500D02*
X6032500Y21217500D01*
X7300000Y18250000D02*
X7300000Y17900000D01*
X6600000Y20650000D02*
X7950000Y20650000D01*
X6032500Y21217500D02*
X6600000Y20650000D01*
X7043289Y16335589D02*
X7043289Y17643289D01*
%TO.N,/SSI_CLK*%
X6032500Y20002500D02*
X6032500Y18567500D01*
%TO.N,/VPP*%
X5940200Y15232500D02*
X7043289Y16335589D01*
X4999500Y15232500D02*
X5940200Y15232500D01*
%TO.N,/SSI_NCS*%
X6586578Y19286578D02*
X7302500Y20002500D01*
%TO.N,/SSI_CLK*%
X6129869Y17290147D02*
X6022222Y17182500D01*
%TO.N,/SSI_NCS*%
X6022222Y16532500D02*
X6586578Y17096856D01*
%TO.N,/SSI_CLK*%
X6022222Y17182500D02*
X4999500Y17182500D01*
%TO.N,/SSI_NCS*%
X6586578Y17096856D02*
X6586578Y19286578D01*
%TO.N,/SSI_CLK*%
X6129869Y18470131D02*
X6129869Y17290147D01*
%TO.N,/SSI_NCS*%
X4999500Y16532500D02*
X6022222Y16532500D01*
%TO.N,/VPP*%
X7043289Y17643289D02*
X7300000Y17900000D01*
%TO.N,/SSI_CLK*%
X6032500Y18567500D02*
X6129869Y18470131D01*
%TO.N,/VDD*%
X10212500Y19602500D02*
X9609300Y19602500D01*
X9609300Y19602500D02*
X9200000Y19193200D01*
X9200000Y19193200D02*
X9200000Y17900000D01*
X9200000Y17900000D02*
X8000000Y16700000D01*
X8000000Y16700000D02*
X8000000Y14600000D01*
X6682500Y13282500D02*
X4999500Y13282500D01*
X8000000Y14600000D02*
X6682500Y13282500D01*
%TO.N,GND*%
X2542500Y7937500D02*
X2542500Y4657500D01*
X4352500Y2847500D02*
X5397500Y2847500D01*
X2542500Y4657500D02*
X4352500Y2847500D01*
%TO.N,/VDD_F*%
X4999500Y13932500D02*
X3976778Y13932500D01*
X3976778Y13932500D02*
X3800000Y13755722D01*
X3800000Y13755722D02*
X3800000Y13300000D01*
X3800000Y13300000D02*
X3800000Y11800000D01*
X3800000Y11800000D02*
X3500000Y11500000D01*
%TO.N,/VDD*%
X4442500Y7937500D02*
X4442500Y6442500D01*
X4442500Y6442500D02*
X4100000Y6100000D01*
X4999500Y13282500D02*
X4999500Y12999500D01*
X4999500Y12999500D02*
X4600000Y12600000D01*
X4600000Y12600000D02*
X4600000Y11800000D01*
X4600000Y11800000D02*
X4800000Y11600000D01*
X4800000Y11600000D02*
X4800000Y8295000D01*
X4800000Y8295000D02*
X4442500Y7937500D01*
%TO.N,/PROG*%
X4999500Y15882500D02*
X3976778Y15882500D01*
X4214651Y20314651D02*
X4214651Y20724651D01*
X3976778Y15882500D02*
X3745111Y16114167D01*
X4214651Y20724651D02*
X4762500Y21272500D01*
X3745111Y16114167D02*
X3745111Y19845111D01*
X3745111Y19845111D02*
X4214651Y20314651D01*
%TO.N,/SSI_DIO*%
X4762500Y20002500D02*
X5300000Y19465000D01*
X4999500Y18299500D02*
X4999500Y17832500D01*
X5300000Y19465000D02*
X5300000Y18600000D01*
X5300000Y18600000D02*
X4999500Y18299500D01*
%TO.N,/ENC_B*%
X9000000Y16329722D02*
X9852778Y17182500D01*
X10000000Y7200000D02*
X10000000Y10300000D01*
X10000000Y10300000D02*
X9000000Y11300000D01*
X9000000Y11300000D02*
X9000000Y16329722D01*
X9852778Y17182500D02*
X10875500Y17182500D01*
%TO.N,/ANA_IN*%
X10875500Y13282500D02*
X10875500Y13073100D01*
X10795000Y11112500D02*
X10184900Y11722600D01*
X10875500Y13073100D02*
X10184900Y12382500D01*
X11432500Y11112500D02*
X10795000Y11112500D01*
X10184900Y11722600D02*
X10184900Y12382500D01*
%TO.N,/MAG_LO_A*%
X14957500Y17909775D02*
X14957500Y17462500D01*
X14528637Y19424605D02*
X14528637Y18338637D01*
X13550742Y20402500D02*
X14528637Y19424605D01*
X14528637Y18338637D02*
X14957500Y17909775D01*
%TO.N,/VDD_A*%
X12615700Y19602500D02*
X13417500Y19602500D01*
%TO.N,/MAG_LO_A*%
X12012500Y20402500D02*
X13550742Y20402500D01*
%TO.N,/VDD_A*%
X13417500Y19602500D02*
X13652500Y19367500D01*
X12012500Y19602500D02*
X12615700Y19602500D01*
%TD*%
M02*
