%TF.GenerationSoftware,KiCad,Pcbnew,(6.0.5-0)*%
%TF.CreationDate,2022-12-27T15:40:18-08:00*%
%TF.ProjectId,talonsrx-enc-aeat-6600,74616c6f-6e73-4727-982d-656e632d6165,rev?*%
%TF.SameCoordinates,PX9157080PY6d01460*%
%TF.FileFunction,Legend,Top*%
%TF.FilePolarity,Positive*%
%FSLAX46Y46*%
G04 Gerber Fmt 4.6, Leading zero omitted, Abs format (unit mm)*
G04 Created by KiCad (PCBNEW (6.0.5-0)) date 2022-12-27 15:40:18*
%MOMM*%
%LPD*%
G01*
G04 APERTURE LIST*
%ADD10C,0.120000*%
%ADD11C,0.150000*%
G04 APERTURE END LIST*
D10*
X10414000Y5842000D02*
X10668000Y6350000D01*
X10414000Y11430000D02*
X10414000Y5842000D01*
D11*
X7486279Y14069286D02*
X7867232Y14069286D01*
X7545803Y13402620D02*
X7652946Y14259762D01*
X7712470Y14355000D01*
X7813660Y14402620D01*
X7908898Y14402620D01*
X8260089Y13402620D02*
X8170803Y13450239D01*
X8129136Y13497858D01*
X8093422Y13593096D01*
X8129136Y13878810D01*
X8188660Y13974048D01*
X8242232Y14021667D01*
X8343422Y14069286D01*
X8486279Y14069286D01*
X8575565Y14021667D01*
X8617232Y13974048D01*
X8652946Y13878810D01*
X8617232Y13593096D01*
X8557708Y13497858D01*
X8504136Y13450239D01*
X8402946Y13402620D01*
X8260089Y13402620D01*
X9021994Y13402620D02*
X9105327Y14069286D01*
X9081517Y13878810D02*
X9141041Y13974048D01*
X9194613Y14021667D01*
X9295803Y14069286D01*
X9391041Y14069286D01*
X5123184Y12792620D02*
X5694613Y12792620D01*
X5283898Y11792620D02*
X5408898Y12792620D01*
X6331517Y11792620D02*
X6396994Y12316429D01*
X6361279Y12411667D01*
X6271994Y12459286D01*
X6081517Y12459286D01*
X5980327Y12411667D01*
X6337470Y11840239D02*
X6236279Y11792620D01*
X5998184Y11792620D01*
X5908898Y11840239D01*
X5873184Y11935477D01*
X5885089Y12030715D01*
X5944613Y12125953D01*
X6045803Y12173572D01*
X6283898Y12173572D01*
X6385089Y12221191D01*
X6950565Y11792620D02*
X6861279Y11840239D01*
X6825565Y11935477D01*
X6932708Y12792620D01*
X7474375Y11792620D02*
X7385089Y11840239D01*
X7343422Y11887858D01*
X7307708Y11983096D01*
X7343422Y12268810D01*
X7402946Y12364048D01*
X7456517Y12411667D01*
X7557708Y12459286D01*
X7700565Y12459286D01*
X7789851Y12411667D01*
X7831517Y12364048D01*
X7867232Y12268810D01*
X7831517Y11983096D01*
X7771994Y11887858D01*
X7718422Y11840239D01*
X7617232Y11792620D01*
X7474375Y11792620D01*
X8319613Y12459286D02*
X8236279Y11792620D01*
X8307708Y12364048D02*
X8361279Y12411667D01*
X8462470Y12459286D01*
X8605327Y12459286D01*
X8694613Y12411667D01*
X8730327Y12316429D01*
X8664851Y11792620D01*
X9099375Y11840239D02*
X9236279Y11792620D01*
X9474375Y11792620D01*
X9575565Y11840239D01*
X9629136Y11887858D01*
X9688660Y11983096D01*
X9700565Y12078334D01*
X9664851Y12173572D01*
X9623184Y12221191D01*
X9533898Y12268810D01*
X9349375Y12316429D01*
X9260089Y12364048D01*
X9218422Y12411667D01*
X9182708Y12506905D01*
X9194613Y12602143D01*
X9254136Y12697381D01*
X9307708Y12745000D01*
X9408898Y12792620D01*
X9646994Y12792620D01*
X9783898Y12745000D01*
X10664851Y11792620D02*
X10391041Y12268810D01*
X10093422Y11792620D02*
X10218422Y12792620D01*
X10599375Y12792620D01*
X10688660Y12745000D01*
X10730327Y12697381D01*
X10766041Y12602143D01*
X10748184Y12459286D01*
X10688660Y12364048D01*
X10635089Y12316429D01*
X10533898Y12268810D01*
X10152946Y12268810D01*
X11123184Y12792620D02*
X11664851Y11792620D01*
X11789851Y12792620D02*
X10998184Y11792620D01*
X4367232Y20738334D02*
X4843422Y20738334D01*
X4236279Y20452620D02*
X4694613Y21452620D01*
X4902946Y20452620D01*
X5301755Y20976429D02*
X5635089Y20976429D01*
X5712470Y20452620D02*
X5236279Y20452620D01*
X5361279Y21452620D01*
X5837470Y21452620D01*
X6129136Y20738334D02*
X6605327Y20738334D01*
X5998184Y20452620D02*
X6456517Y21452620D01*
X6664851Y20452620D01*
X6980327Y21452620D02*
X7551755Y21452620D01*
X7141041Y20452620D02*
X7266041Y21452620D01*
X7807708Y20833572D02*
X8569613Y20833572D01*
X9551755Y21452620D02*
X9361279Y21452620D01*
X9260089Y21405000D01*
X9206517Y21357381D01*
X9093422Y21214524D01*
X9021994Y21024048D01*
X8974375Y20643096D01*
X9010089Y20547858D01*
X9051755Y20500239D01*
X9141041Y20452620D01*
X9331517Y20452620D01*
X9432708Y20500239D01*
X9486279Y20547858D01*
X9545803Y20643096D01*
X9575565Y20881191D01*
X9539851Y20976429D01*
X9498184Y21024048D01*
X9408898Y21071667D01*
X9218422Y21071667D01*
X9117232Y21024048D01*
X9063660Y20976429D01*
X9004136Y20881191D01*
X10504136Y21452620D02*
X10313660Y21452620D01*
X10212470Y21405000D01*
X10158898Y21357381D01*
X10045803Y21214524D01*
X9974375Y21024048D01*
X9926755Y20643096D01*
X9962470Y20547858D01*
X10004136Y20500239D01*
X10093422Y20452620D01*
X10283898Y20452620D01*
X10385089Y20500239D01*
X10438660Y20547858D01*
X10498184Y20643096D01*
X10527946Y20881191D01*
X10492232Y20976429D01*
X10450565Y21024048D01*
X10361279Y21071667D01*
X10170803Y21071667D01*
X10069613Y21024048D01*
X10016041Y20976429D01*
X9956517Y20881191D01*
X11218422Y21452620D02*
X11313660Y21452620D01*
X11402946Y21405000D01*
X11444613Y21357381D01*
X11480327Y21262143D01*
X11504136Y21071667D01*
X11474375Y20833572D01*
X11402946Y20643096D01*
X11343422Y20547858D01*
X11289851Y20500239D01*
X11188660Y20452620D01*
X11093422Y20452620D01*
X11004136Y20500239D01*
X10962470Y20547858D01*
X10926755Y20643096D01*
X10902946Y20833572D01*
X10932708Y21071667D01*
X11004136Y21262143D01*
X11063660Y21357381D01*
X11117232Y21405000D01*
X11218422Y21452620D01*
X12170803Y21452620D02*
X12266041Y21452620D01*
X12355327Y21405000D01*
X12396994Y21357381D01*
X12432708Y21262143D01*
X12456517Y21071667D01*
X12426755Y20833572D01*
X12355327Y20643096D01*
X12295803Y20547858D01*
X12242232Y20500239D01*
X12141041Y20452620D01*
X12045803Y20452620D01*
X11956517Y20500239D01*
X11914851Y20547858D01*
X11879136Y20643096D01*
X11855327Y20833572D01*
X11885089Y21071667D01*
X11956517Y21262143D01*
X12016041Y21357381D01*
X12069613Y21405000D01*
X12170803Y21452620D01*
X5402946Y18842620D02*
X5527946Y19842620D01*
X5771994Y19128334D01*
X6194613Y19842620D01*
X6069613Y18842620D01*
X6974375Y18842620D02*
X7039851Y19366429D01*
X7004136Y19461667D01*
X6914851Y19509286D01*
X6724375Y19509286D01*
X6623184Y19461667D01*
X6980327Y18890239D02*
X6879136Y18842620D01*
X6641041Y18842620D01*
X6551755Y18890239D01*
X6516041Y18985477D01*
X6527946Y19080715D01*
X6587470Y19175953D01*
X6688660Y19223572D01*
X6926755Y19223572D01*
X7027946Y19271191D01*
X7962470Y19509286D02*
X7861279Y18699762D01*
X7801755Y18604524D01*
X7748184Y18556905D01*
X7646994Y18509286D01*
X7504136Y18509286D01*
X7414851Y18556905D01*
X7885089Y18890239D02*
X7783898Y18842620D01*
X7593422Y18842620D01*
X7504136Y18890239D01*
X7462470Y18937858D01*
X7426755Y19033096D01*
X7462470Y19318810D01*
X7521994Y19414048D01*
X7575565Y19461667D01*
X7676755Y19509286D01*
X7867232Y19509286D01*
X7956517Y19461667D01*
X9182708Y19366429D02*
X9516041Y19366429D01*
X9593422Y18842620D02*
X9117232Y18842620D01*
X9242232Y19842620D01*
X9718422Y19842620D01*
X10105327Y19509286D02*
X10021994Y18842620D01*
X10093422Y19414048D02*
X10146994Y19461667D01*
X10248184Y19509286D01*
X10391041Y19509286D01*
X10480327Y19461667D01*
X10516041Y19366429D01*
X10450565Y18842620D01*
X11361279Y18890239D02*
X11260089Y18842620D01*
X11069613Y18842620D01*
X10980327Y18890239D01*
X10938660Y18937858D01*
X10902946Y19033096D01*
X10938660Y19318810D01*
X10998184Y19414048D01*
X11051755Y19461667D01*
X11152946Y19509286D01*
X11343422Y19509286D01*
X11432708Y19461667D01*
X709404Y17260000D02*
X614166Y17307620D01*
X471309Y17307620D01*
X328452Y17260000D01*
X233214Y17164762D01*
X185595Y17069524D01*
X137976Y16879048D01*
X137976Y16736191D01*
X185595Y16545715D01*
X233214Y16450477D01*
X328452Y16355239D01*
X471309Y16307620D01*
X566547Y16307620D01*
X709404Y16355239D01*
X757023Y16402858D01*
X757023Y16736191D01*
X566547Y16736191D01*
X137976Y14745239D02*
X280833Y14697620D01*
X518928Y14697620D01*
X614166Y14745239D01*
X661785Y14792858D01*
X709404Y14888096D01*
X709404Y14983334D01*
X661785Y15078572D01*
X614166Y15126191D01*
X518928Y15173810D01*
X328452Y15221429D01*
X233214Y15269048D01*
X185595Y15316667D01*
X137976Y15411905D01*
X137976Y15507143D01*
X185595Y15602381D01*
X233214Y15650000D01*
X328452Y15697620D01*
X566547Y15697620D01*
X709404Y15650000D01*
X42738Y14087620D02*
X376071Y13087620D01*
X709404Y14087620D01*
X6437380Y7112024D02*
X6437380Y6635834D01*
X6913571Y6588215D01*
X6865952Y6635834D01*
X6818333Y6731072D01*
X6818333Y6969167D01*
X6865952Y7064405D01*
X6913571Y7112024D01*
X7008809Y7159643D01*
X7246904Y7159643D01*
X7342142Y7112024D01*
X7389761Y7064405D01*
X7437380Y6969167D01*
X7437380Y6731072D01*
X7389761Y6635834D01*
X7342142Y6588215D01*
X6437380Y7445358D02*
X7437380Y7778691D01*
X6437380Y8112024D01*
X2246380Y2889405D02*
X2246380Y3508453D01*
X2627333Y3175120D01*
X2627333Y3317977D01*
X2674952Y3413215D01*
X2722571Y3460834D01*
X2817809Y3508453D01*
X3055904Y3508453D01*
X3151142Y3460834D01*
X3198761Y3413215D01*
X3246380Y3317977D01*
X3246380Y3032262D01*
X3198761Y2937024D01*
X3151142Y2889405D01*
X2246380Y3794167D02*
X3246380Y4127500D01*
X2246380Y4460834D01*
X2246380Y4698929D02*
X2246380Y5317977D01*
X2627333Y4984643D01*
X2627333Y5127500D01*
X2674952Y5222739D01*
X2722571Y5270358D01*
X2817809Y5317977D01*
X3055904Y5317977D01*
X3151142Y5270358D01*
X3198761Y5222739D01*
X3246380Y5127500D01*
X3246380Y4841786D01*
X3198761Y4746548D01*
X3151142Y4698929D01*
X11777142Y16715120D02*
X11300952Y16715120D01*
X11300952Y17715120D01*
X12300952Y17715120D02*
X12491428Y17715120D01*
X12586666Y17667500D01*
X12681904Y17572262D01*
X12729523Y17381786D01*
X12729523Y17048453D01*
X12681904Y16857977D01*
X12586666Y16762739D01*
X12491428Y16715120D01*
X12300952Y16715120D01*
X12205714Y16762739D01*
X12110476Y16857977D01*
X12062857Y17048453D01*
X12062857Y17381786D01*
X12110476Y17572262D01*
X12205714Y17667500D01*
X12300952Y17715120D01*
X10015238Y15105120D02*
X10015238Y16105120D01*
X10396190Y16105120D01*
X10491428Y16057500D01*
X10539047Y16009881D01*
X10586666Y15914643D01*
X10586666Y15771786D01*
X10539047Y15676548D01*
X10491428Y15628929D01*
X10396190Y15581310D01*
X10015238Y15581310D01*
X10920000Y16105120D02*
X11158095Y15105120D01*
X11348571Y15819405D01*
X11539047Y15105120D01*
X11777142Y16105120D01*
X12729523Y15105120D02*
X12396190Y15581310D01*
X12158095Y15105120D02*
X12158095Y16105120D01*
X12539047Y16105120D01*
X12634285Y16057500D01*
X12681904Y16009881D01*
X12729523Y15914643D01*
X12729523Y15771786D01*
X12681904Y15676548D01*
X12634285Y15628929D01*
X12539047Y15581310D01*
X12158095Y15581310D01*
X11634285Y13495120D02*
X11634285Y14495120D01*
X11634285Y14018929D02*
X12205714Y14018929D01*
X12205714Y13495120D02*
X12205714Y14495120D01*
X12681904Y13495120D02*
X12681904Y14495120D01*
%TO.C,J3*%
X1933333Y20288096D02*
X1933333Y19716667D01*
X1895238Y19602381D01*
X1819047Y19526191D01*
X1704761Y19488096D01*
X1628571Y19488096D01*
X2238095Y20288096D02*
X2733333Y20288096D01*
X2466666Y19983334D01*
X2580952Y19983334D01*
X2657142Y19945239D01*
X2695238Y19907143D01*
X2733333Y19830953D01*
X2733333Y19640477D01*
X2695238Y19564286D01*
X2657142Y19526191D01*
X2580952Y19488096D01*
X2352380Y19488096D01*
X2276190Y19526191D01*
X2238095Y19564286D01*
%TO.C,J1*%
X12115833Y5200596D02*
X12115833Y4629167D01*
X12077738Y4514881D01*
X12001547Y4438691D01*
X11887261Y4400596D01*
X11811071Y4400596D01*
X12915833Y4400596D02*
X12458690Y4400596D01*
X12687261Y4400596D02*
X12687261Y5200596D01*
X12611071Y5086310D01*
X12534880Y5010120D01*
X12458690Y4972024D01*
D10*
%TO.C,JP2*%
X3875000Y8842500D02*
X2475000Y8842500D01*
X2475000Y10842500D02*
X3875000Y10842500D01*
X1775000Y9542500D02*
X1775000Y10142500D01*
X4575000Y10142500D02*
X4575000Y9542500D01*
X2475000Y10842500D02*
G75*
G03*
X1775000Y10142500I-1J-699999D01*
G01*
X1775000Y9542500D02*
G75*
G03*
X2475000Y8842500I699999J-1D01*
G01*
X3875000Y8842500D02*
G75*
G03*
X4575000Y9542500I0J700000D01*
G01*
X4575000Y10142500D02*
G75*
G03*
X3875000Y10842500I-700000J0D01*
G01*
%TO.C,J3*%
X892500Y16510000D02*
X3552500Y16510000D01*
X892500Y19110000D02*
X2222500Y19110000D01*
X3552500Y16510000D02*
X3552500Y11370000D01*
X892500Y17780000D02*
X892500Y19110000D01*
X892500Y16510000D02*
X892500Y11370000D01*
X892500Y11370000D02*
X3552500Y11370000D01*
%TO.C,J1*%
X10477500Y5247500D02*
X11237500Y5247500D01*
X11237500Y5247500D02*
X11237500Y4117500D01*
X9717500Y5247500D02*
X9717500Y4680971D01*
X9717500Y5247500D02*
X4702500Y5247500D01*
X9717500Y3554029D02*
X9717500Y3410971D01*
X4702500Y2539970D02*
X4702500Y1717500D01*
X4702500Y3809970D02*
X4702500Y3155030D01*
X11172500Y1717500D02*
X4702500Y1717500D01*
X11172500Y2539970D02*
X11172500Y1717500D01*
X11040971Y3357500D02*
X11172500Y3357500D01*
X11172500Y3357500D02*
X11172500Y3155030D01*
X4702500Y5247500D02*
X4702500Y4425030D01*
X9770971Y3357500D02*
X9914029Y3357500D01*
%TO.C,JP1*%
X2460000Y8302500D02*
G75*
G03*
X1760000Y7602500I-1J-699999D01*
G01*
X5160000Y6302500D02*
G75*
G03*
X5860000Y7002500I0J700000D01*
G01*
X5860000Y7602500D02*
G75*
G03*
X5160000Y8302500I-700000J0D01*
G01*
X1760000Y7002500D02*
G75*
G03*
X2460000Y6302500I699999J-1D01*
G01*
X5860000Y7602500D02*
X5860000Y7002500D01*
X2310000Y5802500D02*
X2910000Y5802500D01*
X2410000Y8302500D02*
X5210000Y8302500D01*
X2610000Y6102500D02*
X2310000Y5802500D01*
X1760000Y7002500D02*
X1760000Y7602500D01*
X5210000Y6302500D02*
X2410000Y6302500D01*
X2610000Y6102500D02*
X2910000Y5802500D01*
%TD*%
M02*
