M48
; DRILL file {KiCad (6.0.5-0)} date Tuesday, December 27, 2022 at 03:40:24 PM
; FORMAT={-:-/ absolute / metric / decimal}
; #@! TF.CreationDate,2022-12-27T15:40:24-08:00
; #@! TF.GenerationSoftware,Kicad,Pcbnew,(6.0.5-0)
; #@! TF.FileFunction,Plated,1,2,PTH
FMAT,2
METRIC
; #@! TA.AperFunction,Plated,PTH,ViaDrill
T1C0.305
; #@! TA.AperFunction,Plated,PTH,ComponentDrill
T2C0.650
; #@! TA.AperFunction,Plated,PTH,ComponentDrill
T3C1.000
%
G90
G05
T1
X3.5Y11.5
X4.1Y6.1
X5.397Y12.383
X7.3Y19.0
X7.366Y5.207
X7.95Y20.65
X8.5Y18.2
X9.15Y20.65
X10.185Y12.383
X11.0Y18.8
X11.055Y20.142
X11.2Y21.4
X12.137Y15.197
X12.171Y16.648
X13.0Y18.8
X13.6Y12.4
X13.6Y9.8
X13.6Y6.6
X13.652Y19.367
X13.716Y1.905
X15.314Y14.557
X15.402Y16.497
T2
X5.397Y4.117
X5.397Y2.847
X6.667Y4.117
X6.667Y2.847
X7.938Y4.117
X7.938Y2.847
X9.207Y4.117
X9.207Y2.847
X10.477Y4.117
X10.477Y2.847
T3
X2.222Y17.78
X2.222Y15.24
X2.222Y12.7
T0
M30
