%TF.GenerationSoftware,KiCad,Pcbnew,(6.0.5-0)*%
%TF.CreationDate,2022-12-27T15:40:18-08:00*%
%TF.ProjectId,talonsrx-enc-aeat-6600,74616c6f-6e73-4727-982d-656e632d6165,rev?*%
%TF.SameCoordinates,PX9157080PY6d01460*%
%TF.FileFunction,Copper,L1,Top*%
%TF.FilePolarity,Positive*%
%FSLAX46Y46*%
G04 Gerber Fmt 4.6, Leading zero omitted, Abs format (unit mm)*
G04 Created by KiCad (PCBNEW (6.0.5-0)) date 2022-12-27 15:40:18*
%MOMM*%
%LPD*%
G01*
G04 APERTURE LIST*
G04 Aperture macros list*
%AMFreePoly0*
4,1,22,0.500000,-0.750000,0.000000,-0.750000,0.000000,-0.745033,-0.079941,-0.743568,-0.215256,-0.701293,-0.333266,-0.622738,-0.424486,-0.514219,-0.481581,-0.384460,-0.499164,-0.250000,-0.500000,-0.250000,-0.500000,0.250000,-0.499164,0.250000,-0.499963,0.256109,-0.478152,0.396186,-0.417904,0.524511,-0.324060,0.630769,-0.204165,0.706417,-0.067858,0.745374,0.000000,0.744959,0.000000,0.750000,
0.500000,0.750000,0.500000,-0.750000,0.500000,-0.750000,$1*%
%AMFreePoly1*
4,1,20,0.000000,0.744959,0.073905,0.744508,0.209726,0.703889,0.328688,0.626782,0.421226,0.519385,0.479903,0.390333,0.500000,0.250000,0.500000,-0.250000,0.499851,-0.262216,0.476331,-0.402017,0.414519,-0.529596,0.319384,-0.634700,0.198574,-0.708877,0.061801,-0.746166,0.000000,-0.745033,0.000000,-0.750000,-0.500000,-0.750000,-0.500000,0.750000,0.000000,0.750000,0.000000,0.744959,
0.000000,0.744959,$1*%
%AMFreePoly2*
4,1,20,0.000000,0.744959,0.073905,0.744508,0.209726,0.703889,0.328688,0.626782,0.421226,0.519385,0.479903,0.390333,0.500000,0.250000,0.500000,-0.250000,0.499851,-0.262216,0.476331,-0.402017,0.414519,-0.529596,0.319384,-0.634700,0.198574,-0.708877,0.061801,-0.746166,0.000000,-0.745033,0.000000,-0.750000,-0.550000,-0.750000,-0.550000,0.750000,0.000000,0.750000,0.000000,0.744959,
0.000000,0.744959,$1*%
%AMFreePoly3*
4,1,22,0.550000,-0.750000,0.000000,-0.750000,0.000000,-0.745033,-0.079941,-0.743568,-0.215256,-0.701293,-0.333266,-0.622738,-0.424486,-0.514219,-0.481581,-0.384460,-0.499164,-0.250000,-0.500000,-0.250000,-0.500000,0.250000,-0.499164,0.250000,-0.499963,0.256109,-0.478152,0.396186,-0.417904,0.524511,-0.324060,0.630769,-0.204165,0.706417,-0.067858,0.745374,0.000000,0.744959,0.000000,0.750000,
0.550000,0.750000,0.550000,-0.750000,0.550000,-0.750000,$1*%
G04 Aperture macros list end*
%ADD10C,0.125000*%
%TA.AperFunction,NonConductor*%
%ADD11C,0.125000*%
%TD*%
%TA.AperFunction,EtchedComponent*%
%ADD12C,0.010000*%
%TD*%
%TA.AperFunction,SMDPad,CuDef*%
%ADD13FreePoly0,0.000000*%
%TD*%
%TA.AperFunction,SMDPad,CuDef*%
%ADD14FreePoly1,0.000000*%
%TD*%
%TA.AperFunction,ComponentPad*%
%ADD15O,1.700000X1.700000*%
%TD*%
%TA.AperFunction,ComponentPad*%
%ADD16R,1.700000X1.700000*%
%TD*%
%TA.AperFunction,ComponentPad*%
%ADD17R,1.000000X1.000000*%
%TD*%
%TA.AperFunction,ComponentPad*%
%ADD18O,1.000000X1.000000*%
%TD*%
%TA.AperFunction,SMDPad,CuDef*%
%ADD19FreePoly2,0.000000*%
%TD*%
%TA.AperFunction,SMDPad,CuDef*%
%ADD20R,1.000000X1.500000*%
%TD*%
%TA.AperFunction,SMDPad,CuDef*%
%ADD21FreePoly3,0.000000*%
%TD*%
%TA.AperFunction,ViaPad*%
%ADD22C,0.609600*%
%TD*%
%TA.AperFunction,Conductor*%
%ADD23C,0.203200*%
%TD*%
%TA.AperFunction,Conductor*%
%ADD24C,0.457200*%
%TD*%
G04 APERTURE END LIST*
D10*
D11*
X2166071Y806429D02*
X2394642Y806429D01*
X2251785Y1073096D02*
X2251785Y387381D01*
X2280357Y311191D01*
X2337500Y273096D01*
X2394642Y273096D01*
X2851785Y273096D02*
X2851785Y692143D01*
X2823214Y768334D01*
X2766071Y806429D01*
X2651785Y806429D01*
X2594642Y768334D01*
X2851785Y311191D02*
X2794642Y273096D01*
X2651785Y273096D01*
X2594642Y311191D01*
X2566071Y387381D01*
X2566071Y463572D01*
X2594642Y539762D01*
X2651785Y577858D01*
X2794642Y577858D01*
X2851785Y615953D01*
X3223214Y273096D02*
X3166071Y311191D01*
X3137500Y387381D01*
X3137500Y1073096D01*
X3537500Y273096D02*
X3480357Y311191D01*
X3451785Y349286D01*
X3423214Y425477D01*
X3423214Y654048D01*
X3451785Y730239D01*
X3480357Y768334D01*
X3537500Y806429D01*
X3623214Y806429D01*
X3680357Y768334D01*
X3708928Y730239D01*
X3737500Y654048D01*
X3737500Y425477D01*
X3708928Y349286D01*
X3680357Y311191D01*
X3623214Y273096D01*
X3537500Y273096D01*
X3994642Y806429D02*
X3994642Y273096D01*
X3994642Y730239D02*
X4023214Y768334D01*
X4080357Y806429D01*
X4166071Y806429D01*
X4223214Y768334D01*
X4251785Y692143D01*
X4251785Y273096D01*
X4508928Y311191D02*
X4566071Y273096D01*
X4680357Y273096D01*
X4737500Y311191D01*
X4766071Y387381D01*
X4766071Y425477D01*
X4737500Y501667D01*
X4680357Y539762D01*
X4594642Y539762D01*
X4537500Y577858D01*
X4508928Y654048D01*
X4508928Y692143D01*
X4537500Y768334D01*
X4594642Y806429D01*
X4680357Y806429D01*
X4737500Y768334D01*
X5023214Y273096D02*
X5023214Y806429D01*
X5023214Y654048D02*
X5051785Y730239D01*
X5080357Y768334D01*
X5137500Y806429D01*
X5194642Y806429D01*
X5337500Y273096D02*
X5651785Y806429D01*
X5337500Y806429D02*
X5651785Y273096D01*
X5880357Y577858D02*
X6337500Y577858D01*
X6851785Y311191D02*
X6794642Y273096D01*
X6680357Y273096D01*
X6623214Y311191D01*
X6594642Y387381D01*
X6594642Y692143D01*
X6623214Y768334D01*
X6680357Y806429D01*
X6794642Y806429D01*
X6851785Y768334D01*
X6880357Y692143D01*
X6880357Y615953D01*
X6594642Y539762D01*
X7137500Y806429D02*
X7137500Y273096D01*
X7137500Y730239D02*
X7166071Y768334D01*
X7223214Y806429D01*
X7308928Y806429D01*
X7366071Y768334D01*
X7394642Y692143D01*
X7394642Y273096D01*
X7937500Y311191D02*
X7880357Y273096D01*
X7766071Y273096D01*
X7708928Y311191D01*
X7680357Y349286D01*
X7651785Y425477D01*
X7651785Y654048D01*
X7680357Y730239D01*
X7708928Y768334D01*
X7766071Y806429D01*
X7880357Y806429D01*
X7937500Y768334D01*
X8194642Y577858D02*
X8651785Y577858D01*
X9194642Y273096D02*
X9194642Y692143D01*
X9166071Y768334D01*
X9108928Y806429D01*
X8994642Y806429D01*
X8937500Y768334D01*
X9194642Y311191D02*
X9137500Y273096D01*
X8994642Y273096D01*
X8937500Y311191D01*
X8908928Y387381D01*
X8908928Y463572D01*
X8937500Y539762D01*
X8994642Y577858D01*
X9137500Y577858D01*
X9194642Y615953D01*
X9708928Y311191D02*
X9651785Y273096D01*
X9537500Y273096D01*
X9480357Y311191D01*
X9451785Y387381D01*
X9451785Y692143D01*
X9480357Y768334D01*
X9537500Y806429D01*
X9651785Y806429D01*
X9708928Y768334D01*
X9737500Y692143D01*
X9737500Y615953D01*
X9451785Y539762D01*
X10251785Y273096D02*
X10251785Y692143D01*
X10223214Y768334D01*
X10166071Y806429D01*
X10051785Y806429D01*
X9994642Y768334D01*
X10251785Y311191D02*
X10194642Y273096D01*
X10051785Y273096D01*
X9994642Y311191D01*
X9966071Y387381D01*
X9966071Y463572D01*
X9994642Y539762D01*
X10051785Y577858D01*
X10194642Y577858D01*
X10251785Y615953D01*
X10451785Y806429D02*
X10680357Y806429D01*
X10537500Y1073096D02*
X10537500Y387381D01*
X10566071Y311191D01*
X10623214Y273096D01*
X10680357Y273096D01*
X10880357Y577858D02*
X11337500Y577858D01*
X11880357Y1073096D02*
X11766071Y1073096D01*
X11708928Y1035000D01*
X11680357Y996905D01*
X11623214Y882620D01*
X11594642Y730239D01*
X11594642Y425477D01*
X11623214Y349286D01*
X11651785Y311191D01*
X11708928Y273096D01*
X11823214Y273096D01*
X11880357Y311191D01*
X11908928Y349286D01*
X11937500Y425477D01*
X11937500Y615953D01*
X11908928Y692143D01*
X11880357Y730239D01*
X11823214Y768334D01*
X11708928Y768334D01*
X11651785Y730239D01*
X11623214Y692143D01*
X11594642Y615953D01*
X12451785Y1073096D02*
X12337500Y1073096D01*
X12280357Y1035000D01*
X12251785Y996905D01*
X12194642Y882620D01*
X12166071Y730239D01*
X12166071Y425477D01*
X12194642Y349286D01*
X12223214Y311191D01*
X12280357Y273096D01*
X12394642Y273096D01*
X12451785Y311191D01*
X12480357Y349286D01*
X12508928Y425477D01*
X12508928Y615953D01*
X12480357Y692143D01*
X12451785Y730239D01*
X12394642Y768334D01*
X12280357Y768334D01*
X12223214Y730239D01*
X12194642Y692143D01*
X12166071Y615953D01*
X12880357Y1073096D02*
X12937500Y1073096D01*
X12994642Y1035000D01*
X13023214Y996905D01*
X13051785Y920715D01*
X13080357Y768334D01*
X13080357Y577858D01*
X13051785Y425477D01*
X13023214Y349286D01*
X12994642Y311191D01*
X12937500Y273096D01*
X12880357Y273096D01*
X12823214Y311191D01*
X12794642Y349286D01*
X12766071Y425477D01*
X12737500Y577858D01*
X12737500Y768334D01*
X12766071Y920715D01*
X12794642Y996905D01*
X12823214Y1035000D01*
X12880357Y1073096D01*
X13451785Y1073096D02*
X13508928Y1073096D01*
X13566071Y1035000D01*
X13594642Y996905D01*
X13623214Y920715D01*
X13651785Y768334D01*
X13651785Y577858D01*
X13623214Y425477D01*
X13594642Y349286D01*
X13566071Y311191D01*
X13508928Y273096D01*
X13451785Y273096D01*
X13394642Y311191D01*
X13366071Y349286D01*
X13337500Y425477D01*
X13308928Y577858D01*
X13308928Y768334D01*
X13337500Y920715D01*
X13366071Y996905D01*
X13394642Y1035000D01*
X13451785Y1073096D01*
%TO.C,JP2*%
G36*
X3425000Y9542500D02*
G01*
X2925000Y9542500D01*
X2925000Y10142500D01*
X3425000Y10142500D01*
X3425000Y9542500D01*
G37*
%TO.C,G\u002A\u002A\u002A*%
G36*
X4295354Y17548457D02*
G01*
X4308647Y17572098D01*
X4325541Y17594911D01*
X4333454Y17603411D01*
X4341036Y17608613D01*
X4358968Y17619761D01*
X4386588Y17636470D01*
X4423237Y17658359D01*
X4468252Y17685044D01*
X4520973Y17716142D01*
X4580738Y17751270D01*
X4646887Y17790045D01*
X4718758Y17832084D01*
X4795690Y17877005D01*
X4877022Y17924424D01*
X4962092Y17973958D01*
X5050241Y18025225D01*
X5140806Y18077841D01*
X5233126Y18131424D01*
X5326541Y18185590D01*
X5420389Y18239957D01*
X5514009Y18294141D01*
X5606740Y18347760D01*
X5697921Y18400430D01*
X5786891Y18451769D01*
X5872988Y18501394D01*
X5955551Y18548922D01*
X6033920Y18593969D01*
X6107433Y18636153D01*
X6175430Y18675091D01*
X6237248Y18710400D01*
X6292227Y18741697D01*
X6339705Y18768598D01*
X6379022Y18790722D01*
X6409517Y18807685D01*
X6430528Y18819104D01*
X6441394Y18824596D01*
X6442171Y18824907D01*
X6469317Y18830955D01*
X6502042Y18833090D01*
X6534273Y18831249D01*
X6557789Y18826154D01*
X6565444Y18822247D01*
X6583538Y18812300D01*
X6611518Y18796629D01*
X6648831Y18775552D01*
X6694921Y18749386D01*
X6749236Y18718449D01*
X6811220Y18683057D01*
X6880320Y18643527D01*
X6955982Y18600177D01*
X7037651Y18553324D01*
X7124775Y18503285D01*
X7216798Y18450378D01*
X7313167Y18394918D01*
X7413327Y18337225D01*
X7516725Y18277614D01*
X7604900Y18226738D01*
X7751412Y18142117D01*
X7886906Y18063743D01*
X8011414Y17991597D01*
X8124965Y17925662D01*
X8227590Y17865920D01*
X8319319Y17812353D01*
X8400181Y17764944D01*
X8470209Y17723675D01*
X8529431Y17688528D01*
X8577878Y17659484D01*
X8615581Y17636527D01*
X8642569Y17619639D01*
X8658874Y17608802D01*
X8663405Y17605318D01*
X8688487Y17579059D01*
X8705072Y17551533D01*
X8709443Y17540921D01*
X8711014Y17536609D01*
X8712454Y17532068D01*
X8713768Y17526753D01*
X8714963Y17520115D01*
X8716043Y17511609D01*
X8717014Y17500688D01*
X8717883Y17486805D01*
X8718655Y17469413D01*
X8719336Y17447965D01*
X8719931Y17421915D01*
X8720447Y17390716D01*
X8720888Y17353821D01*
X8721261Y17310683D01*
X8721572Y17260756D01*
X8721825Y17203493D01*
X8722028Y17138347D01*
X8722185Y17064771D01*
X8722303Y16982218D01*
X8722387Y16890143D01*
X8722443Y16787997D01*
X8722476Y16675235D01*
X8722493Y16551309D01*
X8722499Y16415673D01*
X8722500Y16296825D01*
X8722498Y16151281D01*
X8722489Y16017891D01*
X8722468Y15896107D01*
X8722429Y15785383D01*
X8722365Y15685174D01*
X8722272Y15594931D01*
X8722144Y15514110D01*
X8721975Y15442162D01*
X8721760Y15378542D01*
X8721493Y15322703D01*
X8721168Y15274099D01*
X8720779Y15232183D01*
X8720322Y15196407D01*
X8719790Y15166227D01*
X8719178Y15141095D01*
X8718480Y15120465D01*
X8717691Y15103790D01*
X8716805Y15090524D01*
X8715815Y15080120D01*
X8714718Y15072031D01*
X8713506Y15065712D01*
X8712175Y15060614D01*
X8710719Y15056193D01*
X8709687Y15053383D01*
X8693081Y15021369D01*
X8670103Y14992922D01*
X8670000Y14992820D01*
X8661837Y14986622D01*
X8644914Y14975478D01*
X8619063Y14959291D01*
X8584116Y14937961D01*
X8539905Y14911390D01*
X8486264Y14879479D01*
X8423024Y14842131D01*
X8350017Y14799246D01*
X8267077Y14750725D01*
X8174035Y14696471D01*
X8070724Y14636384D01*
X7956976Y14570367D01*
X7832624Y14498320D01*
X7697499Y14420144D01*
X7614425Y14372129D01*
X7508554Y14310986D01*
X7405430Y14251485D01*
X7305607Y14193942D01*
X7209640Y14138677D01*
X7118085Y14086007D01*
X7031496Y14036249D01*
X6950428Y13989723D01*
X6875437Y13946744D01*
X6807076Y13907632D01*
X6745903Y13872705D01*
X6692471Y13842279D01*
X6647335Y13816674D01*
X6611051Y13796207D01*
X6584173Y13781195D01*
X6567257Y13771957D01*
X6561114Y13768878D01*
X6523964Y13760923D01*
X6482958Y13760917D01*
X6443817Y13768593D01*
X6426975Y13775115D01*
X6414773Y13781466D01*
X6392535Y13793688D01*
X6360920Y13811398D01*
X6320591Y13834211D01*
X6272208Y13861745D01*
X6216434Y13893614D01*
X6153929Y13929435D01*
X6085356Y13968825D01*
X6011375Y14011399D01*
X5932647Y14056773D01*
X5849835Y14104564D01*
X5763600Y14154388D01*
X5674604Y14205861D01*
X5583506Y14258598D01*
X5490970Y14312217D01*
X5397656Y14366332D01*
X5304226Y14420561D01*
X5211342Y14474520D01*
X5119664Y14527824D01*
X5029855Y14580090D01*
X4942574Y14630933D01*
X4858485Y14679971D01*
X4778249Y14726818D01*
X4702526Y14771092D01*
X4631979Y14812408D01*
X4567268Y14850383D01*
X4509056Y14884631D01*
X4458003Y14914771D01*
X4414771Y14940418D01*
X4380021Y14961187D01*
X4354416Y14976695D01*
X4338615Y14986559D01*
X4333454Y14990151D01*
X4316687Y15009919D01*
X4300997Y15034140D01*
X4295354Y15045194D01*
X4280675Y15077625D01*
X4280675Y16303175D01*
X4617751Y16303175D01*
X4617873Y16246098D01*
X4618314Y16199497D01*
X4619189Y16161152D01*
X4620610Y16128840D01*
X4622691Y16100339D01*
X4625545Y16073430D01*
X4629285Y16045889D01*
X4631690Y16030125D01*
X4662350Y15873914D01*
X4704463Y15723036D01*
X4757930Y15577698D01*
X4822656Y15438101D01*
X4898542Y15304450D01*
X4985491Y15176950D01*
X5083407Y15055804D01*
X5111366Y15024587D01*
X5219817Y14915323D01*
X5335921Y14816095D01*
X5459291Y14727107D01*
X5589543Y14648563D01*
X5726290Y14580668D01*
X5869147Y14523625D01*
X6017728Y14477639D01*
X6171648Y14442912D01*
X6230125Y14432919D01*
X6274429Y14426888D01*
X6311740Y14424338D01*
X6347009Y14425376D01*
X6385189Y14430111D01*
X6423800Y14437158D01*
X6523011Y14462738D01*
X6623789Y14499879D01*
X6725087Y14547709D01*
X6825858Y14605362D01*
X6925056Y14671968D01*
X7021634Y14746659D01*
X7114545Y14828565D01*
X7202744Y14916818D01*
X7285182Y15010550D01*
X7360813Y15108891D01*
X7428592Y15210972D01*
X7487470Y15315926D01*
X7491064Y15323024D01*
X7530027Y15409856D01*
X7565218Y15507051D01*
X7596313Y15612752D01*
X7622986Y15725100D01*
X7644912Y15842235D01*
X7661766Y15962300D01*
X7673224Y16083434D01*
X7678961Y16203779D01*
X7678651Y16321476D01*
X7675993Y16381019D01*
X7665636Y16505599D01*
X7650017Y16624252D01*
X7629412Y16735535D01*
X7604098Y16838008D01*
X7574351Y16930228D01*
X7566996Y16949619D01*
X7556814Y16977039D01*
X7549174Y17000321D01*
X7544869Y17016847D01*
X7544509Y17023795D01*
X7554401Y17030155D01*
X7568723Y17025983D01*
X7586634Y17012303D01*
X7607290Y16990135D01*
X7629849Y16960501D01*
X7653470Y16924425D01*
X7677309Y16882928D01*
X7700525Y16837033D01*
X7703306Y16831113D01*
X7754225Y16708430D01*
X7796881Y16577494D01*
X7831073Y16439865D01*
X7856598Y16297103D01*
X7873256Y16150769D01*
X7880846Y16002422D01*
X7879165Y15853622D01*
X7868012Y15705931D01*
X7858401Y15630075D01*
X7831769Y15484982D01*
X7794830Y15347064D01*
X7747293Y15215689D01*
X7688867Y15090223D01*
X7619263Y14970035D01*
X7538188Y14854491D01*
X7456444Y14755385D01*
X7400347Y14698547D01*
X7333684Y14642464D01*
X7258551Y14588890D01*
X7253625Y14585667D01*
X7228104Y14568821D01*
X7206970Y14554424D01*
X7192232Y14543879D01*
X7185901Y14538589D01*
X7185800Y14538349D01*
X7191183Y14538827D01*
X7206164Y14544219D01*
X7228990Y14553744D01*
X7257911Y14566617D01*
X7291174Y14582057D01*
X7327026Y14599280D01*
X7363715Y14617504D01*
X7369495Y14620434D01*
X7426726Y14651402D01*
X7486396Y14687078D01*
X7546937Y14726272D01*
X7606785Y14767795D01*
X7664374Y14810455D01*
X7718137Y14853061D01*
X7766510Y14894425D01*
X7807926Y14933354D01*
X7840820Y14968659D01*
X7859713Y14993149D01*
X7896505Y15052857D01*
X7933209Y15122954D01*
X7968975Y15201153D01*
X8002952Y15285164D01*
X8034290Y15372700D01*
X8062137Y15461474D01*
X8085644Y15549196D01*
X8103960Y15633579D01*
X8109513Y15665089D01*
X8116189Y15715726D01*
X8121505Y15776241D01*
X8125361Y15843877D01*
X8127655Y15915874D01*
X8128289Y15989475D01*
X8127161Y16061921D01*
X8125502Y16105724D01*
X8114209Y16267878D01*
X8096281Y16419204D01*
X8071718Y16559702D01*
X8040520Y16689373D01*
X8002687Y16808218D01*
X7958218Y16916237D01*
X7907113Y17013431D01*
X7849371Y17099801D01*
X7823602Y17132297D01*
X7806336Y17153622D01*
X7792673Y17171683D01*
X7784378Y17184079D01*
X7782700Y17187969D01*
X7787110Y17196313D01*
X7799661Y17196366D01*
X7819328Y17188628D01*
X7845089Y17173601D01*
X7875919Y17151788D01*
X7906630Y17127209D01*
X7969090Y17067119D01*
X8027238Y16995752D01*
X8080823Y16913861D01*
X8129593Y16822203D01*
X8173299Y16721532D01*
X8211687Y16612605D01*
X8244509Y16496175D01*
X8271512Y16372999D01*
X8292446Y16243830D01*
X8307060Y16109426D01*
X8315102Y15970540D01*
X8316627Y15893600D01*
X8316942Y15854015D01*
X8317385Y15825860D01*
X8318103Y15807868D01*
X8319243Y15798768D01*
X8320950Y15797292D01*
X8323373Y15802171D01*
X8326205Y15810692D01*
X8343460Y15875055D01*
X8358307Y15949421D01*
X8370429Y16031270D01*
X8379508Y16118080D01*
X8385228Y16207327D01*
X8387272Y16296490D01*
X8387272Y16296825D01*
X8384843Y16410549D01*
X8377024Y16516341D01*
X8363357Y16617975D01*
X8343387Y16719220D01*
X8329065Y16777989D01*
X8284661Y16924417D01*
X8229045Y17065472D01*
X8162732Y17200649D01*
X8086240Y17329443D01*
X8000086Y17451346D01*
X7904788Y17565852D01*
X7800863Y17672457D01*
X7688828Y17770654D01*
X7569201Y17859936D01*
X7442498Y17939799D01*
X7309237Y18009735D01*
X7169935Y18069240D01*
X7025109Y18117806D01*
X6934975Y18141678D01*
X6867375Y18156848D01*
X6804860Y18168574D01*
X6744103Y18177223D01*
X6681777Y18183166D01*
X6614554Y18186772D01*
X6539109Y18188410D01*
X6512700Y18188579D01*
X6445859Y18188423D01*
X6388682Y18187285D01*
X6338152Y18184896D01*
X6291255Y18180990D01*
X6244974Y18175298D01*
X6196292Y18167552D01*
X6142195Y18157483D01*
X6125350Y18154147D01*
X5977395Y18118209D01*
X5834202Y18070800D01*
X5696291Y18012420D01*
X5564183Y17943567D01*
X5438397Y17864742D01*
X5319453Y17776444D01*
X5207872Y17679173D01*
X5104174Y17573428D01*
X5008878Y17459709D01*
X4922506Y17338516D01*
X4845576Y17210347D01*
X4778609Y17075702D01*
X4722126Y16935082D01*
X4676646Y16788985D01*
X4667639Y16754025D01*
X4653389Y16694173D01*
X4642034Y16640414D01*
X4633271Y16590016D01*
X4626797Y16540249D01*
X4622311Y16488381D01*
X4619511Y16431680D01*
X4618094Y16367414D01*
X4617751Y16303175D01*
X4280675Y16303175D01*
X4280675Y17516025D01*
X4295354Y17548457D01*
G37*
D12*
X4295354Y17548457D02*
X4308647Y17572098D01*
X4325541Y17594911D01*
X4333454Y17603411D01*
X4341036Y17608613D01*
X4358968Y17619761D01*
X4386588Y17636470D01*
X4423237Y17658359D01*
X4468252Y17685044D01*
X4520973Y17716142D01*
X4580738Y17751270D01*
X4646887Y17790045D01*
X4718758Y17832084D01*
X4795690Y17877005D01*
X4877022Y17924424D01*
X4962092Y17973958D01*
X5050241Y18025225D01*
X5140806Y18077841D01*
X5233126Y18131424D01*
X5326541Y18185590D01*
X5420389Y18239957D01*
X5514009Y18294141D01*
X5606740Y18347760D01*
X5697921Y18400430D01*
X5786891Y18451769D01*
X5872988Y18501394D01*
X5955551Y18548922D01*
X6033920Y18593969D01*
X6107433Y18636153D01*
X6175430Y18675091D01*
X6237248Y18710400D01*
X6292227Y18741697D01*
X6339705Y18768598D01*
X6379022Y18790722D01*
X6409517Y18807685D01*
X6430528Y18819104D01*
X6441394Y18824596D01*
X6442171Y18824907D01*
X6469317Y18830955D01*
X6502042Y18833090D01*
X6534273Y18831249D01*
X6557789Y18826154D01*
X6565444Y18822247D01*
X6583538Y18812300D01*
X6611518Y18796629D01*
X6648831Y18775552D01*
X6694921Y18749386D01*
X6749236Y18718449D01*
X6811220Y18683057D01*
X6880320Y18643527D01*
X6955982Y18600177D01*
X7037651Y18553324D01*
X7124775Y18503285D01*
X7216798Y18450378D01*
X7313167Y18394918D01*
X7413327Y18337225D01*
X7516725Y18277614D01*
X7604900Y18226738D01*
X7751412Y18142117D01*
X7886906Y18063743D01*
X8011414Y17991597D01*
X8124965Y17925662D01*
X8227590Y17865920D01*
X8319319Y17812353D01*
X8400181Y17764944D01*
X8470209Y17723675D01*
X8529431Y17688528D01*
X8577878Y17659484D01*
X8615581Y17636527D01*
X8642569Y17619639D01*
X8658874Y17608802D01*
X8663405Y17605318D01*
X8688487Y17579059D01*
X8705072Y17551533D01*
X8709443Y17540921D01*
X8711014Y17536609D01*
X8712454Y17532068D01*
X8713768Y17526753D01*
X8714963Y17520115D01*
X8716043Y17511609D01*
X8717014Y17500688D01*
X8717883Y17486805D01*
X8718655Y17469413D01*
X8719336Y17447965D01*
X8719931Y17421915D01*
X8720447Y17390716D01*
X8720888Y17353821D01*
X8721261Y17310683D01*
X8721572Y17260756D01*
X8721825Y17203493D01*
X8722028Y17138347D01*
X8722185Y17064771D01*
X8722303Y16982218D01*
X8722387Y16890143D01*
X8722443Y16787997D01*
X8722476Y16675235D01*
X8722493Y16551309D01*
X8722499Y16415673D01*
X8722500Y16296825D01*
X8722498Y16151281D01*
X8722489Y16017891D01*
X8722468Y15896107D01*
X8722429Y15785383D01*
X8722365Y15685174D01*
X8722272Y15594931D01*
X8722144Y15514110D01*
X8721975Y15442162D01*
X8721760Y15378542D01*
X8721493Y15322703D01*
X8721168Y15274099D01*
X8720779Y15232183D01*
X8720322Y15196407D01*
X8719790Y15166227D01*
X8719178Y15141095D01*
X8718480Y15120465D01*
X8717691Y15103790D01*
X8716805Y15090524D01*
X8715815Y15080120D01*
X8714718Y15072031D01*
X8713506Y15065712D01*
X8712175Y15060614D01*
X8710719Y15056193D01*
X8709687Y15053383D01*
X8693081Y15021369D01*
X8670103Y14992922D01*
X8670000Y14992820D01*
X8661837Y14986622D01*
X8644914Y14975478D01*
X8619063Y14959291D01*
X8584116Y14937961D01*
X8539905Y14911390D01*
X8486264Y14879479D01*
X8423024Y14842131D01*
X8350017Y14799246D01*
X8267077Y14750725D01*
X8174035Y14696471D01*
X8070724Y14636384D01*
X7956976Y14570367D01*
X7832624Y14498320D01*
X7697499Y14420144D01*
X7614425Y14372129D01*
X7508554Y14310986D01*
X7405430Y14251485D01*
X7305607Y14193942D01*
X7209640Y14138677D01*
X7118085Y14086007D01*
X7031496Y14036249D01*
X6950428Y13989723D01*
X6875437Y13946744D01*
X6807076Y13907632D01*
X6745903Y13872705D01*
X6692471Y13842279D01*
X6647335Y13816674D01*
X6611051Y13796207D01*
X6584173Y13781195D01*
X6567257Y13771957D01*
X6561114Y13768878D01*
X6523964Y13760923D01*
X6482958Y13760917D01*
X6443817Y13768593D01*
X6426975Y13775115D01*
X6414773Y13781466D01*
X6392535Y13793688D01*
X6360920Y13811398D01*
X6320591Y13834211D01*
X6272208Y13861745D01*
X6216434Y13893614D01*
X6153929Y13929435D01*
X6085356Y13968825D01*
X6011375Y14011399D01*
X5932647Y14056773D01*
X5849835Y14104564D01*
X5763600Y14154388D01*
X5674604Y14205861D01*
X5583506Y14258598D01*
X5490970Y14312217D01*
X5397656Y14366332D01*
X5304226Y14420561D01*
X5211342Y14474520D01*
X5119664Y14527824D01*
X5029855Y14580090D01*
X4942574Y14630933D01*
X4858485Y14679971D01*
X4778249Y14726818D01*
X4702526Y14771092D01*
X4631979Y14812408D01*
X4567268Y14850383D01*
X4509056Y14884631D01*
X4458003Y14914771D01*
X4414771Y14940418D01*
X4380021Y14961187D01*
X4354416Y14976695D01*
X4338615Y14986559D01*
X4333454Y14990151D01*
X4316687Y15009919D01*
X4300997Y15034140D01*
X4295354Y15045194D01*
X4280675Y15077625D01*
X4280675Y16303175D01*
X4617751Y16303175D01*
X4617873Y16246098D01*
X4618314Y16199497D01*
X4619189Y16161152D01*
X4620610Y16128840D01*
X4622691Y16100339D01*
X4625545Y16073430D01*
X4629285Y16045889D01*
X4631690Y16030125D01*
X4662350Y15873914D01*
X4704463Y15723036D01*
X4757930Y15577698D01*
X4822656Y15438101D01*
X4898542Y15304450D01*
X4985491Y15176950D01*
X5083407Y15055804D01*
X5111366Y15024587D01*
X5219817Y14915323D01*
X5335921Y14816095D01*
X5459291Y14727107D01*
X5589543Y14648563D01*
X5726290Y14580668D01*
X5869147Y14523625D01*
X6017728Y14477639D01*
X6171648Y14442912D01*
X6230125Y14432919D01*
X6274429Y14426888D01*
X6311740Y14424338D01*
X6347009Y14425376D01*
X6385189Y14430111D01*
X6423800Y14437158D01*
X6523011Y14462738D01*
X6623789Y14499879D01*
X6725087Y14547709D01*
X6825858Y14605362D01*
X6925056Y14671968D01*
X7021634Y14746659D01*
X7114545Y14828565D01*
X7202744Y14916818D01*
X7285182Y15010550D01*
X7360813Y15108891D01*
X7428592Y15210972D01*
X7487470Y15315926D01*
X7491064Y15323024D01*
X7530027Y15409856D01*
X7565218Y15507051D01*
X7596313Y15612752D01*
X7622986Y15725100D01*
X7644912Y15842235D01*
X7661766Y15962300D01*
X7673224Y16083434D01*
X7678961Y16203779D01*
X7678651Y16321476D01*
X7675993Y16381019D01*
X7665636Y16505599D01*
X7650017Y16624252D01*
X7629412Y16735535D01*
X7604098Y16838008D01*
X7574351Y16930228D01*
X7566996Y16949619D01*
X7556814Y16977039D01*
X7549174Y17000321D01*
X7544869Y17016847D01*
X7544509Y17023795D01*
X7554401Y17030155D01*
X7568723Y17025983D01*
X7586634Y17012303D01*
X7607290Y16990135D01*
X7629849Y16960501D01*
X7653470Y16924425D01*
X7677309Y16882928D01*
X7700525Y16837033D01*
X7703306Y16831113D01*
X7754225Y16708430D01*
X7796881Y16577494D01*
X7831073Y16439865D01*
X7856598Y16297103D01*
X7873256Y16150769D01*
X7880846Y16002422D01*
X7879165Y15853622D01*
X7868012Y15705931D01*
X7858401Y15630075D01*
X7831769Y15484982D01*
X7794830Y15347064D01*
X7747293Y15215689D01*
X7688867Y15090223D01*
X7619263Y14970035D01*
X7538188Y14854491D01*
X7456444Y14755385D01*
X7400347Y14698547D01*
X7333684Y14642464D01*
X7258551Y14588890D01*
X7253625Y14585667D01*
X7228104Y14568821D01*
X7206970Y14554424D01*
X7192232Y14543879D01*
X7185901Y14538589D01*
X7185800Y14538349D01*
X7191183Y14538827D01*
X7206164Y14544219D01*
X7228990Y14553744D01*
X7257911Y14566617D01*
X7291174Y14582057D01*
X7327026Y14599280D01*
X7363715Y14617504D01*
X7369495Y14620434D01*
X7426726Y14651402D01*
X7486396Y14687078D01*
X7546937Y14726272D01*
X7606785Y14767795D01*
X7664374Y14810455D01*
X7718137Y14853061D01*
X7766510Y14894425D01*
X7807926Y14933354D01*
X7840820Y14968659D01*
X7859713Y14993149D01*
X7896505Y15052857D01*
X7933209Y15122954D01*
X7968975Y15201153D01*
X8002952Y15285164D01*
X8034290Y15372700D01*
X8062137Y15461474D01*
X8085644Y15549196D01*
X8103960Y15633579D01*
X8109513Y15665089D01*
X8116189Y15715726D01*
X8121505Y15776241D01*
X8125361Y15843877D01*
X8127655Y15915874D01*
X8128289Y15989475D01*
X8127161Y16061921D01*
X8125502Y16105724D01*
X8114209Y16267878D01*
X8096281Y16419204D01*
X8071718Y16559702D01*
X8040520Y16689373D01*
X8002687Y16808218D01*
X7958218Y16916237D01*
X7907113Y17013431D01*
X7849371Y17099801D01*
X7823602Y17132297D01*
X7806336Y17153622D01*
X7792673Y17171683D01*
X7784378Y17184079D01*
X7782700Y17187969D01*
X7787110Y17196313D01*
X7799661Y17196366D01*
X7819328Y17188628D01*
X7845089Y17173601D01*
X7875919Y17151788D01*
X7906630Y17127209D01*
X7969090Y17067119D01*
X8027238Y16995752D01*
X8080823Y16913861D01*
X8129593Y16822203D01*
X8173299Y16721532D01*
X8211687Y16612605D01*
X8244509Y16496175D01*
X8271512Y16372999D01*
X8292446Y16243830D01*
X8307060Y16109426D01*
X8315102Y15970540D01*
X8316627Y15893600D01*
X8316942Y15854015D01*
X8317385Y15825860D01*
X8318103Y15807868D01*
X8319243Y15798768D01*
X8320950Y15797292D01*
X8323373Y15802171D01*
X8326205Y15810692D01*
X8343460Y15875055D01*
X8358307Y15949421D01*
X8370429Y16031270D01*
X8379508Y16118080D01*
X8385228Y16207327D01*
X8387272Y16296490D01*
X8387272Y16296825D01*
X8384843Y16410549D01*
X8377024Y16516341D01*
X8363357Y16617975D01*
X8343387Y16719220D01*
X8329065Y16777989D01*
X8284661Y16924417D01*
X8229045Y17065472D01*
X8162732Y17200649D01*
X8086240Y17329443D01*
X8000086Y17451346D01*
X7904788Y17565852D01*
X7800863Y17672457D01*
X7688828Y17770654D01*
X7569201Y17859936D01*
X7442498Y17939799D01*
X7309237Y18009735D01*
X7169935Y18069240D01*
X7025109Y18117806D01*
X6934975Y18141678D01*
X6867375Y18156848D01*
X6804860Y18168574D01*
X6744103Y18177223D01*
X6681777Y18183166D01*
X6614554Y18186772D01*
X6539109Y18188410D01*
X6512700Y18188579D01*
X6445859Y18188423D01*
X6388682Y18187285D01*
X6338152Y18184896D01*
X6291255Y18180990D01*
X6244974Y18175298D01*
X6196292Y18167552D01*
X6142195Y18157483D01*
X6125350Y18154147D01*
X5977395Y18118209D01*
X5834202Y18070800D01*
X5696291Y18012420D01*
X5564183Y17943567D01*
X5438397Y17864742D01*
X5319453Y17776444D01*
X5207872Y17679173D01*
X5104174Y17573428D01*
X5008878Y17459709D01*
X4922506Y17338516D01*
X4845576Y17210347D01*
X4778609Y17075702D01*
X4722126Y16935082D01*
X4676646Y16788985D01*
X4667639Y16754025D01*
X4653389Y16694173D01*
X4642034Y16640414D01*
X4633271Y16590016D01*
X4626797Y16540249D01*
X4622311Y16488381D01*
X4619511Y16431680D01*
X4618094Y16367414D01*
X4617751Y16303175D01*
X4280675Y16303175D01*
X4280675Y17516025D01*
X4295354Y17548457D01*
G36*
X7401534Y17632862D02*
G01*
X7542426Y17622599D01*
X7674610Y17606797D01*
X7719268Y17599800D01*
X7747862Y17594151D01*
X7765589Y17587286D01*
X7773413Y17577075D01*
X7772300Y17561387D01*
X7763216Y17538092D01*
X7755008Y17520932D01*
X7723469Y17463507D01*
X7685439Y17405257D01*
X7642816Y17348462D01*
X7597501Y17295401D01*
X7551394Y17248356D01*
X7506393Y17209604D01*
X7479824Y17190705D01*
X7436837Y17167904D01*
X7382922Y17147602D01*
X7319699Y17130350D01*
X7274700Y17121090D01*
X7237773Y17115886D01*
X7194223Y17112183D01*
X7146797Y17109979D01*
X7098243Y17109270D01*
X7051308Y17110056D01*
X7008739Y17112333D01*
X6973286Y17116100D01*
X6947694Y17121354D01*
X6947675Y17121360D01*
X6918423Y17132617D01*
X6896333Y17145883D01*
X6883457Y17159716D01*
X6881000Y17168154D01*
X6885091Y17176958D01*
X6895793Y17191531D01*
X6910092Y17207947D01*
X6940869Y17234501D01*
X6982162Y17260474D01*
X7031795Y17284852D01*
X7087594Y17306621D01*
X7147381Y17324766D01*
X7175111Y17331503D01*
X7196954Y17335601D01*
X7222665Y17339276D01*
X7248639Y17342160D01*
X7271276Y17343884D01*
X7286975Y17344079D01*
X7291351Y17343399D01*
X7298925Y17334800D01*
X7297924Y17320593D01*
X7290809Y17307446D01*
X7284900Y17292270D01*
X7290237Y17279840D01*
X7297759Y17275284D01*
X7310782Y17276230D01*
X7333124Y17285304D01*
X7364479Y17302349D01*
X7404542Y17327207D01*
X7425532Y17341035D01*
X7465057Y17369079D01*
X7493052Y17392786D01*
X7509764Y17412570D01*
X7515441Y17428847D01*
X7510330Y17442028D01*
X7494681Y17452529D01*
X7492752Y17453362D01*
X7466426Y17462661D01*
X7435648Y17470094D01*
X7398748Y17475872D01*
X7354059Y17480206D01*
X7299912Y17483306D01*
X7239775Y17485261D01*
X7166493Y17486242D01*
X7103764Y17485071D01*
X7049552Y17481285D01*
X7001823Y17474422D01*
X6958542Y17464020D01*
X6917674Y17449616D01*
X6877184Y17430749D01*
X6835039Y17406957D01*
X6801177Y17385640D01*
X6740044Y17346977D01*
X6688111Y17316562D01*
X6645059Y17294238D01*
X6610568Y17279846D01*
X6584319Y17273228D01*
X6573414Y17272834D01*
X6554204Y17276877D01*
X6546070Y17285804D01*
X6548867Y17300294D01*
X6562451Y17321024D01*
X6562972Y17321685D01*
X6577162Y17342200D01*
X6591681Y17367157D01*
X6598314Y17380353D01*
X6609486Y17406734D01*
X6613957Y17425707D01*
X6610643Y17438280D01*
X6598461Y17445459D01*
X6576326Y17448253D01*
X6543155Y17447667D01*
X6526888Y17446734D01*
X6470568Y17442410D01*
X6407604Y17436302D01*
X6340344Y17428737D01*
X6271136Y17420043D01*
X6202328Y17410546D01*
X6136268Y17400574D01*
X6075305Y17390454D01*
X6021786Y17380515D01*
X5978059Y17371082D01*
X5969831Y17369069D01*
X5891855Y17346597D01*
X5819571Y17319433D01*
X5751340Y17286529D01*
X5685525Y17246832D01*
X5620488Y17199294D01*
X5554592Y17142864D01*
X5486198Y17076492D01*
X5443228Y17031402D01*
X5399145Y16984804D01*
X5360581Y16946097D01*
X5325177Y16913214D01*
X5290571Y16884086D01*
X5254403Y16856645D01*
X5214313Y16828823D01*
X5204600Y16822359D01*
X5147345Y16783857D01*
X5099133Y16749742D01*
X5057937Y16718181D01*
X5021728Y16687340D01*
X4988475Y16655386D01*
X4956151Y16620487D01*
X4922727Y16580809D01*
X4886508Y16534950D01*
X4855608Y16494295D01*
X4832333Y16462039D01*
X4815928Y16437041D01*
X4805637Y16418159D01*
X4801052Y16405750D01*
X4799676Y16394967D01*
X4803166Y16390087D01*
X4812689Y16391452D01*
X4829411Y16399401D01*
X4854500Y16414274D01*
X4875034Y16427293D01*
X4902459Y16444498D01*
X4929052Y16460431D01*
X4951198Y16472963D01*
X4962091Y16478558D01*
X4989457Y16491430D01*
X5010874Y16475094D01*
X5027912Y16459897D01*
X5035588Y16445536D01*
X5034174Y16428953D01*
X5023944Y16407087D01*
X5017878Y16396880D01*
X4992621Y16345308D01*
X4979894Y16293497D01*
X4979726Y16241887D01*
X4992149Y16190917D01*
X5001779Y16168464D01*
X5026267Y16129146D01*
X5056605Y16100457D01*
X5093614Y16081962D01*
X5138116Y16073226D01*
X5181762Y16073103D01*
X5240562Y16082141D01*
X5302159Y16101873D01*
X5367086Y16132551D01*
X5435878Y16174427D01*
X5509068Y16227754D01*
X5509103Y16227782D01*
X5562534Y16267923D01*
X5609482Y16299462D01*
X5651674Y16323487D01*
X5686652Y16339440D01*
X5713358Y16347068D01*
X5746671Y16352148D01*
X5783068Y16354620D01*
X5819027Y16354422D01*
X5851024Y16351495D01*
X5875537Y16345778D01*
X5882261Y16342804D01*
X5900550Y16329365D01*
X5924291Y16306672D01*
X5952287Y16276288D01*
X5983341Y16239779D01*
X6016255Y16198711D01*
X6049832Y16154647D01*
X6082875Y16109153D01*
X6114187Y16063795D01*
X6142570Y16020137D01*
X6166826Y15979744D01*
X6183096Y15949564D01*
X6206701Y15896200D01*
X6220763Y15848200D01*
X6225851Y15803247D01*
X6225054Y15779250D01*
X6218733Y15734241D01*
X6207129Y15696031D01*
X6189010Y15663241D01*
X6163145Y15634488D01*
X6128302Y15608392D01*
X6083251Y15583571D01*
X6029363Y15559705D01*
X5989523Y15543224D01*
X5959146Y15529972D01*
X5935848Y15518605D01*
X5917246Y15507779D01*
X5900954Y15496150D01*
X5884588Y15482374D01*
X5872272Y15471160D01*
X5842182Y15440204D01*
X5822445Y15411576D01*
X5811779Y15382503D01*
X5808906Y15350213D01*
X5809675Y15335507D01*
X5818987Y15281668D01*
X5837257Y15236673D01*
X5864662Y15200190D01*
X5895650Y15175383D01*
X5924113Y15162275D01*
X5954035Y15156681D01*
X5981160Y15159130D01*
X5992108Y15163408D01*
X6000428Y15171093D01*
X6013709Y15186950D01*
X6029981Y15208513D01*
X6044022Y15228496D01*
X6064706Y15256424D01*
X6091824Y15289476D01*
X6122434Y15324211D01*
X6153594Y15357187D01*
X6157044Y15360674D01*
X6197860Y15399976D01*
X6238672Y15435337D01*
X6281083Y15467709D01*
X6326697Y15498045D01*
X6377117Y15527298D01*
X6433947Y15556421D01*
X6498790Y15586366D01*
X6573251Y15618087D01*
X6627000Y15639882D01*
X6669773Y15657285D01*
X6712849Y15675391D01*
X6753303Y15692929D01*
X6788215Y15708630D01*
X6814662Y15721222D01*
X6817856Y15722835D01*
X6864281Y15748879D01*
X6908693Y15778952D01*
X6952339Y15814247D01*
X6996468Y15855955D01*
X7042328Y15905271D01*
X7091168Y15963386D01*
X7144235Y16031492D01*
X7152773Y16042825D01*
X7199594Y16108999D01*
X7236882Y16170845D01*
X7265713Y16231017D01*
X7287163Y16292166D01*
X7302310Y16356948D01*
X7312228Y16428014D01*
X7313240Y16438391D01*
X7315981Y16500258D01*
X7313926Y16570157D01*
X7307481Y16644533D01*
X7297050Y16719830D01*
X7283038Y16792494D01*
X7265850Y16858971D01*
X7265037Y16861667D01*
X7259775Y16880793D01*
X7258833Y16892061D01*
X7262229Y16899562D01*
X7265212Y16902835D01*
X7275445Y16908491D01*
X7286710Y16904733D01*
X7300124Y16890742D01*
X7316804Y16865701D01*
X7317549Y16864467D01*
X7356539Y16788803D01*
X7388213Y16704339D01*
X7412364Y16612803D01*
X7428781Y16515920D01*
X7437256Y16415416D01*
X7437579Y16313020D01*
X7429543Y16210456D01*
X7412938Y16109451D01*
X7410365Y16097542D01*
X7392195Y16025488D01*
X7369829Y15955860D01*
X7341879Y15884810D01*
X7306955Y15808488D01*
X7303568Y15801525D01*
X7277355Y15751077D01*
X7246684Y15697362D01*
X7212942Y15642426D01*
X7177518Y15588313D01*
X7141803Y15537069D01*
X7107183Y15490737D01*
X7075049Y15451363D01*
X7046789Y15420991D01*
X7041981Y15416416D01*
X7023875Y15399606D01*
X6963550Y15415835D01*
X6936671Y15422567D01*
X6912409Y15427208D01*
X6887164Y15430145D01*
X6857336Y15431764D01*
X6819326Y15432450D01*
X6807975Y15432522D01*
X6760806Y15432197D01*
X6721987Y15430304D01*
X6687201Y15426226D01*
X6652134Y15419347D01*
X6612470Y15409053D01*
X6582550Y15400348D01*
X6544112Y15387619D01*
X6500917Y15371248D01*
X6456158Y15352635D01*
X6413029Y15333180D01*
X6374722Y15314282D01*
X6344433Y15297342D01*
X6337640Y15293018D01*
X6282900Y15249679D01*
X6232611Y15195710D01*
X6187829Y15132718D01*
X6149609Y15062311D01*
X6119006Y14986098D01*
X6104798Y14938468D01*
X6096309Y14907933D01*
X6089206Y14887931D01*
X6082514Y14876519D01*
X6075261Y14871751D01*
X6071147Y14871250D01*
X6062857Y14874826D01*
X6047005Y14884474D01*
X6026135Y14898575D01*
X6010012Y14910149D01*
X5944654Y14963641D01*
X5881339Y15025852D01*
X5822492Y15093928D01*
X5770540Y15165013D01*
X5727909Y15236252D01*
X5720288Y15251125D01*
X5705742Y15281817D01*
X5696468Y15305661D01*
X5691205Y15326700D01*
X5688686Y15348974D01*
X5688454Y15352909D01*
X5687985Y15378631D01*
X5690792Y15398248D01*
X5698228Y15418212D01*
X5705111Y15432327D01*
X5724030Y15469528D01*
X5698802Y15516300D01*
X5683340Y15548670D01*
X5676704Y15572237D01*
X5678860Y15587299D01*
X5689667Y15594133D01*
X5700328Y15592496D01*
X5719186Y15586227D01*
X5743112Y15576447D01*
X5758168Y15569566D01*
X5782311Y15558425D01*
X5801807Y15550054D01*
X5814096Y15545517D01*
X5816996Y15545118D01*
X5814438Y15550869D01*
X5805683Y15564420D01*
X5792257Y15583491D01*
X5781887Y15597580D01*
X5759985Y15628516D01*
X5741264Y15658106D01*
X5726784Y15684368D01*
X5717602Y15705321D01*
X5714776Y15718983D01*
X5715568Y15721816D01*
X5720328Y15726609D01*
X5727536Y15727171D01*
X5738906Y15722724D01*
X5756155Y15712489D01*
X5781000Y15695686D01*
X5795385Y15685584D01*
X5824109Y15665890D01*
X5853640Y15646664D01*
X5879897Y15630513D01*
X5894250Y15622377D01*
X5932555Y15601979D01*
X5965243Y15623993D01*
X6012906Y15662157D01*
X6049084Y15705099D01*
X6074238Y15753691D01*
X6088824Y15808806D01*
X6093310Y15868200D01*
X6087258Y15922893D01*
X6069920Y15977827D01*
X6042601Y16031562D01*
X6006603Y16082657D01*
X5963229Y16129673D01*
X5913784Y16171168D01*
X5859569Y16205702D01*
X5801889Y16231835D01*
X5751196Y16246348D01*
X5713634Y16251274D01*
X5676405Y16249674D01*
X5637507Y16240997D01*
X5594938Y16224692D01*
X5546696Y16200210D01*
X5513665Y16181047D01*
X5494005Y16168666D01*
X5483372Y16159784D01*
X5479619Y16151868D01*
X5480600Y16142380D01*
X5480672Y16142076D01*
X5490303Y16114005D01*
X5507171Y16078242D01*
X5530248Y16036739D01*
X5558505Y15991447D01*
X5566050Y15980070D01*
X5586790Y15949034D01*
X5601219Y15926733D01*
X5610122Y15911369D01*
X5614282Y15901141D01*
X5614482Y15894252D01*
X5611505Y15888902D01*
X5607565Y15884724D01*
X5597686Y15878816D01*
X5583060Y15877481D01*
X5561866Y15880967D01*
X5532283Y15889518D01*
X5506225Y15898432D01*
X5445771Y15923024D01*
X5385363Y15954208D01*
X5337315Y15983346D01*
X5315415Y15997040D01*
X5297506Y16007624D01*
X5286283Y16013533D01*
X5284102Y16014250D01*
X5280487Y16008825D01*
X5281206Y15994260D01*
X5285667Y15973119D01*
X5293276Y15947968D01*
X5303443Y15921372D01*
X5307872Y15911377D01*
X5319095Y15885736D01*
X5324614Y15869120D01*
X5324978Y15859495D01*
X5322754Y15856064D01*
X5312771Y15855623D01*
X5294664Y15862855D01*
X5269779Y15876971D01*
X5239459Y15897182D01*
X5205050Y15922699D01*
X5192668Y15932435D01*
X5170493Y15949848D01*
X5154670Y15960785D01*
X5141673Y15966752D01*
X5127975Y15969253D01*
X5110051Y15969795D01*
X5105152Y15969800D01*
X5074913Y15971481D01*
X5048859Y15977503D01*
X5023243Y15989339D01*
X4994316Y16008462D01*
X4980727Y16018674D01*
X4922397Y16067093D01*
X4869697Y16117882D01*
X4823682Y16169675D01*
X4785409Y16221105D01*
X4755933Y16270806D01*
X4736313Y16317411D01*
X4729688Y16343436D01*
X4726218Y16372272D01*
X4727808Y16398024D01*
X4735386Y16423499D01*
X4749883Y16451503D01*
X4772226Y16484843D01*
X4779988Y16495480D01*
X4849816Y16586197D01*
X4916498Y16665032D01*
X4980354Y16732320D01*
X5041707Y16788399D01*
X5100878Y16833603D01*
X5109894Y16839670D01*
X5139337Y16860184D01*
X5169525Y16882991D01*
X5195969Y16904625D01*
X5207775Y16915225D01*
X5231551Y16937199D01*
X5257413Y16960276D01*
X5279799Y16979497D01*
X5279997Y16979660D01*
X5297053Y16995475D01*
X5319236Y17018388D01*
X5343844Y17045496D01*
X5368175Y17073897D01*
X5371458Y17077875D01*
X5443374Y17160098D01*
X5514634Y17230516D01*
X5586181Y17289923D01*
X5658956Y17339113D01*
X5722125Y17373310D01*
X5762308Y17391352D01*
X5812002Y17411467D01*
X5868400Y17432642D01*
X5928694Y17453864D01*
X5990075Y17474121D01*
X6049735Y17492399D01*
X6062478Y17496091D01*
X6194238Y17530195D01*
X6334792Y17559856D01*
X6482195Y17584953D01*
X6634502Y17605364D01*
X6789769Y17620966D01*
X6946050Y17631639D01*
X7101401Y17637260D01*
X7253877Y17637709D01*
X7401534Y17632862D01*
G37*
X7401534Y17632862D02*
X7542426Y17622599D01*
X7674610Y17606797D01*
X7719268Y17599800D01*
X7747862Y17594151D01*
X7765589Y17587286D01*
X7773413Y17577075D01*
X7772300Y17561387D01*
X7763216Y17538092D01*
X7755008Y17520932D01*
X7723469Y17463507D01*
X7685439Y17405257D01*
X7642816Y17348462D01*
X7597501Y17295401D01*
X7551394Y17248356D01*
X7506393Y17209604D01*
X7479824Y17190705D01*
X7436837Y17167904D01*
X7382922Y17147602D01*
X7319699Y17130350D01*
X7274700Y17121090D01*
X7237773Y17115886D01*
X7194223Y17112183D01*
X7146797Y17109979D01*
X7098243Y17109270D01*
X7051308Y17110056D01*
X7008739Y17112333D01*
X6973286Y17116100D01*
X6947694Y17121354D01*
X6947675Y17121360D01*
X6918423Y17132617D01*
X6896333Y17145883D01*
X6883457Y17159716D01*
X6881000Y17168154D01*
X6885091Y17176958D01*
X6895793Y17191531D01*
X6910092Y17207947D01*
X6940869Y17234501D01*
X6982162Y17260474D01*
X7031795Y17284852D01*
X7087594Y17306621D01*
X7147381Y17324766D01*
X7175111Y17331503D01*
X7196954Y17335601D01*
X7222665Y17339276D01*
X7248639Y17342160D01*
X7271276Y17343884D01*
X7286975Y17344079D01*
X7291351Y17343399D01*
X7298925Y17334800D01*
X7297924Y17320593D01*
X7290809Y17307446D01*
X7284900Y17292270D01*
X7290237Y17279840D01*
X7297759Y17275284D01*
X7310782Y17276230D01*
X7333124Y17285304D01*
X7364479Y17302349D01*
X7404542Y17327207D01*
X7425532Y17341035D01*
X7465057Y17369079D01*
X7493052Y17392786D01*
X7509764Y17412570D01*
X7515441Y17428847D01*
X7510330Y17442028D01*
X7494681Y17452529D01*
X7492752Y17453362D01*
X7466426Y17462661D01*
X7435648Y17470094D01*
X7398748Y17475872D01*
X7354059Y17480206D01*
X7299912Y17483306D01*
X7239775Y17485261D01*
X7166493Y17486242D01*
X7103764Y17485071D01*
X7049552Y17481285D01*
X7001823Y17474422D01*
X6958542Y17464020D01*
X6917674Y17449616D01*
X6877184Y17430749D01*
X6835039Y17406957D01*
X6801177Y17385640D01*
X6740044Y17346977D01*
X6688111Y17316562D01*
X6645059Y17294238D01*
X6610568Y17279846D01*
X6584319Y17273228D01*
X6573414Y17272834D01*
X6554204Y17276877D01*
X6546070Y17285804D01*
X6548867Y17300294D01*
X6562451Y17321024D01*
X6562972Y17321685D01*
X6577162Y17342200D01*
X6591681Y17367157D01*
X6598314Y17380353D01*
X6609486Y17406734D01*
X6613957Y17425707D01*
X6610643Y17438280D01*
X6598461Y17445459D01*
X6576326Y17448253D01*
X6543155Y17447667D01*
X6526888Y17446734D01*
X6470568Y17442410D01*
X6407604Y17436302D01*
X6340344Y17428737D01*
X6271136Y17420043D01*
X6202328Y17410546D01*
X6136268Y17400574D01*
X6075305Y17390454D01*
X6021786Y17380515D01*
X5978059Y17371082D01*
X5969831Y17369069D01*
X5891855Y17346597D01*
X5819571Y17319433D01*
X5751340Y17286529D01*
X5685525Y17246832D01*
X5620488Y17199294D01*
X5554592Y17142864D01*
X5486198Y17076492D01*
X5443228Y17031402D01*
X5399145Y16984804D01*
X5360581Y16946097D01*
X5325177Y16913214D01*
X5290571Y16884086D01*
X5254403Y16856645D01*
X5214313Y16828823D01*
X5204600Y16822359D01*
X5147345Y16783857D01*
X5099133Y16749742D01*
X5057937Y16718181D01*
X5021728Y16687340D01*
X4988475Y16655386D01*
X4956151Y16620487D01*
X4922727Y16580809D01*
X4886508Y16534950D01*
X4855608Y16494295D01*
X4832333Y16462039D01*
X4815928Y16437041D01*
X4805637Y16418159D01*
X4801052Y16405750D01*
X4799676Y16394967D01*
X4803166Y16390087D01*
X4812689Y16391452D01*
X4829411Y16399401D01*
X4854500Y16414274D01*
X4875034Y16427293D01*
X4902459Y16444498D01*
X4929052Y16460431D01*
X4951198Y16472963D01*
X4962091Y16478558D01*
X4989457Y16491430D01*
X5010874Y16475094D01*
X5027912Y16459897D01*
X5035588Y16445536D01*
X5034174Y16428953D01*
X5023944Y16407087D01*
X5017878Y16396880D01*
X4992621Y16345308D01*
X4979894Y16293497D01*
X4979726Y16241887D01*
X4992149Y16190917D01*
X5001779Y16168464D01*
X5026267Y16129146D01*
X5056605Y16100457D01*
X5093614Y16081962D01*
X5138116Y16073226D01*
X5181762Y16073103D01*
X5240562Y16082141D01*
X5302159Y16101873D01*
X5367086Y16132551D01*
X5435878Y16174427D01*
X5509068Y16227754D01*
X5509103Y16227782D01*
X5562534Y16267923D01*
X5609482Y16299462D01*
X5651674Y16323487D01*
X5686652Y16339440D01*
X5713358Y16347068D01*
X5746671Y16352148D01*
X5783068Y16354620D01*
X5819027Y16354422D01*
X5851024Y16351495D01*
X5875537Y16345778D01*
X5882261Y16342804D01*
X5900550Y16329365D01*
X5924291Y16306672D01*
X5952287Y16276288D01*
X5983341Y16239779D01*
X6016255Y16198711D01*
X6049832Y16154647D01*
X6082875Y16109153D01*
X6114187Y16063795D01*
X6142570Y16020137D01*
X6166826Y15979744D01*
X6183096Y15949564D01*
X6206701Y15896200D01*
X6220763Y15848200D01*
X6225851Y15803247D01*
X6225054Y15779250D01*
X6218733Y15734241D01*
X6207129Y15696031D01*
X6189010Y15663241D01*
X6163145Y15634488D01*
X6128302Y15608392D01*
X6083251Y15583571D01*
X6029363Y15559705D01*
X5989523Y15543224D01*
X5959146Y15529972D01*
X5935848Y15518605D01*
X5917246Y15507779D01*
X5900954Y15496150D01*
X5884588Y15482374D01*
X5872272Y15471160D01*
X5842182Y15440204D01*
X5822445Y15411576D01*
X5811779Y15382503D01*
X5808906Y15350213D01*
X5809675Y15335507D01*
X5818987Y15281668D01*
X5837257Y15236673D01*
X5864662Y15200190D01*
X5895650Y15175383D01*
X5924113Y15162275D01*
X5954035Y15156681D01*
X5981160Y15159130D01*
X5992108Y15163408D01*
X6000428Y15171093D01*
X6013709Y15186950D01*
X6029981Y15208513D01*
X6044022Y15228496D01*
X6064706Y15256424D01*
X6091824Y15289476D01*
X6122434Y15324211D01*
X6153594Y15357187D01*
X6157044Y15360674D01*
X6197860Y15399976D01*
X6238672Y15435337D01*
X6281083Y15467709D01*
X6326697Y15498045D01*
X6377117Y15527298D01*
X6433947Y15556421D01*
X6498790Y15586366D01*
X6573251Y15618087D01*
X6627000Y15639882D01*
X6669773Y15657285D01*
X6712849Y15675391D01*
X6753303Y15692929D01*
X6788215Y15708630D01*
X6814662Y15721222D01*
X6817856Y15722835D01*
X6864281Y15748879D01*
X6908693Y15778952D01*
X6952339Y15814247D01*
X6996468Y15855955D01*
X7042328Y15905271D01*
X7091168Y15963386D01*
X7144235Y16031492D01*
X7152773Y16042825D01*
X7199594Y16108999D01*
X7236882Y16170845D01*
X7265713Y16231017D01*
X7287163Y16292166D01*
X7302310Y16356948D01*
X7312228Y16428014D01*
X7313240Y16438391D01*
X7315981Y16500258D01*
X7313926Y16570157D01*
X7307481Y16644533D01*
X7297050Y16719830D01*
X7283038Y16792494D01*
X7265850Y16858971D01*
X7265037Y16861667D01*
X7259775Y16880793D01*
X7258833Y16892061D01*
X7262229Y16899562D01*
X7265212Y16902835D01*
X7275445Y16908491D01*
X7286710Y16904733D01*
X7300124Y16890742D01*
X7316804Y16865701D01*
X7317549Y16864467D01*
X7356539Y16788803D01*
X7388213Y16704339D01*
X7412364Y16612803D01*
X7428781Y16515920D01*
X7437256Y16415416D01*
X7437579Y16313020D01*
X7429543Y16210456D01*
X7412938Y16109451D01*
X7410365Y16097542D01*
X7392195Y16025488D01*
X7369829Y15955860D01*
X7341879Y15884810D01*
X7306955Y15808488D01*
X7303568Y15801525D01*
X7277355Y15751077D01*
X7246684Y15697362D01*
X7212942Y15642426D01*
X7177518Y15588313D01*
X7141803Y15537069D01*
X7107183Y15490737D01*
X7075049Y15451363D01*
X7046789Y15420991D01*
X7041981Y15416416D01*
X7023875Y15399606D01*
X6963550Y15415835D01*
X6936671Y15422567D01*
X6912409Y15427208D01*
X6887164Y15430145D01*
X6857336Y15431764D01*
X6819326Y15432450D01*
X6807975Y15432522D01*
X6760806Y15432197D01*
X6721987Y15430304D01*
X6687201Y15426226D01*
X6652134Y15419347D01*
X6612470Y15409053D01*
X6582550Y15400348D01*
X6544112Y15387619D01*
X6500917Y15371248D01*
X6456158Y15352635D01*
X6413029Y15333180D01*
X6374722Y15314282D01*
X6344433Y15297342D01*
X6337640Y15293018D01*
X6282900Y15249679D01*
X6232611Y15195710D01*
X6187829Y15132718D01*
X6149609Y15062311D01*
X6119006Y14986098D01*
X6104798Y14938468D01*
X6096309Y14907933D01*
X6089206Y14887931D01*
X6082514Y14876519D01*
X6075261Y14871751D01*
X6071147Y14871250D01*
X6062857Y14874826D01*
X6047005Y14884474D01*
X6026135Y14898575D01*
X6010012Y14910149D01*
X5944654Y14963641D01*
X5881339Y15025852D01*
X5822492Y15093928D01*
X5770540Y15165013D01*
X5727909Y15236252D01*
X5720288Y15251125D01*
X5705742Y15281817D01*
X5696468Y15305661D01*
X5691205Y15326700D01*
X5688686Y15348974D01*
X5688454Y15352909D01*
X5687985Y15378631D01*
X5690792Y15398248D01*
X5698228Y15418212D01*
X5705111Y15432327D01*
X5724030Y15469528D01*
X5698802Y15516300D01*
X5683340Y15548670D01*
X5676704Y15572237D01*
X5678860Y15587299D01*
X5689667Y15594133D01*
X5700328Y15592496D01*
X5719186Y15586227D01*
X5743112Y15576447D01*
X5758168Y15569566D01*
X5782311Y15558425D01*
X5801807Y15550054D01*
X5814096Y15545517D01*
X5816996Y15545118D01*
X5814438Y15550869D01*
X5805683Y15564420D01*
X5792257Y15583491D01*
X5781887Y15597580D01*
X5759985Y15628516D01*
X5741264Y15658106D01*
X5726784Y15684368D01*
X5717602Y15705321D01*
X5714776Y15718983D01*
X5715568Y15721816D01*
X5720328Y15726609D01*
X5727536Y15727171D01*
X5738906Y15722724D01*
X5756155Y15712489D01*
X5781000Y15695686D01*
X5795385Y15685584D01*
X5824109Y15665890D01*
X5853640Y15646664D01*
X5879897Y15630513D01*
X5894250Y15622377D01*
X5932555Y15601979D01*
X5965243Y15623993D01*
X6012906Y15662157D01*
X6049084Y15705099D01*
X6074238Y15753691D01*
X6088824Y15808806D01*
X6093310Y15868200D01*
X6087258Y15922893D01*
X6069920Y15977827D01*
X6042601Y16031562D01*
X6006603Y16082657D01*
X5963229Y16129673D01*
X5913784Y16171168D01*
X5859569Y16205702D01*
X5801889Y16231835D01*
X5751196Y16246348D01*
X5713634Y16251274D01*
X5676405Y16249674D01*
X5637507Y16240997D01*
X5594938Y16224692D01*
X5546696Y16200210D01*
X5513665Y16181047D01*
X5494005Y16168666D01*
X5483372Y16159784D01*
X5479619Y16151868D01*
X5480600Y16142380D01*
X5480672Y16142076D01*
X5490303Y16114005D01*
X5507171Y16078242D01*
X5530248Y16036739D01*
X5558505Y15991447D01*
X5566050Y15980070D01*
X5586790Y15949034D01*
X5601219Y15926733D01*
X5610122Y15911369D01*
X5614282Y15901141D01*
X5614482Y15894252D01*
X5611505Y15888902D01*
X5607565Y15884724D01*
X5597686Y15878816D01*
X5583060Y15877481D01*
X5561866Y15880967D01*
X5532283Y15889518D01*
X5506225Y15898432D01*
X5445771Y15923024D01*
X5385363Y15954208D01*
X5337315Y15983346D01*
X5315415Y15997040D01*
X5297506Y16007624D01*
X5286283Y16013533D01*
X5284102Y16014250D01*
X5280487Y16008825D01*
X5281206Y15994260D01*
X5285667Y15973119D01*
X5293276Y15947968D01*
X5303443Y15921372D01*
X5307872Y15911377D01*
X5319095Y15885736D01*
X5324614Y15869120D01*
X5324978Y15859495D01*
X5322754Y15856064D01*
X5312771Y15855623D01*
X5294664Y15862855D01*
X5269779Y15876971D01*
X5239459Y15897182D01*
X5205050Y15922699D01*
X5192668Y15932435D01*
X5170493Y15949848D01*
X5154670Y15960785D01*
X5141673Y15966752D01*
X5127975Y15969253D01*
X5110051Y15969795D01*
X5105152Y15969800D01*
X5074913Y15971481D01*
X5048859Y15977503D01*
X5023243Y15989339D01*
X4994316Y16008462D01*
X4980727Y16018674D01*
X4922397Y16067093D01*
X4869697Y16117882D01*
X4823682Y16169675D01*
X4785409Y16221105D01*
X4755933Y16270806D01*
X4736313Y16317411D01*
X4729688Y16343436D01*
X4726218Y16372272D01*
X4727808Y16398024D01*
X4735386Y16423499D01*
X4749883Y16451503D01*
X4772226Y16484843D01*
X4779988Y16495480D01*
X4849816Y16586197D01*
X4916498Y16665032D01*
X4980354Y16732320D01*
X5041707Y16788399D01*
X5100878Y16833603D01*
X5109894Y16839670D01*
X5139337Y16860184D01*
X5169525Y16882991D01*
X5195969Y16904625D01*
X5207775Y16915225D01*
X5231551Y16937199D01*
X5257413Y16960276D01*
X5279799Y16979497D01*
X5279997Y16979660D01*
X5297053Y16995475D01*
X5319236Y17018388D01*
X5343844Y17045496D01*
X5368175Y17073897D01*
X5371458Y17077875D01*
X5443374Y17160098D01*
X5514634Y17230516D01*
X5586181Y17289923D01*
X5658956Y17339113D01*
X5722125Y17373310D01*
X5762308Y17391352D01*
X5812002Y17411467D01*
X5868400Y17432642D01*
X5928694Y17453864D01*
X5990075Y17474121D01*
X6049735Y17492399D01*
X6062478Y17496091D01*
X6194238Y17530195D01*
X6334792Y17559856D01*
X6482195Y17584953D01*
X6634502Y17605364D01*
X6789769Y17620966D01*
X6946050Y17631639D01*
X7101401Y17637260D01*
X7253877Y17637709D01*
X7401534Y17632862D01*
G36*
X5451779Y16709695D02*
G01*
X5468267Y16701781D01*
X5488631Y16690891D01*
X5509427Y16678906D01*
X5527210Y16667706D01*
X5534362Y16662637D01*
X5558067Y16640275D01*
X5581972Y16610498D01*
X5602952Y16577815D01*
X5617883Y16546737D01*
X5620911Y16537734D01*
X5626415Y16510689D01*
X5628942Y16481502D01*
X5628807Y16470228D01*
X5626875Y16436525D01*
X5618383Y16469736D01*
X5605320Y16504565D01*
X5584797Y16540980D01*
X5559948Y16574118D01*
X5536076Y16597440D01*
X5517672Y16610494D01*
X5494898Y16624521D01*
X5471061Y16637737D01*
X5449468Y16648357D01*
X5433425Y16654598D01*
X5428437Y16655520D01*
X5421059Y16659738D01*
X5420500Y16662154D01*
X5422790Y16672466D01*
X5428291Y16687232D01*
X5434946Y16701746D01*
X5440697Y16711302D01*
X5442612Y16712750D01*
X5451779Y16709695D01*
G37*
X5451779Y16709695D02*
X5468267Y16701781D01*
X5488631Y16690891D01*
X5509427Y16678906D01*
X5527210Y16667706D01*
X5534362Y16662637D01*
X5558067Y16640275D01*
X5581972Y16610498D01*
X5602952Y16577815D01*
X5617883Y16546737D01*
X5620911Y16537734D01*
X5626415Y16510689D01*
X5628942Y16481502D01*
X5628807Y16470228D01*
X5626875Y16436525D01*
X5618383Y16469736D01*
X5605320Y16504565D01*
X5584797Y16540980D01*
X5559948Y16574118D01*
X5536076Y16597440D01*
X5517672Y16610494D01*
X5494898Y16624521D01*
X5471061Y16637737D01*
X5449468Y16648357D01*
X5433425Y16654598D01*
X5428437Y16655520D01*
X5421059Y16659738D01*
X5420500Y16662154D01*
X5422790Y16672466D01*
X5428291Y16687232D01*
X5434946Y16701746D01*
X5440697Y16711302D01*
X5442612Y16712750D01*
X5451779Y16709695D01*
G36*
X6710243Y16962258D02*
G01*
X6707339Y16955000D01*
X6698709Y16940380D01*
X6683786Y16917270D01*
X6668934Y16894897D01*
X6645362Y16859040D01*
X6618407Y16817146D01*
X6591176Y16774091D01*
X6566776Y16734753D01*
X6563698Y16729713D01*
X6543193Y16696485D01*
X6527792Y16672776D01*
X6516303Y16657079D01*
X6507533Y16647884D01*
X6500289Y16643683D01*
X6495084Y16642900D01*
X6478742Y16641298D01*
X6452048Y16636785D01*
X6416900Y16629805D01*
X6375196Y16620800D01*
X6328833Y16610212D01*
X6279710Y16598486D01*
X6229725Y16586062D01*
X6180774Y16573384D01*
X6134756Y16560895D01*
X6096775Y16549992D01*
X6088535Y16548837D01*
X6090425Y16552847D01*
X6098337Y16558219D01*
X6115110Y16567881D01*
X6138247Y16580438D01*
X6163960Y16593841D01*
X6209948Y16615313D01*
X6262769Y16636622D01*
X6318303Y16656337D01*
X6372427Y16673025D01*
X6421018Y16685252D01*
X6434930Y16688026D01*
X6458746Y16692696D01*
X6474064Y16697612D01*
X6484883Y16705293D01*
X6495202Y16718256D01*
X6504120Y16731594D01*
X6532296Y16772122D01*
X6563861Y16813718D01*
X6596995Y16854276D01*
X6629876Y16891694D01*
X6660681Y16923867D01*
X6687591Y16948690D01*
X6701123Y16959190D01*
X6707983Y16963279D01*
X6710243Y16962258D01*
G37*
X6710243Y16962258D02*
X6707339Y16955000D01*
X6698709Y16940380D01*
X6683786Y16917270D01*
X6668934Y16894897D01*
X6645362Y16859040D01*
X6618407Y16817146D01*
X6591176Y16774091D01*
X6566776Y16734753D01*
X6563698Y16729713D01*
X6543193Y16696485D01*
X6527792Y16672776D01*
X6516303Y16657079D01*
X6507533Y16647884D01*
X6500289Y16643683D01*
X6495084Y16642900D01*
X6478742Y16641298D01*
X6452048Y16636785D01*
X6416900Y16629805D01*
X6375196Y16620800D01*
X6328833Y16610212D01*
X6279710Y16598486D01*
X6229725Y16586062D01*
X6180774Y16573384D01*
X6134756Y16560895D01*
X6096775Y16549992D01*
X6088535Y16548837D01*
X6090425Y16552847D01*
X6098337Y16558219D01*
X6115110Y16567881D01*
X6138247Y16580438D01*
X6163960Y16593841D01*
X6209948Y16615313D01*
X6262769Y16636622D01*
X6318303Y16656337D01*
X6372427Y16673025D01*
X6421018Y16685252D01*
X6434930Y16688026D01*
X6458746Y16692696D01*
X6474064Y16697612D01*
X6484883Y16705293D01*
X6495202Y16718256D01*
X6504120Y16731594D01*
X6532296Y16772122D01*
X6563861Y16813718D01*
X6596995Y16854276D01*
X6629876Y16891694D01*
X6660681Y16923867D01*
X6687591Y16948690D01*
X6701123Y16959190D01*
X6707983Y16963279D01*
X6710243Y16962258D01*
G36*
X5984050Y17133412D02*
G01*
X5988955Y17119237D01*
X5985620Y17095648D01*
X5981902Y17083404D01*
X5965248Y17046072D01*
X5941755Y17008952D01*
X5914782Y16976978D01*
X5900777Y16964251D01*
X5886581Y16953353D01*
X5865221Y16937646D01*
X5838942Y16918709D01*
X5809985Y16898120D01*
X5780595Y16877458D01*
X5753014Y16858303D01*
X5729486Y16842232D01*
X5712253Y16830827D01*
X5704662Y16826204D01*
X5695714Y16823311D01*
X5693550Y16824898D01*
X5696884Y16832455D01*
X5705337Y16846321D01*
X5710666Y16854242D01*
X5727783Y16878942D01*
X5704890Y16899034D01*
X5680024Y16924650D01*
X5664811Y16950816D01*
X5656776Y16981854D01*
X5656537Y16983480D01*
X5653379Y17001616D01*
X5648200Y17011373D01*
X5637301Y17016670D01*
X5621700Y17020391D01*
X5604121Y17025334D01*
X5593128Y17030527D01*
X5591258Y17032989D01*
X5597121Y17035924D01*
X5613475Y17041545D01*
X5638515Y17049353D01*
X5670437Y17058850D01*
X5707437Y17069536D01*
X5747712Y17080912D01*
X5789457Y17092479D01*
X5830869Y17103739D01*
X5870144Y17114192D01*
X5905477Y17123339D01*
X5935065Y17130681D01*
X5957104Y17135720D01*
X5969790Y17137955D01*
X5970934Y17138021D01*
X5984050Y17133412D01*
G37*
X5984050Y17133412D02*
X5988955Y17119237D01*
X5985620Y17095648D01*
X5981902Y17083404D01*
X5965248Y17046072D01*
X5941755Y17008952D01*
X5914782Y16976978D01*
X5900777Y16964251D01*
X5886581Y16953353D01*
X5865221Y16937646D01*
X5838942Y16918709D01*
X5809985Y16898120D01*
X5780595Y16877458D01*
X5753014Y16858303D01*
X5729486Y16842232D01*
X5712253Y16830827D01*
X5704662Y16826204D01*
X5695714Y16823311D01*
X5693550Y16824898D01*
X5696884Y16832455D01*
X5705337Y16846321D01*
X5710666Y16854242D01*
X5727783Y16878942D01*
X5704890Y16899034D01*
X5680024Y16924650D01*
X5664811Y16950816D01*
X5656776Y16981854D01*
X5656537Y16983480D01*
X5653379Y17001616D01*
X5648200Y17011373D01*
X5637301Y17016670D01*
X5621700Y17020391D01*
X5604121Y17025334D01*
X5593128Y17030527D01*
X5591258Y17032989D01*
X5597121Y17035924D01*
X5613475Y17041545D01*
X5638515Y17049353D01*
X5670437Y17058850D01*
X5707437Y17069536D01*
X5747712Y17080912D01*
X5789457Y17092479D01*
X5830869Y17103739D01*
X5870144Y17114192D01*
X5905477Y17123339D01*
X5935065Y17130681D01*
X5957104Y17135720D01*
X5969790Y17137955D01*
X5970934Y17138021D01*
X5984050Y17133412D01*
%TO.C,JP1*%
G36*
X3410000Y7002500D02*
G01*
X2910000Y7002500D01*
X2910000Y7602500D01*
X3410000Y7602500D01*
X3410000Y7002500D01*
G37*
%TD*%
D13*
%TO.P,JP2,1,A*%
%TO.N,/VDD_F*%
X2525000Y9842500D03*
D14*
%TO.P,JP2,2,B*%
%TO.N,/VDD*%
X3825000Y9842500D03*
%TD*%
D15*
%TO.P,J3,3,Pin_3*%
%TO.N,+5V*%
X2222500Y12700000D03*
%TO.P,J3,2,Pin_2*%
%TO.N,/ANA_IN*%
X2222500Y15240000D03*
D16*
%TO.P,J3,1,Pin_1*%
%TO.N,GND*%
X2222500Y17780000D03*
%TD*%
D17*
%TO.P,J1,1,Pin_1*%
%TO.N,+3V3*%
X10477500Y4117500D03*
D18*
%TO.P,J1,2,Pin_2*%
%TO.N,+5V*%
X10477500Y2847500D03*
%TO.P,J1,3,Pin_3*%
%TO.N,/ENC_IDX*%
X9207500Y4117500D03*
%TO.P,J1,4,Pin_4*%
%TO.N,/LIM_FWD*%
X9207500Y2847500D03*
%TO.P,J1,5,Pin_5*%
%TO.N,/ENC_B*%
X7937500Y4117500D03*
%TO.P,J1,6,Pin_6*%
%TO.N,unconnected-(J1-Pad6)*%
X7937500Y2847500D03*
%TO.P,J1,7,Pin_7*%
%TO.N,/ENC_A*%
X6667500Y4117500D03*
%TO.P,J1,8,Pin_8*%
%TO.N,/LIM_REV*%
X6667500Y2847500D03*
%TO.P,J1,9,Pin_9*%
%TO.N,/ANA_IN*%
X5397500Y4117500D03*
%TO.P,J1,10,Pin_10*%
%TO.N,GND*%
X5397500Y2847500D03*
%TD*%
D19*
%TO.P,JP1,3,B*%
%TO.N,+5V*%
X5110000Y7302500D03*
D20*
%TO.P,JP1,2,C*%
%TO.N,/VDD*%
X3810000Y7302500D03*
D21*
%TO.P,JP1,1,A*%
%TO.N,+3V3*%
X2510000Y7302500D03*
%TD*%
D22*
%TO.N,GND*%
X13716000Y1905000D03*
X7366000Y5207000D03*
%TO.N,/VPP*%
X7300000Y19000000D03*
%TO.N,/PWRDOWN*%
X8500000Y18200000D03*
%TO.N,GND*%
X11200000Y21400000D03*
%TO.N,/MAG_HI*%
X11000000Y18800000D03*
%TO.N,/MAG_LO*%
X11055342Y20142488D03*
X12137292Y15197423D03*
%TO.N,/MAG_HI*%
X12171302Y16648226D03*
%TO.N,/MAG_HI_A*%
X13000000Y18800000D03*
%TO.N,/VDD_A*%
X15401572Y16496678D03*
%TO.N,/MAG_HI_A*%
X15313618Y14557090D03*
%TO.N,GND*%
X13600000Y12400000D03*
X13600000Y6600000D03*
X13600000Y9800000D03*
%TO.N,/PWRDOWN*%
X9150000Y20650000D03*
%TO.N,/VPP*%
X7950000Y20650000D03*
%TO.N,/VDD_F*%
X3500000Y11500000D03*
%TO.N,/VDD*%
X4100000Y6100000D03*
%TO.N,/ANA_IN*%
X5397500Y12382500D03*
X10184900Y12382500D03*
%TO.N,/VDD_A*%
X13652500Y19367500D03*
%TD*%
D23*
%TO.N,GND*%
X13716000Y1905000D02*
X13716000Y2413000D01*
X4645500Y2847500D02*
X5352606Y2140394D01*
X5352606Y2140394D02*
X5397500Y2140394D01*
%TO.N,+3V3*%
X8206242Y5300000D02*
X9295000Y5300000D01*
X9295000Y5300000D02*
X10477500Y4117500D01*
X7639341Y5866901D02*
X8206242Y5300000D01*
X2510000Y6642278D02*
X3756103Y5396175D01*
X3756103Y5396175D02*
X4369289Y5396175D01*
X4369289Y5396175D02*
X4840015Y5866901D01*
X2510000Y7302500D02*
X2510000Y6642278D01*
X4840015Y5866901D02*
X7639341Y5866901D01*
%TO.N,GND*%
X7366000Y5207000D02*
X4826000Y5207000D01*
X4826000Y5207000D02*
X4318000Y4699000D01*
X4318000Y4699000D02*
X4318000Y3175000D01*
X4318000Y3175000D02*
X4645500Y2847500D01*
X4645500Y2847500D02*
X5397500Y2847500D01*
X13716000Y2413000D02*
X13329000Y2800000D01*
X13329000Y2800000D02*
X12700000Y2800000D01*
%TO.N,+5V*%
X10477500Y2847500D02*
X11184606Y2847500D01*
X11184606Y2847500D02*
X11400000Y3062894D01*
X11400000Y3062894D02*
X11400000Y5000000D01*
X11400000Y5000000D02*
X10400000Y6000000D01*
X10400000Y6000000D02*
X8605000Y6000000D01*
X8605000Y6000000D02*
X8128000Y6477000D01*
X6731000Y6477000D02*
X5905500Y7302500D01*
X8128000Y6477000D02*
X6731000Y6477000D01*
X5905500Y7302500D02*
X5110000Y7302500D01*
D24*
%TO.N,GND*%
X11035000Y13335000D02*
X11635000Y13335000D01*
D23*
X11635000Y13515000D02*
X11635000Y13335000D01*
D24*
X11635000Y13335000D02*
X12665000Y13335000D01*
D23*
X11435000Y13715000D02*
X11635000Y13515000D01*
X11435000Y13715000D02*
X11435000Y13335000D01*
X11435000Y17015000D02*
X11435000Y13715000D01*
D24*
X4762500Y13335000D02*
X11035000Y13335000D01*
D23*
X11435000Y13715000D02*
X11415000Y13715000D01*
X11415000Y13715000D02*
X11035000Y13335000D01*
X11200000Y21400000D02*
X10200000Y20400000D01*
X10200000Y20400000D02*
X10200000Y18250000D01*
X10200000Y18250000D02*
X11435000Y17015000D01*
%TO.N,+5V*%
X2222500Y12700000D02*
X3900000Y12700000D01*
X3900000Y12700000D02*
X4800000Y11800000D01*
X4800000Y11800000D02*
X4800000Y7612500D01*
X4800000Y7612500D02*
X5110000Y7302500D01*
%TO.N,/ANA_IN*%
X5397500Y12382500D02*
X4867500Y12382500D01*
X2222500Y15027500D02*
X2222500Y15240000D01*
X4867500Y12382500D02*
X2222500Y15027500D01*
D24*
%TO.N,GND*%
X2222500Y17780000D02*
X3810000Y16192500D01*
X3810000Y16192500D02*
X3810000Y14287500D01*
X12665000Y13335000D02*
X13600000Y12400000D01*
X3810000Y14287500D02*
X4762500Y13335000D01*
D23*
%TO.N,/ANA_IN*%
X5397500Y12382500D02*
X6317500Y12382500D01*
X6317500Y12382500D02*
X6651250Y12716250D01*
X9183750Y12716250D02*
X9517500Y12382500D01*
X6651250Y12716250D02*
X9183750Y12716250D01*
X9517500Y12382500D02*
X10184900Y12382500D01*
%TO.N,/VPP*%
X7300000Y19000000D02*
X7300000Y19600000D01*
X7300000Y19600000D02*
X7950000Y20250000D01*
X7950000Y20250000D02*
X7950000Y20650000D01*
%TO.N,/PWRDOWN*%
X9450000Y19150000D02*
X8500000Y18200000D01*
%TO.N,/MAG_LO*%
X12900000Y15960131D02*
X12137292Y15197423D01*
X12900000Y17500000D02*
X12900000Y15960131D01*
X11659901Y18740099D02*
X12900000Y17500000D01*
X11659901Y19537929D02*
X11659901Y18740099D01*
%TO.N,/MAG_HI*%
X11800000Y17700000D02*
X11000000Y18500000D01*
X11000000Y18500000D02*
X11000000Y18800000D01*
%TO.N,/MAG_LO*%
X11055342Y20142488D02*
X11659901Y19537929D01*
%TO.N,/MAG_HI*%
X12171302Y17328698D02*
X11800000Y17700000D01*
X12171302Y16648226D02*
X12171302Y17328698D01*
%TO.N,/VDD_A*%
X15356711Y17663289D02*
X15400000Y17620000D01*
%TO.N,/MAG_HI_A*%
X14900000Y14970708D02*
X14900000Y16000000D01*
X14900000Y17665457D02*
X13965457Y18600000D01*
%TO.N,/VDD_A*%
X13652500Y19367500D02*
X13843843Y19367500D01*
X15400000Y16498250D02*
X15401572Y16496678D01*
X13843843Y19367500D02*
X15356711Y17854632D01*
%TO.N,/MAG_HI_A*%
X14700000Y16200000D02*
X14700000Y16800000D01*
%TO.N,/VDD_A*%
X15400000Y17620000D02*
X15400000Y16498250D01*
X15356711Y17854632D02*
X15356711Y17663289D01*
%TO.N,/MAG_HI_A*%
X14700000Y16800000D02*
X14900000Y17000000D01*
X14900000Y17000000D02*
X14900000Y17665457D01*
X14900000Y16000000D02*
X14700000Y16200000D01*
X13965457Y18600000D02*
X13900000Y18600000D01*
X13200000Y18600000D02*
X13000000Y18800000D01*
X13900000Y18600000D02*
X13200000Y18600000D01*
X15313618Y14557090D02*
X14900000Y14970708D01*
D24*
%TO.N,GND*%
X12700000Y2800000D02*
X12700000Y4900000D01*
X12700000Y4900000D02*
X13600000Y5800000D01*
X13600000Y5800000D02*
X13600000Y6600000D01*
X13600000Y9800000D02*
X13600000Y12400000D01*
X13600000Y6600000D02*
X13600000Y9800000D01*
D23*
%TO.N,/PWRDOWN*%
X9150000Y20300000D02*
X9450000Y20000000D01*
X9150000Y20650000D02*
X9150000Y20300000D01*
X9450000Y20000000D02*
X9450000Y19150000D01*
D24*
%TO.N,GND*%
X11689189Y1789189D02*
X5748705Y1789189D01*
X5748705Y1789189D02*
X5397500Y2140394D01*
X5397500Y2140394D02*
X5397500Y2847500D01*
X12700000Y2800000D02*
X11689189Y1789189D01*
D23*
%TO.N,/VDD_F*%
X3500000Y11500000D02*
X2525000Y10525000D01*
X2525000Y10525000D02*
X2525000Y9842500D01*
%TO.N,/VDD*%
X3810000Y7302500D02*
X3810000Y9827500D01*
X3810000Y9827500D02*
X3825000Y9842500D01*
%TO.N,+3V3*%
X2525000Y7317500D02*
X2510000Y7302500D01*
%TO.N,/VDD*%
X4100000Y6100000D02*
X3800000Y6400000D01*
X3800000Y6400000D02*
X3800000Y7292500D01*
X3800000Y7292500D02*
X3810000Y7302500D01*
%TD*%
M02*
