%TF.GenerationSoftware,KiCad,Pcbnew,(6.0.5-0)*%
%TF.CreationDate,2022-12-27T15:40:18-08:00*%
%TF.ProjectId,talonsrx-enc-aeat-6600,74616c6f-6e73-4727-982d-656e632d6165,rev?*%
%TF.SameCoordinates,PX9157080PY6d01460*%
%TF.FileFunction,Soldermask,Bot*%
%TF.FilePolarity,Negative*%
%FSLAX46Y46*%
G04 Gerber Fmt 4.6, Leading zero omitted, Abs format (unit mm)*
G04 Created by KiCad (PCBNEW (6.0.5-0)) date 2022-12-27 15:40:18*
%MOMM*%
%LPD*%
G01*
G04 APERTURE LIST*
G04 Aperture macros list*
%AMRoundRect*
0 Rectangle with rounded corners*
0 $1 Rounding radius*
0 $2 $3 $4 $5 $6 $7 $8 $9 X,Y pos of 4 corners*
0 Add a 4 corners polygon primitive as box body*
4,1,4,$2,$3,$4,$5,$6,$7,$8,$9,$2,$3,0*
0 Add four circle primitives for the rounded corners*
1,1,$1+$1,$2,$3*
1,1,$1+$1,$4,$5*
1,1,$1+$1,$6,$7*
1,1,$1+$1,$8,$9*
0 Add four rect primitives between the rounded corners*
20,1,$1+$1,$2,$3,$4,$5,0*
20,1,$1+$1,$4,$5,$6,$7,0*
20,1,$1+$1,$6,$7,$8,$9,0*
20,1,$1+$1,$8,$9,$2,$3,0*%
G04 Aperture macros list end*
%ADD10RoundRect,0.211000X-0.222500X-0.160000X0.222500X-0.160000X0.222500X0.160000X-0.222500X0.160000X0*%
%ADD11RoundRect,0.211000X0.222500X0.160000X-0.222500X0.160000X-0.222500X-0.160000X0.222500X-0.160000X0*%
%ADD12O,1.802000X1.802000*%
%ADD13RoundRect,0.051000X-0.850000X-0.850000X0.850000X-0.850000X0.850000X0.850000X-0.850000X0.850000X0*%
%ADD14RoundRect,0.301000X-0.250000X-0.475000X0.250000X-0.475000X0.250000X0.475000X-0.250000X0.475000X0*%
%ADD15RoundRect,0.051000X0.737500X-0.225000X0.737500X0.225000X-0.737500X0.225000X-0.737500X-0.225000X0*%
%ADD16C,2.802000*%
%ADD17RoundRect,0.051000X-0.500000X0.500000X-0.500000X-0.500000X0.500000X-0.500000X0.500000X0.500000X0*%
%ADD18O,1.102000X1.102000*%
%ADD19RoundRect,0.051000X0.400000X0.250000X-0.400000X0.250000X-0.400000X-0.250000X0.400000X-0.250000X0*%
%ADD20RoundRect,0.051000X0.400000X0.200000X-0.400000X0.200000X-0.400000X-0.200000X0.400000X-0.200000X0*%
%ADD21RoundRect,0.301000X0.250000X0.475000X-0.250000X0.475000X-0.250000X-0.475000X0.250000X-0.475000X0*%
%ADD22C,1.452000*%
%ADD23RoundRect,0.194750X-0.143750X-0.331250X0.143750X-0.331250X0.143750X0.331250X-0.143750X0.331250X0*%
%ADD24C,0.886860*%
%ADD25C,1.090060*%
%ADD26C,1.087520*%
%ADD27RoundRect,0.301000X-0.262500X-0.450000X0.262500X-0.450000X0.262500X0.450000X-0.262500X0.450000X0*%
G04 APERTURE END LIST*
D10*
%TO.C,D9*%
X13145500Y2540000D03*
X12000500Y2540000D03*
%TD*%
D11*
%TO.C,D8*%
X4001500Y4826000D03*
X2856500Y4826000D03*
%TD*%
D10*
%TO.C,D7*%
X12000500Y4191000D03*
X13145500Y4191000D03*
%TD*%
%TO.C,D6*%
X6158500Y6096000D03*
X7303500Y6096000D03*
%TD*%
D11*
%TO.C,D5*%
X9716500Y6096000D03*
X8571500Y6096000D03*
%TD*%
D10*
%TO.C,D4*%
X12000500Y5842000D03*
X13145500Y5842000D03*
%TD*%
D12*
%TO.C,J3*%
X2222500Y12700000D03*
X2222500Y15240000D03*
D13*
X2222500Y17780000D03*
%TD*%
D14*
%TO.C,C2*%
X11432500Y11112500D03*
X13332500Y11112500D03*
%TD*%
D15*
%TO.C,U1*%
X4999500Y17832500D03*
X4999500Y17182500D03*
X4999500Y16532500D03*
X4999500Y15882500D03*
X4999500Y15232500D03*
X4999500Y14582500D03*
X4999500Y13932500D03*
X4999500Y13282500D03*
X10875500Y13282500D03*
X10875500Y13932500D03*
X10875500Y14582500D03*
X10875500Y15232500D03*
X10875500Y15882500D03*
X10875500Y16532500D03*
X10875500Y17182500D03*
X10875500Y17832500D03*
%TD*%
D16*
%TO.C,H1*%
X7937500Y9575800D03*
%TD*%
D17*
%TO.C,J1*%
X10477500Y4117500D03*
D18*
X10477500Y2847500D03*
X9207500Y4117500D03*
X9207500Y2847500D03*
X7937500Y4117500D03*
X7937500Y2847500D03*
X6667500Y4117500D03*
X6667500Y2847500D03*
X5397500Y4117500D03*
X5397500Y2847500D03*
%TD*%
D19*
%TO.C,RN1*%
X12012500Y21202500D03*
D20*
X12012500Y20402500D03*
X12012500Y19602500D03*
D19*
X12012500Y18802500D03*
X10212500Y18802500D03*
D20*
X10212500Y19602500D03*
X10212500Y20402500D03*
D19*
X10212500Y21202500D03*
%TD*%
D21*
%TO.C,C1*%
X2542500Y7937500D03*
X4442500Y7937500D03*
%TD*%
D22*
%TO.C,D3*%
X13970000Y15557500D03*
D23*
X12982500Y15557500D03*
X14957500Y15557500D03*
%TD*%
D22*
%TO.C,D2*%
X13970000Y17462500D03*
D23*
X12982500Y17462500D03*
X14957500Y17462500D03*
%TD*%
D24*
%TO.C,J2*%
X7302500Y20002500D03*
X7302500Y21272500D03*
X6032500Y20002500D03*
X6032500Y21272500D03*
X4762500Y20002500D03*
X4762500Y21272500D03*
D25*
X3492500Y20637500D03*
D26*
X8572500Y19621500D03*
X8572500Y21653500D03*
%TD*%
D27*
%TO.C,R3*%
X11470000Y7937500D03*
X13295000Y7937500D03*
%TD*%
D22*
%TO.C,D1*%
X13970000Y13652500D03*
D23*
X12982500Y13652500D03*
X14957500Y13652500D03*
%TD*%
M02*
